<?xml version="1.0" encoding="UTF-8" standalone="no"?>
<!DOCTYPE svg PUBLIC "-//W3C//DTD SVG 1.1//EN"
 "http://www.w3.org/Graphics/SVG/1.1/DTD/svg11.dtd">
<!-- Generated by graphviz version 12.0.0 (20240704.0754)
 -->
<!-- Pages: 1 -->
<svg width="1158pt" height="569pt"
 viewBox="0.00 0.00 1158.19 568.78" xmlns="http://www.w3.org/2000/svg" xmlns:xlink="http://www.w3.org/1999/xlink">
<g id="graph0" class="graph" transform="scale(1 1) rotate(0) translate(4 564.78)">
<polygon fill="white" stroke="none" points="-4,4 -4,-564.78 1154.19,-564.78 1154.19,4 -4,4"/>
<!-- Pellet Right -->
<g id="node1" class="node">
<title>Pellet Right</title>
<polygon fill="lightblue" stroke="black" points="182.59,-351.3 125.34,-351.3 125.34,-332.8 182.59,-332.8 182.59,-351.3"/>
<text text-anchor="middle" x="153.96" y="-338.75" font-family="Times,serif" font-size="9.00">Pellet Right</text>
</g>
<!-- Move Down -->
<g id="node21" class="node">
<title>Move Down</title>
<ellipse fill="lightblue" stroke="black" cx="115.96" cy="-134.11" rx="43.66" ry="43.66"/>
<text text-anchor="middle" x="115.96" y="-130.81" font-family="Times,serif" font-size="9.00">Move Down</text>
</g>
<!-- Pellet Right&#45;&gt;Move Down -->
<g id="edge10" class="edge">
<title>Pellet Right&#45;&gt;Move Down</title>
<path fill="none" stroke="red" stroke-width="0.24" d="M152.38,-332.47C147.88,-308.11 134.79,-237.12 125.59,-187.3"/>
<polygon fill="red" stroke="red" stroke-width="0.24" points="129.07,-186.87 123.82,-177.67 122.19,-188.14 129.07,-186.87"/>
</g>
<!-- 20859 -->
<g id="node29" class="node">
<title>20859</title>
<ellipse fill="white" stroke="black" cx="179.96" cy="-241" rx="27.22" ry="27.22"/>
<text text-anchor="middle" x="179.96" y="-237.7" font-family="Times,serif" font-size="9.00">20859</text>
</g>
<!-- Pellet Right&#45;&gt;20859 -->
<g id="edge15" class="edge">
<title>Pellet Right&#45;&gt;20859</title>
<path fill="none" stroke="green" stroke-width="0.62" d="M156.18,-332.61C159.33,-320.61 165.29,-297.89 170.46,-278.2"/>
<polygon fill="green" stroke="green" stroke-width="0.62" points="173.83,-279.14 172.99,-268.57 167.06,-277.36 173.83,-279.14"/>
</g>
<!-- Pellet Left -->
<g id="node2" class="node">
<title>Pellet Left</title>
<polygon fill="lightblue" stroke="black" points="346.96,-542.8 294.96,-542.8 294.96,-524.3 346.96,-524.3 346.96,-542.8"/>
<text text-anchor="middle" x="320.96" y="-530.25" font-family="Times,serif" font-size="9.00">Pellet Left</text>
</g>
<!-- Pellet Up -->
<g id="node3" class="node">
<title>Pellet Up</title>
<polygon fill="lightblue" stroke="black" points="509.46,-452.36 460.46,-452.36 460.46,-433.86 509.46,-433.86 509.46,-452.36"/>
<text text-anchor="middle" x="484.96" y="-439.81" font-family="Times,serif" font-size="9.00">Pellet Up</text>
</g>
<!-- Move Left -->
<g id="node19" class="node">
<title>Move Left</title>
<ellipse fill="lightblue" stroke="black" cx="295.96" cy="-342.05" rx="37.83" ry="37.83"/>
<text text-anchor="middle" x="295.96" y="-338.75" font-family="Times,serif" font-size="9.00">Move Left</text>
</g>
<!-- Pellet Up&#45;&gt;Move Left -->
<g id="edge1" class="edge">
<title>Pellet Up&#45;&gt;Move Left</title>
<path fill="none" stroke="red" stroke-width="0.13" stroke-dasharray="1,5" d="M475.3,-433.43C468.95,-427.99 460.3,-421.04 451.96,-415.88 416.11,-393.69 372.39,-373.84 340.37,-360.49"/>
<polygon fill="red" stroke="red" stroke-width="0.13" points="342.01,-357.38 331.44,-356.81 339.35,-363.85 342.01,-357.38"/>
</g>
<!-- 20931 -->
<g id="node22" class="node">
<title>20931</title>
<ellipse fill="white" stroke="black" cx="484.96" cy="-342.05" rx="27.22" ry="27.22"/>
<text text-anchor="middle" x="484.96" y="-338.75" font-family="Times,serif" font-size="9.00">20931</text>
</g>
<!-- Pellet Up&#45;&gt;20931 -->
<g id="edge17" class="edge">
<title>Pellet Up&#45;&gt;20931</title>
<path fill="none" stroke="red" stroke-width="0.17" stroke-dasharray="1,5" d="M484.96,-433.66C484.96,-421.76 484.96,-399.33 484.96,-379.77"/>
<polygon fill="red" stroke="red" stroke-width="0.17" points="488.46,-379.82 484.96,-369.82 481.46,-379.82 488.46,-379.82"/>
</g>
<!-- Pellet Down -->
<g id="node4" class="node">
<title>Pellet Down</title>
<polygon fill="lightblue" stroke="black" points="187.09,-452.36 126.84,-452.36 126.84,-433.86 187.09,-433.86 187.09,-452.36"/>
<text text-anchor="middle" x="156.96" y="-439.81" font-family="Times,serif" font-size="9.00">Pellet Down</text>
</g>
<!-- Pellet Down&#45;&gt;Move Left -->
<g id="edge2" class="edge">
<title>Pellet Down&#45;&gt;Move Left</title>
<path fill="none" stroke="green" stroke-width="0.16" stroke-dasharray="1,5" d="M168.81,-433.66C188.2,-419.85 227.51,-391.84 257.31,-370.59"/>
<polygon fill="green" stroke="green" stroke-width="0.16" points="259.14,-373.59 265.25,-364.94 255.08,-367.89 259.14,-373.59"/>
</g>
<!-- Power Pellet Right -->
<g id="node5" class="node">
<title>Power Pellet Right</title>
<polygon fill="lightblue" stroke="black" points="489.34,-542.8 406.59,-542.8 406.59,-524.3 489.34,-524.3 489.34,-542.8"/>
<text text-anchor="middle" x="447.96" y="-530.25" font-family="Times,serif" font-size="9.00">Power Pellet Right</text>
</g>
<!-- Power Pellet Left -->
<g id="node6" class="node">
<title>Power Pellet Left</title>
<polygon fill="lightblue" stroke="black" points="191.71,-542.8 114.21,-542.8 114.21,-524.3 191.71,-524.3 191.71,-542.8"/>
<text text-anchor="middle" x="152.96" y="-530.25" font-family="Times,serif" font-size="9.00">Power Pellet Left</text>
</g>
<!-- Power Pellet Left&#45;&gt;Move Down -->
<g id="edge3" class="edge">
<title>Power Pellet Left&#45;&gt;Move Down</title>
<path fill="none" stroke="red" stroke-width="0.18" stroke-dasharray="1,5" d="M118.44,-523.86C90.29,-515.01 51.61,-498.48 28.96,-470.33 2.97,-438.01 11.11,-421.04 5.96,-379.88 -3.33,-305.59 -5.37,-277.48 33.96,-213.77 44.55,-196.62 59.76,-180.63 74.2,-167.6"/>
<polygon fill="red" stroke="red" stroke-width="0.18" points="76.23,-170.47 81.45,-161.25 71.62,-165.21 76.23,-170.47"/>
</g>
<!-- 20490 -->
<g id="node25" class="node">
<title>20490</title>
<ellipse fill="white" stroke="black" cx="231.96" cy="-443.11" rx="27.22" ry="27.22"/>
<text text-anchor="middle" x="231.96" y="-439.81" font-family="Times,serif" font-size="9.00">20490</text>
</g>
<!-- Power Pellet Left&#45;&gt;20490 -->
<g id="edge20" class="edge">
<title>Power Pellet Left&#45;&gt;20490</title>
<path fill="none" stroke="green" stroke-width="0.27" d="M160.54,-524.07C171.28,-512.04 191.44,-489.47 207.61,-471.37"/>
<polygon fill="green" stroke="green" stroke-width="0.27" points="209.94,-474.02 213.99,-464.23 204.72,-469.35 209.94,-474.02"/>
</g>
<!-- Power Pellet Up -->
<g id="node7" class="node">
<title>Power Pellet Up</title>
<polygon fill="lightblue" stroke="black" points="351.21,-452.36 276.71,-452.36 276.71,-433.86 351.21,-433.86 351.21,-452.36"/>
<text text-anchor="middle" x="313.96" y="-439.81" font-family="Times,serif" font-size="9.00">Power Pellet Up</text>
</g>
<!-- Power Pellet Up&#45;&gt;Move Left -->
<g id="edge4" class="edge">
<title>Power Pellet Up&#45;&gt;Move Left</title>
<path fill="none" stroke="green" stroke-width="0.27" d="M312.43,-433.66C310.61,-423.65 307.43,-406.18 304.35,-389.23"/>
<polygon fill="green" stroke="green" stroke-width="0.27" points="307.87,-388.98 302.64,-379.77 300.98,-390.24 307.87,-388.98"/>
</g>
<!-- Power Pellet Down -->
<g id="node8" class="node">
<title>Power Pellet Down</title>
<polygon fill="lightblue" stroke="black" points="310.84,-250.25 225.09,-250.25 225.09,-231.75 310.84,-231.75 310.84,-250.25"/>
<text text-anchor="middle" x="267.96" y="-237.7" font-family="Times,serif" font-size="9.00">Power Pellet Down</text>
</g>
<!-- Move Right -->
<g id="node18" class="node">
<title>Move Right</title>
<ellipse fill="lightblue" stroke="black" cx="267.96" cy="-134.11" rx="41.54" ry="41.54"/>
<text text-anchor="middle" x="267.96" y="-130.81" font-family="Times,serif" font-size="9.00">Move Right</text>
</g>
<!-- Power Pellet Down&#45;&gt;Move Right -->
<g id="edge5" class="edge">
<title>Power Pellet Down&#45;&gt;Move Right</title>
<path fill="none" stroke="green" stroke-width="0.41" d="M267.96,-231.42C267.96,-221.27 267.96,-203.55 267.96,-186.06"/>
<polygon fill="green" stroke="green" stroke-width="0.41" points="271.46,-186.47 267.96,-176.47 264.46,-186.47 271.46,-186.47"/>
</g>
<!-- Power Pellet Down&#45;&gt;Move Down -->
<g id="edge6" class="edge">
<title>Power Pellet Down&#45;&gt;Move Down</title>
<path fill="none" stroke="red" stroke-width="0.4" stroke-dasharray="1,5" d="M255.52,-231.42C234.96,-217.22 192.9,-188.2 160.3,-165.71"/>
<polygon fill="red" stroke="red" stroke-width="0.4" points="162.52,-162.99 152.3,-160.19 158.55,-168.75 162.52,-162.99"/>
</g>
<!-- Ghost Info Right -->
<g id="node9" class="node">
<title>Ghost Info Right</title>
<polygon fill="lightblue" stroke="black" points="605.34,-542.8 528.59,-542.8 528.59,-524.3 605.34,-524.3 605.34,-542.8"/>
<text text-anchor="middle" x="566.96" y="-530.25" font-family="Times,serif" font-size="9.00">Ghost Info Right</text>
</g>
<!-- Ghost Info Left -->
<g id="node10" class="node">
<title>Ghost Info Left</title>
<polygon fill="lightblue" stroke="black" points="705.71,-542.8 634.21,-542.8 634.21,-524.3 705.71,-524.3 705.71,-542.8"/>
<text text-anchor="middle" x="669.96" y="-530.25" font-family="Times,serif" font-size="9.00">Ghost Info Left</text>
</g>
<!-- Move Up -->
<g id="node20" class="node">
<title>Move Up</title>
<ellipse fill="lightblue" stroke="black" cx="697.96" cy="-342.05" rx="35.71" ry="35.71"/>
<text text-anchor="middle" x="697.96" y="-338.75" font-family="Times,serif" font-size="9.00">Move Up</text>
</g>
<!-- Ghost Info Left&#45;&gt;Move Up -->
<g id="edge7" class="edge">
<title>Ghost Info Left&#45;&gt;Move Up</title>
<path fill="none" stroke="red" stroke-width="0.21" d="M667.66,-523.92C662.8,-504.39 652.72,-455.42 661.96,-415.88 664.67,-404.3 669.5,-392.45 674.75,-381.76"/>
<polygon fill="red" stroke="red" stroke-width="0.21" points="677.81,-383.48 679.3,-373 671.59,-380.27 677.81,-383.48"/>
</g>
<!-- 21876 -->
<g id="node27" class="node">
<title>21876</title>
<ellipse fill="white" stroke="black" cx="697.96" cy="-443.11" rx="27.22" ry="27.22"/>
<text text-anchor="middle" x="697.96" y="-439.81" font-family="Times,serif" font-size="9.00">21876</text>
</g>
<!-- Ghost Info Left&#45;&gt;21876 -->
<g id="edge23" class="edge">
<title>Ghost Info Left&#45;&gt;21876</title>
<path fill="none" stroke="green" stroke-width="0.33" d="M672.65,-524.07C675.91,-513.76 681.63,-495.7 686.8,-479.36"/>
<polygon fill="green" stroke="green" stroke-width="0.33" points="690.1,-480.54 689.78,-469.95 683.43,-478.43 690.1,-480.54"/>
</g>
<!-- Ghost Info Up -->
<g id="node11" class="node">
<title>Ghost Info Up</title>
<polygon fill="lightblue" stroke="black" points="792.21,-542.8 723.71,-542.8 723.71,-524.3 792.21,-524.3 792.21,-542.8"/>
<text text-anchor="middle" x="757.96" y="-530.25" font-family="Times,serif" font-size="9.00">Ghost Info Up</text>
</g>
<!-- Ghost Info Down -->
<g id="node12" class="node">
<title>Ghost Info Down</title>
<polygon fill="lightblue" stroke="black" points="889.84,-542.8 810.09,-542.8 810.09,-524.3 889.84,-524.3 889.84,-542.8"/>
<text text-anchor="middle" x="849.96" y="-530.25" font-family="Times,serif" font-size="9.00">Ghost Info Down</text>
</g>
<!-- PAC&#45;MAN Right -->
<g id="node13" class="node">
<title>PAC&#45;MAN Right</title>
<polygon fill="lightblue" stroke="black" points="986.46,-542.8 907.46,-542.8 907.46,-524.3 986.46,-524.3 986.46,-542.8"/>
<text text-anchor="middle" x="946.96" y="-530.25" font-family="Times,serif" font-size="9.00">PAC&#45;MAN Right</text>
</g>
<!-- PAC&#45;MAN Left -->
<g id="node14" class="node">
<title>PAC&#45;MAN Left</title>
<polygon fill="lightblue" stroke="black" points="442.84,-452.36 369.09,-452.36 369.09,-433.86 442.84,-433.86 442.84,-452.36"/>
<text text-anchor="middle" x="405.96" y="-439.81" font-family="Times,serif" font-size="9.00">PAC&#45;MAN Left</text>
</g>
<!-- PAC&#45;MAN Left&#45;&gt;Move Left -->
<g id="edge14" class="edge">
<title>PAC&#45;MAN Left&#45;&gt;Move Left</title>
<path fill="none" stroke="green" stroke-width="0.43" stroke-dasharray="1,5" d="M396.58,-433.66C382.27,-420.77 354.22,-395.52 331.37,-374.94"/>
<polygon fill="green" stroke="green" stroke-width="0.43" points="333.79,-372.41 324.02,-368.32 329.11,-377.61 333.79,-372.41"/>
</g>
<!-- PAC&#45;MAN Up -->
<g id="node15" class="node">
<title>PAC&#45;MAN Up</title>
<polygon fill="lightblue" stroke="black" points="108.34,-452.36 37.59,-452.36 37.59,-433.86 108.34,-433.86 108.34,-452.36"/>
<text text-anchor="middle" x="72.96" y="-439.81" font-family="Times,serif" font-size="9.00">PAC&#45;MAN Up</text>
</g>
<!-- PAC&#45;MAN Up&#45;&gt;Move Left -->
<g id="edge8" class="edge">
<title>PAC&#45;MAN Up&#45;&gt;Move Left</title>
<path fill="none" stroke="red" stroke-width="0.28" stroke-dasharray="1,5" d="M85.97,-433.57C94.76,-428.05 106.76,-420.97 117.96,-415.88 163.65,-395.14 178.78,-399.49 224.96,-379.88 234.55,-375.81 244.61,-370.97 254.05,-366.15"/>
<polygon fill="red" stroke="red" stroke-width="0.28" points="255.6,-369.28 262.86,-361.56 252.37,-363.07 255.6,-369.28"/>
</g>
<!-- 21765 -->
<g id="node24" class="node">
<title>21765</title>
<ellipse fill="white" stroke="black" cx="41.96" cy="-342.05" rx="27.22" ry="27.22"/>
<text text-anchor="middle" x="41.96" y="-338.75" font-family="Times,serif" font-size="9.00">21765</text>
</g>
<!-- PAC&#45;MAN Up&#45;&gt;21765 -->
<g id="edge21" class="edge">
<title>PAC&#45;MAN Up&#45;&gt;21765</title>
<path fill="none" stroke="green" stroke-width="0.39" d="M70.32,-433.66C66.5,-421.47 59.23,-398.22 53,-378.32"/>
<polygon fill="green" stroke="green" stroke-width="0.39" points="56.37,-377.36 50.04,-368.87 49.69,-379.46 56.37,-377.36"/>
</g>
<!-- 19950 -->
<g id="node26" class="node">
<title>19950</title>
<ellipse fill="white" stroke="black" cx="69.96" cy="-241" rx="27.22" ry="27.22"/>
<text text-anchor="middle" x="69.96" y="-237.7" font-family="Times,serif" font-size="9.00">19950</text>
</g>
<!-- PAC&#45;MAN Up&#45;&gt;19950 -->
<g id="edge11" class="edge">
<title>PAC&#45;MAN Up&#45;&gt;19950</title>
<path fill="none" stroke="red" stroke-width="0.48" d="M73.86,-433.66C75.07,-421.71 77.19,-399.16 77.96,-379.88 79.31,-346.28 80.11,-337.78 77.96,-304.22 77.44,-295.98 76.52,-287.17 75.49,-278.84"/>
<polygon fill="red" stroke="red" stroke-width="0.48" points="78.97,-278.45 74.19,-268.99 72.03,-279.37 78.97,-278.45"/>
</g>
<!-- PAC&#45;MAN Up&#45;&gt;20859 -->
<g id="edge18" class="edge">
<title>PAC&#45;MAN Up&#45;&gt;20859</title>
<path fill="none" stroke="red" stroke-width="0.12" d="M87,-433.56C95.8,-428.3 107.43,-421.5 117.96,-415.88 150.23,-398.66 172.57,-410.89 191.96,-379.88 211.43,-348.77 203.39,-305.7 193.75,-276.02"/>
<polygon fill="red" stroke="red" stroke-width="0.12" points="197.09,-274.97 190.51,-266.67 190.47,-277.26 197.09,-274.97"/>
</g>
<!-- PACM&#45;MAN Down -->
<g id="node16" class="node">
<title>PACM&#45;MAN Down</title>
<polygon fill="lightblue" stroke="black" points="833.09,-452.36 742.84,-452.36 742.84,-433.86 833.09,-433.86 833.09,-452.36"/>
<text text-anchor="middle" x="787.96" y="-439.81" font-family="Times,serif" font-size="9.00">PACM&#45;MAN Down</text>
</g>
<!-- PACM&#45;MAN Down&#45;&gt;Move Up -->
<g id="edge9" class="edge">
<title>PACM&#45;MAN Down&#45;&gt;Move Up</title>
<path fill="none" stroke="red" stroke-width="0.21" d="M780.29,-433.66C768.91,-421.13 746.91,-396.92 728.52,-376.68"/>
<polygon fill="red" stroke="red" stroke-width="0.21" points="731.2,-374.43 721.89,-369.39 726.02,-379.14 731.2,-374.43"/>
</g>
<!-- Power&#45;Up Time -->
<g id="node17" class="node">
<title>Power&#45;Up Time</title>
<polygon fill="lightblue" stroke="black" points="1077.84,-542.8 1004.09,-542.8 1004.09,-524.3 1077.84,-524.3 1077.84,-542.8"/>
<text text-anchor="middle" x="1040.96" y="-530.25" font-family="Times,serif" font-size="9.00">Power&#45;Up Time</text>
</g>
<!-- 21282 -->
<g id="node23" class="node">
<title>21282</title>
<ellipse fill="white" stroke="black" cx="151.96" cy="-27.22" rx="27.22" ry="27.22"/>
<text text-anchor="middle" x="151.96" y="-23.92" font-family="Times,serif" font-size="9.00">21282</text>
</g>
<!-- Move Down&#45;&gt;21282 -->
<g id="edge19" class="edge">
<title>Move Down&#45;&gt;21282</title>
<path fill="none" stroke="green" stroke-width="0.21" stroke-dasharray="1,5" d="M129.98,-92.26C133.29,-82.63 136.78,-72.45 139.99,-63.11"/>
<polygon fill="green" stroke="green" stroke-width="0.21" points="143.29,-64.26 143.23,-53.66 136.67,-61.99 143.29,-64.26"/>
</g>
<!-- 21765&#45;&gt;19950 -->
<g id="edge22" class="edge">
<title>21765&#45;&gt;19950</title>
<path fill="none" stroke="red" stroke-width="0.21" d="M49.17,-315.54C52.47,-303.87 56.43,-289.86 60.01,-277.2"/>
<polygon fill="red" stroke="red" stroke-width="0.21" points="63.34,-278.31 62.69,-267.73 56.6,-276.4 63.34,-278.31"/>
</g>
<!-- 20490&#45;&gt;Move Left -->
<g id="edge13" class="edge">
<title>20490&#45;&gt;Move Left</title>
<path fill="none" stroke="green" stroke-width="0.84" d="M246.49,-419.63C253.36,-408.99 261.79,-395.94 269.73,-383.65"/>
<polygon fill="green" stroke="green" stroke-width="0.84" points="272.5,-385.82 274.98,-375.52 266.62,-382.02 272.5,-385.82"/>
</g>
<!-- 19950&#45;&gt;Move Down -->
<g id="edge12" class="edge">
<title>19950&#45;&gt;Move Down</title>
<path fill="none" stroke="green" stroke-width="0.29" d="M80.63,-215.67C84.78,-206.22 89.68,-195.03 94.5,-184.05"/>
<polygon fill="green" stroke="green" stroke-width="0.29" points="97.7,-185.47 98.51,-174.9 91.29,-182.66 97.7,-185.47"/>
</g>
<!-- 21876&#45;&gt;Move Up -->
<g id="edge24" class="edge">
<title>21876&#45;&gt;Move Up</title>
<path fill="none" stroke="red" stroke-width="0.35" d="M697.96,-415.56C697.96,-407.23 697.96,-397.79 697.96,-388.54"/>
<polygon fill="red" stroke="red" stroke-width="0.35" points="701.46,-388.78 697.96,-378.78 694.46,-388.78 701.46,-388.78"/>
</g>
<!-- 19288 -->
<g id="node28" class="node">
<title>19288</title>
<ellipse fill="white" stroke="black" cx="1122.96" cy="-533.55" rx="27.22" ry="27.22"/>
<text text-anchor="middle" x="1122.96" y="-530.25" font-family="Times,serif" font-size="9.00">19288</text>
</g>
<!-- 20859&#45;&gt;Move Down -->
<g id="edge16" class="edge">
<title>20859&#45;&gt;Move Down</title>
<path fill="none" stroke="red" stroke-width="0.33" d="M166.08,-217.24C159.5,-206.47 151.41,-193.21 143.66,-180.51"/>
<polygon fill="red" stroke="red" stroke-width="0.33" points="146.83,-178.98 138.64,-172.27 140.86,-182.63 146.83,-178.98"/>
</g>
<!-- 20859&#45;&gt;21282 -->
<g id="edge25" class="edge">
<title>20859&#45;&gt;21282</title>
<path fill="none" stroke="green" stroke-width="0.28" stroke-dasharray="1,5" d="M179.55,-213.34C178.73,-183.28 176.28,-133.04 168.96,-90.45 167.45,-81.64 165.23,-72.28 162.89,-63.57"/>
<polygon fill="green" stroke="green" stroke-width="0.28" points="166.31,-62.79 160.23,-54.11 159.57,-64.68 166.31,-62.79"/>
</g>
</g>
</svg>
