<?xml version="1.0" encoding="UTF-8" standalone="no"?>
<!DOCTYPE svg PUBLIC "-//W3C//DTD SVG 1.1//EN"
 "http://www.w3.org/Graphics/SVG/1.1/DTD/svg11.dtd">
<!-- Generated by graphviz version 12.0.0 (20240704.0754)
 -->
<!-- Pages: 1 -->
<svg width="1738pt" height="353pt"
 viewBox="0.00 0.00 1737.67 353.00" xmlns="http://www.w3.org/2000/svg" xmlns:xlink="http://www.w3.org/1999/xlink">
<g id="graph0" class="graph" transform="scale(1 1) rotate(0) translate(4 349)">
<polygon fill="white" stroke="none" points="-4,4 -4,-349 1733.67,-349 1733.67,4 -4,4"/>
<!-- Pellet Right -->
<g id="node1" class="node">
<title>Pellet Right</title>
<polygon fill="lightblue" stroke="black" points="1180.63,-275.7 1123.38,-275.7 1123.38,-257.2 1180.63,-257.2 1180.63,-275.7"/>
<text text-anchor="middle" x="1152" y="-263.15" font-family="Times,serif" font-size="9.00">Pellet Right</text>
</g>
<!-- Move Right -->
<g id="node18" class="node">
<title>Move Right</title>
<ellipse fill="lightblue" stroke="black" cx="1120" cy="-41.54" rx="41.54" ry="41.54"/>
<text text-anchor="middle" x="1120" y="-38.24" font-family="Times,serif" font-size="9.00">Move Right</text>
</g>
<!-- Pellet Right&#45;&gt;Move Right -->
<g id="edge1" class="edge">
<title>Pellet Right&#45;&gt;Move Right</title>
<path fill="none" stroke="green" stroke-width="0.6" d="M1151.12,-256.85C1148.77,-234.23 1141.97,-171.22 1134,-119.09 1132.73,-110.73 1131.24,-101.88 1129.71,-93.29"/>
<polygon fill="green" stroke="green" stroke-width="0.6" points="1133.17,-92.7 1127.95,-83.48 1126.28,-93.95 1133.17,-92.7"/>
</g>
<!-- Move Left -->
<g id="node19" class="node">
<title>Move Left</title>
<ellipse fill="lightblue" stroke="black" cx="797" cy="-162.75" rx="37.83" ry="37.83"/>
<text text-anchor="middle" x="797" y="-159.45" font-family="Times,serif" font-size="9.00">Move Left</text>
</g>
<!-- Pellet Right&#45;&gt;Move Left -->
<g id="edge2" class="edge">
<title>Pellet Right&#45;&gt;Move Left</title>
<path fill="none" stroke="green" stroke-width="0.26" stroke-dasharray="1,5" d="M1140.19,-256.76C1133.17,-251.94 1123.92,-246.18 1115,-242.41 1023.19,-203.63 908.06,-181.08 844.56,-170.71"/>
<polygon fill="green" stroke="green" stroke-width="0.26" points="845.27,-167.28 834.84,-169.16 844.16,-174.19 845.27,-167.28"/>
</g>
<!-- Move Up -->
<g id="node20" class="node">
<title>Move Up</title>
<ellipse fill="lightblue" stroke="black" cx="1056" cy="-162.75" rx="35.71" ry="35.71"/>
<text text-anchor="middle" x="1056" y="-159.45" font-family="Times,serif" font-size="9.00">Move Up</text>
</g>
<!-- Pellet Right&#45;&gt;Move Up -->
<g id="edge3" class="edge">
<title>Pellet Right&#45;&gt;Move Up</title>
<path fill="none" stroke="red" stroke-width="0.39" d="M1143.82,-256.78C1131.38,-243.61 1107.06,-217.84 1087.16,-196.76"/>
<polygon fill="red" stroke="red" stroke-width="0.39" points="1089.88,-194.54 1080.47,-189.67 1084.79,-199.34 1089.88,-194.54"/>
</g>
<!-- Move Down -->
<g id="node21" class="node">
<title>Move Down</title>
<ellipse fill="lightblue" stroke="black" cx="572" cy="-162.75" rx="43.66" ry="43.66"/>
<text text-anchor="middle" x="572" y="-159.45" font-family="Times,serif" font-size="9.00">Move Down</text>
</g>
<!-- Pellet Right&#45;&gt;Move Down -->
<g id="edge4" class="edge">
<title>Pellet Right&#45;&gt;Move Down</title>
<path fill="none" stroke="green" stroke-width="0.33" stroke-dasharray="1,5" d="M1141.37,-256.9C1134.32,-251.74 1124.64,-245.58 1115,-242.41 920.18,-178.38 852.29,-262.39 655,-206.41 642.46,-202.85 629.6,-197.32 617.86,-191.39"/>
<polygon fill="green" stroke="green" stroke-width="0.33" points="619.64,-188.38 609.16,-186.83 616.39,-194.57 619.64,-188.38"/>
</g>
<!-- 5269 -->
<g id="node27" class="node">
<title>5269</title>
<ellipse fill="white" stroke="black" cx="1300" cy="-162.75" rx="24.04" ry="24.04"/>
<text text-anchor="middle" x="1300" y="-159.45" font-family="Times,serif" font-size="9.00">5269</text>
</g>
<!-- Pellet Right&#45;&gt;5269 -->
<g id="edge71" class="edge">
<title>Pellet Right&#45;&gt;5269</title>
<path fill="none" stroke="green" stroke-width="0.14" d="M1164.62,-256.78C1188.36,-240.47 1240.18,-204.86 1272.38,-182.73"/>
<polygon fill="green" stroke="green" stroke-width="0.14" points="1274.07,-185.82 1280.33,-177.27 1270.11,-180.05 1274.07,-185.82"/>
</g>
<!-- Pellet Left -->
<g id="node2" class="node">
<title>Pellet Left</title>
<polygon fill="lightblue" stroke="black" points="875,-345 823,-345 823,-326.5 875,-326.5 875,-345"/>
<text text-anchor="middle" x="849" y="-332.45" font-family="Times,serif" font-size="9.00">Pellet Left</text>
</g>
<!-- Pellet Left&#45;&gt;Move Right -->
<g id="edge5" class="edge">
<title>Pellet Left&#45;&gt;Move Right</title>
<path fill="none" stroke="red" stroke-width="0.37" d="M875.47,-334.39C1016.55,-332.36 1674.77,-321.28 1704,-290.5 1727.59,-265.66 1749.53,-175.08 1698,-119.09 1662.59,-80.6 1307.7,-54.37 1172.2,-45.69"/>
<polygon fill="red" stroke="red" stroke-width="0.37" points="1172.45,-42.2 1162.25,-45.06 1172.01,-49.18 1172.45,-42.2"/>
</g>
<!-- Pellet Left&#45;&gt;Move Left -->
<g id="edge6" class="edge">
<title>Pellet Left&#45;&gt;Move Left</title>
<path fill="none" stroke="red" stroke-width="0.57" d="M847.85,-326.46C845.46,-310.13 839.39,-272.74 830,-242.41 826.38,-230.7 821.65,-218.34 816.91,-206.98"/>
<polygon fill="red" stroke="red" stroke-width="0.57" points="820.25,-205.89 813.1,-198.08 813.81,-208.65 820.25,-205.89"/>
</g>
<!-- Pellet Left&#45;&gt;Move Up -->
<g id="edge7" class="edge">
<title>Pellet Left&#45;&gt;Move Up</title>
<path fill="none" stroke="red" stroke-width="0.27" d="M875.32,-334.99C990.63,-335.79 1447.47,-336.06 1490,-290.5 1504.58,-274.87 1503.86,-258.68 1490,-242.41 1457.46,-204.19 1316.39,-215.39 1267,-206.41 1209.59,-195.98 1143.73,-182.4 1101.07,-173.4"/>
<polygon fill="red" stroke="red" stroke-width="0.27" points="1101.93,-170 1091.42,-171.35 1100.48,-176.85 1101.93,-170"/>
</g>
<!-- Pellet Left&#45;&gt;Move Down -->
<g id="edge8" class="edge">
<title>Pellet Left&#45;&gt;Move Down</title>
<path fill="none" stroke="red" stroke-width="0.51" d="M822.68,-333.34C685.39,-325.99 57.69,-292.28 56,-290.5 41.32,-274.97 42.08,-258.62 56,-242.41 115.11,-173.61 397.36,-164.31 517.58,-163.52"/>
<polygon fill="red" stroke="red" stroke-width="0.51" points="517.25,-167.03 527.24,-163.48 517.22,-160.03 517.25,-167.03"/>
</g>
<!-- 6651 -->
<g id="node28" class="node">
<title>6651</title>
<ellipse fill="white" stroke="black" cx="797" cy="-266.45" rx="24.04" ry="24.04"/>
<text text-anchor="middle" x="797" y="-263.15" font-family="Times,serif" font-size="9.00">6651</text>
</g>
<!-- Pellet Left&#45;&gt;6651 -->
<g id="edge66" class="edge">
<title>Pellet Left&#45;&gt;6651</title>
<path fill="none" stroke="red" stroke-width="0.3" d="M842.42,-326.22C836.17,-318.14 826.45,-305.57 817.61,-294.12"/>
<polygon fill="red" stroke="red" stroke-width="0.3" points="820.55,-292.2 811.66,-286.43 815.01,-296.48 820.55,-292.2"/>
</g>
<!-- Pellet Up -->
<g id="node3" class="node">
<title>Pellet Up</title>
<polygon fill="lightblue" stroke="black" points="1105.5,-275.7 1056.5,-275.7 1056.5,-257.2 1105.5,-257.2 1105.5,-275.7"/>
<text text-anchor="middle" x="1081" y="-263.15" font-family="Times,serif" font-size="9.00">Pellet Up</text>
</g>
<!-- Pellet Up&#45;&gt;Move Right -->
<g id="edge60" class="edge">
<title>Pellet Up&#45;&gt;Move Right</title>
<path fill="none" stroke="red" stroke-width="0.12" stroke-dasharray="1,5" d="M1084.57,-256.82C1089.12,-245.46 1096.87,-224.79 1101,-206.41 1109.42,-168.93 1114.24,-125.74 1116.91,-93.12"/>
<polygon fill="red" stroke="red" stroke-width="0.12" points="1120.37,-93.77 1117.66,-83.53 1113.39,-93.23 1120.37,-93.77"/>
</g>
<!-- Pellet Up&#45;&gt;Move Left -->
<g id="edge9" class="edge">
<title>Pellet Up&#45;&gt;Move Left</title>
<path fill="none" stroke="green" stroke-width="0.16" stroke-dasharray="1,5" d="M1070.52,-256.89C1064.28,-252.12 1056.03,-246.36 1048,-242.41 980.37,-209.19 895.65,-186.11 843.97,-173.91"/>
<polygon fill="green" stroke="green" stroke-width="0.16" points="844.85,-170.52 834.32,-171.67 843.26,-177.34 844.85,-170.52"/>
</g>
<!-- Pellet Up&#45;&gt;Move Up -->
<g id="edge10" class="edge">
<title>Pellet Up&#45;&gt;Move Up</title>
<path fill="none" stroke="green" stroke-width="0.19" stroke-dasharray="1,5" d="M1078.87,-256.78C1076.17,-245.79 1071.31,-226.03 1066.77,-207.55"/>
<polygon fill="green" stroke="green" stroke-width="0.19" points="1070.22,-206.91 1064.43,-198.04 1063.42,-208.59 1070.22,-206.91"/>
</g>
<!-- Pellet Down -->
<g id="node4" class="node">
<title>Pellet Down</title>
<polygon fill="lightblue" stroke="black" points="1695.13,-275.7 1634.88,-275.7 1634.88,-257.2 1695.13,-257.2 1695.13,-275.7"/>
<text text-anchor="middle" x="1665" y="-263.15" font-family="Times,serif" font-size="9.00">Pellet Down</text>
</g>
<!-- Pellet Down&#45;&gt;Move Right -->
<g id="edge11" class="edge">
<title>Pellet Down&#45;&gt;Move Right</title>
<path fill="none" stroke="red" stroke-width="0.38" stroke-dasharray="1,5" d="M1660.21,-257.1C1653.71,-245.7 1641.78,-224.62 1632,-206.41 1611.35,-167.94 1622.32,-144.76 1587,-119.09 1521.41,-71.39 1279.24,-51.74 1171.86,-45.24"/>
<polygon fill="red" stroke="red" stroke-width="0.38" points="1172.35,-41.76 1162.16,-44.67 1171.93,-48.75 1172.35,-41.76"/>
</g>
<!-- Pellet Down&#45;&gt;Move Left -->
<g id="edge12" class="edge">
<title>Pellet Down&#45;&gt;Move Left</title>
<path fill="none" stroke="green" stroke-width="0.13" stroke-dasharray="1,5" d="M1653.74,-256.84C1646.3,-251.66 1636.08,-245.49 1626,-242.41 1495.06,-202.47 1146.79,-223.84 1011,-206.41 952.91,-198.96 886.93,-184.95 843.78,-175.02"/>
<polygon fill="green" stroke="green" stroke-width="0.13" points="844.59,-171.61 834.05,-172.76 843,-178.43 844.59,-171.61"/>
</g>
<!-- Pellet Down&#45;&gt;Move Down -->
<g id="edge13" class="edge">
<title>Pellet Down&#45;&gt;Move Down</title>
<path fill="none" stroke="red" stroke-width="0.2" stroke-dasharray="1,5" d="M1653.76,-256.76C1646.33,-251.55 1636.11,-245.38 1626,-242.41 1418.81,-181.63 863.9,-261.07 655,-206.41 642.26,-203.08 629.24,-197.56 617.41,-191.58"/>
<polygon fill="red" stroke="red" stroke-width="0.2" points="619.36,-188.66 608.88,-187.09 616.1,-194.85 619.36,-188.66"/>
</g>
<!-- 7141 -->
<g id="node22" class="node">
<title>7141</title>
<ellipse fill="white" stroke="black" cx="1665" cy="-162.75" rx="24.04" ry="24.04"/>
<text text-anchor="middle" x="1665" y="-159.45" font-family="Times,serif" font-size="9.00">7141</text>
</g>
<!-- Pellet Down&#45;&gt;7141 -->
<g id="edge68" class="edge">
<title>Pellet Down&#45;&gt;7141</title>
<path fill="none" stroke="red" stroke-width="0.45" d="M1665,-256.78C1665,-243.77 1665,-218.5 1665,-197.58"/>
<polygon fill="red" stroke="red" stroke-width="0.45" points="1668.5,-197.8 1665,-187.8 1661.5,-197.8 1668.5,-197.8"/>
</g>
<!-- 7814 -->
<g id="node23" class="node">
<title>7814</title>
<ellipse fill="white" stroke="black" cx="1438" cy="-162.75" rx="24.04" ry="24.04"/>
<text text-anchor="middle" x="1438" y="-159.45" font-family="Times,serif" font-size="9.00">7814</text>
</g>
<!-- Pellet Down&#45;&gt;7814 -->
<g id="edge74" class="edge">
<title>Pellet Down&#45;&gt;7814</title>
<path fill="none" stroke="green" stroke-width="0.15" d="M1652.01,-256.87C1644.59,-252.21 1635,-246.56 1626,-242.41 1581.2,-221.76 1566.39,-225.74 1521,-206.41 1502.81,-198.67 1483.1,-188.61 1467.45,-180.2"/>
<polygon fill="green" stroke="green" stroke-width="0.15" points="1469.41,-177.28 1458.95,-175.58 1466.06,-183.43 1469.41,-177.28"/>
</g>
<!-- 8109 -->
<g id="node24" class="node">
<title>8109</title>
<ellipse fill="white" stroke="black" cx="1554" cy="-162.75" rx="24.04" ry="24.04"/>
<text text-anchor="middle" x="1554" y="-159.45" font-family="Times,serif" font-size="9.00">8109</text>
</g>
<!-- Pellet Down&#45;&gt;8109 -->
<g id="edge75" class="edge">
<title>Pellet Down&#45;&gt;8109</title>
<path fill="none" stroke="green" stroke-width="0.3" d="M1654.68,-256.86C1641.19,-245.55 1616.94,-224.92 1597,-206.41 1590.58,-200.45 1583.78,-193.84 1577.52,-187.65"/>
<polygon fill="green" stroke="green" stroke-width="0.3" points="1580.37,-185.54 1570.82,-180.95 1575.42,-190.49 1580.37,-185.54"/>
</g>
<!-- Power Pellet Right -->
<g id="node5" class="node">
<title>Power Pellet Right</title>
<polygon fill="lightblue" stroke="black" points="755.38,-275.7 672.63,-275.7 672.63,-257.2 755.38,-257.2 755.38,-275.7"/>
<text text-anchor="middle" x="714" y="-263.15" font-family="Times,serif" font-size="9.00">Power Pellet Right</text>
</g>
<!-- Power Pellet Right&#45;&gt;Move Left -->
<g id="edge14" class="edge">
<title>Power Pellet Right&#45;&gt;Move Left</title>
<path fill="none" stroke="red" stroke-width="0.25" d="M721.08,-256.78C731.18,-244.4 750.36,-220.9 766.91,-200.62"/>
<polygon fill="red" stroke="red" stroke-width="0.25" points="769.49,-203 773.1,-193.04 764.07,-198.57 769.49,-203"/>
</g>
<!-- Power Pellet Right&#45;&gt;Move Up -->
<g id="edge15" class="edge">
<title>Power Pellet Right&#45;&gt;Move Up</title>
<path fill="none" stroke="green" stroke-width="0.24" d="M730.83,-256.84C740.39,-252.16 752.68,-246.51 764,-242.41 849.45,-211.46 952.86,-186.4 1010.86,-173.42"/>
<polygon fill="green" stroke="green" stroke-width="0.24" points="1011.44,-176.87 1020.45,-171.29 1009.92,-170.04 1011.44,-176.87"/>
</g>
<!-- Power Pellet Right&#45;&gt;Move Down -->
<g id="edge16" class="edge">
<title>Power Pellet Right&#45;&gt;Move Down</title>
<path fill="none" stroke="green" stroke-width="0.29" d="M701.9,-256.78C682.95,-243.22 645.38,-216.3 615.5,-194.9"/>
<polygon fill="green" stroke="green" stroke-width="0.29" points="617.82,-192.26 607.65,-189.28 613.75,-197.95 617.82,-192.26"/>
</g>
<!-- Power Pellet Left -->
<g id="node6" class="node">
<title>Power Pellet Left</title>
<polygon fill="lightblue" stroke="black" points="683.75,-345 606.25,-345 606.25,-326.5 683.75,-326.5 683.75,-345"/>
<text text-anchor="middle" x="645" y="-332.45" font-family="Times,serif" font-size="9.00">Power Pellet Left</text>
</g>
<!-- Power Pellet Left&#45;&gt;Move Right -->
<g id="edge17" class="edge">
<title>Power Pellet Left&#45;&gt;Move Right</title>
<path fill="none" stroke="red" stroke-width="0.17" d="M605.8,-335.05C473.54,-335.65 49.73,-334.15 9,-290.5 -5.57,-274.87 0.6,-262.06 9,-242.41 40.18,-169.48 65.59,-151.45 138,-119.09 306.66,-43.69 890.17,-41.04 1068.09,-42.05"/>
<polygon fill="red" stroke="red" stroke-width="0.17" points="1067.95,-45.54 1077.97,-42.11 1068,-38.54 1067.95,-45.54"/>
</g>
<!-- Power Pellet Left&#45;&gt;Move Left -->
<g id="edge18" class="edge">
<title>Power Pellet Left&#45;&gt;Move Left</title>
<path fill="none" stroke="red" stroke-width="0.63" d="M644.57,-326.21C644.13,-308.78 645.37,-268.52 664,-242.41 667.08,-238.1 717.09,-209.11 754.88,-187.57"/>
<polygon fill="red" stroke="red" stroke-width="0.63" points="756.4,-190.73 763.36,-182.74 752.94,-184.64 756.4,-190.73"/>
</g>
<!-- Power Pellet Left&#45;&gt;Move Up -->
<g id="edge19" class="edge">
<title>Power Pellet Left&#45;&gt;Move Up</title>
<path fill="none" stroke="red" stroke-width="0.97" d="M683.93,-332.29C807.21,-324.42 1181.41,-299.82 1190,-290.5 1227.88,-249.42 1151.88,-205.46 1099.63,-181.63"/>
<polygon fill="red" stroke="red" stroke-width="0.97" points="1101.13,-178.46 1090.57,-177.59 1098.28,-184.85 1101.13,-178.46"/>
</g>
<!-- Power Pellet Left&#45;&gt;Move Down -->
<g id="edge20" class="edge">
<title>Power Pellet Left&#45;&gt;Move Down</title>
<path fill="none" stroke="red" stroke-width="0.17" stroke-dasharray="1,5" d="M605.76,-334.98C475.38,-335.35 62.71,-333.13 23,-290.5 8.44,-274.86 9,-258.56 23,-242.41 86.8,-168.82 392.64,-162.42 518.11,-162.97"/>
<polygon fill="red" stroke="red" stroke-width="0.17" points="517.98,-166.47 528.01,-163.03 518.03,-159.47 517.98,-166.47"/>
</g>
<!-- 7185 -->
<g id="node26" class="node">
<title>7185</title>
<ellipse fill="white" stroke="black" cx="1261" cy="-266.45" rx="24.04" ry="24.04"/>
<text text-anchor="middle" x="1261" y="-263.15" font-family="Times,serif" font-size="9.00">7185</text>
</g>
<!-- Power Pellet Left&#45;&gt;7185 -->
<g id="edge69" class="edge">
<title>Power Pellet Left&#45;&gt;7185</title>
<path fill="none" stroke="red" stroke-width="0.18" d="M684.13,-332.81C805.73,-326.63 1171.98,-306.88 1223,-290.5 1226.34,-289.43 1229.68,-288.01 1232.93,-286.41"/>
<polygon fill="red" stroke="red" stroke-width="0.18" points="1234.46,-289.56 1241.5,-281.65 1231.06,-283.44 1234.46,-289.56"/>
</g>
<!-- Power Pellet Up -->
<g id="node7" class="node">
<title>Power Pellet Up</title>
<polygon fill="lightblue" stroke="black" points="327.25,-275.7 252.75,-275.7 252.75,-257.2 327.25,-257.2 327.25,-275.7"/>
<text text-anchor="middle" x="290" y="-263.15" font-family="Times,serif" font-size="9.00">Power Pellet Up</text>
</g>
<!-- Power Pellet Up&#45;&gt;Move Right -->
<g id="edge21" class="edge">
<title>Power Pellet Up&#45;&gt;Move Right</title>
<path fill="none" stroke="green" stroke-width="0.34" d="M293.55,-256.91C304.87,-230.89 342.86,-152.31 402,-119.09 516.22,-54.91 922.57,-44.5 1067.87,-42.85"/>
<polygon fill="green" stroke="green" stroke-width="0.34" points="1067.81,-46.35 1077.77,-42.74 1067.74,-39.35 1067.81,-46.35"/>
</g>
<!-- Power Pellet Up&#45;&gt;Move Left -->
<g id="edge22" class="edge">
<title>Power Pellet Up&#45;&gt;Move Left</title>
<path fill="none" stroke="green" stroke-width="0.37" stroke-dasharray="1,5" d="M304.27,-256.76C313.32,-251.69 325.46,-245.67 337,-242.41 501.99,-195.92 557.37,-257.48 721,-206.41 733.3,-202.57 745.83,-196.57 757.07,-190.26"/>
<polygon fill="green" stroke="green" stroke-width="0.37" points="758.83,-193.29 765.69,-185.22 755.29,-187.25 758.83,-193.29"/>
</g>
<!-- Power Pellet Up&#45;&gt;Move Up -->
<g id="edge23" class="edge">
<title>Power Pellet Up&#45;&gt;Move Up</title>
<path fill="none" stroke="green" stroke-width="0.21" d="M303.84,-256.9C312.92,-251.75 325.24,-245.58 337,-242.41 555.11,-183.61 620.15,-236.76 844,-206.41 902.38,-198.5 968.85,-184.26 1011.55,-174.42"/>
<polygon fill="green" stroke="green" stroke-width="0.21" points="1012.09,-177.89 1021.04,-172.21 1010.5,-171.07 1012.09,-177.89"/>
</g>
<!-- Power Pellet Up&#45;&gt;Move Down -->
<g id="edge24" class="edge">
<title>Power Pellet Up&#45;&gt;Move Down</title>
<path fill="none" stroke="red" stroke-width="0.23" d="M306.29,-256.81C315.22,-252.23 326.58,-246.69 337,-242.41 398.87,-217.02 472.25,-193.46 520.35,-178.87"/>
<polygon fill="red" stroke="red" stroke-width="0.23" points="521.31,-182.24 529.88,-176 519.29,-175.54 521.31,-182.24"/>
</g>
<!-- Power Pellet Down -->
<g id="node8" class="node">
<title>Power Pellet Down</title>
<polygon fill="lightblue" stroke="black" points="1480.88,-275.7 1395.13,-275.7 1395.13,-257.2 1480.88,-257.2 1480.88,-275.7"/>
<text text-anchor="middle" x="1438" y="-263.15" font-family="Times,serif" font-size="9.00">Power Pellet Down</text>
</g>
<!-- Power Pellet Down&#45;&gt;Move Right -->
<g id="edge25" class="edge">
<title>Power Pellet Down&#45;&gt;Move Right</title>
<path fill="none" stroke="red" stroke-width="0.39" stroke-dasharray="1,5" d="M1432.85,-256.95C1415.66,-228.81 1359.83,-139.34 1333,-119.09 1284.71,-82.62 1217.44,-62.33 1171.5,-51.95"/>
<polygon fill="red" stroke="red" stroke-width="0.39" points="1172.26,-48.53 1161.74,-49.82 1170.77,-55.37 1172.26,-48.53"/>
</g>
<!-- Power Pellet Down&#45;&gt;Move Left -->
<g id="edge26" class="edge">
<title>Power Pellet Down&#45;&gt;Move Left</title>
<path fill="none" stroke="green" stroke-width="0.37" d="M1422.09,-256.8C1412.04,-251.74 1398.61,-245.72 1386,-242.41 1224.04,-199.95 1176.65,-230.81 1011,-206.41 953.18,-197.9 887.33,-184.15 844.13,-174.57"/>
<polygon fill="green" stroke="green" stroke-width="0.37" points="844.98,-171.17 834.46,-172.41 843.46,-178.01 844.98,-171.17"/>
</g>
<!-- Power Pellet Down&#45;&gt;Move Up -->
<g id="edge27" class="edge">
<title>Power Pellet Down&#45;&gt;Move Up</title>
<path fill="none" stroke="green" stroke-width="0.26" d="M1420.51,-256.74C1410.57,-252.04 1397.79,-246.39 1386,-242.41 1286.62,-208.87 1165.82,-183.93 1101.48,-171.85"/>
<polygon fill="green" stroke="green" stroke-width="0.26" points="1102.14,-168.41 1091.67,-170.03 1100.86,-175.3 1102.14,-168.41"/>
</g>
<!-- Power Pellet Down&#45;&gt;Move Down -->
<g id="edge28" class="edge">
<title>Power Pellet Down&#45;&gt;Move Down</title>
<path fill="none" stroke="red" stroke-width="0.13" d="M1422.6,-256.83C1412.52,-251.64 1398.88,-245.47 1386,-242.41 1069.52,-167.26 969.18,-290.67 655,-206.41 642.28,-203 629.27,-197.46 617.44,-191.47"/>
<polygon fill="red" stroke="red" stroke-width="0.13" points="619.29,-188.5 608.82,-186.93 616.03,-194.69 619.29,-188.5"/>
</g>
<!-- Power Pellet Down&#45;&gt;7814 -->
<g id="edge72" class="edge">
<title>Power Pellet Down&#45;&gt;7814</title>
<path fill="none" stroke="green" stroke-width="0.43" d="M1438,-256.78C1438,-243.77 1438,-218.5 1438,-197.58"/>
<polygon fill="green" stroke="green" stroke-width="0.43" points="1441.5,-197.77 1438,-187.77 1434.5,-197.77 1441.5,-197.77"/>
</g>
<!-- Ghost Info Right -->
<g id="node9" class="node">
<title>Ghost Info Right</title>
<polygon fill="lightblue" stroke="black" points="422.38,-275.7 345.63,-275.7 345.63,-257.2 422.38,-257.2 422.38,-275.7"/>
<text text-anchor="middle" x="384" y="-263.15" font-family="Times,serif" font-size="9.00">Ghost Info Right</text>
</g>
<!-- Ghost Info Right&#45;&gt;Move Right -->
<g id="edge29" class="edge">
<title>Ghost Info Right&#45;&gt;Move Right</title>
<path fill="none" stroke="red" stroke-width="0.17" stroke-dasharray="1,5" d="M386.34,-256.99C393.96,-231.17 420.72,-153.14 474,-119.09 572.31,-56.25 932.74,-44.98 1068.14,-42.97"/>
<polygon fill="red" stroke="red" stroke-width="0.17" points="1068.04,-46.48 1077.99,-42.84 1067.94,-39.48 1068.04,-46.48"/>
</g>
<!-- Ghost Info Right&#45;&gt;Move Left -->
<g id="edge30" class="edge">
<title>Ghost Info Right&#45;&gt;Move Left</title>
<path fill="none" stroke="green" stroke-width="0.36" d="M398.64,-256.89C407.9,-251.87 420.3,-245.85 432,-242.41 556.19,-205.93 598.04,-246.85 721,-206.41 733.24,-202.39 745.75,-196.32 756.99,-190.01"/>
<polygon fill="green" stroke="green" stroke-width="0.36" points="758.75,-193.04 765.63,-184.98 755.22,-186.99 758.75,-193.04"/>
</g>
<!-- Ghost Info Right&#45;&gt;Move Up -->
<g id="edge31" class="edge">
<title>Ghost Info Right&#45;&gt;Move Up</title>
<path fill="none" stroke="green" stroke-width="0.23" d="M398.59,-256.74C407.84,-251.66 420.23,-245.64 432,-242.41 609.28,-193.85 662.07,-232.59 844,-206.41 902.19,-198.04 968.51,-183.95 1011.25,-174.27"/>
<polygon fill="green" stroke="green" stroke-width="0.23" points="1012.01,-177.68 1020.98,-172.04 1010.45,-170.86 1012.01,-177.68"/>
</g>
<!-- Ghost Info Right&#45;&gt;Move Down -->
<g id="edge32" class="edge">
<title>Ghost Info Right&#45;&gt;Move Down</title>
<path fill="none" stroke="green" stroke-width="0.58" stroke-dasharray="1,5" d="M400.03,-256.78C427.24,-242.06 483.48,-211.64 524.26,-189.58"/>
<polygon fill="green" stroke="green" stroke-width="0.58" points="525.84,-192.7 532.97,-184.86 522.51,-186.54 525.84,-192.7"/>
</g>
<!-- Ghost Info Left -->
<g id="node10" class="node">
<title>Ghost Info Left</title>
<polygon fill="lightblue" stroke="black" points="234.75,-275.7 163.25,-275.7 163.25,-257.2 234.75,-257.2 234.75,-275.7"/>
<text text-anchor="middle" x="199" y="-263.15" font-family="Times,serif" font-size="9.00">Ghost Info Left</text>
</g>
<!-- Ghost Info Left&#45;&gt;Move Right -->
<g id="edge33" class="edge">
<title>Ghost Info Left&#45;&gt;Move Right</title>
<path fill="none" stroke="green" stroke-width="0.48" stroke-dasharray="1,5" d="M202.92,-256.87C215.35,-230.73 256.8,-151.86 318,-119.09 448.48,-49.21 911.35,-42.56 1067.85,-42.35"/>
<polygon fill="green" stroke="green" stroke-width="0.48" points="1067.43,-45.85 1077.42,-42.34 1067.42,-38.85 1067.43,-45.85"/>
</g>
<!-- Ghost Info Left&#45;&gt;Move Left -->
<g id="edge34" class="edge">
<title>Ghost Info Left&#45;&gt;Move Left</title>
<path fill="none" stroke="green" stroke-width="0.13" d="M212.21,-256.91C220.88,-251.76 232.68,-245.6 244,-242.41 448.66,-184.83 517.49,-267.91 721,-206.41 733.46,-202.65 746.13,-196.6 757.45,-190.22"/>
<polygon fill="green" stroke="green" stroke-width="0.13" points="759.2,-193.26 766.05,-185.18 755.65,-187.22 759.2,-193.26"/>
</g>
<!-- Ghost Info Left&#45;&gt;Move Down -->
<g id="edge35" class="edge">
<title>Ghost Info Left&#45;&gt;Move Down</title>
<path fill="none" stroke="green" stroke-width="0.34" stroke-dasharray="1,5" d="M213.6,-256.86C222.22,-252.07 233.47,-246.31 244,-242.41 337.84,-207.7 452.53,-184.28 518.43,-172.55"/>
<polygon fill="green" stroke="green" stroke-width="0.34" points="518.82,-176.03 528.07,-170.85 517.61,-169.14 518.82,-176.03"/>
</g>
<!-- Ghost Info Up -->
<g id="node11" class="node">
<title>Ghost Info Up</title>
<polygon fill="lightblue" stroke="black" points="509.25,-275.7 440.75,-275.7 440.75,-257.2 509.25,-257.2 509.25,-275.7"/>
<text text-anchor="middle" x="475" y="-263.15" font-family="Times,serif" font-size="9.00">Ghost Info Up</text>
</g>
<!-- Ghost Info Up&#45;&gt;Move Right -->
<g id="edge36" class="edge">
<title>Ghost Info Up&#45;&gt;Move Right</title>
<path fill="none" stroke="red" stroke-width="0.21" d="M474.64,-256.83C474.09,-231.24 476.28,-155.27 519,-119.09 601.35,-49.34 937.81,-42.23 1068.11,-42.15"/>
<polygon fill="red" stroke="red" stroke-width="0.21" points="1067.92,-45.65 1077.92,-42.16 1067.92,-38.65 1067.92,-45.65"/>
</g>
<!-- Ghost Info Up&#45;&gt;Move Left -->
<g id="edge37" class="edge">
<title>Ghost Info Up&#45;&gt;Move Left</title>
<path fill="none" stroke="green" stroke-width="0.45" stroke-dasharray="1,5" d="M488.44,-256.82C496.67,-251.9 507.6,-246.02 518,-242.41 604.58,-212.4 634.73,-237.27 721,-206.41 733.02,-202.11 745.38,-196.01 756.54,-189.77"/>
<polygon fill="green" stroke="green" stroke-width="0.45" points="758.11,-192.9 765.01,-184.86 754.6,-186.84 758.11,-192.9"/>
</g>
<!-- Ghost Info Up&#45;&gt;Move Up -->
<g id="edge38" class="edge">
<title>Ghost Info Up&#45;&gt;Move Up</title>
<path fill="none" stroke="red" stroke-width="0.28" stroke-dasharray="1,5" d="M487.98,-256.81C496.23,-251.75 507.33,-245.73 518,-242.41 657.22,-199.2 699.96,-228.81 844,-206.41 902.09,-197.38 968.44,-183.43 1011.2,-173.97"/>
<polygon fill="red" stroke="red" stroke-width="0.28" points="1011.87,-177.4 1020.87,-171.81 1010.35,-170.57 1011.87,-177.4"/>
</g>
<!-- Ghost Info Up&#45;&gt;Move Down -->
<g id="edge39" class="edge">
<title>Ghost Info Up&#45;&gt;Move Down</title>
<path fill="none" stroke="red" stroke-width="0.23" d="M483.27,-256.78C494.73,-244.77 516.16,-222.3 535.09,-202.45"/>
<polygon fill="red" stroke="red" stroke-width="0.23" points="537.58,-204.91 541.95,-195.26 532.51,-200.08 537.58,-204.91"/>
</g>
<!-- Ghost Info Down -->
<g id="node12" class="node">
<title>Ghost Info Down</title>
<polygon fill="lightblue" stroke="black" points="144.88,-275.7 65.13,-275.7 65.13,-257.2 144.88,-257.2 144.88,-275.7"/>
<text text-anchor="middle" x="105" y="-263.15" font-family="Times,serif" font-size="9.00">Ghost Info Down</text>
</g>
<!-- Ghost Info Down&#45;&gt;Move Right -->
<g id="edge40" class="edge">
<title>Ghost Info Down&#45;&gt;Move Right</title>
<path fill="none" stroke="red" stroke-width="0.25" stroke-dasharray="1,5" d="M109.23,-256.84C122.62,-230.6 167,-151.48 230,-119.09 377.52,-43.24 899.92,-40.7 1067.71,-41.92"/>
<polygon fill="red" stroke="red" stroke-width="0.25" points="1067.6,-45.42 1077.63,-42 1067.66,-38.42 1067.6,-45.42"/>
</g>
<!-- Ghost Info Down&#45;&gt;Move Left -->
<g id="edge41" class="edge">
<title>Ghost Info Down&#45;&gt;Move Left</title>
<path fill="none" stroke="green" stroke-width="0.29" stroke-dasharray="1,5" d="M119.47,-256.88C128.95,-251.71 141.8,-245.55 154,-242.41 398.57,-179.58 478.86,-278 721,-206.41 733.48,-202.72 746.16,-196.7 757.48,-190.32"/>
<polygon fill="green" stroke="green" stroke-width="0.29" points="759.02,-193.48 765.87,-185.39 755.47,-187.44 759.02,-193.48"/>
</g>
<!-- Ghost Info Down&#45;&gt;Move Down -->
<g id="edge42" class="edge">
<title>Ghost Info Down&#45;&gt;Move Down</title>
<path fill="none" stroke="red" stroke-width="0.14" d="M120.92,-256.71C130.3,-251.88 142.55,-246.12 154,-242.41 281.35,-201.23 437.9,-178.93 518.47,-169.42"/>
<polygon fill="red" stroke="red" stroke-width="0.14" points="518.64,-172.92 528.17,-168.29 517.83,-165.97 518.64,-172.92"/>
</g>
<!-- PAC&#45;MAN Right -->
<g id="node13" class="node">
<title>PAC&#45;MAN Right</title>
<polygon fill="lightblue" stroke="black" points="1616.5,-275.7 1537.5,-275.7 1537.5,-257.2 1616.5,-257.2 1616.5,-275.7"/>
<text text-anchor="middle" x="1577" y="-263.15" font-family="Times,serif" font-size="9.00">PAC&#45;MAN Right</text>
</g>
<!-- PAC&#45;MAN Right&#45;&gt;Move Right -->
<g id="edge43" class="edge">
<title>PAC&#45;MAN Right&#45;&gt;Move Right</title>
<path fill="none" stroke="red" stroke-width="0.22" d="M1567.56,-256.85C1555.8,-245.86 1535.5,-225.91 1521,-206.41 1494.31,-170.53 1507.07,-145.53 1471,-119.09 1423.82,-84.48 1257.26,-59.49 1171.65,-48.6"/>
<polygon fill="red" stroke="red" stroke-width="0.22" points="1172.32,-45.16 1161.96,-47.39 1171.45,-52.1 1172.32,-45.16"/>
</g>
<!-- PAC&#45;MAN Right&#45;&gt;Move Up -->
<g id="edge44" class="edge">
<title>PAC&#45;MAN Right&#45;&gt;Move Up</title>
<path fill="none" stroke="green" stroke-width="0.26" d="M1559.91,-256.79C1549.49,-251.85 1535.77,-245.97 1523,-242.41 1412.31,-211.6 1380.25,-225.81 1267,-206.41 1209.49,-196.56 1143.65,-182.86 1101.03,-173.67"/>
<polygon fill="green" stroke="green" stroke-width="0.26" points="1101.87,-170.27 1091.35,-171.57 1100.39,-177.11 1101.87,-170.27"/>
</g>
<!-- PAC&#45;MAN Right&#45;&gt;5269 -->
<g id="edge63" class="edge">
<title>PAC&#45;MAN Right&#45;&gt;5269</title>
<path fill="none" stroke="green" stroke-width="0.26" d="M1557.96,-256.74C1547.71,-252.2 1534.78,-246.71 1523,-242.41 1471.49,-223.63 1456.68,-224.75 1405,-206.41 1379.98,-197.53 1352.17,-186.16 1331.46,-177.39"/>
<polygon fill="green" stroke="green" stroke-width="0.26" points="1332.84,-174.18 1322.27,-173.47 1330.09,-180.62 1332.84,-174.18"/>
</g>
<!-- PAC&#45;MAN Left -->
<g id="node14" class="node">
<title>PAC&#45;MAN Left</title>
<polygon fill="lightblue" stroke="black" points="1376.88,-275.7 1303.13,-275.7 1303.13,-257.2 1376.88,-257.2 1376.88,-275.7"/>
<text text-anchor="middle" x="1340" y="-263.15" font-family="Times,serif" font-size="9.00">PAC&#45;MAN Left</text>
</g>
<!-- PAC&#45;MAN Left&#45;&gt;Move Right -->
<g id="edge45" class="edge">
<title>PAC&#45;MAN Left&#45;&gt;Move Right</title>
<path fill="none" stroke="green" stroke-width="0.26" d="M1328.15,-256.79C1313.29,-245.74 1287.33,-225.72 1267,-206.41 1225.06,-166.56 1181.33,-116.55 1152.58,-82.32"/>
<polygon fill="green" stroke="green" stroke-width="0.26" points="1155.31,-80.13 1146.22,-74.71 1149.94,-84.62 1155.31,-80.13"/>
</g>
<!-- PAC&#45;MAN Left&#45;&gt;Move Left -->
<g id="edge46" class="edge">
<title>PAC&#45;MAN Left&#45;&gt;Move Left</title>
<path fill="none" stroke="green" stroke-width="1.1" stroke-dasharray="1,5" d="M1326.02,-256.89C1317.16,-251.86 1305.28,-245.85 1294,-242.41 1172.7,-205.49 1136.14,-226.82 1011,-206.41 953.81,-197.09 888.55,-183.67 845.29,-174.38"/>
<polygon fill="green" stroke="green" stroke-width="1.1" points="846.11,-170.98 835.6,-172.29 844.64,-177.82 846.11,-170.98"/>
</g>
<!-- PAC&#45;MAN Left&#45;&gt;Move Up -->
<g id="edge47" class="edge">
<title>PAC&#45;MAN Left&#45;&gt;Move Up</title>
<path fill="none" stroke="green" stroke-width="0.23" d="M1324.09,-256.77C1315.35,-252.18 1304.24,-246.64 1294,-242.41 1275.72,-234.86 1163.41,-198.37 1099.81,-177.85"/>
<polygon fill="green" stroke="green" stroke-width="0.23" points="1100.97,-174.55 1090.38,-174.81 1098.83,-181.21 1100.97,-174.55"/>
</g>
<!-- PAC&#45;MAN Left&#45;&gt;Move Down -->
<g id="edge48" class="edge">
<title>PAC&#45;MAN Left&#45;&gt;Move Down</title>
<path fill="none" stroke="green" stroke-width="0.75" stroke-dasharray="1,5" d="M1326.5,-256.84C1317.63,-251.66 1305.57,-245.49 1294,-242.41 1019.14,-169.2 929.48,-281.06 655,-206.41 642.67,-203.06 630.05,-197.72 618.5,-191.94"/>
<polygon fill="green" stroke="green" stroke-width="0.75" points="620.15,-188.85 609.67,-187.31 616.9,-195.05 620.15,-188.85"/>
</g>
<!-- PAC&#45;MAN Left&#45;&gt;5269 -->
<g id="edge61" class="edge">
<title>PAC&#45;MAN Left&#45;&gt;5269</title>
<path fill="none" stroke="red" stroke-width="0.13" d="M1336.59,-256.78C1331.25,-243.2 1320.65,-216.26 1312.23,-194.84"/>
<polygon fill="red" stroke="red" stroke-width="0.13" points="1315.53,-193.67 1308.61,-185.65 1309.02,-196.23 1315.53,-193.67"/>
</g>
<!-- PAC&#45;MAN Up -->
<g id="node15" class="node">
<title>PAC&#45;MAN Up</title>
<polygon fill="lightblue" stroke="black" points="947.38,-275.7 876.63,-275.7 876.63,-257.2 947.38,-257.2 947.38,-275.7"/>
<text text-anchor="middle" x="912" y="-263.15" font-family="Times,serif" font-size="9.00">PAC&#45;MAN Up</text>
</g>
<!-- PAC&#45;MAN Up&#45;&gt;Move Right -->
<g id="edge49" class="edge">
<title>PAC&#45;MAN Up&#45;&gt;Move Right</title>
<path fill="none" stroke="green" stroke-width="0.41" d="M914.71,-256.86C922.72,-232.6 948.36,-162.53 990,-119.09 1013.08,-95 1045.37,-75.94 1072,-62.86"/>
<polygon fill="green" stroke="green" stroke-width="0.41" points="1073.45,-66.04 1080.96,-58.58 1070.43,-59.73 1073.45,-66.04"/>
</g>
<!-- PAC&#45;MAN Up&#45;&gt;Move Left -->
<g id="edge50" class="edge">
<title>PAC&#45;MAN Up&#45;&gt;Move Left</title>
<path fill="none" stroke="red" stroke-width="0.41" d="M902.2,-256.78C886.97,-243.32 856.89,-216.71 832.78,-195.39"/>
<polygon fill="red" stroke="red" stroke-width="0.41" points="835.14,-192.8 825.33,-188.8 830.5,-198.05 835.14,-192.8"/>
</g>
<!-- PAC&#45;MAN Up&#45;&gt;Move Up -->
<g id="edge51" class="edge">
<title>PAC&#45;MAN Up&#45;&gt;Move Up</title>
<path fill="none" stroke="green" stroke-width="0.52" d="M924.28,-256.78C944.92,-242.21 987.37,-212.22 1018.52,-190.22"/>
<polygon fill="green" stroke="green" stroke-width="0.52" points="1020.19,-193.33 1026.34,-184.7 1016.15,-187.61 1020.19,-193.33"/>
</g>
<!-- PAC&#45;MAN Up&#45;&gt;Move Down -->
<g id="edge52" class="edge">
<title>PAC&#45;MAN Up&#45;&gt;Move Down</title>
<path fill="none" stroke="green" stroke-width="0.18" d="M882.91,-256.74C867.3,-252.2 847.68,-246.71 830,-242.41 752.84,-223.66 729.89,-232.81 655,-206.41 642.82,-202.12 630.18,-196.37 618.55,-190.48"/>
<polygon fill="green" stroke="green" stroke-width="0.18" points="620.19,-187.38 609.71,-185.87 616.96,-193.59 620.19,-187.38"/>
</g>
<!-- PACM&#45;MAN Down -->
<g id="node16" class="node">
<title>PACM&#45;MAN Down</title>
<polygon fill="lightblue" stroke="black" points="617.13,-275.7 526.88,-275.7 526.88,-257.2 617.13,-257.2 617.13,-275.7"/>
<text text-anchor="middle" x="572" y="-263.15" font-family="Times,serif" font-size="9.00">PACM&#45;MAN Down</text>
</g>
<!-- PACM&#45;MAN Down&#45;&gt;Move Left -->
<g id="edge53" class="edge">
<title>PACM&#45;MAN Down&#45;&gt;Move Left</title>
<path fill="none" stroke="red" stroke-width="0.89" stroke-dasharray="1,5" d="M594.15,-256.77C634.18,-241.06 714.97,-209.28 721,-206.41 732.19,-201.08 744.01,-194.8 754.89,-188.71"/>
<polygon fill="red" stroke="red" stroke-width="0.89" points="756.44,-191.85 763.42,-183.88 752.99,-185.77 756.44,-191.85"/>
</g>
<!-- PACM&#45;MAN Down&#45;&gt;Move Up -->
<g id="edge54" class="edge">
<title>PACM&#45;MAN Down&#45;&gt;Move Up</title>
<path fill="none" stroke="green" stroke-width="0.2" d="M605.13,-256.75C622.59,-252.26 644.4,-246.82 664,-242.41 743.6,-224.5 764.01,-222.46 844,-206.41 901.59,-194.86 967.98,-181.49 1010.89,-172.84"/>
<polygon fill="green" stroke="green" stroke-width="0.2" points="1011.33,-176.33 1020.44,-170.92 1009.95,-169.46 1011.33,-176.33"/>
</g>
<!-- PACM&#45;MAN Down&#45;&gt;Move Down -->
<g id="edge55" class="edge">
<title>PACM&#45;MAN Down&#45;&gt;Move Down</title>
<path fill="none" stroke="red" stroke-width="0.44" d="M572,-256.78C572,-247.73 572,-232.73 572,-217.39"/>
<polygon fill="red" stroke="red" stroke-width="0.44" points="575.5,-217.46 572,-207.46 568.5,-217.46 575.5,-217.46"/>
</g>
<!-- 6574 -->
<g id="node25" class="node">
<title>6574</title>
<ellipse fill="white" stroke="black" cx="688" cy="-162.75" rx="24.04" ry="24.04"/>
<text text-anchor="middle" x="688" y="-159.45" font-family="Times,serif" font-size="9.00">6574</text>
</g>
<!-- PACM&#45;MAN Down&#45;&gt;6574 -->
<g id="edge64" class="edge">
<title>PACM&#45;MAN Down&#45;&gt;6574</title>
<path fill="none" stroke="green" stroke-width="0.47" d="M581.89,-256.78C599.59,-241.27 637.2,-208.29 662.54,-186.07"/>
<polygon fill="green" stroke="green" stroke-width="0.47" points="664.55,-188.96 669.76,-179.74 659.94,-183.7 664.55,-188.96"/>
</g>
<!-- Power&#45;Up Time -->
<g id="node17" class="node">
<title>Power&#45;Up Time</title>
<polygon fill="lightblue" stroke="black" points="1038.88,-275.7 965.13,-275.7 965.13,-257.2 1038.88,-257.2 1038.88,-275.7"/>
<text text-anchor="middle" x="1002" y="-263.15" font-family="Times,serif" font-size="9.00">Power&#45;Up Time</text>
</g>
<!-- Power&#45;Up Time&#45;&gt;Move Right -->
<g id="edge56" class="edge">
<title>Power&#45;Up Time&#45;&gt;Move Right</title>
<path fill="none" stroke="green" stroke-width="0.33" d="M1000.11,-256.82C995.37,-233.04 985.15,-165.3 1011,-119.09 1024.69,-94.61 1049.88,-76.14 1072.59,-63.49"/>
<polygon fill="green" stroke="green" stroke-width="0.33" points="1074.18,-66.61 1081.36,-58.82 1070.89,-60.43 1074.18,-66.61"/>
</g>
<!-- Power&#45;Up Time&#45;&gt;Move Left -->
<g id="edge57" class="edge">
<title>Power&#45;Up Time&#45;&gt;Move Left</title>
<path fill="none" stroke="red" stroke-width="0.17" stroke-dasharray="1,5" d="M984.97,-256.9C976.3,-252.55 965.6,-247.19 956,-242.41 916.73,-222.86 871.94,-200.72 839.92,-184.91"/>
<polygon fill="red" stroke="red" stroke-width="0.17" points="841.59,-181.83 831.07,-180.54 838.49,-188.11 841.59,-181.83"/>
</g>
<!-- Power&#45;Up Time&#45;&gt;Move Up -->
<g id="edge58" class="edge">
<title>Power&#45;Up Time&#45;&gt;Move Up</title>
<path fill="none" stroke="red" stroke-width="0.46" d="M1006.61,-256.78C1012.83,-245.06 1024.35,-223.37 1034.69,-203.88"/>
<polygon fill="red" stroke="red" stroke-width="0.46" points="1037.73,-205.63 1039.33,-195.16 1031.55,-202.35 1037.73,-205.63"/>
</g>
<!-- Power&#45;Up Time&#45;&gt;Move Down -->
<g id="edge59" class="edge">
<title>Power&#45;Up Time&#45;&gt;Move Down</title>
<path fill="none" stroke="red" stroke-width="0.28" d="M988.03,-256.86C979.17,-251.82 967.29,-245.8 956,-242.41 826.96,-203.67 783.84,-245.83 655,-206.41 642.66,-202.63 629.95,-197.07 618.31,-191.21"/>
<polygon fill="red" stroke="red" stroke-width="0.28" points="620.1,-188.19 609.61,-186.66 616.86,-194.4 620.1,-188.19"/>
</g>
<!-- 7814&#45;&gt;Move Right -->
<g id="edge73" class="edge">
<title>7814&#45;&gt;Move Right</title>
<path fill="none" stroke="red" stroke-width="0.27" d="M1422.16,-144.73C1413.18,-135.97 1401.3,-125.75 1389,-119.09 1318.68,-80.96 1227.46,-60.2 1171.37,-50.25"/>
<polygon fill="red" stroke="red" stroke-width="0.27" points="1172.17,-46.84 1161.72,-48.59 1170.98,-53.74 1172.17,-46.84"/>
</g>
<!-- 8109&#45;&gt;Move Right -->
<g id="edge76" class="edge">
<title>8109&#45;&gt;Move Right</title>
<path fill="none" stroke="red" stroke-width="0.43" d="M1538.72,-143.89C1530.25,-135.1 1519.01,-125.13 1507,-119.09 1396.56,-63.52 1249.46,-48.26 1172.3,-44.09"/>
<polygon fill="red" stroke="red" stroke-width="0.43" points="1172.7,-40.6 1162.54,-43.6 1172.35,-47.6 1172.7,-40.6"/>
</g>
<!-- 6574&#45;&gt;Move Right -->
<g id="edge65" class="edge">
<title>6574&#45;&gt;Move Right</title>
<path fill="none" stroke="red" stroke-width="0.25" stroke-dasharray="1,5" d="M706.12,-146.39C717.91,-137.16 734.02,-125.91 750,-119.09 857.76,-73.1 995.25,-54.02 1068.54,-46.69"/>
<polygon fill="red" stroke="red" stroke-width="0.25" points="1068.45,-50.22 1078.07,-45.77 1067.78,-43.25 1068.45,-50.22"/>
</g>
<!-- 7185&#45;&gt;Move Up -->
<g id="edge70" class="edge">
<title>7185&#45;&gt;Move Up</title>
<path fill="none" stroke="red" stroke-width="0.18" d="M1241.11,-252.86C1235.34,-249.35 1228.98,-245.62 1223,-242.41 1181.32,-220.04 1132.18,-197.31 1098.04,-182.08"/>
<polygon fill="red" stroke="red" stroke-width="0.18" points="1099.64,-178.96 1089.08,-178.1 1096.8,-185.36 1099.64,-178.96"/>
</g>
<!-- 5269&#45;&gt;Move Right -->
<g id="edge62" class="edge">
<title>5269&#45;&gt;Move Right</title>
<path fill="none" stroke="green" stroke-width="0.35" stroke-dasharray="1,5" d="M1280.05,-148.54C1252,-129.96 1200.2,-95.65 1163.12,-71.1"/>
<polygon fill="green" stroke="green" stroke-width="0.35" points="1165.22,-68.29 1154.95,-65.69 1161.36,-74.13 1165.22,-68.29"/>
</g>
<!-- 6651&#45;&gt;Move Left -->
<g id="edge67" class="edge">
<title>6651&#45;&gt;Move Left</title>
<path fill="none" stroke="green" stroke-width="0.41" d="M797,-242.12C797,-232.97 797,-222.12 797,-211.46"/>
<polygon fill="green" stroke="green" stroke-width="0.41" points="800.5,-211.55 797,-201.55 793.5,-211.55 800.5,-211.55"/>
</g>
</g>
</svg>
