<?xml version="1.0" encoding="UTF-8" standalone="no"?>
<!DOCTYPE svg PUBLIC "-//W3C//DTD SVG 1.1//EN"
 "http://www.w3.org/Graphics/SVG/1.1/DTD/svg11.dtd">
<!-- Generated by graphviz version 12.0.0 (20240704.0754)
 -->
<!-- Pages: 1 -->
<svg width="1833pt" height="240pt"
 viewBox="0.00 0.00 1832.93 240.27" xmlns="http://www.w3.org/2000/svg" xmlns:xlink="http://www.w3.org/1999/xlink">
<g id="graph0" class="graph" transform="scale(1 1) rotate(0) translate(4 236.27)">
<polygon fill="white" stroke="none" points="-4,4 -4,-236.27 1828.93,-236.27 1828.93,4 -4,4"/>
<!-- Pellet Right -->
<g id="node1" class="node">
<title>Pellet Right</title>
<polygon fill="lightblue" stroke="black" points="73.8,-232.27 16.55,-232.27 16.55,-213.77 73.8,-213.77 73.8,-232.27"/>
<text text-anchor="middle" x="45.18" y="-219.72" font-family="Times,serif" font-size="9.00">Pellet Right</text>
</g>
<!-- Move Left -->
<g id="node19" class="node">
<title>Move Left</title>
<ellipse fill="lightblue" stroke="black" cx="372.18" cy="-43.66" rx="37.83" ry="37.83"/>
<text text-anchor="middle" x="372.18" y="-40.36" font-family="Times,serif" font-size="9.00">Move Left</text>
</g>
<!-- Pellet Right&#45;&gt;Move Left -->
<g id="edge1" class="edge">
<title>Pellet Right&#45;&gt;Move Left</title>
<path fill="none" stroke="green" stroke-width="0.34" d="M35.02,-213.39C26.28,-205.24 14.29,-192.15 9.18,-177.77 1.07,-154.97 -6.01,-142.16 9.18,-123.33 48.18,-74.97 234.08,-54.85 323.68,-47.85"/>
<polygon fill="green" stroke="green" stroke-width="0.34" points="323.9,-51.34 333.61,-47.1 323.37,-44.36 323.9,-51.34"/>
</g>
<!-- 10318 -->
<g id="node24" class="node">
<title>10318</title>
<ellipse fill="white" stroke="black" cx="45.18" cy="-150.55" rx="27.22" ry="27.22"/>
<text text-anchor="middle" x="45.18" y="-147.25" font-family="Times,serif" font-size="9.00">10318</text>
</g>
<!-- Pellet Right&#45;&gt;10318 -->
<g id="edge32" class="edge">
<title>Pellet Right&#45;&gt;10318</title>
<path fill="none" stroke="red" stroke-width="0.3" d="M45.18,-213.38C45.18,-207.03 45.18,-197.91 45.18,-188.63"/>
<polygon fill="red" stroke="red" stroke-width="0.3" points="48.68,-188.66 45.18,-178.66 41.68,-188.66 48.68,-188.66"/>
</g>
<!-- 10996 -->
<g id="node25" class="node">
<title>10996</title>
<ellipse fill="white" stroke="black" cx="117.18" cy="-150.55" rx="27.22" ry="27.22"/>
<text text-anchor="middle" x="117.18" y="-147.25" font-family="Times,serif" font-size="9.00">10996</text>
</g>
<!-- Pellet Right&#45;&gt;10996 -->
<g id="edge42" class="edge">
<title>Pellet Right&#45;&gt;10996</title>
<path fill="none" stroke="green" stroke-width="0.3" d="M54.01,-213.38C63.11,-204.47 77.76,-190.14 90.65,-177.51"/>
<polygon fill="green" stroke="green" stroke-width="0.3" points="92.97,-180.14 97.67,-170.65 88.08,-175.14 92.97,-180.14"/>
</g>
<!-- Pellet Left -->
<g id="node2" class="node">
<title>Pellet Left</title>
<polygon fill="lightblue" stroke="black" points="214.18,-159.8 162.18,-159.8 162.18,-141.3 214.18,-141.3 214.18,-159.8"/>
<text text-anchor="middle" x="188.18" y="-147.25" font-family="Times,serif" font-size="9.00">Pellet Left</text>
</g>
<!-- Pellet Left&#45;&gt;Move Left -->
<g id="edge2" class="edge">
<title>Pellet Left&#45;&gt;Move Left</title>
<path fill="none" stroke="green" stroke-width="0.13" stroke-dasharray="1,5" d="M198.9,-140.83C205.67,-135.49 214.71,-128.69 223.18,-123.33 257.67,-101.49 298.84,-80.08 329.15,-65.13"/>
<polygon fill="green" stroke="green" stroke-width="0.13" points="330.58,-68.33 338.02,-60.79 327.5,-62.04 330.58,-68.33"/>
</g>
<!-- Pellet Up -->
<g id="node3" class="node">
<title>Pellet Up</title>
<polygon fill="lightblue" stroke="black" points="1729.68,-159.8 1680.68,-159.8 1680.68,-141.3 1729.68,-141.3 1729.68,-159.8"/>
<text text-anchor="middle" x="1705.18" y="-147.25" font-family="Times,serif" font-size="9.00">Pellet Up</text>
</g>
<!-- Move Up -->
<g id="node20" class="node">
<title>Move Up</title>
<ellipse fill="lightblue" stroke="black" cx="1652.18" cy="-43.66" rx="35.71" ry="35.71"/>
<text text-anchor="middle" x="1652.18" y="-40.36" font-family="Times,serif" font-size="9.00">Move Up</text>
</g>
<!-- Pellet Up&#45;&gt;Move Up -->
<g id="edge3" class="edge">
<title>Pellet Up&#45;&gt;Move Up</title>
<path fill="none" stroke="green" stroke-width="0.1" stroke-dasharray="1,5" d="M1700.84,-140.97C1694.64,-128.69 1682.83,-105.33 1672.4,-84.68"/>
<polygon fill="green" stroke="green" stroke-width="0.1" points="1675.59,-83.23 1667.95,-75.88 1669.34,-86.39 1675.59,-83.23"/>
</g>
<!-- Pellet Down -->
<g id="node4" class="node">
<title>Pellet Down</title>
<polygon fill="lightblue" stroke="black" points="1482.3,-159.8 1422.05,-159.8 1422.05,-141.3 1482.3,-141.3 1482.3,-159.8"/>
<text text-anchor="middle" x="1452.18" y="-147.25" font-family="Times,serif" font-size="9.00">Pellet Down</text>
</g>
<!-- Move Right -->
<g id="node18" class="node">
<title>Move Right</title>
<ellipse fill="lightblue" stroke="black" cx="1256.18" cy="-43.66" rx="41.54" ry="41.54"/>
<text text-anchor="middle" x="1256.18" y="-40.36" font-family="Times,serif" font-size="9.00">Move Right</text>
</g>
<!-- Pellet Down&#45;&gt;Move Right -->
<g id="edge4" class="edge">
<title>Pellet Down&#45;&gt;Move Right</title>
<path fill="none" stroke="red" stroke-width="0.12" stroke-dasharray="1,5" d="M1440.14,-140.87C1432.56,-135.56 1422.48,-128.76 1413.18,-123.33 1377.11,-102.28 1334.69,-81.24 1303.04,-66.22"/>
<polygon fill="red" stroke="red" stroke-width="0.12" points="1304.7,-63.13 1294.16,-62.03 1301.71,-69.46 1304.7,-63.13"/>
</g>
<!-- Pellet Down&#45;&gt;Move Left -->
<g id="edge5" class="edge">
<title>Pellet Down&#45;&gt;Move Left</title>
<path fill="none" stroke="green" stroke-width="0.37" stroke-dasharray="1,5" d="M1442.39,-140.81C1434.94,-134.73 1424.14,-127.07 1413.18,-123.33 1299.16,-84.38 992.32,-96.45 872.18,-87.33 706.27,-74.73 509.62,-57.18 420.44,-49.08"/>
<polygon fill="green" stroke="green" stroke-width="0.37" points="420.94,-45.61 410.67,-48.19 420.31,-52.59 420.94,-45.61"/>
</g>
<!-- Pellet Down&#45;&gt;Move Up -->
<g id="edge6" class="edge">
<title>Pellet Down&#45;&gt;Move Up</title>
<path fill="none" stroke="red" stroke-width="0.13" stroke-dasharray="1,5" d="M1468.55,-140.97C1499.55,-124.71 1567.68,-88.98 1611.68,-65.91"/>
<polygon fill="red" stroke="red" stroke-width="0.13" points="1613.26,-69.02 1620.5,-61.28 1610.01,-62.82 1613.26,-69.02"/>
</g>
<!-- Power Pellet Right -->
<g id="node5" class="node">
<title>Power Pellet Right</title>
<polygon fill="lightblue" stroke="black" points="1010.55,-159.8 927.8,-159.8 927.8,-141.3 1010.55,-141.3 1010.55,-159.8"/>
<text text-anchor="middle" x="969.18" y="-147.25" font-family="Times,serif" font-size="9.00">Power Pellet Right</text>
</g>
<!-- Power Pellet Right&#45;&gt;Move Right -->
<g id="edge7" class="edge">
<title>Power Pellet Right&#45;&gt;Move Right</title>
<path fill="none" stroke="red" stroke-width="0.38" d="M984.51,-140.89C994.49,-135.44 1007.88,-128.5 1020.18,-123.33 1082.99,-96.9 1158.02,-73.17 1206.35,-58.85"/>
<polygon fill="red" stroke="red" stroke-width="0.38" points="1207.09,-62.28 1215.7,-56.1 1205.12,-55.56 1207.09,-62.28"/>
</g>
<!-- Move Down -->
<g id="node21" class="node">
<title>Move Down</title>
<ellipse fill="lightblue" stroke="black" cx="925.18" cy="-43.66" rx="43.66" ry="43.66"/>
<text text-anchor="middle" x="925.18" y="-40.36" font-family="Times,serif" font-size="9.00">Move Down</text>
</g>
<!-- Power Pellet Right&#45;&gt;Move Down -->
<g id="edge8" class="edge">
<title>Power Pellet Right&#45;&gt;Move Down</title>
<path fill="none" stroke="red" stroke-width="0.13" d="M965.58,-140.97C961.17,-130.47 953.36,-111.85 945.78,-93.77"/>
<polygon fill="red" stroke="red" stroke-width="0.13" points="949.02,-92.46 941.93,-84.59 942.57,-95.17 949.02,-92.46"/>
</g>
<!-- Power Pellet Left -->
<g id="node6" class="node">
<title>Power Pellet Left</title>
<polygon fill="lightblue" stroke="black" points="1824.93,-159.8 1747.43,-159.8 1747.43,-141.3 1824.93,-141.3 1824.93,-159.8"/>
<text text-anchor="middle" x="1786.18" y="-147.25" font-family="Times,serif" font-size="9.00">Power Pellet Left</text>
</g>
<!-- Power Pellet Left&#45;&gt;Move Up -->
<g id="edge9" class="edge">
<title>Power Pellet Left&#45;&gt;Move Up</title>
<path fill="none" stroke="green" stroke-width="0.3" stroke-dasharray="1,5" d="M1775.21,-140.97C1756.36,-126.21 1717.02,-95.41 1687.87,-72.6"/>
<polygon fill="green" stroke="green" stroke-width="0.3" points="1690.33,-70.08 1680.3,-66.68 1686.02,-75.6 1690.33,-70.08"/>
</g>
<!-- Power Pellet Up -->
<g id="node7" class="node">
<title>Power Pellet Up</title>
<polygon fill="lightblue" stroke="black" points="1103.43,-159.8 1028.93,-159.8 1028.93,-141.3 1103.43,-141.3 1103.43,-159.8"/>
<text text-anchor="middle" x="1066.18" y="-147.25" font-family="Times,serif" font-size="9.00">Power Pellet Up</text>
</g>
<!-- Power Pellet Up&#45;&gt;Move Right -->
<g id="edge31" class="edge">
<title>Power Pellet Up&#45;&gt;Move Right</title>
<path fill="none" stroke="red" stroke-width="0.46" d="M1081.41,-141.02C1090.6,-135.88 1102.55,-129.21 1113.18,-123.33 1145.8,-105.25 1182.68,-84.97 1210.81,-69.53"/>
<polygon fill="red" stroke="red" stroke-width="0.46" points="1212.3,-72.7 1219.39,-64.82 1208.93,-66.57 1212.3,-72.7"/>
</g>
<!-- Power Pellet Up&#45;&gt;Move Down -->
<g id="edge10" class="edge">
<title>Power Pellet Up&#45;&gt;Move Down</title>
<path fill="none" stroke="red" stroke-width="0.35" d="M1054.64,-140.97C1035.94,-127.06 998.1,-98.91 968.13,-76.62"/>
<polygon fill="red" stroke="red" stroke-width="0.35" points="970.45,-73.98 960.34,-70.82 966.28,-79.6 970.45,-73.98"/>
</g>
<!-- Power Pellet Down -->
<g id="node8" class="node">
<title>Power Pellet Down</title>
<polygon fill="lightblue" stroke="black" points="1624.05,-159.8 1538.3,-159.8 1538.3,-141.3 1624.05,-141.3 1624.05,-159.8"/>
<text text-anchor="middle" x="1581.18" y="-147.25" font-family="Times,serif" font-size="9.00">Power Pellet Down</text>
</g>
<!-- Power Pellet Down&#45;&gt;Move Right -->
<g id="edge11" class="edge">
<title>Power Pellet Down&#45;&gt;Move Right</title>
<path fill="none" stroke="red" stroke-width="0.29" stroke-dasharray="1,5" d="M1563.99,-140.85C1552.82,-135.39 1537.85,-128.45 1524.18,-123.33 1449.95,-95.53 1361.24,-71.16 1306.82,-57.17"/>
<polygon fill="red" stroke="red" stroke-width="0.29" points="1307.71,-53.79 1297.15,-54.7 1305.98,-60.57 1307.71,-53.79"/>
</g>
<!-- Power Pellet Down&#45;&gt;Move Up -->
<g id="edge12" class="edge">
<title>Power Pellet Down&#45;&gt;Move Up</title>
<path fill="none" stroke="red" stroke-width="0.58" d="M1586.99,-140.97C1595.57,-128.3 1612.15,-103.8 1626.44,-82.69"/>
<polygon fill="red" stroke="red" stroke-width="0.58" points="1629.2,-84.86 1631.91,-74.61 1623.4,-80.93 1629.2,-84.86"/>
</g>
<!-- Ghost Info Right -->
<g id="node9" class="node">
<title>Ghost Info Right</title>
<polygon fill="lightblue" stroke="black" points="1198.55,-159.8 1121.8,-159.8 1121.8,-141.3 1198.55,-141.3 1198.55,-159.8"/>
<text text-anchor="middle" x="1160.18" y="-147.25" font-family="Times,serif" font-size="9.00">Ghost Info Right</text>
</g>
<!-- Ghost Info Right&#45;&gt;Move Right -->
<g id="edge13" class="edge">
<title>Ghost Info Right&#45;&gt;Move Right</title>
<path fill="none" stroke="red" stroke-width="0.31" d="M1168.03,-140.97C1179.68,-128.24 1202.24,-103.6 1221.61,-82.43"/>
<polygon fill="red" stroke="red" stroke-width="0.31" points="1224.1,-84.9 1228.27,-75.16 1218.94,-80.17 1224.1,-84.9"/>
</g>
<!-- Ghost Info Right&#45;&gt;Move Down -->
<g id="edge14" class="edge">
<title>Ghost Info Right&#45;&gt;Move Down</title>
<path fill="none" stroke="green" stroke-width="0.31" d="M1145.25,-140.88C1135.88,-135.57 1123.47,-128.77 1112.18,-123.33 1066.55,-101.34 1013.17,-79.23 975.15,-64.07"/>
<polygon fill="green" stroke="green" stroke-width="0.31" points="976.86,-60.99 966.27,-60.55 974.28,-67.49 976.86,-60.99"/>
</g>
<!-- Ghost Info Left -->
<g id="node10" class="node">
<title>Ghost Info Left</title>
<polygon fill="lightblue" stroke="black" points="576.93,-232.27 505.43,-232.27 505.43,-213.77 576.93,-213.77 576.93,-232.27"/>
<text text-anchor="middle" x="541.18" y="-219.72" font-family="Times,serif" font-size="9.00">Ghost Info Left</text>
</g>
<!-- Ghost Info Left&#45;&gt;Move Left -->
<g id="edge15" class="edge">
<title>Ghost Info Left&#45;&gt;Move Left</title>
<path fill="none" stroke="green" stroke-width="0.27" stroke-dasharray="1,5" d="M504.99,-215.74C480.29,-209.77 448.35,-198.49 427.18,-177.77 403.46,-154.57 389.56,-119.65 381.66,-91.4"/>
<polygon fill="green" stroke="green" stroke-width="0.27" points="385.05,-90.52 379.12,-81.73 378.28,-92.29 385.05,-90.52"/>
</g>
<!-- Ghost Info Left&#45;&gt;Move Up -->
<g id="edge16" class="edge">
<title>Ghost Info Left&#45;&gt;Move Up</title>
<path fill="none" stroke="red" stroke-width="0.34" d="M577.15,-220.88C764.8,-214.86 1623.15,-186.84 1633.18,-177.77 1657.19,-156.08 1660.77,-118.83 1659,-89.25"/>
<polygon fill="red" stroke="red" stroke-width="0.34" points="1662.52,-89.34 1658.22,-79.66 1655.54,-89.91 1662.52,-89.34"/>
</g>
<!-- Ghost Info Left&#45;&gt;Move Down -->
<g id="edge17" class="edge">
<title>Ghost Info Left&#45;&gt;Move Down</title>
<path fill="none" stroke="green" stroke-width="0.52" d="M577.39,-220.21C615.06,-216.75 674.28,-206.72 716.18,-177.77 740.46,-161 731.54,-142.25 754.18,-123.33 789.36,-93.92 837.34,-73.12 873.53,-60.32"/>
<polygon fill="green" stroke="green" stroke-width="0.52" points="874.34,-63.74 882.66,-57.18 872.06,-57.12 874.34,-63.74"/>
</g>
<!-- 11399 -->
<g id="node22" class="node">
<title>11399</title>
<ellipse fill="white" stroke="black" cx="680.18" cy="-150.55" rx="27.22" ry="27.22"/>
<text text-anchor="middle" x="680.18" y="-147.25" font-family="Times,serif" font-size="9.00">11399</text>
</g>
<!-- Ghost Info Left&#45;&gt;11399 -->
<g id="edge40" class="edge">
<title>Ghost Info Left&#45;&gt;11399</title>
<path fill="none" stroke="green" stroke-width="0.51" d="M565.64,-213.3C586.98,-205.27 618.47,-192.41 644.18,-177.77 646.2,-176.62 648.24,-175.38 650.27,-174.09"/>
<polygon fill="green" stroke="green" stroke-width="0.51" points="652.05,-177.11 658.37,-168.61 648.12,-171.32 652.05,-177.11"/>
</g>
<!-- Ghost Info Left&#45;&gt;10996 -->
<g id="edge36" class="edge">
<title>Ghost Info Left&#45;&gt;10996</title>
<path fill="none" stroke="red" stroke-width="0.25" d="M505.19,-220.27C421.67,-215.81 216.98,-202.64 153.18,-177.77 150.78,-176.84 148.4,-175.71 146.07,-174.44"/>
<polygon fill="red" stroke="red" stroke-width="0.25" points="148.09,-171.57 137.75,-169.25 144.38,-177.51 148.09,-171.57"/>
</g>
<!-- 11030 -->
<g id="node26" class="node">
<title>11030</title>
<ellipse fill="white" stroke="black" cx="259.18" cy="-150.55" rx="27.22" ry="27.22"/>
<text text-anchor="middle" x="259.18" y="-147.25" font-family="Times,serif" font-size="9.00">11030</text>
</g>
<!-- Ghost Info Left&#45;&gt;11030 -->
<g id="edge38" class="edge">
<title>Ghost Info Left&#45;&gt;11030</title>
<path fill="none" stroke="red" stroke-width="0.14" d="M505.32,-220.42C456.32,-217.16 366.52,-207.32 296.18,-177.77 293.52,-176.66 290.87,-175.33 288.28,-173.87"/>
<polygon fill="red" stroke="red" stroke-width="0.14" points="290.27,-170.98 279.94,-168.62 286.54,-176.91 290.27,-170.98"/>
</g>
<!-- Ghost Info Up -->
<g id="node11" class="node">
<title>Ghost Info Up</title>
<polygon fill="lightblue" stroke="black" points="635.43,-159.8 566.93,-159.8 566.93,-141.3 635.43,-141.3 635.43,-159.8"/>
<text text-anchor="middle" x="601.18" y="-147.25" font-family="Times,serif" font-size="9.00">Ghost Info Up</text>
</g>
<!-- Ghost Info Up&#45;&gt;Move Left -->
<g id="edge18" class="edge">
<title>Ghost Info Up&#45;&gt;Move Left</title>
<path fill="none" stroke="green" stroke-width="0.18" stroke-dasharray="1,5" d="M588.29,-141C579.9,-135.61 568.6,-128.67 558.18,-123.33 511.16,-99.21 455.03,-76.22 416.82,-61.4"/>
<polygon fill="green" stroke="green" stroke-width="0.18" points="418.35,-58.24 407.76,-57.91 415.83,-64.77 418.35,-58.24"/>
</g>
<!-- Ghost Info Up&#45;&gt;Move Down -->
<g id="edge19" class="edge">
<title>Ghost Info Up&#45;&gt;Move Down</title>
<path fill="none" stroke="red" stroke-width="0.24" stroke-dasharray="1,5" d="M613.11,-141.04C621.48,-135.39 633.11,-128.14 644.18,-123.33 720.43,-90.16 814.43,-67.18 872.06,-54.97"/>
<polygon fill="red" stroke="red" stroke-width="0.24" points="872.6,-58.43 881.68,-52.96 871.17,-51.58 872.6,-58.43"/>
</g>
<!-- Ghost Info Down -->
<g id="node12" class="node">
<title>Ghost Info Down</title>
<polygon fill="lightblue" stroke="black" points="1296.05,-159.8 1216.3,-159.8 1216.3,-141.3 1296.05,-141.3 1296.05,-159.8"/>
<text text-anchor="middle" x="1256.18" y="-147.25" font-family="Times,serif" font-size="9.00">Ghost Info Down</text>
</g>
<!-- Ghost Info Down&#45;&gt;Move Right -->
<g id="edge20" class="edge">
<title>Ghost Info Down&#45;&gt;Move Right</title>
<path fill="none" stroke="red" stroke-width="0.36" stroke-dasharray="1,5" d="M1256.18,-140.97C1256.18,-130.82 1256.18,-113.11 1256.18,-95.61"/>
<polygon fill="red" stroke="red" stroke-width="0.36" points="1259.68,-95.93 1256.18,-85.93 1252.68,-95.93 1259.68,-95.93"/>
</g>
<!-- Ghost Info Down&#45;&gt;Move Down -->
<g id="edge21" class="edge">
<title>Ghost Info Down&#45;&gt;Move Down</title>
<path fill="none" stroke="green" stroke-width="0.42" stroke-dasharray="1,5" d="M1242,-140.89C1232.42,-135.31 1219.36,-128.22 1207.18,-123.33 1129.91,-92.31 1036.07,-68.78 978.5,-55.86"/>
<polygon fill="green" stroke="green" stroke-width="0.42" points="979.33,-52.46 968.81,-53.71 977.81,-59.29 979.33,-52.46"/>
</g>
<!-- PAC&#45;MAN Right -->
<g id="node13" class="node">
<title>PAC&#45;MAN Right</title>
<polygon fill="lightblue" stroke="black" points="548.68,-159.8 469.68,-159.8 469.68,-141.3 548.68,-141.3 548.68,-159.8"/>
<text text-anchor="middle" x="509.18" y="-147.25" font-family="Times,serif" font-size="9.00">PAC&#45;MAN Right</text>
</g>
<!-- PAC&#45;MAN Right&#45;&gt;Move Left -->
<g id="edge22" class="edge">
<title>PAC&#45;MAN Right&#45;&gt;Move Left</title>
<path fill="none" stroke="green" stroke-width="0.24" stroke-dasharray="1,5" d="M497.97,-140.97C478.98,-126.43 439.68,-96.34 410.03,-73.64"/>
<polygon fill="green" stroke="green" stroke-width="0.24" points="412.31,-70.98 402.24,-67.68 408.06,-76.54 412.31,-70.98"/>
</g>
<!-- PAC&#45;MAN Right&#45;&gt;Move Down -->
<g id="edge23" class="edge">
<title>PAC&#45;MAN Right&#45;&gt;Move Down</title>
<path fill="none" stroke="red" stroke-width="0.57" stroke-dasharray="1,5" d="M522.84,-140.89C532.41,-135.17 545.68,-127.91 558.18,-123.33 665.55,-83.98 798.18,-61.61 870.98,-51.44"/>
<polygon fill="red" stroke="red" stroke-width="0.57" points="871.42,-54.91 880.85,-50.08 870.47,-47.97 871.42,-54.91"/>
</g>
<!-- PAC&#45;MAN Left -->
<g id="node14" class="node">
<title>PAC&#45;MAN Left</title>
<polygon fill="lightblue" stroke="black" points="919.05,-232.27 845.3,-232.27 845.3,-213.77 919.05,-213.77 919.05,-232.27"/>
<text text-anchor="middle" x="882.18" y="-219.72" font-family="Times,serif" font-size="9.00">PAC&#45;MAN Left</text>
</g>
<!-- PAC&#45;MAN Left&#45;&gt;Move Right -->
<g id="edge24" class="edge">
<title>PAC&#45;MAN Left&#45;&gt;Move Right</title>
<path fill="none" stroke="red" stroke-width="0.26" stroke-dasharray="1,5" d="M919.28,-222.19C1045.44,-222.38 1452.2,-219.69 1491.18,-177.77 1551.78,-112.61 1393.37,-70.91 1307.37,-53.69"/>
<polygon fill="red" stroke="red" stroke-width="0.26" points="1308.13,-50.28 1297.65,-51.79 1306.79,-57.15 1308.13,-50.28"/>
</g>
<!-- PAC&#45;MAN Left&#45;&gt;Move Left -->
<g id="edge25" class="edge">
<title>PAC&#45;MAN Left&#45;&gt;Move Left</title>
<path fill="none" stroke="green" stroke-width="0.27" d="M845.07,-222.08C754.59,-221.61 525.36,-216.51 461.18,-177.77 459.97,-177.04 424.15,-123.17 398.33,-84.2"/>
<polygon fill="green" stroke="green" stroke-width="0.27" points="401.32,-82.38 392.88,-75.98 395.48,-86.25 401.32,-82.38"/>
</g>
<!-- 10568 -->
<g id="node23" class="node">
<title>10568</title>
<ellipse fill="white" stroke="black" cx="882.18" cy="-150.55" rx="27.22" ry="27.22"/>
<text text-anchor="middle" x="882.18" y="-147.25" font-family="Times,serif" font-size="9.00">10568</text>
</g>
<!-- PAC&#45;MAN Left&#45;&gt;10568 -->
<g id="edge34" class="edge">
<title>PAC&#45;MAN Left&#45;&gt;10568</title>
<path fill="none" stroke="red" stroke-width="0.23" d="M882.18,-213.38C882.18,-206.96 882.18,-197.72 882.18,-188.33"/>
<polygon fill="red" stroke="red" stroke-width="0.23" points="885.68,-188.56 882.18,-178.56 878.68,-188.56 885.68,-188.56"/>
</g>
<!-- PAC&#45;MAN Up -->
<g id="node15" class="node">
<title>PAC&#45;MAN Up</title>
<polygon fill="lightblue" stroke="black" points="375.55,-159.8 304.8,-159.8 304.8,-141.3 375.55,-141.3 375.55,-159.8"/>
<text text-anchor="middle" x="340.18" y="-147.25" font-family="Times,serif" font-size="9.00">PAC&#45;MAN Up</text>
</g>
<!-- PAC&#45;MAN Up&#45;&gt;Move Left -->
<g id="edge26" class="edge">
<title>PAC&#45;MAN Up&#45;&gt;Move Left</title>
<path fill="none" stroke="red" stroke-width="0.12" stroke-dasharray="1,5" d="M342.8,-140.97C346.25,-129.67 352.56,-108.96 358.46,-89.64"/>
<polygon fill="red" stroke="red" stroke-width="0.12" points="361.77,-90.77 361.34,-80.19 355.08,-88.73 361.77,-90.77"/>
</g>
<!-- PACM&#45;MAN Down -->
<g id="node16" class="node">
<title>PACM&#45;MAN Down</title>
<polygon fill="lightblue" stroke="black" points="1404.3,-159.8 1314.05,-159.8 1314.05,-141.3 1404.3,-141.3 1404.3,-159.8"/>
<text text-anchor="middle" x="1359.18" y="-147.25" font-family="Times,serif" font-size="9.00">PACM&#45;MAN Down</text>
</g>
<!-- PACM&#45;MAN Down&#45;&gt;Move Right -->
<g id="edge27" class="edge">
<title>PACM&#45;MAN Down&#45;&gt;Move Right</title>
<path fill="none" stroke="red" stroke-width="0.18" d="M1350.75,-140.97C1337.97,-127.96 1312.95,-102.48 1291.86,-81"/>
<polygon fill="red" stroke="red" stroke-width="0.18" points="1294.57,-78.76 1285.07,-74.08 1289.58,-83.67 1294.57,-78.76"/>
</g>
<!-- PACM&#45;MAN Down&#45;&gt;Move Down -->
<g id="edge28" class="edge">
<title>PACM&#45;MAN Down&#45;&gt;Move Down</title>
<path fill="none" stroke="green" stroke-width="0.38" stroke-dasharray="1,5" d="M1344.01,-140.93C1333.42,-135.22 1318.79,-127.96 1305.18,-123.33 1192.19,-84.86 1053.59,-61.96 978.95,-51.51"/>
<polygon fill="green" stroke="green" stroke-width="0.38" points="979.8,-48.09 969.42,-50.19 978.85,-55.03 979.8,-48.09"/>
</g>
<!-- Power&#45;Up Time -->
<g id="node17" class="node">
<title>Power&#45;Up Time</title>
<polygon fill="lightblue" stroke="black" points="837.05,-159.8 763.3,-159.8 763.3,-141.3 837.05,-141.3 837.05,-159.8"/>
<text text-anchor="middle" x="800.18" y="-147.25" font-family="Times,serif" font-size="9.00">Power&#45;Up Time</text>
</g>
<!-- Power&#45;Up Time&#45;&gt;Move Right -->
<g id="edge29" class="edge">
<title>Power&#45;Up Time&#45;&gt;Move Right</title>
<path fill="none" stroke="red" stroke-width="0.65" d="M812.52,-141.02C821.48,-135.21 834.11,-127.79 846.18,-123.33 911.41,-99.23 1109.24,-67.06 1204.21,-52.46"/>
<polygon fill="red" stroke="red" stroke-width="0.65" points="1204.66,-55.93 1214.01,-50.96 1203.6,-49.01 1204.66,-55.93"/>
</g>
<!-- Power&#45;Up Time&#45;&gt;Move Left -->
<g id="edge30" class="edge">
<title>Power&#45;Up Time&#45;&gt;Move Left</title>
<path fill="none" stroke="red" stroke-width="0.28" stroke-dasharray="1,5" d="M774.22,-140.88C757.7,-135.5 735.8,-128.62 716.18,-123.33 611.05,-94.94 486.08,-68.05 419.49,-54.27"/>
<polygon fill="red" stroke="red" stroke-width="0.28" points="420.23,-50.84 409.73,-52.25 418.82,-57.7 420.23,-50.84"/>
</g>
<!-- 11399&#45;&gt;Move Down -->
<g id="edge41" class="edge">
<title>11399&#45;&gt;Move Down</title>
<path fill="none" stroke="green" stroke-width="0.67" d="M702.26,-134.29C708.25,-130.46 714.85,-126.53 721.18,-123.33 771.13,-98.04 831.25,-75.78 873.23,-61.45"/>
<polygon fill="green" stroke="green" stroke-width="0.67" points="874.18,-64.82 882.54,-58.31 871.94,-58.19 874.18,-64.82"/>
</g>
<!-- 10568&#45;&gt;Move Down -->
<g id="edge35" class="edge">
<title>10568&#45;&gt;Move Down</title>
<path fill="none" stroke="red" stroke-width="0.16" d="M892.26,-124.96C896.1,-115.59 900.62,-104.56 905.07,-93.72"/>
<polygon fill="red" stroke="red" stroke-width="0.16" points="908.29,-95.09 908.84,-84.51 901.81,-92.43 908.29,-95.09"/>
</g>
<!-- 10318&#45;&gt;Move Left -->
<g id="edge33" class="edge">
<title>10318&#45;&gt;Move Left</title>
<path fill="none" stroke="red" stroke-width="0.33" d="M66.07,-132.38C70.83,-129.03 76.02,-125.8 81.18,-123.33 162.21,-84.51 265.44,-62.37 324.65,-52.01"/>
<polygon fill="red" stroke="red" stroke-width="0.33" points="325.07,-55.49 334.33,-50.35 323.89,-48.59 325.07,-55.49"/>
</g>
<!-- 10996&#45;&gt;Move Left -->
<g id="edge37" class="edge">
<title>10996&#45;&gt;Move Left</title>
<path fill="none" stroke="green" stroke-width="0.41" d="M138.23,-132.7C142.98,-129.33 148.12,-126.01 153.18,-123.33 209.65,-93.41 279.94,-70.43 325.42,-57.24"/>
<polygon fill="green" stroke="green" stroke-width="0.41" points="326.33,-60.62 334.98,-54.51 324.41,-53.89 326.33,-60.62"/>
</g>
<!-- 11030&#45;&gt;Move Left -->
<g id="edge39" class="edge">
<title>11030&#45;&gt;Move Left</title>
<path fill="none" stroke="red" stroke-width="0.32" d="M278.86,-131.28C294.87,-116.42 317.86,-95.09 337.01,-77.31"/>
<polygon fill="red" stroke="red" stroke-width="0.32" points="339.38,-79.89 344.33,-70.52 334.61,-74.76 339.38,-79.89"/>
</g>
</g>
</svg>
