<?xml version="1.0" encoding="UTF-8" standalone="no"?>
<!DOCTYPE svg PUBLIC "-//W3C//DTD SVG 1.1//EN"
 "http://www.w3.org/Graphics/SVG/1.1/DTD/svg11.dtd">
<!-- Generated by graphviz version 12.0.0 (20240704.0754)
 -->
<!-- Pages: 1 -->
<svg width="1384pt" height="257pt"
 viewBox="0.00 0.00 1384.25 257.25" xmlns="http://www.w3.org/2000/svg" xmlns:xlink="http://www.w3.org/1999/xlink">
<g id="graph0" class="graph" transform="scale(1 1) rotate(0) translate(4 253.25)">
<polygon fill="white" stroke="none" points="-4,4 -4,-253.25 1380.25,-253.25 1380.25,4 -4,4"/>
<!-- Pellet Right -->
<g id="node1" class="node">
<title>Pellet Right</title>
<polygon fill="lightblue" stroke="black" points="423.62,-160.33 366.38,-160.33 366.38,-141.83 423.62,-141.83 423.62,-160.33"/>
<text text-anchor="middle" x="395" y="-147.78" font-family="Times,serif" font-size="9.00">Pellet Right</text>
</g>
<!-- Move Up -->
<g id="node20" class="node">
<title>Move Up</title>
<ellipse fill="lightblue" stroke="black" cx="209" cy="-35.71" rx="35.71" ry="35.71"/>
<text text-anchor="middle" x="209" y="-32.41" font-family="Times,serif" font-size="9.00">Move Up</text>
</g>
<!-- Pellet Right&#45;&gt;Move Up -->
<g id="edge1" class="edge">
<title>Pellet Right&#45;&gt;Move Up</title>
<path fill="none" stroke="green" stroke-width="0.2" stroke-dasharray="1,5" d="M387.77,-141.4C379.73,-132.13 366.03,-117.44 352,-107.42 320.58,-84.97 280.98,-66 251.41,-53.38"/>
<polygon fill="green" stroke="green" stroke-width="0.2" points="253.05,-50.27 242.47,-49.63 250.34,-56.72 253.05,-50.27"/>
</g>
<!-- Pellet Left -->
<g id="node2" class="node">
<title>Pellet Left</title>
<polygon fill="lightblue" stroke="black" points="52,-160.33 0,-160.33 0,-141.83 52,-141.83 52,-160.33"/>
<text text-anchor="middle" x="26" y="-147.78" font-family="Times,serif" font-size="9.00">Pellet Left</text>
</g>
<!-- Pellet Left&#45;&gt;Move Up -->
<g id="edge2" class="edge">
<title>Pellet Left&#45;&gt;Move Up</title>
<path fill="none" stroke="red" stroke-width="0.67" d="M32.6,-141.36C39.97,-132.06 52.63,-117.34 66,-107.42 96.74,-84.61 135.96,-65.82 165.56,-53.36"/>
<polygon fill="red" stroke="red" stroke-width="0.67" points="166.75,-56.65 174.66,-49.6 164.08,-50.18 166.75,-56.65"/>
</g>
<!-- Pellet Up -->
<g id="node3" class="node">
<title>Pellet Up</title>
<polygon fill="lightblue" stroke="black" points="440.5,-249.25 391.5,-249.25 391.5,-230.75 440.5,-230.75 440.5,-249.25"/>
<text text-anchor="middle" x="416" y="-236.7" font-family="Times,serif" font-size="9.00">Pellet Up</text>
</g>
<!-- Move Left -->
<g id="node19" class="node">
<title>Move Left</title>
<ellipse fill="lightblue" stroke="black" cx="484" cy="-151.08" rx="37.83" ry="37.83"/>
<text text-anchor="middle" x="484" y="-147.78" font-family="Times,serif" font-size="9.00">Move Left</text>
</g>
<!-- Pellet Up&#45;&gt;Move Left -->
<g id="edge3" class="edge">
<title>Pellet Up&#45;&gt;Move Left</title>
<path fill="none" stroke="red" stroke-width="0.18" stroke-dasharray="1,5" d="M422.77,-230.34C430.32,-220.69 443.05,-204.43 454.95,-189.22"/>
<polygon fill="red" stroke="red" stroke-width="0.18" points="457.49,-191.65 460.89,-181.62 451.97,-187.34 457.49,-191.65"/>
</g>
<!-- Pellet Down -->
<g id="node4" class="node">
<title>Pellet Down</title>
<polygon fill="lightblue" stroke="black" points="519.12,-249.25 458.88,-249.25 458.88,-230.75 519.12,-230.75 519.12,-249.25"/>
<text text-anchor="middle" x="489" y="-236.7" font-family="Times,serif" font-size="9.00">Pellet Down</text>
</g>
<!-- Pellet Down&#45;&gt;Move Left -->
<g id="edge4" class="edge">
<title>Pellet Down&#45;&gt;Move Left</title>
<path fill="none" stroke="green" stroke-width="0.2" d="M488.5,-230.34C488.07,-222.76 487.4,-211.1 486.7,-199.08"/>
<polygon fill="green" stroke="green" stroke-width="0.2" points="490.21,-199.06 486.14,-189.28 483.22,-199.47 490.21,-199.06"/>
</g>
<!-- Power Pellet Right -->
<g id="node5" class="node">
<title>Power Pellet Right</title>
<polygon fill="lightblue" stroke="black" points="620.38,-249.25 537.62,-249.25 537.62,-230.75 620.38,-230.75 620.38,-249.25"/>
<text text-anchor="middle" x="579" y="-236.7" font-family="Times,serif" font-size="9.00">Power Pellet Right</text>
</g>
<!-- Power Pellet Right&#45;&gt;Move Left -->
<g id="edge22" class="edge">
<title>Power Pellet Right&#45;&gt;Move Left</title>
<path fill="none" stroke="red" stroke-width="0.21" d="M569.54,-230.34C557.8,-219.6 537.1,-200.66 519,-184.11"/>
<polygon fill="red" stroke="red" stroke-width="0.21" points="521.42,-181.57 511.68,-177.4 516.69,-186.73 521.42,-181.57"/>
</g>
<!-- Power Pellet Left -->
<g id="node6" class="node">
<title>Power Pellet Left</title>
<polygon fill="lightblue" stroke="black" points="900.75,-249.25 823.25,-249.25 823.25,-230.75 900.75,-230.75 900.75,-249.25"/>
<text text-anchor="middle" x="862" y="-236.7" font-family="Times,serif" font-size="9.00">Power Pellet Left</text>
</g>
<!-- Move Down -->
<g id="node21" class="node">
<title>Move Down</title>
<ellipse fill="lightblue" stroke="black" cx="862" cy="-151.08" rx="43.66" ry="43.66"/>
<text text-anchor="middle" x="862" y="-147.78" font-family="Times,serif" font-size="9.00">Move Down</text>
</g>
<!-- Power Pellet Left&#45;&gt;Move Down -->
<g id="edge5" class="edge">
<title>Power Pellet Left&#45;&gt;Move Down</title>
<path fill="none" stroke="green" stroke-width="0.46" d="M862,-230.34C862,-224.16 862,-215.27 862,-205.68"/>
<polygon fill="green" stroke="green" stroke-width="0.46" points="865.5,-205.79 862,-195.79 858.5,-205.79 865.5,-205.79"/>
</g>
<!-- Power Pellet Up -->
<g id="node7" class="node">
<title>Power Pellet Up</title>
<polygon fill="lightblue" stroke="black" points="713.25,-249.25 638.75,-249.25 638.75,-230.75 713.25,-230.75 713.25,-249.25"/>
<text text-anchor="middle" x="676" y="-236.7" font-family="Times,serif" font-size="9.00">Power Pellet Up</text>
</g>
<!-- Power Pellet Up&#45;&gt;Move Left -->
<g id="edge6" class="edge">
<title>Power Pellet Up&#45;&gt;Move Left</title>
<path fill="none" stroke="red" stroke-width="0.34" stroke-dasharray="1,5" d="M656.89,-230.34C627.03,-216.83 568.54,-190.35 527.91,-171.96"/>
<polygon fill="red" stroke="red" stroke-width="0.34" points="529.53,-168.85 518.98,-167.91 526.64,-175.23 529.53,-168.85"/>
</g>
<!-- Power Pellet Up&#45;&gt;Move Down -->
<g id="edge7" class="edge">
<title>Power Pellet Up&#45;&gt;Move Down</title>
<path fill="none" stroke="red" stroke-width="0.22" d="M694.51,-230.34C721.99,-217.5 774.5,-192.97 813.43,-174.78"/>
<polygon fill="red" stroke="red" stroke-width="0.22" points="814.64,-178.08 822.22,-170.67 811.68,-171.73 814.64,-178.08"/>
</g>
<!-- Power Pellet Down -->
<g id="node8" class="node">
<title>Power Pellet Down</title>
<polygon fill="lightblue" stroke="black" points="1194.88,-249.25 1109.12,-249.25 1109.12,-230.75 1194.88,-230.75 1194.88,-249.25"/>
<text text-anchor="middle" x="1152" y="-236.7" font-family="Times,serif" font-size="9.00">Power Pellet Down</text>
</g>
<!-- Move Right -->
<g id="node18" class="node">
<title>Move Right</title>
<ellipse fill="lightblue" stroke="black" cx="1152" cy="-151.08" rx="41.54" ry="41.54"/>
<text text-anchor="middle" x="1152" y="-147.78" font-family="Times,serif" font-size="9.00">Move Right</text>
</g>
<!-- Power Pellet Down&#45;&gt;Move Right -->
<g id="edge8" class="edge">
<title>Power Pellet Down&#45;&gt;Move Right</title>
<path fill="none" stroke="green" stroke-width="0.18" d="M1152,-230.34C1152,-223.64 1152,-213.75 1152,-203.24"/>
<polygon fill="green" stroke="green" stroke-width="0.18" points="1155.5,-203.32 1152,-193.32 1148.5,-203.32 1155.5,-203.32"/>
</g>
<!-- Power Pellet Down&#45;&gt;Move Down -->
<g id="edge9" class="edge">
<title>Power Pellet Down&#45;&gt;Move Down</title>
<path fill="none" stroke="red" stroke-width="0.3" stroke-dasharray="1,5" d="M1122.87,-230.26C1073.88,-215.58 974.43,-185.78 913.46,-167.5"/>
<polygon fill="red" stroke="red" stroke-width="0.3" points="914.67,-164.21 904.08,-164.69 912.66,-170.92 914.67,-164.21"/>
</g>
<!-- Ghost Info Right -->
<g id="node9" class="node">
<title>Ghost Info Right</title>
<polygon fill="lightblue" stroke="black" points="1289.38,-249.25 1212.62,-249.25 1212.62,-230.75 1289.38,-230.75 1289.38,-249.25"/>
<text text-anchor="middle" x="1251" y="-236.7" font-family="Times,serif" font-size="9.00">Ghost Info Right</text>
</g>
<!-- Ghost Info Left -->
<g id="node10" class="node">
<title>Ghost Info Left</title>
<polygon fill="lightblue" stroke="black" points="175.75,-249.25 104.25,-249.25 104.25,-230.75 175.75,-230.75 175.75,-249.25"/>
<text text-anchor="middle" x="140" y="-236.7" font-family="Times,serif" font-size="9.00">Ghost Info Left</text>
</g>
<!-- Ghost Info Left&#45;&gt;Move Left -->
<g id="edge10" class="edge">
<title>Ghost Info Left&#45;&gt;Move Left</title>
<path fill="none" stroke="green" stroke-width="0.54" stroke-dasharray="1,5" d="M175.84,-232.3C178.94,-231.76 182.02,-231.23 185,-230.75 294.91,-212.7 331.32,-240.2 433,-194.75 438.6,-192.24 444.08,-188.94 449.24,-185.27"/>
<polygon fill="green" stroke="green" stroke-width="0.54" points="451.16,-188.21 456.95,-179.34 446.89,-182.67 451.16,-188.21"/>
</g>
<!-- Ghost Info Left&#45;&gt;Move Up -->
<g id="edge11" class="edge">
<title>Ghost Info Left&#45;&gt;Move Up</title>
<path fill="none" stroke="green" stroke-width="0.22" d="M147.47,-230.45C154.53,-221.95 164.91,-208.26 171,-194.75 187.38,-158.42 197.25,-114.08 202.81,-81.62"/>
<polygon fill="green" stroke="green" stroke-width="0.22" points="206.25,-82.28 204.41,-71.85 199.34,-81.15 206.25,-82.28"/>
</g>
<!-- 18243 -->
<g id="node22" class="node">
<title>18243</title>
<ellipse fill="white" stroke="black" cx="135" cy="-151.08" rx="27.22" ry="27.22"/>
<text text-anchor="middle" x="135" y="-147.78" font-family="Times,serif" font-size="9.00">18243</text>
</g>
<!-- Ghost Info Left&#45;&gt;18243 -->
<g id="edge23" class="edge">
<title>Ghost Info Left&#45;&gt;18243</title>
<path fill="none" stroke="green" stroke-width="0.38" d="M139.5,-230.34C138.94,-220.65 138,-204.27 137.12,-189"/>
<polygon fill="green" stroke="green" stroke-width="0.38" points="140.63,-189.06 136.56,-179.27 133.64,-189.46 140.63,-189.06"/>
</g>
<!-- Ghost Info Up -->
<g id="node11" class="node">
<title>Ghost Info Up</title>
<polygon fill="lightblue" stroke="black" points="1376.25,-249.25 1307.75,-249.25 1307.75,-230.75 1376.25,-230.75 1376.25,-249.25"/>
<text text-anchor="middle" x="1342" y="-236.7" font-family="Times,serif" font-size="9.00">Ghost Info Up</text>
</g>
<!-- Ghost Info Down -->
<g id="node12" class="node">
<title>Ghost Info Down</title>
<polygon fill="lightblue" stroke="black" points="998.88,-249.25 919.12,-249.25 919.12,-230.75 998.88,-230.75 998.88,-249.25"/>
<text text-anchor="middle" x="959" y="-236.7" font-family="Times,serif" font-size="9.00">Ghost Info Down</text>
</g>
<!-- Ghost Info Down&#45;&gt;Move Down -->
<g id="edge12" class="edge">
<title>Ghost Info Down&#45;&gt;Move Down</title>
<path fill="none" stroke="red" stroke-width="0.78" stroke-dasharray="1,5" d="M949.34,-230.34C938.39,-220.53 919.81,-203.88 902.59,-188.45"/>
<polygon fill="red" stroke="red" stroke-width="0.78" points="904.95,-185.87 895.17,-181.8 900.28,-191.08 904.95,-185.87"/>
</g>
<!-- PAC&#45;MAN Right -->
<g id="node13" class="node">
<title>PAC&#45;MAN Right</title>
<polygon fill="lightblue" stroke="black" points="86.5,-249.25 7.5,-249.25 7.5,-230.75 86.5,-230.75 86.5,-249.25"/>
<text text-anchor="middle" x="47" y="-236.7" font-family="Times,serif" font-size="9.00">PAC&#45;MAN Right</text>
</g>
<!-- PAC&#45;MAN Right&#45;&gt;Move Up -->
<g id="edge21" class="edge">
<title>PAC&#45;MAN Right&#45;&gt;Move Up</title>
<path fill="none" stroke="green" stroke-width="0.51" stroke-dasharray="1,5" d="M49.62,-230.45C57.66,-204.57 82.47,-127.53 99,-107.42 117.16,-85.32 144.09,-67.84 166.76,-55.8"/>
<polygon fill="green" stroke="green" stroke-width="0.51" points="168.19,-59 175.49,-51.32 164.99,-52.77 168.19,-59"/>
</g>
<!-- PAC&#45;MAN Right&#45;&gt;18243 -->
<g id="edge25" class="edge">
<title>PAC&#45;MAN Right&#45;&gt;18243</title>
<path fill="none" stroke="red" stroke-width="0.35" d="M56.49,-230.32C66.08,-221.49 81.26,-207.36 94,-194.75 99.1,-189.7 104.47,-184.22 109.59,-178.94"/>
<polygon fill="red" stroke="red" stroke-width="0.35" points="112.06,-181.41 116.47,-171.78 107.01,-176.56 112.06,-181.41"/>
</g>
<!-- PAC&#45;MAN Left -->
<g id="node14" class="node">
<title>PAC&#45;MAN Left</title>
<polygon fill="lightblue" stroke="black" points="1090.88,-249.25 1017.12,-249.25 1017.12,-230.75 1090.88,-230.75 1090.88,-249.25"/>
<text text-anchor="middle" x="1054" y="-236.7" font-family="Times,serif" font-size="9.00">PAC&#45;MAN Left</text>
</g>
<!-- PAC&#45;MAN Left&#45;&gt;Move Down -->
<g id="edge13" class="edge">
<title>PAC&#45;MAN Left&#45;&gt;Move Down</title>
<path fill="none" stroke="red" stroke-width="0.45" stroke-dasharray="1,5" d="M1034.89,-230.34C1006.32,-217.41 951.54,-192.62 911.27,-174.39"/>
<polygon fill="red" stroke="red" stroke-width="0.45" points="912.8,-171.24 902.25,-170.3 909.91,-177.61 912.8,-171.24"/>
</g>
<!-- PAC&#45;MAN Up -->
<g id="node15" class="node">
<title>PAC&#45;MAN Up</title>
<polygon fill="lightblue" stroke="black" points="373.38,-249.25 302.62,-249.25 302.62,-230.75 373.38,-230.75 373.38,-249.25"/>
<text text-anchor="middle" x="338" y="-236.7" font-family="Times,serif" font-size="9.00">PAC&#45;MAN Up</text>
</g>
<!-- PAC&#45;MAN Up&#45;&gt;Move Left -->
<g id="edge14" class="edge">
<title>PAC&#45;MAN Up&#45;&gt;Move Left</title>
<path fill="none" stroke="red" stroke-width="0.13" d="M360.74,-230.37C380.55,-222.4 409.66,-209.58 433,-194.75 438.24,-191.41 443.53,-187.6 448.62,-183.65"/>
<polygon fill="red" stroke="red" stroke-width="0.13" points="450.67,-186.49 456.27,-177.5 446.28,-181.04 450.67,-186.49"/>
</g>
<!-- PAC&#45;MAN Up&#45;&gt;Move Up -->
<g id="edge15" class="edge">
<title>PAC&#45;MAN Up&#45;&gt;Move Up</title>
<path fill="none" stroke="red" stroke-width="0.53" stroke-dasharray="1,5" d="M339.05,-230.47C341.35,-208.24 344.72,-147.41 319,-107.42 303.24,-82.91 275.65,-65.21 252.04,-53.65"/>
<polygon fill="red" stroke="red" stroke-width="0.53" points="253.82,-50.61 243.27,-49.55 250.85,-56.96 253.82,-50.61"/>
</g>
<!-- PAC&#45;MAN Up&#45;&gt;Move Down -->
<g id="edge16" class="edge">
<title>PAC&#45;MAN Up&#45;&gt;Move Down</title>
<path fill="none" stroke="green" stroke-width="0.89" stroke-dasharray="1,5" d="M373.85,-232.36C376.94,-231.81 380.03,-231.26 383,-230.75 536.72,-204.04 718.62,-174.82 807.54,-160.69"/>
<polygon fill="green" stroke="green" stroke-width="0.89" points="808.03,-164.15 817.35,-159.13 806.93,-157.24 808.03,-164.15"/>
</g>
<!-- 18387 -->
<g id="node23" class="node">
<title>18387</title>
<ellipse fill="white" stroke="black" cx="283" cy="-151.08" rx="27.22" ry="27.22"/>
<text text-anchor="middle" x="283" y="-147.78" font-family="Times,serif" font-size="9.00">18387</text>
</g>
<!-- PAC&#45;MAN Up&#45;&gt;18387 -->
<g id="edge26" class="edge">
<title>PAC&#45;MAN Up&#45;&gt;18387</title>
<path fill="none" stroke="red" stroke-width="0.29" d="M332.53,-230.34C325.58,-219.37 313.24,-199.87 302.61,-183.07"/>
<polygon fill="red" stroke="red" stroke-width="0.29" points="305.79,-181.55 297.49,-174.97 299.88,-185.29 305.79,-181.55"/>
</g>
<!-- PACM&#45;MAN Down -->
<g id="node16" class="node">
<title>PACM&#45;MAN Down</title>
<polygon fill="lightblue" stroke="black" points="284.12,-249.25 193.88,-249.25 193.88,-230.75 284.12,-230.75 284.12,-249.25"/>
<text text-anchor="middle" x="239" y="-236.7" font-family="Times,serif" font-size="9.00">PACM&#45;MAN Down</text>
</g>
<!-- PACM&#45;MAN Down&#45;&gt;Move Left -->
<g id="edge17" class="edge">
<title>PACM&#45;MAN Down&#45;&gt;Move Left</title>
<path fill="none" stroke="red" stroke-width="0.22" stroke-dasharray="1,5" d="M284.55,-231.16C333.37,-222.31 407.31,-207.49 433,-194.75 438.63,-191.95 444.18,-188.42 449.42,-184.58"/>
<polygon fill="red" stroke="red" stroke-width="0.22" points="451.38,-187.49 457.1,-178.57 447.07,-181.97 451.38,-187.49"/>
</g>
<!-- PACM&#45;MAN Down&#45;&gt;Move Up -->
<g id="edge18" class="edge">
<title>PACM&#45;MAN Down&#45;&gt;Move Up</title>
<path fill="none" stroke="red" stroke-width="0.25" d="M237.71,-230.3C233.96,-205.03 222.87,-130.26 215.62,-81.38"/>
<polygon fill="red" stroke="red" stroke-width="0.25" points="219.12,-81.11 214.19,-71.74 212.2,-82.14 219.12,-81.11"/>
</g>
<!-- Power&#45;Up Time -->
<g id="node17" class="node">
<title>Power&#45;Up Time</title>
<polygon fill="lightblue" stroke="black" points="804.88,-249.25 731.12,-249.25 731.12,-230.75 804.88,-230.75 804.88,-249.25"/>
<text text-anchor="middle" x="768" y="-236.7" font-family="Times,serif" font-size="9.00">Power&#45;Up Time</text>
</g>
<!-- Power&#45;Up Time&#45;&gt;Move Left -->
<g id="edge19" class="edge">
<title>Power&#45;Up Time&#45;&gt;Move Left</title>
<path fill="none" stroke="red" stroke-width="0.52" stroke-dasharray="1,5" d="M739.47,-230.26C690.37,-215.24 589.49,-184.36 530.24,-166.23"/>
<polygon fill="red" stroke="red" stroke-width="0.52" points="531.37,-162.92 520.79,-163.34 529.33,-169.61 531.37,-162.92"/>
</g>
<!-- Power&#45;Up Time&#45;&gt;Move Down -->
<g id="edge20" class="edge">
<title>Power&#45;Up Time&#45;&gt;Move Down</title>
<path fill="none" stroke="red" stroke-width="0.27" d="M777.36,-230.34C787.99,-220.51 806.04,-203.83 822.74,-188.38"/>
<polygon fill="red" stroke="red" stroke-width="0.27" points="825.02,-191.04 829.99,-181.68 820.27,-185.9 825.02,-191.04"/>
</g>
<!-- 18243&#45;&gt;Move Up -->
<g id="edge24" class="edge">
<title>18243&#45;&gt;Move Up</title>
<path fill="none" stroke="green" stroke-width="0.42" d="M149.62,-127.68C159.45,-112.63 172.65,-92.4 184.11,-74.84"/>
<polygon fill="green" stroke="green" stroke-width="0.42" points="187.04,-76.76 189.57,-66.47 181.17,-72.94 187.04,-76.76"/>
</g>
<!-- 18387&#45;&gt;Move Up -->
<g id="edge27" class="edge">
<title>18387&#45;&gt;Move Up</title>
<path fill="none" stroke="red" stroke-width="0.31" d="M268.38,-127.68C258.46,-112.49 245.11,-92.03 233.57,-74.36"/>
<polygon fill="red" stroke="red" stroke-width="0.31" points="236.73,-72.8 228.34,-66.33 230.87,-76.62 236.73,-72.8"/>
</g>
</g>
</svg>
