<?xml version="1.0" encoding="UTF-8" standalone="no"?>
<!DOCTYPE svg PUBLIC "-//W3C//DTD SVG 1.1//EN"
 "http://www.w3.org/Graphics/SVG/1.1/DTD/svg11.dtd">
<!-- Generated by graphviz version 12.0.0 (20240704.0754)
 -->
<!-- Pages: 1 -->
<svg width="1703pt" height="353pt"
 viewBox="0.00 0.00 1703.35 353.00" xmlns="http://www.w3.org/2000/svg" xmlns:xlink="http://www.w3.org/1999/xlink">
<g id="graph0" class="graph" transform="scale(1 1) rotate(0) translate(4 349)">
<polygon fill="white" stroke="none" points="-4,4 -4,-349 1699.35,-349 1699.35,4 -4,4"/>
<!-- Pellet Right -->
<g id="node1" class="node">
<title>Pellet Right</title>
<polygon fill="lightblue" stroke="black" points="644.56,-275.7 587.31,-275.7 587.31,-257.2 644.56,-257.2 644.56,-275.7"/>
<text text-anchor="middle" x="615.94" y="-263.15" font-family="Times,serif" font-size="9.00">Pellet Right</text>
</g>
<!-- Move Right -->
<g id="node18" class="node">
<title>Move Right</title>
<ellipse fill="lightblue" stroke="black" cx="529.94" cy="-41.54" rx="41.54" ry="41.54"/>
<text text-anchor="middle" x="529.94" y="-38.24" font-family="Times,serif" font-size="9.00">Move Right</text>
</g>
<!-- Pellet Right&#45;&gt;Move Right -->
<g id="edge1" class="edge">
<title>Pellet Right&#45;&gt;Move Right</title>
<path fill="none" stroke="green" stroke-width="0.21" d="M608.53,-256.84C599.42,-245.82 584.03,-225.86 574.94,-206.41 557.95,-170.08 546.31,-126.13 539.14,-92.89"/>
<polygon fill="green" stroke="green" stroke-width="0.21" points="542.59,-92.32 537.12,-83.25 535.74,-93.76 542.59,-92.32"/>
</g>
<!-- Move Left -->
<g id="node19" class="node">
<title>Move Left</title>
<ellipse fill="lightblue" stroke="black" cx="1168.94" cy="-162.75" rx="37.83" ry="37.83"/>
<text text-anchor="middle" x="1168.94" y="-159.45" font-family="Times,serif" font-size="9.00">Move Left</text>
</g>
<!-- Pellet Right&#45;&gt;Move Left -->
<g id="edge2" class="edge">
<title>Pellet Right&#45;&gt;Move Left</title>
<path fill="none" stroke="red" stroke-width="0.31" stroke-dasharray="1,5" d="M627.25,-256.74C634.47,-251.65 644.28,-245.63 653.94,-242.41 810.72,-190.28 861.74,-237.87 1023.94,-206.41 1057.93,-199.82 1095.4,-188.69 1123.73,-179.45"/>
<polygon fill="red" stroke="red" stroke-width="0.31" points="1124.51,-182.88 1132.9,-176.42 1122.31,-176.24 1124.51,-182.88"/>
</g>
<!-- Move Up -->
<g id="node20" class="node">
<title>Move Up</title>
<ellipse fill="lightblue" stroke="black" cx="619.94" cy="-162.75" rx="35.71" ry="35.71"/>
<text text-anchor="middle" x="619.94" y="-159.45" font-family="Times,serif" font-size="9.00">Move Up</text>
</g>
<!-- Pellet Right&#45;&gt;Move Up -->
<g id="edge3" class="edge">
<title>Pellet Right&#45;&gt;Move Up</title>
<path fill="none" stroke="red" stroke-width="0.13" d="M616.28,-256.78C616.7,-246.05 617.45,-226.97 618.16,-208.87"/>
<polygon fill="red" stroke="red" stroke-width="0.13" points="621.66,-209.02 618.56,-198.89 614.67,-208.75 621.66,-209.02"/>
</g>
<!-- Move Down -->
<g id="node21" class="node">
<title>Move Down</title>
<ellipse fill="lightblue" stroke="black" cx="970.94" cy="-162.75" rx="43.66" ry="43.66"/>
<text text-anchor="middle" x="970.94" y="-159.45" font-family="Times,serif" font-size="9.00">Move Down</text>
</g>
<!-- Pellet Right&#45;&gt;Move Down -->
<g id="edge4" class="edge">
<title>Pellet Right&#45;&gt;Move Down</title>
<path fill="none" stroke="red" stroke-width="0.24" stroke-dasharray="1,5" d="M628.1,-256.78C635.32,-251.97 644.82,-246.21 653.94,-242.41 742.9,-205.41 853.41,-182.88 917.68,-171.9"/>
<polygon fill="red" stroke="red" stroke-width="0.24" points="917.94,-175.41 927.23,-170.3 916.78,-168.5 917.94,-175.41"/>
</g>
<!-- 8136 -->
<g id="node24" class="node">
<title>8136</title>
<ellipse fill="white" stroke="black" cx="503.94" cy="-162.75" rx="24.04" ry="24.04"/>
<text text-anchor="middle" x="503.94" y="-159.45" font-family="Times,serif" font-size="9.00">8136</text>
</g>
<!-- Pellet Right&#45;&gt;8136 -->
<g id="edge66" class="edge">
<title>Pellet Right&#45;&gt;8136</title>
<path fill="none" stroke="red" stroke-width="0.28" d="M603.9,-256.83C588.81,-245.82 562.46,-225.85 541.94,-206.41 536.39,-201.16 530.75,-195.21 525.56,-189.45"/>
<polygon fill="red" stroke="red" stroke-width="0.28" points="528.34,-187.32 519.11,-182.13 523.09,-191.94 528.34,-187.32"/>
</g>
<!-- Pellet Left -->
<g id="node2" class="node">
<title>Pellet Left</title>
<polygon fill="lightblue" stroke="black" points="464.94,-275.7 412.94,-275.7 412.94,-257.2 464.94,-257.2 464.94,-275.7"/>
<text text-anchor="middle" x="438.94" y="-263.15" font-family="Times,serif" font-size="9.00">Pellet Left</text>
</g>
<!-- Pellet Left&#45;&gt;Move Right -->
<g id="edge5" class="edge">
<title>Pellet Left&#45;&gt;Move Right</title>
<path fill="none" stroke="green" stroke-width="0.56" d="M439.51,-256.78C441.31,-233.47 448.2,-167.89 470.94,-119.09 477.21,-105.62 486.2,-92.32 495.28,-80.67"/>
<polygon fill="green" stroke="green" stroke-width="0.56" points="497.77,-83.15 501.33,-73.17 492.33,-78.76 497.77,-83.15"/>
</g>
<!-- Pellet Left&#45;&gt;Move Left -->
<g id="edge6" class="edge">
<title>Pellet Left&#45;&gt;Move Left</title>
<path fill="none" stroke="red" stroke-width="0.38" stroke-dasharray="1,5" d="M448.91,-256.86C455.54,-251.68 464.7,-245.51 473.94,-242.41 706.18,-164.47 782.75,-249.25 1023.94,-206.41 1057.88,-200.39 1095.17,-189.31 1123.43,-179.95"/>
<polygon fill="red" stroke="red" stroke-width="0.38" points="1124.5,-183.29 1132.87,-176.78 1122.27,-176.65 1124.5,-183.29"/>
</g>
<!-- Pellet Left&#45;&gt;Move Up -->
<g id="edge7" class="edge">
<title>Pellet Left&#45;&gt;Move Up</title>
<path fill="none" stroke="red" stroke-width="0.2" d="M451.4,-256.86C458.01,-252.41 466.32,-246.96 473.94,-242.41 508.89,-221.55 549.76,-199.74 579.36,-184.39"/>
<polygon fill="red" stroke="red" stroke-width="0.2" points="580.62,-187.68 587.9,-179.98 577.4,-181.46 580.62,-187.68"/>
</g>
<!-- Pellet Left&#45;&gt;Move Down -->
<g id="edge8" class="edge">
<title>Pellet Left&#45;&gt;Move Down</title>
<path fill="none" stroke="red" stroke-width="0.39" d="M449.32,-256.92C455.96,-251.9 464.98,-245.88 473.94,-242.41 514.81,-226.58 797.05,-187.23 917.09,-170.96"/>
<polygon fill="red" stroke="red" stroke-width="0.39" points="917.49,-174.44 926.93,-169.63 916.55,-167.5 917.49,-174.44"/>
</g>
<!-- Pellet Left&#45;&gt;8136 -->
<g id="edge61" class="edge">
<title>Pellet Left&#45;&gt;8136</title>
<path fill="none" stroke="green" stroke-width="0.1" stroke-dasharray="1,5" d="M444.48,-256.78C453.59,-242.53 472.1,-213.57 486.06,-191.72"/>
<polygon fill="green" stroke="green" stroke-width="0.1" points="488.83,-193.89 491.26,-183.58 482.93,-190.12 488.83,-193.89"/>
</g>
<!-- Pellet Up -->
<g id="node3" class="node">
<title>Pellet Up</title>
<polygon fill="lightblue" stroke="black" points="1521.44,-275.7 1472.44,-275.7 1472.44,-257.2 1521.44,-257.2 1521.44,-275.7"/>
<text text-anchor="middle" x="1496.94" y="-263.15" font-family="Times,serif" font-size="9.00">Pellet Up</text>
</g>
<!-- Pellet Up&#45;&gt;Move Right -->
<g id="edge56" class="edge">
<title>Pellet Up&#45;&gt;Move Right</title>
<path fill="none" stroke="red" stroke-width="0.12" stroke-dasharray="1,5" d="M1486.84,-256.91C1455.42,-230.86 1355.62,-152.23 1257.94,-119.09 1132.04,-76.36 725.65,-52.35 581.35,-45"/>
<polygon fill="red" stroke="red" stroke-width="0.12" points="581.78,-41.51 571.61,-44.5 581.42,-48.5 581.78,-41.51"/>
</g>
<!-- Pellet Up&#45;&gt;Move Left -->
<g id="edge9" class="edge">
<title>Pellet Up&#45;&gt;Move Left</title>
<path fill="none" stroke="red" stroke-width="0.28" stroke-dasharray="1,5" d="M1484.39,-256.87C1476.96,-252.09 1467.21,-246.33 1457.94,-242.41 1375.92,-207.77 1274.34,-184.28 1216.05,-172.52"/>
<polygon fill="red" stroke="red" stroke-width="0.28" points="1216.93,-169.12 1206.44,-170.61 1215.57,-175.99 1216.93,-169.12"/>
</g>
<!-- Pellet Up&#45;&gt;Move Up -->
<g id="edge10" class="edge">
<title>Pellet Up&#45;&gt;Move Up</title>
<path fill="none" stroke="green" stroke-width="0.22" d="M1474.6,-256.78C1460.56,-251.71 1441.95,-245.69 1424.94,-242.41 1203.12,-199.68 1142.56,-230.44 917.94,-206.41 827.98,-196.79 723.42,-180.67 665.14,-171.25"/>
<polygon fill="green" stroke="green" stroke-width="0.22" points="665.92,-167.83 655.49,-169.68 664.8,-174.74 665.92,-167.83"/>
</g>
<!-- Pellet Down -->
<g id="node4" class="node">
<title>Pellet Down</title>
<polygon fill="lightblue" stroke="black" points="1485.06,-345 1424.81,-345 1424.81,-326.5 1485.06,-326.5 1485.06,-345"/>
<text text-anchor="middle" x="1454.94" y="-332.45" font-family="Times,serif" font-size="9.00">Pellet Down</text>
</g>
<!-- Pellet Down&#45;&gt;Move Right -->
<g id="edge11" class="edge">
<title>Pellet Down&#45;&gt;Move Right</title>
<path fill="none" stroke="green" stroke-width="0.34" stroke-dasharray="1,5" d="M1485.46,-333.54C1542.29,-330.59 1660.83,-320.87 1685.94,-290.5 1699.55,-274.02 1696.98,-260.71 1685.94,-242.41 1569.66,-49.68 792.41,-40.76 582.24,-41.92"/>
<polygon fill="green" stroke="green" stroke-width="0.34" points="582.29,-38.42 572.31,-41.99 582.33,-45.42 582.29,-38.42"/>
</g>
<!-- Pellet Down&#45;&gt;Move Left -->
<g id="edge12" class="edge">
<title>Pellet Down&#45;&gt;Move Left</title>
<path fill="none" stroke="red" stroke-width="0.13" stroke-dasharray="1,5" d="M1485.45,-332.97C1538.54,-329.16 1644.41,-318.21 1666.94,-290.5 1680.42,-273.91 1680.82,-258.66 1666.94,-242.41 1609.32,-174.98 1330.8,-165.01 1217.26,-163.79"/>
<polygon fill="red" stroke="red" stroke-width="0.13" points="1217.35,-160.29 1207.32,-163.7 1217.29,-167.29 1217.35,-160.29"/>
</g>
<!-- Pellet Down&#45;&gt;Move Down -->
<g id="edge13" class="edge">
<title>Pellet Down&#45;&gt;Move Down</title>
<path fill="none" stroke="red" stroke-width="0.21" stroke-dasharray="1,5" d="M1424.47,-334.75C1381.02,-333.43 1300.18,-325.9 1242.94,-290.5 1219.77,-276.17 1227.22,-258.09 1204.94,-242.41 1175.22,-221.5 1082.21,-193.78 1022.79,-177.45"/>
<polygon fill="red" stroke="red" stroke-width="0.21" points="1024.08,-174.17 1013.51,-174.91 1022.23,-180.92 1024.08,-174.17"/>
</g>
<!-- 7814 -->
<g id="node23" class="node">
<title>7814</title>
<ellipse fill="white" stroke="black" cx="48.94" cy="-266.45" rx="24.04" ry="24.04"/>
<text text-anchor="middle" x="48.94" y="-263.15" font-family="Times,serif" font-size="9.00">7814</text>
</g>
<!-- Pellet Down&#45;&gt;7814 -->
<g id="edge59" class="edge">
<title>Pellet Down&#45;&gt;7814</title>
<path fill="none" stroke="green" stroke-width="0.72" d="M1424.46,-334.8C1234.18,-335.02 213.2,-334.12 81.94,-290.5 80.16,-289.91 78.39,-289.19 76.65,-288.37"/>
<polygon fill="green" stroke="green" stroke-width="0.72" points="78.48,-285.38 68.06,-283.44 74.99,-291.45 78.48,-285.38"/>
</g>
<!-- Power Pellet Right -->
<g id="node5" class="node">
<title>Power Pellet Right</title>
<polygon fill="lightblue" stroke="black" points="1012.31,-275.7 929.56,-275.7 929.56,-257.2 1012.31,-257.2 1012.31,-275.7"/>
<text text-anchor="middle" x="970.94" y="-263.15" font-family="Times,serif" font-size="9.00">Power Pellet Right</text>
</g>
<!-- Power Pellet Right&#45;&gt;Move Left -->
<g id="edge14" class="edge">
<title>Power Pellet Right&#45;&gt;Move Left</title>
<path fill="none" stroke="red" stroke-width="0.42" stroke-dasharray="1,5" d="M987.82,-256.78C1018.16,-241.2 1082.79,-208 1126.05,-185.78"/>
<polygon fill="red" stroke="red" stroke-width="0.42" points="1127.61,-188.91 1134.91,-181.23 1124.41,-182.68 1127.61,-188.91"/>
</g>
<!-- Power Pellet Right&#45;&gt;Move Up -->
<g id="edge15" class="edge">
<title>Power Pellet Right&#45;&gt;Move Up</title>
<path fill="none" stroke="red" stroke-width="0.21" d="M953.77,-256.83C944.01,-252.15 931.48,-246.5 919.94,-242.41 831.42,-211.06 724.27,-185.92 664.96,-173.07"/>
<polygon fill="red" stroke="red" stroke-width="0.21" points="665.98,-169.71 655.47,-171.03 664.51,-176.56 665.98,-169.71"/>
</g>
<!-- Power Pellet Right&#45;&gt;Move Down -->
<g id="edge16" class="edge">
<title>Power Pellet Right&#45;&gt;Move Down</title>
<path fill="none" stroke="green" stroke-width="0.19" d="M970.94,-256.78C970.94,-247.64 970.94,-232.44 970.94,-216.95"/>
<polygon fill="green" stroke="green" stroke-width="0.19" points="974.44,-217.08 970.94,-207.08 967.44,-217.08 974.44,-217.08"/>
</g>
<!-- Power Pellet Left -->
<g id="node6" class="node">
<title>Power Pellet Left</title>
<polygon fill="lightblue" stroke="black" points="597.69,-345 520.19,-345 520.19,-326.5 597.69,-326.5 597.69,-345"/>
<text text-anchor="middle" x="558.94" y="-332.45" font-family="Times,serif" font-size="9.00">Power Pellet Left</text>
</g>
<!-- Power Pellet Left&#45;&gt;Move Right -->
<g id="edge17" class="edge">
<title>Power Pellet Left&#45;&gt;Move Right</title>
<path fill="none" stroke="red" stroke-width="0.19" d="M519.72,-332.26C396.45,-324.35 24.49,-299.78 15.94,-290.5 -29.95,-240.72 34.4,-150.17 75.94,-119.09 138.88,-71.98 373.13,-52.07 478.27,-45.38"/>
<polygon fill="red" stroke="red" stroke-width="0.19" points="478.29,-48.88 488.05,-44.77 477.86,-41.9 478.29,-48.88"/>
</g>
<!-- Power Pellet Left&#45;&gt;Move Left -->
<g id="edge18" class="edge">
<title>Power Pellet Left&#45;&gt;Move Left</title>
<path fill="none" stroke="red" stroke-width="0.17" d="M597.98,-334.46C775.37,-332.96 1498.19,-324.77 1530.94,-290.5 1625.37,-191.67 1335.63,-169.84 1217.08,-165.07"/>
<polygon fill="red" stroke="red" stroke-width="0.17" points="1217.55,-161.58 1207.43,-164.7 1217.29,-168.58 1217.55,-161.58"/>
</g>
<!-- Power Pellet Left&#45;&gt;Move Up -->
<g id="edge19" class="edge">
<title>Power Pellet Left&#45;&gt;Move Up</title>
<path fill="none" stroke="red" stroke-width="0.15" d="M559.88,-326.12C561.86,-309.51 567.21,-272.12 577.94,-242.41 582.85,-228.82 589.76,-214.68 596.57,-202.2"/>
<polygon fill="red" stroke="red" stroke-width="0.15" points="599.53,-204.07 601.36,-193.64 593.42,-200.66 599.53,-204.07"/>
</g>
<!-- Power Pellet Left&#45;&gt;Move Down -->
<g id="edge20" class="edge">
<title>Power Pellet Left&#45;&gt;Move Down</title>
<path fill="none" stroke="red" stroke-width="0.21" d="M598.18,-334.21C709.86,-332.28 1023.37,-323.92 1053.94,-290.5 1080.97,-260.94 1046.47,-221.69 1014.08,-194.75"/>
<polygon fill="red" stroke="red" stroke-width="0.21" points="1016.59,-192.28 1006.61,-188.72 1012.19,-197.72 1016.59,-192.28"/>
</g>
<!-- 8346 -->
<g id="node25" class="node">
<title>8346</title>
<ellipse fill="white" stroke="black" cx="506.94" cy="-266.45" rx="24.04" ry="24.04"/>
<text text-anchor="middle" x="506.94" y="-263.15" font-family="Times,serif" font-size="9.00">8346</text>
</g>
<!-- Power Pellet Left&#45;&gt;8346 -->
<g id="edge62" class="edge">
<title>Power Pellet Left&#45;&gt;8346</title>
<path fill="none" stroke="green" stroke-width="0.17" d="M552.35,-326.22C546.11,-318.14 536.39,-305.57 527.54,-294.12"/>
<polygon fill="green" stroke="green" stroke-width="0.17" points="530.36,-292.04 521.48,-286.27 524.82,-296.32 530.36,-292.04"/>
</g>
<!-- Power Pellet Up -->
<g id="node7" class="node">
<title>Power Pellet Up</title>
<polygon fill="lightblue" stroke="black" points="395.19,-275.7 320.69,-275.7 320.69,-257.2 395.19,-257.2 395.19,-275.7"/>
<text text-anchor="middle" x="357.94" y="-263.15" font-family="Times,serif" font-size="9.00">Power Pellet Up</text>
</g>
<!-- Power Pellet Up&#45;&gt;Move Right -->
<g id="edge21" class="edge">
<title>Power Pellet Up&#45;&gt;Move Right</title>
<path fill="none" stroke="green" stroke-width="0.22" d="M361.69,-256.93C372.28,-233.42 404.14,-166.31 442.94,-119.09 456.42,-102.67 473.59,-86.77 489.1,-73.76"/>
<polygon fill="green" stroke="green" stroke-width="0.22" points="491.27,-76.51 496.77,-67.45 486.82,-71.1 491.27,-76.51"/>
</g>
<!-- Power Pellet Up&#45;&gt;Move Left -->
<g id="edge22" class="edge">
<title>Power Pellet Up&#45;&gt;Move Left</title>
<path fill="none" stroke="red" stroke-width="0.23" stroke-dasharray="1,5" d="M371.45,-256.85C380.32,-251.67 392.38,-245.5 403.94,-242.41 670.6,-171.14 752,-253.68 1023.94,-206.41 1058.05,-200.48 1095.52,-189.33 1123.82,-179.92"/>
<polygon fill="red" stroke="red" stroke-width="0.23" points="1124.75,-183.3 1133.11,-176.78 1122.51,-176.67 1124.75,-183.3"/>
</g>
<!-- Power Pellet Up&#45;&gt;Move Up -->
<g id="edge23" class="edge">
<title>Power Pellet Up&#45;&gt;Move Up</title>
<path fill="none" stroke="green" stroke-width="0.11" d="M373.34,-256.77C382.12,-252.07 393.42,-246.42 403.94,-242.41 461.16,-220.59 479.84,-228.53 536.94,-206.41 551.56,-200.75 566.99,-193.27 580.53,-186.15"/>
<polygon fill="green" stroke="green" stroke-width="0.11" points="581.81,-189.44 588.98,-181.64 578.51,-183.27 581.81,-189.44"/>
</g>
<!-- Power Pellet Up&#45;&gt;Move Down -->
<g id="edge24" class="edge">
<title>Power Pellet Up&#45;&gt;Move Down</title>
<path fill="none" stroke="green" stroke-width="0.26" d="M371.94,-256.93C380.8,-251.92 392.68,-245.91 403.94,-242.41 515.78,-207.73 548.95,-222.5 664.94,-206.41 753.34,-194.15 856.08,-179.81 917.19,-171.27"/>
<polygon fill="green" stroke="green" stroke-width="0.26" points="917.55,-174.75 926.97,-169.9 916.58,-167.82 917.55,-174.75"/>
</g>
<!-- 8672 -->
<g id="node22" class="node">
<title>8672</title>
<ellipse fill="white" stroke="black" cx="322.94" cy="-162.75" rx="24.04" ry="24.04"/>
<text text-anchor="middle" x="322.94" y="-159.45" font-family="Times,serif" font-size="9.00">8672</text>
</g>
<!-- Power Pellet Up&#45;&gt;8672 -->
<g id="edge64" class="edge">
<title>Power Pellet Up&#45;&gt;8672</title>
<path fill="none" stroke="green" stroke-width="0.31" d="M354.96,-256.78C350.33,-243.35 341.2,-216.83 333.87,-195.53"/>
<polygon fill="green" stroke="green" stroke-width="0.31" points="337.27,-194.64 330.71,-186.32 330.65,-196.91 337.27,-194.64"/>
</g>
<!-- Power Pellet Down -->
<g id="node8" class="node">
<title>Power Pellet Down</title>
<polygon fill="lightblue" stroke="black" points="418.81,-345 333.06,-345 333.06,-326.5 418.81,-326.5 418.81,-345"/>
<text text-anchor="middle" x="375.94" y="-332.45" font-family="Times,serif" font-size="9.00">Power Pellet Down</text>
</g>
<!-- Power Pellet Down&#45;&gt;Move Left -->
<g id="edge25" class="edge">
<title>Power Pellet Down&#45;&gt;Move Left</title>
<path fill="none" stroke="green" stroke-width="0.25" d="M419.09,-331.87C445.59,-330.16 480.22,-328.04 510.94,-326.5 561.69,-323.95 1389.72,-327.13 1424.94,-290.5 1492.04,-220.7 1307.92,-183.65 1216.72,-169.99"/>
<polygon fill="green" stroke="green" stroke-width="0.25" points="1217.38,-166.55 1206.98,-168.56 1216.37,-173.47 1217.38,-166.55"/>
</g>
<!-- Power Pellet Down&#45;&gt;Move Up -->
<g id="edge26" class="edge">
<title>Power Pellet Down&#45;&gt;Move Up</title>
<path fill="none" stroke="green" stroke-width="0.35" d="M353.84,-326.04C339.04,-318.91 320.72,-307.24 311.94,-290.5 302.02,-271.57 298.07,-258.67 311.94,-242.41 344.79,-203.88 488.82,-222.18 536.94,-206.41 551.83,-201.53 567.31,-194.25 580.81,-187.08"/>
<polygon fill="green" stroke="green" stroke-width="0.35" points="582.24,-190.29 589.34,-182.42 578.89,-184.15 582.24,-190.29"/>
</g>
<!-- Power Pellet Down&#45;&gt;Move Down -->
<g id="edge27" class="edge">
<title>Power Pellet Down&#45;&gt;Move Down</title>
<path fill="none" stroke="green" stroke-width="0.28" d="M419.07,-331.98C563.06,-322.73 1018.36,-293.26 1020.94,-290.5 1043.47,-266.37 1026.57,-230.88 1006.54,-203.58"/>
<polygon fill="green" stroke="green" stroke-width="0.28" points="1009.39,-201.54 1000.53,-195.73 1003.83,-205.8 1009.39,-201.54"/>
</g>
<!-- Power Pellet Down&#45;&gt;7814 -->
<g id="edge57" class="edge">
<title>Power Pellet Down&#45;&gt;7814</title>
<path fill="none" stroke="red" stroke-width="0.35" d="M332.97,-334.36C274.25,-332.49 166.56,-324.24 81.94,-290.5 80.04,-289.74 78.15,-288.85 76.28,-287.88"/>
<polygon fill="red" stroke="red" stroke-width="0.35" points="78.1,-284.89 67.72,-282.73 74.48,-290.89 78.1,-284.89"/>
</g>
<!-- Ghost Info Right -->
<g id="node9" class="node">
<title>Ghost Info Right</title>
<polygon fill="lightblue" stroke="black" points="265.31,-275.7 188.56,-275.7 188.56,-257.2 265.31,-257.2 265.31,-275.7"/>
<text text-anchor="middle" x="226.94" y="-263.15" font-family="Times,serif" font-size="9.00">Ghost Info Right</text>
</g>
<!-- Ghost Info Right&#45;&gt;Move Right -->
<g id="edge28" class="edge">
<title>Ghost Info Right&#45;&gt;Move Right</title>
<path fill="none" stroke="green" stroke-width="0.12" stroke-dasharray="1,5" d="M228.14,-256.76C232.08,-231.6 246.9,-158.11 289.94,-119.09 342.59,-71.34 425.12,-53.37 478.37,-46.61"/>
<polygon fill="green" stroke="green" stroke-width="0.12" points="478.59,-50.11 488.11,-45.46 477.77,-43.15 478.59,-50.11"/>
</g>
<!-- Ghost Info Right&#45;&gt;Move Up -->
<g id="edge29" class="edge">
<title>Ghost Info Right&#45;&gt;Move Up</title>
<path fill="none" stroke="red" stroke-width="0.18" d="M243.36,-256.76C253.38,-251.82 266.6,-245.93 278.94,-242.41 390.28,-210.65 426.57,-241.37 536.94,-206.41 551.87,-201.68 567.37,-194.44 580.87,-187.26"/>
<polygon fill="red" stroke="red" stroke-width="0.18" points="582.54,-190.33 589.63,-182.45 579.18,-184.19 582.54,-190.33"/>
</g>
<!-- Ghost Info Right&#45;&gt;Move Down -->
<g id="edge30" class="edge">
<title>Ghost Info Right&#45;&gt;Move Down</title>
<path fill="none" stroke="red" stroke-width="0.21" stroke-dasharray="1,5" d="M254.62,-256.72C271.11,-251.83 292.55,-246.01 311.94,-242.41 467,-213.69 508.37,-225.3 664.94,-206.41 753.66,-195.71 856.51,-180.87 917.52,-171.81"/>
<polygon fill="red" stroke="red" stroke-width="0.21" points="917.99,-175.27 927.37,-170.34 916.96,-168.35 917.99,-175.27"/>
</g>
<!-- Ghost Info Right&#45;&gt;8672 -->
<g id="edge67" class="edge">
<title>Ghost Info Right&#45;&gt;8672</title>
<path fill="none" stroke="red" stroke-width="0.13" d="M235.12,-256.78C249.32,-241.74 278.99,-210.31 299.9,-188.15"/>
<polygon fill="red" stroke="red" stroke-width="0.13" points="302.44,-190.57 306.76,-180.89 297.35,-185.76 302.44,-190.57"/>
</g>
<!-- Ghost Info Left -->
<g id="node10" class="node">
<title>Ghost Info Left</title>
<polygon fill="lightblue" stroke="black" points="1415.69,-275.7 1344.19,-275.7 1344.19,-257.2 1415.69,-257.2 1415.69,-275.7"/>
<text text-anchor="middle" x="1379.94" y="-263.15" font-family="Times,serif" font-size="9.00">Ghost Info Left</text>
</g>
<!-- Ghost Info Left&#45;&gt;Move Left -->
<g id="edge31" class="edge">
<title>Ghost Info Left&#45;&gt;Move Left</title>
<path fill="none" stroke="green" stroke-width="0.56" d="M1363.33,-256.8C1354.87,-252.42 1344.39,-247.07 1334.94,-242.41 1293.67,-222.08 1246.2,-199.68 1212.62,-184"/>
<polygon fill="green" stroke="green" stroke-width="0.56" points="1214.41,-180.98 1203.87,-179.92 1211.45,-187.32 1214.41,-180.98"/>
</g>
<!-- Ghost Info Left&#45;&gt;Move Down -->
<g id="edge32" class="edge">
<title>Ghost Info Left&#45;&gt;Move Down</title>
<path fill="none" stroke="red" stroke-width="0.35" d="M1365.84,-256.81C1357.2,-251.89 1345.77,-246.01 1334.94,-242.41 1243.81,-212.18 1215.61,-227.5 1121.94,-206.41 1088.54,-198.89 1051.54,-188.48 1022.52,-179.82"/>
<polygon fill="red" stroke="red" stroke-width="0.35" points="1023.7,-176.51 1013.11,-176.98 1021.68,-183.22 1023.7,-176.51"/>
</g>
<!-- Ghost Info Up -->
<g id="node11" class="node">
<title>Ghost Info Up</title>
<polygon fill="lightblue" stroke="black" points="731.19,-275.7 662.69,-275.7 662.69,-257.2 731.19,-257.2 731.19,-275.7"/>
<text text-anchor="middle" x="696.94" y="-263.15" font-family="Times,serif" font-size="9.00">Ghost Info Up</text>
</g>
<!-- Ghost Info Up&#45;&gt;Move Right -->
<g id="edge33" class="edge">
<title>Ghost Info Up&#45;&gt;Move Right</title>
<path fill="none" stroke="green" stroke-width="0.38" d="M697.36,-256.89C698.11,-232.71 697.19,-162.85 664.94,-119.09 643.83,-90.44 608.57,-70.98 579.38,-58.85"/>
<polygon fill="green" stroke="green" stroke-width="0.38" points="580.87,-55.68 570.28,-55.23 578.28,-62.18 580.87,-55.68"/>
</g>
<!-- Ghost Info Up&#45;&gt;Move Up -->
<g id="edge34" class="edge">
<title>Ghost Info Up&#45;&gt;Move Up</title>
<path fill="none" stroke="red" stroke-width="0.6" stroke-dasharray="1,5" d="M690.37,-256.78C680.95,-244.34 663.04,-220.68 647.64,-200.33"/>
<polygon fill="red" stroke="red" stroke-width="0.6" points="650.6,-198.45 641.77,-192.59 645.02,-202.67 650.6,-198.45"/>
</g>
<!-- Ghost Info Up&#45;&gt;Move Down -->
<g id="edge35" class="edge">
<title>Ghost Info Up&#45;&gt;Move Down</title>
<path fill="none" stroke="green" stroke-width="0.22" d="M711.76,-256.73C719.92,-252.14 730.31,-246.6 739.94,-242.41 799.97,-216.32 871.69,-193.07 919.11,-178.73"/>
<polygon fill="green" stroke="green" stroke-width="0.22" points="919.96,-182.13 928.54,-175.91 917.95,-175.43 919.96,-182.13"/>
</g>
<!-- Ghost Info Down -->
<g id="node12" class="node">
<title>Ghost Info Down</title>
<polygon fill="lightblue" stroke="black" points="1657.81,-275.7 1578.06,-275.7 1578.06,-257.2 1657.81,-257.2 1657.81,-275.7"/>
<text text-anchor="middle" x="1617.94" y="-263.15" font-family="Times,serif" font-size="9.00">Ghost Info Down</text>
</g>
<!-- Ghost Info Down&#45;&gt;Move Right -->
<g id="edge36" class="edge">
<title>Ghost Info Down&#45;&gt;Move Right</title>
<path fill="none" stroke="green" stroke-width="0.27" stroke-dasharray="1,5" d="M1606.48,-256.88C1570.88,-230.75 1458.09,-151.9 1350.94,-119.09 1206.01,-74.7 739.09,-51.37 582.04,-44.63"/>
<polygon fill="green" stroke="green" stroke-width="0.27" points="582.25,-41.14 572.11,-44.21 581.96,-48.13 582.25,-41.14"/>
</g>
<!-- Ghost Info Down&#45;&gt;Move Left -->
<g id="edge37" class="edge">
<title>Ghost Info Down&#45;&gt;Move Left</title>
<path fill="none" stroke="green" stroke-width="0.11" stroke-dasharray="1,5" d="M1600.29,-256.82C1589.9,-252.03 1576.4,-246.27 1563.94,-242.41 1441.19,-204.45 1291.15,-180.46 1216.24,-169.94"/>
<polygon fill="green" stroke="green" stroke-width="0.11" points="1217.16,-166.53 1206.78,-168.63 1216.2,-173.47 1217.16,-166.53"/>
</g>
<!-- Ghost Info Down&#45;&gt;Move Down -->
<g id="edge38" class="edge">
<title>Ghost Info Down&#45;&gt;Move Down</title>
<path fill="none" stroke="green" stroke-width="0.1" d="M1590,-256.75C1573.07,-251.8 1550.95,-245.92 1530.94,-242.41 1351.19,-210.94 1301.42,-239.37 1121.94,-206.41 1088.12,-200.2 1050.94,-189.74 1021.93,-180.74"/>
<polygon fill="green" stroke="green" stroke-width="0.1" points="1023.17,-177.46 1012.58,-177.79 1021.06,-184.13 1023.17,-177.46"/>
</g>
<!-- PAC&#45;MAN Right -->
<g id="node13" class="node">
<title>PAC&#45;MAN Right</title>
<polygon fill="lightblue" stroke="black" points="170.44,-275.7 91.44,-275.7 91.44,-257.2 170.44,-257.2 170.44,-275.7"/>
<text text-anchor="middle" x="130.94" y="-263.15" font-family="Times,serif" font-size="9.00">PAC&#45;MAN Right</text>
</g>
<!-- PAC&#45;MAN Right&#45;&gt;Move Right -->
<g id="edge39" class="edge">
<title>PAC&#45;MAN Right&#45;&gt;Move Right</title>
<path fill="none" stroke="green" stroke-width="0.38" d="M134.49,-256.94C145.48,-231.65 181.54,-156.43 235.94,-119.09 309.83,-68.36 415.15,-51.25 477.63,-45.48"/>
<polygon fill="green" stroke="green" stroke-width="0.38" points="477.8,-48.98 487.47,-44.64 477.2,-42 477.8,-48.98"/>
</g>
<!-- PAC&#45;MAN Right&#45;&gt;Move Up -->
<g id="edge40" class="edge">
<title>PAC&#45;MAN Right&#45;&gt;Move Up</title>
<path fill="none" stroke="green" stroke-width="0.9" d="M145.87,-256.8C155.33,-251.75 167.98,-245.72 179.94,-242.41 333.63,-199.87 384.02,-251.65 536.94,-206.41 551.67,-202.05 566.88,-195.07 580.19,-188"/>
<polygon fill="green" stroke="green" stroke-width="0.9" points="581.68,-191.18 588.76,-183.29 578.31,-185.04 581.68,-191.18"/>
</g>
<!-- PAC&#45;MAN Left -->
<g id="node14" class="node">
<title>PAC&#45;MAN Left</title>
<polygon fill="lightblue" stroke="black" points="822.81,-275.7 749.06,-275.7 749.06,-257.2 822.81,-257.2 822.81,-275.7"/>
<text text-anchor="middle" x="785.94" y="-263.15" font-family="Times,serif" font-size="9.00">PAC&#45;MAN Left</text>
</g>
<!-- PAC&#45;MAN Left&#45;&gt;Move Right -->
<g id="edge41" class="edge">
<title>PAC&#45;MAN Left&#45;&gt;Move Right</title>
<path fill="none" stroke="red" stroke-width="0.49" d="M782.61,-257.02C772.57,-232.59 740.39,-160.86 692.94,-119.09 660.05,-90.13 614.31,-69.93 579.66,-57.59"/>
<polygon fill="red" stroke="red" stroke-width="0.49" points="581.04,-54.36 570.44,-54.4 578.75,-60.98 581.04,-54.36"/>
</g>
<!-- PAC&#45;MAN Left&#45;&gt;Move Left -->
<g id="edge42" class="edge">
<title>PAC&#45;MAN Left&#45;&gt;Move Left</title>
<path fill="none" stroke="red" stroke-width="0.15" stroke-dasharray="1,5" d="M800.4,-256.9C809.24,-252 820.94,-246.12 831.94,-242.41 914.22,-214.7 939.52,-226.69 1023.94,-206.41 1057.49,-198.35 1094.83,-187.32 1123.22,-178.49"/>
<polygon fill="red" stroke="red" stroke-width="0.15" points="1124.15,-181.86 1132.64,-175.53 1122.06,-175.18 1124.15,-181.86"/>
</g>
<!-- PAC&#45;MAN Left&#45;&gt;Move Up -->
<g id="edge43" class="edge">
<title>PAC&#45;MAN Left&#45;&gt;Move Up</title>
<path fill="none" stroke="green" stroke-width="0.25" d="M771.79,-256.78C747.07,-241.64 695.21,-209.87 659.01,-187.69"/>
<polygon fill="green" stroke="green" stroke-width="0.25" points="660.86,-184.71 650.5,-182.48 657.2,-190.68 660.86,-184.71"/>
</g>
<!-- PAC&#45;MAN Left&#45;&gt;Move Down -->
<g id="edge44" class="edge">
<title>PAC&#45;MAN Left&#45;&gt;Move Down</title>
<path fill="none" stroke="green" stroke-width="0.43" d="M801.71,-256.78C828.46,-242.08 883.73,-211.69 923.84,-189.64"/>
<polygon fill="green" stroke="green" stroke-width="0.43" points="925.28,-192.85 932.36,-184.96 921.91,-186.71 925.28,-192.85"/>
</g>
<!-- PAC&#45;MAN Up -->
<g id="node15" class="node">
<title>PAC&#45;MAN Up</title>
<polygon fill="lightblue" stroke="black" points="911.31,-275.7 840.56,-275.7 840.56,-257.2 911.31,-257.2 911.31,-275.7"/>
<text text-anchor="middle" x="875.94" y="-263.15" font-family="Times,serif" font-size="9.00">PAC&#45;MAN Up</text>
</g>
<!-- PAC&#45;MAN Up&#45;&gt;Move Right -->
<g id="edge45" class="edge">
<title>PAC&#45;MAN Up&#45;&gt;Move Right</title>
<path fill="none" stroke="red" stroke-width="0.11" d="M870.16,-256.88C853.03,-232.08 799.89,-159.43 738.94,-119.09 689.66,-86.46 624.67,-65.5 580.33,-53.91"/>
<polygon fill="red" stroke="red" stroke-width="0.11" points="581.36,-50.56 570.81,-51.48 579.63,-57.34 581.36,-50.56"/>
</g>
<!-- PAC&#45;MAN Up&#45;&gt;Move Left -->
<g id="edge46" class="edge">
<title>PAC&#45;MAN Up&#45;&gt;Move Left</title>
<path fill="none" stroke="green" stroke-width="0.22" stroke-dasharray="1,5" d="M891.05,-256.92C899.65,-252.27 910.71,-246.62 920.94,-242.41 957.84,-227.24 1061.92,-195.54 1122.88,-177.36"/>
<polygon fill="green" stroke="green" stroke-width="0.22" points="1123.73,-180.76 1132.32,-174.55 1121.74,-174.05 1123.73,-180.76"/>
</g>
<!-- PAC&#45;MAN Up&#45;&gt;Move Up -->
<g id="edge47" class="edge">
<title>PAC&#45;MAN Up&#45;&gt;Move Up</title>
<path fill="none" stroke="green" stroke-width="0.47" d="M860.7,-256.86C852.34,-252.3 841.71,-246.76 831.94,-242.41 775,-217.06 707.14,-192.9 663.81,-178.2"/>
<polygon fill="green" stroke="green" stroke-width="0.47" points="665.15,-174.96 654.56,-175.08 662.91,-181.59 665.15,-174.96"/>
</g>
<!-- PAC&#45;MAN Up&#45;&gt;Move Down -->
<g id="edge48" class="edge">
<title>PAC&#45;MAN Up&#45;&gt;Move Down</title>
<path fill="none" stroke="green" stroke-width="0.58" d="M884.04,-256.78C895.08,-244.96 915.58,-223.01 933.9,-203.4"/>
<polygon fill="green" stroke="green" stroke-width="0.58" points="936.46,-205.79 940.73,-196.1 931.34,-201.01 936.46,-205.79"/>
</g>
<!-- PACM&#45;MAN Down -->
<g id="node16" class="node">
<title>PACM&#45;MAN Down</title>
<polygon fill="lightblue" stroke="black" points="1196.06,-275.7 1105.81,-275.7 1105.81,-257.2 1196.06,-257.2 1196.06,-275.7"/>
<text text-anchor="middle" x="1150.94" y="-263.15" font-family="Times,serif" font-size="9.00">PACM&#45;MAN Down</text>
</g>
<!-- PACM&#45;MAN Down&#45;&gt;Move Left -->
<g id="edge49" class="edge">
<title>PACM&#45;MAN Down&#45;&gt;Move Left</title>
<path fill="none" stroke="green" stroke-width="0.1" d="M1152.47,-256.78C1154.34,-246.24 1157.63,-227.66 1160.78,-209.85"/>
<polygon fill="green" stroke="green" stroke-width="0.1" points="1164.18,-210.71 1162.48,-200.25 1157.29,-209.49 1164.18,-210.71"/>
</g>
<!-- PACM&#45;MAN Down&#45;&gt;Move Up -->
<g id="edge50" class="edge">
<title>PACM&#45;MAN Down&#45;&gt;Move Up</title>
<path fill="none" stroke="green" stroke-width="0.11" d="M1105.67,-256.78C1005.28,-237.56 765.01,-191.53 664.91,-172.36"/>
<polygon fill="green" stroke="green" stroke-width="0.11" points="665.75,-168.96 655.27,-170.52 664.43,-175.83 665.75,-168.96"/>
</g>
<!-- PACM&#45;MAN Down&#45;&gt;Move Down -->
<g id="edge51" class="edge">
<title>PACM&#45;MAN Down&#45;&gt;Move Down</title>
<path fill="none" stroke="green" stroke-width="0.32" stroke-dasharray="1,5" d="M1135.59,-256.78C1109.78,-242.2 1056.67,-212.19 1017.72,-190.18"/>
<polygon fill="green" stroke="green" stroke-width="0.32" points="1019.49,-187.16 1009.07,-185.29 1016.05,-193.26 1019.49,-187.16"/>
</g>
<!-- Power&#45;Up Time -->
<g id="node17" class="node">
<title>Power&#45;Up Time</title>
<polygon fill="lightblue" stroke="black" points="1325.81,-275.7 1252.06,-275.7 1252.06,-257.2 1325.81,-257.2 1325.81,-275.7"/>
<text text-anchor="middle" x="1288.94" y="-263.15" font-family="Times,serif" font-size="9.00">Power&#45;Up Time</text>
</g>
<!-- Power&#45;Up Time&#45;&gt;Move Right -->
<g id="edge52" class="edge">
<title>Power&#45;Up Time&#45;&gt;Move Right</title>
<path fill="none" stroke="red" stroke-width="0.38" d="M1287.59,-257.02C1282.97,-231.31 1265.29,-153.55 1215.94,-119.09 1113.62,-47.63 723.68,-41.78 581.88,-42.08"/>
<polygon fill="red" stroke="red" stroke-width="0.38" points="582.28,-38.58 572.29,-42.11 582.3,-45.58 582.28,-38.58"/>
</g>
<!-- Power&#45;Up Time&#45;&gt;Move Left -->
<g id="edge53" class="edge">
<title>Power&#45;Up Time&#45;&gt;Move Left</title>
<path fill="none" stroke="red" stroke-width="0.59" stroke-dasharray="1,5" d="M1278.71,-256.78C1262.72,-243.23 1231.02,-216.37 1205.79,-194.98"/>
<polygon fill="red" stroke="red" stroke-width="0.59" points="1208.08,-192.34 1198.19,-188.54 1203.56,-197.68 1208.08,-192.34"/>
</g>
<!-- Power&#45;Up Time&#45;&gt;Move Up -->
<g id="edge54" class="edge">
<title>Power&#45;Up Time&#45;&gt;Move Up</title>
<path fill="none" stroke="red" stroke-width="0.31" d="M1261.18,-256.76C1244.92,-251.95 1223.92,-246.19 1204.94,-242.41 1078.85,-217.35 1045.35,-223.52 917.94,-206.41 828.27,-194.37 723.61,-179.11 665.24,-170.48"/>
<polygon fill="red" stroke="red" stroke-width="0.31" points="666.1,-167.07 655.7,-169.07 665.08,-174 666.1,-167.07"/>
</g>
<!-- Power&#45;Up Time&#45;&gt;Move Down -->
<g id="edge55" class="edge">
<title>Power&#45;Up Time&#45;&gt;Move Down</title>
<path fill="none" stroke="green" stroke-width="0.43" d="M1271.25,-256.74C1261.55,-252.14 1249.23,-246.61 1237.94,-242.41 1217.64,-234.88 1094.95,-199.35 1023.15,-178.71"/>
<polygon fill="green" stroke="green" stroke-width="0.43" points="1024.15,-175.36 1013.57,-175.96 1022.22,-182.09 1024.15,-175.36"/>
</g>
<!-- 8672&#45;&gt;Move Right -->
<g id="edge65" class="edge">
<title>8672&#45;&gt;Move Right</title>
<path fill="none" stroke="red" stroke-width="0.72" d="M338.93,-144.18C347.08,-135.88 357.46,-126.26 367.94,-119.09 403.42,-94.81 447.8,-74.44 481.14,-60.83"/>
<polygon fill="red" stroke="red" stroke-width="0.72" points="482.13,-64.2 490.1,-57.23 479.52,-57.71 482.13,-64.2"/>
</g>
<!-- 7814&#45;&gt;Move Right -->
<g id="edge58" class="edge">
<title>7814&#45;&gt;Move Right</title>
<path fill="none" stroke="red" stroke-width="0.42" d="M58.4,-244.13C73.98,-211.63 108.25,-150.21 156.94,-119.09 257.35,-54.9 401.31,-43.16 477.69,-41.82"/>
<polygon fill="red" stroke="red" stroke-width="0.42" points="477.41,-45.33 487.37,-41.71 477.32,-38.33 477.41,-45.33"/>
</g>
<!-- 7814&#45;&gt;8672 -->
<g id="edge68" class="edge">
<title>7814&#45;&gt;8672</title>
<path fill="none" stroke="green" stroke-width="0.11" d="M67.54,-251.05C72.09,-247.93 77.06,-244.84 81.94,-242.41 152.4,-207.28 242.05,-182.84 289.68,-171.3"/>
<polygon fill="green" stroke="green" stroke-width="0.11" points="290.39,-174.73 299.31,-169.01 288.77,-167.92 290.39,-174.73"/>
</g>
<!-- 8136&#45;&gt;Move Right -->
<g id="edge60" class="edge">
<title>8136&#45;&gt;Move Right</title>
<path fill="none" stroke="red" stroke-width="0.13" d="M508.95,-138.76C511.84,-125.54 515.58,-108.39 519.1,-92.24"/>
<polygon fill="red" stroke="red" stroke-width="0.13" points="522.5,-93.07 521.21,-82.55 515.66,-91.58 522.5,-93.07"/>
</g>
<!-- 8346&#45;&gt;Move Up -->
<g id="edge63" class="edge">
<title>8346&#45;&gt;Move Up</title>
<path fill="none" stroke="green" stroke-width="0.83" d="M524.6,-249.56C540.78,-235 565.21,-213.01 585.29,-194.94"/>
<polygon fill="green" stroke="green" stroke-width="0.83" points="587.57,-197.6 592.66,-188.3 582.88,-192.39 587.57,-197.6"/>
</g>
</g>
</svg>
