<?xml version="1.0" encoding="UTF-8" standalone="no"?>
<!DOCTYPE svg PUBLIC "-//W3C//DTD SVG 1.1//EN"
 "http://www.w3.org/Graphics/SVG/1.1/DTD/svg11.dtd">
<!-- Generated by graphviz version 12.0.0 (20240704.0754)
 -->
<!-- Pages: 1 -->
<svg width="1521pt" height="150pt"
 viewBox="0.00 0.00 1520.62 149.83" xmlns="http://www.w3.org/2000/svg" xmlns:xlink="http://www.w3.org/1999/xlink">
<g id="graph0" class="graph" transform="scale(1 1) rotate(0) translate(4 145.83)">
<polygon fill="white" stroke="none" points="-4,4 -4,-145.83 1516.62,-145.83 1516.62,4 -4,4"/>
<!-- Pellet Right -->
<g id="node1" class="node">
<title>Pellet Right</title>
<polygon fill="lightblue" stroke="black" points="518.12,-141.83 460.88,-141.83 460.88,-123.33 518.12,-123.33 518.12,-141.83"/>
<text text-anchor="middle" x="489.5" y="-129.28" font-family="Times,serif" font-size="9.00">Pellet Right</text>
</g>
<!-- Move Left -->
<g id="node19" class="node">
<title>Move Left</title>
<ellipse fill="lightblue" stroke="black" cx="447.5" cy="-43.66" rx="37.83" ry="37.83"/>
<text text-anchor="middle" x="447.5" y="-40.36" font-family="Times,serif" font-size="9.00">Move Left</text>
</g>
<!-- Pellet Right&#45;&gt;Move Left -->
<g id="edge1" class="edge">
<title>Pellet Right&#45;&gt;Move Left</title>
<path fill="none" stroke="red" stroke-width="0.13" d="M485.32,-122.93C481.2,-114.4 474.59,-100.72 468.04,-87.17"/>
<polygon fill="red" stroke="red" stroke-width="0.13" points="471.36,-86 463.86,-78.52 465.06,-89.04 471.36,-86"/>
</g>
<!-- Pellet Left -->
<g id="node2" class="node">
<title>Pellet Left</title>
<polygon fill="lightblue" stroke="black" points="1024.5,-141.83 972.5,-141.83 972.5,-123.33 1024.5,-123.33 1024.5,-141.83"/>
<text text-anchor="middle" x="998.5" y="-129.28" font-family="Times,serif" font-size="9.00">Pellet Left</text>
</g>
<!-- Move Right -->
<g id="node18" class="node">
<title>Move Right</title>
<ellipse fill="lightblue" stroke="black" cx="842.5" cy="-43.66" rx="41.54" ry="41.54"/>
<text text-anchor="middle" x="842.5" y="-40.36" font-family="Times,serif" font-size="9.00">Move Right</text>
</g>
<!-- Pellet Left&#45;&gt;Move Right -->
<g id="edge15" class="edge">
<title>Pellet Left&#45;&gt;Move Right</title>
<path fill="none" stroke="green" stroke-width="0.2" stroke-dasharray="1,5" d="M972.14,-123.15C950,-115.49 917.99,-102.99 892.5,-87.33 888.46,-84.84 884.41,-82.04 880.47,-79.09"/>
<polygon fill="green" stroke="green" stroke-width="0.2" points="882.82,-76.49 872.79,-73.07 878.5,-82 882.82,-76.49"/>
</g>
<!-- Move Up -->
<g id="node20" class="node">
<title>Move Up</title>
<ellipse fill="lightblue" stroke="black" cx="937.5" cy="-43.66" rx="35.71" ry="35.71"/>
<text text-anchor="middle" x="937.5" y="-40.36" font-family="Times,serif" font-size="9.00">Move Up</text>
</g>
<!-- Pellet Left&#45;&gt;Move Up -->
<g id="edge16" class="edge">
<title>Pellet Left&#45;&gt;Move Up</title>
<path fill="none" stroke="green" stroke-width="0.37" d="M992.43,-122.93C985.66,-113.29 974.28,-97.06 963.62,-81.88"/>
<polygon fill="green" stroke="green" stroke-width="0.37" points="966.74,-80.23 958.13,-74.05 961.01,-84.25 966.74,-80.23"/>
</g>
<!-- Pellet Up -->
<g id="node3" class="node">
<title>Pellet Up</title>
<polygon fill="lightblue" stroke="black" points="954,-141.83 905,-141.83 905,-123.33 954,-123.33 954,-141.83"/>
<text text-anchor="middle" x="929.5" y="-129.28" font-family="Times,serif" font-size="9.00">Pellet Up</text>
</g>
<!-- Pellet Up&#45;&gt;Move Right -->
<g id="edge17" class="edge">
<title>Pellet Up&#45;&gt;Move Right</title>
<path fill="none" stroke="green" stroke-width="0.33" stroke-dasharray="1,5" d="M920.84,-122.93C910.93,-113.02 894.04,-96.16 878.48,-80.61"/>
<polygon fill="green" stroke="green" stroke-width="0.33" points="881.36,-78.54 871.81,-73.95 876.41,-83.49 881.36,-78.54"/>
</g>
<!-- Pellet Up&#45;&gt;Move Up -->
<g id="edge2" class="edge">
<title>Pellet Up&#45;&gt;Move Up</title>
<path fill="none" stroke="green" stroke-width="0.15" d="M930.3,-122.93C931.03,-114.93 932.19,-102.4 933.36,-89.69"/>
<polygon fill="green" stroke="green" stroke-width="0.15" points="936.84,-90.04 934.27,-79.76 929.87,-89.39 936.84,-90.04"/>
</g>
<!-- Pellet Down -->
<g id="node4" class="node">
<title>Pellet Down</title>
<polygon fill="lightblue" stroke="black" points="350.62,-141.83 290.38,-141.83 290.38,-123.33 350.62,-123.33 350.62,-141.83"/>
<text text-anchor="middle" x="320.5" y="-129.28" font-family="Times,serif" font-size="9.00">Pellet Down</text>
</g>
<!-- Pellet Down&#45;&gt;Move Left -->
<g id="edge20" class="edge">
<title>Pellet Down&#45;&gt;Move Left</title>
<path fill="none" stroke="red" stroke-width="0.26" d="M333.14,-122.93C350.45,-111.08 382.29,-89.29 407.99,-71.7"/>
<polygon fill="red" stroke="red" stroke-width="0.26" points="409.85,-74.67 416.13,-66.13 405.9,-68.89 409.85,-74.67"/>
</g>
<!-- Move Down -->
<g id="node21" class="node">
<title>Move Down</title>
<ellipse fill="lightblue" stroke="black" cx="184.5" cy="-43.66" rx="43.66" ry="43.66"/>
<text text-anchor="middle" x="184.5" y="-40.36" font-family="Times,serif" font-size="9.00">Move Down</text>
</g>
<!-- Pellet Down&#45;&gt;Move Down -->
<g id="edge3" class="edge">
<title>Pellet Down&#45;&gt;Move Down</title>
<path fill="none" stroke="red" stroke-width="0.11" d="M306.96,-122.93C289.08,-111.5 256.69,-90.8 229.71,-73.56"/>
<polygon fill="red" stroke="red" stroke-width="0.11" points="231.62,-70.62 221.31,-68.19 227.85,-76.52 231.62,-70.62"/>
</g>
<!-- Power Pellet Right -->
<g id="node5" class="node">
<title>Power Pellet Right</title>
<polygon fill="lightblue" stroke="black" points="710.88,-141.83 628.12,-141.83 628.12,-123.33 710.88,-123.33 710.88,-141.83"/>
<text text-anchor="middle" x="669.5" y="-129.28" font-family="Times,serif" font-size="9.00">Power Pellet Right</text>
</g>
<!-- Power Pellet Right&#45;&gt;Move Right -->
<g id="edge10" class="edge">
<title>Power Pellet Right&#45;&gt;Move Right</title>
<path fill="none" stroke="red" stroke-width="0.23" d="M686.72,-122.93C712.09,-110.18 760.41,-85.91 796.53,-67.76"/>
<polygon fill="red" stroke="red" stroke-width="0.23" points="797.76,-71.06 805.12,-63.44 794.62,-64.8 797.76,-71.06"/>
</g>
<!-- Power Pellet Left -->
<g id="node6" class="node">
<title>Power Pellet Left</title>
<polygon fill="lightblue" stroke="black" points="174.25,-141.83 96.75,-141.83 96.75,-123.33 174.25,-123.33 174.25,-141.83"/>
<text text-anchor="middle" x="135.5" y="-129.28" font-family="Times,serif" font-size="9.00">Power Pellet Left</text>
</g>
<!-- Power Pellet Left&#45;&gt;Move Down -->
<g id="edge11" class="edge">
<title>Power Pellet Left&#45;&gt;Move Down</title>
<path fill="none" stroke="red" stroke-width="0.34" d="M140.38,-122.93C144.7,-115.26 151.38,-103.41 158.24,-91.24"/>
<polygon fill="red" stroke="red" stroke-width="0.34" points="161.13,-93.25 162.99,-82.82 155.03,-89.81 161.13,-93.25"/>
</g>
<!-- Power Pellet Up -->
<g id="node7" class="node">
<title>Power Pellet Up</title>
<polygon fill="lightblue" stroke="black" points="442.75,-141.83 368.25,-141.83 368.25,-123.33 442.75,-123.33 442.75,-141.83"/>
<text text-anchor="middle" x="405.5" y="-129.28" font-family="Times,serif" font-size="9.00">Power Pellet Up</text>
</g>
<!-- Power Pellet Up&#45;&gt;Move Left -->
<g id="edge4" class="edge">
<title>Power Pellet Up&#45;&gt;Move Left</title>
<path fill="none" stroke="green" stroke-width="0.23" stroke-dasharray="1,5" d="M409.68,-122.93C413.76,-114.48 420.28,-100.98 426.77,-87.56"/>
<polygon fill="green" stroke="green" stroke-width="0.23" points="429.88,-89.17 431.08,-78.64 423.58,-86.12 429.88,-89.17"/>
</g>
<!-- Power Pellet Down -->
<g id="node8" class="node">
<title>Power Pellet Down</title>
<polygon fill="lightblue" stroke="black" points="1218.38,-141.83 1132.62,-141.83 1132.62,-123.33 1218.38,-123.33 1218.38,-141.83"/>
<text text-anchor="middle" x="1175.5" y="-129.28" font-family="Times,serif" font-size="9.00">Power Pellet Down</text>
</g>
<!-- Ghost Info Right -->
<g id="node9" class="node">
<title>Ghost Info Right</title>
<polygon fill="lightblue" stroke="black" points="1312.88,-141.83 1236.12,-141.83 1236.12,-123.33 1312.88,-123.33 1312.88,-141.83"/>
<text text-anchor="middle" x="1274.5" y="-129.28" font-family="Times,serif" font-size="9.00">Ghost Info Right</text>
</g>
<!-- Ghost Info Left -->
<g id="node10" class="node">
<title>Ghost Info Left</title>
<polygon fill="lightblue" stroke="black" points="1114.25,-141.83 1042.75,-141.83 1042.75,-123.33 1114.25,-123.33 1114.25,-141.83"/>
<text text-anchor="middle" x="1078.5" y="-129.28" font-family="Times,serif" font-size="9.00">Ghost Info Left</text>
</g>
<!-- Ghost Info Left&#45;&gt;Move Up -->
<g id="edge5" class="edge">
<title>Ghost Info Left&#45;&gt;Move Up</title>
<path fill="none" stroke="green" stroke-width="0.32" stroke-dasharray="1,5" d="M1064.46,-122.93C1044.14,-110.4 1005.74,-86.73 976.47,-68.69"/>
<polygon fill="green" stroke="green" stroke-width="0.32" points="978.48,-65.81 968.13,-63.54 974.8,-71.77 978.48,-65.81"/>
</g>
<!-- Ghost Info Up -->
<g id="node11" class="node">
<title>Ghost Info Up</title>
<polygon fill="lightblue" stroke="black" points="797.75,-141.83 729.25,-141.83 729.25,-123.33 797.75,-123.33 797.75,-141.83"/>
<text text-anchor="middle" x="763.5" y="-129.28" font-family="Times,serif" font-size="9.00">Ghost Info Up</text>
</g>
<!-- Ghost Info Up&#45;&gt;Move Right -->
<g id="edge6" class="edge">
<title>Ghost Info Up&#45;&gt;Move Right</title>
<path fill="none" stroke="red" stroke-width="0.14" stroke-dasharray="1,5" d="M771.36,-122.93C780.02,-113.41 794.52,-97.46 808.17,-82.43"/>
<polygon fill="red" stroke="red" stroke-width="0.14" points="810.5,-85.07 814.64,-75.32 805.32,-80.36 810.5,-85.07"/>
</g>
<!-- Ghost Info Down -->
<g id="node12" class="node">
<title>Ghost Info Down</title>
<polygon fill="lightblue" stroke="black" points="272.38,-141.83 192.62,-141.83 192.62,-123.33 272.38,-123.33 272.38,-141.83"/>
<text text-anchor="middle" x="232.5" y="-129.28" font-family="Times,serif" font-size="9.00">Ghost Info Down</text>
</g>
<!-- Ghost Info Down&#45;&gt;Move Left -->
<g id="edge13" class="edge">
<title>Ghost Info Down&#45;&gt;Move Left</title>
<path fill="none" stroke="green" stroke-width="0.2" stroke-dasharray="1,5" d="M253.9,-122.93C288.51,-108.94 357.47,-81.06 403.05,-62.63"/>
<polygon fill="green" stroke="green" stroke-width="0.2" points="404.17,-65.96 412.12,-58.96 401.54,-59.47 404.17,-65.96"/>
</g>
<!-- Ghost Info Down&#45;&gt;Move Down -->
<g id="edge7" class="edge">
<title>Ghost Info Down&#45;&gt;Move Down</title>
<path fill="none" stroke="green" stroke-width="0.46" stroke-dasharray="1,5" d="M227.72,-122.93C223.53,-115.33 217.07,-103.64 210.42,-91.59"/>
<polygon fill="green" stroke="green" stroke-width="0.46" points="213.56,-90.04 205.66,-82.98 207.43,-93.42 213.56,-90.04"/>
</g>
<!-- PAC&#45;MAN Right -->
<g id="node13" class="node">
<title>PAC&#45;MAN Right</title>
<polygon fill="lightblue" stroke="black" points="79,-141.83 0,-141.83 0,-123.33 79,-123.33 79,-141.83"/>
<text text-anchor="middle" x="39.5" y="-129.28" font-family="Times,serif" font-size="9.00">PAC&#45;MAN Right</text>
</g>
<!-- PAC&#45;MAN Right&#45;&gt;Move Down -->
<g id="edge12" class="edge">
<title>PAC&#45;MAN Right&#45;&gt;Move Down</title>
<path fill="none" stroke="green" stroke-width="0.29" stroke-dasharray="1,5" d="M53.93,-122.93C73.47,-111.21 109.25,-89.77 138.42,-72.28"/>
<polygon fill="green" stroke="green" stroke-width="0.29" points="140.08,-75.37 146.86,-67.23 136.48,-69.37 140.08,-75.37"/>
</g>
<!-- PAC&#45;MAN Left -->
<g id="node14" class="node">
<title>PAC&#45;MAN Left</title>
<polygon fill="lightblue" stroke="black" points="1404.38,-141.83 1330.62,-141.83 1330.62,-123.33 1404.38,-123.33 1404.38,-141.83"/>
<text text-anchor="middle" x="1367.5" y="-129.28" font-family="Times,serif" font-size="9.00">PAC&#45;MAN Left</text>
</g>
<!-- PAC&#45;MAN Up -->
<g id="node15" class="node">
<title>PAC&#45;MAN Up</title>
<polygon fill="lightblue" stroke="black" points="886.88,-141.83 816.12,-141.83 816.12,-123.33 886.88,-123.33 886.88,-141.83"/>
<text text-anchor="middle" x="851.5" y="-129.28" font-family="Times,serif" font-size="9.00">PAC&#45;MAN Up</text>
</g>
<!-- PAC&#45;MAN Up&#45;&gt;Move Right -->
<g id="edge14" class="edge">
<title>PAC&#45;MAN Up&#45;&gt;Move Right</title>
<path fill="none" stroke="red" stroke-width="0.15" d="M850.6,-122.93C849.9,-116.09 848.84,-105.93 847.73,-95.19"/>
<polygon fill="red" stroke="red" stroke-width="0.15" points="851.24,-95.04 846.72,-85.46 844.27,-95.76 851.24,-95.04"/>
</g>
<!-- PAC&#45;MAN Up&#45;&gt;Move Left -->
<g id="edge8" class="edge">
<title>PAC&#45;MAN Up&#45;&gt;Move Left</title>
<path fill="none" stroke="red" stroke-width="0.32" d="M815.65,-123.86C742.59,-108.15 576.5,-72.42 494.74,-54.83"/>
<polygon fill="red" stroke="red" stroke-width="0.32" points="495.71,-51.46 485.2,-52.77 494.24,-58.3 495.71,-51.46"/>
</g>
<!-- PAC&#45;MAN Up&#45;&gt;Move Up -->
<g id="edge18" class="edge">
<title>PAC&#45;MAN Up&#45;&gt;Move Up</title>
<path fill="none" stroke="red" stroke-width="0.15" d="M860.06,-122.93C870.69,-112.18 889.43,-93.24 905.81,-76.69"/>
<polygon fill="red" stroke="red" stroke-width="0.15" points="907.95,-79.51 912.49,-69.94 902.97,-74.58 907.95,-79.51"/>
</g>
<!-- PACM&#45;MAN Down -->
<g id="node16" class="node">
<title>PACM&#45;MAN Down</title>
<polygon fill="lightblue" stroke="black" points="1512.62,-141.83 1422.38,-141.83 1422.38,-123.33 1512.62,-123.33 1512.62,-141.83"/>
<text text-anchor="middle" x="1467.5" y="-129.28" font-family="Times,serif" font-size="9.00">PACM&#45;MAN Down</text>
</g>
<!-- Power&#45;Up Time -->
<g id="node17" class="node">
<title>Power&#45;Up Time</title>
<polygon fill="lightblue" stroke="black" points="610.38,-141.83 536.62,-141.83 536.62,-123.33 610.38,-123.33 610.38,-141.83"/>
<text text-anchor="middle" x="573.5" y="-129.28" font-family="Times,serif" font-size="9.00">Power&#45;Up Time</text>
</g>
<!-- Power&#45;Up Time&#45;&gt;Move Left -->
<g id="edge9" class="edge">
<title>Power&#45;Up Time&#45;&gt;Move Left</title>
<path fill="none" stroke="red" stroke-width="0.37" stroke-dasharray="1,5" d="M560.96,-122.93C543.85,-111.12 512.4,-89.43 486.94,-71.87"/>
<polygon fill="red" stroke="red" stroke-width="0.37" points="489.24,-69.21 479.03,-66.41 485.27,-74.97 489.24,-69.21"/>
</g>
<!-- Power&#45;Up Time&#45;&gt;Move Up -->
<g id="edge19" class="edge">
<title>Power&#45;Up Time&#45;&gt;Move Up</title>
<path fill="none" stroke="green" stroke-width="0.25" d="M610.63,-124.76C613.63,-124.26 616.61,-123.78 619.5,-123.33 740.87,-104.48 782.92,-140.79 893.5,-87.33 898.41,-84.95 903.12,-81.82 907.51,-78.33"/>
<polygon fill="green" stroke="green" stroke-width="0.25" points="909.54,-81.2 914.76,-71.98 904.93,-75.93 909.54,-81.2"/>
</g>
</g>
</svg>
