<?xml version="1.0" encoding="UTF-8" standalone="no"?>
<!DOCTYPE svg PUBLIC "-//W3C//DTD SVG 1.1//EN"
 "http://www.w3.org/Graphics/SVG/1.1/DTD/svg11.dtd">
<!-- Generated by graphviz version 12.0.0 (20240704.0754)
 -->
<!-- Pages: 1 -->
<svg width="1519pt" height="150pt"
 viewBox="0.00 0.00 1518.88 149.83" xmlns="http://www.w3.org/2000/svg" xmlns:xlink="http://www.w3.org/1999/xlink">
<g id="graph0" class="graph" transform="scale(1 1) rotate(0) translate(4 145.83)">
<polygon fill="white" stroke="none" points="-4,4 -4,-145.83 1514.88,-145.83 1514.88,4 -4,4"/>
<!-- Pellet Right -->
<g id="node1" class="node">
<title>Pellet Right</title>
<polygon fill="lightblue" stroke="black" points="792.38,-141.83 735.12,-141.83 735.12,-123.33 792.38,-123.33 792.38,-141.83"/>
<text text-anchor="middle" x="763.75" y="-129.28" font-family="Times,serif" font-size="9.00">Pellet Right</text>
</g>
<!-- Move Right -->
<g id="node18" class="node">
<title>Move Right</title>
<ellipse fill="lightblue" stroke="black" cx="715.75" cy="-43.66" rx="41.54" ry="41.54"/>
<text text-anchor="middle" x="715.75" y="-40.36" font-family="Times,serif" font-size="9.00">Move Right</text>
</g>
<!-- Pellet Right&#45;&gt;Move Right -->
<g id="edge1" class="edge">
<title>Pellet Right&#45;&gt;Move Right</title>
<path fill="none" stroke="green" stroke-width="0.59" d="M758.97,-122.93C754.55,-114.91 747.6,-102.34 740.56,-89.59"/>
<polygon fill="green" stroke="green" stroke-width="0.59" points="743.79,-88.19 735.89,-81.13 737.66,-91.57 743.79,-88.19"/>
</g>
<!-- Move Up -->
<g id="node20" class="node">
<title>Move Up</title>
<ellipse fill="lightblue" stroke="black" cx="619.75" cy="-43.66" rx="35.71" ry="35.71"/>
<text text-anchor="middle" x="619.75" y="-40.36" font-family="Times,serif" font-size="9.00">Move Up</text>
</g>
<!-- Pellet Right&#45;&gt;Move Up -->
<g id="edge2" class="edge">
<title>Pellet Right&#45;&gt;Move Up</title>
<path fill="none" stroke="green" stroke-width="0.21" d="M738.12,-122.87C717.38,-115.19 687.91,-102.82 664.75,-87.33 660.16,-84.26 655.61,-80.71 651.26,-77"/>
<polygon fill="green" stroke="green" stroke-width="0.21" points="653.71,-74.49 643.93,-70.41 649.03,-79.7 653.71,-74.49"/>
</g>
<!-- Move Down -->
<g id="node21" class="node">
<title>Move Down</title>
<ellipse fill="lightblue" stroke="black" cx="1190.75" cy="-43.66" rx="43.66" ry="43.66"/>
<text text-anchor="middle" x="1190.75" y="-40.36" font-family="Times,serif" font-size="9.00">Move Down</text>
</g>
<!-- Pellet Right&#45;&gt;Move Down -->
<g id="edge3" class="edge">
<title>Pellet Right&#45;&gt;Move Down</title>
<path fill="none" stroke="green" stroke-width="0.46" stroke-dasharray="1,5" d="M792.79,-125.23C795.81,-124.58 798.84,-123.94 801.75,-123.33 921.71,-98.18 1062.78,-70 1137.7,-55.14"/>
<polygon fill="green" stroke="green" stroke-width="0.46" points="1138.01,-58.65 1147.14,-53.27 1136.65,-51.78 1138.01,-58.65"/>
</g>
<!-- Pellet Left -->
<g id="node2" class="node">
<title>Pellet Left</title>
<polygon fill="lightblue" stroke="black" points="1340.75,-141.83 1288.75,-141.83 1288.75,-123.33 1340.75,-123.33 1340.75,-141.83"/>
<text text-anchor="middle" x="1314.75" y="-129.28" font-family="Times,serif" font-size="9.00">Pellet Left</text>
</g>
<!-- Move Left -->
<g id="node19" class="node">
<title>Move Left</title>
<ellipse fill="lightblue" stroke="black" cx="896.75" cy="-43.66" rx="37.83" ry="37.83"/>
<text text-anchor="middle" x="896.75" y="-40.36" font-family="Times,serif" font-size="9.00">Move Left</text>
</g>
<!-- Pellet Left&#45;&gt;Move Left -->
<g id="edge4" class="edge">
<title>Pellet Left&#45;&gt;Move Left</title>
<path fill="none" stroke="red" stroke-width="0.23" d="M1288.4,-125.28C1285.48,-124.61 1282.55,-123.95 1279.75,-123.33 1158.98,-96.7 1016.14,-68.13 943.8,-53.87"/>
<polygon fill="red" stroke="red" stroke-width="0.23" points="944.9,-50.52 934.41,-52.02 943.54,-57.39 944.9,-50.52"/>
</g>
<!-- Pellet Left&#45;&gt;Move Up -->
<g id="edge5" class="edge">
<title>Pellet Left&#45;&gt;Move Up</title>
<path fill="none" stroke="green" stroke-width="0.11" d="M1288.47,-124.87C1285.54,-124.27 1282.59,-123.74 1279.75,-123.33 1144.29,-103.55 790.38,-141.72 664.75,-87.33 659.43,-85.03 654.36,-81.81 649.67,-78.16"/>
<polygon fill="green" stroke="green" stroke-width="0.11" points="652.14,-75.67 642.28,-71.8 647.58,-80.98 652.14,-75.67"/>
</g>
<!-- Pellet Left&#45;&gt;Move Down -->
<g id="edge6" class="edge">
<title>Pellet Left&#45;&gt;Move Down</title>
<path fill="none" stroke="red" stroke-width="0.12" stroke-dasharray="1,5" d="M1302.41,-122.93C1286.68,-111.9 1258.65,-92.26 1234.61,-75.41"/>
<polygon fill="red" stroke="red" stroke-width="0.12" points="1236.65,-72.56 1226.45,-69.69 1232.63,-78.29 1236.65,-72.56"/>
</g>
<!-- Pellet Up -->
<g id="node3" class="node">
<title>Pellet Up</title>
<polygon fill="lightblue" stroke="black" points="521.25,-141.83 472.25,-141.83 472.25,-123.33 521.25,-123.33 521.25,-141.83"/>
<text text-anchor="middle" x="496.75" y="-129.28" font-family="Times,serif" font-size="9.00">Pellet Up</text>
</g>
<!-- Pellet Up&#45;&gt;Move Right -->
<g id="edge7" class="edge">
<title>Pellet Up&#45;&gt;Move Right</title>
<path fill="none" stroke="green" stroke-width="0.13" d="M521.44,-125.38C566.56,-114 658.3,-90.66 664.75,-87.33 669.25,-85 673.7,-82.22 678,-79.21"/>
<polygon fill="green" stroke="green" stroke-width="0.13" points="679.97,-82.1 685.87,-73.3 675.77,-76.5 679.97,-82.1"/>
</g>
<!-- Pellet Up&#45;&gt;Move Left -->
<g id="edge8" class="edge">
<title>Pellet Up&#45;&gt;Move Left</title>
<path fill="none" stroke="green" stroke-width="0.26" stroke-dasharray="1,5" d="M521.58,-125.29C524.66,-124.59 527.77,-123.92 530.75,-123.33 634.85,-102.8 663.55,-111.95 766.75,-87.33 795.51,-80.46 827.04,-70.19 851.84,-61.44"/>
<polygon fill="green" stroke="green" stroke-width="0.26" points="852.73,-64.84 860.97,-58.18 850.37,-58.25 852.73,-64.84"/>
</g>
<!-- Pellet Up&#45;&gt;Move Up -->
<g id="edge9" class="edge">
<title>Pellet Up&#45;&gt;Move Up</title>
<path fill="none" stroke="green" stroke-width="1.02" d="M508.99,-122.93C525.75,-111.09 556.59,-89.3 581.48,-71.71"/>
<polygon fill="green" stroke="green" stroke-width="1.02" points="583.27,-74.73 589.42,-66.1 579.23,-69.01 583.27,-74.73"/>
</g>
<!-- Pellet Down -->
<g id="node4" class="node">
<title>Pellet Down</title>
<polygon fill="lightblue" stroke="black" points="1510.88,-141.83 1450.62,-141.83 1450.62,-123.33 1510.88,-123.33 1510.88,-141.83"/>
<text text-anchor="middle" x="1480.75" y="-129.28" font-family="Times,serif" font-size="9.00">Pellet Down</text>
</g>
<!-- Pellet Down&#45;&gt;Move Right -->
<g id="edge10" class="edge">
<title>Pellet Down&#45;&gt;Move Right</title>
<path fill="none" stroke="red" stroke-width="0.56" d="M1450.17,-124.66C1447.33,-124.16 1444.49,-123.7 1441.75,-123.33 1180.54,-87.95 1108.87,-135.68 849.75,-87.33 820.85,-81.93 789.49,-72.18 764.38,-63.35"/>
<polygon fill="red" stroke="red" stroke-width="0.56" points="765.78,-60.14 755.19,-60.06 763.42,-66.73 765.78,-60.14"/>
</g>
<!-- Pellet Down&#45;&gt;Move Left -->
<g id="edge11" class="edge">
<title>Pellet Down&#45;&gt;Move Left</title>
<path fill="none" stroke="red" stroke-width="0.36" stroke-dasharray="1,5" d="M1450.14,-124.83C1447.31,-124.29 1444.48,-123.78 1441.75,-123.33 1307.5,-101.23 1272.35,-107.19 1137.75,-87.33 1070.2,-77.36 992.48,-63.09 943.99,-53.85"/>
<polygon fill="red" stroke="red" stroke-width="0.36" points="944.81,-50.45 934.33,-52.01 943.5,-57.32 944.81,-50.45"/>
</g>
<!-- Pellet Down&#45;&gt;Move Down -->
<g id="edge12" class="edge">
<title>Pellet Down&#45;&gt;Move Down</title>
<path fill="none" stroke="green" stroke-width="0.16" d="M1451.62,-122.85C1402.63,-108.17 1303.18,-78.36 1242.21,-60.09"/>
<polygon fill="green" stroke="green" stroke-width="0.16" points="1243.22,-56.74 1232.63,-57.22 1241.21,-63.44 1243.22,-56.74"/>
</g>
<!-- Power Pellet Right -->
<g id="node5" class="node">
<title>Power Pellet Right</title>
<polygon fill="lightblue" stroke="black" points="622.12,-141.83 539.38,-141.83 539.38,-123.33 622.12,-123.33 622.12,-141.83"/>
<text text-anchor="middle" x="580.75" y="-129.28" font-family="Times,serif" font-size="9.00">Power Pellet Right</text>
</g>
<!-- Power Pellet Right&#45;&gt;Move Right -->
<g id="edge13" class="edge">
<title>Power Pellet Right&#45;&gt;Move Right</title>
<path fill="none" stroke="green" stroke-width="0.4" d="M600.09,-122.83C617.55,-114.61 643.67,-101.47 664.75,-87.33 668.79,-84.62 672.89,-81.64 676.9,-78.56"/>
<polygon fill="green" stroke="green" stroke-width="0.4" points="678.87,-81.47 684.54,-72.52 674.52,-75.99 678.87,-81.47"/>
</g>
<!-- Power Pellet Right&#45;&gt;Move Left -->
<g id="edge14" class="edge">
<title>Power Pellet Right&#45;&gt;Move Left</title>
<path fill="none" stroke="red" stroke-width="0.2" d="M621.64,-122.88C659.5,-114.59 717.24,-101.32 766.75,-87.33 795.2,-79.29 826.72,-68.98 851.6,-60.51"/>
<polygon fill="red" stroke="red" stroke-width="0.2" points="852.51,-63.9 860.84,-57.34 850.24,-57.28 852.51,-63.9"/>
</g>
<!-- Power Pellet Right&#45;&gt;Move Up -->
<g id="edge15" class="edge">
<title>Power Pellet Right&#45;&gt;Move Up</title>
<path fill="none" stroke="red" stroke-width="0.49" d="M584.63,-122.93C588.55,-114.2 594.88,-100.09 601.1,-86.22"/>
<polygon fill="red" stroke="red" stroke-width="0.49" points="604.15,-87.97 605.05,-77.42 597.77,-85.11 604.15,-87.97"/>
</g>
<!-- Power Pellet Left -->
<g id="node6" class="node">
<title>Power Pellet Left</title>
<polygon fill="lightblue" stroke="black" points="717.5,-141.83 640,-141.83 640,-123.33 717.5,-123.33 717.5,-141.83"/>
<text text-anchor="middle" x="678.75" y="-129.28" font-family="Times,serif" font-size="9.00">Power Pellet Left</text>
</g>
<!-- Power Pellet Left&#45;&gt;Move Right -->
<g id="edge16" class="edge">
<title>Power Pellet Left&#45;&gt;Move Right</title>
<path fill="none" stroke="green" stroke-width="0.18" d="M682.43,-122.93C685.67,-115.33 690.64,-103.64 695.77,-91.59"/>
<polygon fill="green" stroke="green" stroke-width="0.18" points="698.89,-93.2 699.59,-82.63 692.45,-90.46 698.89,-93.2"/>
</g>
<!-- Power Pellet Left&#45;&gt;Move Left -->
<g id="edge17" class="edge">
<title>Power Pellet Left&#45;&gt;Move Left</title>
<path fill="none" stroke="red" stroke-width="0.39" stroke-dasharray="1,5" d="M700.45,-122.93C735.57,-108.93 805.57,-81.02 851.79,-62.59"/>
<polygon fill="red" stroke="red" stroke-width="0.39" points="853.01,-65.87 861.01,-58.91 850.42,-59.37 853.01,-65.87"/>
</g>
<!-- Power Pellet Left&#45;&gt;Move Up -->
<g id="edge18" class="edge">
<title>Power Pellet Left&#45;&gt;Move Up</title>
<path fill="none" stroke="red" stroke-width="0.88" d="M672.88,-122.93C666.46,-113.47 655.73,-97.66 645.58,-82.72"/>
<polygon fill="red" stroke="red" stroke-width="0.88" points="648.64,-81 640.13,-74.69 642.85,-84.93 648.64,-81"/>
</g>
<!-- Power Pellet Up -->
<g id="node7" class="node">
<title>Power Pellet Up</title>
<polygon fill="lightblue" stroke="black" points="164,-141.83 89.5,-141.83 89.5,-123.33 164,-123.33 164,-141.83"/>
<text text-anchor="middle" x="126.75" y="-129.28" font-family="Times,serif" font-size="9.00">Power Pellet Up</text>
</g>
<!-- Power Pellet Up&#45;&gt;Move Right -->
<g id="edge19" class="edge">
<title>Power Pellet Up&#45;&gt;Move Right</title>
<path fill="none" stroke="red" stroke-width="0.46" d="M164.36,-124.5C167.19,-124.07 170.01,-123.67 172.75,-123.33 281.52,-109.63 563.14,-128.48 664.75,-87.33 669.39,-85.45 673.92,-82.98 678.24,-80.18"/>
<polygon fill="red" stroke="red" stroke-width="0.46" points="680.15,-83.12 686.24,-74.45 676.07,-77.43 680.15,-83.12"/>
</g>
<!-- Power Pellet Up&#45;&gt;Move Up -->
<g id="edge20" class="edge">
<title>Power Pellet Up&#45;&gt;Move Up</title>
<path fill="none" stroke="red" stroke-width="0.51" stroke-dasharray="1,5" d="M164.4,-124.81C167.23,-124.31 170.03,-123.81 172.75,-123.33 319.39,-97.27 493.17,-66.81 574.07,-52.65"/>
<polygon fill="red" stroke="red" stroke-width="0.51" points="574.39,-56.15 583.64,-50.98 573.18,-49.25 574.39,-56.15"/>
</g>
<!-- Power Pellet Down -->
<g id="node8" class="node">
<title>Power Pellet Down</title>
<polygon fill="lightblue" stroke="black" points="267.62,-141.83 181.88,-141.83 181.88,-123.33 267.62,-123.33 267.62,-141.83"/>
<text text-anchor="middle" x="224.75" y="-129.28" font-family="Times,serif" font-size="9.00">Power Pellet Down</text>
</g>
<!-- Power Pellet Down&#45;&gt;Move Right -->
<g id="edge21" class="edge">
<title>Power Pellet Down&#45;&gt;Move Right</title>
<path fill="none" stroke="red" stroke-width="0.46" d="M267.85,-124.52C270.86,-124.09 273.85,-123.69 276.75,-123.33 448.59,-101.75 504.87,-153.9 664.75,-87.33 669.37,-85.4 673.89,-82.91 678.2,-80.09"/>
<polygon fill="red" stroke="red" stroke-width="0.46" points="680.12,-83.03 686.19,-74.34 676.03,-77.35 680.12,-83.03"/>
</g>
<!-- Power Pellet Down&#45;&gt;Move Left -->
<g id="edge22" class="edge">
<title>Power Pellet Down&#45;&gt;Move Left</title>
<path fill="none" stroke="red" stroke-width="0.1" d="M268.12,-124.42C271.04,-124.02 273.94,-123.65 276.75,-123.33 493.66,-98.2 552.53,-129.69 766.75,-87.33 795.86,-81.57 827.51,-71.27 852.3,-62.24"/>
<polygon fill="red" stroke="red" stroke-width="0.1" points="853.48,-65.53 861.64,-58.77 851.05,-58.97 853.48,-65.53"/>
</g>
<!-- Power Pellet Down&#45;&gt;Move Up -->
<g id="edge23" class="edge">
<title>Power Pellet Down&#45;&gt;Move Up</title>
<path fill="none" stroke="red" stroke-width="0.34" stroke-dasharray="1,5" d="M264.43,-122.85C338.39,-106.57 496.83,-71.71 574.69,-54.58"/>
<polygon fill="red" stroke="red" stroke-width="0.34" points="575.16,-58.06 584.18,-52.49 573.66,-51.22 575.16,-58.06"/>
</g>
<!-- Ghost Info Right -->
<g id="node9" class="node">
<title>Ghost Info Right</title>
<polygon fill="lightblue" stroke="black" points="1184.12,-141.83 1107.38,-141.83 1107.38,-123.33 1184.12,-123.33 1184.12,-141.83"/>
<text text-anchor="middle" x="1145.75" y="-129.28" font-family="Times,serif" font-size="9.00">Ghost Info Right</text>
</g>
<!-- Ghost Info Right&#45;&gt;Move Right -->
<g id="edge24" class="edge">
<title>Ghost Info Right&#45;&gt;Move Right</title>
<path fill="none" stroke="red" stroke-width="0.19" d="M1106.99,-124.83C1103.87,-124.31 1100.76,-123.8 1097.75,-123.33 987.75,-105.89 958.29,-112.31 849.75,-87.33 821.08,-80.73 789.71,-70.89 764.53,-62.32"/>
<polygon fill="red" stroke="red" stroke-width="0.19" points="765.72,-59.03 755.12,-59.08 763.44,-65.65 765.72,-59.03"/>
</g>
<!-- Ghost Info Right&#45;&gt;Move Left -->
<g id="edge25" class="edge">
<title>Ghost Info Right&#45;&gt;Move Left</title>
<path fill="none" stroke="red" stroke-width="0.27" d="M1120.96,-122.93C1079.36,-108.4 994.89,-78.92 942.33,-60.58"/>
<polygon fill="red" stroke="red" stroke-width="0.27" points="943.56,-57.3 932.97,-57.31 941.26,-63.91 943.56,-57.3"/>
</g>
<!-- Ghost Info Right&#45;&gt;Move Up -->
<g id="edge26" class="edge">
<title>Ghost Info Right&#45;&gt;Move Up</title>
<path fill="none" stroke="green" stroke-width="0.43" d="M1107.02,-124.62C1103.89,-124.15 1100.77,-123.71 1097.75,-123.33 1001.97,-111.14 752.88,-126.77 664.75,-87.33 659.59,-85.02 654.66,-81.86 650.07,-78.3"/>
<polygon fill="green" stroke="green" stroke-width="0.43" points="652.58,-75.85 642.71,-71.99 648.02,-81.16 652.58,-75.85"/>
</g>
<!-- Ghost Info Right&#45;&gt;Move Down -->
<g id="edge27" class="edge">
<title>Ghost Info Right&#45;&gt;Move Down</title>
<path fill="none" stroke="green" stroke-width="0.3" stroke-dasharray="1,5" d="M1150.23,-122.93C1154.13,-115.4 1160.11,-103.85 1166.28,-91.92"/>
<polygon fill="green" stroke="green" stroke-width="0.3" points="1169.32,-93.68 1170.81,-83.19 1163.1,-90.46 1169.32,-93.68"/>
</g>
<!-- Ghost Info Left -->
<g id="node10" class="node">
<title>Ghost Info Left</title>
<polygon fill="lightblue" stroke="black" points="71.5,-141.83 0,-141.83 0,-123.33 71.5,-123.33 71.5,-141.83"/>
<text text-anchor="middle" x="35.75" y="-129.28" font-family="Times,serif" font-size="9.00">Ghost Info Left</text>
</g>
<!-- Ghost Info Left&#45;&gt;Move Right -->
<g id="edge28" class="edge">
<title>Ghost Info Left&#45;&gt;Move Right</title>
<path fill="none" stroke="red" stroke-width="0.21" d="M71.55,-124.61C74.66,-124.13 77.75,-123.69 80.75,-123.33 209.82,-107.58 543.96,-135.45 664.75,-87.33 669.52,-85.43 674.17,-82.9 678.6,-80.02"/>
<polygon fill="red" stroke="red" stroke-width="0.21" points="680.49,-82.98 686.57,-74.3 676.41,-77.29 680.49,-82.98"/>
</g>
<!-- Ghost Info Left&#45;&gt;Move Up -->
<g id="edge29" class="edge">
<title>Ghost Info Left&#45;&gt;Move Up</title>
<path fill="none" stroke="green" stroke-width="0.59" d="M71.59,-124.89C74.69,-124.34 77.77,-123.82 80.75,-123.33 262.55,-93.41 479.82,-63.47 573.27,-50.87"/>
<polygon fill="green" stroke="green" stroke-width="0.59" points="573.72,-54.34 583.16,-49.54 572.79,-47.4 573.72,-54.34"/>
</g>
<!-- Ghost Info Up -->
<g id="node11" class="node">
<title>Ghost Info Up</title>
<polygon fill="lightblue" stroke="black" points="1271,-141.83 1202.5,-141.83 1202.5,-123.33 1271,-123.33 1271,-141.83"/>
<text text-anchor="middle" x="1236.75" y="-129.28" font-family="Times,serif" font-size="9.00">Ghost Info Up</text>
</g>
<!-- Ghost Info Up&#45;&gt;Move Right -->
<g id="edge30" class="edge">
<title>Ghost Info Up&#45;&gt;Move Right</title>
<path fill="none" stroke="green" stroke-width="0.16" d="M1202.21,-124.83C1199.02,-124.29 1195.83,-123.78 1192.75,-123.33 1041.08,-101.19 999.78,-118.74 849.75,-87.33 820.72,-81.25 789.07,-71.33 763.82,-62.59"/>
<polygon fill="green" stroke="green" stroke-width="0.16" points="765.3,-59.4 754.7,-59.39 762.98,-66 765.3,-59.4"/>
</g>
<!-- Ghost Info Up&#45;&gt;Move Left -->
<g id="edge31" class="edge">
<title>Ghost Info Up&#45;&gt;Move Left</title>
<path fill="none" stroke="red" stroke-width="0.12" stroke-dasharray="1,5" d="M1202.59,-122.85C1141.28,-107.17 1012.51,-74.25 943.22,-56.54"/>
<polygon fill="red" stroke="red" stroke-width="0.12" points="944.18,-53.17 933.62,-54.09 942.44,-59.96 944.18,-53.17"/>
</g>
<!-- Ghost Info Up&#45;&gt;Move Up -->
<g id="edge32" class="edge">
<title>Ghost Info Up&#45;&gt;Move Up</title>
<path fill="none" stroke="green" stroke-width="0.62" d="M1202.22,-124.71C1199.03,-124.19 1195.83,-123.72 1192.75,-123.33 1076.09,-108.47 772.45,-134.57 664.75,-87.33 659.7,-85.11 654.88,-82.08 650.38,-78.64"/>
<polygon fill="green" stroke="green" stroke-width="0.62" points="652.77,-76.08 642.89,-72.25 648.22,-81.4 652.77,-76.08"/>
</g>
<!-- Ghost Info Up&#45;&gt;Move Down -->
<g id="edge33" class="edge">
<title>Ghost Info Up&#45;&gt;Move Down</title>
<path fill="none" stroke="red" stroke-width="0.27" d="M1232.17,-122.93C1228.19,-115.4 1222.08,-103.85 1215.76,-91.92"/>
<polygon fill="red" stroke="red" stroke-width="0.27" points="1218.88,-90.33 1211.11,-83.13 1212.69,-93.61 1218.88,-90.33"/>
</g>
<!-- Ghost Info Down -->
<g id="node12" class="node">
<title>Ghost Info Down</title>
<polygon fill="lightblue" stroke="black" points="365.62,-141.83 285.88,-141.83 285.88,-123.33 365.62,-123.33 365.62,-141.83"/>
<text text-anchor="middle" x="325.75" y="-129.28" font-family="Times,serif" font-size="9.00">Ghost Info Down</text>
</g>
<!-- Ghost Info Down&#45;&gt;Move Right -->
<g id="edge34" class="edge">
<title>Ghost Info Down&#45;&gt;Move Right</title>
<path fill="none" stroke="green" stroke-width="0.18" stroke-dasharray="1,5" d="M366.1,-124.64C369.03,-124.18 371.93,-123.74 374.75,-123.33 503.26,-104.54 545.64,-139.11 664.75,-87.33 669.46,-85.28 674.07,-82.66 678.48,-79.72"/>
<polygon fill="green" stroke="green" stroke-width="0.18" points="680.43,-82.63 686.45,-73.91 676.31,-76.97 680.43,-82.63"/>
</g>
<!-- Ghost Info Down&#45;&gt;Move Left -->
<g id="edge35" class="edge">
<title>Ghost Info Down&#45;&gt;Move Left</title>
<path fill="none" stroke="green" stroke-width="0.21" d="M366.09,-124.54C369.02,-124.1 371.93,-123.69 374.75,-123.33 548.25,-100.79 595.43,-122.83 766.75,-87.33 795.7,-81.33 827.24,-71.08 851.99,-62.13"/>
<polygon fill="green" stroke="green" stroke-width="0.21" points="852.99,-65.49 861.17,-58.75 850.58,-58.92 852.99,-65.49"/>
</g>
<!-- Ghost Info Down&#45;&gt;Move Up -->
<g id="edge36" class="edge">
<title>Ghost Info Down&#45;&gt;Move Up</title>
<path fill="none" stroke="red" stroke-width="0.14" d="M355.29,-122.85C407.29,-107.47 515.41,-75.51 576.07,-57.58"/>
<polygon fill="red" stroke="red" stroke-width="0.14" points="576.94,-60.97 585.54,-54.78 574.95,-54.26 576.94,-60.97"/>
</g>
<!-- PAC&#45;MAN Right -->
<g id="node13" class="node">
<title>PAC&#45;MAN Right</title>
<polygon fill="lightblue" stroke="black" points="889.25,-141.83 810.25,-141.83 810.25,-123.33 889.25,-123.33 889.25,-141.83"/>
<text text-anchor="middle" x="849.75" y="-129.28" font-family="Times,serif" font-size="9.00">PAC&#45;MAN Right</text>
</g>
<!-- PAC&#45;MAN Right&#45;&gt;Move Right -->
<g id="edge37" class="edge">
<title>PAC&#45;MAN Right&#45;&gt;Move Right</title>
<path fill="none" stroke="red" stroke-width="0.17" d="M836.41,-122.93C818.49,-111.3 785.79,-90.09 758.95,-72.68"/>
<polygon fill="red" stroke="red" stroke-width="0.17" points="760.98,-69.83 750.68,-67.32 757.17,-75.7 760.98,-69.83"/>
</g>
<!-- PAC&#45;MAN Right&#45;&gt;Move Left -->
<g id="edge38" class="edge">
<title>PAC&#45;MAN Right&#45;&gt;Move Left</title>
<path fill="none" stroke="red" stroke-width="0.27" d="M854.43,-122.93C859.11,-114.26 866.68,-100.27 874.13,-86.5"/>
<polygon fill="red" stroke="red" stroke-width="0.27" points="877.1,-88.35 878.78,-77.89 870.95,-85.02 877.1,-88.35"/>
</g>
<!-- PAC&#45;MAN Right&#45;&gt;Move Up -->
<g id="edge39" class="edge">
<title>PAC&#45;MAN Right&#45;&gt;Move Up</title>
<path fill="none" stroke="red" stroke-width="0.41" d="M809.91,-124.56C763.34,-115.92 689.5,-100.74 664.75,-87.33 660.02,-84.76 655.42,-81.58 651.09,-78.1"/>
<polygon fill="red" stroke="red" stroke-width="0.41" points="653.42,-75.49 643.57,-71.58 648.83,-80.78 653.42,-75.49"/>
</g>
<!-- PAC&#45;MAN Right&#45;&gt;Move Down -->
<g id="edge40" class="edge">
<title>PAC&#45;MAN Right&#45;&gt;Move Down</title>
<path fill="none" stroke="green" stroke-width="0.17" stroke-dasharray="1,5" d="M884.01,-122.85C943.93,-107.57 1068.11,-75.92 1138.71,-57.93"/>
<polygon fill="green" stroke="green" stroke-width="0.17" points="1139.24,-61.41 1148.06,-55.54 1137.51,-54.62 1139.24,-61.41"/>
</g>
<!-- PAC&#45;MAN Left -->
<g id="node14" class="node">
<title>PAC&#45;MAN Left</title>
<polygon fill="lightblue" stroke="black" points="980.62,-141.83 906.88,-141.83 906.88,-123.33 980.62,-123.33 980.62,-141.83"/>
<text text-anchor="middle" x="943.75" y="-129.28" font-family="Times,serif" font-size="9.00">PAC&#45;MAN Left</text>
</g>
<!-- PAC&#45;MAN Left&#45;&gt;Move Right -->
<g id="edge41" class="edge">
<title>PAC&#45;MAN Left&#45;&gt;Move Right</title>
<path fill="none" stroke="green" stroke-width="0.3" d="M921.05,-122.93C884.7,-109.07 812.59,-81.58 764.26,-63.15"/>
<polygon fill="green" stroke="green" stroke-width="0.3" points="765.64,-59.94 755.05,-59.65 763.15,-66.48 765.64,-59.94"/>
</g>
<!-- PAC&#45;MAN Left&#45;&gt;Move Left -->
<g id="edge42" class="edge">
<title>PAC&#45;MAN Left&#45;&gt;Move Left</title>
<path fill="none" stroke="red" stroke-width="0.14" stroke-dasharray="1,5" d="M939.07,-122.93C934.39,-114.26 926.82,-100.27 919.37,-86.5"/>
<polygon fill="red" stroke="red" stroke-width="0.14" points="922.46,-84.86 914.63,-77.72 916.31,-88.19 922.46,-84.86"/>
</g>
<!-- PAC&#45;MAN Up -->
<g id="node15" class="node">
<title>PAC&#45;MAN Up</title>
<polygon fill="lightblue" stroke="black" points="454.12,-141.83 383.38,-141.83 383.38,-123.33 454.12,-123.33 454.12,-141.83"/>
<text text-anchor="middle" x="418.75" y="-129.28" font-family="Times,serif" font-size="9.00">PAC&#45;MAN Up</text>
</g>
<!-- PAC&#45;MAN Up&#45;&gt;Move Right -->
<g id="edge43" class="edge">
<title>PAC&#45;MAN Up&#45;&gt;Move Right</title>
<path fill="none" stroke="red" stroke-width="0.41" stroke-dasharray="1,5" d="M454.29,-124.89C457.15,-124.36 460,-123.83 462.75,-123.33 552.46,-106.92 582.11,-125.88 664.75,-87.33 669.28,-85.21 673.75,-82.59 678.03,-79.69"/>
<polygon fill="red" stroke="red" stroke-width="0.41" points="680.05,-82.55 686.04,-73.8 675.91,-76.91 680.05,-82.55"/>
</g>
<!-- PAC&#45;MAN Up&#45;&gt;Move Left -->
<g id="edge44" class="edge">
<title>PAC&#45;MAN Up&#45;&gt;Move Left</title>
<path fill="none" stroke="green" stroke-width="0.51" d="M454.26,-124.71C457.13,-124.22 459.98,-123.75 462.75,-123.33 597.24,-102.78 633.9,-116.69 766.75,-87.33 795.49,-80.98 826.87,-70.78 851.6,-61.94"/>
<polygon fill="green" stroke="green" stroke-width="0.51" points="852.49,-65.34 860.7,-58.64 850.1,-58.76 852.49,-65.34"/>
</g>
<!-- PAC&#45;MAN Up&#45;&gt;Move Up -->
<g id="edge45" class="edge">
<title>PAC&#45;MAN Up&#45;&gt;Move Up</title>
<path fill="none" stroke="red" stroke-width="0.46" d="M438.76,-122.93C470.84,-109.05 534.51,-81.52 577.12,-63.1"/>
<polygon fill="red" stroke="red" stroke-width="0.46" points="578.51,-66.31 586.3,-59.13 575.73,-59.89 578.51,-66.31"/>
</g>
<!-- PACM&#45;MAN Down -->
<g id="node16" class="node">
<title>PACM&#45;MAN Down</title>
<polygon fill="lightblue" stroke="black" points="1088.88,-141.83 998.62,-141.83 998.62,-123.33 1088.88,-123.33 1088.88,-141.83"/>
<text text-anchor="middle" x="1043.75" y="-129.28" font-family="Times,serif" font-size="9.00">PACM&#45;MAN Down</text>
</g>
<!-- PACM&#45;MAN Down&#45;&gt;Move Right -->
<g id="edge46" class="edge">
<title>PACM&#45;MAN Down&#45;&gt;Move Right</title>
<path fill="none" stroke="red" stroke-width="0.44" stroke-dasharray="1,5" d="M1000.73,-122.85C961.24,-114.58 901.24,-101.37 849.75,-87.33 821.49,-79.62 790.29,-69.77 765.11,-61.47"/>
<polygon fill="red" stroke="red" stroke-width="0.44" points="766.3,-58.18 755.7,-58.35 764.09,-64.82 766.3,-58.18"/>
</g>
<!-- PACM&#45;MAN Down&#45;&gt;Move Left -->
<g id="edge47" class="edge">
<title>PACM&#45;MAN Down&#45;&gt;Move Left</title>
<path fill="none" stroke="red" stroke-width="0.28" d="M1029.12,-122.93C1008.03,-110.46 968.3,-86.97 937.84,-68.96"/>
<polygon fill="red" stroke="red" stroke-width="0.28" points="939.87,-66.09 929.48,-64.01 936.31,-72.12 939.87,-66.09"/>
</g>
<!-- PACM&#45;MAN Down&#45;&gt;Move Up -->
<g id="edge48" class="edge">
<title>PACM&#45;MAN Down&#45;&gt;Move Up</title>
<path fill="none" stroke="red" stroke-width="0.3" d="M998.4,-124.51C995.47,-124.1 992.57,-123.7 989.75,-123.33 845.67,-104.35 796.57,-148.51 664.75,-87.33 659.62,-84.95 654.71,-81.75 650.13,-78.17"/>
<polygon fill="red" stroke="red" stroke-width="0.3" points="652.49,-75.58 642.63,-71.7 647.92,-80.88 652.49,-75.58"/>
</g>
<!-- PACM&#45;MAN Down&#45;&gt;Move Down -->
<g id="edge49" class="edge">
<title>PACM&#45;MAN Down&#45;&gt;Move Down</title>
<path fill="none" stroke="green" stroke-width="0.38" d="M1058.38,-122.93C1078.26,-111.17 1114.71,-89.62 1144.33,-72.11"/>
<polygon fill="green" stroke="green" stroke-width="0.38" points="1145.96,-75.21 1152.79,-67.11 1142.4,-69.19 1145.96,-75.21"/>
</g>
<!-- Power&#45;Up Time -->
<g id="node17" class="node">
<title>Power&#45;Up Time</title>
<polygon fill="lightblue" stroke="black" points="1432.62,-141.83 1358.88,-141.83 1358.88,-123.33 1432.62,-123.33 1432.62,-141.83"/>
<text text-anchor="middle" x="1395.75" y="-129.28" font-family="Times,serif" font-size="9.00">Power&#45;Up Time</text>
</g>
<!-- Power&#45;Up Time&#45;&gt;Move Right -->
<g id="edge50" class="edge">
<title>Power&#45;Up Time&#45;&gt;Move Right</title>
<path fill="none" stroke="red" stroke-width="0.47" d="M1358.39,-124.54C1355.47,-124.09 1352.57,-123.68 1349.75,-123.33 1128.68,-95.62 1068.54,-129.42 849.75,-87.33 820.88,-81.77 789.52,-72.01 764.41,-63.22"/>
<polygon fill="red" stroke="red" stroke-width="0.47" points="765.66,-59.95 755.07,-59.89 763.31,-66.54 765.66,-59.95"/>
</g>
<!-- Power&#45;Up Time&#45;&gt;Move Left -->
<g id="edge51" class="edge">
<title>Power&#45;Up Time&#45;&gt;Move Left</title>
<path fill="none" stroke="red" stroke-width="0.26" stroke-dasharray="1,5" d="M1358.6,-124.88C1355.61,-124.35 1352.63,-123.83 1349.75,-123.33 1255.6,-106.89 1231.92,-103.66 1137.75,-87.33 1070.47,-75.66 992.69,-61.83 944.1,-53.15"/>
<polygon fill="red" stroke="red" stroke-width="0.26" points="944.73,-49.71 934.27,-51.39 943.5,-56.6 944.73,-49.71"/>
</g>
<!-- Power&#45;Up Time&#45;&gt;Move Down -->
<g id="edge52" class="edge">
<title>Power&#45;Up Time&#45;&gt;Move Down</title>
<path fill="none" stroke="green" stroke-width="0.22" stroke-dasharray="1,5" d="M1375.34,-122.93C1344.09,-109.67 1283.43,-83.96 1240.18,-65.62"/>
<polygon fill="green" stroke="green" stroke-width="0.22" points="1241.56,-62.41 1230.99,-61.72 1238.83,-68.85 1241.56,-62.41"/>
</g>
</g>
</svg>
