<?xml version="1.0" encoding="UTF-8" standalone="no"?>
<!DOCTYPE svg PUBLIC "-//W3C//DTD SVG 1.1//EN"
 "http://www.w3.org/Graphics/SVG/1.1/DTD/svg11.dtd">
<!-- Generated by graphviz version 12.0.0 (20240704.0754)
 -->
<!-- Pages: 1 -->
<svg width="1520pt" height="331pt"
 viewBox="0.00 0.00 1519.75 330.72" xmlns="http://www.w3.org/2000/svg" xmlns:xlink="http://www.w3.org/1999/xlink">
<g id="graph0" class="graph" transform="scale(1 1) rotate(0) translate(4 326.72)">
<polygon fill="white" stroke="none" points="-4,4 -4,-326.72 1515.75,-326.72 1515.75,4 -4,4"/>
<!-- Pellet Right -->
<g id="node1" class="node">
<title>Pellet Right</title>
<polygon fill="lightblue" stroke="black" points="493.88,-322.72 436.62,-322.72 436.62,-304.22 493.88,-304.22 493.88,-322.72"/>
<text text-anchor="middle" x="465.25" y="-310.17" font-family="Times,serif" font-size="9.00">Pellet Right</text>
</g>
<!-- Move Right -->
<g id="node18" class="node">
<title>Move Right</title>
<ellipse fill="lightblue" stroke="black" cx="527.25" cy="-224.56" rx="41.54" ry="41.54"/>
<text text-anchor="middle" x="527.25" y="-221.26" font-family="Times,serif" font-size="9.00">Move Right</text>
</g>
<!-- Pellet Right&#45;&gt;Move Right -->
<g id="edge43" class="edge">
<title>Pellet Right&#45;&gt;Move Right</title>
<path fill="none" stroke="green" stroke-width="0.34" d="M471.42,-303.82C477.61,-295.14 487.61,-281.13 497.45,-267.34"/>
<polygon fill="green" stroke="green" stroke-width="0.34" points="500.26,-269.42 503.22,-259.25 494.56,-265.36 500.26,-269.42"/>
</g>
<!-- Move Down -->
<g id="node21" class="node">
<title>Move Down</title>
<ellipse fill="lightblue" stroke="black" cx="835.25" cy="-224.56" rx="43.66" ry="43.66"/>
<text text-anchor="middle" x="835.25" y="-221.26" font-family="Times,serif" font-size="9.00">Move Down</text>
</g>
<!-- Pellet Right&#45;&gt;Move Down -->
<g id="edge1" class="edge">
<title>Pellet Right&#45;&gt;Move Down</title>
<path fill="none" stroke="red" stroke-width="0.67" stroke-dasharray="1,5" d="M494.25,-305.91C497.28,-305.3 500.32,-304.73 503.25,-304.22 626.45,-282.94 667.24,-317.26 782.25,-268.22 786.47,-266.42 790.62,-264.19 794.64,-261.69"/>
<polygon fill="red" stroke="red" stroke-width="0.67" points="796.61,-264.59 802.89,-256.05 792.66,-258.81 796.61,-264.59"/>
</g>
<!-- Pellet Left -->
<g id="node2" class="node">
<title>Pellet Left</title>
<polygon fill="lightblue" stroke="black" points="418.25,-322.72 366.25,-322.72 366.25,-304.22 418.25,-304.22 418.25,-322.72"/>
<text text-anchor="middle" x="392.25" y="-310.17" font-family="Times,serif" font-size="9.00">Pellet Left</text>
</g>
<!-- Pellet Left&#45;&gt;Move Right -->
<g id="edge32" class="edge">
<title>Pellet Left&#45;&gt;Move Right</title>
<path fill="none" stroke="red" stroke-width="0.31" d="M405.69,-303.82C423.8,-292.16 456.91,-270.85 484,-253.4"/>
<polygon fill="red" stroke="red" stroke-width="0.31" points="485.65,-256.51 492.16,-248.15 481.86,-250.62 485.65,-256.51"/>
</g>
<!-- Move Left -->
<g id="node19" class="node">
<title>Move Left</title>
<ellipse fill="lightblue" stroke="black" cx="663.25" cy="-224.56" rx="37.83" ry="37.83"/>
<text text-anchor="middle" x="663.25" y="-221.26" font-family="Times,serif" font-size="9.00">Move Left</text>
</g>
<!-- Pellet Left&#45;&gt;Move Left -->
<g id="edge2" class="edge">
<title>Pellet Left&#45;&gt;Move Left</title>
<path fill="none" stroke="green" stroke-width="0.18" stroke-dasharray="1,5" d="M418.58,-306.25C469.42,-294.23 576.35,-268.91 578.25,-268.22 592.75,-262.94 607.98,-255.83 621.49,-248.93"/>
<polygon fill="green" stroke="green" stroke-width="0.18" points="623.04,-252.07 630.29,-244.34 619.81,-245.86 623.04,-252.07"/>
</g>
<!-- 10917 -->
<g id="node23" class="node">
<title>10917</title>
<ellipse fill="white" stroke="black" cx="746.25" cy="-224.56" rx="27.22" ry="27.22"/>
<text text-anchor="middle" x="746.25" y="-221.26" font-family="Times,serif" font-size="9.00">10917</text>
</g>
<!-- Pellet Left&#45;&gt;10917 -->
<g id="edge44" class="edge">
<title>Pellet Left&#45;&gt;10917</title>
<path fill="none" stroke="red" stroke-width="0.16" d="M418.56,-305.96C421.48,-305.33 424.42,-304.73 427.25,-304.22 552.02,-281.65 598.87,-328.81 710.25,-268.22 715.95,-265.12 721.13,-260.73 725.67,-255.92"/>
<polygon fill="red" stroke="red" stroke-width="0.16" points="728.3,-258.24 732.11,-248.36 722.97,-253.7 728.3,-258.24"/>
</g>
<!-- Pellet Up -->
<g id="node3" class="node">
<title>Pellet Up</title>
<polygon fill="lightblue" stroke="black" points="1511.75,-322.72 1462.75,-322.72 1462.75,-304.22 1511.75,-304.22 1511.75,-322.72"/>
<text text-anchor="middle" x="1487.25" y="-310.17" font-family="Times,serif" font-size="9.00">Pellet Up</text>
</g>
<!-- Move Up -->
<g id="node20" class="node">
<title>Move Up</title>
<ellipse fill="lightblue" stroke="black" cx="1112.25" cy="-224.56" rx="35.71" ry="35.71"/>
<text text-anchor="middle" x="1112.25" y="-221.26" font-family="Times,serif" font-size="9.00">Move Up</text>
</g>
<!-- Pellet Up&#45;&gt;Move Up -->
<g id="edge3" class="edge">
<title>Pellet Up&#45;&gt;Move Up</title>
<path fill="none" stroke="green" stroke-width="0.33" d="M1462.4,-306.21C1459.65,-305.53 1456.89,-304.86 1454.25,-304.22 1347.97,-278.72 1222.69,-250.33 1157.24,-235.62"/>
<polygon fill="green" stroke="green" stroke-width="0.33" points="1158.26,-232.26 1147.74,-233.49 1156.73,-239.09 1158.26,-232.26"/>
</g>
<!-- 10826 -->
<g id="node24" class="node">
<title>10826</title>
<ellipse fill="white" stroke="black" cx="746.25" cy="-27.22" rx="27.22" ry="27.22"/>
<text text-anchor="middle" x="746.25" y="-23.92" font-family="Times,serif" font-size="9.00">10826</text>
</g>
<!-- Pellet Up&#45;&gt;10826 -->
<g id="edge41" class="edge">
<title>Pellet Up&#45;&gt;10826</title>
<path fill="none" stroke="red" stroke-width="0.21" stroke-dasharray="1,5" d="M1469.26,-303.72C1423.67,-281.71 1299.66,-222.78 1193.25,-180.89 1042.44,-121.54 858.09,-62.84 781.85,-39.16"/>
<polygon fill="red" stroke="red" stroke-width="0.21" points="783.13,-35.89 772.55,-36.28 781.06,-42.58 783.13,-35.89"/>
</g>
<!-- Pellet Down -->
<g id="node4" class="node">
<title>Pellet Down</title>
<polygon fill="lightblue" stroke="black" points="845.38,-322.72 785.12,-322.72 785.12,-304.22 845.38,-304.22 845.38,-322.72"/>
<text text-anchor="middle" x="815.25" y="-310.17" font-family="Times,serif" font-size="9.00">Pellet Down</text>
</g>
<!-- Pellet Down&#45;&gt;Move Right -->
<g id="edge4" class="edge">
<title>Pellet Down&#45;&gt;Move Right</title>
<path fill="none" stroke="green" stroke-width="0.41" stroke-dasharray="1,5" d="M784.74,-306.09C732.99,-295.2 632.05,-273.69 616.25,-268.22 601.78,-263.22 586.56,-256.51 572.89,-249.89"/>
<polygon fill="green" stroke="green" stroke-width="0.41" points="574.77,-246.92 564.25,-245.63 571.66,-253.19 574.77,-246.92"/>
</g>
<!-- Pellet Down&#45;&gt;Move Left -->
<g id="edge5" class="edge">
<title>Pellet Down&#45;&gt;Move Left</title>
<path fill="none" stroke="red" stroke-width="0.15" d="M787.69,-303.74C765.75,-296.13 734.76,-283.86 710.25,-268.22 705.78,-265.37 701.33,-262.08 697.05,-258.62"/>
<polygon fill="red" stroke="red" stroke-width="0.15" points="699.62,-256.22 689.73,-252.42 695.09,-261.56 699.62,-256.22"/>
</g>
<!-- Pellet Down&#45;&gt;Move Up -->
<g id="edge38" class="edge">
<title>Pellet Down&#45;&gt;Move Up</title>
<path fill="none" stroke="red" stroke-width="0.26" d="M845.09,-303.74C897.62,-288.37 1006.85,-256.4 1068.12,-238.47"/>
<polygon fill="red" stroke="red" stroke-width="0.26" points="1068.89,-241.89 1077.51,-235.73 1066.93,-235.18 1068.89,-241.89"/>
</g>
<!-- Pellet Down&#45;&gt;Move Down -->
<g id="edge6" class="edge">
<title>Pellet Down&#45;&gt;Move Down</title>
<path fill="none" stroke="green" stroke-width="0.27" stroke-dasharray="1,5" d="M817.24,-303.82C818.75,-297.25 820.97,-287.61 823.34,-277.33"/>
<polygon fill="green" stroke="green" stroke-width="0.27" points="826.71,-278.28 825.54,-267.75 819.89,-276.71 826.71,-278.28"/>
</g>
<!-- Power Pellet Right -->
<g id="node5" class="node">
<title>Power Pellet Right</title>
<polygon fill="lightblue" stroke="black" points="1054.62,-322.72 971.88,-322.72 971.88,-304.22 1054.62,-304.22 1054.62,-322.72"/>
<text text-anchor="middle" x="1013.25" y="-310.17" font-family="Times,serif" font-size="9.00">Power Pellet Right</text>
</g>
<!-- Power Pellet Right&#45;&gt;Move Right -->
<g id="edge7" class="edge">
<title>Power Pellet Right&#45;&gt;Move Right</title>
<path fill="none" stroke="green" stroke-width="0.18" stroke-dasharray="1,5" d="M971.53,-305.53C968.39,-305.06 965.27,-304.62 962.25,-304.22 808.99,-283.87 765.03,-310.26 616.25,-268.22 601.24,-263.98 585.64,-257.36 571.78,-250.59"/>
<polygon fill="green" stroke="green" stroke-width="0.18" points="573.7,-247.63 563.2,-246.26 570.55,-253.89 573.7,-247.63"/>
</g>
<!-- Power Pellet Right&#45;&gt;Move Up -->
<g id="edge8" class="edge">
<title>Power Pellet Right&#45;&gt;Move Up</title>
<path fill="none" stroke="green" stroke-width="0.14" d="M1023.1,-303.82C1035.88,-292.6 1058.84,-272.45 1078.26,-255.4"/>
<polygon fill="green" stroke="green" stroke-width="0.14" points="1080.4,-258.18 1085.6,-248.95 1075.78,-252.92 1080.4,-258.18"/>
</g>
<!-- Power Pellet Left -->
<g id="node6" class="node">
<title>Power Pellet Left</title>
<polygon fill="lightblue" stroke="black" points="164,-322.72 86.5,-322.72 86.5,-304.22 164,-304.22 164,-322.72"/>
<text text-anchor="middle" x="125.25" y="-310.17" font-family="Times,serif" font-size="9.00">Power Pellet Left</text>
</g>
<!-- Power Pellet Left&#45;&gt;Move Right -->
<g id="edge9" class="edge">
<title>Power Pellet Left&#45;&gt;Move Right</title>
<path fill="none" stroke="green" stroke-width="0.28" d="M164.16,-304.06C237.29,-288.25 395.18,-254.11 476.52,-236.53"/>
<polygon fill="green" stroke="green" stroke-width="0.28" points="477.08,-239.99 486.11,-234.45 475.6,-233.15 477.08,-239.99"/>
</g>
<!-- Power Pellet Left&#45;&gt;Move Left -->
<g id="edge10" class="edge">
<title>Power Pellet Left&#45;&gt;Move Left</title>
<path fill="none" stroke="green" stroke-width="0.49" stroke-dasharray="1,5" d="M164.24,-305.5C167.29,-305.04 170.32,-304.6 173.25,-304.22 352.45,-280.9 404.43,-317.63 578.25,-268.22 593.08,-264.01 608.39,-257.2 621.87,-250.24"/>
<polygon fill="green" stroke="green" stroke-width="0.49" points="623.5,-253.34 630.67,-245.53 620.2,-247.16 623.5,-253.34"/>
</g>
<!-- 12366 -->
<g id="node25" class="node">
<title>12366</title>
<ellipse fill="white" stroke="black" cx="125.25" cy="-224.56" rx="27.22" ry="27.22"/>
<text text-anchor="middle" x="125.25" y="-221.26" font-family="Times,serif" font-size="9.00">12366</text>
</g>
<!-- Power Pellet Left&#45;&gt;12366 -->
<g id="edge42" class="edge">
<title>Power Pellet Left&#45;&gt;12366</title>
<path fill="none" stroke="green" stroke-width="0.36" d="M125.25,-303.82C125.25,-294.12 125.25,-277.75 125.25,-262.48"/>
<polygon fill="green" stroke="green" stroke-width="0.36" points="128.75,-262.72 125.25,-252.72 121.75,-262.72 128.75,-262.72"/>
</g>
<!-- Power Pellet Up -->
<g id="node7" class="node">
<title>Power Pellet Up</title>
<polygon fill="lightblue" stroke="black" points="1244.5,-322.72 1170,-322.72 1170,-304.22 1244.5,-304.22 1244.5,-322.72"/>
<text text-anchor="middle" x="1207.25" y="-310.17" font-family="Times,serif" font-size="9.00">Power Pellet Up</text>
</g>
<!-- Power Pellet Up&#45;&gt;Move Left -->
<g id="edge40" class="edge">
<title>Power Pellet Up&#45;&gt;Move Left</title>
<path fill="none" stroke="red" stroke-width="0.52" d="M1169.64,-305.42C1166.81,-304.98 1163.99,-304.58 1161.25,-304.22 1061.54,-291.33 802.52,-308.15 710.25,-268.22 705.38,-266.12 700.68,-263.29 696.26,-260.1"/>
<polygon fill="red" stroke="red" stroke-width="0.52" points="698.74,-257.6 688.75,-254.08 694.36,-263.06 698.74,-257.6"/>
</g>
<!-- Power Pellet Up&#45;&gt;Move Up -->
<g id="edge11" class="edge">
<title>Power Pellet Up&#45;&gt;Move Up</title>
<path fill="none" stroke="green" stroke-width="0.26" stroke-dasharray="1,5" d="M1197.79,-303.82C1185.61,-292.68 1163.8,-272.72 1145.25,-255.75"/>
<polygon fill="green" stroke="green" stroke-width="0.26" points="1148.1,-253.61 1138.36,-249.44 1143.37,-258.77 1148.1,-253.61"/>
</g>
<!-- 10784 -->
<g id="node22" class="node">
<title>10784</title>
<ellipse fill="white" stroke="black" cx="746.25" cy="-117.67" rx="27.22" ry="27.22"/>
<text text-anchor="middle" x="746.25" y="-114.37" font-family="Times,serif" font-size="9.00">10784</text>
</g>
<!-- Power Pellet Up&#45;&gt;10784 -->
<g id="edge33" class="edge">
<title>Power Pellet Up&#45;&gt;10784</title>
<path fill="none" stroke="red" stroke-width="0.91" stroke-dasharray="1,5" d="M1206.83,-304.04C1205.17,-280.37 1197,-212.97 1157.25,-180.89 1100.35,-134.98 876.05,-122.77 784.99,-119.67"/>
<polygon fill="red" stroke="red" stroke-width="0.91" points="785.29,-116.18 775.18,-119.36 785.06,-123.17 785.29,-116.18"/>
</g>
<!-- Power Pellet Up&#45;&gt;10917 -->
<g id="edge35" class="edge">
<title>Power Pellet Up&#45;&gt;10917</title>
<path fill="none" stroke="green" stroke-width="0.46" stroke-dasharray="1,5" d="M1169.63,-305.46C1166.8,-305.02 1163.98,-304.6 1161.25,-304.22 1077.43,-292.74 857.2,-307.46 782.25,-268.22 776.64,-265.28 771.55,-261.07 767.08,-256.41"/>
<polygon fill="green" stroke="green" stroke-width="0.46" points="769.77,-254.18 760.6,-248.85 764.45,-258.73 769.77,-254.18"/>
</g>
<!-- Power Pellet Down -->
<g id="node8" class="node">
<title>Power Pellet Down</title>
<polygon fill="lightblue" stroke="black" points="1445.12,-322.72 1359.38,-322.72 1359.38,-304.22 1445.12,-304.22 1445.12,-322.72"/>
<text text-anchor="middle" x="1402.25" y="-310.17" font-family="Times,serif" font-size="9.00">Power Pellet Down</text>
</g>
<!-- Power Pellet Down&#45;&gt;Move Up -->
<g id="edge12" class="edge">
<title>Power Pellet Down&#45;&gt;Move Up</title>
<path fill="none" stroke="red" stroke-width="0.32" stroke-dasharray="1,5" d="M1373.12,-303.74C1322.06,-288.44 1216.17,-256.7 1156.19,-238.73"/>
<polygon fill="red" stroke="red" stroke-width="0.32" points="1157.3,-235.41 1146.72,-235.89 1155.29,-242.11 1157.3,-235.41"/>
</g>
<!-- Ghost Info Right -->
<g id="node9" class="node">
<title>Ghost Info Right</title>
<polygon fill="lightblue" stroke="black" points="766.62,-322.72 689.88,-322.72 689.88,-304.22 766.62,-304.22 766.62,-322.72"/>
<text text-anchor="middle" x="728.25" y="-310.17" font-family="Times,serif" font-size="9.00">Ghost Info Right</text>
</g>
<!-- Ghost Info Right&#45;&gt;Move Right -->
<g id="edge13" class="edge">
<title>Ghost Info Right&#45;&gt;Move Right</title>
<path fill="none" stroke="green" stroke-width="0.27" stroke-dasharray="1,5" d="M704.89,-303.79C682.09,-295.2 646.52,-281.44 616.25,-268.22 602.21,-262.09 587.13,-255.05 573.44,-248.47"/>
<polygon fill="green" stroke="green" stroke-width="0.27" points="575.12,-245.39 564.59,-244.18 572.07,-251.69 575.12,-245.39"/>
</g>
<!-- Ghost Info Right&#45;&gt;Move Up -->
<g id="edge14" class="edge">
<title>Ghost Info Right&#45;&gt;Move Up</title>
<path fill="none" stroke="green" stroke-width="0.87" d="M766.83,-303.74C838.16,-287.6 990.34,-253.15 1066.64,-235.88"/>
<polygon fill="green" stroke="green" stroke-width="0.87" points="1067.07,-239.37 1076.05,-233.75 1065.53,-232.55 1067.07,-239.37"/>
</g>
<!-- Ghost Info Left -->
<g id="node10" class="node">
<title>Ghost Info Left</title>
<polygon fill="lightblue" stroke="black" points="672,-322.72 600.5,-322.72 600.5,-304.22 672,-304.22 672,-322.72"/>
<text text-anchor="middle" x="636.25" y="-310.17" font-family="Times,serif" font-size="9.00">Ghost Info Left</text>
</g>
<!-- Ghost Info Left&#45;&gt;Move Right -->
<g id="edge15" class="edge">
<title>Ghost Info Left&#45;&gt;Move Right</title>
<path fill="none" stroke="red" stroke-width="0.12" stroke-dasharray="1,5" d="M625.4,-303.82C611.84,-293.01 587.87,-273.9 567.02,-257.27"/>
<polygon fill="red" stroke="red" stroke-width="0.12" points="569.35,-254.65 559.35,-251.15 564.98,-260.12 569.35,-254.65"/>
</g>
<!-- Ghost Info Left&#45;&gt;Move Down -->
<g id="edge31" class="edge">
<title>Ghost Info Left&#45;&gt;Move Down</title>
<path fill="none" stroke="green" stroke-width="0.7" d="M672.24,-305.61C702.74,-298.86 747,-286.84 782.25,-268.22 786.3,-266.08 790.35,-263.61 794.29,-260.95"/>
<polygon fill="green" stroke="green" stroke-width="0.7" points="796.32,-263.8 802.4,-255.12 792.24,-258.12 796.32,-263.8"/>
</g>
<!-- Ghost Info Up -->
<g id="node11" class="node">
<title>Ghost Info Up</title>
<polygon fill="lightblue" stroke="black" points="68.5,-322.72 0,-322.72 0,-304.22 68.5,-304.22 68.5,-322.72"/>
<text text-anchor="middle" x="34.25" y="-310.17" font-family="Times,serif" font-size="9.00">Ghost Info Up</text>
</g>
<!-- Ghost Info Up&#45;&gt;Move Right -->
<g id="edge16" class="edge">
<title>Ghost Info Up&#45;&gt;Move Right</title>
<path fill="none" stroke="green" stroke-width="0.12" stroke-dasharray="1,5" d="M68.97,-305.76C71.77,-305.23 74.56,-304.72 77.25,-304.22 221.78,-277.73 392.81,-248.38 476.28,-234.19"/>
<polygon fill="green" stroke="green" stroke-width="0.12" points="476.81,-237.65 486.08,-232.52 475.64,-230.75 476.81,-237.65"/>
</g>
<!-- Ghost Info Up&#45;&gt;10784 -->
<g id="edge39" class="edge">
<title>Ghost Info Up&#45;&gt;10784</title>
<path fill="none" stroke="green" stroke-width="0.33" d="M34.92,-303.9C37.29,-279.86 47.58,-211.57 89.25,-180.89 139.28,-144.06 576.18,-124.97 708.46,-120"/>
<polygon fill="green" stroke="green" stroke-width="0.33" points="708.51,-123.5 718.38,-119.64 708.25,-116.51 708.51,-123.5"/>
</g>
<!-- Ghost Info Down -->
<g id="node12" class="node">
<title>Ghost Info Down</title>
<polygon fill="lightblue" stroke="black" points="1152.12,-322.72 1072.38,-322.72 1072.38,-304.22 1152.12,-304.22 1152.12,-322.72"/>
<text text-anchor="middle" x="1112.25" y="-310.17" font-family="Times,serif" font-size="9.00">Ghost Info Down</text>
</g>
<!-- Ghost Info Down&#45;&gt;Move Right -->
<g id="edge17" class="edge">
<title>Ghost Info Down&#45;&gt;Move Right</title>
<path fill="none" stroke="red" stroke-width="0.5" d="M1071.91,-305.4C1068.99,-304.97 1066.08,-304.57 1063.25,-304.22 865.46,-279.65 808.67,-320.17 616.25,-268.22 601.33,-264.19 585.88,-257.71 572.12,-251"/>
<polygon fill="red" stroke="red" stroke-width="0.5" points="574.07,-248.06 563.57,-246.69 570.92,-254.31 574.07,-248.06"/>
</g>
<!-- Ghost Info Down&#45;&gt;Move Up -->
<g id="edge18" class="edge">
<title>Ghost Info Down&#45;&gt;Move Up</title>
<path fill="none" stroke="red" stroke-width="0.26" d="M1112.25,-303.82C1112.25,-295.83 1112.25,-283.29 1112.25,-270.58"/>
<polygon fill="red" stroke="red" stroke-width="0.26" points="1115.75,-270.82 1112.25,-260.82 1108.75,-270.82 1115.75,-270.82"/>
</g>
<!-- Ghost Info Down&#45;&gt;Move Down -->
<g id="edge29" class="edge">
<title>Ghost Info Down&#45;&gt;Move Down</title>
<path fill="none" stroke="green" stroke-width="0.47" d="M1084.42,-303.74C1038.35,-289.28 945.51,-260.15 887.08,-241.82"/>
<polygon fill="green" stroke="green" stroke-width="0.47" points="888.21,-238.51 877.62,-238.85 886.12,-245.19 888.21,-238.51"/>
</g>
<!-- PAC&#45;MAN Right -->
<g id="node13" class="node">
<title>PAC&#45;MAN Right</title>
<polygon fill="lightblue" stroke="black" points="1341.75,-322.72 1262.75,-322.72 1262.75,-304.22 1341.75,-304.22 1341.75,-322.72"/>
<text text-anchor="middle" x="1302.25" y="-310.17" font-family="Times,serif" font-size="9.00">PAC&#45;MAN Right</text>
</g>
<!-- PAC&#45;MAN Right&#45;&gt;Move Up -->
<g id="edge19" class="edge">
<title>PAC&#45;MAN Right&#45;&gt;Move Up</title>
<path fill="none" stroke="red" stroke-width="0.17" stroke-dasharray="1,5" d="M1283.34,-303.82C1253.36,-290.11 1194.2,-263.05 1153.94,-244.63"/>
<polygon fill="red" stroke="red" stroke-width="0.17" points="1155.43,-241.46 1144.88,-240.48 1152.52,-247.83 1155.43,-241.46"/>
</g>
<!-- PAC&#45;MAN Right&#45;&gt;Move Down -->
<g id="edge20" class="edge">
<title>PAC&#45;MAN Right&#45;&gt;Move Down</title>
<path fill="none" stroke="red" stroke-width="0.22" stroke-dasharray="1,5" d="M1262.43,-305.06C1178.37,-289.42 982.76,-253.01 888.25,-235.42"/>
<polygon fill="red" stroke="red" stroke-width="0.22" points="889.13,-232.03 878.65,-233.64 887.84,-238.91 889.13,-232.03"/>
</g>
<!-- PAC&#45;MAN Left -->
<g id="node14" class="node">
<title>PAC&#45;MAN Left</title>
<polygon fill="lightblue" stroke="black" points="256.12,-322.72 182.38,-322.72 182.38,-304.22 256.12,-304.22 256.12,-322.72"/>
<text text-anchor="middle" x="219.25" y="-310.17" font-family="Times,serif" font-size="9.00">PAC&#45;MAN Left</text>
</g>
<!-- PAC&#45;MAN Left&#45;&gt;Move Right -->
<g id="edge21" class="edge">
<title>PAC&#45;MAN Left&#45;&gt;Move Right</title>
<path fill="none" stroke="green" stroke-width="0.27" d="M250.19,-303.74C303.48,-288.7 413.02,-257.79 477.25,-239.67"/>
<polygon fill="green" stroke="green" stroke-width="0.27" points="478.08,-243.07 486.75,-236.99 476.18,-236.33 478.08,-243.07"/>
</g>
<!-- PAC&#45;MAN Up -->
<g id="node15" class="node">
<title>PAC&#45;MAN Up</title>
<polygon fill="lightblue" stroke="black" points="582.62,-322.72 511.88,-322.72 511.88,-304.22 582.62,-304.22 582.62,-322.72"/>
<text text-anchor="middle" x="547.25" y="-310.17" font-family="Times,serif" font-size="9.00">PAC&#45;MAN Up</text>
</g>
<!-- PAC&#45;MAN Up&#45;&gt;Move Right -->
<g id="edge22" class="edge">
<title>PAC&#45;MAN Up&#45;&gt;Move Right</title>
<path fill="none" stroke="red" stroke-width="0.5" stroke-dasharray="1,5" d="M545.26,-303.82C543.66,-296.85 541.26,-286.44 538.73,-275.46"/>
<polygon fill="red" stroke="red" stroke-width="0.5" points="542.22,-275 536.57,-266.04 535.4,-276.57 542.22,-275"/>
</g>
<!-- PAC&#45;MAN Up&#45;&gt;Move Left -->
<g id="edge23" class="edge">
<title>PAC&#45;MAN Up&#45;&gt;Move Left</title>
<path fill="none" stroke="red" stroke-width="0.28" d="M560.47,-303.8C573.56,-295.09 594.1,-281.15 611.25,-268.22 616.33,-264.39 621.6,-260.26 626.75,-256.13"/>
<polygon fill="red" stroke="red" stroke-width="0.28" points="628.82,-258.96 634.38,-249.95 624.41,-253.53 628.82,-258.96"/>
</g>
<!-- PAC&#45;MAN Up&#45;&gt;Move Down -->
<g id="edge30" class="edge">
<title>PAC&#45;MAN Up&#45;&gt;Move Down</title>
<path fill="none" stroke="red" stroke-width="0.46" d="M583.09,-305.75C648.75,-293.44 781.68,-268.48 782.25,-268.22 786.53,-266.25 790.76,-263.86 794.86,-261.22"/>
<polygon fill="red" stroke="red" stroke-width="0.46" points="796.81,-264.13 803,-255.53 792.8,-258.39 796.81,-264.13"/>
</g>
<!-- PAC&#45;MAN Up&#45;&gt;10826 -->
<g id="edge34" class="edge">
<title>PAC&#45;MAN Up&#45;&gt;10826</title>
<path fill="none" stroke="green" stroke-width="0.26" d="M553.96,-303.99C560.64,-295.33 570.91,-281.31 578.25,-268.22 598.94,-231.3 593.84,-216.8 616.25,-180.89 646.53,-132.37 691.5,-83.24 719.82,-54.27"/>
<polygon fill="green" stroke="green" stroke-width="0.26" points="722.18,-56.86 726.72,-47.29 717.2,-51.95 722.18,-56.86"/>
</g>
<!-- PACM&#45;MAN Down -->
<g id="node16" class="node">
<title>PACM&#45;MAN Down</title>
<polygon fill="lightblue" stroke="black" points="953.38,-322.72 863.12,-322.72 863.12,-304.22 953.38,-304.22 953.38,-322.72"/>
<text text-anchor="middle" x="908.25" y="-310.17" font-family="Times,serif" font-size="9.00">PACM&#45;MAN Down</text>
</g>
<!-- PACM&#45;MAN Down&#45;&gt;Move Right -->
<g id="edge24" class="edge">
<title>PACM&#45;MAN Down&#45;&gt;Move Right</title>
<path fill="none" stroke="red" stroke-width="0.35" stroke-dasharray="1,5" d="M862.88,-305.54C859.96,-305.09 857.06,-304.65 854.25,-304.22 748.48,-288.14 718.5,-299.69 616.25,-268.22 601.48,-263.68 586.07,-257.04 572.31,-250.35"/>
<polygon fill="red" stroke="red" stroke-width="0.35" points="574.05,-247.3 563.54,-245.97 570.92,-253.57 574.05,-247.3"/>
</g>
<!-- PACM&#45;MAN Down&#45;&gt;Move Left -->
<g id="edge25" class="edge">
<title>PACM&#45;MAN Down&#45;&gt;Move Left</title>
<path fill="none" stroke="red" stroke-width="0.43" d="M863.01,-305.13C813.12,-296.56 736.44,-281.8 710.25,-268.22 705.6,-265.81 701.06,-262.82 696.74,-259.56"/>
<polygon fill="red" stroke="red" stroke-width="0.43" points="699.21,-257.06 689.26,-253.43 694.78,-262.48 699.21,-257.06"/>
</g>
<!-- PACM&#45;MAN Down&#45;&gt;Move Up -->
<g id="edge26" class="edge">
<title>PACM&#45;MAN Down&#45;&gt;Move Up</title>
<path fill="none" stroke="green" stroke-width="0.53" stroke-dasharray="1,5" d="M928.56,-303.82C961.28,-289.88 1026.38,-262.14 1069.63,-243.72"/>
<polygon fill="green" stroke="green" stroke-width="0.53" points="1070.75,-247.05 1078.57,-239.91 1068,-240.61 1070.75,-247.05"/>
</g>
<!-- PACM&#45;MAN Down&#45;&gt;Move Down -->
<g id="edge27" class="edge">
<title>PACM&#45;MAN Down&#45;&gt;Move Down</title>
<path fill="none" stroke="red" stroke-width="0.26" d="M900.98,-303.82C893.5,-294.91 881.28,-280.36 869.39,-266.21"/>
<polygon fill="red" stroke="red" stroke-width="0.26" points="872.22,-264.13 863.11,-258.73 866.86,-268.64 872.22,-264.13"/>
</g>
<!-- Power&#45;Up Time -->
<g id="node17" class="node">
<title>Power&#45;Up Time</title>
<polygon fill="lightblue" stroke="black" points="348.12,-322.72 274.38,-322.72 274.38,-304.22 348.12,-304.22 348.12,-322.72"/>
<text text-anchor="middle" x="311.25" y="-310.17" font-family="Times,serif" font-size="9.00">Power&#45;Up Time</text>
</g>
<!-- Power&#45;Up Time&#45;&gt;Move Right -->
<g id="edge28" class="edge">
<title>Power&#45;Up Time&#45;&gt;Move Right</title>
<path fill="none" stroke="red" stroke-width="0.5" stroke-dasharray="1,5" d="M332.75,-303.82C366.65,-290.18 433.36,-263.34 479.12,-244.92"/>
<polygon fill="red" stroke="red" stroke-width="0.5" points="480.16,-248.28 488.13,-241.3 477.55,-241.79 480.16,-248.28"/>
</g>
<!-- 10784&#45;&gt;10826 -->
<g id="edge37" class="edge">
<title>10784&#45;&gt;10826</title>
<path fill="none" stroke="red" stroke-width="0.25" stroke-dasharray="1,5" d="M746.25,-90.13C746.25,-82.26 746.25,-73.5 746.25,-65.09"/>
<polygon fill="red" stroke="red" stroke-width="0.25" points="749.75,-65.12 746.25,-55.12 742.75,-65.12 749.75,-65.12"/>
</g>
<!-- 10917&#45;&gt;10784 -->
<g id="edge36" class="edge">
<title>10917&#45;&gt;10784</title>
<path fill="none" stroke="red" stroke-width="0.31" d="M746.25,-197.09C746.25,-184.42 746.25,-169.04 746.25,-155.27"/>
<polygon fill="red" stroke="red" stroke-width="0.31" points="749.75,-155.59 746.25,-145.59 742.75,-155.59 749.75,-155.59"/>
</g>
</g>
</svg>
