<?xml version="1.0" encoding="UTF-8" standalone="no"?>
<!DOCTYPE svg PUBLIC "-//W3C//DTD SVG 1.1//EN"
 "http://www.w3.org/Graphics/SVG/1.1/DTD/svg11.dtd">
<!-- Generated by graphviz version 12.0.0 (20240704.0754)
 -->
<!-- Pages: 1 -->
<svg width="1558pt" height="240pt"
 viewBox="0.00 0.00 1557.88 240.27" xmlns="http://www.w3.org/2000/svg" xmlns:xlink="http://www.w3.org/1999/xlink">
<g id="graph0" class="graph" transform="scale(1 1) rotate(0) translate(4 236.27)">
<polygon fill="white" stroke="none" points="-4,4 -4,-236.27 1553.88,-236.27 1553.88,4 -4,4"/>
<!-- Pellet Right -->
<g id="node1" class="node">
<title>Pellet Right</title>
<polygon fill="lightblue" stroke="black" points="565.12,-159.8 507.88,-159.8 507.88,-141.3 565.12,-141.3 565.12,-159.8"/>
<text text-anchor="middle" x="536.5" y="-147.25" font-family="Times,serif" font-size="9.00">Pellet Right</text>
</g>
<!-- Move Up -->
<g id="node20" class="node">
<title>Move Up</title>
<ellipse fill="lightblue" stroke="black" cx="710.5" cy="-43.66" rx="35.71" ry="35.71"/>
<text text-anchor="middle" x="710.5" y="-40.36" font-family="Times,serif" font-size="9.00">Move Up</text>
</g>
<!-- Pellet Right&#45;&gt;Move Up -->
<g id="edge16" class="edge">
<title>Pellet Right&#45;&gt;Move Up</title>
<path fill="none" stroke="red" stroke-width="0.5" d="M550.43,-141.02C558.84,-135.88 569.77,-129.21 579.5,-123.33 610.12,-104.8 644.86,-83.95 670.86,-68.37"/>
<polygon fill="red" stroke="red" stroke-width="0.5" points="672.59,-71.41 679.38,-63.27 669,-65.41 672.59,-71.41"/>
</g>
<!-- Move Down -->
<g id="node21" class="node">
<title>Move Down</title>
<ellipse fill="lightblue" stroke="black" cx="368.5" cy="-43.66" rx="43.66" ry="43.66"/>
<text text-anchor="middle" x="368.5" y="-40.36" font-family="Times,serif" font-size="9.00">Move Down</text>
</g>
<!-- Pellet Right&#45;&gt;Move Down -->
<g id="edge1" class="edge">
<title>Pellet Right&#45;&gt;Move Down</title>
<path fill="none" stroke="green" stroke-width="0.11" stroke-dasharray="1,5" d="M524.3,-140.86C516.91,-135.66 507.25,-128.99 498.5,-123.33 471.06,-105.58 439.73,-86.58 414.7,-71.71"/>
<polygon fill="green" stroke="green" stroke-width="0.11" points="416.66,-68.8 406.28,-66.71 413.09,-74.82 416.66,-68.8"/>
</g>
<!-- Pellet Left -->
<g id="node2" class="node">
<title>Pellet Left</title>
<polygon fill="lightblue" stroke="black" points="1292.5,-232.27 1240.5,-232.27 1240.5,-213.77 1292.5,-213.77 1292.5,-232.27"/>
<text text-anchor="middle" x="1266.5" y="-219.72" font-family="Times,serif" font-size="9.00">Pellet Left</text>
</g>
<!-- Pellet Up -->
<g id="node3" class="node">
<title>Pellet Up</title>
<polygon fill="lightblue" stroke="black" points="1360,-232.27 1311,-232.27 1311,-213.77 1360,-213.77 1360,-232.27"/>
<text text-anchor="middle" x="1335.5" y="-219.72" font-family="Times,serif" font-size="9.00">Pellet Up</text>
</g>
<!-- Pellet Down -->
<g id="node4" class="node">
<title>Pellet Down</title>
<polygon fill="lightblue" stroke="black" points="489.62,-159.8 429.38,-159.8 429.38,-141.3 489.62,-141.3 489.62,-159.8"/>
<text text-anchor="middle" x="459.5" y="-147.25" font-family="Times,serif" font-size="9.00">Pellet Down</text>
</g>
<!-- Move Right -->
<g id="node18" class="node">
<title>Move Right</title>
<ellipse fill="lightblue" stroke="black" cx="220.5" cy="-43.66" rx="41.54" ry="41.54"/>
<text text-anchor="middle" x="220.5" y="-40.36" font-family="Times,serif" font-size="9.00">Move Right</text>
</g>
<!-- Pellet Down&#45;&gt;Move Right -->
<g id="edge2" class="edge">
<title>Pellet Down&#45;&gt;Move Right</title>
<path fill="none" stroke="green" stroke-width="0.47" d="M448.38,-140.92C440.82,-135.36 430.44,-128.27 420.5,-123.33 376.32,-101.38 361.38,-105.45 315.5,-87.33 299.77,-81.12 282.86,-73.75 267.73,-66.9"/>
<polygon fill="green" stroke="green" stroke-width="0.47" points="269.26,-63.75 258.71,-62.79 266.35,-70.12 269.26,-63.75"/>
</g>
<!-- Pellet Down&#45;&gt;Move Up -->
<g id="edge17" class="edge">
<title>Pellet Down&#45;&gt;Move Up</title>
<path fill="none" stroke="green" stroke-width="0.31" stroke-dasharray="1,5" d="M470.66,-141C478.24,-135.47 488.63,-128.39 498.5,-123.33 554.09,-94.84 622.47,-71.38 666.27,-57.7"/>
<polygon fill="green" stroke="green" stroke-width="0.31" points="667.07,-61.11 675.59,-54.82 665,-54.42 667.07,-61.11"/>
</g>
<!-- Power Pellet Right -->
<g id="node5" class="node">
<title>Power Pellet Right</title>
<polygon fill="lightblue" stroke="black" points="703.88,-159.8 621.12,-159.8 621.12,-141.3 703.88,-141.3 703.88,-159.8"/>
<text text-anchor="middle" x="662.5" y="-147.25" font-family="Times,serif" font-size="9.00">Power Pellet Right</text>
</g>
<!-- Power Pellet Right&#45;&gt;Move Up -->
<g id="edge3" class="edge">
<title>Power Pellet Right&#45;&gt;Move Up</title>
<path fill="none" stroke="red" stroke-width="0.14" d="M666.43,-140.97C671.94,-128.92 682.35,-106.18 691.67,-85.82"/>
<polygon fill="red" stroke="red" stroke-width="0.14" points="694.78,-87.43 695.76,-76.88 688.41,-84.52 694.78,-87.43"/>
</g>
<!-- Power Pellet Left -->
<g id="node6" class="node">
<title>Power Pellet Left</title>
<polygon fill="lightblue" stroke="black" points="1455.25,-232.27 1377.75,-232.27 1377.75,-213.77 1455.25,-213.77 1455.25,-232.27"/>
<text text-anchor="middle" x="1416.5" y="-219.72" font-family="Times,serif" font-size="9.00">Power Pellet Left</text>
</g>
<!-- Power Pellet Up -->
<g id="node7" class="node">
<title>Power Pellet Up</title>
<polygon fill="lightblue" stroke="black" points="796.75,-159.8 722.25,-159.8 722.25,-141.3 796.75,-141.3 796.75,-159.8"/>
<text text-anchor="middle" x="759.5" y="-147.25" font-family="Times,serif" font-size="9.00">Power Pellet Up</text>
</g>
<!-- Power Pellet Up&#45;&gt;Move Up -->
<g id="edge18" class="edge">
<title>Power Pellet Up&#45;&gt;Move Up</title>
<path fill="none" stroke="green" stroke-width="0.53" d="M755.49,-140.97C749.87,-128.94 739.28,-106.27 729.78,-85.94"/>
<polygon fill="green" stroke="green" stroke-width="0.53" points="732.98,-84.52 725.58,-76.94 726.64,-87.48 732.98,-84.52"/>
</g>
<!-- Power Pellet Down -->
<g id="node8" class="node">
<title>Power Pellet Down</title>
<polygon fill="lightblue" stroke="black" points="411.38,-159.8 325.62,-159.8 325.62,-141.3 411.38,-141.3 411.38,-159.8"/>
<text text-anchor="middle" x="368.5" y="-147.25" font-family="Times,serif" font-size="9.00">Power Pellet Down</text>
</g>
<!-- Power Pellet Down&#45;&gt;Move Down -->
<g id="edge15" class="edge">
<title>Power Pellet Down&#45;&gt;Move Down</title>
<path fill="none" stroke="green" stroke-width="0.54" stroke-dasharray="1,5" d="M368.5,-140.97C368.5,-131.24 368.5,-114.56 368.5,-97.78"/>
<polygon fill="green" stroke="green" stroke-width="0.54" points="372,-98.2 368.5,-88.2 365,-98.2 372,-98.2"/>
</g>
<!-- Ghost Info Right -->
<g id="node9" class="node">
<title>Ghost Info Right</title>
<polygon fill="lightblue" stroke="black" points="1549.88,-232.27 1473.12,-232.27 1473.12,-213.77 1549.88,-213.77 1549.88,-232.27"/>
<text text-anchor="middle" x="1511.5" y="-219.72" font-family="Times,serif" font-size="9.00">Ghost Info Right</text>
</g>
<!-- Ghost Info Left -->
<g id="node10" class="node">
<title>Ghost Info Left</title>
<polygon fill="lightblue" stroke="black" points="1067.25,-159.8 995.75,-159.8 995.75,-141.3 1067.25,-141.3 1067.25,-159.8"/>
<text text-anchor="middle" x="1031.5" y="-147.25" font-family="Times,serif" font-size="9.00">Ghost Info Left</text>
</g>
<!-- Move Left -->
<g id="node19" class="node">
<title>Move Left</title>
<ellipse fill="lightblue" stroke="black" cx="1095.5" cy="-43.66" rx="37.83" ry="37.83"/>
<text text-anchor="middle" x="1095.5" y="-40.36" font-family="Times,serif" font-size="9.00">Move Left</text>
</g>
<!-- Ghost Info Left&#45;&gt;Move Left -->
<g id="edge23" class="edge">
<title>Ghost Info Left&#45;&gt;Move Left</title>
<path fill="none" stroke="red" stroke-width="0.13" d="M1036.74,-140.97C1044.21,-128.72 1058.41,-105.44 1070.99,-84.84"/>
<polygon fill="red" stroke="red" stroke-width="0.13" points="1073.93,-86.74 1076.15,-76.38 1067.95,-83.09 1073.93,-86.74"/>
</g>
<!-- Ghost Info Left&#45;&gt;Move Up -->
<g id="edge4" class="edge">
<title>Ghost Info Left&#45;&gt;Move Up</title>
<path fill="none" stroke="red" stroke-width="0.14" d="M1018.56,-140.84C1009.81,-135.25 997.81,-128.15 986.5,-123.33 907.96,-89.88 810.92,-65.97 755.32,-53.81"/>
<polygon fill="red" stroke="red" stroke-width="0.14" points="756.16,-50.41 745.64,-51.72 754.68,-57.25 756.16,-50.41"/>
</g>
<!-- Ghost Info Up -->
<g id="node11" class="node">
<title>Ghost Info Up</title>
<polygon fill="lightblue" stroke="black" points="884.75,-232.27 816.25,-232.27 816.25,-213.77 884.75,-213.77 884.75,-232.27"/>
<text text-anchor="middle" x="850.5" y="-219.72" font-family="Times,serif" font-size="9.00">Ghost Info Up</text>
</g>
<!-- Ghost Info Up&#45;&gt;Move Right -->
<g id="edge5" class="edge">
<title>Ghost Info Up&#45;&gt;Move Right</title>
<path fill="none" stroke="green" stroke-width="0.2" stroke-dasharray="1,5" d="M815.9,-221.21C674.95,-217.75 150.39,-203.17 126.5,-177.77 95.46,-144.78 140.02,-100.99 177.75,-72.81"/>
<polygon fill="green" stroke="green" stroke-width="0.2" points="179.4,-75.94 185.42,-67.23 175.28,-70.28 179.4,-75.94"/>
</g>
<!-- Ghost Info Up&#45;&gt;Move Left -->
<g id="edge6" class="edge">
<title>Ghost Info Up&#45;&gt;Move Left</title>
<path fill="none" stroke="green" stroke-width="0.2" d="M884.84,-220.05C941.45,-216.06 1050.69,-204.95 1076.5,-177.77 1097.9,-155.24 1102.18,-120.14 1101.36,-91.64"/>
<polygon fill="green" stroke="green" stroke-width="0.2" points="1104.86,-91.58 1100.86,-81.77 1097.87,-91.93 1104.86,-91.58"/>
</g>
<!-- Ghost Info Up&#45;&gt;Move Up -->
<g id="edge7" class="edge">
<title>Ghost Info Up&#45;&gt;Move Up</title>
<path fill="none" stroke="red" stroke-width="0.15" d="M815.82,-220.82C756.14,-217.93 637.95,-208.4 612.5,-177.77 597.03,-159.17 602.04,-145.15 612.5,-123.33 624.44,-98.43 648.53,-78.92 669.83,-65.56"/>
<polygon fill="red" stroke="red" stroke-width="0.15" points="671.48,-68.66 678.25,-60.51 667.88,-62.66 671.48,-68.66"/>
</g>
<!-- 16850 -->
<g id="node22" class="node">
<title>16850</title>
<ellipse fill="white" stroke="black" cx="1150.5" cy="-150.55" rx="27.22" ry="27.22"/>
<text text-anchor="middle" x="1150.5" y="-147.25" font-family="Times,serif" font-size="9.00">16850</text>
</g>
<!-- Ghost Info Up&#45;&gt;16850 -->
<g id="edge19" class="edge">
<title>Ghost Info Up&#45;&gt;16850</title>
<path fill="none" stroke="green" stroke-width="0.25" d="M885.18,-220.47C935.99,-217.24 1032.92,-207.4 1109.5,-177.77 1113.02,-176.41 1116.55,-174.73 1120,-172.88"/>
<polygon fill="green" stroke="green" stroke-width="0.25" points="1121.64,-175.97 1128.48,-167.88 1118.09,-169.94 1121.64,-175.97"/>
</g>
<!-- Ghost Info Down -->
<g id="node12" class="node">
<title>Ghost Info Down</title>
<polygon fill="lightblue" stroke="black" points="215.38,-159.8 135.62,-159.8 135.62,-141.3 215.38,-141.3 215.38,-159.8"/>
<text text-anchor="middle" x="175.5" y="-147.25" font-family="Times,serif" font-size="9.00">Ghost Info Down</text>
</g>
<!-- Ghost Info Down&#45;&gt;Move Right -->
<g id="edge21" class="edge">
<title>Ghost Info Down&#45;&gt;Move Right</title>
<path fill="none" stroke="green" stroke-width="0.11" d="M179.18,-140.97C183.87,-130.04 192.34,-110.3 200.39,-91.54"/>
<polygon fill="green" stroke="green" stroke-width="0.11" points="203.5,-93.16 204.23,-82.59 197.07,-90.4 203.5,-93.16"/>
</g>
<!-- PAC&#45;MAN Right -->
<g id="node13" class="node">
<title>PAC&#45;MAN Right</title>
<polygon fill="lightblue" stroke="black" points="79,-159.8 0,-159.8 0,-141.3 79,-141.3 79,-159.8"/>
<text text-anchor="middle" x="39.5" y="-147.25" font-family="Times,serif" font-size="9.00">PAC&#45;MAN Right</text>
</g>
<!-- PAC&#45;MAN Right&#45;&gt;Move Right -->
<g id="edge8" class="edge">
<title>PAC&#45;MAN Right&#45;&gt;Move Right</title>
<path fill="none" stroke="red" stroke-width="0.34" stroke-dasharray="1,5" d="M54.31,-140.97C80.55,-125.76 136.17,-93.53 175.83,-70.55"/>
<polygon fill="red" stroke="red" stroke-width="0.34" points="177.45,-73.65 184.35,-65.61 173.94,-67.6 177.45,-73.65"/>
</g>
<!-- PAC&#45;MAN Left -->
<g id="node14" class="node">
<title>PAC&#45;MAN Left</title>
<polygon fill="lightblue" stroke="black" points="977.38,-159.8 903.62,-159.8 903.62,-141.3 977.38,-141.3 977.38,-159.8"/>
<text text-anchor="middle" x="940.5" y="-147.25" font-family="Times,serif" font-size="9.00">PAC&#45;MAN Left</text>
</g>
<!-- PAC&#45;MAN Left&#45;&gt;Move Right -->
<g id="edge9" class="edge">
<title>PAC&#45;MAN Left&#45;&gt;Move Right</title>
<path fill="none" stroke="green" stroke-width="0.33" stroke-dasharray="1,5" d="M928.7,-140.8C919.79,-134.72 907.01,-127.06 894.5,-123.33 647.44,-49.57 565.81,-149.14 315.5,-87.33 298.78,-83.2 281.36,-76.24 266.06,-69.12"/>
<polygon fill="green" stroke="green" stroke-width="0.33" points="267.82,-66.09 257.29,-64.91 264.79,-72.4 267.82,-66.09"/>
</g>
<!-- PAC&#45;MAN Left&#45;&gt;Move Left -->
<g id="edge10" class="edge">
<title>PAC&#45;MAN Left&#45;&gt;Move Left</title>
<path fill="none" stroke="green" stroke-width="0.18" d="M953.18,-140.97C975.38,-125.95 1022.12,-94.32 1055.99,-71.4"/>
<polygon fill="green" stroke="green" stroke-width="0.18" points="1057.76,-74.43 1064.08,-65.92 1053.84,-68.63 1057.76,-74.43"/>
</g>
<!-- PAC&#45;MAN Up -->
<g id="node15" class="node">
<title>PAC&#45;MAN Up</title>
<polygon fill="lightblue" stroke="black" points="885.88,-159.8 815.12,-159.8 815.12,-141.3 885.88,-141.3 885.88,-159.8"/>
<text text-anchor="middle" x="850.5" y="-147.25" font-family="Times,serif" font-size="9.00">PAC&#45;MAN Up</text>
</g>
<!-- PAC&#45;MAN Up&#45;&gt;Move Up -->
<g id="edge11" class="edge">
<title>PAC&#45;MAN Up&#45;&gt;Move Up</title>
<path fill="none" stroke="red" stroke-width="0.42" d="M839.04,-140.97C819.23,-126.12 777.74,-95.04 747.24,-72.19"/>
<polygon fill="red" stroke="red" stroke-width="0.42" points="749.56,-69.55 739.46,-66.36 745.36,-75.15 749.56,-69.55"/>
</g>
<!-- PACM&#45;MAN Down -->
<g id="node16" class="node">
<title>PACM&#45;MAN Down</title>
<polygon fill="lightblue" stroke="black" points="1222.62,-232.27 1132.38,-232.27 1132.38,-213.77 1222.62,-213.77 1222.62,-232.27"/>
<text text-anchor="middle" x="1177.5" y="-219.72" font-family="Times,serif" font-size="9.00">PACM&#45;MAN Down</text>
</g>
<!-- PACM&#45;MAN Down&#45;&gt;Move Left -->
<g id="edge12" class="edge">
<title>PACM&#45;MAN Down&#45;&gt;Move Left</title>
<path fill="none" stroke="green" stroke-width="0.28" stroke-dasharray="1,5" d="M1181.06,-213.36C1187.8,-195.56 1200.53,-154 1186.5,-123.33 1176.18,-100.77 1155.84,-82.2 1137,-68.79"/>
<polygon fill="green" stroke="green" stroke-width="0.28" points="1139.08,-65.97 1128.85,-63.23 1135.14,-71.75 1139.08,-65.97"/>
</g>
<!-- PACM&#45;MAN Down&#45;&gt;16850 -->
<g id="edge22" class="edge">
<title>PACM&#45;MAN Down&#45;&gt;16850</title>
<path fill="none" stroke="green" stroke-width="0.37" d="M1174.19,-213.38C1171.52,-206.42 1167.58,-196.14 1163.68,-185.96"/>
<polygon fill="green" stroke="green" stroke-width="0.37" points="1167.04,-184.95 1160.2,-176.86 1160.51,-187.45 1167.04,-184.95"/>
</g>
<!-- Power&#45;Up Time -->
<g id="node17" class="node">
<title>Power&#45;Up Time</title>
<polygon fill="lightblue" stroke="black" points="307.38,-159.8 233.62,-159.8 233.62,-141.3 307.38,-141.3 307.38,-159.8"/>
<text text-anchor="middle" x="270.5" y="-147.25" font-family="Times,serif" font-size="9.00">Power&#45;Up Time</text>
</g>
<!-- Power&#45;Up Time&#45;&gt;Move Right -->
<g id="edge14" class="edge">
<title>Power&#45;Up Time&#45;&gt;Move Right</title>
<path fill="none" stroke="red" stroke-width="0.18" d="M266.41,-140.97C261.12,-129.87 251.5,-109.7 242.43,-90.67"/>
<polygon fill="red" stroke="red" stroke-width="0.18" points="245.62,-89.23 238.16,-81.71 239.3,-92.24 245.62,-89.23"/>
</g>
<!-- Power&#45;Up Time&#45;&gt;Move Down -->
<g id="edge13" class="edge">
<title>Power&#45;Up Time&#45;&gt;Move Down</title>
<path fill="none" stroke="green" stroke-width="0.42" d="M278.52,-140.97C290.16,-128.51 312.49,-104.61 331.99,-83.74"/>
<polygon fill="green" stroke="green" stroke-width="0.42" points="334.32,-86.37 338.59,-76.68 329.2,-81.59 334.32,-86.37"/>
</g>
<!-- 16850&#45;&gt;Move Left -->
<g id="edge24" class="edge">
<title>16850&#45;&gt;Move Left</title>
<path fill="none" stroke="green" stroke-width="0.4" d="M1138.16,-126.01C1132.08,-114.43 1124.58,-100.11 1117.56,-86.74"/>
<polygon fill="green" stroke="green" stroke-width="0.4" points="1120.83,-85.44 1113.09,-78.2 1114.63,-88.69 1120.83,-85.44"/>
</g>
<!-- 16850&#45;&gt;Move Up -->
<g id="edge20" class="edge">
<title>16850&#45;&gt;Move Up</title>
<path fill="none" stroke="green" stroke-width="0.88" d="M1125.08,-139.63C1110.92,-134.33 1092.89,-127.97 1076.5,-123.33 963.22,-91.23 826.98,-65.16 757,-52.67"/>
<polygon fill="green" stroke="green" stroke-width="0.88" points="757.72,-49.24 747.26,-50.94 756.5,-56.14 757.72,-49.24"/>
</g>
</g>
</svg>
