<?xml version="1.0" encoding="UTF-8" standalone="no"?>
<!DOCTYPE svg PUBLIC "-//W3C//DTD SVG 1.1//EN"
 "http://www.w3.org/Graphics/SVG/1.1/DTD/svg11.dtd">
<!-- Generated by graphviz version 12.0.0 (20240704.0754)
 -->
<!-- Pages: 1 -->
<svg width="1149pt" height="359pt"
 viewBox="0.00 0.00 1148.50 359.36" xmlns="http://www.w3.org/2000/svg" xmlns:xlink="http://www.w3.org/1999/xlink">
<g id="graph0" class="graph" transform="scale(1 1) rotate(0) translate(4 355.36)">
<polygon fill="white" stroke="none" points="-4,4 -4,-355.36 1144.5,-355.36 1144.5,4 -4,4"/>
<!-- Pellet Right -->
<g id="node1" class="node">
<title>Pellet Right</title>
<polygon fill="lightblue" stroke="black" points="683.75,-264.57 626.5,-264.57 626.5,-246.07 683.75,-246.07 683.75,-264.57"/>
<text text-anchor="middle" x="655.12" y="-252.02" font-family="Times,serif" font-size="9.00">Pellet Right</text>
</g>
<!-- Move Up -->
<g id="node20" class="node">
<title>Move Up</title>
<ellipse fill="lightblue" stroke="black" cx="380.12" cy="-43.66" rx="35.71" ry="35.71"/>
<text text-anchor="middle" x="380.12" y="-40.36" font-family="Times,serif" font-size="9.00">Move Up</text>
</g>
<!-- Pellet Right&#45;&gt;Move Up -->
<g id="edge1" class="edge">
<title>Pellet Right&#45;&gt;Move Up</title>
<path fill="none" stroke="red" stroke-width="0.36" stroke-dasharray="1,5" d="M651,-245.76C639.58,-222.93 605.43,-159.79 560.12,-123.33 519.64,-90.74 463.57,-69.08 424.82,-56.88"/>
<polygon fill="red" stroke="red" stroke-width="0.36" points="425.98,-53.57 415.4,-53.99 423.93,-60.27 425.98,-53.57"/>
</g>
<!-- Move Down -->
<g id="node21" class="node">
<title>Move Down</title>
<ellipse fill="lightblue" stroke="black" cx="773.12" cy="-43.66" rx="43.66" ry="43.66"/>
<text text-anchor="middle" x="773.12" y="-40.36" font-family="Times,serif" font-size="9.00">Move Down</text>
</g>
<!-- Pellet Right&#45;&gt;Move Down -->
<g id="edge6" class="edge">
<title>Pellet Right&#45;&gt;Move Down</title>
<path fill="none" stroke="green" stroke-width="0.35" d="M653.45,-245.65C649.64,-223.59 642.35,-164.16 665.12,-123.33 678.48,-99.38 702.53,-80.77 724.55,-67.68"/>
<polygon fill="green" stroke="green" stroke-width="0.35" points="726.09,-70.84 733.05,-62.85 722.62,-64.75 726.09,-70.84"/>
</g>
<!-- 25448 -->
<g id="node26" class="node">
<title>25448</title>
<ellipse fill="white" stroke="black" cx="701.12" cy="-150.55" rx="27.22" ry="27.22"/>
<text text-anchor="middle" x="701.12" y="-147.25" font-family="Times,serif" font-size="9.00">25448</text>
</g>
<!-- Pellet Right&#45;&gt;25448 -->
<g id="edge24" class="edge">
<title>Pellet Right&#45;&gt;25448</title>
<path fill="none" stroke="green" stroke-width="0.33" d="M658.89,-245.91C664.77,-232.77 676.45,-206.67 686.05,-185.24"/>
<polygon fill="green" stroke="green" stroke-width="0.33" points="689.18,-186.79 690.08,-176.24 682.8,-183.93 689.18,-186.79"/>
</g>
<!-- 24062 -->
<g id="node30" class="node">
<title>24062</title>
<ellipse fill="white" stroke="black" cx="524.12" cy="-150.55" rx="27.22" ry="27.22"/>
<text text-anchor="middle" x="524.12" y="-147.25" font-family="Times,serif" font-size="9.00">24062</text>
</g>
<!-- Pellet Right&#45;&gt;24062 -->
<g id="edge12" class="edge">
<title>Pellet Right&#45;&gt;24062</title>
<path fill="none" stroke="green" stroke-width="0.3" d="M648.3,-245.67C641.27,-237.05 629.71,-223.69 618.12,-213.77 598.96,-197.37 575.26,-181.71 556.45,-170.2"/>
<polygon fill="green" stroke="green" stroke-width="0.3" points="558.42,-167.3 548.05,-165.14 554.81,-173.3 558.42,-167.3"/>
</g>
<!-- Pellet Left -->
<g id="node2" class="node">
<title>Pellet Left</title>
<polygon fill="lightblue" stroke="black" points="225.12,-264.57 173.12,-264.57 173.12,-246.07 225.12,-246.07 225.12,-264.57"/>
<text text-anchor="middle" x="199.12" y="-252.02" font-family="Times,serif" font-size="9.00">Pellet Left</text>
</g>
<!-- 24100 -->
<g id="node22" class="node">
<title>24100</title>
<ellipse fill="white" stroke="black" cx="198.12" cy="-150.55" rx="27.22" ry="27.22"/>
<text text-anchor="middle" x="198.12" y="-147.25" font-family="Times,serif" font-size="9.00">24100</text>
</g>
<!-- Pellet Left&#45;&gt;24100 -->
<g id="edge14" class="edge">
<title>Pellet Left&#45;&gt;24100</title>
<path fill="none" stroke="green" stroke-width="0.41" d="M199.04,-245.91C198.92,-233.42 198.69,-209.2 198.48,-188.43"/>
<polygon fill="green" stroke="green" stroke-width="0.41" points="201.99,-188.54 198.39,-178.58 194.99,-188.61 201.99,-188.54"/>
</g>
<!-- 24169 -->
<g id="node25" class="node">
<title>24169</title>
<ellipse fill="white" stroke="black" cx="121.12" cy="-150.55" rx="27.22" ry="27.22"/>
<text text-anchor="middle" x="121.12" y="-147.25" font-family="Times,serif" font-size="9.00">24169</text>
</g>
<!-- Pellet Left&#45;&gt;24169 -->
<g id="edge15" class="edge">
<title>Pellet Left&#45;&gt;24169</title>
<path fill="none" stroke="red" stroke-width="0.15" d="M192.74,-245.91C182.1,-231.88 160.23,-203.07 143.44,-180.95"/>
<polygon fill="red" stroke="red" stroke-width="0.15" points="146.26,-178.87 137.42,-173.02 140.68,-183.1 146.26,-178.87"/>
</g>
<!-- Pellet Up -->
<g id="node3" class="node">
<title>Pellet Up</title>
<polygon fill="lightblue" stroke="black" points="586.62,-351.36 537.62,-351.36 537.62,-332.86 586.62,-332.86 586.62,-351.36"/>
<text text-anchor="middle" x="562.12" y="-338.81" font-family="Times,serif" font-size="9.00">Pellet Up</text>
</g>
<!-- Pellet Down -->
<g id="node4" class="node">
<title>Pellet Down</title>
<polygon fill="lightblue" stroke="black" points="60.25,-351.36 0,-351.36 0,-332.86 60.25,-332.86 60.25,-351.36"/>
<text text-anchor="middle" x="30.12" y="-338.81" font-family="Times,serif" font-size="9.00">Pellet Down</text>
</g>
<!-- 24796 -->
<g id="node28" class="node">
<title>24796</title>
<ellipse fill="white" stroke="black" cx="30.12" cy="-255.32" rx="27.22" ry="27.22"/>
<text text-anchor="middle" x="30.12" y="-252.02" font-family="Times,serif" font-size="9.00">24796</text>
</g>
<!-- Pellet Down&#45;&gt;24796 -->
<g id="edge21" class="edge">
<title>Pellet Down&#45;&gt;24796</title>
<path fill="none" stroke="red" stroke-width="0.34" d="M30.12,-332.67C30.12,-323.43 30.12,-307.99 30.12,-293.4"/>
<polygon fill="red" stroke="red" stroke-width="0.34" points="33.63,-293.55 30.13,-283.55 26.63,-293.55 33.63,-293.55"/>
</g>
<!-- Power Pellet Right -->
<g id="node5" class="node">
<title>Power Pellet Right</title>
<polygon fill="lightblue" stroke="black" points="687.5,-351.36 604.75,-351.36 604.75,-332.86 687.5,-332.86 687.5,-351.36"/>
<text text-anchor="middle" x="646.12" y="-338.81" font-family="Times,serif" font-size="9.00">Power Pellet Right</text>
</g>
<!-- Power Pellet Left -->
<g id="node6" class="node">
<title>Power Pellet Left</title>
<polygon fill="lightblue" stroke="black" points="933.88,-159.8 856.38,-159.8 856.38,-141.3 933.88,-141.3 933.88,-159.8"/>
<text text-anchor="middle" x="895.12" y="-147.25" font-family="Times,serif" font-size="9.00">Power Pellet Left</text>
</g>
<!-- Power Pellet Left&#45;&gt;Move Down -->
<g id="edge2" class="edge">
<title>Power Pellet Left&#45;&gt;Move Down</title>
<path fill="none" stroke="red" stroke-width="0.5" stroke-dasharray="1,5" d="M885.14,-140.97C869.74,-127.72 839.31,-101.56 814.05,-79.85"/>
<polygon fill="red" stroke="red" stroke-width="0.5" points="816.49,-77.33 806.62,-73.46 811.92,-82.64 816.49,-77.33"/>
</g>
<!-- Power Pellet Up -->
<g id="node7" class="node">
<title>Power Pellet Up</title>
<polygon fill="lightblue" stroke="black" points="780.38,-351.36 705.88,-351.36 705.88,-332.86 780.38,-332.86 780.38,-351.36"/>
<text text-anchor="middle" x="743.12" y="-338.81" font-family="Times,serif" font-size="9.00">Power Pellet Up</text>
</g>
<!-- Power Pellet Down -->
<g id="node8" class="node">
<title>Power Pellet Down</title>
<polygon fill="lightblue" stroke="black" points="520,-351.36 434.25,-351.36 434.25,-332.86 520,-332.86 520,-351.36"/>
<text text-anchor="middle" x="477.12" y="-338.81" font-family="Times,serif" font-size="9.00">Power Pellet Down</text>
</g>
<!-- Move Right -->
<g id="node18" class="node">
<title>Move Right</title>
<ellipse fill="lightblue" stroke="black" cx="567.12" cy="-255.32" rx="41.54" ry="41.54"/>
<text text-anchor="middle" x="567.12" y="-252.02" font-family="Times,serif" font-size="9.00">Move Right</text>
</g>
<!-- Power Pellet Down&#45;&gt;Move Right -->
<g id="edge3" class="edge">
<title>Power Pellet Down&#45;&gt;Move Right</title>
<path fill="none" stroke="green" stroke-width="0.16" d="M486.08,-332.67C496.34,-323.01 513.8,-306.55 529.9,-291.39"/>
<polygon fill="green" stroke="green" stroke-width="0.16" points="532.11,-294.11 536.99,-284.71 527.31,-289.02 532.11,-294.11"/>
</g>
<!-- Move Left -->
<g id="node19" class="node">
<title>Move Left</title>
<ellipse fill="lightblue" stroke="black" cx="284.12" cy="-255.32" rx="37.83" ry="37.83"/>
<text text-anchor="middle" x="284.12" y="-252.02" font-family="Times,serif" font-size="9.00">Move Left</text>
</g>
<!-- Power Pellet Down&#45;&gt;Move Left -->
<g id="edge7" class="edge">
<title>Power Pellet Down&#45;&gt;Move Left</title>
<path fill="none" stroke="red" stroke-width="0.11" stroke-dasharray="1,5" d="M433.79,-332.49C404.25,-325.51 364.89,-313.99 333.12,-296.86 328.39,-294.3 323.68,-291.25 319.16,-287.98"/>
<polygon fill="red" stroke="red" stroke-width="0.11" points="321.45,-285.34 311.39,-282.03 317.2,-290.89 321.45,-285.34"/>
</g>
<!-- Ghost Info Right -->
<g id="node9" class="node">
<title>Ghost Info Right</title>
<polygon fill="lightblue" stroke="black" points="875.5,-351.36 798.75,-351.36 798.75,-332.86 875.5,-332.86 875.5,-351.36"/>
<text text-anchor="middle" x="837.12" y="-338.81" font-family="Times,serif" font-size="9.00">Ghost Info Right</text>
</g>
<!-- Ghost Info Left -->
<g id="node10" class="node">
<title>Ghost Info Left</title>
<polygon fill="lightblue" stroke="black" points="964.88,-351.36 893.38,-351.36 893.38,-332.86 964.88,-332.86 964.88,-351.36"/>
<text text-anchor="middle" x="929.12" y="-338.81" font-family="Times,serif" font-size="9.00">Ghost Info Left</text>
</g>
<!-- Ghost Info Up -->
<g id="node11" class="node">
<title>Ghost Info Up</title>
<polygon fill="lightblue" stroke="black" points="1051.38,-351.36 982.88,-351.36 982.88,-332.86 1051.38,-332.86 1051.38,-351.36"/>
<text text-anchor="middle" x="1017.12" y="-338.81" font-family="Times,serif" font-size="9.00">Ghost Info Up</text>
</g>
<!-- Ghost Info Down -->
<g id="node12" class="node">
<title>Ghost Info Down</title>
<polygon fill="lightblue" stroke="black" points="841,-264.57 761.25,-264.57 761.25,-246.07 841,-246.07 841,-264.57"/>
<text text-anchor="middle" x="801.12" y="-252.02" font-family="Times,serif" font-size="9.00">Ghost Info Down</text>
</g>
<!-- Ghost Info Down&#45;&gt;Move Down -->
<g id="edge4" class="edge">
<title>Ghost Info Down&#45;&gt;Move Down</title>
<path fill="none" stroke="red" stroke-width="0.15" stroke-dasharray="1,5" d="M803.28,-245.61C808.17,-224.41 818.97,-168.52 809.12,-123.33 806.8,-112.65 802.89,-101.7 798.48,-91.48"/>
<polygon fill="red" stroke="red" stroke-width="0.15" points="801.74,-90.2 794.42,-82.54 795.37,-93.09 801.74,-90.2"/>
</g>
<!-- 25568 -->
<g id="node23" class="node">
<title>25568</title>
<ellipse fill="white" stroke="black" cx="773.12" cy="-150.55" rx="27.22" ry="27.22"/>
<text text-anchor="middle" x="773.12" y="-147.25" font-family="Times,serif" font-size="9.00">25568</text>
</g>
<!-- Ghost Info Down&#45;&gt;25568 -->
<g id="edge27" class="edge">
<title>Ghost Info Down&#45;&gt;25568</title>
<path fill="none" stroke="green" stroke-width="0.31" d="M798.83,-245.91C795.35,-233.14 788.54,-208.11 782.79,-187.04"/>
<polygon fill="green" stroke="green" stroke-width="0.31" points="786.21,-186.26 780.2,-177.54 779.46,-188.1 786.21,-186.26"/>
</g>
<!-- PAC&#45;MAN Right -->
<g id="node13" class="node">
<title>PAC&#45;MAN Right</title>
<polygon fill="lightblue" stroke="black" points="154.62,-264.57 75.62,-264.57 75.62,-246.07 154.62,-246.07 154.62,-264.57"/>
<text text-anchor="middle" x="115.12" y="-252.02" font-family="Times,serif" font-size="9.00">PAC&#45;MAN Right</text>
</g>
<!-- PAC&#45;MAN Right&#45;&gt;24169 -->
<g id="edge16" class="edge">
<title>PAC&#45;MAN Right&#45;&gt;24169</title>
<path fill="none" stroke="red" stroke-width="0.51" d="M115.62,-245.91C116.34,-233.47 117.75,-209.42 118.96,-188.71"/>
<polygon fill="red" stroke="red" stroke-width="0.51" points="122.45,-188.92 119.54,-178.74 115.46,-188.52 122.45,-188.92"/>
</g>
<!-- PAC&#45;MAN Left -->
<g id="node14" class="node">
<title>PAC&#45;MAN Left</title>
<polygon fill="lightblue" stroke="black" points="508,-264.57 434.25,-264.57 434.25,-246.07 508,-246.07 508,-264.57"/>
<text text-anchor="middle" x="471.12" y="-252.02" font-family="Times,serif" font-size="9.00">PAC&#45;MAN Left</text>
</g>
<!-- PAC&#45;MAN Left&#45;&gt;24062 -->
<g id="edge26" class="edge">
<title>PAC&#45;MAN Left&#45;&gt;24062</title>
<path fill="none" stroke="green" stroke-width="0.11" d="M475.46,-245.91C482.34,-232.57 496.12,-205.86 507.26,-184.25"/>
<polygon fill="green" stroke="green" stroke-width="0.11" points="510.3,-186 511.77,-175.51 504.07,-182.79 510.3,-186"/>
</g>
<!-- PAC&#45;MAN Up -->
<g id="node15" class="node">
<title>PAC&#45;MAN Up</title>
<polygon fill="lightblue" stroke="black" points="1140.5,-351.36 1069.75,-351.36 1069.75,-332.86 1140.5,-332.86 1140.5,-351.36"/>
<text text-anchor="middle" x="1105.12" y="-338.81" font-family="Times,serif" font-size="9.00">PAC&#45;MAN Up</text>
</g>
<!-- PACM&#45;MAN Down -->
<g id="node16" class="node">
<title>PACM&#45;MAN Down</title>
<polygon fill="lightblue" stroke="black" points="329.25,-351.36 239,-351.36 239,-332.86 329.25,-332.86 329.25,-351.36"/>
<text text-anchor="middle" x="284.12" y="-338.81" font-family="Times,serif" font-size="9.00">PACM&#45;MAN Down</text>
</g>
<!-- PACM&#45;MAN Down&#45;&gt;Move Left -->
<g id="edge5" class="edge">
<title>PACM&#45;MAN Down&#45;&gt;Move Left</title>
<path fill="none" stroke="red" stroke-width="0.19" d="M284.12,-332.67C284.12,-325.61 284.12,-314.94 284.12,-303.79"/>
<polygon fill="red" stroke="red" stroke-width="0.19" points="287.63,-303.8 284.13,-293.8 280.63,-303.8 287.63,-303.8"/>
</g>
<!-- Power&#45;Up Time -->
<g id="node17" class="node">
<title>Power&#45;Up Time</title>
<polygon fill="lightblue" stroke="black" points="416,-264.57 342.25,-264.57 342.25,-246.07 416,-246.07 416,-264.57"/>
<text text-anchor="middle" x="379.12" y="-252.02" font-family="Times,serif" font-size="9.00">Power&#45;Up Time</text>
</g>
<!-- Power&#45;Up Time&#45;&gt;Move Up -->
<g id="edge8" class="edge">
<title>Power&#45;Up Time&#45;&gt;Move Up</title>
<path fill="none" stroke="green" stroke-width="0.12" stroke-dasharray="1,5" d="M373.73,-245.79C365.42,-232.09 349.85,-204.05 344.12,-177.77 338.98,-154.13 338.97,-146.97 344.12,-123.33 347.03,-110 352.41,-96.22 358.14,-84"/>
<polygon fill="green" stroke="green" stroke-width="0.12" points="361.21,-85.67 362.47,-75.15 354.93,-82.59 361.21,-85.67"/>
</g>
<!-- 23752 -->
<g id="node24" class="node">
<title>23752</title>
<ellipse fill="white" stroke="black" cx="380.12" cy="-150.55" rx="27.22" ry="27.22"/>
<text text-anchor="middle" x="380.12" y="-147.25" font-family="Times,serif" font-size="9.00">23752</text>
</g>
<!-- Power&#45;Up Time&#45;&gt;23752 -->
<g id="edge10" class="edge">
<title>Power&#45;Up Time&#45;&gt;23752</title>
<path fill="none" stroke="red" stroke-width="0.19" d="M379.21,-245.91C379.33,-233.36 379.57,-208.98 379.77,-188.14"/>
<polygon fill="red" stroke="red" stroke-width="0.19" points="383.27,-188.28 379.87,-178.25 376.27,-188.22 383.27,-188.28"/>
</g>
<!-- 24669 -->
<g id="node29" class="node">
<title>24669</title>
<ellipse fill="white" stroke="black" cx="452.12" cy="-150.55" rx="27.22" ry="27.22"/>
<text text-anchor="middle" x="452.12" y="-147.25" font-family="Times,serif" font-size="9.00">24669</text>
</g>
<!-- Power&#45;Up Time&#45;&gt;24669 -->
<g id="edge19" class="edge">
<title>Power&#45;Up Time&#45;&gt;24669</title>
<path fill="none" stroke="green" stroke-width="0.37" d="M385.1,-245.91C394.96,-232.03 415.1,-203.67 430.75,-181.65"/>
<polygon fill="green" stroke="green" stroke-width="0.37" points="433.45,-183.89 436.38,-173.71 427.74,-179.84 433.45,-183.89"/>
</g>
<!-- Power&#45;Up Time&#45;&gt;24062 -->
<g id="edge17" class="edge">
<title>Power&#45;Up Time&#45;&gt;24062</title>
<path fill="none" stroke="red" stroke-width="0.23" stroke-dasharray="1,5" d="M387.83,-245.67C396.77,-237.04 411.27,-223.68 425.12,-213.77 451.36,-195.02 461.05,-195.3 488.12,-177.77 490.23,-176.41 492.37,-174.98 494.52,-173.51"/>
<polygon fill="red" stroke="red" stroke-width="0.23" points="496.24,-176.57 502.41,-167.96 492.22,-170.85 496.24,-176.57"/>
</g>
<!-- 23448 -->
<g id="node27" class="node">
<title>23448</title>
<ellipse fill="white" stroke="black" cx="270.12" cy="-150.55" rx="27.22" ry="27.22"/>
<text text-anchor="middle" x="270.12" y="-147.25" font-family="Times,serif" font-size="9.00">23448</text>
</g>
<!-- Move Left&#45;&gt;23448 -->
<g id="edge18" class="edge">
<title>Move Left&#45;&gt;23448</title>
<path fill="none" stroke="green" stroke-width="0.12" d="M279.11,-217.51C277.8,-207.86 276.38,-197.47 275.07,-187.86"/>
<polygon fill="green" stroke="green" stroke-width="0.12" points="278.54,-187.41 273.72,-177.97 271.61,-188.35 278.54,-187.41"/>
</g>
<!-- 25568&#45;&gt;Move Down -->
<g id="edge28" class="edge">
<title>25568&#45;&gt;Move Down</title>
<path fill="none" stroke="red" stroke-width="0.15" d="M773.12,-123.08C773.12,-115.24 773.12,-106.35 773.12,-97.45"/>
<polygon fill="red" stroke="red" stroke-width="0.15" points="776.63,-97.68 773.13,-87.68 769.63,-97.68 776.63,-97.68"/>
</g>
<!-- 23752&#45;&gt;Move Up -->
<g id="edge11" class="edge">
<title>23752&#45;&gt;Move Up</title>
<path fill="none" stroke="green" stroke-width="0.59" d="M380.12,-123.08C380.12,-113.25 380.12,-101.79 380.12,-90.72"/>
<polygon fill="green" stroke="green" stroke-width="0.59" points="383.63,-90.73 380.13,-80.73 376.63,-90.73 383.63,-90.73"/>
</g>
<!-- 24169&#45;&gt;Move Up -->
<g id="edge22" class="edge">
<title>24169&#45;&gt;Move Up</title>
<path fill="none" stroke="red" stroke-width="0.5" d="M143.16,-134.19C149.15,-130.37 155.76,-126.46 162.12,-123.33 219.93,-94.85 290.74,-71.22 335.65,-57.51"/>
<polygon fill="red" stroke="red" stroke-width="0.5" points="336.64,-60.87 345.2,-54.63 334.62,-54.17 336.64,-60.87"/>
</g>
<!-- 25448&#45;&gt;Move Down -->
<g id="edge25" class="edge">
<title>25448&#45;&gt;Move Down</title>
<path fill="none" stroke="green" stroke-width="0.15" d="M716.22,-127.56C724,-116.22 733.79,-101.97 743.03,-88.5"/>
<polygon fill="green" stroke="green" stroke-width="0.15" points="745.8,-90.65 748.57,-80.43 740.03,-86.69 745.8,-90.65"/>
</g>
<!-- 23448&#45;&gt;Move Up -->
<g id="edge9" class="edge">
<title>23448&#45;&gt;Move Up</title>
<path fill="none" stroke="green" stroke-width="0.44" d="M289.54,-131.04C305.55,-115.78 328.6,-93.79 347.45,-75.82"/>
<polygon fill="green" stroke="green" stroke-width="0.44" points="349.4,-78.79 354.23,-69.36 344.57,-73.73 349.4,-78.79"/>
</g>
<!-- 24796&#45;&gt;24169 -->
<g id="edge23" class="edge">
<title>24796&#45;&gt;24169</title>
<path fill="none" stroke="red" stroke-width="0.24" d="M47.67,-234.5C61.56,-218.82 81.11,-196.74 96.55,-179.3"/>
<polygon fill="red" stroke="red" stroke-width="0.24" points="99.07,-181.73 103.08,-171.93 93.83,-177.09 99.07,-181.73"/>
</g>
<!-- 24669&#45;&gt;Move Up -->
<g id="edge20" class="edge">
<title>24669&#45;&gt;Move Up</title>
<path fill="none" stroke="red" stroke-width="0.45" d="M437.03,-127.56C428.07,-114.51 416.46,-97.6 406.07,-82.46"/>
<polygon fill="red" stroke="red" stroke-width="0.45" points="409.05,-80.61 400.5,-74.35 403.28,-84.57 409.05,-80.61"/>
</g>
<!-- 24062&#45;&gt;Move Up -->
<g id="edge13" class="edge">
<title>24062&#45;&gt;Move Up</title>
<path fill="none" stroke="green" stroke-width="0.16" d="M502.25,-133.62C479.58,-117.11 443.74,-91 416.74,-71.33"/>
<polygon fill="green" stroke="green" stroke-width="0.16" points="419,-68.65 408.86,-65.59 414.88,-74.31 419,-68.65"/>
</g>
</g>
</svg>
