<?xml version="1.0" encoding="UTF-8" standalone="no"?>
<!DOCTYPE svg PUBLIC "-//W3C//DTD SVG 1.1//EN"
 "http://www.w3.org/Graphics/SVG/1.1/DTD/svg11.dtd">
<!-- Generated by graphviz version 12.0.0 (20240704.0754)
 -->
<!-- Pages: 1 -->
<svg width="905pt" height="442pt"
 viewBox="0.00 0.00 904.75 442.38" xmlns="http://www.w3.org/2000/svg" xmlns:xlink="http://www.w3.org/1999/xlink">
<g id="graph0" class="graph" transform="scale(1 1) rotate(0) translate(4 438.38)">
<polygon fill="white" stroke="none" points="-4,4 -4,-438.38 900.75,-438.38 900.75,4 -4,4"/>
<!-- Pellet Right -->
<g id="node1" class="node">
<title>Pellet Right</title>
<polygon fill="lightblue" stroke="black" points="57.25,-148.13 0,-148.13 0,-129.63 57.25,-129.63 57.25,-148.13"/>
<text text-anchor="middle" x="28.62" y="-135.58" font-family="Times,serif" font-size="9.00">Pellet Right</text>
</g>
<!-- Move Left -->
<g id="node19" class="node">
<title>Move Left</title>
<ellipse fill="lightblue" stroke="black" cx="69.62" cy="-37.83" rx="37.83" ry="37.83"/>
<text text-anchor="middle" x="69.62" y="-34.53" font-family="Times,serif" font-size="9.00">Move Left</text>
</g>
<!-- Pellet Right&#45;&gt;Move Left -->
<g id="edge1" class="edge">
<title>Pellet Right&#45;&gt;Move Left</title>
<path fill="none" stroke="green" stroke-width="0.39" d="M32.12,-129.44C36.43,-119.02 44.09,-100.51 51.37,-82.93"/>
<polygon fill="green" stroke="green" stroke-width="0.39" points="54.53,-84.44 55.12,-73.86 48.07,-81.76 54.53,-84.44"/>
</g>
<!-- Move Up -->
<g id="node20" class="node">
<title>Move Up</title>
<ellipse fill="lightblue" stroke="black" cx="263.62" cy="-37.83" rx="35.71" ry="35.71"/>
<text text-anchor="middle" x="263.62" y="-34.53" font-family="Times,serif" font-size="9.00">Move Up</text>
</g>
<!-- Pellet Right&#45;&gt;Move Up -->
<g id="edge2" class="edge">
<title>Pellet Right&#45;&gt;Move Up</title>
<path fill="none" stroke="green" stroke-width="0.19" stroke-dasharray="1,5" d="M39.47,-129.31C46.83,-123.77 56.95,-116.69 66.62,-111.66 117,-85.5 178.95,-64.22 219.77,-51.57"/>
<polygon fill="green" stroke="green" stroke-width="0.19" points="220.62,-54.97 229.15,-48.7 218.57,-48.28 220.62,-54.97"/>
</g>
<!-- Pellet Left -->
<g id="node2" class="node">
<title>Pellet Left</title>
<polygon fill="lightblue" stroke="black" points="325.62,-148.13 273.62,-148.13 273.62,-129.63 325.62,-129.63 325.62,-148.13"/>
<text text-anchor="middle" x="299.62" y="-135.58" font-family="Times,serif" font-size="9.00">Pellet Left</text>
</g>
<!-- Pellet Left&#45;&gt;Move Up -->
<g id="edge8" class="edge">
<title>Pellet Left&#45;&gt;Move Up</title>
<path fill="none" stroke="green" stroke-width="0.42" stroke-dasharray="1,5" d="M296.56,-129.44C292.68,-118.78 285.74,-99.67 279.22,-81.74"/>
<polygon fill="green" stroke="green" stroke-width="0.42" points="282.59,-80.76 275.88,-72.55 276.01,-83.15 282.59,-80.76"/>
</g>
<!-- Pellet Up -->
<g id="node3" class="node">
<title>Pellet Up</title>
<polygon fill="lightblue" stroke="black" points="782.12,-361.91 733.12,-361.91 733.12,-343.41 782.12,-343.41 782.12,-361.91"/>
<text text-anchor="middle" x="757.62" y="-349.36" font-family="Times,serif" font-size="9.00">Pellet Up</text>
</g>
<!-- Move Down -->
<g id="node21" class="node">
<title>Move Down</title>
<ellipse fill="lightblue" stroke="black" cx="757.62" cy="-245.77" rx="43.66" ry="43.66"/>
<text text-anchor="middle" x="757.62" y="-242.47" font-family="Times,serif" font-size="9.00">Move Down</text>
</g>
<!-- Pellet Up&#45;&gt;Move Down -->
<g id="edge9" class="edge">
<title>Pellet Up&#45;&gt;Move Down</title>
<path fill="none" stroke="red" stroke-width="0.99" stroke-dasharray="1,5" d="M757.62,-343.08C757.62,-333.53 757.62,-317.29 757.62,-300.84"/>
<polygon fill="red" stroke="red" stroke-width="0.99" points="761.13,-300.98 757.63,-290.98 754.13,-300.98 761.13,-300.98"/>
</g>
<!-- Pellet Down -->
<g id="node4" class="node">
<title>Pellet Down</title>
<polygon fill="lightblue" stroke="black" points="358.75,-255.02 298.5,-255.02 298.5,-236.52 358.75,-236.52 358.75,-255.02"/>
<text text-anchor="middle" x="328.62" y="-242.47" font-family="Times,serif" font-size="9.00">Pellet Down</text>
</g>
<!-- Pellet Down&#45;&gt;Move Up -->
<g id="edge10" class="edge">
<title>Pellet Down&#45;&gt;Move Up</title>
<path fill="none" stroke="green" stroke-width="0.39" stroke-dasharray="1,5" d="M331.37,-236.26C337.9,-214.52 352.49,-155.59 334.62,-111.66 327.45,-94.02 313.72,-78.32 300.23,-66.05"/>
<polygon fill="green" stroke="green" stroke-width="0.39" points="302.66,-63.53 292.82,-59.62 298.08,-68.82 302.66,-63.53"/>
</g>
<!-- 23712 -->
<g id="node22" class="node">
<title>23712</title>
<ellipse fill="white" stroke="black" cx="228.62" cy="-138.88" rx="27.22" ry="27.22"/>
<text text-anchor="middle" x="228.62" y="-135.58" font-family="Times,serif" font-size="9.00">23712</text>
</g>
<!-- Pellet Down&#45;&gt;23712 -->
<g id="edge18" class="edge">
<title>Pellet Down&#45;&gt;23712</title>
<path fill="none" stroke="red" stroke-width="0.44" d="M320.44,-236.19C306.17,-221.22 276.17,-189.76 254.34,-166.85"/>
<polygon fill="red" stroke="red" stroke-width="0.44" points="256.88,-164.45 247.45,-159.63 251.82,-169.28 256.88,-164.45"/>
</g>
<!-- Power Pellet Right -->
<g id="node5" class="node">
<title>Power Pellet Right</title>
<polygon fill="lightblue" stroke="black" points="503,-434.38 420.25,-434.38 420.25,-415.88 503,-415.88 503,-434.38"/>
<text text-anchor="middle" x="461.62" y="-421.83" font-family="Times,serif" font-size="9.00">Power Pellet Right</text>
</g>
<!-- Power Pellet Left -->
<g id="node6" class="node">
<title>Power Pellet Left</title>
<polygon fill="lightblue" stroke="black" points="315.38,-434.38 237.88,-434.38 237.88,-415.88 315.38,-415.88 315.38,-434.38"/>
<text text-anchor="middle" x="276.62" y="-421.83" font-family="Times,serif" font-size="9.00">Power Pellet Left</text>
</g>
<!-- 21787 -->
<g id="node24" class="node">
<title>21787</title>
<ellipse fill="white" stroke="black" cx="321.62" cy="-352.66" rx="27.22" ry="27.22"/>
<text text-anchor="middle" x="321.62" y="-349.36" font-family="Times,serif" font-size="9.00">21787</text>
</g>
<!-- Power Pellet Left&#45;&gt;21787 -->
<g id="edge14" class="edge">
<title>Power Pellet Left&#45;&gt;21787</title>
<path fill="none" stroke="red" stroke-width="0.15" d="M282.14,-415.49C287.08,-407.76 294.63,-395.94 301.8,-384.7"/>
<polygon fill="red" stroke="red" stroke-width="0.15" points="304.61,-386.8 307.05,-376.49 298.71,-383.04 304.61,-386.8"/>
</g>
<!-- Power Pellet Up -->
<g id="node7" class="node">
<title>Power Pellet Up</title>
<polygon fill="lightblue" stroke="black" points="595.88,-434.38 521.38,-434.38 521.38,-415.88 595.88,-415.88 595.88,-434.38"/>
<text text-anchor="middle" x="558.62" y="-421.83" font-family="Times,serif" font-size="9.00">Power Pellet Up</text>
</g>
<!-- Power Pellet Down -->
<g id="node8" class="node">
<title>Power Pellet Down</title>
<polygon fill="lightblue" stroke="black" points="467.5,-148.13 381.75,-148.13 381.75,-129.63 467.5,-129.63 467.5,-148.13"/>
<text text-anchor="middle" x="424.62" y="-135.58" font-family="Times,serif" font-size="9.00">Power Pellet Down</text>
</g>
<!-- Power Pellet Down&#45;&gt;Move Up -->
<g id="edge15" class="edge">
<title>Power Pellet Down&#45;&gt;Move Up</title>
<path fill="none" stroke="red" stroke-width="0.14" d="M410.62,-129.27C386.71,-114.56 337.22,-84.11 302.29,-62.62"/>
<polygon fill="red" stroke="red" stroke-width="0.14" points="304.28,-59.73 293.93,-57.47 300.61,-65.7 304.28,-59.73"/>
</g>
<!-- Ghost Info Right -->
<g id="node9" class="node">
<title>Ghost Info Right</title>
<polygon fill="lightblue" stroke="black" points="691,-434.38 614.25,-434.38 614.25,-415.88 691,-415.88 691,-434.38"/>
<text text-anchor="middle" x="652.62" y="-421.83" font-family="Times,serif" font-size="9.00">Ghost Info Right</text>
</g>
<!-- Ghost Info Left -->
<g id="node10" class="node">
<title>Ghost Info Left</title>
<polygon fill="lightblue" stroke="black" points="525.38,-361.91 453.88,-361.91 453.88,-343.41 525.38,-343.41 525.38,-361.91"/>
<text text-anchor="middle" x="489.62" y="-349.36" font-family="Times,serif" font-size="9.00">Ghost Info Left</text>
</g>
<!-- Move Right -->
<g id="node18" class="node">
<title>Move Right</title>
<ellipse fill="lightblue" stroke="black" cx="577.62" cy="-245.77" rx="41.54" ry="41.54"/>
<text text-anchor="middle" x="577.62" y="-242.47" font-family="Times,serif" font-size="9.00">Move Right</text>
</g>
<!-- Ghost Info Left&#45;&gt;Move Right -->
<g id="edge3" class="edge">
<title>Ghost Info Left&#45;&gt;Move Right</title>
<path fill="none" stroke="red" stroke-width="0.1" d="M496.83,-343.08C507.28,-330.61 527.33,-306.72 544.84,-285.84"/>
<polygon fill="red" stroke="red" stroke-width="0.1" points="547.31,-288.35 551.05,-278.44 541.95,-283.85 547.31,-288.35"/>
</g>
<!-- Ghost Info Left&#45;&gt;Move Up -->
<g id="edge4" class="edge">
<title>Ghost Info Left&#45;&gt;Move Up</title>
<path fill="none" stroke="green" stroke-width="0.84" stroke-dasharray="1,5" d="M492.21,-343.1C501.8,-309.49 532.01,-184.87 476.62,-111.66 437.79,-60.34 360.79,-44.91 310.78,-40.43"/>
<polygon fill="green" stroke="green" stroke-width="0.84" points="311.13,-36.95 300.89,-39.67 310.59,-43.93 311.13,-36.95"/>
</g>
<!-- Ghost Info Up -->
<g id="node11" class="node">
<title>Ghost Info Up</title>
<polygon fill="lightblue" stroke="black" points="401.88,-434.38 333.38,-434.38 333.38,-415.88 401.88,-415.88 401.88,-434.38"/>
<text text-anchor="middle" x="367.62" y="-421.83" font-family="Times,serif" font-size="9.00">Ghost Info Up</text>
</g>
<!-- Ghost Info Up&#45;&gt;21787 -->
<g id="edge12" class="edge">
<title>Ghost Info Up&#45;&gt;21787</title>
<path fill="none" stroke="red" stroke-width="0.16" stroke-dasharray="1,5" d="M361.98,-415.49C356.9,-407.7 349.11,-395.76 341.72,-384.45"/>
<polygon fill="red" stroke="red" stroke-width="0.16" points="344.73,-382.66 336.34,-376.2 338.87,-386.48 344.73,-382.66"/>
</g>
<!-- Ghost Info Down -->
<g id="node12" class="node">
<title>Ghost Info Down</title>
<polygon fill="lightblue" stroke="black" points="623.5,-361.91 543.75,-361.91 543.75,-343.41 623.5,-343.41 623.5,-361.91"/>
<text text-anchor="middle" x="583.62" y="-349.36" font-family="Times,serif" font-size="9.00">Ghost Info Down</text>
</g>
<!-- Ghost Info Down&#45;&gt;Move Right -->
<g id="edge11" class="edge">
<title>Ghost Info Down&#45;&gt;Move Right</title>
<path fill="none" stroke="green" stroke-width="1.09" d="M583.13,-343.08C582.56,-333.12 581.58,-315.87 580.6,-298.7"/>
<polygon fill="green" stroke="green" stroke-width="1.09" points="584.11,-298.93 580.05,-289.15 577.13,-299.33 584.11,-298.93"/>
</g>
<!-- PAC&#45;MAN Right -->
<g id="node13" class="node">
<title>PAC&#45;MAN Right</title>
<polygon fill="lightblue" stroke="black" points="788.12,-434.38 709.12,-434.38 709.12,-415.88 788.12,-415.88 788.12,-434.38"/>
<text text-anchor="middle" x="748.62" y="-421.83" font-family="Times,serif" font-size="9.00">PAC&#45;MAN Right</text>
</g>
<!-- PAC&#45;MAN Left -->
<g id="node14" class="node">
<title>PAC&#45;MAN Left</title>
<polygon fill="lightblue" stroke="black" points="873.5,-361.91 799.75,-361.91 799.75,-343.41 873.5,-343.41 873.5,-361.91"/>
<text text-anchor="middle" x="836.62" y="-349.36" font-family="Times,serif" font-size="9.00">PAC&#45;MAN Left</text>
</g>
<!-- PAC&#45;MAN Left&#45;&gt;Move Down -->
<g id="edge20" class="edge">
<title>PAC&#45;MAN Left&#45;&gt;Move Down</title>
<path fill="none" stroke="green" stroke-width="0.2" d="M830.16,-343.08C821.29,-331.29 804.71,-309.29 789.65,-289.29"/>
<polygon fill="green" stroke="green" stroke-width="0.2" points="792.53,-287.29 783.71,-281.41 786.94,-291.5 792.53,-287.29"/>
</g>
<!-- PAC&#45;MAN Up -->
<g id="node15" class="node">
<title>PAC&#45;MAN Up</title>
<polygon fill="lightblue" stroke="black" points="146,-148.13 75.25,-148.13 75.25,-129.63 146,-129.63 146,-148.13"/>
<text text-anchor="middle" x="110.62" y="-135.58" font-family="Times,serif" font-size="9.00">PAC&#45;MAN Up</text>
</g>
<!-- PAC&#45;MAN Up&#45;&gt;Move Left -->
<g id="edge5" class="edge">
<title>PAC&#45;MAN Up&#45;&gt;Move Left</title>
<path fill="none" stroke="green" d="M107.13,-129.44C102.9,-119.21 95.44,-101.2 88.28,-83.91"/>
<polygon fill="green" stroke="green" points="91.54,-82.62 84.48,-74.72 85.07,-85.3 91.54,-82.62"/>
</g>
<!-- PAC&#45;MAN Up&#45;&gt;Move Up -->
<g id="edge6" class="edge">
<title>PAC&#45;MAN Up&#45;&gt;Move Up</title>
<path fill="none" stroke="green" stroke-width="0.31" d="M123.94,-129.27C146.29,-114.79 192.19,-85.08 225.28,-63.66"/>
<polygon fill="green" stroke="green" stroke-width="0.31" points="226.93,-66.76 233.42,-58.39 223.12,-60.88 226.93,-66.76"/>
</g>
<!-- PACM&#45;MAN Down -->
<g id="node16" class="node">
<title>PACM&#45;MAN Down</title>
<polygon fill="lightblue" stroke="black" points="896.75,-434.38 806.5,-434.38 806.5,-415.88 896.75,-415.88 896.75,-434.38"/>
<text text-anchor="middle" x="851.62" y="-421.83" font-family="Times,serif" font-size="9.00">PACM&#45;MAN Down</text>
</g>
<!-- Power&#45;Up Time -->
<g id="node17" class="node">
<title>Power&#45;Up Time</title>
<polygon fill="lightblue" stroke="black" points="715.5,-361.91 641.75,-361.91 641.75,-343.41 715.5,-343.41 715.5,-361.91"/>
<text text-anchor="middle" x="678.62" y="-349.36" font-family="Times,serif" font-size="9.00">Power&#45;Up Time</text>
</g>
<!-- Power&#45;Up Time&#45;&gt;Move Right -->
<g id="edge22" class="edge">
<title>Power&#45;Up Time&#45;&gt;Move Right</title>
<path fill="none" stroke="green" stroke-width="0.38" d="M670.36,-343.08C657.97,-330.21 633.84,-305.15 613.3,-283.82"/>
<polygon fill="green" stroke="green" stroke-width="0.38" points="616.06,-281.64 606.6,-276.87 611.02,-286.5 616.06,-281.64"/>
</g>
<!-- Power&#45;Up Time&#45;&gt;Move Down -->
<g id="edge7" class="edge">
<title>Power&#45;Up Time&#45;&gt;Move Down</title>
<path fill="none" stroke="green" stroke-width="0.57" d="M685.09,-343.08C693.89,-331.4 710.24,-309.68 725.2,-289.82"/>
<polygon fill="green" stroke="green" stroke-width="0.57" points="727.98,-291.94 731.2,-281.85 722.39,-287.73 727.98,-291.94"/>
</g>
<!-- 23712&#45;&gt;Move Up -->
<g id="edge19" class="edge">
<title>23712&#45;&gt;Move Up</title>
<path fill="none" stroke="green" stroke-width="0.49" d="M237.46,-112.89C240.77,-103.51 244.64,-92.55 248.37,-81.99"/>
<polygon fill="green" stroke="green" stroke-width="0.49" points="251.61,-83.34 251.64,-72.75 245.01,-81.01 251.61,-83.34"/>
</g>
<!-- 22792 -->
<g id="node23" class="node">
<title>22792</title>
<ellipse fill="white" stroke="black" cx="228.62" cy="-245.77" rx="27.22" ry="27.22"/>
<text text-anchor="middle" x="228.62" y="-242.47" font-family="Times,serif" font-size="9.00">22792</text>
</g>
<!-- 22792&#45;&gt;Move Up -->
<g id="edge16" class="edge">
<title>22792&#45;&gt;Move Up</title>
<path fill="none" stroke="green" stroke-width="0.32" d="M213.97,-222.56C198.2,-195.69 177.29,-149.36 192.62,-111.66 199.8,-94.02 213.53,-78.32 227.02,-66.05"/>
<polygon fill="green" stroke="green" stroke-width="0.32" points="229.25,-68.75 234.51,-59.55 224.67,-63.46 229.25,-68.75"/>
</g>
<!-- 22792&#45;&gt;23712 -->
<g id="edge21" class="edge">
<title>22792&#45;&gt;23712</title>
<path fill="none" stroke="green" stroke-width="0.34" d="M228.62,-218.3C228.62,-205.63 228.62,-190.26 228.62,-176.49"/>
<polygon fill="green" stroke="green" stroke-width="0.34" points="232.13,-176.86 228.63,-166.86 225.13,-176.86 232.13,-176.86"/>
</g>
<!-- 21787&#45;&gt;Move Right -->
<g id="edge13" class="edge">
<title>21787&#45;&gt;Move Right</title>
<path fill="none" stroke="green" stroke-width="0.43" stroke-dasharray="1,5" d="M346.64,-341.41C388.92,-324.09 475.22,-288.73 529.53,-266.48"/>
<polygon fill="green" stroke="green" stroke-width="0.43" points="530.76,-269.76 538.68,-262.73 528.1,-263.28 530.76,-269.76"/>
</g>
<!-- 21787&#45;&gt;22792 -->
<g id="edge17" class="edge">
<title>21787&#45;&gt;22792</title>
<path fill="none" stroke="green" stroke-width="0.26" d="M304.13,-331.93C289.68,-315.63 268.99,-292.3 252.93,-274.18"/>
<polygon fill="green" stroke="green" stroke-width="0.26" points="255.87,-272.22 246.61,-267.06 250.63,-276.86 255.87,-272.22"/>
</g>
</g>
</svg>
