<?xml version="1.0" encoding="UTF-8" standalone="no"?>
<!DOCTYPE svg PUBLIC "-//W3C//DTD SVG 1.1//EN"
 "http://www.w3.org/Graphics/SVG/1.1/DTD/svg11.dtd">
<!-- Generated by graphviz version 12.0.0 (20240704.0754)
 -->
<!-- Pages: 1 -->
<svg width="1685pt" height="269pt"
 viewBox="0.00 0.00 1685.47 268.91" xmlns="http://www.w3.org/2000/svg" xmlns:xlink="http://www.w3.org/1999/xlink">
<g id="graph0" class="graph" transform="scale(1 1) rotate(0) translate(4 264.91)">
<polygon fill="white" stroke="none" points="-4,4 -4,-264.91 1681.47,-264.91 1681.47,4 -4,4"/>
<!-- Pellet Right -->
<g id="node1" class="node">
<title>Pellet Right</title>
<polygon fill="lightblue" stroke="black" points="567.85,-260.91 510.6,-260.91 510.6,-242.41 567.85,-242.41 567.85,-260.91"/>
<text text-anchor="middle" x="539.22" y="-248.36" font-family="Times,serif" font-size="9.00">Pellet Right</text>
</g>
<!-- Move Right -->
<g id="node18" class="node">
<title>Move Right</title>
<ellipse fill="lightblue" stroke="black" cx="896.22" cy="-41.54" rx="41.54" ry="41.54"/>
<text text-anchor="middle" x="896.22" y="-38.24" font-family="Times,serif" font-size="9.00">Move Right</text>
</g>
<!-- Pellet Right&#45;&gt;Move Right -->
<g id="edge23" class="edge">
<title>Pellet Right&#45;&gt;Move Right</title>
<path fill="none" stroke="red" stroke-width="0.18" stroke-dasharray="1,5" d="M568.28,-249.6C632.28,-246.72 782.87,-236.81 822.22,-206.41 855.72,-180.54 842.77,-157.65 860.22,-119.09 864.72,-109.15 869.64,-98.54 874.35,-88.48"/>
<polygon fill="red" stroke="red" stroke-width="0.18" points="877.4,-90.22 878.49,-79.68 871.07,-87.24 877.4,-90.22"/>
</g>
<!-- Move Down -->
<g id="node21" class="node">
<title>Move Down</title>
<ellipse fill="lightblue" stroke="black" cx="360.22" cy="-162.75" rx="43.66" ry="43.66"/>
<text text-anchor="middle" x="360.22" y="-159.45" font-family="Times,serif" font-size="9.00">Move Down</text>
</g>
<!-- Pellet Right&#45;&gt;Move Down -->
<g id="edge1" class="edge">
<title>Pellet Right&#45;&gt;Move Down</title>
<path fill="none" stroke="red" stroke-width="0.66" stroke-dasharray="1,5" d="M510.12,-242.57C484.98,-234.99 448.08,-222.43 418.22,-206.41 413.06,-203.64 407.84,-200.46 402.77,-197.1"/>
<polygon fill="red" stroke="red" stroke-width="0.66" points="404.85,-194.29 394.63,-191.49 400.88,-200.05 404.85,-194.29"/>
</g>
<!-- Pellet Left -->
<g id="node2" class="node">
<title>Pellet Left</title>
<polygon fill="lightblue" stroke="black" points="1585.22,-172 1533.22,-172 1533.22,-153.5 1585.22,-153.5 1585.22,-172"/>
<text text-anchor="middle" x="1559.22" y="-159.45" font-family="Times,serif" font-size="9.00">Pellet Left</text>
</g>
<!-- Move Left -->
<g id="node19" class="node">
<title>Move Left</title>
<ellipse fill="lightblue" stroke="black" cx="1361.22" cy="-41.54" rx="37.83" ry="37.83"/>
<text text-anchor="middle" x="1361.22" y="-38.24" font-family="Times,serif" font-size="9.00">Move Left</text>
</g>
<!-- Pellet Left&#45;&gt;Move Left -->
<g id="edge2" class="edge">
<title>Pellet Left&#45;&gt;Move Left</title>
<path fill="none" stroke="green" stroke-width="0.4" stroke-dasharray="1,5" d="M1553.94,-153.26C1547.76,-143.89 1536.77,-128.85 1524.22,-119.09 1488.63,-91.38 1441.39,-70.6 1406.94,-57.73"/>
<polygon fill="green" stroke="green" stroke-width="0.4" points="1408.28,-54.49 1397.69,-54.35 1405.88,-61.07 1408.28,-54.49"/>
</g>
<!-- Pellet Up -->
<g id="node3" class="node">
<title>Pellet Up</title>
<polygon fill="lightblue" stroke="black" points="121.72,-172 72.72,-172 72.72,-153.5 121.72,-153.5 121.72,-172"/>
<text text-anchor="middle" x="97.22" y="-159.45" font-family="Times,serif" font-size="9.00">Pellet Up</text>
</g>
<!-- Move Up -->
<g id="node20" class="node">
<title>Move Up</title>
<ellipse fill="lightblue" stroke="black" cx="360.22" cy="-41.54" rx="35.71" ry="35.71"/>
<text text-anchor="middle" x="360.22" y="-38.24" font-family="Times,serif" font-size="9.00">Move Up</text>
</g>
<!-- Pellet Up&#45;&gt;Move Up -->
<g id="edge3" class="edge">
<title>Pellet Up&#45;&gt;Move Up</title>
<path fill="none" stroke="green" stroke-width="0.46" stroke-dasharray="1,5" d="M101.89,-153.32C107.62,-143.73 118.18,-128.2 131.22,-119.09 187.55,-79.7 265.67,-59.36 314.56,-49.83"/>
<polygon fill="green" stroke="green" stroke-width="0.46" points="314.95,-53.32 324.14,-48.04 313.66,-46.44 314.95,-53.32"/>
</g>
<!-- Pellet Down -->
<g id="node4" class="node">
<title>Pellet Down</title>
<polygon fill="lightblue" stroke="black" points="1093.35,-172 1033.1,-172 1033.1,-153.5 1093.35,-153.5 1093.35,-172"/>
<text text-anchor="middle" x="1063.22" y="-159.45" font-family="Times,serif" font-size="9.00">Pellet Down</text>
</g>
<!-- Pellet Down&#45;&gt;Move Right -->
<g id="edge4" class="edge">
<title>Pellet Down&#45;&gt;Move Right</title>
<path fill="none" stroke="red" stroke-width="0.37" d="M1056.67,-153.21C1049.39,-144.07 1036.97,-129.49 1024.22,-119.09 999.03,-98.52 967.76,-79.72 942.43,-65.89"/>
<polygon fill="red" stroke="red" stroke-width="0.37" points="944.34,-62.95 933.88,-61.29 941.03,-69.11 944.34,-62.95"/>
</g>
<!-- Power Pellet Right -->
<g id="node5" class="node">
<title>Power Pellet Right</title>
<polygon fill="lightblue" stroke="black" points="222.6,-172 139.85,-172 139.85,-153.5 222.6,-153.5 222.6,-172"/>
<text text-anchor="middle" x="181.22" y="-159.45" font-family="Times,serif" font-size="9.00">Power Pellet Right</text>
</g>
<!-- Power Pellet Right&#45;&gt;Move Up -->
<g id="edge5" class="edge">
<title>Power Pellet Right&#45;&gt;Move Up</title>
<path fill="none" stroke="green" stroke-width="0.18" stroke-dasharray="1,5" d="M191.52,-153.23C202.39,-144.36 220.14,-130.24 236.22,-119.09 263.72,-100.02 295.9,-80.22 320.59,-65.54"/>
<polygon fill="green" stroke="green" stroke-width="0.18" points="322.26,-68.61 329.09,-60.51 318.7,-62.59 322.26,-68.61"/>
</g>
<!-- Power Pellet Left -->
<g id="node6" class="node">
<title>Power Pellet Left</title>
<polygon fill="lightblue" stroke="black" points="634.97,-172 557.47,-172 557.47,-153.5 634.97,-153.5 634.97,-172"/>
<text text-anchor="middle" x="596.22" y="-159.45" font-family="Times,serif" font-size="9.00">Power Pellet Left</text>
</g>
<!-- Power Pellet Left&#45;&gt;Move Right -->
<g id="edge28" class="edge">
<title>Power Pellet Left&#45;&gt;Move Right</title>
<path fill="none" stroke="red" stroke-width="0.45" d="M603.55,-153.34C612.32,-143.75 627.88,-128.24 644.22,-119.09 708.6,-83.01 791.95,-62 844.78,-51.4"/>
<polygon fill="red" stroke="red" stroke-width="0.45" points="845.43,-54.84 854.58,-49.48 844.09,-47.97 845.43,-54.84"/>
</g>
<!-- Power Pellet Left&#45;&gt;Move Up -->
<g id="edge24" class="edge">
<title>Power Pellet Left&#45;&gt;Move Up</title>
<path fill="none" stroke="green" stroke-width="0.27" d="M588.42,-153.26C579.46,-143.9 563.94,-128.86 548.22,-119.09 502.26,-90.48 443.76,-68.64 404.32,-55.75"/>
<polygon fill="green" stroke="green" stroke-width="0.27" points="405.45,-52.44 394.86,-52.71 403.31,-59.1 405.45,-52.44"/>
</g>
<!-- Power Pellet Up -->
<g id="node7" class="node">
<title>Power Pellet Up</title>
<polygon fill="lightblue" stroke="black" points="1677.47,-172 1602.97,-172 1602.97,-153.5 1677.47,-153.5 1677.47,-172"/>
<text text-anchor="middle" x="1640.22" y="-159.45" font-family="Times,serif" font-size="9.00">Power Pellet Up</text>
</g>
<!-- Power Pellet Up&#45;&gt;Move Left -->
<g id="edge29" class="edge">
<title>Power Pellet Up&#45;&gt;Move Left</title>
<path fill="none" stroke="green" stroke-width="0.15" d="M1632.94,-153.04C1624.52,-143.48 1609.8,-128.27 1594.22,-119.09 1534.81,-84.07 1457.3,-62.72 1408.38,-51.76"/>
<polygon fill="green" stroke="green" stroke-width="0.15" points="1409.13,-48.34 1398.61,-49.63 1407.64,-55.18 1409.13,-48.34"/>
</g>
<!-- Power Pellet Down -->
<g id="node8" class="node">
<title>Power Pellet Down</title>
<polygon fill="lightblue" stroke="black" points="1510.1,-260.91 1424.35,-260.91 1424.35,-242.41 1510.1,-242.41 1510.1,-260.91"/>
<text text-anchor="middle" x="1467.22" y="-248.36" font-family="Times,serif" font-size="9.00">Power Pellet Down</text>
</g>
<!-- Ghost Info Right -->
<g id="node9" class="node">
<title>Ghost Info Right</title>
<polygon fill="lightblue" stroke="black" points="288.6,-260.91 211.85,-260.91 211.85,-242.41 288.6,-242.41 288.6,-260.91"/>
<text text-anchor="middle" x="250.22" y="-248.36" font-family="Times,serif" font-size="9.00">Ghost Info Right</text>
</g>
<!-- Ghost Info Right&#45;&gt;Move Up -->
<g id="edge6" class="edge">
<title>Ghost Info Right&#45;&gt;Move Up</title>
<path fill="none" stroke="red" stroke-width="0.16" d="M251.76,-242.18C255.94,-220.52 268.85,-161.9 293.22,-119.09 302.42,-102.92 315.4,-87.1 327.48,-74.08"/>
<polygon fill="red" stroke="red" stroke-width="0.16" points="329.93,-76.58 334.29,-66.92 324.86,-71.75 329.93,-76.58"/>
</g>
<!-- Ghost Info Right&#45;&gt;Move Down -->
<g id="edge7" class="edge">
<title>Ghost Info Right&#45;&gt;Move Down</title>
<path fill="none" stroke="green" stroke-width="1.1" d="M261.17,-242.01C274.33,-231.61 297.2,-213.54 317.65,-197.39"/>
<polygon fill="green" stroke="green" stroke-width="1.1" points="319.55,-200.35 325.23,-191.4 315.21,-194.85 319.55,-200.35"/>
</g>
<!-- 13585 -->
<g id="node25" class="node">
<title>13585</title>
<ellipse fill="white" stroke="black" cx="27.22" cy="-162.75" rx="27.22" ry="27.22"/>
<text text-anchor="middle" x="27.22" y="-159.45" font-family="Times,serif" font-size="9.00">13585</text>
</g>
<!-- Ghost Info Right&#45;&gt;13585 -->
<g id="edge32" class="edge">
<title>Ghost Info Right&#45;&gt;13585</title>
<path fill="none" stroke="green" stroke-width="0.43" d="M211.36,-248.56C171.53,-244.85 109.13,-234.63 63.22,-206.41 57.7,-203.02 52.6,-198.48 48.08,-193.63"/>
<polygon fill="green" stroke="green" stroke-width="0.43" points="51.05,-191.72 41.91,-186.37 45.72,-196.25 51.05,-191.72"/>
</g>
<!-- Ghost Info Left -->
<g id="node10" class="node">
<title>Ghost Info Left</title>
<polygon fill="lightblue" stroke="black" points="724.97,-172 653.47,-172 653.47,-153.5 724.97,-153.5 724.97,-172"/>
<text text-anchor="middle" x="689.22" y="-159.45" font-family="Times,serif" font-size="9.00">Ghost Info Left</text>
</g>
<!-- Ghost Info Left&#45;&gt;Move Right -->
<g id="edge8" class="edge">
<title>Ghost Info Left&#45;&gt;Move Right</title>
<path fill="none" stroke="green" stroke-width="0.4" stroke-dasharray="1,5" d="M696.84,-153.04C705.28,-143.76 719.65,-129.06 734.22,-119.09 769.86,-94.7 814.47,-74.26 847.85,-60.65"/>
<polygon fill="green" stroke="green" stroke-width="0.4" points="848.85,-64.02 856.82,-57.05 846.24,-57.53 848.85,-64.02"/>
</g>
<!-- Ghost Info Left&#45;&gt;Move Up -->
<g id="edge9" class="edge">
<title>Ghost Info Left&#45;&gt;Move Up</title>
<path fill="none" stroke="red" stroke-width="0.2" d="M682.52,-153.23C674.45,-143.54 660,-127.93 644.22,-119.09 567.12,-75.85 464.43,-56.09 406.02,-47.82"/>
<polygon fill="red" stroke="red" stroke-width="0.2" points="406.68,-44.38 396.3,-46.5 405.73,-51.32 406.68,-44.38"/>
</g>
<!-- Ghost Info Up -->
<g id="node11" class="node">
<title>Ghost Info Up</title>
<polygon fill="lightblue" stroke="black" points="746.47,-260.91 677.97,-260.91 677.97,-242.41 746.47,-242.41 746.47,-260.91"/>
<text text-anchor="middle" x="712.22" y="-248.36" font-family="Times,serif" font-size="9.00">Ghost Info Up</text>
</g>
<!-- Ghost Info Up&#45;&gt;Move Left -->
<g id="edge10" class="edge">
<title>Ghost Info Up&#45;&gt;Move Left</title>
<path fill="none" stroke="green" stroke-width="0.12" d="M746.67,-250.19C865.72,-248.28 1254.93,-239.54 1299.22,-206.41 1335.78,-179.07 1350.79,-127.46 1356.94,-89.44"/>
<polygon fill="green" stroke="green" stroke-width="0.12" points="1360.37,-90.18 1358.36,-79.77 1353.44,-89.16 1360.37,-90.18"/>
</g>
<!-- Ghost Info Up&#45;&gt;Move Up -->
<g id="edge11" class="edge">
<title>Ghost Info Up&#45;&gt;Move Up</title>
<path fill="none" stroke="green" stroke-width="0.49" d="M677.96,-248.85C615.41,-244.9 485.97,-233.61 451.22,-206.41 417.89,-180.32 433.81,-156.07 413.22,-119.09 405.69,-105.56 396.38,-91.45 387.67,-79.07"/>
<polygon fill="green" stroke="green" stroke-width="0.49" points="390.57,-77.1 381.9,-71 384.87,-81.17 390.57,-77.1"/>
</g>
<!-- Ghost Info Up&#45;&gt;Move Down -->
<g id="edge12" class="edge">
<title>Ghost Info Up&#45;&gt;Move Down</title>
<path fill="none" stroke="red" stroke-width="0.21" stroke-dasharray="1,5" d="M677.51,-247.55C610.22,-241.17 464.62,-225.58 418.22,-206.41 412.46,-204.03 406.74,-200.96 401.27,-197.56"/>
<polygon fill="red" stroke="red" stroke-width="0.21" points="403.43,-194.79 393.17,-192.16 399.56,-200.62 403.43,-194.79"/>
</g>
<!-- 12768 -->
<g id="node22" class="node">
<title>12768</title>
<ellipse fill="white" stroke="black" cx="896.22" cy="-162.75" rx="27.22" ry="27.22"/>
<text text-anchor="middle" x="896.22" y="-159.45" font-family="Times,serif" font-size="9.00">12768</text>
</g>
<!-- Ghost Info Up&#45;&gt;12768 -->
<g id="edge26" class="edge">
<title>Ghost Info Up&#45;&gt;12768</title>
<path fill="none" stroke="green" stroke-width="0.2" d="M746.91,-245.01C777.2,-238.94 821.49,-227.22 855.22,-206.41 861.6,-202.48 867.66,-197.33 873.08,-191.98"/>
<polygon fill="green" stroke="green" stroke-width="0.2" points="875.49,-194.52 879.83,-184.86 870.41,-189.71 875.49,-194.52"/>
</g>
<!-- Ghost Info Down -->
<g id="node12" class="node">
<title>Ghost Info Down</title>
<polygon fill="lightblue" stroke="black" points="400.1,-260.91 320.35,-260.91 320.35,-242.41 400.1,-242.41 400.1,-260.91"/>
<text text-anchor="middle" x="360.22" y="-248.36" font-family="Times,serif" font-size="9.00">Ghost Info Down</text>
</g>
<!-- Ghost Info Down&#45;&gt;Move Left -->
<g id="edge22" class="edge">
<title>Ghost Info Down&#45;&gt;Move Left</title>
<path fill="none" stroke="green" stroke-width="0.52" d="M400.33,-248.19C428.54,-246.49 467.19,-244.21 501.22,-242.41 586.2,-237.93 1197.38,-256.43 1266.22,-206.41 1299.79,-182.03 1278.57,-155.07 1299.22,-119.09 1307.53,-104.61 1318.52,-90.04 1328.94,-77.56"/>
<polygon fill="green" stroke="green" stroke-width="0.52" points="1331.33,-80.15 1335.16,-70.27 1326,-75.61 1331.33,-80.15"/>
</g>
<!-- Ghost Info Down&#45;&gt;Move Up -->
<g id="edge13" class="edge">
<title>Ghost Info Down&#45;&gt;Move Up</title>
<path fill="none" stroke="red" stroke-width="0.32" d="M343.38,-241.95C330.84,-234.43 314.64,-222.26 307.22,-206.41 290.78,-171.26 295.65,-156.13 307.22,-119.09 311.96,-103.92 320.88,-89.11 330.06,-76.63"/>
<polygon fill="red" stroke="red" stroke-width="0.32" points="332.79,-78.82 336.12,-68.76 327.25,-74.55 332.79,-78.82"/>
</g>
<!-- Ghost Info Down&#45;&gt;Move Down -->
<g id="edge36" class="edge">
<title>Ghost Info Down&#45;&gt;Move Down</title>
<path fill="none" stroke="green" stroke-width="0.64" d="M360.22,-242.01C360.22,-235.9 360.22,-227.13 360.22,-217.66"/>
<polygon fill="green" stroke="green" stroke-width="0.64" points="363.72,-217.74 360.22,-207.74 356.72,-217.74 363.72,-217.74"/>
</g>
<!-- PAC&#45;MAN Right -->
<g id="node13" class="node">
<title>PAC&#45;MAN Right</title>
<polygon fill="lightblue" stroke="black" points="539.72,-172 460.72,-172 460.72,-153.5 539.72,-153.5 539.72,-172"/>
<text text-anchor="middle" x="500.22" y="-159.45" font-family="Times,serif" font-size="9.00">PAC&#45;MAN Right</text>
</g>
<!-- PAC&#45;MAN Right&#45;&gt;Move Right -->
<g id="edge14" class="edge">
<title>PAC&#45;MAN Right&#45;&gt;Move Right</title>
<path fill="none" stroke="red" stroke-width="0.28" stroke-dasharray="1,5" d="M507.42,-153.11C516.08,-143.31 531.54,-127.59 548.22,-119.09 645.53,-69.47 774.15,-51.88 844.61,-45.75"/>
<polygon fill="red" stroke="red" stroke-width="0.28" points="844.47,-49.27 854.14,-44.96 843.89,-42.29 844.47,-49.27"/>
</g>
<!-- PAC&#45;MAN Right&#45;&gt;Move Up -->
<g id="edge15" class="edge">
<title>PAC&#45;MAN Right&#45;&gt;Move Up</title>
<path fill="none" stroke="green" stroke-width="0.64" stroke-dasharray="1,5" d="M490.16,-153.18C470.59,-136.51 426.59,-99.05 395.23,-72.35"/>
<polygon fill="green" stroke="green" stroke-width="0.64" points="397.77,-69.91 387.89,-66.1 393.23,-75.24 397.77,-69.91"/>
</g>
<!-- PAC&#45;MAN Left -->
<g id="node14" class="node">
<title>PAC&#45;MAN Left</title>
<polygon fill="lightblue" stroke="black" points="1015.1,-172 941.35,-172 941.35,-153.5 1015.1,-153.5 1015.1,-172"/>
<text text-anchor="middle" x="978.22" y="-159.45" font-family="Times,serif" font-size="9.00">PAC&#45;MAN Left</text>
</g>
<!-- PAC&#45;MAN Left&#45;&gt;Move Right -->
<g id="edge16" class="edge">
<title>PAC&#45;MAN Left&#45;&gt;Move Right</title>
<path fill="none" stroke="green" stroke-width="0.43" stroke-dasharray="1,5" d="M972.33,-153.18C962.57,-138.99 942.45,-109.74 925.34,-84.88"/>
<polygon fill="green" stroke="green" stroke-width="0.43" points="928.37,-83.09 919.81,-76.84 922.6,-87.06 928.37,-83.09"/>
</g>
<!-- PAC&#45;MAN Up -->
<g id="node15" class="node">
<title>PAC&#45;MAN Up</title>
<polygon fill="lightblue" stroke="black" points="813.6,-172 742.85,-172 742.85,-153.5 813.6,-153.5 813.6,-172"/>
<text text-anchor="middle" x="778.22" y="-159.45" font-family="Times,serif" font-size="9.00">PAC&#45;MAN Up</text>
</g>
<!-- PAC&#45;MAN Up&#45;&gt;Move Left -->
<g id="edge17" class="edge">
<title>PAC&#45;MAN Up&#45;&gt;Move Left</title>
<path fill="none" stroke="red" stroke-width="0.29" stroke-dasharray="1,5" d="M791.55,-153.06C807.29,-143.21 834.6,-127.46 860.22,-119.09 1020.73,-66.66 1222.13,-49.82 1312.91,-44.68"/>
<polygon fill="red" stroke="red" stroke-width="0.29" points="1312.93,-48.18 1322.72,-44.14 1312.55,-41.19 1312.93,-48.18"/>
</g>
<!-- PAC&#45;MAN Up&#45;&gt;Move Up -->
<g id="edge18" class="edge">
<title>PAC&#45;MAN Up&#45;&gt;Move Up</title>
<path fill="none" stroke="green" stroke-width="0.36" d="M771.8,-153.05C764.04,-143.2 750.03,-127.43 734.22,-119.09 626.28,-62.07 480.06,-47.48 406.52,-43.77"/>
<polygon fill="green" stroke="green" stroke-width="0.36" points="406.9,-40.29 396.75,-43.33 406.58,-47.28 406.9,-40.29"/>
</g>
<!-- PACM&#45;MAN Down -->
<g id="node16" class="node">
<title>PACM&#45;MAN Down</title>
<polygon fill="lightblue" stroke="black" points="1406.35,-260.91 1316.1,-260.91 1316.1,-242.41 1406.35,-242.41 1406.35,-260.91"/>
<text text-anchor="middle" x="1361.22" y="-248.36" font-family="Times,serif" font-size="9.00">PACM&#45;MAN Down</text>
</g>
<!-- PACM&#45;MAN Down&#45;&gt;Move Left -->
<g id="edge19" class="edge">
<title>PACM&#45;MAN Down&#45;&gt;Move Left</title>
<path fill="none" stroke="green" stroke-width="0.17" stroke-dasharray="1,5" d="M1361.22,-241.99C1361.22,-216.43 1361.22,-140.11 1361.22,-89.64"/>
<polygon fill="green" stroke="green" stroke-width="0.17" points="1364.72,-89.85 1361.22,-79.85 1357.72,-89.85 1364.72,-89.85"/>
</g>
<!-- PACM&#45;MAN Down&#45;&gt;Move Down -->
<g id="edge20" class="edge">
<title>PACM&#45;MAN Down&#45;&gt;Move Down</title>
<path fill="none" stroke="red" stroke-width="0.66" d="M1315.62,-250.78C1155.21,-250.81 617.68,-247.77 451.22,-206.41 436.51,-202.76 421.29,-196.67 407.62,-190.22"/>
<polygon fill="red" stroke="red" stroke-width="0.66" points="409.38,-187.18 398.86,-185.92 406.3,-193.46 409.38,-187.18"/>
</g>
<!-- 13612 -->
<g id="node23" class="node">
<title>13612</title>
<ellipse fill="white" stroke="black" cx="1416.22" cy="-162.75" rx="27.22" ry="27.22"/>
<text text-anchor="middle" x="1416.22" y="-159.45" font-family="Times,serif" font-size="9.00">13612</text>
</g>
<!-- PACM&#45;MAN Down&#45;&gt;13612 -->
<g id="edge34" class="edge">
<title>PACM&#45;MAN Down&#45;&gt;13612</title>
<path fill="none" stroke="green" stroke-width="0.3" d="M1366.7,-242.01C1373.64,-231.04 1385.98,-211.53 1396.61,-194.74"/>
<polygon fill="green" stroke="green" stroke-width="0.3" points="1399.34,-196.97 1401.73,-186.64 1393.43,-193.22 1399.34,-196.97"/>
</g>
<!-- 13521 -->
<g id="node24" class="node">
<title>13521</title>
<ellipse fill="white" stroke="black" cx="1138.22" cy="-162.75" rx="27.22" ry="27.22"/>
<text text-anchor="middle" x="1138.22" y="-159.45" font-family="Times,serif" font-size="9.00">13521</text>
</g>
<!-- PACM&#45;MAN Down&#45;&gt;13521 -->
<g id="edge30" class="edge">
<title>PACM&#45;MAN Down&#45;&gt;13521</title>
<path fill="none" stroke="green" stroke-width="0.34" d="M1315.89,-247.92C1276.01,-243.73 1217.71,-233.14 1174.22,-206.41 1168.7,-203.02 1163.6,-198.48 1159.08,-193.63"/>
<polygon fill="green" stroke="green" stroke-width="0.34" points="1161.96,-191.61 1152.82,-186.26 1156.63,-196.15 1161.96,-191.61"/>
</g>
<!-- 13907 -->
<g id="node26" class="node">
<title>13907</title>
<ellipse fill="white" stroke="black" cx="1488.22" cy="-162.75" rx="27.22" ry="27.22"/>
<text text-anchor="middle" x="1488.22" y="-159.45" font-family="Times,serif" font-size="9.00">13907</text>
</g>
<!-- PACM&#45;MAN Down&#45;&gt;13907 -->
<g id="edge37" class="edge">
<title>PACM&#45;MAN Down&#45;&gt;13907</title>
<path fill="none" stroke="green" stroke-width="0.43" d="M1385.58,-242.05C1404.86,-234.51 1431.84,-222.27 1452.22,-206.41 1457.12,-202.6 1461.83,-198.02 1466.12,-193.3"/>
<polygon fill="green" stroke="green" stroke-width="0.43" points="1468.68,-195.7 1472.51,-185.83 1463.35,-191.16 1468.68,-195.7"/>
</g>
<!-- Power&#45;Up Time -->
<g id="node17" class="node">
<title>Power&#45;Up Time</title>
<polygon fill="lightblue" stroke="black" points="1257.1,-172 1183.35,-172 1183.35,-153.5 1257.1,-153.5 1257.1,-172"/>
<text text-anchor="middle" x="1220.22" y="-159.45" font-family="Times,serif" font-size="9.00">Power&#45;Up Time</text>
</g>
<!-- Power&#45;Up Time&#45;&gt;Move Right -->
<g id="edge25" class="edge">
<title>Power&#45;Up Time&#45;&gt;Move Right</title>
<path fill="none" stroke="red" stroke-width="0.12" d="M1213.32,-153.25C1205.02,-143.58 1190.21,-127.99 1174.22,-119.09 1101.41,-78.52 1005.71,-58.35 947.7,-49.19"/>
<polygon fill="red" stroke="red" stroke-width="0.12" points="948.26,-45.74 937.85,-47.69 947.21,-52.66 948.26,-45.74"/>
</g>
<!-- Power&#45;Up Time&#45;&gt;Move Left -->
<g id="edge21" class="edge">
<title>Power&#45;Up Time&#45;&gt;Move Left</title>
<path fill="none" stroke="red" stroke-width="0.14" stroke-dasharray="1,5" d="M1230.36,-153.18C1249.86,-136.69 1293.45,-99.84 1324.97,-73.19"/>
<polygon fill="red" stroke="red" stroke-width="0.14" points="1327.17,-75.92 1332.55,-66.79 1322.65,-70.57 1327.17,-75.92"/>
</g>
<!-- 12768&#45;&gt;Move Right -->
<g id="edge27" class="edge">
<title>12768&#45;&gt;Move Right</title>
<path fill="none" stroke="red" stroke-width="0.15" stroke-dasharray="1,5" d="M896.22,-135.29C896.22,-122.92 896.22,-107.75 896.22,-93.3"/>
<polygon fill="red" stroke="red" stroke-width="0.15" points="899.72,-93.67 896.22,-83.67 892.72,-93.67 899.72,-93.67"/>
</g>
<!-- 13612&#45;&gt;Move Left -->
<g id="edge35" class="edge">
<title>13612&#45;&gt;Move Left</title>
<path fill="none" stroke="red" stroke-width="0.19" d="M1405.09,-137.63C1398.14,-122.56 1389,-102.75 1380.86,-85.11"/>
<polygon fill="red" stroke="red" stroke-width="0.19" points="1384.2,-83.99 1376.83,-76.38 1377.85,-86.92 1384.2,-83.99"/>
</g>
<!-- 13521&#45;&gt;Move Right -->
<g id="edge31" class="edge">
<title>13521&#45;&gt;Move Right</title>
<path fill="none" stroke="green" stroke-width="0.52" d="M1123.24,-139.74C1117.38,-132.39 1110.15,-124.66 1102.22,-119.09 1054.94,-85.84 991.47,-65.13 947.53,-53.77"/>
<polygon fill="green" stroke="green" stroke-width="0.52" points="948.41,-50.38 937.85,-51.34 946.7,-57.17 948.41,-50.38"/>
</g>
<!-- 13585&#45;&gt;Move Up -->
<g id="edge33" class="edge">
<title>13585&#45;&gt;Move Up</title>
<path fill="none" stroke="red" stroke-width="0.17" d="M41.89,-139.27C47.73,-131.88 55.02,-124.24 63.22,-119.09 142.49,-69.27 252.98,-51.78 314.41,-45.7"/>
<polygon fill="red" stroke="red" stroke-width="0.17" points="314.67,-49.19 324.3,-44.78 314.02,-42.22 314.67,-49.19"/>
</g>
<!-- 13907&#45;&gt;Move Left -->
<g id="edge38" class="edge">
<title>13907&#45;&gt;Move Left</title>
<path fill="none" stroke="red" stroke-width="0.99" d="M1471.69,-140.72C1465.8,-133.62 1458.94,-125.8 1452.22,-119.09 1435.95,-102.84 1416.62,-86.24 1399.96,-72.67"/>
<polygon fill="red" stroke="red" stroke-width="0.99" points="1402.17,-69.96 1392.19,-66.41 1397.78,-75.41 1402.17,-69.96"/>
</g>
</g>
</svg>
