<?xml version="1.0" encoding="UTF-8" standalone="no"?>
<!DOCTYPE svg PUBLIC "-//W3C//DTD SVG 1.1//EN"
 "http://www.w3.org/Graphics/SVG/1.1/DTD/svg11.dtd">
<!-- Generated by graphviz version 12.0.0 (20240704.0754)
 -->
<!-- Pages: 1 -->
<svg width="1231pt" height="240pt"
 viewBox="0.00 0.00 1231.38 240.27" xmlns="http://www.w3.org/2000/svg" xmlns:xlink="http://www.w3.org/1999/xlink">
<g id="graph0" class="graph" transform="scale(1 1) rotate(0) translate(4 236.27)">
<polygon fill="white" stroke="none" points="-4,4 -4,-236.27 1227.38,-236.27 1227.38,4 -4,4"/>
<!-- Pellet Right -->
<g id="node1" class="node">
<title>Pellet Right</title>
<polygon fill="lightblue" stroke="black" points="259.88,-159.8 202.62,-159.8 202.62,-141.3 259.88,-141.3 259.88,-159.8"/>
<text text-anchor="middle" x="231.25" y="-147.25" font-family="Times,serif" font-size="9.00">Pellet Right</text>
</g>
<!-- Move Left -->
<g id="node19" class="node">
<title>Move Left</title>
<ellipse fill="lightblue" stroke="black" cx="273.25" cy="-43.66" rx="37.83" ry="37.83"/>
<text text-anchor="middle" x="273.25" y="-40.36" font-family="Times,serif" font-size="9.00">Move Left</text>
</g>
<!-- Pellet Right&#45;&gt;Move Left -->
<g id="edge1" class="edge">
<title>Pellet Right&#45;&gt;Move Left</title>
<path fill="none" stroke="red" stroke-width="0.31" d="M234.69,-140.97C239.3,-129.45 247.83,-108.15 255.69,-88.51"/>
<polygon fill="red" stroke="red" stroke-width="0.31" points="258.84,-90.07 259.31,-79.49 252.34,-87.47 258.84,-90.07"/>
</g>
<!-- Pellet Left -->
<g id="node2" class="node">
<title>Pellet Left</title>
<polygon fill="lightblue" stroke="black" points="611.25,-159.8 559.25,-159.8 559.25,-141.3 611.25,-141.3 611.25,-159.8"/>
<text text-anchor="middle" x="585.25" y="-147.25" font-family="Times,serif" font-size="9.00">Pellet Left</text>
</g>
<!-- Move Right -->
<g id="node18" class="node">
<title>Move Right</title>
<ellipse fill="lightblue" stroke="black" cx="585.25" cy="-43.66" rx="41.54" ry="41.54"/>
<text text-anchor="middle" x="585.25" y="-40.36" font-family="Times,serif" font-size="9.00">Move Right</text>
</g>
<!-- Pellet Left&#45;&gt;Move Right -->
<g id="edge18" class="edge">
<title>Pellet Left&#45;&gt;Move Right</title>
<path fill="none" stroke="green" stroke-width="0.22" d="M585.25,-140.97C585.25,-130.82 585.25,-113.11 585.25,-95.61"/>
<polygon fill="green" stroke="green" stroke-width="0.22" points="588.75,-95.73 585.25,-85.73 581.75,-95.73 588.75,-95.73"/>
</g>
<!-- Pellet Left&#45;&gt;Move Left -->
<g id="edge20" class="edge">
<title>Pellet Left&#45;&gt;Move Left</title>
<path fill="none" stroke="green" stroke-width="0.2" d="M575.78,-140.94C569.08,-135.24 559.64,-127.98 550.25,-123.33 474.34,-85.73 377.56,-63.44 320.79,-52.67"/>
<polygon fill="green" stroke="green" stroke-width="0.2" points="321.44,-49.23 310.97,-50.84 320.17,-56.11 321.44,-49.23"/>
</g>
<!-- Move Up -->
<g id="node20" class="node">
<title>Move Up</title>
<ellipse fill="lightblue" stroke="black" cx="838.25" cy="-43.66" rx="35.71" ry="35.71"/>
<text text-anchor="middle" x="838.25" y="-40.36" font-family="Times,serif" font-size="9.00">Move Up</text>
</g>
<!-- Pellet Left&#45;&gt;Move Up -->
<g id="edge19" class="edge">
<title>Pellet Left&#45;&gt;Move Up</title>
<path fill="none" stroke="red" stroke-width="0.15" d="M595.12,-140.9C601.85,-135.32 611.16,-128.23 620.25,-123.33 677.21,-92.61 748.64,-69.44 793.88,-56.46"/>
<polygon fill="red" stroke="red" stroke-width="0.15" points="794.79,-59.84 803.46,-53.75 792.88,-53.1 794.79,-59.84"/>
</g>
<!-- Pellet Up -->
<g id="node3" class="node">
<title>Pellet Up</title>
<polygon fill="lightblue" stroke="black" points="862.75,-159.8 813.75,-159.8 813.75,-141.3 862.75,-141.3 862.75,-159.8"/>
<text text-anchor="middle" x="838.25" y="-147.25" font-family="Times,serif" font-size="9.00">Pellet Up</text>
</g>
<!-- Pellet Up&#45;&gt;Move Right -->
<g id="edge21" class="edge">
<title>Pellet Up&#45;&gt;Move Right</title>
<path fill="none" stroke="green" stroke-width="0.52" d="M828.7,-140.88C822.18,-135.29 813.14,-128.2 804.25,-123.33 749.68,-93.45 681.51,-71.05 635.85,-57.95"/>
<polygon fill="green" stroke="green" stroke-width="0.52" points="636.95,-54.62 626.37,-55.27 635.04,-61.36 636.95,-54.62"/>
</g>
<!-- Pellet Up&#45;&gt;Move Up -->
<g id="edge2" class="edge">
<title>Pellet Up&#45;&gt;Move Up</title>
<path fill="none" stroke="red" stroke-width="0.19" d="M838.25,-140.97C838.25,-129.69 838.25,-109.04 838.25,-89.74"/>
<polygon fill="red" stroke="red" stroke-width="0.19" points="841.75,-89.83 838.25,-79.83 834.75,-89.83 841.75,-89.83"/>
</g>
<!-- Pellet Down -->
<g id="node4" class="node">
<title>Pellet Down</title>
<polygon fill="lightblue" stroke="black" points="1223.38,-159.8 1163.12,-159.8 1163.12,-141.3 1223.38,-141.3 1223.38,-159.8"/>
<text text-anchor="middle" x="1193.25" y="-147.25" font-family="Times,serif" font-size="9.00">Pellet Down</text>
</g>
<!-- Move Down -->
<g id="node21" class="node">
<title>Move Down</title>
<ellipse fill="lightblue" stroke="black" cx="1057.25" cy="-43.66" rx="43.66" ry="43.66"/>
<text text-anchor="middle" x="1057.25" y="-40.36" font-family="Times,serif" font-size="9.00">Move Down</text>
</g>
<!-- Pellet Down&#45;&gt;Move Down -->
<g id="edge3" class="edge">
<title>Pellet Down&#45;&gt;Move Down</title>
<path fill="none" stroke="green" stroke-width="0.77" stroke-dasharray="1,5" d="M1182.12,-140.97C1164.41,-127.31 1128.9,-99.92 1100.26,-77.83"/>
<polygon fill="green" stroke="green" stroke-width="0.77" points="1102.59,-75.21 1092.54,-71.88 1098.32,-80.76 1102.59,-75.21"/>
</g>
<!-- Power Pellet Right -->
<g id="node5" class="node">
<title>Power Pellet Right</title>
<polygon fill="lightblue" stroke="black" points="452.62,-159.8 369.88,-159.8 369.88,-141.3 452.62,-141.3 452.62,-159.8"/>
<text text-anchor="middle" x="411.25" y="-147.25" font-family="Times,serif" font-size="9.00">Power Pellet Right</text>
</g>
<!-- Power Pellet Right&#45;&gt;Move Right -->
<g id="edge13" class="edge">
<title>Power Pellet Right&#45;&gt;Move Right</title>
<path fill="none" stroke="red" stroke-width="0.26" stroke-dasharray="1,5" d="M425.49,-140.97C450.44,-125.93 503,-94.24 541.04,-71.31"/>
<polygon fill="red" stroke="red" stroke-width="0.26" points="542.79,-74.35 549.55,-66.19 539.18,-68.35 542.79,-74.35"/>
</g>
<!-- Power Pellet Left -->
<g id="node6" class="node">
<title>Power Pellet Left</title>
<polygon fill="lightblue" stroke="black" points="1048,-159.8 970.5,-159.8 970.5,-141.3 1048,-141.3 1048,-159.8"/>
<text text-anchor="middle" x="1009.25" y="-147.25" font-family="Times,serif" font-size="9.00">Power Pellet Left</text>
</g>
<!-- Power Pellet Left&#45;&gt;Move Right -->
<g id="edge4" class="edge">
<title>Power Pellet Left&#45;&gt;Move Right</title>
<path fill="none" stroke="green" stroke-width="0.33" stroke-dasharray="1,5" d="M995.89,-140.86C986.53,-135.13 973.55,-127.86 961.25,-123.33 953.58,-120.5 737.12,-75.86 636.17,-55.12"/>
<polygon fill="green" stroke="green" stroke-width="0.33" points="636.89,-51.69 626.39,-53.11 635.48,-58.55 636.89,-51.69"/>
</g>
<!-- Power Pellet Left&#45;&gt;Move Up -->
<g id="edge5" class="edge">
<title>Power Pellet Left&#45;&gt;Move Up</title>
<path fill="none" stroke="red" stroke-width="0.14" stroke-dasharray="1,5" d="M995.26,-140.97C969.71,-125.3 914.67,-91.54 877.05,-68.46"/>
<polygon fill="red" stroke="red" stroke-width="0.14" points="878.89,-65.49 868.54,-63.24 875.23,-71.45 878.89,-65.49"/>
</g>
<!-- Power Pellet Left&#45;&gt;Move Down -->
<g id="edge14" class="edge">
<title>Power Pellet Left&#45;&gt;Move Down</title>
<path fill="none" stroke="green" stroke-width="0.24" d="M1013.18,-140.97C1018.02,-130.39 1026.64,-111.56 1034.97,-93.34"/>
<polygon fill="green" stroke="green" stroke-width="0.24" points="1038.16,-94.8 1039.14,-84.25 1031.79,-91.88 1038.16,-94.8"/>
</g>
<!-- Power Pellet Up -->
<g id="node7" class="node">
<title>Power Pellet Up</title>
<polygon fill="lightblue" stroke="black" points="74.5,-159.8 0,-159.8 0,-141.3 74.5,-141.3 74.5,-159.8"/>
<text text-anchor="middle" x="37.25" y="-147.25" font-family="Times,serif" font-size="9.00">Power Pellet Up</text>
</g>
<!-- Power Pellet Up&#45;&gt;Move Left -->
<g id="edge6" class="edge">
<title>Power Pellet Up&#45;&gt;Move Left</title>
<path fill="none" stroke="red" stroke-width="0.6" stroke-dasharray="1,5" d="M51.5,-140.81C60.46,-135.47 72.35,-128.66 83.25,-123.33 131.67,-99.62 189.08,-76.51 228.02,-61.54"/>
<polygon fill="red" stroke="red" stroke-width="0.6" points="229.06,-64.89 237.15,-58.05 226.56,-58.35 229.06,-64.89"/>
</g>
<!-- Power Pellet Down -->
<g id="node8" class="node">
<title>Power Pellet Down</title>
<polygon fill="lightblue" stroke="black" points="295.12,-232.27 209.38,-232.27 209.38,-213.77 295.12,-213.77 295.12,-232.27"/>
<text text-anchor="middle" x="252.25" y="-219.72" font-family="Times,serif" font-size="9.00">Power Pellet Down</text>
</g>
<!-- Ghost Info Right -->
<g id="node9" class="node">
<title>Ghost Info Right</title>
<polygon fill="lightblue" stroke="black" points="389.62,-232.27 312.88,-232.27 312.88,-213.77 389.62,-213.77 389.62,-232.27"/>
<text text-anchor="middle" x="351.25" y="-219.72" font-family="Times,serif" font-size="9.00">Ghost Info Right</text>
</g>
<!-- Ghost Info Left -->
<g id="node10" class="node">
<title>Ghost Info Left</title>
<polygon fill="lightblue" stroke="black" points="952,-159.8 880.5,-159.8 880.5,-141.3 952,-141.3 952,-159.8"/>
<text text-anchor="middle" x="916.25" y="-147.25" font-family="Times,serif" font-size="9.00">Ghost Info Left</text>
</g>
<!-- Ghost Info Left&#45;&gt;Move Up -->
<g id="edge7" class="edge">
<title>Ghost Info Left&#45;&gt;Move Up</title>
<path fill="none" stroke="red" stroke-width="0.31" stroke-dasharray="1,5" d="M909.87,-140.97C900.23,-128.01 881.4,-102.69 865.47,-81.26"/>
<polygon fill="red" stroke="red" stroke-width="0.31" points="868.36,-79.29 859.58,-73.35 862.74,-83.46 868.36,-79.29"/>
</g>
<!-- Ghost Info Up -->
<g id="node11" class="node">
<title>Ghost Info Up</title>
<polygon fill="lightblue" stroke="black" points="795.5,-159.8 727,-159.8 727,-141.3 795.5,-141.3 795.5,-159.8"/>
<text text-anchor="middle" x="761.25" y="-147.25" font-family="Times,serif" font-size="9.00">Ghost Info Up</text>
</g>
<!-- Ghost Info Up&#45;&gt;Move Right -->
<g id="edge8" class="edge">
<title>Ghost Info Up&#45;&gt;Move Right</title>
<path fill="none" stroke="red" stroke-width="0.2" stroke-dasharray="1,5" d="M747.34,-141C738.93,-135.85 727.99,-129.18 718.25,-123.33 688.83,-105.66 655.61,-86.01 629.72,-70.76"/>
<polygon fill="red" stroke="red" stroke-width="0.2" points="631.55,-67.78 621.15,-65.72 628,-73.81 631.55,-67.78"/>
</g>
<!-- Ghost Info Down -->
<g id="node12" class="node">
<title>Ghost Info Down</title>
<polygon fill="lightblue" stroke="black" points="709.12,-159.8 629.38,-159.8 629.38,-141.3 709.12,-141.3 709.12,-159.8"/>
<text text-anchor="middle" x="669.25" y="-147.25" font-family="Times,serif" font-size="9.00">Ghost Info Down</text>
</g>
<!-- Ghost Info Down&#45;&gt;Move Left -->
<g id="edge16" class="edge">
<title>Ghost Info Down&#45;&gt;Move Left</title>
<path fill="none" stroke="red" stroke-width="0.26" stroke-dasharray="1,5" d="M655.57,-140.94C645.99,-135.24 632.72,-127.98 620.25,-123.33 516.9,-84.76 388.88,-61.72 320.9,-51.31"/>
<polygon fill="red" stroke="red" stroke-width="0.26" points="321.72,-47.9 311.31,-49.87 320.68,-54.82 321.72,-47.9"/>
</g>
<!-- Ghost Info Down&#45;&gt;Move Down -->
<g id="edge9" class="edge">
<title>Ghost Info Down&#45;&gt;Move Down</title>
<path fill="none" stroke="green" stroke-width="0.23" stroke-dasharray="1,5" d="M682.92,-140.91C692.49,-135.19 705.76,-127.93 718.25,-123.33 788.68,-97.37 810.13,-104.27 883.25,-87.33 924.2,-77.84 970.42,-66.48 1004.92,-57.87"/>
<polygon fill="green" stroke="green" stroke-width="0.23" points="1005.58,-61.31 1014.43,-55.49 1003.88,-54.52 1005.58,-61.31"/>
</g>
<!-- PAC&#45;MAN Right -->
<g id="node13" class="node">
<title>PAC&#45;MAN Right</title>
<polygon fill="lightblue" stroke="black" points="1144.75,-159.8 1065.75,-159.8 1065.75,-141.3 1144.75,-141.3 1144.75,-159.8"/>
<text text-anchor="middle" x="1105.25" y="-147.25" font-family="Times,serif" font-size="9.00">PAC&#45;MAN Right</text>
</g>
<!-- PAC&#45;MAN Right&#45;&gt;Move Down -->
<g id="edge15" class="edge">
<title>PAC&#45;MAN Right&#45;&gt;Move Down</title>
<path fill="none" stroke="green" stroke-width="0.53" stroke-dasharray="1,5" d="M1101.32,-140.97C1096.5,-130.43 1087.94,-111.73 1079.64,-93.59"/>
<polygon fill="green" stroke="green" stroke-width="0.53" points="1082.89,-92.28 1075.55,-84.64 1076.52,-95.19 1082.89,-92.28"/>
</g>
<!-- PAC&#45;MAN Left -->
<g id="node14" class="node">
<title>PAC&#45;MAN Left</title>
<polygon fill="lightblue" stroke="black" points="481.12,-232.27 407.38,-232.27 407.38,-213.77 481.12,-213.77 481.12,-232.27"/>
<text text-anchor="middle" x="444.25" y="-219.72" font-family="Times,serif" font-size="9.00">PAC&#45;MAN Left</text>
</g>
<!-- PAC&#45;MAN Up -->
<g id="node15" class="node">
<title>PAC&#45;MAN Up</title>
<polygon fill="lightblue" stroke="black" points="541.62,-159.8 470.88,-159.8 470.88,-141.3 541.62,-141.3 541.62,-159.8"/>
<text text-anchor="middle" x="506.25" y="-147.25" font-family="Times,serif" font-size="9.00">PAC&#45;MAN Up</text>
</g>
<!-- PAC&#45;MAN Up&#45;&gt;Move Right -->
<g id="edge17" class="edge">
<title>PAC&#45;MAN Up&#45;&gt;Move Right</title>
<path fill="none" stroke="red" stroke-width="0.14" d="M512.71,-140.97C521.89,-128.79 539.29,-105.68 554.75,-85.16"/>
<polygon fill="red" stroke="red" stroke-width="0.14" points="557.43,-87.41 560.65,-77.32 551.84,-83.2 557.43,-87.41"/>
</g>
<!-- PAC&#45;MAN Up&#45;&gt;Move Left -->
<g id="edge10" class="edge">
<title>PAC&#45;MAN Up&#45;&gt;Move Left</title>
<path fill="none" stroke="green" stroke-width="0.15" d="M492.72,-141.04C483.92,-135.66 472.1,-128.73 461.25,-123.33 413.37,-99.49 356.47,-76.37 317.91,-61.44"/>
<polygon fill="green" stroke="green" stroke-width="0.15" points="319.32,-58.23 308.73,-57.9 316.8,-64.76 319.32,-58.23"/>
</g>
<!-- PAC&#45;MAN Up&#45;&gt;Move Up -->
<g id="edge22" class="edge">
<title>PAC&#45;MAN Up&#45;&gt;Move Up</title>
<path fill="none" stroke="red" stroke-width="0.19" d="M518.48,-141.03C527.05,-135.37 538.96,-128.13 550.25,-123.33 632.82,-88.22 735.41,-64.62 793.19,-53.02"/>
<polygon fill="red" stroke="red" stroke-width="0.19" points="793.69,-56.49 802.82,-51.12 792.33,-49.62 793.69,-56.49"/>
</g>
<!-- PACM&#45;MAN Down -->
<g id="node16" class="node">
<title>PACM&#45;MAN Down</title>
<polygon fill="lightblue" stroke="black" points="191.38,-232.27 101.12,-232.27 101.12,-213.77 191.38,-213.77 191.38,-232.27"/>
<text text-anchor="middle" x="146.25" y="-219.72" font-family="Times,serif" font-size="9.00">PACM&#45;MAN Down</text>
</g>
<!-- PACM&#45;MAN Down&#45;&gt;Move Left -->
<g id="edge11" class="edge">
<title>PACM&#45;MAN Down&#45;&gt;Move Left</title>
<path fill="none" stroke="green" stroke-width="0.1" d="M149.23,-213.29C155.58,-195.38 171.66,-153.62 193.25,-123.33 205.78,-105.74 222.46,-88.64 237.35,-74.89"/>
<polygon fill="green" stroke="green" stroke-width="0.1" points="239.31,-77.84 244.37,-68.53 234.61,-72.65 239.31,-77.84"/>
</g>
<!-- 21106 -->
<g id="node22" class="node">
<title>21106</title>
<ellipse fill="white" stroke="black" cx="119.25" cy="-150.55" rx="27.22" ry="27.22"/>
<text text-anchor="middle" x="119.25" y="-147.25" font-family="Times,serif" font-size="9.00">21106</text>
</g>
<!-- PACM&#45;MAN Down&#45;&gt;21106 -->
<g id="edge24" class="edge">
<title>PACM&#45;MAN Down&#45;&gt;21106</title>
<path fill="none" stroke="green" stroke-width="0.27" d="M142.94,-213.38C140.27,-206.42 136.33,-196.14 132.43,-185.96"/>
<polygon fill="green" stroke="green" stroke-width="0.27" points="135.74,-184.8 128.89,-176.72 129.2,-187.31 135.74,-184.8"/>
</g>
<!-- Power&#45;Up Time -->
<g id="node17" class="node">
<title>Power&#45;Up Time</title>
<polygon fill="lightblue" stroke="black" points="352.12,-159.8 278.38,-159.8 278.38,-141.3 352.12,-141.3 352.12,-159.8"/>
<text text-anchor="middle" x="315.25" y="-147.25" font-family="Times,serif" font-size="9.00">Power&#45;Up Time</text>
</g>
<!-- Power&#45;Up Time&#45;&gt;Move Right -->
<g id="edge23" class="edge">
<title>Power&#45;Up Time&#45;&gt;Move Right</title>
<path fill="none" stroke="green" stroke-width="0.32" d="M329,-140.84C337.96,-135.38 350.04,-128.44 361.25,-123.33 419.59,-96.72 489.76,-73.4 535.82,-59.2"/>
<polygon fill="green" stroke="green" stroke-width="0.32" points="536.56,-62.63 545.1,-56.36 534.52,-55.93 536.56,-62.63"/>
</g>
<!-- Power&#45;Up Time&#45;&gt;Move Left -->
<g id="edge12" class="edge">
<title>Power&#45;Up Time&#45;&gt;Move Left</title>
<path fill="none" stroke="red" stroke-width="0.37" stroke-dasharray="1,5" d="M311.81,-140.97C307.22,-129.5 298.75,-108.35 290.92,-88.78"/>
<polygon fill="red" stroke="red" stroke-width="0.37" points="294.2,-87.56 287.23,-79.58 287.7,-90.17 294.2,-87.56"/>
</g>
<!-- 21106&#45;&gt;Move Left -->
<g id="edge25" class="edge">
<title>21106&#45;&gt;Move Left</title>
<path fill="none" stroke="green" stroke-width="0.21" d="M141.64,-134.3C165.79,-117.86 204.69,-91.36 233.95,-71.43"/>
<polygon fill="green" stroke="green" stroke-width="0.21" points="235.75,-74.44 242.05,-65.91 231.81,-68.65 235.75,-74.44"/>
</g>
</g>
</svg>
