<?xml version="1.0" encoding="UTF-8" standalone="no"?>
<!DOCTYPE svg PUBLIC "-//W3C//DTD SVG 1.1//EN"
 "http://www.w3.org/Graphics/SVG/1.1/DTD/svg11.dtd">
<!-- Generated by graphviz version 12.0.0 (20240704.0754)
 -->
<!-- Pages: 1 -->
<svg width="2508pt" height="318pt"
 viewBox="0.00 0.00 2507.62 317.99" xmlns="http://www.w3.org/2000/svg" xmlns:xlink="http://www.w3.org/1999/xlink">
<g id="graph0" class="graph" transform="scale(1 1) rotate(0) translate(4 313.99)">
<polygon fill="white" stroke="none" points="-4,4 -4,-313.99 2503.62,-313.99 2503.62,4 -4,4"/>
<!-- Pellet Right -->
<g id="node1" class="node">
<title>Pellet Right</title>
<polygon fill="lightblue" stroke="black" points="611.65,-240.7 554.4,-240.7 554.4,-222.2 611.65,-222.2 611.65,-240.7"/>
<text text-anchor="middle" x="583.03" y="-228.15" font-family="Times,serif" font-size="9.00">Pellet Right</text>
</g>
<!-- Move Left -->
<g id="node19" class="node">
<title>Move Left</title>
<ellipse fill="lightblue" stroke="black" cx="1517.03" cy="-43.66" rx="37.83" ry="37.83"/>
<text text-anchor="middle" x="1517.03" y="-40.36" font-family="Times,serif" font-size="9.00">Move Left</text>
</g>
<!-- Pellet Right&#45;&gt;Move Left -->
<g id="edge59" class="edge">
<title>Pellet Right&#45;&gt;Move Left</title>
<path fill="none" stroke="red" stroke-width="0.25" d="M590.13,-221.96C608.59,-200.63 660.62,-144.92 718.03,-123.33 871.5,-65.6 1299.68,-139.8 1455.03,-87.33 1463.66,-84.41 1472.19,-79.92 1480.04,-74.92"/>
<polygon fill="red" stroke="red" stroke-width="0.25" points="1481.96,-77.85 1488.26,-69.33 1478.02,-72.06 1481.96,-77.85"/>
</g>
<!-- Move Up -->
<g id="node20" class="node">
<title>Move Up</title>
<ellipse fill="lightblue" stroke="black" cx="1000.03" cy="-43.66" rx="35.71" ry="35.71"/>
<text text-anchor="middle" x="1000.03" y="-40.36" font-family="Times,serif" font-size="9.00">Move Up</text>
</g>
<!-- Pellet Right&#45;&gt;Move Up -->
<g id="edge60" class="edge">
<title>Pellet Right&#45;&gt;Move Up</title>
<path fill="none" stroke="red" stroke-width="0.11" d="M554.22,-231.09C511.35,-230.27 431.87,-221.6 395.03,-171.41 382.38,-154.18 380.92,-139.38 395.03,-123.33 431.9,-81.35 819,-55.13 953.94,-47.21"/>
<polygon fill="red" stroke="red" stroke-width="0.11" points="954.02,-50.71 963.8,-46.64 953.61,-43.72 954.02,-50.71"/>
</g>
<!-- Move Down -->
<g id="node21" class="node">
<title>Move Down</title>
<ellipse fill="lightblue" stroke="black" cx="1130.03" cy="-43.66" rx="43.66" ry="43.66"/>
<text text-anchor="middle" x="1130.03" y="-40.36" font-family="Times,serif" font-size="9.00">Move Down</text>
</g>
<!-- Pellet Right&#45;&gt;Move Down -->
<g id="edge61" class="edge">
<title>Pellet Right&#45;&gt;Move Down</title>
<path fill="none" stroke="green" stroke-width="0.33" d="M586.02,-221.87C593.87,-200.81 617.23,-146.62 657.03,-123.33 731.77,-79.6 961.78,-111.16 1045.03,-87.33 1058.06,-83.6 1071.47,-77.87 1083.68,-71.82"/>
<polygon fill="green" stroke="green" stroke-width="0.33" points="1085.02,-75.06 1092.31,-67.38 1081.82,-68.84 1085.02,-75.06"/>
</g>
<!-- 55 -->
<g id="node26" class="node">
<title>55</title>
<ellipse fill="white" stroke="black" cx="1130.03" cy="-147.37" rx="17.68" ry="17.68"/>
<text text-anchor="middle" x="1130.03" y="-144.07" font-family="Times,serif" font-size="9.00">55</text>
</g>
<!-- Pellet Right&#45;&gt;55 -->
<g id="edge1" class="edge">
<title>Pellet Right&#45;&gt;55</title>
<path fill="none" stroke="green" stroke-width="0.58" d="M593.68,-221.93C600.72,-216.79 610.41,-210.63 620.03,-207.41 792.26,-149.84 847.59,-199.29 1027.03,-171.41 1052.85,-167.4 1081.86,-160.71 1102.5,-155.57"/>
<polygon fill="green" stroke="green" stroke-width="0.58" points="1103.35,-158.96 1112.18,-153.11 1101.63,-152.18 1103.35,-158.96"/>
</g>
<!-- 57 -->
<g id="node28" class="node">
<title>57</title>
<ellipse fill="white" stroke="black" cx="1000.03" cy="-147.37" rx="17.68" ry="17.68"/>
<text text-anchor="middle" x="1000.03" y="-144.07" font-family="Times,serif" font-size="9.00">57</text>
</g>
<!-- Pellet Right&#45;&gt;57 -->
<g id="edge2" class="edge">
<title>Pellet Right&#45;&gt;57</title>
<path fill="none" stroke="red" stroke-width="0.28" d="M594.07,-221.92C601.12,-216.91 610.66,-210.89 620.03,-207.41 653.09,-195.13 890.43,-162.9 972.33,-152.02"/>
<polygon fill="red" stroke="red" stroke-width="0.28" points="972.73,-155.5 982.18,-150.71 971.81,-148.56 972.73,-155.5"/>
</g>
<!-- Pellet Left -->
<g id="node2" class="node">
<title>Pellet Left</title>
<polygon fill="lightblue" stroke="black" points="1241.03,-240.7 1189.03,-240.7 1189.03,-222.2 1241.03,-222.2 1241.03,-240.7"/>
<text text-anchor="middle" x="1215.03" y="-228.15" font-family="Times,serif" font-size="9.00">Pellet Left</text>
</g>
<!-- Move Right -->
<g id="node18" class="node">
<title>Move Right</title>
<ellipse fill="lightblue" stroke="black" cx="1404.03" cy="-43.66" rx="41.54" ry="41.54"/>
<text text-anchor="middle" x="1404.03" y="-40.36" font-family="Times,serif" font-size="9.00">Move Right</text>
</g>
<!-- Pellet Left&#45;&gt;Move Right -->
<g id="edge62" class="edge">
<title>Pellet Left&#45;&gt;Move Right</title>
<path fill="none" stroke="green" stroke-width="0.18" d="M1223.89,-221.74C1249.12,-196.94 1322.42,-124.88 1367.37,-80.7"/>
<polygon fill="green" stroke="green" stroke-width="0.18" points="1369.72,-83.3 1374.4,-73.79 1364.81,-78.3 1369.72,-83.3"/>
</g>
<!-- Pellet Left&#45;&gt;Move Left -->
<g id="edge63" class="edge">
<title>Pellet Left&#45;&gt;Move Left</title>
<path fill="none" stroke="red" stroke-width="0.11" d="M1230.4,-221.75C1268.78,-199.92 1371.72,-140.75 1455.03,-87.33 1462.62,-82.46 1470.63,-77.11 1478.27,-71.9"/>
<polygon fill="red" stroke="red" stroke-width="0.11" points="1479.99,-74.97 1486.25,-66.42 1476.03,-69.2 1479.99,-74.97"/>
</g>
<!-- Pellet Left&#45;&gt;Move Up -->
<g id="edge64" class="edge">
<title>Pellet Left&#45;&gt;Move Up</title>
<path fill="none" stroke="red" stroke-width="0.27" d="M1192.39,-221.73C1168.56,-211.85 1130.73,-194.13 1103.03,-171.41 1071.97,-145.94 1043.74,-109.85 1024.72,-82.69"/>
<polygon fill="red" stroke="red" stroke-width="0.27" points="1027.67,-80.79 1019.11,-74.54 1021.9,-84.76 1027.67,-80.79"/>
</g>
<!-- Pellet Left&#45;&gt;Move Down -->
<g id="edge65" class="edge">
<title>Pellet Left&#45;&gt;Move Down</title>
<path fill="none" stroke="green" stroke-width="0.2" d="M1211.15,-221.99C1200.91,-199.59 1172.47,-137.44 1152.17,-93.05"/>
<polygon fill="green" stroke="green" stroke-width="0.2" points="1155.44,-91.78 1148.09,-84.15 1149.07,-94.7 1155.44,-91.78"/>
</g>
<!-- Pellet Left&#45;&gt;55 -->
<g id="edge3" class="edge">
<title>Pellet Left&#45;&gt;55</title>
<path fill="none" stroke="green" stroke-width="0.37" d="M1206.25,-221.98C1192.96,-209.15 1167.4,-184.46 1149.56,-167.23"/>
<polygon fill="green" stroke="green" stroke-width="0.37" points="1152.47,-165.18 1142.85,-160.75 1147.61,-170.21 1152.47,-165.18"/>
</g>
<!-- 56 -->
<g id="node27" class="node">
<title>56</title>
<ellipse fill="white" stroke="black" cx="1488.03" cy="-147.37" rx="17.68" ry="17.68"/>
<text text-anchor="middle" x="1488.03" y="-144.07" font-family="Times,serif" font-size="9.00">56</text>
</g>
<!-- Pellet Left&#45;&gt;56 -->
<g id="edge4" class="edge">
<title>Pellet Left&#45;&gt;56</title>
<path fill="none" stroke="green" stroke-width="0.38" d="M1231.63,-221.74C1241.42,-216.92 1254.17,-211.15 1266.03,-207.41 1347.99,-181.54 1377.06,-205.33 1456.03,-171.41 1459.64,-169.86 1463.24,-167.85 1466.65,-165.66"/>
<polygon fill="green" stroke="green" stroke-width="0.38" points="1468.53,-168.62 1474.66,-159.97 1464.48,-162.91 1468.53,-168.62"/>
</g>
<!-- Pellet Left&#45;&gt;57 -->
<g id="edge5" class="edge">
<title>Pellet Left&#45;&gt;57</title>
<path fill="none" stroke="red" stroke-width="0.33" d="M1192.43,-221.82C1152.29,-206.5 1068.79,-174.62 1026.22,-158.37"/>
<polygon fill="red" stroke="red" stroke-width="0.33" points="1027.62,-155.16 1017.03,-154.86 1025.12,-161.7 1027.62,-155.16"/>
</g>
<!-- Pellet Up -->
<g id="node3" class="node">
<title>Pellet Up</title>
<polygon fill="lightblue" stroke="black" points="2356.53,-240.7 2307.53,-240.7 2307.53,-222.2 2356.53,-222.2 2356.53,-240.7"/>
<text text-anchor="middle" x="2332.03" y="-228.15" font-family="Times,serif" font-size="9.00">Pellet Up</text>
</g>
<!-- Pellet Up&#45;&gt;Move Right -->
<g id="edge66" class="edge">
<title>Pellet Up&#45;&gt;Move Right</title>
<path fill="none" stroke="green" stroke-width="0.22" d="M2356.83,-226.53C2386.1,-220.43 2433.52,-205.59 2455.03,-171.41 2466.41,-153.32 2469.86,-138.71 2455.03,-123.33 2417.02,-83.91 1522.26,-103.78 1470.03,-87.33 1461.42,-84.62 1452.86,-80.46 1444.89,-75.79"/>
<polygon fill="green" stroke="green" stroke-width="0.22" points="1446.8,-72.85 1436.46,-70.52 1443.09,-78.78 1446.8,-72.85"/>
</g>
<!-- Pellet Up&#45;&gt;Move Left -->
<g id="edge67" class="edge">
<title>Pellet Up&#45;&gt;Move Left</title>
<path fill="none" stroke="red" stroke-width="0.25" d="M2356.98,-229.3C2392.95,-226.13 2458.32,-214.42 2488.03,-171.41 2500.17,-153.83 2502.52,-139.04 2488.03,-123.33 2424.97,-54.95 1753.31,-46 1565.54,-44.84"/>
<polygon fill="red" stroke="red" stroke-width="0.25" points="1565.57,-41.34 1555.55,-44.78 1565.53,-48.34 1565.57,-41.34"/>
</g>
<!-- Pellet Up&#45;&gt;Move Up -->
<g id="edge68" class="edge">
<title>Pellet Up&#45;&gt;Move Up</title>
<path fill="none" stroke="red" stroke-width="0.1" d="M2307.06,-222.23C2242.15,-201.27 2062.41,-145.93 1908.03,-123.33 1725.14,-96.55 1254.94,-137.45 1077.03,-87.33 1063.42,-83.49 1049.58,-76.85 1037.47,-69.94"/>
<polygon fill="red" stroke="red" stroke-width="0.1" points="1039.5,-67.08 1029.11,-64.98 1035.92,-73.09 1039.5,-67.08"/>
</g>
<!-- Pellet Up&#45;&gt;Move Down -->
<g id="edge69" class="edge">
<title>Pellet Up&#45;&gt;Move Down</title>
<path fill="none" stroke="green" stroke-width="0.38" d="M2333.19,-221.76C2335.43,-200.93 2337.77,-148.08 2308.03,-123.33 2267.22,-89.37 1405.78,-93.33 1353.03,-87.33 1294.17,-80.63 1227.56,-67.09 1182.59,-57.05"/>
<polygon fill="green" stroke="green" stroke-width="0.38" points="1183.58,-53.69 1173.05,-54.9 1182.04,-60.52 1183.58,-53.69"/>
</g>
<!-- 5520 -->
<g id="node25" class="node">
<title>5520</title>
<ellipse fill="white" stroke="black" cx="2422.03" cy="-147.37" rx="24.04" ry="24.04"/>
<text text-anchor="middle" x="2422.03" y="-144.07" font-family="Times,serif" font-size="9.00">5520</text>
</g>
<!-- Pellet Up&#45;&gt;5520 -->
<g id="edge129" class="edge">
<title>Pellet Up&#45;&gt;5520</title>
<path fill="none" stroke="red" stroke-width="0.14" d="M2341.32,-221.98C2354.37,-210.08 2378.59,-187.99 2397.11,-171.1"/>
<polygon fill="red" stroke="red" stroke-width="0.14" points="2399.46,-173.69 2404.49,-164.36 2394.75,-168.51 2399.46,-173.69"/>
</g>
<!-- Pellet Up&#45;&gt;55 -->
<g id="edge6" class="edge">
<title>Pellet Up&#45;&gt;55</title>
<path fill="none" stroke="green" stroke-width="0.6" d="M2307.2,-223.76C2286.06,-218.36 2254.78,-211.08 2227.03,-207.41 1889.15,-162.73 1801.27,-191.25 1461.03,-171.41 1349.12,-164.89 1216.09,-154.97 1158.71,-150.58"/>
<polygon fill="green" stroke="green" stroke-width="0.6" points="1159.1,-147.1 1148.87,-149.83 1158.57,-154.08 1159.1,-147.1"/>
</g>
<!-- Pellet Up&#45;&gt;56 -->
<g id="edge7" class="edge">
<title>Pellet Up&#45;&gt;56</title>
<path fill="none" stroke="red" stroke-width="0.15" d="M2307.17,-223.99C2286.01,-218.74 2254.72,-211.54 2227.03,-207.41 1951.87,-166.42 1614.53,-152.56 1516.17,-149.24"/>
<polygon fill="red" stroke="red" stroke-width="0.15" points="1516.47,-145.74 1506.36,-148.91 1516.24,-152.74 1516.47,-145.74"/>
</g>
<!-- Pellet Up&#45;&gt;57 -->
<g id="edge8" class="edge">
<title>Pellet Up&#45;&gt;57</title>
<path fill="none" stroke="red" stroke-width="0.23" stroke-dasharray="1,5" d="M2307.22,-223.65C2286.08,-218.19 2254.81,-210.87 2227.03,-207.41 1731.06,-145.58 1598.87,-234.25 1103.03,-171.41 1076.87,-168.1 1047.57,-161.23 1026.93,-155.85"/>
<polygon fill="red" stroke="red" stroke-width="0.23" points="1027.89,-152.48 1017.32,-153.29 1026.08,-159.24 1027.89,-152.48"/>
</g>
<!-- Pellet Down -->
<g id="node4" class="node">
<title>Pellet Down</title>
<polygon fill="lightblue" stroke="black" points="405.15,-240.7 344.9,-240.7 344.9,-222.2 405.15,-222.2 405.15,-240.7"/>
<text text-anchor="middle" x="375.03" y="-228.15" font-family="Times,serif" font-size="9.00">Pellet Down</text>
</g>
<!-- Pellet Down&#45;&gt;Move Right -->
<g id="edge70" class="edge">
<title>Pellet Down&#45;&gt;Move Right</title>
<path fill="none" stroke="green" stroke-width="0.26" d="M372.05,-221.71C365.69,-201.23 353.41,-149.9 380.03,-123.33 411.63,-91.78 1138.68,-92.57 1183.03,-87.33 1242.07,-80.34 1308.99,-66.59 1353.58,-56.58"/>
<polygon fill="green" stroke="green" stroke-width="0.26" points="1354.21,-60.03 1363.19,-54.4 1352.66,-53.2 1354.21,-60.03"/>
</g>
<!-- Pellet Down&#45;&gt;Move Left -->
<g id="edge71" class="edge">
<title>Pellet Down&#45;&gt;Move Left</title>
<path fill="none" stroke="green" stroke-width="0.34" d="M390.78,-221.81C430.8,-200.36 540.2,-144.89 639.03,-123.33 816.37,-84.64 1282.93,-145.01 1455.03,-87.33 1463.67,-84.43 1472.2,-79.95 1480.05,-74.95"/>
<polygon fill="green" stroke="green" stroke-width="0.34" points="1481.85,-77.96 1488.15,-69.45 1477.92,-72.17 1481.85,-77.96"/>
</g>
<!-- Pellet Down&#45;&gt;Move Up -->
<g id="edge72" class="edge">
<title>Pellet Down&#45;&gt;Move Up</title>
<path fill="none" stroke="red" stroke-width="0.29" d="M347.89,-221.74C332.27,-216.98 312.19,-211.28 294.03,-207.41 178.96,-182.91 -36.68,-209.86 43.03,-123.33 105.29,-55.74 770.18,-46.22 953.47,-44.88"/>
<polygon fill="red" stroke="red" stroke-width="0.29" points="953.42,-48.38 963.4,-44.82 953.38,-41.38 953.42,-48.38"/>
</g>
<!-- Pellet Down&#45;&gt;Move Down -->
<g id="edge73" class="edge">
<title>Pellet Down&#45;&gt;Move Down</title>
<path fill="none" stroke="red" stroke-width="0.4" d="M389.09,-221.84C424.38,-200.72 520.18,-146.38 608.03,-123.33 796.53,-73.87 857.4,-140 1045.03,-87.33 1058.08,-83.66 1071.49,-77.96 1083.71,-71.91"/>
<polygon fill="red" stroke="red" stroke-width="0.4" points="1084.96,-75.2 1092.25,-67.52 1081.75,-68.98 1084.96,-75.2"/>
</g>
<!-- 5152 -->
<g id="node22" class="node">
<title>5152</title>
<ellipse fill="white" stroke="black" cx="76.03" cy="-147.37" rx="24.04" ry="24.04"/>
<text text-anchor="middle" x="76.03" y="-144.07" font-family="Times,serif" font-size="9.00">5152</text>
</g>
<!-- Pellet Down&#45;&gt;5152 -->
<g id="edge126" class="edge">
<title>Pellet Down&#45;&gt;5152</title>
<path fill="none" stroke="red" stroke-width="0.29" d="M346.69,-221.79C331.2,-217.21 311.65,-211.67 294.03,-207.41 214.73,-188.23 190.05,-201.01 114.03,-171.41 110.86,-170.18 107.67,-168.69 104.54,-167.07"/>
<polygon fill="red" stroke="red" stroke-width="0.29" points="106.28,-164.03 95.86,-162.15 102.83,-170.13 106.28,-164.03"/>
</g>
<!-- Pellet Down&#45;&gt;55 -->
<g id="edge9" class="edge">
<title>Pellet Down&#45;&gt;55</title>
<path fill="none" stroke="green" stroke-width="0.6" stroke-dasharray="1,5" d="M405.36,-225.78C439.32,-220.68 496.01,-212.56 545.03,-207.41 758.67,-184.97 814.54,-202.94 1027.03,-171.41 1052.87,-167.58 1081.88,-160.86 1102.51,-155.67"/>
<polygon fill="green" stroke="green" stroke-width="0.6" points="1103.35,-159.07 1112.16,-153.19 1101.61,-152.29 1103.35,-159.07"/>
</g>
<!-- Pellet Down&#45;&gt;56 -->
<g id="edge10" class="edge">
<title>Pellet Down&#45;&gt;56</title>
<path fill="none" stroke="green" stroke-width="0.31" d="M405.35,-225.63C439.29,-220.41 495.97,-212.17 545.03,-207.41 816.22,-181.09 885.12,-188.87 1157.03,-171.41 1269.13,-164.21 1402.5,-154.61 1459.7,-150.44"/>
<polygon fill="green" stroke="green" stroke-width="0.31" points="1459.9,-153.94 1469.62,-149.72 1459.39,-146.96 1459.9,-153.94"/>
</g>
<!-- Pellet Down&#45;&gt;57 -->
<g id="edge11" class="edge">
<title>Pellet Down&#45;&gt;57</title>
<path fill="none" stroke="red" stroke-width="0.23" d="M405.42,-226.28C439.43,-221.62 496.16,-213.89 545.03,-207.41 628.81,-196.3 886.32,-163.04 971.98,-151.99"/>
<polygon fill="red" stroke="red" stroke-width="0.23" points="972.41,-155.46 981.88,-150.71 971.51,-148.52 972.41,-155.46"/>
</g>
<!-- Power Pellet Right -->
<g id="node5" class="node">
<title>Power Pellet Right</title>
<polygon fill="lightblue" stroke="black" points="1917.4,-240.7 1834.65,-240.7 1834.65,-222.2 1917.4,-222.2 1917.4,-240.7"/>
<text text-anchor="middle" x="1876.03" y="-228.15" font-family="Times,serif" font-size="9.00">Power Pellet Right</text>
</g>
<!-- Power Pellet Right&#45;&gt;Move Right -->
<g id="edge74" class="edge">
<title>Power Pellet Right&#45;&gt;Move Right</title>
<path fill="none" stroke="red" stroke-width="0.12" d="M1886.1,-221.97C1908.09,-202.48 1956.24,-153.84 1928.03,-123.33 1858.72,-48.36 1566.74,-120.04 1470.03,-87.33 1461.39,-84.41 1452.77,-80.1 1444.73,-75.34"/>
<polygon fill="red" stroke="red" stroke-width="0.12" points="1446.76,-72.48 1436.43,-70.13 1443.04,-78.41 1446.76,-72.48"/>
</g>
<!-- Power Pellet Right&#45;&gt;Move Left -->
<g id="edge75" class="edge">
<title>Power Pellet Right&#45;&gt;Move Left</title>
<path fill="none" stroke="green" stroke-width="0.33" d="M1900.99,-221.86C1922.56,-212.96 1952.35,-196.73 1966.03,-171.41 1976.18,-152.61 1979.77,-139.69 1966.03,-123.33 1915.22,-62.84 1670.58,-48.85 1565.34,-45.63"/>
<polygon fill="green" stroke="green" stroke-width="0.33" points="1565.6,-42.13 1555.5,-45.35 1565.4,-49.13 1565.6,-42.13"/>
</g>
<!-- Power Pellet Right&#45;&gt;Move Up -->
<g id="edge76" class="edge">
<title>Power Pellet Right&#45;&gt;Move Up</title>
<path fill="none" stroke="green" stroke-width="0.25" d="M1859.75,-221.8C1818.93,-200.57 1708.36,-146.02 1609.03,-123.33 1377.99,-70.56 1304.34,-154.36 1077.03,-87.33 1063.59,-83.37 1049.91,-76.77 1037.88,-69.94"/>
<polygon fill="green" stroke="green" stroke-width="0.25" points="1039.75,-66.98 1029.36,-64.91 1036.19,-73.01 1039.75,-66.98"/>
</g>
<!-- Power Pellet Right&#45;&gt;Move Down -->
<g id="edge77" class="edge">
<title>Power Pellet Right&#45;&gt;Move Down</title>
<path fill="none" stroke="red" stroke-width="0.28" d="M1881.09,-221.86C1892.23,-201.7 1915.91,-151 1890.03,-123.33 1849.18,-79.65 1412.34,-94.96 1353.03,-87.33 1294.27,-79.77 1227.64,-66.38 1182.64,-56.61"/>
<polygon fill="red" stroke="red" stroke-width="0.28" points="1183.46,-53.21 1172.94,-54.49 1181.96,-60.05 1183.46,-53.21"/>
</g>
<!-- Power Pellet Right&#45;&gt;55 -->
<g id="edge12" class="edge">
<title>Power Pellet Right&#45;&gt;55</title>
<path fill="none" stroke="red" stroke-width="0.28" d="M1839.89,-221.71C1818.76,-216.88 1791.51,-211.12 1767.03,-207.41 1533.25,-171.99 1247.76,-154.65 1158.24,-149.81"/>
<polygon fill="red" stroke="red" stroke-width="0.28" points="1158.45,-146.32 1148.28,-149.29 1158.08,-153.31 1158.45,-146.32"/>
</g>
<!-- Power Pellet Right&#45;&gt;56 -->
<g id="edge13" class="edge">
<title>Power Pellet Right&#45;&gt;56</title>
<path fill="none" stroke="red" stroke-width="0.28" d="M1834.87,-221.75C1755.27,-204.91 1582.16,-168.28 1515.22,-154.12"/>
<polygon fill="red" stroke="red" stroke-width="0.28" points="1516.34,-150.78 1505.83,-152.14 1514.89,-157.63 1516.34,-150.78"/>
</g>
<!-- Power Pellet Right&#45;&gt;57 -->
<g id="edge14" class="edge">
<title>Power Pellet Right&#45;&gt;57</title>
<path fill="none" stroke="red" stroke-width="0.21" d="M1841.41,-221.71C1820.1,-216.68 1792.15,-210.73 1767.03,-207.41 1474.03,-168.73 1395.8,-211.81 1103.03,-171.41 1076.9,-167.81 1047.6,-160.97 1026.95,-155.68"/>
<polygon fill="red" stroke="red" stroke-width="0.21" points="1027.87,-152.3 1017.31,-153.16 1026.1,-159.07 1027.87,-152.3"/>
</g>
<!-- Power Pellet Left -->
<g id="node6" class="node">
<title>Power Pellet Left</title>
<polygon fill="lightblue" stroke="black" points="1322.78,-309.99 1245.28,-309.99 1245.28,-291.49 1322.78,-291.49 1322.78,-309.99"/>
<text text-anchor="middle" x="1284.03" y="-297.44" font-family="Times,serif" font-size="9.00">Power Pellet Left</text>
</g>
<!-- Power Pellet Left&#45;&gt;Move Right -->
<g id="edge78" class="edge">
<title>Power Pellet Left&#45;&gt;Move Right</title>
<path fill="none" stroke="green" stroke-width="0.23" stroke-dasharray="1,5" d="M1323.12,-299.57C1505.33,-298.55 2266.76,-292.12 2366.03,-255.49 2422.77,-234.56 2446.59,-225.81 2473.03,-171.41 2482.37,-152.19 2487.87,-138.71 2473.03,-123.33 2434.31,-83.2 1523.21,-104.06 1470.03,-87.33 1461.42,-84.62 1452.86,-80.46 1444.89,-75.79"/>
<polygon fill="green" stroke="green" stroke-width="0.23" points="1446.81,-72.86 1436.48,-70.53 1443.1,-78.8 1446.81,-72.86"/>
</g>
<!-- Power Pellet Left&#45;&gt;Move Left -->
<g id="edge79" class="edge">
<title>Power Pellet Left&#45;&gt;Move Left</title>
<path fill="none" stroke="green" stroke-width="0.39" d="M1323.24,-299.12C1517.75,-295.91 2371.84,-280.44 2422.03,-255.49 2465.32,-233.98 2474.74,-216.93 2491.03,-171.41 2498.23,-151.29 2505.52,-139.04 2491.03,-123.33 2427.77,-54.75 1754.04,-45.95 1565.69,-44.82"/>
<polygon fill="green" stroke="green" stroke-width="0.39" points="1565.89,-41.33 1555.87,-44.77 1565.85,-48.33 1565.89,-41.33"/>
</g>
<!-- Power Pellet Left&#45;&gt;Move Up -->
<g id="edge80" class="edge">
<title>Power Pellet Left&#45;&gt;Move Up</title>
<path fill="none" stroke="green" stroke-width="0.37" d="M1245,-299.41C1041.24,-297.53 106.95,-287.22 55.03,-255.49 18.5,-233.17 18.82,-212.84 8.03,-171.41 2.64,-150.73 -6.47,-139.02 8.03,-123.33 72.86,-53.15 766.32,-45.52 953.63,-44.74"/>
<polygon fill="green" stroke="green" stroke-width="0.37" points="953.4,-48.24 963.39,-44.7 953.37,-41.24 953.4,-48.24"/>
</g>
<!-- Power Pellet Left&#45;&gt;Move Down -->
<g id="edge81" class="edge">
<title>Power Pellet Left&#45;&gt;Move Down</title>
<path fill="none" stroke="green" stroke-width="0.1" d="M1244.94,-299.18C1061.84,-296.38 293.45,-283.1 190.03,-255.49 112.03,-234.67 70.86,-240.45 29.03,-171.41 17.95,-153.13 14.19,-138.7 29.03,-123.33 68.25,-82.69 990.31,-101.32 1045.03,-87.33 1058.42,-83.9 1072.13,-78.16 1084.54,-71.98"/>
<polygon fill="green" stroke="green" stroke-width="0.1" points="1085.91,-75.21 1093.17,-67.5 1082.69,-69 1085.91,-75.21"/>
</g>
<!-- 3598 -->
<g id="node24" class="node">
<title>3598</title>
<ellipse fill="white" stroke="black" cx="1391.03" cy="-231.45" rx="24.04" ry="24.04"/>
<text text-anchor="middle" x="1391.03" y="-228.15" font-family="Times,serif" font-size="9.00">3598</text>
</g>
<!-- Power Pellet Left&#45;&gt;3598 -->
<g id="edge123" class="edge">
<title>Power Pellet Left&#45;&gt;3598</title>
<path fill="none" stroke="red" stroke-width="0.47" stroke-dasharray="1,5" d="M1299.24,-291.07C1314.34,-282.36 1338.04,-268.42 1358.03,-255.49 1359.7,-254.41 1361.41,-253.29 1363.13,-252.14"/>
<polygon fill="red" stroke="red" stroke-width="0.47" points="1364.77,-255.25 1371.06,-246.73 1360.82,-249.47 1364.77,-255.25"/>
</g>
<!-- Power Pellet Left&#45;&gt;55 -->
<g id="edge15" class="edge">
<title>Power Pellet Left&#45;&gt;55</title>
<path fill="none" stroke="green" stroke-width="0.59" d="M1246.58,-291.02C1224.91,-284.35 1198.37,-273.22 1180.03,-255.49 1157.35,-233.58 1143.88,-199.38 1136.74,-175.53"/>
<polygon fill="green" stroke="green" stroke-width="0.59" points="1140.11,-174.62 1134.05,-165.93 1133.37,-176.51 1140.11,-174.62"/>
</g>
<!-- Power Pellet Left&#45;&gt;56 -->
<g id="edge16" class="edge">
<title>Power Pellet Left&#45;&gt;56</title>
<path fill="none" stroke="red" stroke-width="0.37" d="M1323.19,-295.04C1353.41,-289.73 1394.84,-278.58 1424.03,-255.49 1450.79,-234.33 1468.85,-198.66 1478.78,-174.34"/>
<polygon fill="red" stroke="red" stroke-width="0.37" points="1481.97,-175.8 1482.34,-165.21 1475.45,-173.26 1481.97,-175.8"/>
</g>
<!-- Power Pellet Left&#45;&gt;57 -->
<g id="edge17" class="edge">
<title>Power Pellet Left&#45;&gt;57</title>
<path fill="none" stroke="red" stroke-width="0.12" d="M1244.89,-296.38C1187.35,-290.75 1083.55,-277.8 1054.03,-255.49 1027.74,-235.63 1013.32,-199.41 1006.14,-174.63"/>
<polygon fill="red" stroke="red" stroke-width="0.12" points="1009.6,-174.03 1003.62,-165.29 1002.84,-175.85 1009.6,-174.03"/>
</g>
<!-- Power Pellet Up -->
<g id="node7" class="node">
<title>Power Pellet Up</title>
<polygon fill="lightblue" stroke="black" points="1349.28,-240.7 1274.78,-240.7 1274.78,-222.2 1349.28,-222.2 1349.28,-240.7"/>
<text text-anchor="middle" x="1312.03" y="-228.15" font-family="Times,serif" font-size="9.00">Power Pellet Up</text>
</g>
<!-- Power Pellet Up&#45;&gt;Move Right -->
<g id="edge82" class="edge">
<title>Power Pellet Up&#45;&gt;Move Right</title>
<path fill="none" stroke="red" stroke-width="0.27" stroke-dasharray="1,5" d="M1316.34,-222.06C1322.2,-210.64 1333,-189.52 1342.03,-171.41 1355.3,-144.8 1369.92,-114.93 1381.63,-90.87"/>
<polygon fill="red" stroke="red" stroke-width="0.27" points="1384.73,-92.51 1385.96,-81.98 1378.44,-89.44 1384.73,-92.51"/>
</g>
<!-- Power Pellet Up&#45;&gt;Move Left -->
<g id="edge83" class="edge">
<title>Power Pellet Up&#45;&gt;Move Left</title>
<path fill="none" stroke="red" stroke-width="0.28" stroke-dasharray="1,5" d="M1326.96,-221.83C1335.77,-217.04 1347.27,-211.28 1358.03,-207.41 1425.4,-183.21 1469.98,-227.05 1515.03,-171.41 1533,-149.21 1533.26,-116.95 1529.16,-90.53"/>
<polygon fill="red" stroke="red" stroke-width="0.28" points="1532.62,-90 1527.4,-80.78 1525.73,-91.24 1532.62,-90"/>
</g>
<!-- Power Pellet Up&#45;&gt;Move Up -->
<g id="edge84" class="edge">
<title>Power Pellet Up&#45;&gt;Move Up</title>
<path fill="none" stroke="red" stroke-width="0.35" d="M1293.11,-221.83C1271.16,-211.41 1234.37,-192.6 1206.03,-171.41 1181.59,-153.14 1182.22,-140.54 1157.03,-123.33 1124.84,-101.33 1111.89,-104.79 1077.03,-87.33 1064.84,-81.22 1051.81,-74.2 1039.99,-67.63"/>
<polygon fill="red" stroke="red" stroke-width="0.35" points="1041.7,-64.58 1031.27,-62.74 1038.28,-70.69 1041.7,-64.58"/>
</g>
<!-- Power Pellet Up&#45;&gt;Move Down -->
<g id="edge85" class="edge">
<title>Power Pellet Up&#45;&gt;Move Down</title>
<path fill="none" stroke="green" stroke-width="0.2" d="M1303.73,-221.99C1280.02,-197.78 1210.84,-127.15 1167.27,-82.68"/>
<polygon fill="green" stroke="green" stroke-width="0.2" points="1169.96,-80.42 1160.46,-75.73 1164.96,-85.32 1169.96,-80.42"/>
</g>
<!-- Power Pellet Up&#45;&gt;55 -->
<g id="edge18" class="edge">
<title>Power Pellet Up&#45;&gt;55</title>
<path fill="none" stroke="green" stroke-width="0.62" stroke-dasharray="1,5" d="M1288.97,-221.74C1249.86,-206.91 1173.64,-177.75 1162.03,-171.41 1158.74,-169.62 1155.4,-167.54 1152.18,-165.38"/>
<polygon fill="green" stroke="green" stroke-width="0.62" points="1154.49,-162.73 1144.32,-159.79 1150.44,-168.44 1154.49,-162.73"/>
</g>
<!-- Power Pellet Up&#45;&gt;56 -->
<g id="edge19" class="edge">
<title>Power Pellet Up&#45;&gt;56</title>
<path fill="none" stroke="green" stroke-width="0.4" stroke-dasharray="1,5" d="M1328,-221.9C1336.75,-217.35 1347.86,-211.81 1358.03,-207.41 1400.62,-188.99 1415.04,-193.17 1456.03,-171.41 1459.33,-169.66 1462.69,-167.6 1465.91,-165.45"/>
<polygon fill="green" stroke="green" stroke-width="0.4" points="1467.92,-168.32 1474.05,-159.68 1463.87,-162.61 1467.92,-168.32"/>
</g>
<!-- Power Pellet Up&#45;&gt;57 -->
<g id="edge20" class="edge">
<title>Power Pellet Up&#45;&gt;57</title>
<path fill="none" stroke="red" stroke-width="0.18" d="M1290.73,-221.79C1278.87,-217.16 1263.77,-211.57 1250.03,-207.41 1228.64,-200.94 1087.45,-168.4 1027.2,-154.59"/>
<polygon fill="red" stroke="red" stroke-width="0.18" points="1028.05,-151.19 1017.52,-152.37 1026.49,-158.01 1028.05,-151.19"/>
</g>
<!-- Power Pellet Down -->
<g id="node8" class="node">
<title>Power Pellet Down</title>
<polygon fill="lightblue" stroke="black" points="284.9,-240.7 199.15,-240.7 199.15,-222.2 284.9,-222.2 284.9,-240.7"/>
<text text-anchor="middle" x="242.03" y="-228.15" font-family="Times,serif" font-size="9.00">Power Pellet Down</text>
</g>
<!-- Power Pellet Down&#45;&gt;Move Right -->
<g id="edge86" class="edge">
<title>Power Pellet Down&#45;&gt;Move Right</title>
<path fill="none" stroke="green" stroke-width="0.17" stroke-dasharray="1,5" d="M247.97,-221.96C263.46,-200.62 307.58,-144.91 360.03,-123.33 444.67,-88.49 1092.12,-98.03 1183.03,-87.33 1242.07,-80.38 1309,-66.62 1353.58,-56.6"/>
<polygon fill="green" stroke="green" stroke-width="0.17" points="1354.35,-60.01 1363.33,-54.39 1352.8,-53.19 1354.35,-60.01"/>
</g>
<!-- Power Pellet Down&#45;&gt;Move Up -->
<g id="edge87" class="edge">
<title>Power Pellet Down&#45;&gt;Move Up</title>
<path fill="none" stroke="green" stroke-width="0.22" d="M198.68,-225.06C140.89,-216.87 43.39,-199.26 22.03,-171.41 9.02,-154.45 7.54,-139.03 22.03,-123.33 85.84,-54.18 768.1,-45.79 953.66,-44.8"/>
<polygon fill="green" stroke="green" stroke-width="0.22" points="953.59,-48.3 963.57,-44.75 953.55,-41.3 953.59,-48.3"/>
</g>
<!-- Power Pellet Down&#45;&gt;Move Down -->
<g id="edge88" class="edge">
<title>Power Pellet Down&#45;&gt;Move Down</title>
<path fill="none" stroke="red" stroke-width="0.28" d="M198.72,-223.74C146,-214.57 61.67,-196.39 43.03,-171.41 30.25,-154.29 28.19,-138.71 43.03,-123.33 81.7,-83.24 991.06,-101.14 1045.03,-87.33 1058.28,-83.93 1071.87,-78.27 1084.17,-72.15"/>
<polygon fill="red" stroke="red" stroke-width="0.28" points="1085.66,-75.32 1092.93,-67.62 1082.44,-69.11 1085.66,-75.32"/>
</g>
<!-- Power Pellet Down&#45;&gt;55 -->
<g id="edge21" class="edge">
<title>Power Pellet Down&#45;&gt;55</title>
<path fill="none" stroke="red" stroke-width="0.51" d="M271.38,-221.75C289.78,-216.67 314.09,-210.64 336.03,-207.41 640.27,-162.61 722.34,-213.13 1027.03,-171.41 1053.04,-167.85 1082.19,-161.06 1102.82,-155.77"/>
<polygon fill="red" stroke="red" stroke-width="0.51" points="1103.52,-159.21 1112.3,-153.29 1101.74,-152.43 1103.52,-159.21"/>
</g>
<!-- Power Pellet Down&#45;&gt;57 -->
<g id="edge22" class="edge">
<title>Power Pellet Down&#45;&gt;57</title>
<path fill="none" stroke="red" stroke-width="0.27" d="M271.83,-221.8C290.18,-216.81 314.29,-210.86 336.03,-207.41 549.51,-173.56 605.98,-193.22 821.03,-171.41 874.7,-165.97 937.15,-157.42 972.29,-152.41"/>
<polygon fill="red" stroke="red" stroke-width="0.27" points="972.47,-155.92 981.87,-151.04 971.47,-148.99 972.47,-155.92"/>
</g>
<!-- Ghost Info Right -->
<g id="node9" class="node">
<title>Ghost Info Right</title>
<polygon fill="lightblue" stroke="black" points="2218.4,-240.7 2141.65,-240.7 2141.65,-222.2 2218.4,-222.2 2218.4,-240.7"/>
<text text-anchor="middle" x="2180.03" y="-228.15" font-family="Times,serif" font-size="9.00">Ghost Info Right</text>
</g>
<!-- Ghost Info Right&#45;&gt;Move Right -->
<g id="edge89" class="edge">
<title>Ghost Info Right&#45;&gt;Move Right</title>
<path fill="none" stroke="green" stroke-width="0.22" d="M2190.17,-221.91C2212.3,-202.29 2260.71,-153.4 2232.03,-123.33 2173.52,-61.99 1550.74,-113.23 1470.03,-87.33 1461.44,-84.57 1452.88,-80.39 1444.92,-75.71"/>
<polygon fill="green" stroke="green" stroke-width="0.22" points="1446.82,-72.77 1436.48,-70.43 1443.11,-78.71 1446.82,-72.77"/>
</g>
<!-- Ghost Info Right&#45;&gt;Move Left -->
<g id="edge90" class="edge">
<title>Ghost Info Right&#45;&gt;Move Left</title>
<path fill="none" stroke="red" stroke-width="0.3" d="M2204.99,-221.86C2226.56,-212.96 2256.35,-196.73 2270.03,-171.41 2280.18,-152.61 2284.33,-139.2 2270.03,-123.33 2222.78,-70.89 1724.62,-51.06 1565.56,-46.04"/>
<polygon fill="red" stroke="red" stroke-width="0.3" points="1565.7,-42.55 1555.6,-45.74 1565.49,-49.54 1565.7,-42.55"/>
</g>
<!-- Ghost Info Right&#45;&gt;Move Up -->
<g id="edge91" class="edge">
<title>Ghost Info Right&#45;&gt;Move Up</title>
<path fill="none" stroke="red" stroke-width="0.42" stroke-dasharray="1,5" d="M2156.05,-221.79C2096.04,-200.56 1934.08,-145.99 1794.03,-123.33 1636.54,-97.84 1230.43,-131.12 1077.03,-87.33 1063.56,-83.48 1049.87,-76.92 1037.84,-70.09"/>
<polygon fill="red" stroke="red" stroke-width="0.42" points="1039.93,-67.26 1029.55,-65.17 1036.36,-73.28 1039.93,-67.26"/>
</g>
<!-- Ghost Info Right&#45;&gt;Move Down -->
<g id="edge92" class="edge">
<title>Ghost Info Right&#45;&gt;Move Down</title>
<path fill="none" stroke="green" stroke-width="0.33" stroke-dasharray="1,5" d="M2181.18,-221.77C2183.4,-200.98 2185.68,-148.18 2156.03,-123.33 2087.58,-65.96 1441.73,-97.75 1353.03,-87.33 1294.19,-80.42 1227.58,-66.92 1182.6,-56.94"/>
<polygon fill="green" stroke="green" stroke-width="0.33" points="1183.51,-53.56 1172.98,-54.79 1181.98,-60.39 1183.51,-53.56"/>
</g>
<!-- Ghost Info Right&#45;&gt;55 -->
<g id="edge23" class="edge">
<title>Ghost Info Right&#45;&gt;55</title>
<path fill="none" stroke="green" stroke-width="0.35" d="M2146.37,-221.74C2125.65,-216.72 2098.47,-210.76 2074.03,-207.41 1803.65,-170.31 1733.38,-188.89 1461.03,-171.41 1348.93,-164.22 1215.56,-154.61 1158.36,-150.45"/>
<polygon fill="green" stroke="green" stroke-width="0.35" points="1158.72,-146.96 1148.5,-149.73 1158.21,-153.94 1158.72,-146.96"/>
</g>
<!-- Ghost Info Right&#45;&gt;56 -->
<g id="edge24" class="edge">
<title>Ghost Info Right&#45;&gt;56</title>
<path fill="none" stroke="green" stroke-width="0.3" d="M2144.88,-221.76C2124.34,-216.95 2097.84,-211.19 2074.03,-207.41 1860.91,-173.62 1600.96,-155.42 1516.2,-150.07"/>
<polygon fill="green" stroke="green" stroke-width="0.3" points="1516.51,-146.58 1506.31,-149.45 1516.08,-153.57 1516.51,-146.58"/>
</g>
<!-- Ghost Info Left -->
<g id="node10" class="node">
<title>Ghost Info Left</title>
<polygon fill="lightblue" stroke="black" points="1607.78,-240.7 1536.28,-240.7 1536.28,-222.2 1607.78,-222.2 1607.78,-240.7"/>
<text text-anchor="middle" x="1572.03" y="-228.15" font-family="Times,serif" font-size="9.00">Ghost Info Left</text>
</g>
<!-- Ghost Info Left&#45;&gt;Move Right -->
<g id="edge93" class="edge">
<title>Ghost Info Left&#45;&gt;Move Right</title>
<path fill="none" stroke="red" stroke-width="0.24" stroke-dasharray="1,5" d="M1582.09,-221.97C1603.53,-202.88 1649.72,-155.72 1624.03,-123.33 1580.35,-68.26 1534.72,-114.81 1470.03,-87.33 1461.82,-83.84 1453.49,-79.35 1445.65,-74.6"/>
<polygon fill="red" stroke="red" stroke-width="0.24" points="1447.67,-71.73 1437.35,-69.36 1443.94,-77.65 1447.67,-71.73"/>
</g>
<!-- Ghost Info Left&#45;&gt;Move Left -->
<g id="edge94" class="edge">
<title>Ghost Info Left&#45;&gt;Move Left</title>
<path fill="none" stroke="green" stroke-width="0.87" d="M1596.99,-221.86C1618.56,-212.96 1648.35,-196.73 1662.03,-171.41 1672.18,-152.61 1672.96,-141.69 1662.03,-123.33 1641.08,-88.13 1598.28,-67.71 1564.58,-56.54"/>
<polygon fill="green" stroke="green" stroke-width="0.87" points="1565.85,-53.27 1555.26,-53.62 1563.76,-59.95 1565.85,-53.27"/>
</g>
<!-- Ghost Info Left&#45;&gt;Move Up -->
<g id="edge95" class="edge">
<title>Ghost Info Left&#45;&gt;Move Up</title>
<path fill="none" stroke="green" stroke-width="0.22" d="M1570.37,-221.91C1565.81,-200.95 1550.93,-146.95 1515.03,-123.33 1433.44,-69.65 1170.5,-115.63 1077.03,-87.33 1063.62,-83.27 1049.95,-76.65 1037.92,-69.82"/>
<polygon fill="green" stroke="green" stroke-width="0.22" points="1039.74,-66.83 1029.34,-64.77 1036.18,-72.86 1039.74,-66.83"/>
</g>
<!-- Ghost Info Left&#45;&gt;Move Down -->
<g id="edge96" class="edge">
<title>Ghost Info Left&#45;&gt;Move Down</title>
<path fill="none" stroke="red" stroke-width="0.38" d="M1577.09,-221.71C1587.94,-201.67 1610.57,-151.95 1586.03,-123.33 1551.93,-83.55 1404.65,-96.25 1353.03,-87.33 1294.65,-77.24 1227.96,-64.29 1182.83,-55.32"/>
<polygon fill="red" stroke="red" stroke-width="0.38" points="1183.75,-51.93 1173.26,-53.41 1182.38,-58.8 1183.75,-51.93"/>
</g>
<!-- Ghost Info Left&#45;&gt;55 -->
<g id="edge25" class="edge">
<title>Ghost Info Left&#45;&gt;55</title>
<path fill="none" stroke="green" stroke-width="0.57" d="M1535.86,-223.74C1449.78,-207.75 1234.27,-167.73 1157.62,-153.49"/>
<polygon fill="green" stroke="green" stroke-width="0.57" points="1158.66,-150.13 1148.19,-151.74 1157.39,-157.01 1158.66,-150.13"/>
</g>
<!-- Ghost Info Left&#45;&gt;56 -->
<g id="edge26" class="edge">
<title>Ghost Info Left&#45;&gt;56</title>
<path fill="none" stroke="red" stroke-width="0.45" d="M1563.35,-221.98C1550.34,-209.26 1525.41,-184.9 1507.81,-167.7"/>
<polygon fill="red" stroke="red" stroke-width="0.45" points="1510.39,-165.32 1500.79,-160.84 1505.49,-170.33 1510.39,-165.32"/>
</g>
<!-- Ghost Info Left&#45;&gt;57 -->
<g id="edge27" class="edge">
<title>Ghost Info Left&#45;&gt;57</title>
<path fill="none" stroke="green" stroke-width="0.57" d="M1535.9,-224.39C1505.97,-219.47 1462.3,-212.53 1424.03,-207.41 1281.74,-188.36 1244.62,-195.12 1103.03,-171.41 1077.26,-167.1 1048.24,-160.44 1027.59,-155.39"/>
<polygon fill="green" stroke="green" stroke-width="0.57" points="1028.44,-151.99 1017.89,-152.98 1026.75,-158.79 1028.44,-151.99"/>
</g>
<!-- Ghost Info Up -->
<g id="node11" class="node">
<title>Ghost Info Up</title>
<polygon fill="lightblue" stroke="black" points="1758.28,-240.7 1689.78,-240.7 1689.78,-222.2 1758.28,-222.2 1758.28,-240.7"/>
<text text-anchor="middle" x="1724.03" y="-228.15" font-family="Times,serif" font-size="9.00">Ghost Info Up</text>
</g>
<!-- Ghost Info Up&#45;&gt;Move Right -->
<g id="edge97" class="edge">
<title>Ghost Info Up&#45;&gt;Move Right</title>
<path fill="none" stroke="green" stroke-width="0.53" d="M1734.35,-221.75C1756.31,-202.23 1803.5,-154.23 1776.03,-123.33 1730.53,-72.16 1534.45,-110.51 1470.03,-87.33 1461.81,-84.37 1453.58,-80.23 1445.86,-75.67"/>
<polygon fill="green" stroke="green" stroke-width="0.53" points="1447.73,-72.72 1437.39,-70.39 1444.02,-78.66 1447.73,-72.72"/>
</g>
<!-- Ghost Info Up&#45;&gt;Move Left -->
<g id="edge98" class="edge">
<title>Ghost Info Up&#45;&gt;Move Left</title>
<path fill="none" stroke="red" stroke-width="0.26" d="M1748.99,-221.86C1770.56,-212.96 1800.35,-196.73 1814.03,-171.41 1824.18,-152.61 1827.06,-140.26 1814.03,-123.33 1783.81,-84.07 1641.06,-60.36 1565.01,-50.31"/>
<polygon fill="red" stroke="red" stroke-width="0.26" points="1565.5,-46.85 1555.13,-49.04 1564.6,-53.79 1565.5,-46.85"/>
</g>
<!-- Ghost Info Up&#45;&gt;Move Up -->
<g id="edge99" class="edge">
<title>Ghost Info Up&#45;&gt;Move Up</title>
<path fill="none" stroke="green" stroke-width="0.36" d="M1713.79,-221.76C1688.01,-200.44 1617.49,-145.69 1548.03,-123.33 1348.19,-58.98 1278.14,-147.59 1077.03,-87.33 1063.61,-83.31 1049.93,-76.7 1037.9,-69.87"/>
<polygon fill="green" stroke="green" stroke-width="0.36" points="1039.91,-66.99 1029.52,-64.92 1036.35,-73.02 1039.91,-66.99"/>
</g>
<!-- Ghost Info Up&#45;&gt;Move Down -->
<g id="edge100" class="edge">
<title>Ghost Info Up&#45;&gt;Move Down</title>
<path fill="none" stroke="green" stroke-width="0.22" d="M1729.04,-221.9C1740.07,-201.84 1763.54,-151.34 1738.03,-123.33 1709.1,-91.56 1395.57,-93.37 1353.03,-87.33 1294.25,-78.98 1227.45,-65.69 1182.41,-56.16"/>
<polygon fill="green" stroke="green" stroke-width="0.22" points="1183.41,-52.79 1172.9,-54.13 1181.95,-59.64 1183.41,-52.79"/>
</g>
<!-- Ghost Info Up&#45;&gt;55 -->
<g id="edge28" class="edge">
<title>Ghost Info Up&#45;&gt;55</title>
<path fill="none" stroke="green" stroke-width="0.22" stroke-dasharray="1,5" d="M1689.49,-222.17C1668.6,-217.38 1641.39,-211.5 1617.03,-207.41 1443.31,-178.24 1232.41,-157.67 1157.8,-150.84"/>
<polygon fill="green" stroke="green" stroke-width="0.22" points="1158.42,-147.38 1148.14,-149.96 1157.78,-154.35 1158.42,-147.38"/>
</g>
<!-- Ghost Info Up&#45;&gt;56 -->
<g id="edge29" class="edge">
<title>Ghost Info Up&#45;&gt;56</title>
<path fill="none" stroke="red" stroke-width="0.24" d="M1699.22,-221.82C1654.33,-206.21 1560.04,-173.42 1514.18,-157.47"/>
<polygon fill="red" stroke="red" stroke-width="0.24" points="1515.59,-154.25 1505,-154.27 1513.29,-160.86 1515.59,-154.25"/>
</g>
<!-- Ghost Info Up&#45;&gt;57 -->
<g id="edge30" class="edge">
<title>Ghost Info Up&#45;&gt;57</title>
<path fill="none" stroke="red" stroke-width="0.33" d="M1689.56,-221.72C1668.7,-216.77 1641.49,-210.88 1617.03,-207.41 1390.3,-175.23 1329.63,-204.5 1103.03,-171.41 1076.93,-167.6 1047.63,-160.79 1026.97,-155.56"/>
<polygon fill="red" stroke="red" stroke-width="0.33" points="1028.05,-152.23 1017.49,-153.12 1026.3,-159 1028.05,-152.23"/>
</g>
<!-- Ghost Info Down -->
<g id="node12" class="node">
<title>Ghost Info Down</title>
<polygon fill="lightblue" stroke="black" points="914.9,-240.7 835.15,-240.7 835.15,-222.2 914.9,-222.2 914.9,-240.7"/>
<text text-anchor="middle" x="875.03" y="-228.15" font-family="Times,serif" font-size="9.00">Ghost Info Down</text>
</g>
<!-- Ghost Info Down&#45;&gt;Move Right -->
<g id="edge101" class="edge">
<title>Ghost Info Down&#45;&gt;Move Right</title>
<path fill="none" stroke="red" stroke-width="0.14" d="M856.81,-221.79C823.61,-205.97 756.5,-173.78 755.03,-171.41 743.73,-153.27 740.56,-139.06 755.03,-123.33 787.33,-88.2 1135.75,-93.86 1183.03,-87.33 1242.05,-79.17 1309.16,-65.6 1353.79,-55.95"/>
<polygon fill="red" stroke="red" stroke-width="0.14" points="1354.28,-59.43 1363.31,-53.88 1352.8,-52.59 1354.28,-59.43"/>
</g>
<!-- Ghost Info Down&#45;&gt;Move Left -->
<g id="edge102" class="edge">
<title>Ghost Info Down&#45;&gt;Move Left</title>
<path fill="none" stroke="red" stroke-width="0.12" d="M879.79,-221.77C892.01,-200.48 926.78,-145.8 973.03,-123.33 1166.25,-29.46 1252.41,-158.69 1455.03,-87.33 1463.72,-84.27 1472.32,-79.66 1480.23,-74.58"/>
<polygon fill="red" stroke="red" stroke-width="0.12" points="1482.07,-77.56 1488.37,-69.04 1478.13,-71.78 1482.07,-77.56"/>
</g>
<!-- Ghost Info Down&#45;&gt;Move Up -->
<g id="edge103" class="edge">
<title>Ghost Info Down&#45;&gt;Move Up</title>
<path fill="none" stroke="green" stroke-width="0.14" d="M860.07,-221.89C850.61,-216.87 837.95,-210.85 826.03,-207.41 695.44,-169.76 444.25,-227.09 532.03,-123.33 585.84,-59.71 846.77,-47.52 953.94,-45.2"/>
<polygon fill="green" stroke="green" stroke-width="0.14" points="953.97,-48.7 963.9,-45 953.83,-41.7 953.97,-48.7"/>
</g>
<!-- Ghost Info Down&#45;&gt;Move Down -->
<g id="edge104" class="edge">
<title>Ghost Info Down&#45;&gt;Move Down</title>
<path fill="none" stroke="green" stroke-width="1.1" stroke-dasharray="1,5" d="M858.58,-221.75C849.22,-217.05 837.18,-211.4 826.03,-207.41 764.73,-185.46 724.01,-222.8 684.03,-171.41 670.9,-154.54 669.69,-139.17 684.03,-123.33 738.13,-63.56 967.6,-109.78 1045.03,-87.33 1057.66,-83.66 1070.66,-78.15 1082.58,-72.29"/>
<polygon fill="green" stroke="green" stroke-width="1.1" points="1083.95,-75.52 1091.26,-67.85 1080.76,-69.29 1083.95,-75.52"/>
</g>
<!-- 2952 -->
<g id="node23" class="node">
<title>2952</title>
<ellipse fill="white" stroke="black" cx="788.03" cy="-147.37" rx="24.04" ry="24.04"/>
<text text-anchor="middle" x="788.03" y="-144.07" font-family="Times,serif" font-size="9.00">2952</text>
</g>
<!-- Ghost Info Down&#45;&gt;2952 -->
<g id="edge121" class="edge">
<title>Ghost Info Down&#45;&gt;2952</title>
<path fill="none" stroke="red" stroke-width="0.3" d="M866.05,-221.98C853.51,-210.15 830.3,-188.25 812.44,-171.4"/>
<polygon fill="red" stroke="red" stroke-width="0.3" points="815.17,-169.17 805.5,-164.85 810.37,-174.26 815.17,-169.17"/>
</g>
<!-- Ghost Info Down&#45;&gt;55 -->
<g id="edge31" class="edge">
<title>Ghost Info Down&#45;&gt;55</title>
<path fill="none" stroke="red" stroke-width="0.2" d="M891.52,-221.88C900.9,-217.22 912.94,-211.58 924.03,-207.41 986.69,-183.87 1063.03,-164.26 1102.86,-154.68"/>
<polygon fill="red" stroke="red" stroke-width="0.2" points="1103.43,-158.14 1112.35,-152.42 1101.81,-151.33 1103.43,-158.14"/>
</g>
<!-- Ghost Info Down&#45;&gt;56 -->
<g id="edge32" class="edge">
<title>Ghost Info Down&#45;&gt;56</title>
<path fill="none" stroke="red" stroke-width="0.27" d="M889.97,-221.82C899.42,-216.77 912.08,-210.74 924.03,-207.41 1026.98,-178.71 1360.97,-156.22 1460.06,-150.06"/>
<polygon fill="red" stroke="red" stroke-width="0.27" points="1460.01,-153.57 1469.78,-149.46 1459.58,-146.58 1460.01,-153.57"/>
</g>
<!-- Ghost Info Down&#45;&gt;57 -->
<g id="edge33" class="edge">
<title>Ghost Info Down&#45;&gt;57</title>
<path fill="none" stroke="red" stroke-width="0.21" d="M889.38,-221.7C907.79,-210.4 940.63,-189.95 968.03,-171.41 971.22,-169.25 974.56,-166.93 977.82,-164.61"/>
<polygon fill="red" stroke="red" stroke-width="0.21" points="979.8,-167.5 985.88,-158.83 975.71,-161.82 979.8,-167.5"/>
</g>
<!-- PAC&#45;MAN Right -->
<g id="node13" class="node">
<title>PAC&#45;MAN Right</title>
<polygon fill="lightblue" stroke="black" points="708.53,-240.7 629.53,-240.7 629.53,-222.2 708.53,-222.2 708.53,-240.7"/>
<text text-anchor="middle" x="669.03" y="-228.15" font-family="Times,serif" font-size="9.00">PAC&#45;MAN Right</text>
</g>
<!-- PAC&#45;MAN Right&#45;&gt;Move Right -->
<g id="edge105" class="edge">
<title>PAC&#45;MAN Right&#45;&gt;Move Right</title>
<path fill="none" stroke="green" stroke-width="0.14" d="M670.92,-221.89C676.05,-200.88 692.41,-146.78 729.03,-123.33 814.25,-68.74 1082.74,-100.94 1183.03,-87.33 1242.07,-79.31 1309.17,-65.71 1353.79,-56.02"/>
<polygon fill="green" stroke="green" stroke-width="0.14" points="1354.29,-59.5 1363.31,-53.94 1352.79,-52.66 1354.29,-59.5"/>
</g>
<!-- PAC&#45;MAN Right&#45;&gt;Move Left -->
<g id="edge106" class="edge">
<title>PAC&#45;MAN Right&#45;&gt;Move Left</title>
<path fill="none" stroke="red" stroke-width="0.81" stroke-dasharray="1,5" d="M677.3,-221.96C688.05,-210.75 707.21,-190.25 722.03,-171.41 738.05,-151.04 732.41,-135.99 755.03,-123.33 890.94,-47.24 1307.52,-137.37 1455.03,-87.33 1463.38,-84.49 1471.64,-80.19 1479.27,-75.39"/>
<polygon fill="red" stroke="red" stroke-width="0.81" points="1481.22,-78.29 1487.55,-69.79 1477.3,-72.49 1481.22,-78.29"/>
</g>
<!-- PAC&#45;MAN Right&#45;&gt;Move Up -->
<g id="edge107" class="edge">
<title>PAC&#45;MAN Right&#45;&gt;Move Up</title>
<path fill="none" stroke="green" stroke-width="0.15" d="M653.9,-221.88C644.67,-216.98 632.47,-211.09 621.03,-207.41 533.81,-179.32 476.89,-241.63 418.03,-171.41 404.3,-155.03 403.97,-139.42 418.03,-123.33 453.26,-83.01 822.54,-55.89 953.93,-47.46"/>
<polygon fill="green" stroke="green" stroke-width="0.15" points="954.09,-50.96 963.85,-46.83 953.65,-43.97 954.09,-50.96"/>
</g>
<!-- PAC&#45;MAN Right&#45;&gt;Move Down -->
<g id="edge108" class="edge">
<title>PAC&#45;MAN Right&#45;&gt;Move Down</title>
<path fill="none" stroke="red" stroke-width="0.2" d="M665.75,-221.86C658.69,-201.71 644.63,-151.02 670.03,-123.33 726.61,-61.63 964.58,-110.5 1045.03,-87.33 1058.05,-83.58 1071.46,-77.85 1083.67,-71.79"/>
<polygon fill="red" stroke="red" stroke-width="0.2" points="1085.19,-74.94 1092.48,-67.26 1081.99,-68.72 1085.19,-74.94"/>
</g>
<!-- PAC&#45;MAN Right&#45;&gt;55 -->
<g id="edge34" class="edge">
<title>PAC&#45;MAN Right&#45;&gt;55</title>
<path fill="none" stroke="red" stroke-width="0.55" d="M683.98,-221.87C693.44,-216.83 706.09,-210.81 718.03,-207.41 850.99,-169.5 890.71,-194.53 1027.03,-171.41 1052.91,-167.02 1082.08,-160.33 1102.75,-155.29"/>
<polygon fill="red" stroke="red" stroke-width="0.55" points="1103.33,-158.75 1112.19,-152.95 1101.65,-151.95 1103.33,-158.75"/>
</g>
<!-- PAC&#45;MAN Right&#45;&gt;57 -->
<g id="edge35" class="edge">
<title>PAC&#45;MAN Right&#45;&gt;57</title>
<path fill="none" stroke="green" stroke-width="0.47" stroke-dasharray="1,5" d="M684.97,-221.8C694.37,-216.99 706.62,-211.23 718.03,-207.41 808.4,-177.16 920.45,-159.24 971.86,-152.04"/>
<polygon fill="green" stroke="green" stroke-width="0.47" points="972.01,-155.56 981.45,-150.73 971.07,-148.62 972.01,-155.56"/>
</g>
<!-- PAC&#45;MAN Left -->
<g id="node14" class="node">
<title>PAC&#45;MAN Left</title>
<polygon fill="lightblue" stroke="black" points="2064.9,-240.7 1991.15,-240.7 1991.15,-222.2 2064.9,-222.2 2064.9,-240.7"/>
<text text-anchor="middle" x="2028.03" y="-228.15" font-family="Times,serif" font-size="9.00">PAC&#45;MAN Left</text>
</g>
<!-- PAC&#45;MAN Left&#45;&gt;Move Right -->
<g id="edge109" class="edge">
<title>PAC&#45;MAN Left&#45;&gt;Move Right</title>
<path fill="none" stroke="red" stroke-width="0.36" d="M2038.14,-221.93C2060.22,-202.36 2108.53,-153.56 2080.03,-123.33 2033.45,-73.92 1534.55,-108.45 1470.03,-87.33 1461.45,-84.52 1452.91,-80.32 1444.94,-75.63"/>
<polygon fill="red" stroke="red" stroke-width="0.36" points="1447.02,-72.8 1436.69,-70.46 1443.31,-78.73 1447.02,-72.8"/>
</g>
<!-- PAC&#45;MAN Left&#45;&gt;Move Left -->
<g id="edge110" class="edge">
<title>PAC&#45;MAN Left&#45;&gt;Move Left</title>
<path fill="none" stroke="green" stroke-width="0.17" d="M2052.99,-221.86C2074.56,-212.96 2104.35,-196.73 2118.03,-171.41 2128.18,-152.61 2132.12,-139.39 2118.03,-123.33 2081.62,-81.85 1701.29,-55.53 1565.16,-47.37"/>
<polygon fill="green" stroke="green" stroke-width="0.17" points="1565.48,-43.89 1555.29,-46.79 1565.06,-50.87 1565.48,-43.89"/>
</g>
<!-- PAC&#45;MAN Left&#45;&gt;Move Up -->
<g id="edge111" class="edge">
<title>PAC&#45;MAN Left&#45;&gt;Move Up</title>
<path fill="none" stroke="red" stroke-width="0.18" d="M2007.34,-221.81C1955.51,-200.61 1815.49,-146.11 1693.03,-123.33 1423.41,-73.17 1340.43,-163.69 1077.03,-87.33 1063.44,-83.39 1049.62,-76.72 1037.5,-69.82"/>
<polygon fill="red" stroke="red" stroke-width="0.18" points="1039.63,-67.01 1029.24,-64.92 1036.06,-73.03 1039.63,-67.01"/>
</g>
<!-- PAC&#45;MAN Left&#45;&gt;Move Down -->
<g id="edge112" class="edge">
<title>PAC&#45;MAN Left&#45;&gt;Move Down</title>
<path fill="none" stroke="green" stroke-width="0.1" d="M2033.12,-221.83C2044.31,-201.62 2068.11,-150.81 2042.03,-123.33 1989.25,-67.72 1429.13,-96.55 1353.03,-87.33 1294.09,-80.18 1227.32,-66.68 1182.33,-56.77"/>
<polygon fill="green" stroke="green" stroke-width="0.1" points="1183.18,-53.37 1172.66,-54.62 1181.66,-60.21 1183.18,-53.37"/>
</g>
<!-- PAC&#45;MAN Left&#45;&gt;55 -->
<g id="edge36" class="edge">
<title>PAC&#45;MAN Left&#45;&gt;55</title>
<path fill="none" stroke="green" stroke-width="0.44" d="M1995.19,-221.73C1975.31,-216.78 1949.37,-210.89 1926.03,-207.41 1887.28,-201.63 1295.84,-159.99 1158.4,-150.36"/>
<polygon fill="green" stroke="green" stroke-width="0.44" points="1158.8,-146.87 1148.58,-149.67 1158.31,-153.86 1158.8,-146.87"/>
</g>
<!-- PAC&#45;MAN Left&#45;&gt;56 -->
<g id="edge37" class="edge">
<title>PAC&#45;MAN Left&#45;&gt;56</title>
<path fill="none" stroke="red" stroke-width="0.17" d="M1993.25,-221.8C1973.6,-217.11 1948.54,-211.46 1926.03,-207.41 1771.91,-179.67 1585.16,-158.64 1515.75,-151.25"/>
<polygon fill="red" stroke="red" stroke-width="0.17" points="1516.2,-147.78 1505.89,-150.21 1515.47,-154.74 1516.2,-147.78"/>
</g>
<!-- PAC&#45;MAN Left&#45;&gt;57 -->
<g id="edge38" class="edge">
<title>PAC&#45;MAN Left&#45;&gt;57</title>
<path fill="none" stroke="green" stroke-width="0.3" d="M1996.14,-221.71C1976.16,-216.61 1949.78,-210.59 1926.03,-207.41 1563.13,-158.88 1465.98,-219.56 1103.03,-171.41 1076.89,-167.94 1047.59,-161.09 1026.94,-155.76"/>
<polygon fill="green" stroke="green" stroke-width="0.3" points="1028,-152.42 1017.43,-153.25 1026.21,-159.19 1028,-152.42"/>
</g>
<!-- PAC&#45;MAN Up -->
<g id="node15" class="node">
<title>PAC&#45;MAN Up</title>
<polygon fill="lightblue" stroke="black" points="1133.4,-240.7 1062.65,-240.7 1062.65,-222.2 1133.4,-222.2 1133.4,-240.7"/>
<text text-anchor="middle" x="1098.03" y="-228.15" font-family="Times,serif" font-size="9.00">PAC&#45;MAN Up</text>
</g>
<!-- PAC&#45;MAN Up&#45;&gt;Move Left -->
<g id="edge113" class="edge">
<title>PAC&#45;MAN Up&#45;&gt;Move Left</title>
<path fill="none" stroke="red" stroke-width="0.22" d="M1112.81,-221.81C1147.23,-201.98 1235.85,-152.69 1315.03,-123.33 1375.27,-100.99 1396.56,-113.95 1455.03,-87.33 1463.32,-83.55 1471.7,-78.66 1479.5,-73.55"/>
<polygon fill="red" stroke="red" stroke-width="0.22" points="1481.14,-76.68 1487.43,-68.15 1477.2,-70.89 1481.14,-76.68"/>
</g>
<!-- PAC&#45;MAN Up&#45;&gt;Move Up -->
<g id="edge114" class="edge">
<title>PAC&#45;MAN Up&#45;&gt;Move Up</title>
<path fill="none" stroke="red" stroke-width="0.51" d="M1071.78,-221.79C1038.55,-210.23 984.27,-189.15 973.03,-171.41 956.53,-145.37 965.42,-110.91 977.26,-84.49"/>
<polygon fill="red" stroke="red" stroke-width="0.51" points="980.4,-86.02 981.55,-75.49 974.08,-83.01 980.4,-86.02"/>
</g>
<!-- PAC&#45;MAN Up&#45;&gt;Move Down -->
<g id="edge115" class="edge">
<title>PAC&#45;MAN Up&#45;&gt;Move Down</title>
<path fill="none" stroke="red" stroke-width="0.26" d="M1097.61,-221.75C1096.9,-203.37 1096.15,-159.36 1103.03,-123.33 1104.86,-113.75 1107.6,-103.75 1110.65,-94.22"/>
<polygon fill="red" stroke="red" stroke-width="0.26" points="1113.92,-95.46 1113.78,-84.87 1107.28,-93.24 1113.92,-95.46"/>
</g>
<!-- PAC&#45;MAN Up&#45;&gt;55 -->
<g id="edge39" class="edge">
<title>PAC&#45;MAN Up&#45;&gt;55</title>
<path fill="none" stroke="red" stroke-width="0.18" d="M1101.33,-221.98C1105.76,-210.61 1113.82,-189.94 1120.27,-173.39"/>
<polygon fill="red" stroke="red" stroke-width="0.18" points="1123.38,-175.06 1123.75,-164.47 1116.86,-172.52 1123.38,-175.06"/>
</g>
<!-- PAC&#45;MAN Up&#45;&gt;56 -->
<g id="edge40" class="edge">
<title>PAC&#45;MAN Up&#45;&gt;56</title>
<path fill="none" stroke="red" stroke-width="0.25" d="M1126.71,-221.75C1142.38,-217.16 1162.18,-211.62 1180.03,-207.41 1282.65,-183.2 1406.27,-161.83 1460.39,-152.86"/>
<polygon fill="red" stroke="red" stroke-width="0.25" points="1460.88,-156.33 1470.17,-151.25 1459.74,-149.42 1460.88,-156.33"/>
</g>
<!-- PAC&#45;MAN Up&#45;&gt;57 -->
<g id="edge41" class="edge">
<title>PAC&#45;MAN Up&#45;&gt;57</title>
<path fill="none" stroke="green" stroke-width="0.13" stroke-dasharray="1,5" d="M1087.91,-221.98C1072.19,-208.81 1041.59,-183.18 1020.97,-165.91"/>
<polygon fill="green" stroke="green" stroke-width="0.13" points="1023.41,-163.39 1013.5,-159.65 1018.92,-168.76 1023.41,-163.39"/>
</g>
<!-- PAC&#45;MAN Down -->
<g id="node16" class="node">
<title>PAC&#45;MAN Down</title>
<polygon fill="lightblue" stroke="black" points="817.15,-240.7 726.9,-240.7 726.9,-222.2 817.15,-222.2 817.15,-240.7"/>
<text text-anchor="middle" x="772.03" y="-228.15" font-family="Times,serif" font-size="9.00">PAC&#45;MAN Down</text>
</g>
<!-- PAC&#45;MAN Down&#45;&gt;Move Right -->
<g id="edge116" class="edge">
<title>PAC&#45;MAN Down&#45;&gt;Move Right</title>
<path fill="none" stroke="green" stroke-width="0.34" d="M765.06,-221.99C749.55,-202.13 715.59,-152.01 742.03,-123.33 775.35,-87.18 1134.32,-94 1183.03,-87.33 1241.93,-79.26 1308.88,-65.71 1353.51,-56.05"/>
<polygon fill="green" stroke="green" stroke-width="0.34" points="1353.99,-59.53 1363.01,-53.97 1352.5,-52.69 1353.99,-59.53"/>
</g>
<!-- PAC&#45;MAN Down&#45;&gt;Move Up -->
<g id="edge117" class="edge">
<title>PAC&#45;MAN Down&#45;&gt;Move Up</title>
<path fill="none" stroke="red" stroke-width="0.11" d="M755.12,-221.93C744.45,-216.92 730.24,-210.9 717.03,-207.41 583.56,-172.15 327.19,-227.27 418.03,-123.33 453.3,-82.97 823.28,-55.84 954.33,-47.43"/>
<polygon fill="red" stroke="red" stroke-width="0.11" points="954.16,-50.95 963.91,-46.83 953.71,-43.97 954.16,-50.95"/>
</g>
<!-- PAC&#45;MAN Down&#45;&gt;Move Down -->
<g id="edge118" class="edge">
<title>PAC&#45;MAN Down&#45;&gt;Move Down</title>
<path fill="none" stroke="green" stroke-width="0.43" d="M751.92,-221.74C724.88,-209.57 679.12,-187.19 670.03,-171.41 659.35,-152.9 655.66,-139.14 670.03,-123.33 726.33,-61.37 964.58,-110.5 1045.03,-87.33 1057.92,-83.61 1071.2,-77.96 1083.31,-71.97"/>
<polygon fill="green" stroke="green" stroke-width="0.43" points="1084.88,-75.1 1092.17,-67.42 1081.68,-68.87 1084.88,-75.1"/>
</g>
<!-- PAC&#45;MAN Down&#45;&gt;55 -->
<g id="edge42" class="edge">
<title>PAC&#45;MAN Down&#45;&gt;55</title>
<path fill="none" stroke="red" stroke-width="0.26" d="M789.65,-221.73C800.03,-216.91 813.53,-211.15 826.03,-207.41 912.99,-181.44 938.06,-189.32 1027.03,-171.41 1052.88,-166.21 1082.22,-159.57 1102.95,-154.76"/>
<polygon fill="red" stroke="red" stroke-width="0.26" points="1103.62,-158.2 1112.56,-152.52 1102.03,-151.38 1103.62,-158.2"/>
</g>
<!-- PAC&#45;MAN Down&#45;&gt;56 -->
<g id="edge43" class="edge">
<title>PAC&#45;MAN Down&#45;&gt;56</title>
<path fill="none" stroke="red" stroke-width="0.18" d="M788.58,-221.78C799.03,-216.71 812.98,-210.69 826.03,-207.41 888.29,-191.77 1342.61,-158.7 1460.27,-150.33"/>
<polygon fill="red" stroke="red" stroke-width="0.18" points="1460.28,-153.84 1470.01,-149.64 1459.78,-146.85 1460.28,-153.84"/>
</g>
<!-- PAC&#45;MAN Down&#45;&gt;57 -->
<g id="edge44" class="edge">
<title>PAC&#45;MAN Down&#45;&gt;57</title>
<path fill="none" stroke="green" stroke-width="0.65" d="M791.38,-221.77C801.6,-217.29 814.41,-211.85 826.03,-207.41 877.38,-187.78 938.45,-167.82 972.88,-156.87"/>
<polygon fill="green" stroke="green" stroke-width="0.65" points="973.66,-160.3 982.14,-153.94 971.55,-153.62 973.66,-160.3"/>
</g>
<!-- Power&#45;Up Time -->
<g id="node17" class="node">
<title>Power&#45;Up Time</title>
<polygon fill="lightblue" stroke="black" points="1006.9,-240.7 933.15,-240.7 933.15,-222.2 1006.9,-222.2 1006.9,-240.7"/>
<text text-anchor="middle" x="970.03" y="-228.15" font-family="Times,serif" font-size="9.00">Power&#45;Up Time</text>
</g>
<!-- Power&#45;Up Time&#45;&gt;Move Right -->
<g id="edge119" class="edge">
<title>Power&#45;Up Time&#45;&gt;Move Right</title>
<path fill="none" stroke="green" stroke-width="0.24" d="M967.08,-221.95C960.77,-202 948.4,-151.72 973.03,-123.33 1004.05,-87.56 1136.45,-95.82 1183.03,-87.33 1241.52,-76.67 1308.55,-63.61 1353.3,-54.77"/>
<polygon fill="green" stroke="green" stroke-width="0.24" points="1353.85,-58.23 1362.98,-52.85 1352.5,-51.36 1353.85,-58.23"/>
</g>
<!-- Power&#45;Up Time&#45;&gt;Move Up -->
<g id="edge120" class="edge">
<title>Power&#45;Up Time&#45;&gt;Move Up</title>
<path fill="none" stroke="green" stroke-width="0.11" d="M953.49,-221.81C924.33,-206.48 866.58,-175.75 864.03,-171.41 853.2,-152.99 853.35,-141.84 864.03,-123.33 883.67,-89.28 924.28,-68.64 956.04,-57.1"/>
<polygon fill="green" stroke="green" stroke-width="0.11" points="957.12,-60.43 965.43,-53.86 954.84,-53.81 957.12,-60.43"/>
</g>
<!-- Power&#45;Up Time&#45;&gt;2952 -->
<g id="edge128" class="edge">
<title>Power&#45;Up Time&#45;&gt;2952</title>
<path fill="none" stroke="green" stroke-width="0.21" d="M954.06,-221.9C945.3,-217.35 934.19,-211.81 924.03,-207.41 881.44,-188.99 867.84,-191.53 826.03,-171.41 822.87,-169.89 819.64,-168.19 816.46,-166.41"/>
<polygon fill="green" stroke="green" stroke-width="0.21" points="818.42,-163.5 808.02,-161.47 814.88,-169.54 818.42,-163.5"/>
</g>
<!-- Power&#45;Up Time&#45;&gt;55 -->
<g id="edge45" class="edge">
<title>Power&#45;Up Time&#45;&gt;55</title>
<path fill="none" stroke="red" stroke-width="0.27" d="M986.85,-221.82C1015.18,-207.29 1072.54,-177.86 1105.41,-161"/>
<polygon fill="red" stroke="red" stroke-width="0.27" points="1106.71,-164.27 1114.01,-156.59 1103.51,-158.04 1106.71,-164.27"/>
</g>
<!-- Power&#45;Up Time&#45;&gt;56 -->
<g id="edge46" class="edge">
<title>Power&#45;Up Time&#45;&gt;56</title>
<path fill="none" stroke="green" stroke-width="0.16" d="M998.19,-221.72C1014.39,-216.95 1035.21,-211.25 1054.03,-207.41 1205.72,-176.43 1390.65,-157.38 1460,-150.88"/>
<polygon fill="green" stroke="green" stroke-width="0.16" points="1460.24,-154.38 1469.87,-149.97 1459.59,-147.41 1460.24,-154.38"/>
</g>
<!-- Power&#45;Up Time&#45;&gt;57 -->
<g id="edge47" class="edge">
<title>Power&#45;Up Time&#45;&gt;57</title>
<path fill="none" stroke="red" stroke-width="0.36" stroke-dasharray="1,5" d="M973.13,-221.98C977.22,-210.78 984.6,-190.57 990.6,-174.15"/>
<polygon fill="red" stroke="red" stroke-width="0.36" points="993.79,-175.65 993.93,-165.05 987.21,-173.24 993.79,-175.65"/>
</g>
<!-- 5152&#45;&gt;Move Up -->
<g id="edge127" class="edge">
<title>5152&#45;&gt;Move Up</title>
<path fill="none" stroke="green" stroke-width="0.56" d="M95.31,-132.36C101.07,-128.83 107.58,-125.44 114.03,-123.33 272.53,-71.36 794.48,-51.08 953.58,-46.02"/>
<polygon fill="green" stroke="green" stroke-width="0.56" points="953.24,-49.53 963.12,-45.72 953.02,-42.53 953.24,-49.53"/>
</g>
<!-- 2952&#45;&gt;Move Down -->
<g id="edge122" class="edge">
<title>2952&#45;&gt;Move Down</title>
<path fill="none" stroke="green" stroke-width="0.42" d="M810.81,-138.82C825.82,-134.01 845.97,-127.85 864.03,-123.33 943.59,-103.41 967.45,-113.96 1045.03,-87.33 1057.72,-82.97 1070.92,-77.08 1083.03,-71.07"/>
<polygon fill="green" stroke="green" stroke-width="0.42" points="1084.59,-74.2 1091.91,-66.53 1081.41,-67.96 1084.59,-74.2"/>
</g>
<!-- 3598&#45;&gt;Move Down -->
<g id="edge125" class="edge">
<title>3598&#45;&gt;Move Down</title>
<path fill="none" stroke="red" stroke-width="0.22" d="M1372.27,-216.38C1344.62,-195.71 1291.2,-156.05 1245.03,-123.33 1221.85,-106.91 1195.75,-89 1174.27,-74.43"/>
<polygon fill="red" stroke="red" stroke-width="0.22" points="1176.5,-71.71 1166.26,-69 1172.57,-77.5 1176.5,-71.71"/>
</g>
<!-- 3598&#45;&gt;56 -->
<g id="edge124" class="edge">
<title>3598&#45;&gt;56</title>
<path fill="none" stroke="red" stroke-width="0.36" d="M1408.82,-215.4C1425.18,-201.56 1449.45,-181.02 1466.81,-166.32"/>
<polygon fill="red" stroke="red" stroke-width="0.36" points="1468.92,-169.12 1474.3,-159.99 1464.4,-163.78 1468.92,-169.12"/>
</g>
<!-- 5520&#45;&gt;Move Right -->
<g id="edge130" class="edge">
<title>5520&#45;&gt;Move Right</title>
<path fill="none" stroke="red" stroke-width="0.2" d="M2402.81,-132.15C2397.05,-128.62 2390.53,-125.28 2384.03,-123.33 2189.38,-64.77 1663.82,-148.68 1470.03,-87.33 1461.43,-84.6 1452.87,-80.44 1444.9,-75.77"/>
<polygon fill="red" stroke="red" stroke-width="0.2" points="1446.78,-72.81 1436.45,-70.48 1443.07,-78.75 1446.78,-72.81"/>
</g>
<!-- 55&#45;&gt;Move Right -->
<g id="edge48" class="edge">
<title>55&#45;&gt;Move Right</title>
<path fill="none" stroke="green" stroke-width="0.59" d="M1146.35,-140.31C1186.73,-125.32 1292.57,-86.03 1355.33,-62.74"/>
<polygon fill="green" stroke="green" stroke-width="0.59" points="1356.4,-66.08 1364.56,-59.31 1353.96,-59.51 1356.4,-66.08"/>
</g>
<!-- 55&#45;&gt;Move Left -->
<g id="edge49" class="edge">
<title>55&#45;&gt;Move Left</title>
<path fill="none" stroke="green" stroke-width="0.35" d="M1147.19,-142.45C1168.45,-137.66 1205.82,-129.43 1238.03,-123.33 1334.08,-105.12 1364.37,-123.91 1455.03,-87.33 1463.3,-83.99 1471.57,-79.4 1479.25,-74.46"/>
<polygon fill="green" stroke="green" stroke-width="0.35" points="1481.21,-77.36 1487.52,-68.85 1477.28,-71.56 1481.21,-77.36"/>
</g>
<!-- 55&#45;&gt;Move Up -->
<g id="edge50" class="edge">
<title>55&#45;&gt;Move Up</title>
<path fill="none" stroke="green" stroke-width="0.15" d="M1116.61,-135.87C1097.73,-121.1 1062.67,-93.67 1035.91,-72.74"/>
<polygon fill="green" stroke="green" stroke-width="0.15" points="1038.11,-70.01 1028.08,-66.61 1033.8,-75.53 1038.11,-70.01"/>
</g>
<!-- 55&#45;&gt;Move Down -->
<g id="edge51" class="edge">
<title>55&#45;&gt;Move Down</title>
<path fill="none" stroke="red" stroke-width="0.75" d="M1130.03,-129.57C1130.03,-120.94 1130.03,-109.88 1130.03,-98.61"/>
<polygon fill="red" stroke="red" stroke-width="0.75" points="1133.53,-98.96 1130.03,-88.96 1126.53,-98.96 1133.53,-98.96"/>
</g>
<!-- 56&#45;&gt;Move Right -->
<g id="edge52" class="edge">
<title>56&#45;&gt;Move Right</title>
<path fill="none" stroke="red" stroke-width="0.12" d="M1477.05,-133.07C1466.79,-120.65 1450.95,-101.48 1436.65,-84.16"/>
<polygon fill="red" stroke="red" stroke-width="0.12" points="1439.39,-81.99 1430.32,-76.5 1433.99,-86.44 1439.39,-81.99"/>
</g>
<!-- 56&#45;&gt;Move Left -->
<g id="edge53" class="edge">
<title>56&#45;&gt;Move Left</title>
<path fill="none" stroke="red" stroke-width="0.45" d="M1492.69,-130.03C1495.75,-119.27 1499.93,-104.62 1503.96,-90.49"/>
<polygon fill="red" stroke="red" stroke-width="0.45" points="1507.29,-91.59 1506.66,-81.01 1500.56,-89.67 1507.29,-91.59"/>
</g>
<!-- 56&#45;&gt;Move Up -->
<g id="edge54" class="edge">
<title>56&#45;&gt;Move Up</title>
<path fill="none" stroke="green" stroke-width="0.39" d="M1470.28,-146.09C1412.21,-144.72 1223.25,-136.49 1077.03,-87.33 1063.87,-82.9 1050.35,-76.25 1038.39,-69.5"/>
<polygon fill="green" stroke="green" stroke-width="0.39" points="1040.49,-66.67 1030.09,-64.66 1036.96,-72.72 1040.49,-66.67"/>
</g>
<!-- 56&#45;&gt;Move Down -->
<g id="edge55" class="edge">
<title>56&#45;&gt;Move Down</title>
<path fill="none" stroke="green" stroke-width="0.31" d="M1471.24,-141.6C1420.02,-127.05 1264.22,-82.79 1182.04,-59.44"/>
<polygon fill="green" stroke="green" stroke-width="0.31" points="1183.18,-56.12 1172.6,-56.76 1181.26,-62.86 1183.18,-56.12"/>
</g>
<!-- 57&#45;&gt;Move Right -->
<g id="edge56" class="edge">
<title>57&#45;&gt;Move Right</title>
<path fill="none" stroke="green" stroke-width="0.13" d="M1017.39,-142C1075.25,-127.43 1263.02,-80.16 1353.88,-57.29"/>
<polygon fill="green" stroke="green" stroke-width="0.13" points="1354.64,-60.71 1363.49,-54.87 1352.93,-53.92 1354.64,-60.71"/>
</g>
<!-- 57&#45;&gt;Move Up -->
<g id="edge57" class="edge">
<title>57&#45;&gt;Move Up</title>
<path fill="none" stroke="red" stroke-width="0.46" d="M1000.03,-129.57C1000.03,-118.78 1000.03,-104.21 1000.03,-90.18"/>
<polygon fill="red" stroke="red" stroke-width="0.46" points="1003.53,-90.32 1000.03,-80.32 996.53,-90.32 1003.53,-90.32"/>
</g>
<!-- 57&#45;&gt;Move Down -->
<g id="edge58" class="edge">
<title>57&#45;&gt;Move Down</title>
<path fill="none" stroke="green" stroke-width="0.26" stroke-dasharray="1,5" d="M1013.45,-135.87C1030.84,-122.27 1061.96,-97.92 1087.68,-77.8"/>
<polygon fill="green" stroke="green" stroke-width="0.26" points="1089.79,-80.59 1095.51,-71.67 1085.47,-75.08 1089.79,-80.59"/>
</g>
</g>
</svg>
