<?xml version="1.0" encoding="UTF-8" standalone="no"?>
<!DOCTYPE svg PUBLIC "-//W3C//DTD SVG 1.1//EN"
 "http://www.w3.org/Graphics/SVG/1.1/DTD/svg11.dtd">
<!-- Generated by graphviz version 12.0.0 (20240704.0754)
 -->
<!-- Pages: 1 -->
<svg width="1896pt" height="234pt"
 viewBox="0.00 0.00 1895.62 233.91" xmlns="http://www.w3.org/2000/svg" xmlns:xlink="http://www.w3.org/1999/xlink">
<g id="graph0" class="graph" transform="scale(1 1) rotate(0) translate(4 229.91)">
<polygon fill="white" stroke="none" points="-4,4 -4,-229.91 1891.62,-229.91 1891.62,4 -4,4"/>
<!-- Pellet Right -->
<g id="node1" class="node">
<title>Pellet Right</title>
<polygon fill="lightblue" stroke="black" points="494.2,-156.62 436.95,-156.62 436.95,-138.12 494.2,-138.12 494.2,-156.62"/>
<text text-anchor="middle" x="465.58" y="-144.07" font-family="Times,serif" font-size="9.00">Pellet Right</text>
</g>
<!-- Move Right -->
<g id="node18" class="node">
<title>Move Right</title>
<ellipse fill="lightblue" stroke="black" cx="804.58" cy="-43.66" rx="41.54" ry="41.54"/>
<text text-anchor="middle" x="804.58" y="-40.36" font-family="Times,serif" font-size="9.00">Move Right</text>
</g>
<!-- Pellet Right&#45;&gt;Move Right -->
<g id="edge1" class="edge">
<title>Pellet Right&#45;&gt;Move Right</title>
<path fill="none" stroke="green" stroke-width="0.31" d="M477.31,-137.69C484.54,-132.76 494.19,-126.87 503.58,-123.33 588.48,-91.26 617.62,-113.3 704.58,-87.33 722.42,-82 741.36,-74.44 757.9,-67.17"/>
<polygon fill="green" stroke="green" stroke-width="0.31" points="759.21,-70.41 766.9,-63.13 756.34,-64.03 759.21,-70.41"/>
</g>
<!-- Move Left -->
<g id="node19" class="node">
<title>Move Left</title>
<ellipse fill="lightblue" stroke="black" cx="657.58" cy="-43.66" rx="37.83" ry="37.83"/>
<text text-anchor="middle" x="657.58" y="-40.36" font-family="Times,serif" font-size="9.00">Move Left</text>
</g>
<!-- Pellet Right&#45;&gt;Move Left -->
<g id="edge2" class="edge">
<title>Pellet Right&#45;&gt;Move Left</title>
<path fill="none" stroke="red" stroke-width="0.75" d="M479.15,-137.81C486.34,-133.36 495.36,-127.91 503.58,-123.33 540.25,-102.88 582.82,-81.29 613.89,-65.92"/>
<polygon fill="red" stroke="red" stroke-width="0.75" points="615.12,-69.21 622.54,-61.65 612.03,-62.94 615.12,-69.21"/>
</g>
<!-- Move Up -->
<g id="node20" class="node">
<title>Move Up</title>
<ellipse fill="lightblue" stroke="black" cx="1089.58" cy="-43.66" rx="35.71" ry="35.71"/>
<text text-anchor="middle" x="1089.58" y="-40.36" font-family="Times,serif" font-size="9.00">Move Up</text>
</g>
<!-- Pellet Right&#45;&gt;Move Up -->
<g id="edge3" class="edge">
<title>Pellet Right&#45;&gt;Move Up</title>
<path fill="none" stroke="green" stroke-width="0.15" d="M476.89,-137.67C484.12,-132.59 493.92,-126.57 503.58,-123.33 652.68,-73.34 699.88,-109.45 855.58,-87.33 921.66,-77.94 997.58,-63.4 1044.57,-53.95"/>
<polygon fill="green" stroke="green" stroke-width="0.15" points="1045.1,-57.42 1054.21,-52.01 1043.71,-50.56 1045.1,-57.42"/>
</g>
<!-- Move Down -->
<g id="node21" class="node">
<title>Move Down</title>
<ellipse fill="lightblue" stroke="black" cx="1186.58" cy="-43.66" rx="43.66" ry="43.66"/>
<text text-anchor="middle" x="1186.58" y="-40.36" font-family="Times,serif" font-size="9.00">Move Down</text>
</g>
<!-- Pellet Right&#45;&gt;Move Down -->
<g id="edge4" class="edge">
<title>Pellet Right&#45;&gt;Move Down</title>
<path fill="none" stroke="red" stroke-width="0.67" d="M476.51,-137.75C483.75,-132.56 493.7,-126.39 503.58,-123.33 637.71,-81.68 1003.73,-138.38 1134.58,-87.33 1138.8,-85.68 1142.94,-83.55 1146.92,-81.13"/>
<polygon fill="red" stroke="red" stroke-width="0.67" points="1148.76,-84.1 1155.06,-75.58 1144.82,-78.32 1148.76,-84.1"/>
</g>
<!-- Pellet Left -->
<g id="node2" class="node">
<title>Pellet Left</title>
<polygon fill="lightblue" stroke="black" points="564.58,-156.62 512.58,-156.62 512.58,-138.12 564.58,-138.12 564.58,-156.62"/>
<text text-anchor="middle" x="538.58" y="-144.07" font-family="Times,serif" font-size="9.00">Pellet Left</text>
</g>
<!-- Pellet Left&#45;&gt;Move Right -->
<g id="edge5" class="edge">
<title>Pellet Left&#45;&gt;Move Right</title>
<path fill="none" stroke="red" stroke-width="0.52" stroke-dasharray="1,5" d="M549.71,-137.73C556.34,-132.93 565.09,-127.17 573.58,-123.33 628.58,-98.42 647.57,-107.22 704.58,-87.33 722.16,-81.19 741.03,-73.45 757.6,-66.25"/>
<polygon fill="red" stroke="red" stroke-width="0.52" points="758.59,-69.64 766.33,-62.41 755.77,-63.23 758.59,-69.64"/>
</g>
<!-- Pellet Left&#45;&gt;Move Left -->
<g id="edge6" class="edge">
<title>Pellet Left&#45;&gt;Move Left</title>
<path fill="none" stroke="green" stroke-width="1.1" d="M548.72,-137.7C564.44,-124.26 595.46,-97.75 620.38,-76.45"/>
<polygon fill="green" stroke="green" stroke-width="1.1" points="622.65,-79.11 627.98,-69.96 618.11,-73.79 622.65,-79.11"/>
</g>
<!-- Pellet Left&#45;&gt;Move Up -->
<g id="edge7" class="edge">
<title>Pellet Left&#45;&gt;Move Up</title>
<path fill="none" stroke="green" stroke-width="0.36" d="M548.92,-137.74C555.55,-132.68 564.57,-126.66 573.58,-123.33 692.07,-79.46 730.71,-106.67 855.58,-87.33 921.4,-77.13 997.17,-62.85 1044.23,-53.67"/>
<polygon fill="green" stroke="green" stroke-width="0.36" points="1044.72,-57.14 1053.86,-51.79 1043.37,-50.28 1044.72,-57.14"/>
</g>
<!-- Pellet Left&#45;&gt;Move Down -->
<g id="edge8" class="edge">
<title>Pellet Left&#45;&gt;Move Down</title>
<path fill="none" stroke="red" stroke-width="0.1" d="M548.55,-137.77C555.18,-132.59 564.33,-126.42 573.58,-123.33 810.49,-43.99 902.15,-178.98 1134.58,-87.33 1139.03,-85.57 1143.39,-83.29 1147.57,-80.68"/>
<polygon fill="red" stroke="red" stroke-width="0.1" points="1149.49,-83.61 1155.74,-75.06 1145.52,-77.84 1149.49,-83.61"/>
</g>
<!-- Pellet Up -->
<g id="node3" class="node">
<title>Pellet Up</title>
<polygon fill="lightblue" stroke="black" points="1023.08,-225.91 974.08,-225.91 974.08,-207.41 1023.08,-207.41 1023.08,-225.91"/>
<text text-anchor="middle" x="998.58" y="-213.36" font-family="Times,serif" font-size="9.00">Pellet Up</text>
</g>
<!-- Pellet Up&#45;&gt;Move Right -->
<g id="edge9" class="edge">
<title>Pellet Up&#45;&gt;Move Right</title>
<path fill="none" stroke="red" stroke-width="0.42" d="M973.9,-216C857.27,-217.33 365.11,-220.01 319.58,-171.41 304.97,-155.82 305.19,-139.13 319.58,-123.33 377.44,-59.8 621.28,-108.44 704.58,-87.33 722.78,-82.71 741.93,-75.24 758.55,-67.83"/>
<polygon fill="red" stroke="red" stroke-width="0.42" points="759.81,-71.11 767.45,-63.76 756.9,-64.74 759.81,-71.11"/>
</g>
<!-- Pellet Up&#45;&gt;Move Left -->
<g id="edge10" class="edge">
<title>Pellet Up&#45;&gt;Move Left</title>
<path fill="none" stroke="red" stroke-width="0.47" d="M973.58,-215.02C852.08,-211.76 327.94,-196.31 304.58,-171.41 213.52,-74.36 492.82,-51.49 609.18,-46.21"/>
<polygon fill="red" stroke="red" stroke-width="0.47" points="609.03,-49.72 618.88,-45.79 608.74,-42.72 609.03,-49.72"/>
</g>
<!-- Pellet Up&#45;&gt;Move Up -->
<g id="edge11" class="edge">
<title>Pellet Up&#45;&gt;Move Up</title>
<path fill="none" stroke="red" stroke-width="0.11" d="M1023.5,-215.99C1140.14,-217.26 1628.37,-219.68 1673.58,-171.41 1688.19,-155.81 1688.18,-138.93 1673.58,-123.33 1632.49,-79.42 1188.53,-111.75 1133.58,-87.33 1128.59,-85.11 1123.84,-82.07 1119.43,-78.63"/>
<polygon fill="red" stroke="red" stroke-width="0.11" points="1121.85,-76.1 1112,-72.2 1117.27,-81.39 1121.85,-76.1"/>
</g>
<!-- Pellet Up&#45;&gt;Move Down -->
<g id="edge12" class="edge">
<title>Pellet Up&#45;&gt;Move Down</title>
<path fill="none" stroke="red" stroke-width="0.41" stroke-dasharray="1,5" d="M1023.43,-215.22C1154.53,-212.75 1760.68,-199.85 1787.58,-171.41 1802.26,-155.88 1801.67,-139.39 1787.58,-123.33 1751.72,-82.47 1382.25,-56.32 1241.04,-47.76"/>
<polygon fill="red" stroke="red" stroke-width="0.41" points="1241.29,-44.26 1231.1,-47.16 1240.87,-51.25 1241.29,-44.26"/>
</g>
<!-- 3651 -->
<g id="node23" class="node">
<title>3651</title>
<ellipse fill="white" stroke="black" cx="1863.58" cy="-147.37" rx="24.04" ry="24.04"/>
<text text-anchor="middle" x="1863.58" y="-144.07" font-family="Times,serif" font-size="9.00">3651</text>
</g>
<!-- Pellet Up&#45;&gt;3651 -->
<g id="edge72" class="edge">
<title>Pellet Up&#45;&gt;3651</title>
<path fill="none" stroke="green" stroke-width="0.28" d="M1023.19,-215.95C1143.5,-217.12 1670.15,-219.36 1825.58,-171.41 1828.82,-170.41 1832.07,-169.07 1835.23,-167.54"/>
<polygon fill="green" stroke="green" stroke-width="0.28" points="1836.9,-170.62 1843.97,-162.73 1833.52,-164.49 1836.9,-170.62"/>
</g>
<!-- 911 -->
<g id="node24" class="node">
<title>911</title>
<ellipse fill="white" stroke="black" cx="213.58" cy="-147.37" rx="20.86" ry="20.86"/>
<text text-anchor="middle" x="213.58" y="-144.07" font-family="Times,serif" font-size="9.00">911</text>
</g>
<!-- Pellet Up&#45;&gt;911 -->
<g id="edge71" class="edge">
<title>Pellet Up&#45;&gt;911</title>
<path fill="none" stroke="red" stroke-width="0.33" d="M973.62,-215.91C859.56,-216.8 387.53,-217.55 248.58,-171.41 245.09,-170.25 241.61,-168.65 238.28,-166.83"/>
<polygon fill="red" stroke="red" stroke-width="0.33" points="240.15,-163.88 229.81,-161.57 236.46,-169.82 240.15,-163.88"/>
</g>
<!-- Pellet Down -->
<g id="node4" class="node">
<title>Pellet Down</title>
<polygon fill="lightblue" stroke="black" points="642.7,-156.62 582.45,-156.62 582.45,-138.12 642.7,-138.12 642.7,-156.62"/>
<text text-anchor="middle" x="612.58" y="-144.07" font-family="Times,serif" font-size="9.00">Pellet Down</text>
</g>
<!-- Pellet Down&#45;&gt;Move Right -->
<g id="edge13" class="edge">
<title>Pellet Down&#45;&gt;Move Right</title>
<path fill="none" stroke="red" stroke-width="0.53" d="M627.3,-137.67C634.82,-133.29 644.14,-127.94 652.58,-123.33 687.63,-104.17 727.79,-83.44 758.03,-68.07"/>
<polygon fill="red" stroke="red" stroke-width="0.53" points="759.42,-71.29 766.75,-63.64 756.25,-65.04 759.42,-71.29"/>
</g>
<!-- Pellet Down&#45;&gt;Move Left -->
<g id="edge14" class="edge">
<title>Pellet Down&#45;&gt;Move Left</title>
<path fill="none" stroke="green" stroke-width="0.3" d="M616.41,-137.7C621.3,-126.65 630.1,-106.77 638.31,-88.21"/>
<polygon fill="green" stroke="green" stroke-width="0.3" points="641.5,-89.66 642.34,-79.1 635.09,-86.83 641.5,-89.66"/>
</g>
<!-- Pellet Down&#45;&gt;Move Up -->
<g id="edge15" class="edge">
<title>Pellet Down&#45;&gt;Move Up</title>
<path fill="none" stroke="red" stroke-width="0.21" d="M624.99,-137.71C632.62,-132.78 642.79,-126.89 652.58,-123.33 738.68,-91.99 765.39,-103.55 855.58,-87.33 921.27,-75.51 997.3,-61.61 1044.41,-52.96"/>
<polygon fill="red" stroke="red" stroke-width="0.21" points="1044.78,-56.46 1053.98,-51.21 1043.52,-49.57 1044.78,-56.46"/>
</g>
<!-- Pellet Down&#45;&gt;Move Down -->
<g id="edge16" class="edge">
<title>Pellet Down&#45;&gt;Move Down</title>
<path fill="none" stroke="green" stroke-width="0.85" d="M624.18,-137.81C631.83,-132.65 642.31,-126.49 652.58,-123.33 857.89,-60.14 935.15,-167.17 1134.58,-87.33 1138.67,-85.69 1142.68,-83.61 1146.55,-81.25"/>
<polygon fill="green" stroke="green" stroke-width="0.85" points="1148.5,-84.16 1154.78,-75.63 1144.55,-78.38 1148.5,-84.16"/>
</g>
<!-- Power Pellet Right -->
<g id="node5" class="node">
<title>Power Pellet Right</title>
<polygon fill="lightblue" stroke="black" points="743.95,-156.62 661.2,-156.62 661.2,-138.12 743.95,-138.12 743.95,-156.62"/>
<text text-anchor="middle" x="702.58" y="-144.07" font-family="Times,serif" font-size="9.00">Power Pellet Right</text>
</g>
<!-- Power Pellet Right&#45;&gt;Move Right -->
<g id="edge17" class="edge">
<title>Power Pellet Right&#45;&gt;Move Right</title>
<path fill="none" stroke="red" stroke-width="0.17" d="M711.27,-137.7C723.86,-125.15 747.88,-101.19 768.41,-80.73"/>
<polygon fill="red" stroke="red" stroke-width="0.17" points="770.7,-83.39 775.31,-73.85 765.76,-78.43 770.7,-83.39"/>
</g>
<!-- Power Pellet Right&#45;&gt;Move Left -->
<g id="edge18" class="edge">
<title>Power Pellet Right&#45;&gt;Move Left</title>
<path fill="none" stroke="green" stroke-width="0.43" d="M698.74,-137.7C693.85,-126.65 685.05,-106.77 676.84,-88.21"/>
<polygon fill="green" stroke="green" stroke-width="0.43" points="680.13,-87 672.89,-79.27 673.73,-89.83 680.13,-87"/>
</g>
<!-- Power Pellet Right&#45;&gt;Move Up -->
<g id="edge19" class="edge">
<title>Power Pellet Right&#45;&gt;Move Up</title>
<path fill="none" stroke="green" stroke-width="0.65" d="M718.9,-137.83C728.5,-133.06 741,-127.3 752.58,-123.33 854.11,-88.49 978.06,-63.96 1043.69,-52.32"/>
<polygon fill="green" stroke="green" stroke-width="0.65" points="1044.26,-55.78 1053.51,-50.6 1043.05,-48.88 1044.26,-55.78"/>
</g>
<!-- Power Pellet Right&#45;&gt;Move Down -->
<g id="edge20" class="edge">
<title>Power Pellet Right&#45;&gt;Move Down</title>
<path fill="none" stroke="green" stroke-width="0.34" d="M717.83,-137.7C727.48,-132.63 740.39,-126.61 752.58,-123.33 917.25,-79.01 976.89,-152.24 1134.58,-87.33 1138.82,-85.58 1142.99,-83.36 1147,-80.86"/>
<polygon fill="green" stroke="green" stroke-width="0.34" points="1148.83,-83.85 1155.09,-75.3 1144.87,-78.08 1148.83,-83.85"/>
</g>
<!-- Power Pellet Left -->
<g id="node6" class="node">
<title>Power Pellet Left</title>
<polygon fill="lightblue" stroke="black" points="1593.33,-156.62 1515.83,-156.62 1515.83,-138.12 1593.33,-138.12 1593.33,-156.62"/>
<text text-anchor="middle" x="1554.58" y="-144.07" font-family="Times,serif" font-size="9.00">Power Pellet Left</text>
</g>
<!-- Power Pellet Left&#45;&gt;Move Right -->
<g id="edge21" class="edge">
<title>Power Pellet Left&#45;&gt;Move Right</title>
<path fill="none" stroke="red" stroke-width="0.29" d="M1540.41,-137.85C1531.13,-132.71 1518.54,-126.54 1506.58,-123.33 1307.68,-69.85 1248.88,-113.38 1044.58,-87.33 978.87,-78.95 903.8,-64.87 855.37,-55.19"/>
<polygon fill="red" stroke="red" stroke-width="0.29" points="856.08,-51.76 845.59,-53.22 854.7,-58.62 856.08,-51.76"/>
</g>
<!-- Power Pellet Left&#45;&gt;Move Up -->
<g id="edge22" class="edge">
<title>Power Pellet Left&#45;&gt;Move Up</title>
<path fill="none" stroke="green" stroke-width="0.37" d="M1539.97,-137.69C1530.72,-132.63 1518.33,-126.6 1506.58,-123.33 1346.15,-78.6 1284.75,-157.23 1133.58,-87.33 1128.75,-85.1 1124.13,-82.11 1119.82,-78.75"/>
<polygon fill="green" stroke="green" stroke-width="0.37" points="1122.22,-76.2 1112.38,-72.29 1117.64,-81.49 1122.22,-76.2"/>
</g>
<!-- Power Pellet Left&#45;&gt;Move Down -->
<g id="edge23" class="edge">
<title>Power Pellet Left&#45;&gt;Move Down</title>
<path fill="none" stroke="red" stroke-width="0.22" d="M1538.5,-137.62C1529.34,-132.9 1517.54,-127.26 1506.58,-123.33 1415.08,-90.52 1304.07,-66.61 1239.76,-54.24"/>
<polygon fill="red" stroke="red" stroke-width="0.22" points="1240.66,-50.85 1230.18,-52.41 1239.35,-57.72 1240.66,-50.85"/>
</g>
<!-- Power Pellet Up -->
<g id="node7" class="node">
<title>Power Pellet Up</title>
<polygon fill="lightblue" stroke="black" points="125.83,-225.91 51.33,-225.91 51.33,-207.41 125.83,-207.41 125.83,-225.91"/>
<text text-anchor="middle" x="88.58" y="-213.36" font-family="Times,serif" font-size="9.00">Power Pellet Up</text>
</g>
<!-- Power Pellet Up&#45;&gt;Move Right -->
<g id="edge24" class="edge">
<title>Power Pellet Up&#45;&gt;Move Right</title>
<path fill="none" stroke="red" stroke-width="0.45" d="M93.19,-207.05C103.96,-187.94 132.82,-142.2 171.58,-123.33 278.32,-71.37 589.13,-115.01 704.58,-87.33 722.84,-82.95 742,-75.53 758.62,-68.1"/>
<polygon fill="red" stroke="red" stroke-width="0.45" points="759.84,-71.39 767.46,-64.03 756.91,-65.03 759.84,-71.39"/>
</g>
<!-- Power Pellet Up&#45;&gt;Move Left -->
<g id="edge25" class="edge">
<title>Power Pellet Up&#45;&gt;Move Left</title>
<path fill="none" stroke="red" stroke-width="0.13" stroke-dasharray="1,5" d="M57.91,-207.02C40.43,-200.35 19.99,-189.18 9.58,-171.41 -1.23,-152.97 -4.59,-139.32 9.58,-123.33 49.34,-78.44 466.36,-54 609.59,-46.89"/>
<polygon fill="red" stroke="red" stroke-width="0.13" points="609.41,-50.4 619.23,-46.41 609.07,-43.41 609.41,-50.4"/>
</g>
<!-- Power Pellet Up&#45;&gt;Move Up -->
<g id="edge26" class="edge">
<title>Power Pellet Up&#45;&gt;Move Up</title>
<path fill="none" stroke="red" stroke-width="0.13" d="M126.08,-211.29C140.03,-209.82 156.01,-208.33 170.58,-207.41 210.29,-204.92 1574.8,-199.9 1602.58,-171.41 1617.5,-156.11 1617.1,-139.01 1602.58,-123.33 1531.55,-46.64 1228.88,-130.26 1133.58,-87.33 1128.6,-85.09 1123.86,-82.03 1119.45,-78.58"/>
<polygon fill="red" stroke="red" stroke-width="0.13" points="1121.9,-76.07 1112.05,-72.16 1117.31,-81.36 1121.9,-76.07"/>
</g>
<!-- Power Pellet Up&#45;&gt;Move Down -->
<g id="edge27" class="edge">
<title>Power Pellet Up&#45;&gt;Move Down</title>
<path fill="none" stroke="red" stroke-width="0.31" stroke-dasharray="1,5" d="M126.08,-211.29C140.03,-209.82 156.01,-208.32 170.58,-207.41 210.82,-204.89 1593.42,-200.27 1621.58,-171.41 1735.31,-54.82 1380.46,-43.91 1240.64,-44.01"/>
<polygon fill="red" stroke="red" stroke-width="0.31" points="1241.02,-40.51 1231.03,-44.03 1241.04,-47.51 1241.02,-40.51"/>
</g>
<!-- 994 -->
<g id="node22" class="node">
<title>994</title>
<ellipse fill="white" stroke="black" cx="39.58" cy="-147.37" rx="20.86" ry="20.86"/>
<text text-anchor="middle" x="39.58" y="-144.07" font-family="Times,serif" font-size="9.00">994</text>
</g>
<!-- Power Pellet Up&#45;&gt;994 -->
<g id="edge69" class="edge">
<title>Power Pellet Up&#45;&gt;994</title>
<path fill="none" stroke="green" stroke-width="0.24" d="M82.37,-207.14C76.15,-198.6 66.29,-185.05 57.59,-173.11"/>
<polygon fill="green" stroke="green" stroke-width="0.24" points="60.47,-171.12 51.75,-165.09 54.81,-175.24 60.47,-171.12"/>
</g>
<!-- Power Pellet Down -->
<g id="node8" class="node">
<title>Power Pellet Down</title>
<polygon fill="lightblue" stroke="black" points="847.45,-156.62 761.7,-156.62 761.7,-138.12 847.45,-138.12 847.45,-156.62"/>
<text text-anchor="middle" x="804.58" y="-144.07" font-family="Times,serif" font-size="9.00">Power Pellet Down</text>
</g>
<!-- Power Pellet Down&#45;&gt;Move Right -->
<g id="edge28" class="edge">
<title>Power Pellet Down&#45;&gt;Move Right</title>
<path fill="none" stroke="red" stroke-width="0.11" d="M804.58,-137.7C804.58,-128.07 804.58,-111.73 804.58,-95.4"/>
<polygon fill="red" stroke="red" stroke-width="0.11" points="808.08,-95.45 804.58,-85.45 801.08,-95.45 808.08,-95.45"/>
</g>
<!-- Power Pellet Down&#45;&gt;Move Left -->
<g id="edge29" class="edge">
<title>Power Pellet Down&#45;&gt;Move Left</title>
<path fill="none" stroke="red" stroke-width="0.5" d="M792.04,-137.7C771.23,-123.3 728.68,-93.86 696.99,-71.94"/>
<polygon fill="red" stroke="red" stroke-width="0.5" points="699.21,-69.21 688.99,-66.4 695.22,-74.97 699.21,-69.21"/>
</g>
<!-- Power Pellet Down&#45;&gt;Move Up -->
<g id="edge30" class="edge">
<title>Power Pellet Down&#45;&gt;Move Up</title>
<path fill="none" stroke="green" stroke-width="0.12" d="M823.18,-137.63C833.02,-133.14 845.35,-127.7 856.58,-123.33 921.58,-98.02 998.51,-72.97 1045.67,-58.16"/>
<polygon fill="green" stroke="green" stroke-width="0.12" points="1046.59,-61.54 1055.09,-55.22 1044.5,-54.86 1046.59,-61.54"/>
</g>
<!-- Power Pellet Down&#45;&gt;Move Down -->
<g id="edge31" class="edge">
<title>Power Pellet Down&#45;&gt;Move Down</title>
<path fill="none" stroke="red" stroke-width="0.12" d="M820.98,-137.63C831,-132.68 844.22,-126.79 856.58,-123.33 976.55,-89.74 1020.21,-136.75 1134.58,-87.33 1138.9,-85.46 1143.16,-83.12 1147.26,-80.5"/>
<polygon fill="red" stroke="red" stroke-width="0.12" points="1149.08,-83.5 1155.28,-74.9 1145.07,-77.76 1149.08,-83.5"/>
</g>
<!-- Ghost Info Right -->
<g id="node9" class="node">
<title>Ghost Info Right</title>
<polygon fill="lightblue" stroke="black" points="941.95,-156.62 865.2,-156.62 865.2,-138.12 941.95,-138.12 941.95,-156.62"/>
<text text-anchor="middle" x="903.58" y="-144.07" font-family="Times,serif" font-size="9.00">Ghost Info Right</text>
</g>
<!-- Ghost Info Right&#45;&gt;Move Right -->
<g id="edge32" class="edge">
<title>Ghost Info Right&#45;&gt;Move Right</title>
<path fill="none" stroke="red" stroke-width="0.24" d="M895.14,-137.7C883.06,-125.29 860.12,-101.73 840.35,-81.42"/>
<polygon fill="red" stroke="red" stroke-width="0.24" points="842.98,-79.1 833.49,-74.37 837.96,-83.98 842.98,-79.1"/>
</g>
<!-- Ghost Info Right&#45;&gt;Move Left -->
<g id="edge33" class="edge">
<title>Ghost Info Right&#45;&gt;Move Left</title>
<path fill="none" stroke="red" stroke-width="0.4" d="M887.27,-137.78C878.33,-133.22 866.97,-127.67 856.58,-123.33 811.84,-104.62 798.66,-105.19 753.58,-87.33 736.14,-80.42 717.23,-72.18 700.83,-64.79"/>
<polygon fill="red" stroke="red" stroke-width="0.4" points="702.61,-61.75 692.06,-60.81 699.72,-68.13 702.61,-61.75"/>
</g>
<!-- Ghost Info Right&#45;&gt;Move Up -->
<g id="edge34" class="edge">
<title>Ghost Info Right&#45;&gt;Move Up</title>
<path fill="none" stroke="green" stroke-width="0.72" d="M919.43,-137.7C947.84,-122.17 1008.22,-89.15 1048.87,-66.92"/>
<polygon fill="green" stroke="green" stroke-width="0.72" points="1050.44,-70.05 1057.53,-62.18 1047.08,-63.91 1050.44,-70.05"/>
</g>
<!-- Ghost Info Right&#45;&gt;Move Down -->
<g id="edge35" class="edge">
<title>Ghost Info Right&#45;&gt;Move Down</title>
<path fill="none" stroke="red" stroke-width="0.44" d="M918.81,-137.63C927.8,-132.8 939.55,-127.04 950.58,-123.33 1029.56,-96.76 1059.19,-122.83 1134.58,-87.33 1138.73,-85.37 1142.83,-83.01 1146.81,-80.41"/>
<polygon fill="red" stroke="red" stroke-width="0.44" points="1148.58,-83.44 1154.72,-74.81 1144.54,-77.73 1148.58,-83.44"/>
</g>
<!-- Ghost Info Left -->
<g id="node10" class="node">
<title>Ghost Info Left</title>
<polygon fill="lightblue" stroke="black" points="1031.33,-156.62 959.83,-156.62 959.83,-138.12 1031.33,-138.12 1031.33,-156.62"/>
<text text-anchor="middle" x="995.58" y="-144.07" font-family="Times,serif" font-size="9.00">Ghost Info Left</text>
</g>
<!-- Ghost Info Left&#45;&gt;Move Right -->
<g id="edge36" class="edge">
<title>Ghost Info Left&#45;&gt;Move Right</title>
<path fill="none" stroke="green" stroke-width="0.51" d="M979.29,-137.7C951.09,-122.68 892.18,-91.31 850.58,-69.16"/>
<polygon fill="green" stroke="green" stroke-width="0.51" points="852.35,-66.14 841.88,-64.53 849.06,-72.32 852.35,-66.14"/>
</g>
<!-- Ghost Info Left&#45;&gt;Move Left -->
<g id="edge37" class="edge">
<title>Ghost Info Left&#45;&gt;Move Left</title>
<path fill="none" stroke="red" stroke-width="0.46" d="M981.46,-137.78C972.82,-132.88 961.38,-126.99 950.58,-123.33 866.29,-94.74 838.62,-113.59 753.58,-87.33 735.66,-81.8 716.65,-73.82 700.31,-66.27"/>
<polygon fill="red" stroke="red" stroke-width="0.46" points="702.2,-63.29 691.66,-62.18 699.21,-69.62 702.2,-63.29"/>
</g>
<!-- Ghost Info Left&#45;&gt;Move Up -->
<g id="edge38" class="edge">
<title>Ghost Info Left&#45;&gt;Move Up</title>
<path fill="none" stroke="red" stroke-width="0.33" d="M1003.59,-137.7C1015.69,-124.61 1039.27,-99.09 1058.68,-78.09"/>
<polygon fill="red" stroke="red" stroke-width="0.33" points="1061.06,-80.67 1065.28,-70.95 1055.92,-75.92 1061.06,-80.67"/>
</g>
<!-- Ghost Info Left&#45;&gt;Move Down -->
<g id="edge39" class="edge">
<title>Ghost Info Left&#45;&gt;Move Down</title>
<path fill="none" stroke="red" stroke-width="0.2" d="M1011.62,-137.62C1020.12,-133.13 1030.8,-127.69 1040.58,-123.33 1081.43,-105.11 1095.9,-109.81 1134.58,-87.33 1138.49,-85.06 1142.41,-82.49 1146.24,-79.78"/>
<polygon fill="red" stroke="red" stroke-width="0.2" points="1148.29,-82.62 1154.22,-73.84 1144.11,-77.01 1148.29,-82.62"/>
</g>
<!-- Ghost Info Up -->
<g id="node11" class="node">
<title>Ghost Info Up</title>
<polygon fill="lightblue" stroke="black" points="247.83,-225.91 179.33,-225.91 179.33,-207.41 247.83,-207.41 247.83,-225.91"/>
<text text-anchor="middle" x="213.58" y="-213.36" font-family="Times,serif" font-size="9.00">Ghost Info Up</text>
</g>
<!-- Ghost Info Up&#45;&gt;Move Right -->
<g id="edge40" class="edge">
<title>Ghost Info Up&#45;&gt;Move Right</title>
<path fill="none" stroke="green" stroke-width="0.15" d="M205.92,-207.08C190.9,-189.19 160.92,-147.6 183.58,-123.33 223.17,-80.91 648.16,-100.9 704.58,-87.33 723,-82.89 742.36,-75.38 759.08,-67.87"/>
<polygon fill="green" stroke="green" stroke-width="0.15" points="760.26,-71.19 767.87,-63.82 757.33,-64.83 760.26,-71.19"/>
</g>
<!-- Ghost Info Up&#45;&gt;Move Left -->
<g id="edge41" class="edge">
<title>Ghost Info Up&#45;&gt;Move Left</title>
<path fill="none" stroke="green" stroke-width="0.28" stroke-dasharray="1,5" d="M192.12,-207.02C177.5,-199.86 159.27,-188.13 150.58,-171.41 140.72,-152.45 136.67,-139.56 150.58,-123.33 209.45,-54.62 494.18,-45.42 609.21,-44.55"/>
<polygon fill="green" stroke="green" stroke-width="0.28" points="609.07,-48.05 619.05,-44.5 609.03,-41.05 609.07,-48.05"/>
</g>
<!-- Ghost Info Up&#45;&gt;Move Up -->
<g id="edge42" class="edge">
<title>Ghost Info Up&#45;&gt;Move Up</title>
<path fill="none" stroke="red" stroke-width="0.5" d="M248.07,-215.25C463.03,-212.57 1610.65,-197.13 1635.58,-171.41 1650.45,-156.07 1650.14,-138.97 1635.58,-123.33 1559.37,-41.46 1235.66,-133.01 1133.58,-87.33 1128.72,-85.16 1124.09,-82.21 1119.77,-78.87"/>
<polygon fill="red" stroke="red" stroke-width="0.5" points="1122.32,-76.44 1112.47,-72.56 1117.75,-81.74 1122.32,-76.44"/>
</g>
<!-- Ghost Info Up&#45;&gt;Move Down -->
<g id="edge43" class="edge">
<title>Ghost Info Up&#45;&gt;Move Down</title>
<path fill="none" stroke="red" stroke-width="0.21" d="M248.25,-215.32C473.65,-213.06 1722.52,-199.26 1749.58,-171.41 1764.47,-156.08 1763.6,-139.45 1749.58,-123.33 1716.35,-85.14 1374.81,-57.64 1240.45,-48.22"/>
<polygon fill="red" stroke="red" stroke-width="0.21" points="1240.91,-44.74 1230.69,-47.54 1240.43,-51.73 1240.91,-44.74"/>
</g>
<!-- Ghost Info Up&#45;&gt;911 -->
<g id="edge67" class="edge">
<title>Ghost Info Up&#45;&gt;911</title>
<path fill="none" stroke="red" stroke-width="0.29" d="M213.58,-207.14C213.58,-200 213.58,-189.35 213.58,-179.08"/>
<polygon fill="red" stroke="red" stroke-width="0.29" points="217.08,-179.1 213.58,-169.1 210.08,-179.1 217.08,-179.1"/>
</g>
<!-- Ghost Info Down -->
<g id="node12" class="node">
<title>Ghost Info Down</title>
<polygon fill="lightblue" stroke="black" points="1129.45,-156.62 1049.7,-156.62 1049.7,-138.12 1129.45,-138.12 1129.45,-156.62"/>
<text text-anchor="middle" x="1089.58" y="-144.07" font-family="Times,serif" font-size="9.00">Ghost Info Down</text>
</g>
<!-- Ghost Info Down&#45;&gt;Move Right -->
<g id="edge44" class="edge">
<title>Ghost Info Down&#45;&gt;Move Right</title>
<path fill="none" stroke="green" stroke-width="0.21" d="M1072.56,-137.76C1063.23,-133.2 1051.4,-127.66 1040.58,-123.33 977.31,-98.01 902.39,-74.02 854.2,-59.34"/>
<polygon fill="green" stroke="green" stroke-width="0.21" points="855.23,-55.99 844.64,-56.44 853.19,-62.69 855.23,-55.99"/>
</g>
<!-- Ghost Info Down&#45;&gt;Move Left -->
<g id="edge45" class="edge">
<title>Ghost Info Down&#45;&gt;Move Left</title>
<path fill="none" stroke="red" stroke-width="0.11" stroke-dasharray="1,5" d="M1074.61,-137.82C1065.15,-132.8 1052.49,-126.78 1040.58,-123.33 917.11,-87.53 877.42,-121.8 753.58,-87.33 735.34,-82.25 716.11,-74.28 699.7,-66.59"/>
<polygon fill="red" stroke="red" stroke-width="0.11" points="701.57,-63.61 691.04,-62.45 698.55,-69.93 701.57,-63.61"/>
</g>
<!-- Ghost Info Down&#45;&gt;Move Up -->
<g id="edge46" class="edge">
<title>Ghost Info Down&#45;&gt;Move Up</title>
<path fill="none" stroke="red" stroke-width="0.2" d="M1089.58,-137.7C1089.58,-126.97 1089.58,-107.89 1089.58,-89.79"/>
<polygon fill="red" stroke="red" stroke-width="0.2" points="1093.08,-89.91 1089.58,-79.91 1086.08,-89.91 1093.08,-89.91"/>
</g>
<!-- Ghost Info Down&#45;&gt;Move Down -->
<g id="edge47" class="edge">
<title>Ghost Info Down&#45;&gt;Move Down</title>
<path fill="none" stroke="red" stroke-width="0.18" d="M1097.85,-137.7C1109.35,-125.63 1130.92,-103.02 1149.91,-83.11"/>
<polygon fill="red" stroke="red" stroke-width="0.18" points="1152.21,-85.77 1156.58,-76.12 1147.14,-80.94 1152.21,-85.77"/>
</g>
<!-- PAC&#45;MAN Right -->
<g id="node13" class="node">
<title>PAC&#45;MAN Right</title>
<polygon fill="lightblue" stroke="black" points="1226.08,-156.62 1147.08,-156.62 1147.08,-138.12 1226.08,-138.12 1226.08,-156.62"/>
<text text-anchor="middle" x="1186.58" y="-144.07" font-family="Times,serif" font-size="9.00">PAC&#45;MAN Right</text>
</g>
<!-- PAC&#45;MAN Right&#45;&gt;Move Right -->
<g id="edge48" class="edge">
<title>PAC&#45;MAN Right&#45;&gt;Move Right</title>
<path fill="none" stroke="green" stroke-width="0.33" d="M1170.94,-137.8C1161.73,-133.03 1149.73,-127.27 1138.58,-123.33 1041.13,-88.92 922.39,-65.02 855.95,-53.19"/>
<polygon fill="green" stroke="green" stroke-width="0.33" points="856.69,-49.77 846.24,-51.48 855.48,-56.66 856.69,-49.77"/>
</g>
<!-- PAC&#45;MAN Right&#45;&gt;Move Left -->
<g id="edge49" class="edge">
<title>PAC&#45;MAN Right&#45;&gt;Move Left</title>
<path fill="none" stroke="red" stroke-width="0.19" d="M1171.98,-137.68C1162.73,-132.61 1150.34,-126.59 1138.58,-123.33 972.96,-77.42 919.85,-130.8 753.58,-87.33 735.43,-82.58 716.38,-74.77 700.07,-67.11"/>
<polygon fill="red" stroke="red" stroke-width="0.19" points="701.6,-63.96 691.07,-62.77 698.56,-70.27 701.6,-63.96"/>
</g>
<!-- PAC&#45;MAN Right&#45;&gt;Move Up -->
<g id="edge50" class="edge">
<title>PAC&#45;MAN Right&#45;&gt;Move Up</title>
<path fill="none" stroke="green" stroke-width="0.44" d="M1178.31,-137.7C1165.74,-124.52 1141.17,-98.76 1121.06,-77.68"/>
<polygon fill="green" stroke="green" stroke-width="0.44" points="1123.79,-75.46 1114.35,-70.64 1118.72,-80.3 1123.79,-75.46"/>
</g>
<!-- PAC&#45;MAN Right&#45;&gt;Move Down -->
<g id="edge51" class="edge">
<title>PAC&#45;MAN Right&#45;&gt;Move Down</title>
<path fill="none" stroke="green" stroke-width="0.24" d="M1186.58,-137.7C1186.58,-128.56 1186.58,-113.36 1186.58,-97.87"/>
<polygon fill="green" stroke="green" stroke-width="0.24" points="1190.08,-98.06 1186.58,-88.06 1183.08,-98.06 1190.08,-98.06"/>
</g>
<!-- PAC&#45;MAN Left -->
<g id="node14" class="node">
<title>PAC&#45;MAN Left</title>
<polygon fill="lightblue" stroke="black" points="1317.45,-156.62 1243.7,-156.62 1243.7,-138.12 1317.45,-138.12 1317.45,-156.62"/>
<text text-anchor="middle" x="1280.58" y="-144.07" font-family="Times,serif" font-size="9.00">PAC&#45;MAN Left</text>
</g>
<!-- PAC&#45;MAN Left&#45;&gt;Move Right -->
<g id="edge52" class="edge">
<title>PAC&#45;MAN Left&#45;&gt;Move Right</title>
<path fill="none" stroke="red" stroke-width="0.34" d="M1266.46,-137.78C1257.82,-132.88 1246.38,-126.99 1235.58,-123.33 1226.56,-120.27 967.93,-73.86 855.71,-53.8"/>
<polygon fill="red" stroke="red" stroke-width="0.34" points="856.61,-50.4 846.15,-52.09 855.38,-57.29 856.61,-50.4"/>
</g>
<!-- PAC&#45;MAN Left&#45;&gt;Move Left -->
<g id="edge53" class="edge">
<title>PAC&#45;MAN Left&#45;&gt;Move Left</title>
<path fill="none" stroke="red" stroke-width="0.26" d="M1267.37,-137.83C1258.7,-132.67 1246.9,-126.51 1235.58,-123.33 1028.76,-65.22 961.91,-139.72 753.58,-87.33 735.39,-82.75 716.33,-74.97 700.02,-67.3"/>
<polygon fill="red" stroke="red" stroke-width="0.26" points="701.66,-64.2 691.13,-62.99 698.6,-70.5 701.66,-64.2"/>
</g>
<!-- PAC&#45;MAN Left&#45;&gt;Move Up -->
<g id="edge54" class="edge">
<title>PAC&#45;MAN Left&#45;&gt;Move Up</title>
<path fill="none" stroke="green" stroke-width="0.24" d="M1265,-137.74C1256.44,-133.17 1245.57,-127.63 1235.58,-123.33 1191.42,-104.33 1174.44,-112.65 1133.58,-87.33 1129.17,-84.6 1124.84,-81.36 1120.73,-77.9"/>
<polygon fill="green" stroke="green" stroke-width="0.24" points="1123.17,-75.39 1113.39,-71.32 1118.5,-80.6 1123.17,-75.39"/>
</g>
<!-- PAC&#45;MAN Left&#45;&gt;Move Down -->
<g id="edge55" class="edge">
<title>PAC&#45;MAN Left&#45;&gt;Move Down</title>
<path fill="none" stroke="red" stroke-width="0.29" d="M1272.56,-137.7C1261.54,-125.77 1240.99,-103.53 1222.74,-83.79"/>
<polygon fill="red" stroke="red" stroke-width="0.29" points="1225.54,-81.66 1216.18,-76.69 1220.4,-86.41 1225.54,-81.66"/>
</g>
<!-- PAC&#45;MAN Up -->
<g id="node15" class="node">
<title>PAC&#45;MAN Up</title>
<polygon fill="lightblue" stroke="black" points="1405.95,-156.62 1335.2,-156.62 1335.2,-138.12 1405.95,-138.12 1405.95,-156.62"/>
<text text-anchor="middle" x="1370.58" y="-144.07" font-family="Times,serif" font-size="9.00">PAC&#45;MAN Up</text>
</g>
<!-- PAC&#45;MAN Up&#45;&gt;Move Right -->
<g id="edge56" class="edge">
<title>PAC&#45;MAN Up&#45;&gt;Move Right</title>
<path fill="none" stroke="green" stroke-width="0.27" d="M1357.25,-137.79C1348.79,-132.76 1337.43,-126.74 1326.58,-123.33 1206.05,-85.42 1169.48,-106.39 1044.58,-87.33 979.1,-77.33 903.97,-63.61 855.47,-54.46"/>
<polygon fill="green" stroke="green" stroke-width="0.27" points="856.13,-51.02 845.65,-52.6 854.82,-57.9 856.13,-51.02"/>
</g>
<!-- PAC&#45;MAN Up&#45;&gt;Move Left -->
<g id="edge57" class="edge">
<title>PAC&#45;MAN Up&#45;&gt;Move Left</title>
<path fill="none" stroke="red" stroke-width="0.17" d="M1357.7,-137.78C1349.24,-132.61 1337.7,-126.44 1326.58,-123.33 1080.83,-54.63 1001.4,-148.1 753.58,-87.33 735.04,-82.78 715.62,-74.83 699.14,-67.01"/>
<polygon fill="red" stroke="red" stroke-width="0.17" points="701.06,-64.05 690.54,-62.81 697.99,-70.34 701.06,-64.05"/>
</g>
<!-- PAC&#45;MAN Up&#45;&gt;Move Up -->
<g id="edge58" class="edge">
<title>PAC&#45;MAN Up&#45;&gt;Move Up</title>
<path fill="none" stroke="green" stroke-width="0.13" stroke-dasharray="1,5" d="M1356.79,-137.78C1348.35,-132.88 1337.17,-127 1326.58,-123.33 1244.12,-94.77 1211.09,-127.4 1133.58,-87.33 1128.73,-84.82 1124.06,-81.61 1119.7,-78.08"/>
<polygon fill="green" stroke="green" stroke-width="0.13" points="1122.14,-75.57 1112.33,-71.57 1117.51,-80.81 1122.14,-75.57"/>
</g>
<!-- PAC&#45;MAN Up&#45;&gt;Move Down -->
<g id="edge59" class="edge">
<title>PAC&#45;MAN Up&#45;&gt;Move Down</title>
<path fill="none" stroke="green" stroke-width="0.16" d="M1354.89,-137.7C1328.31,-123 1273.42,-92.66 1233.53,-70.62"/>
<polygon fill="green" stroke="green" stroke-width="0.16" points="1235.42,-67.66 1224.97,-65.89 1232.03,-73.79 1235.42,-67.66"/>
</g>
<!-- PAC&#45;MAN Down -->
<g id="node16" class="node">
<title>PAC&#45;MAN Down</title>
<polygon fill="lightblue" stroke="black" points="418.7,-156.62 328.45,-156.62 328.45,-138.12 418.7,-138.12 418.7,-156.62"/>
<text text-anchor="middle" x="373.58" y="-144.07" font-family="Times,serif" font-size="9.00">PAC&#45;MAN Down</text>
</g>
<!-- PAC&#45;MAN Down&#45;&gt;Move Right -->
<g id="edge60" class="edge">
<title>PAC&#45;MAN Down&#45;&gt;Move Right</title>
<path fill="none" stroke="green" stroke-width="0.66" d="M390.65,-137.65C401.07,-132.7 414.79,-126.81 427.58,-123.33 547.35,-90.66 584.8,-119.99 704.58,-87.33 722.37,-82.47 741.15,-75.11 757.57,-67.86"/>
<polygon fill="green" stroke="green" stroke-width="0.66" points="758.88,-71.11 766.55,-63.8 755.99,-64.73 758.88,-71.11"/>
</g>
<!-- PAC&#45;MAN Down&#45;&gt;Move Left -->
<g id="edge61" class="edge">
<title>PAC&#45;MAN Down&#45;&gt;Move Left</title>
<path fill="none" stroke="red" stroke-width="0.24" d="M392.93,-137.7C403.16,-133.22 415.97,-127.78 427.58,-123.33 490.71,-99.1 564.92,-74.38 611.61,-59.28"/>
<polygon fill="red" stroke="red" stroke-width="0.24" points="612.63,-62.63 621.08,-56.23 610.49,-55.96 612.63,-62.63"/>
</g>
<!-- PAC&#45;MAN Down&#45;&gt;Move Up -->
<g id="edge62" class="edge">
<title>PAC&#45;MAN Down&#45;&gt;Move Up</title>
<path fill="none" stroke="red" stroke-width="0.65" d="M390.12,-137.67C400.57,-132.6 414.52,-126.57 427.58,-123.33 612.83,-77.28 666.35,-112.48 855.58,-87.33 921.33,-78.59 996.69,-64.02 1043.72,-54.38"/>
<polygon fill="red" stroke="red" stroke-width="0.65" points="1044.41,-57.81 1053.5,-52.36 1043,-50.95 1044.41,-57.81"/>
</g>
<!-- Power&#45;Up Time -->
<g id="node17" class="node">
<title>Power&#45;Up Time</title>
<polygon fill="lightblue" stroke="black" points="1497.45,-156.62 1423.7,-156.62 1423.7,-138.12 1497.45,-138.12 1497.45,-156.62"/>
<text text-anchor="middle" x="1460.58" y="-144.07" font-family="Times,serif" font-size="9.00">Power&#45;Up Time</text>
</g>
<!-- Power&#45;Up Time&#45;&gt;Move Right -->
<g id="edge63" class="edge">
<title>Power&#45;Up Time&#45;&gt;Move Right</title>
<path fill="none" stroke="green" stroke-width="0.42" d="M1446.63,-137.69C1437.78,-132.62 1425.91,-126.59 1414.58,-123.33 1255.82,-77.56 1208.26,-109.8 1044.58,-87.33 978.96,-78.32 903.86,-64.38 855.41,-54.9"/>
<polygon fill="green" stroke="green" stroke-width="0.42" points="856.3,-51.51 845.81,-53.02 854.95,-58.38 856.3,-51.51"/>
</g>
<!-- Power&#45;Up Time&#45;&gt;Move Left -->
<g id="edge64" class="edge">
<title>Power&#45;Up Time&#45;&gt;Move Left</title>
<path fill="none" stroke="red" stroke-width="0.14" d="M1447.07,-137.75C1438.21,-132.57 1426.15,-126.4 1414.58,-123.33 1130.21,-47.86 1039.61,-156.21 753.58,-87.33 735.02,-82.86 715.6,-74.92 699.12,-67.09"/>
<polygon fill="red" stroke="red" stroke-width="0.14" points="701,-64.11 690.48,-62.87 697.93,-70.4 701,-64.11"/>
</g>
<!-- Power&#45;Up Time&#45;&gt;Move Up -->
<g id="edge65" class="edge">
<title>Power&#45;Up Time&#45;&gt;Move Up</title>
<path fill="none" stroke="red" stroke-width="0.19" d="M1446.59,-137.81C1437.73,-132.78 1425.85,-126.77 1414.58,-123.33 1294.14,-86.61 1247.02,-141.95 1133.58,-87.33 1128.66,-84.96 1123.95,-81.83 1119.56,-78.34"/>
<polygon fill="red" stroke="red" stroke-width="0.19" points="1122.07,-75.89 1112.24,-71.94 1117.47,-81.16 1122.07,-75.89"/>
</g>
<!-- Power&#45;Up Time&#45;&gt;Move Down -->
<g id="edge66" class="edge">
<title>Power&#45;Up Time&#45;&gt;Move Down</title>
<path fill="none" stroke="green" stroke-width="0.27" d="M1444.64,-137.73C1435.9,-133.16 1424.79,-127.62 1414.58,-123.33 1355.25,-98.36 1284.96,-75.02 1238.27,-60.35"/>
<polygon fill="green" stroke="green" stroke-width="0.27" points="1239.36,-57.02 1228.77,-57.38 1237.28,-63.7 1239.36,-57.02"/>
</g>
<!-- 994&#45;&gt;Move Left -->
<g id="edge70" class="edge">
<title>994&#45;&gt;Move Left</title>
<path fill="none" stroke="red" stroke-width="0.41" d="M55.49,-133.73C61.21,-129.79 67.9,-125.83 74.58,-123.33 263.04,-52.79 506.74,-44.23 609.02,-44.03"/>
<polygon fill="red" stroke="red" stroke-width="0.41" points="608.71,-47.53 618.71,-44.04 608.71,-40.53 608.71,-47.53"/>
</g>
<!-- 3651&#45;&gt;Move Down -->
<g id="edge73" class="edge">
<title>3651&#45;&gt;Move Down</title>
<path fill="none" stroke="green" stroke-width="0.13" d="M1844.25,-132.5C1838.49,-128.97 1831.99,-125.55 1825.58,-123.33 1618.2,-51.42 1352.98,-43.54 1240.68,-43.77"/>
<polygon fill="green" stroke="green" stroke-width="0.13" points="1240.79,-40.27 1230.81,-43.82 1240.82,-47.27 1240.79,-40.27"/>
</g>
<!-- 911&#45;&gt;Move Left -->
<g id="edge68" class="edge">
<title>911&#45;&gt;Move Left</title>
<path fill="none" stroke="green" stroke-width="0.18" d="M229.92,-133.7C235.57,-129.86 242.11,-125.96 248.58,-123.33 372.62,-72.9 531.23,-54.27 609.48,-47.82"/>
<polygon fill="green" stroke="green" stroke-width="0.18" points="609.56,-51.32 619.25,-47.04 609.01,-44.34 609.56,-51.32"/>
</g>
</g>
</svg>
