<?xml version="1.0" encoding="UTF-8" standalone="no"?>
<!DOCTYPE svg PUBLIC "-//W3C//DTD SVG 1.1//EN"
 "http://www.w3.org/Graphics/SVG/1.1/DTD/svg11.dtd">
<!-- Generated by graphviz version 12.0.0 (20240704.0754)
 -->
<!-- Pages: 1 -->
<svg width="1458pt" height="240pt"
 viewBox="0.00 0.00 1458.00 240.27" xmlns="http://www.w3.org/2000/svg" xmlns:xlink="http://www.w3.org/1999/xlink">
<g id="graph0" class="graph" transform="scale(1 1) rotate(0) translate(4 236.27)">
<polygon fill="white" stroke="none" points="-4,4 -4,-236.27 1454,-236.27 1454,4 -4,4"/>
<!-- Pellet Right -->
<g id="node1" class="node">
<title>Pellet Right</title>
<polygon fill="lightblue" stroke="black" points="528.75,-159.8 471.5,-159.8 471.5,-141.3 528.75,-141.3 528.75,-159.8"/>
<text text-anchor="middle" x="500.12" y="-147.25" font-family="Times,serif" font-size="9.00">Pellet Right</text>
</g>
<!-- Move Right -->
<g id="node18" class="node">
<title>Move Right</title>
<ellipse fill="lightblue" stroke="black" cx="277.12" cy="-43.66" rx="41.54" ry="41.54"/>
<text text-anchor="middle" x="277.12" y="-40.36" font-family="Times,serif" font-size="9.00">Move Right</text>
</g>
<!-- Pellet Right&#45;&gt;Move Right -->
<g id="edge24" class="edge">
<title>Pellet Right&#45;&gt;Move Right</title>
<path fill="none" stroke="green" stroke-width="0.22" stroke-dasharray="1,5" d="M489.2,-140.86C482.05,-135.41 472.34,-128.46 463.12,-123.33 418.37,-98.39 364.11,-76.29 325.78,-61.92"/>
<polygon fill="green" stroke="green" stroke-width="0.22" points="327.29,-58.75 316.7,-58.55 324.85,-65.31 327.29,-58.75"/>
</g>
<!-- Move Down -->
<g id="node21" class="node">
<title>Move Down</title>
<ellipse fill="lightblue" stroke="black" cx="1035.12" cy="-43.66" rx="43.66" ry="43.66"/>
<text text-anchor="middle" x="1035.12" y="-40.36" font-family="Times,serif" font-size="9.00">Move Down</text>
</g>
<!-- Pellet Right&#45;&gt;Move Down -->
<g id="edge1" class="edge">
<title>Pellet Right&#45;&gt;Move Down</title>
<path fill="none" stroke="green" stroke-width="0.51" stroke-dasharray="1,5" d="M510.04,-140.83C517.31,-134.93 527.7,-127.48 538.12,-123.33 635.49,-84.59 667.63,-103.69 771.12,-87.33 844.06,-75.8 928.27,-62.13 981.59,-53.43"/>
<polygon fill="green" stroke="green" stroke-width="0.51" points="982.09,-56.89 991.4,-51.83 980.96,-49.98 982.09,-56.89"/>
</g>
<!-- Pellet Left -->
<g id="node2" class="node">
<title>Pellet Left</title>
<polygon fill="lightblue" stroke="black" points="1102.12,-159.8 1050.12,-159.8 1050.12,-141.3 1102.12,-141.3 1102.12,-159.8"/>
<text text-anchor="middle" x="1076.12" y="-147.25" font-family="Times,serif" font-size="9.00">Pellet Left</text>
</g>
<!-- Move Up -->
<g id="node20" class="node">
<title>Move Up</title>
<ellipse fill="lightblue" stroke="black" cx="726.12" cy="-43.66" rx="35.71" ry="35.71"/>
<text text-anchor="middle" x="726.12" y="-40.36" font-family="Times,serif" font-size="9.00">Move Up</text>
</g>
<!-- Pellet Left&#45;&gt;Move Up -->
<g id="edge2" class="edge">
<title>Pellet Left&#45;&gt;Move Up</title>
<path fill="none" stroke="green" stroke-width="0.9" stroke-dasharray="1,5" d="M1066.7,-140.84C1060.02,-135.1 1050.59,-127.83 1041.12,-123.33 951.51,-80.71 836.19,-59.51 772.89,-50.42"/>
<polygon fill="green" stroke="green" stroke-width="0.9" points="773.43,-46.96 763.04,-49.05 772.46,-53.9 773.43,-46.96"/>
</g>
<!-- Pellet Left&#45;&gt;Move Down -->
<g id="edge3" class="edge">
<title>Pellet Left&#45;&gt;Move Down</title>
<path fill="none" stroke="green" stroke-width="0.58" d="M1072.77,-140.97C1068.74,-130.65 1061.64,-112.48 1054.68,-94.69"/>
<polygon fill="green" stroke="green" stroke-width="0.58" points="1058.07,-93.75 1051.17,-85.71 1051.55,-96.3 1058.07,-93.75"/>
</g>
<!-- Pellet Up -->
<g id="node3" class="node">
<title>Pellet Up</title>
<polygon fill="lightblue" stroke="black" points="791.62,-159.8 742.62,-159.8 742.62,-141.3 791.62,-141.3 791.62,-159.8"/>
<text text-anchor="middle" x="767.12" y="-147.25" font-family="Times,serif" font-size="9.00">Pellet Up</text>
</g>
<!-- Pellet Up&#45;&gt;Move Up -->
<g id="edge4" class="edge">
<title>Pellet Up&#45;&gt;Move Up</title>
<path fill="none" stroke="red" stroke-width="0.45" stroke-dasharray="1,5" d="M763.77,-140.97C759.16,-129.16 750.53,-107.1 742.7,-87.07"/>
<polygon fill="red" stroke="red" stroke-width="0.45" points="745.97,-85.83 739.07,-77.79 739.46,-88.38 745.97,-85.83"/>
</g>
<!-- Pellet Down -->
<g id="node4" class="node">
<title>Pellet Down</title>
<polygon fill="lightblue" stroke="black" points="60.25,-159.8 0,-159.8 0,-141.3 60.25,-141.3 60.25,-159.8"/>
<text text-anchor="middle" x="30.12" y="-147.25" font-family="Times,serif" font-size="9.00">Pellet Down</text>
</g>
<!-- Pellet Down&#45;&gt;Move Right -->
<g id="edge5" class="edge">
<title>Pellet Down&#45;&gt;Move Right</title>
<path fill="none" stroke="red" stroke-width="0.25" d="M41.3,-141.02C48.88,-135.5 59.27,-128.42 69.12,-123.33 121.16,-96.45 184.55,-73.81 227.58,-59.82"/>
<polygon fill="red" stroke="red" stroke-width="0.25" points="228.44,-63.22 236.89,-56.82 226.3,-56.55 228.44,-63.22"/>
</g>
<!-- Power Pellet Right -->
<g id="node5" class="node">
<title>Power Pellet Right</title>
<polygon fill="lightblue" stroke="black" points="629.5,-159.8 546.75,-159.8 546.75,-141.3 629.5,-141.3 629.5,-159.8"/>
<text text-anchor="middle" x="588.12" y="-147.25" font-family="Times,serif" font-size="9.00">Power Pellet Right</text>
</g>
<!-- Power Pellet Right&#45;&gt;Move Up -->
<g id="edge6" class="edge">
<title>Power Pellet Right&#45;&gt;Move Up</title>
<path fill="none" stroke="red" stroke-width="0.39" stroke-dasharray="1,5" d="M599.42,-140.97C618.89,-126.17 659.6,-95.23 689.64,-72.39"/>
<polygon fill="red" stroke="red" stroke-width="0.39" points="691.49,-75.39 697.33,-66.55 687.25,-69.81 691.49,-75.39"/>
</g>
<!-- Power Pellet Left -->
<g id="node6" class="node">
<title>Power Pellet Left</title>
<polygon fill="lightblue" stroke="black" points="724.88,-159.8 647.38,-159.8 647.38,-141.3 724.88,-141.3 724.88,-159.8"/>
<text text-anchor="middle" x="686.12" y="-147.25" font-family="Times,serif" font-size="9.00">Power Pellet Left</text>
</g>
<!-- Power Pellet Left&#45;&gt;Move Up -->
<g id="edge25" class="edge">
<title>Power Pellet Left&#45;&gt;Move Up</title>
<path fill="none" stroke="green" stroke-width="0.5" d="M689.4,-140.97C693.9,-129.16 702.31,-107.1 709.95,-87.07"/>
<polygon fill="green" stroke="green" stroke-width="0.5" points="713.17,-88.44 713.47,-77.85 706.63,-85.95 713.17,-88.44"/>
</g>
<!-- Power Pellet Up -->
<g id="node7" class="node">
<title>Power Pellet Up</title>
<polygon fill="lightblue" stroke="black" points="1055.38,-232.27 980.88,-232.27 980.88,-213.77 1055.38,-213.77 1055.38,-232.27"/>
<text text-anchor="middle" x="1018.12" y="-219.72" font-family="Times,serif" font-size="9.00">Power Pellet Up</text>
</g>
<!-- Power Pellet Down -->
<g id="node8" class="node">
<title>Power Pellet Down</title>
<polygon fill="lightblue" stroke="black" points="1159,-232.27 1073.25,-232.27 1073.25,-213.77 1159,-213.77 1159,-232.27"/>
<text text-anchor="middle" x="1116.12" y="-219.72" font-family="Times,serif" font-size="9.00">Power Pellet Down</text>
</g>
<!-- Ghost Info Right -->
<g id="node9" class="node">
<title>Ghost Info Right</title>
<polygon fill="lightblue" stroke="black" points="1032.5,-159.8 955.75,-159.8 955.75,-141.3 1032.5,-141.3 1032.5,-159.8"/>
<text text-anchor="middle" x="994.12" y="-147.25" font-family="Times,serif" font-size="9.00">Ghost Info Right</text>
</g>
<!-- Ghost Info Right&#45;&gt;Move Up -->
<g id="edge7" class="edge">
<title>Ghost Info Right&#45;&gt;Move Up</title>
<path fill="none" stroke="green" stroke-width="0.31" d="M978.42,-141.02C968.22,-135.64 954.56,-128.71 942.12,-123.33 883.5,-97.98 813.76,-73.58 769.71,-58.85"/>
<polygon fill="green" stroke="green" stroke-width="0.31" points="770.94,-55.57 760.35,-55.74 768.73,-62.21 770.94,-55.57"/>
</g>
<!-- Ghost Info Right&#45;&gt;Move Down -->
<g id="edge8" class="edge">
<title>Ghost Info Right&#45;&gt;Move Down</title>
<path fill="none" stroke="red" stroke-width="0.16" d="M997.48,-140.97C1001.55,-130.55 1008.75,-112.15 1015.76,-94.2"/>
<polygon fill="red" stroke="red" stroke-width="0.16" points="1018.93,-95.72 1019.31,-85.13 1012.41,-93.17 1018.93,-95.72"/>
</g>
<!-- Ghost Info Left -->
<g id="node10" class="node">
<title>Ghost Info Left</title>
<polygon fill="lightblue" stroke="black" points="453.88,-159.8 382.38,-159.8 382.38,-141.3 453.88,-141.3 453.88,-159.8"/>
<text text-anchor="middle" x="418.12" y="-147.25" font-family="Times,serif" font-size="9.00">Ghost Info Left</text>
</g>
<!-- Ghost Info Left&#45;&gt;Move Right -->
<g id="edge9" class="edge">
<title>Ghost Info Left&#45;&gt;Move Right</title>
<path fill="none" stroke="green" stroke-width="0.34" stroke-dasharray="1,5" d="M406.59,-140.97C387.53,-126.79 348.58,-97.82 318.35,-75.33"/>
<polygon fill="green" stroke="green" stroke-width="0.34" points="320.61,-72.65 310.49,-69.49 316.43,-78.26 320.61,-72.65"/>
</g>
<!-- Ghost Info Left&#45;&gt;Move Up -->
<g id="edge10" class="edge">
<title>Ghost Info Left&#45;&gt;Move Up</title>
<path fill="none" stroke="green" stroke-width="0.33" d="M430.77,-140.87C439.32,-135.28 451.05,-128.19 462.12,-123.33 536.03,-90.9 627.21,-67.04 680.78,-54.55"/>
<polygon fill="green" stroke="green" stroke-width="0.33" points="681.54,-57.96 690.5,-52.31 679.97,-51.14 681.54,-57.96"/>
</g>
<!-- Ghost Info Up -->
<g id="node11" class="node">
<title>Ghost Info Up</title>
<polygon fill="lightblue" stroke="black" points="962.38,-232.27 893.88,-232.27 893.88,-213.77 962.38,-213.77 962.38,-232.27"/>
<text text-anchor="middle" x="928.12" y="-219.72" font-family="Times,serif" font-size="9.00">Ghost Info Up</text>
</g>
<!-- Ghost Info Up&#45;&gt;Move Right -->
<g id="edge11" class="edge">
<title>Ghost Info Up&#45;&gt;Move Right</title>
<path fill="none" stroke="red" stroke-width="0.15" stroke-dasharray="1,5" d="M893.8,-221.29C750.2,-218.07 203.95,-204.11 179.12,-177.77 162.53,-160.17 168.66,-145.15 179.12,-123.33 190.19,-100.26 211.67,-81.82 231.72,-68.61"/>
<polygon fill="red" stroke="red" stroke-width="0.15" points="233.4,-71.69 239.99,-63.39 229.67,-65.77 233.4,-71.69"/>
</g>
<!-- Move Left -->
<g id="node19" class="node">
<title>Move Left</title>
<ellipse fill="lightblue" stroke="black" cx="1231.12" cy="-43.66" rx="37.83" ry="37.83"/>
<text text-anchor="middle" x="1231.12" y="-40.36" font-family="Times,serif" font-size="9.00">Move Left</text>
</g>
<!-- Ghost Info Up&#45;&gt;Move Left -->
<g id="edge12" class="edge">
<title>Ghost Info Up&#45;&gt;Move Left</title>
<path fill="none" stroke="green" stroke-width="0.19" d="M962.52,-215.09C1018.08,-203.8 1122.08,-182.26 1129.12,-177.77 1164.22,-155.44 1191.92,-116.56 1209.54,-86.57"/>
<polygon fill="green" stroke="green" stroke-width="0.19" points="1212.39,-88.64 1214.32,-78.23 1206.31,-85.17 1212.39,-88.64"/>
</g>
<!-- Ghost Info Up&#45;&gt;Move Up -->
<g id="edge13" class="edge">
<title>Ghost Info Up&#45;&gt;Move Up</title>
<path fill="none" stroke="red" stroke-width="0.34" d="M928.96,-213.55C930.3,-195.01 930.89,-150.38 909.12,-123.33 875.15,-81.1 814.19,-61.09 772.02,-51.93"/>
<polygon fill="red" stroke="red" stroke-width="0.34" points="772.73,-48.5 762.23,-49.93 771.32,-55.36 772.73,-48.5"/>
</g>
<!-- Ghost Info Up&#45;&gt;Move Down -->
<g id="edge14" class="edge">
<title>Ghost Info Up&#45;&gt;Move Down</title>
<path fill="none" stroke="red" stroke-width="0.48" stroke-dasharray="1,5" d="M962.73,-214.81C1014.47,-203.85 1106.49,-183.67 1111.12,-177.77 1135.6,-146.68 1105.99,-106.79 1076.88,-78.82"/>
<polygon fill="red" stroke="red" stroke-width="0.48" points="1079.37,-76.36 1069.66,-72.12 1074.61,-81.49 1079.37,-76.36"/>
</g>
<!-- 12435 -->
<g id="node22" class="node">
<title>12435</title>
<ellipse fill="white" stroke="black" cx="105.12" cy="-150.55" rx="27.22" ry="27.22"/>
<text text-anchor="middle" x="105.12" y="-147.25" font-family="Times,serif" font-size="9.00">12435</text>
</g>
<!-- Ghost Info Up&#45;&gt;12435 -->
<g id="edge27" class="edge">
<title>Ghost Info Up&#45;&gt;12435</title>
<path fill="none" stroke="green" stroke-width="0.24" d="M893.63,-222.38C761.52,-223.4 288.12,-223.7 146.12,-177.77 142.34,-176.55 138.57,-174.89 134.92,-173"/>
<polygon fill="green" stroke="green" stroke-width="0.24" points="136.92,-170.11 126.52,-168.11 133.4,-176.16 136.92,-170.11"/>
</g>
<!-- Ghost Info Down -->
<g id="node12" class="node">
<title>Ghost Info Down</title>
<polygon fill="lightblue" stroke="black" points="268,-159.8 188.25,-159.8 188.25,-141.3 268,-141.3 268,-159.8"/>
<text text-anchor="middle" x="228.12" y="-147.25" font-family="Times,serif" font-size="9.00">Ghost Info Down</text>
</g>
<!-- Ghost Info Down&#45;&gt;Move Right -->
<g id="edge26" class="edge">
<title>Ghost Info Down&#45;&gt;Move Right</title>
<path fill="none" stroke="green" stroke-width="0.23" d="M232.13,-140.97C237.32,-129.87 246.74,-109.7 255.63,-90.67"/>
<polygon fill="green" stroke="green" stroke-width="0.23" points="258.72,-92.32 259.79,-81.78 252.38,-89.36 258.72,-92.32"/>
</g>
<!-- Ghost Info Down&#45;&gt;Move Up -->
<g id="edge15" class="edge">
<title>Ghost Info Down&#45;&gt;Move Up</title>
<path fill="none" stroke="green" stroke-width="0.21" d="M241.32,-140.99C250.9,-135.17 264.36,-127.74 277.12,-123.33 419.17,-74.29 597.51,-54.72 680.17,-47.88"/>
<polygon fill="green" stroke="green" stroke-width="0.21" points="680.23,-51.39 689.92,-47.1 679.67,-44.41 680.23,-51.39"/>
</g>
<!-- PAC&#45;MAN Right -->
<g id="node13" class="node">
<title>PAC&#45;MAN Right</title>
<polygon fill="lightblue" stroke="black" points="364.62,-159.8 285.62,-159.8 285.62,-141.3 364.62,-141.3 364.62,-159.8"/>
<text text-anchor="middle" x="325.12" y="-147.25" font-family="Times,serif" font-size="9.00">PAC&#45;MAN Right</text>
</g>
<!-- PAC&#45;MAN Right&#45;&gt;Move Right -->
<g id="edge16" class="edge">
<title>PAC&#45;MAN Right&#45;&gt;Move Right</title>
<path fill="none" stroke="green" stroke-width="0.48" d="M321.2,-140.97C316.2,-130.05 307.19,-110.36 298.61,-91.62"/>
<polygon fill="green" stroke="green" stroke-width="0.48" points="301.84,-90.25 294.49,-82.61 295.47,-93.16 301.84,-90.25"/>
</g>
<!-- PAC&#45;MAN Right&#45;&gt;Move Up -->
<g id="edge17" class="edge">
<title>PAC&#45;MAN Right&#45;&gt;Move Up</title>
<path fill="none" stroke="green" stroke-width="0.54" stroke-dasharray="1,5" d="M338.5,-140.91C347.87,-135.2 360.86,-127.94 373.12,-123.33 479.26,-83.42 611.32,-60.67 679.91,-50.73"/>
<polygon fill="green" stroke="green" stroke-width="0.54" points="680.13,-54.24 689.54,-49.36 679.15,-47.3 680.13,-54.24"/>
</g>
<!-- PAC&#45;MAN Left -->
<g id="node14" class="node">
<title>PAC&#45;MAN Left</title>
<polygon fill="lightblue" stroke="black" points="1450,-159.8 1376.25,-159.8 1376.25,-141.3 1450,-141.3 1450,-159.8"/>
<text text-anchor="middle" x="1413.12" y="-147.25" font-family="Times,serif" font-size="9.00">PAC&#45;MAN Left</text>
</g>
<!-- PAC&#45;MAN Left&#45;&gt;Move Left -->
<g id="edge18" class="edge">
<title>PAC&#45;MAN Left&#45;&gt;Move Left</title>
<path fill="none" stroke="green" stroke-width="0.24" stroke-dasharray="1,5" d="M1398.23,-140.97C1371.08,-125.32 1312.65,-91.65 1272.61,-68.57"/>
<polygon fill="green" stroke="green" stroke-width="0.24" points="1274.59,-65.67 1264.18,-63.71 1271.09,-71.74 1274.59,-65.67"/>
</g>
<!-- PAC&#45;MAN Up -->
<g id="node15" class="node">
<title>PAC&#45;MAN Up</title>
<polygon fill="lightblue" stroke="black" points="1266.5,-159.8 1195.75,-159.8 1195.75,-141.3 1266.5,-141.3 1266.5,-159.8"/>
<text text-anchor="middle" x="1231.12" y="-147.25" font-family="Times,serif" font-size="9.00">PAC&#45;MAN Up</text>
</g>
<!-- PAC&#45;MAN Up&#45;&gt;Move Left -->
<g id="edge19" class="edge">
<title>PAC&#45;MAN Up&#45;&gt;Move Left</title>
<path fill="none" stroke="red" stroke-width="0.49" stroke-dasharray="1,5" d="M1231.12,-140.97C1231.12,-130.25 1231.12,-111.08 1231.12,-92.65"/>
<polygon fill="red" stroke="red" stroke-width="0.49" points="1234.63,-92.7 1231.13,-82.7 1227.63,-92.7 1234.63,-92.7"/>
</g>
<!-- PACM&#45;MAN Down -->
<g id="node16" class="node">
<title>PACM&#45;MAN Down</title>
<polygon fill="lightblue" stroke="black" points="900.25,-159.8 810,-159.8 810,-141.3 900.25,-141.3 900.25,-159.8"/>
<text text-anchor="middle" x="855.12" y="-147.25" font-family="Times,serif" font-size="9.00">PACM&#45;MAN Down</text>
</g>
<!-- PACM&#45;MAN Down&#45;&gt;Move Right -->
<g id="edge20" class="edge">
<title>PACM&#45;MAN Down&#45;&gt;Move Right</title>
<path fill="none" stroke="green" stroke-width="0.27" stroke-dasharray="1,5" d="M840.5,-140.94C829.91,-135.08 815.06,-127.65 801.12,-123.33 633.43,-71.35 424.55,-53.15 329.09,-47.26"/>
<polygon fill="green" stroke="green" stroke-width="0.27" points="329.43,-43.77 319.24,-46.67 329.01,-50.76 329.43,-43.77"/>
</g>
<!-- PACM&#45;MAN Down&#45;&gt;Move Left -->
<g id="edge21" class="edge">
<title>PACM&#45;MAN Down&#45;&gt;Move Left</title>
<path fill="none" stroke="red" stroke-width="0.75" d="M884.9,-140.84C902.88,-135.63 926.28,-128.96 947.12,-123.33 1009.56,-106.46 1025.79,-104.58 1088.12,-87.33 1120.42,-78.39 1156.58,-67.6 1184.46,-59.1"/>
<polygon fill="red" stroke="red" stroke-width="0.75" points="1185.47,-62.45 1194.01,-56.18 1183.43,-55.76 1185.47,-62.45"/>
</g>
<!-- PACM&#45;MAN Down&#45;&gt;Move Up -->
<g id="edge22" class="edge">
<title>PACM&#45;MAN Down&#45;&gt;Move Up</title>
<path fill="none" stroke="green" stroke-width="0.14" stroke-dasharray="1,5" d="M844.57,-140.97C826.58,-126.34 789.23,-95.97 761.25,-73.23"/>
<polygon fill="green" stroke="green" stroke-width="0.14" points="763.76,-70.75 753.79,-67.16 759.34,-76.18 763.76,-70.75"/>
</g>
<!-- Power&#45;Up Time -->
<g id="node17" class="node">
<title>Power&#45;Up Time</title>
<polygon fill="lightblue" stroke="black" points="1358,-159.8 1284.25,-159.8 1284.25,-141.3 1358,-141.3 1358,-159.8"/>
<text text-anchor="middle" x="1321.12" y="-147.25" font-family="Times,serif" font-size="9.00">Power&#45;Up Time</text>
</g>
<!-- Power&#45;Up Time&#45;&gt;Move Left -->
<g id="edge23" class="edge">
<title>Power&#45;Up Time&#45;&gt;Move Left</title>
<path fill="none" stroke="red" stroke-width="0.29" stroke-dasharray="1,5" d="M1313.76,-140.97C1302.54,-127.9 1280.53,-102.24 1262.04,-80.7"/>
<polygon fill="red" stroke="red" stroke-width="0.29" points="1264.87,-78.62 1255.7,-73.31 1259.56,-83.18 1264.87,-78.62"/>
</g>
<!-- 12435&#45;&gt;Move Right -->
<g id="edge28" class="edge">
<title>12435&#45;&gt;Move Right</title>
<path fill="none" stroke="green" stroke-width="0.24" d="M127.61,-135.01C133.6,-131.18 140.09,-127.07 146.12,-123.33 174.77,-105.57 207.24,-86.07 232.69,-70.93"/>
<polygon fill="green" stroke="green" stroke-width="0.24" points="234.26,-74.06 241.06,-65.95 230.68,-68.05 234.26,-74.06"/>
</g>
</g>
</svg>
