<?xml version="1.0" encoding="UTF-8" standalone="no"?>
<!DOCTYPE svg PUBLIC "-//W3C//DTD SVG 1.1//EN"
 "http://www.w3.org/Graphics/SVG/1.1/DTD/svg11.dtd">
<!-- Generated by graphviz version 12.0.0 (20240704.0754)
 -->
<!-- Pages: 1 -->
<svg width="1508pt" height="331pt"
 viewBox="0.00 0.00 1508.38 330.72" xmlns="http://www.w3.org/2000/svg" xmlns:xlink="http://www.w3.org/1999/xlink">
<g id="graph0" class="graph" transform="scale(1 1) rotate(0) translate(4 326.72)">
<polygon fill="white" stroke="none" points="-4,4 -4,-326.72 1504.38,-326.72 1504.38,4 -4,4"/>
<!-- Pellet Right -->
<g id="node1" class="node">
<title>Pellet Right</title>
<polygon fill="lightblue" stroke="black" points="1198.75,-322.72 1141.5,-322.72 1141.5,-304.22 1198.75,-304.22 1198.75,-322.72"/>
<text text-anchor="middle" x="1170.12" y="-310.17" font-family="Times,serif" font-size="9.00">Pellet Right</text>
</g>
<!-- Pellet Left -->
<g id="node2" class="node">
<title>Pellet Left</title>
<polygon fill="lightblue" stroke="black" points="1269.12,-322.72 1217.12,-322.72 1217.12,-304.22 1269.12,-304.22 1269.12,-322.72"/>
<text text-anchor="middle" x="1243.12" y="-310.17" font-family="Times,serif" font-size="9.00">Pellet Left</text>
</g>
<!-- Pellet Up -->
<g id="node3" class="node">
<title>Pellet Up</title>
<polygon fill="lightblue" stroke="black" points="263.62,-159.8 214.62,-159.8 214.62,-141.3 263.62,-141.3 263.62,-159.8"/>
<text text-anchor="middle" x="239.12" y="-147.25" font-family="Times,serif" font-size="9.00">Pellet Up</text>
</g>
<!-- Move Up -->
<g id="node20" class="node">
<title>Move Up</title>
<ellipse fill="lightblue" stroke="black" cx="547.12" cy="-43.66" rx="35.71" ry="35.71"/>
<text text-anchor="middle" x="547.12" y="-40.36" font-family="Times,serif" font-size="9.00">Move Up</text>
</g>
<!-- Pellet Up&#45;&gt;Move Up -->
<g id="edge1" class="edge">
<title>Pellet Up&#45;&gt;Move Up</title>
<path fill="none" stroke="green" stroke-width="0.49" stroke-dasharray="1,5" d="M248.29,-140.93C254.78,-135.23 263.95,-127.97 273.12,-123.33 348.64,-85.13 445.51,-62.87 501.52,-52.29"/>
<polygon fill="green" stroke="green" stroke-width="0.49" points="501.9,-55.78 511.1,-50.52 500.63,-48.9 501.9,-55.78"/>
</g>
<!-- Move Down -->
<g id="node21" class="node">
<title>Move Down</title>
<ellipse fill="lightblue" stroke="black" cx="239.12" cy="-43.66" rx="43.66" ry="43.66"/>
<text text-anchor="middle" x="239.12" y="-40.36" font-family="Times,serif" font-size="9.00">Move Down</text>
</g>
<!-- Pellet Up&#45;&gt;Move Down -->
<g id="edge28" class="edge">
<title>Pellet Up&#45;&gt;Move Down</title>
<path fill="none" stroke="green" stroke-width="0.43" d="M239.12,-140.97C239.12,-131.24 239.12,-114.56 239.12,-97.78"/>
<polygon fill="green" stroke="green" stroke-width="0.43" points="242.63,-98.04 239.13,-88.04 235.63,-98.04 242.63,-98.04"/>
</g>
<!-- Pellet Down -->
<g id="node4" class="node">
<title>Pellet Down</title>
<polygon fill="lightblue" stroke="black" points="60.25,-159.8 0,-159.8 0,-141.3 60.25,-141.3 60.25,-159.8"/>
<text text-anchor="middle" x="30.12" y="-147.25" font-family="Times,serif" font-size="9.00">Pellet Down</text>
</g>
<!-- Pellet Down&#45;&gt;Move Down -->
<g id="edge21" class="edge">
<title>Pellet Down&#45;&gt;Move Down</title>
<path fill="none" stroke="red" stroke-width="0.11" stroke-dasharray="1,5" d="M41.76,-141.01C49.36,-135.62 59.6,-128.69 69.12,-123.33 108.54,-101.14 155.3,-79.85 189.79,-65.02"/>
<polygon fill="red" stroke="red" stroke-width="0.11" points="190.75,-68.42 198.58,-61.27 188,-61.98 190.75,-68.42"/>
</g>
<!-- Power Pellet Right -->
<g id="node5" class="node">
<title>Power Pellet Right</title>
<polygon fill="lightblue" stroke="black" points="364.5,-159.8 281.75,-159.8 281.75,-141.3 364.5,-141.3 364.5,-159.8"/>
<text text-anchor="middle" x="323.12" y="-147.25" font-family="Times,serif" font-size="9.00">Power Pellet Right</text>
</g>
<!-- Power Pellet Right&#45;&gt;Move Up -->
<g id="edge2" class="edge">
<title>Power Pellet Right&#45;&gt;Move Up</title>
<path fill="none" stroke="green" stroke-width="0.34" stroke-dasharray="1,5" d="M340.94,-141.01C351.7,-135.86 365.68,-129.19 378.12,-123.33 421.48,-102.9 471.22,-79.79 505.46,-63.93"/>
<polygon fill="green" stroke="green" stroke-width="0.34" points="506.62,-67.25 514.22,-59.87 503.67,-60.9 506.62,-67.25"/>
</g>
<!-- Power Pellet Right&#45;&gt;Move Down -->
<g id="edge34" class="edge">
<title>Power Pellet Right&#45;&gt;Move Down</title>
<path fill="none" stroke="green" stroke-width="0.38" d="M316.25,-140.97C306.68,-129.01 288.68,-106.54 272.47,-86.3"/>
<polygon fill="green" stroke="green" stroke-width="0.38" points="275.24,-84.17 266.26,-78.55 269.78,-88.54 275.24,-84.17"/>
</g>
<!-- Power Pellet Left -->
<g id="node6" class="node">
<title>Power Pellet Left</title>
<polygon fill="lightblue" stroke="black" points="1364.88,-322.72 1287.38,-322.72 1287.38,-304.22 1364.88,-304.22 1364.88,-322.72"/>
<text text-anchor="middle" x="1326.12" y="-310.17" font-family="Times,serif" font-size="9.00">Power Pellet Left</text>
</g>
<!-- Move Right -->
<g id="node18" class="node">
<title>Move Right</title>
<ellipse fill="lightblue" stroke="black" cx="870.12" cy="-43.66" rx="41.54" ry="41.54"/>
<text text-anchor="middle" x="870.12" y="-40.36" font-family="Times,serif" font-size="9.00">Move Right</text>
</g>
<!-- Power Pellet Left&#45;&gt;Move Right -->
<g id="edge20" class="edge">
<title>Power Pellet Left&#45;&gt;Move Right</title>
<path fill="none" stroke="green" stroke-width="0.13" d="M1287.09,-305.73C1216.39,-293.51 1074.29,-268.89 1073.12,-268.22 1002.12,-227.33 1013.66,-184.49 959.12,-123.33 944.26,-106.66 926.05,-90.02 909.98,-76.36"/>
<polygon fill="green" stroke="green" stroke-width="0.13" points="912.36,-73.79 902.45,-70.04 907.86,-79.15 912.36,-73.79"/>
</g>
<!-- Move Left -->
<g id="node19" class="node">
<title>Move Left</title>
<ellipse fill="lightblue" stroke="black" cx="1170.12" cy="-43.66" rx="37.83" ry="37.83"/>
<text text-anchor="middle" x="1170.12" y="-40.36" font-family="Times,serif" font-size="9.00">Move Left</text>
</g>
<!-- Power Pellet Left&#45;&gt;Move Left -->
<g id="edge24" class="edge">
<title>Power Pellet Left&#45;&gt;Move Left</title>
<path fill="none" stroke="green" stroke-width="0.14" stroke-dasharray="1,5" d="M1326.54,-304.08C1327.5,-275.91 1327.3,-183.18 1287.12,-123.33 1269.33,-96.81 1239.28,-76.89 1214.09,-63.73"/>
<polygon fill="green" stroke="green" stroke-width="0.14" points="1215.75,-60.65 1205.25,-59.28 1212.61,-66.9 1215.75,-60.65"/>
</g>
<!-- Power Pellet Left&#45;&gt;Move Up -->
<g id="edge18" class="edge">
<title>Power Pellet Left&#45;&gt;Move Up</title>
<path fill="none" stroke="green" stroke-width="0.14" d="M1287.11,-305.65C1284.07,-305.15 1281.05,-304.67 1278.12,-304.22 1160.21,-286.12 1130.23,-285.1 1012.12,-268.22 744.72,-230.01 587.34,-382.5 411.12,-177.77 395.34,-159.43 399.03,-144.29 411.12,-123.33 430.76,-89.28 471.38,-68.64 503.14,-57.1"/>
<polygon fill="green" stroke="green" stroke-width="0.14" points="504.17,-60.45 512.48,-53.87 501.89,-53.83 504.17,-60.45"/>
</g>
<!-- 16118 -->
<g id="node23" class="node">
<title>16118</title>
<ellipse fill="white" stroke="black" cx="1381.12" cy="-241" rx="27.22" ry="27.22"/>
<text text-anchor="middle" x="1381.12" y="-237.7" font-family="Times,serif" font-size="9.00">16118</text>
</g>
<!-- Power Pellet Left&#45;&gt;16118 -->
<g id="edge35" class="edge">
<title>Power Pellet Left&#45;&gt;16118</title>
<path fill="none" stroke="green" stroke-width="0.15" d="M1332.87,-303.83C1339.26,-295.65 1349.21,-282.89 1358.43,-271.08"/>
<polygon fill="green" stroke="green" stroke-width="0.15" points="1361.1,-273.35 1364.49,-263.31 1355.58,-269.04 1361.1,-273.35"/>
</g>
<!-- 15868 -->
<g id="node24" class="node">
<title>15868</title>
<ellipse fill="white" stroke="black" cx="1381.12" cy="-150.55" rx="27.22" ry="27.22"/>
<text text-anchor="middle" x="1381.12" y="-147.25" font-family="Times,serif" font-size="9.00">15868</text>
</g>
<!-- Power Pellet Left&#45;&gt;15868 -->
<g id="edge30" class="edge">
<title>Power Pellet Left&#45;&gt;15868</title>
<path fill="none" stroke="green" stroke-width="0.14" stroke-dasharray="1,5" d="M1365.01,-303.88C1384.21,-297.47 1405.66,-286.54 1417.12,-268.22 1434.02,-241.22 1418.67,-205.71 1403.12,-180.99"/>
<polygon fill="green" stroke="green" stroke-width="0.14" points="1406.21,-179.32 1397.78,-172.91 1400.37,-183.18 1406.21,-179.32"/>
</g>
<!-- Power Pellet Up -->
<g id="node7" class="node">
<title>Power Pellet Up</title>
<polygon fill="lightblue" stroke="black" points="1500.38,-159.8 1425.88,-159.8 1425.88,-141.3 1500.38,-141.3 1500.38,-159.8"/>
<text text-anchor="middle" x="1463.12" y="-147.25" font-family="Times,serif" font-size="9.00">Power Pellet Up</text>
</g>
<!-- Power Pellet Up&#45;&gt;Move Left -->
<g id="edge29" class="edge">
<title>Power Pellet Up&#45;&gt;Move Left</title>
<path fill="none" stroke="red" stroke-width="0.2" d="M1449.83,-140.98C1440.84,-135.44 1428.57,-128.35 1417.12,-123.33 1349.5,-93.68 1267.11,-69.72 1216.65,-56.34"/>
<polygon fill="red" stroke="red" stroke-width="0.2" points="1217.85,-53.04 1207.29,-53.88 1216.07,-59.81 1217.85,-53.04"/>
</g>
<!-- Power Pellet Down -->
<g id="node8" class="node">
<title>Power Pellet Down</title>
<polygon fill="lightblue" stroke="black" points="1168,-250.25 1082.25,-250.25 1082.25,-231.75 1168,-231.75 1168,-250.25"/>
<text text-anchor="middle" x="1125.12" y="-237.7" font-family="Times,serif" font-size="9.00">Power Pellet Down</text>
</g>
<!-- Power Pellet Down&#45;&gt;Move Left -->
<g id="edge26" class="edge">
<title>Power Pellet Down&#45;&gt;Move Left</title>
<path fill="none" stroke="red" stroke-width="0.3" d="M1168.23,-234.18C1202.01,-227.1 1246.91,-211.57 1269.12,-177.77 1282.42,-157.55 1279.64,-145.12 1269.12,-123.33 1257.35,-98.94 1233.93,-79.78 1212.83,-66.49"/>
<polygon fill="red" stroke="red" stroke-width="0.3" points="1214.73,-63.55 1204.36,-61.38 1211.12,-69.54 1214.73,-63.55"/>
</g>
<!-- Power Pellet Down&#45;&gt;Move Down -->
<g id="edge23" class="edge">
<title>Power Pellet Down&#45;&gt;Move Down</title>
<path fill="none" stroke="green" stroke-width="0.2" d="M1081.92,-240.45C908,-241.82 265.55,-242.43 205.12,-177.77 182.76,-153.85 194.17,-117.3 209.55,-88.55"/>
<polygon fill="green" stroke="green" stroke-width="0.2" points="212.41,-90.6 214.27,-80.17 206.31,-87.17 212.41,-90.6"/>
</g>
<!-- 15983 -->
<g id="node22" class="node">
<title>15983</title>
<ellipse fill="white" stroke="black" cx="1125.12" cy="-150.55" rx="27.22" ry="27.22"/>
<text text-anchor="middle" x="1125.12" y="-147.25" font-family="Times,serif" font-size="9.00">15983</text>
</g>
<!-- Power Pellet Down&#45;&gt;15983 -->
<g id="edge32" class="edge">
<title>Power Pellet Down&#45;&gt;15983</title>
<path fill="none" stroke="red" stroke-width="0.18" d="M1125.12,-231.52C1125.12,-221.52 1125.12,-204.23 1125.12,-188.28"/>
<polygon fill="red" stroke="red" stroke-width="0.18" points="1128.63,-188.36 1125.13,-178.36 1121.63,-188.36 1128.63,-188.36"/>
</g>
<!-- Ghost Info Right -->
<g id="node9" class="node">
<title>Ghost Info Right</title>
<polygon fill="lightblue" stroke="black" points="585.5,-159.8 508.75,-159.8 508.75,-141.3 585.5,-141.3 585.5,-159.8"/>
<text text-anchor="middle" x="547.12" y="-147.25" font-family="Times,serif" font-size="9.00">Ghost Info Right</text>
</g>
<!-- Ghost Info Right&#45;&gt;Move Left -->
<g id="edge25" class="edge">
<title>Ghost Info Right&#45;&gt;Move Left</title>
<path fill="none" stroke="green" stroke-width="0.34" stroke-dasharray="1,5" d="M559.27,-140.98C568.41,-134.99 581.49,-127.37 594.12,-123.33 733.4,-78.82 776.34,-107.68 921.12,-87.33 991.48,-77.44 1072.49,-62.98 1122.5,-53.7"/>
<polygon fill="green" stroke="green" stroke-width="0.34" points="1123,-57.17 1132.19,-51.89 1121.72,-50.29 1123,-57.17"/>
</g>
<!-- Ghost Info Right&#45;&gt;Move Up -->
<g id="edge3" class="edge">
<title>Ghost Info Right&#45;&gt;Move Up</title>
<path fill="none" stroke="green" stroke-width="1.02" stroke-dasharray="1,5" d="M547.12,-140.97C547.12,-129.95 547.12,-109.98 547.12,-91.08"/>
<polygon fill="green" stroke="green" stroke-width="1.02" points="550.63,-91.09 547.13,-81.09 543.63,-91.09 550.63,-91.09"/>
</g>
<!-- Ghost Info Right&#45;&gt;Move Down -->
<g id="edge4" class="edge">
<title>Ghost Info Right&#45;&gt;Move Down</title>
<path fill="none" stroke="green" stroke-width="0.49" stroke-dasharray="1,5" d="M533.22,-140.96C523.84,-135.41 511.04,-128.32 499.12,-123.33 429.4,-94.1 345.04,-70.63 291.72,-57.17"/>
<polygon fill="green" stroke="green" stroke-width="0.49" points="292.76,-53.82 282.21,-54.79 291.06,-60.61 292.76,-53.82"/>
</g>
<!-- Ghost Info Left -->
<g id="node10" class="node">
<title>Ghost Info Left</title>
<polygon fill="lightblue" stroke="black" points="674.88,-159.8 603.38,-159.8 603.38,-141.3 674.88,-141.3 674.88,-159.8"/>
<text text-anchor="middle" x="639.12" y="-147.25" font-family="Times,serif" font-size="9.00">Ghost Info Left</text>
</g>
<!-- Ghost Info Left&#45;&gt;Move Right -->
<g id="edge5" class="edge">
<title>Ghost Info Left&#45;&gt;Move Right</title>
<path fill="none" stroke="red" stroke-width="0.35" stroke-dasharray="1,5" d="M653.06,-140.81C661.82,-135.47 673.45,-128.67 684.12,-123.33 729.75,-100.5 783.59,-78.21 821.58,-63.22"/>
<polygon fill="red" stroke="red" stroke-width="0.35" points="822.85,-66.49 830.88,-59.57 820.29,-59.97 822.85,-66.49"/>
</g>
<!-- Ghost Info Left&#45;&gt;Move Up -->
<g id="edge6" class="edge">
<title>Ghost Info Left&#45;&gt;Move Up</title>
<path fill="none" stroke="green" stroke-width="0.24" d="M631.6,-140.97C619.77,-127.49 596.21,-100.63 576.97,-78.69"/>
<polygon fill="green" stroke="green" stroke-width="0.24" points="579.83,-76.65 570.61,-71.44 574.57,-81.26 579.83,-76.65"/>
</g>
<!-- Ghost Info Up -->
<g id="node11" class="node">
<title>Ghost Info Up</title>
<polygon fill="lightblue" stroke="black" points="950.38,-159.8 881.88,-159.8 881.88,-141.3 950.38,-141.3 950.38,-159.8"/>
<text text-anchor="middle" x="916.12" y="-147.25" font-family="Times,serif" font-size="9.00">Ghost Info Up</text>
</g>
<!-- Ghost Info Up&#45;&gt;Move Right -->
<g id="edge7" class="edge">
<title>Ghost Info Up&#45;&gt;Move Right</title>
<path fill="none" stroke="red" stroke-width="0.21" stroke-dasharray="1,5" d="M912.36,-140.97C907.55,-130 898.86,-110.18 890.6,-91.36"/>
<polygon fill="red" stroke="red" stroke-width="0.21" points="893.83,-89.99 886.6,-82.24 887.42,-92.8 893.83,-89.99"/>
</g>
<!-- Ghost Info Up&#45;&gt;Move Left -->
<g id="edge8" class="edge">
<title>Ghost Info Up&#45;&gt;Move Left</title>
<path fill="none" stroke="green" stroke-width="0.41" d="M936.91,-140.97C977.93,-124.03 1070.11,-85.96 1125.51,-63.09"/>
<polygon fill="green" stroke="green" stroke-width="0.41" points="1126.59,-66.43 1134.5,-59.38 1123.92,-59.96 1126.59,-66.43"/>
</g>
<!-- Ghost Info Up&#45;&gt;Move Up -->
<g id="edge9" class="edge">
<title>Ghost Info Up&#45;&gt;Move Up</title>
<path fill="none" stroke="green" stroke-width="0.23" d="M904.25,-140.91C895.9,-135.2 884.28,-127.94 873.12,-123.33 777.31,-83.7 657.04,-61.14 592.71,-51.08"/>
<polygon fill="green" stroke="green" stroke-width="0.23" points="593.26,-47.62 582.85,-49.56 592.2,-54.54 593.26,-47.62"/>
</g>
<!-- Ghost Info Down -->
<g id="node12" class="node">
<title>Ghost Info Down</title>
<polygon fill="lightblue" stroke="black" points="158,-159.8 78.25,-159.8 78.25,-141.3 158,-141.3 158,-159.8"/>
<text text-anchor="middle" x="118.12" y="-147.25" font-family="Times,serif" font-size="9.00">Ghost Info Down</text>
</g>
<!-- Ghost Info Down&#45;&gt;Move Down -->
<g id="edge27" class="edge">
<title>Ghost Info Down&#45;&gt;Move Down</title>
<path fill="none" stroke="red" stroke-width="0.16" d="M128.03,-140.97C143.37,-127.67 173.75,-101.34 198.86,-79.57"/>
<polygon fill="red" stroke="red" stroke-width="0.16" points="201.02,-82.33 206.28,-73.13 196.44,-77.04 201.02,-82.33"/>
</g>
<!-- PAC&#45;MAN Right -->
<g id="node13" class="node">
<title>PAC&#45;MAN Right</title>
<polygon fill="lightblue" stroke="black" points="863.62,-159.8 784.62,-159.8 784.62,-141.3 863.62,-141.3 863.62,-159.8"/>
<text text-anchor="middle" x="824.12" y="-147.25" font-family="Times,serif" font-size="9.00">PAC&#45;MAN Right</text>
</g>
<!-- PAC&#45;MAN Right&#45;&gt;Move Right -->
<g id="edge10" class="edge">
<title>PAC&#45;MAN Right&#45;&gt;Move Right</title>
<path fill="none" stroke="red" stroke-width="0.56" stroke-dasharray="1,5" d="M827.89,-140.97C832.65,-130.1 841.23,-110.54 849.42,-91.88"/>
<polygon fill="red" stroke="red" stroke-width="0.56" points="852.62,-93.3 853.43,-82.74 846.21,-90.49 852.62,-93.3"/>
</g>
<!-- PAC&#45;MAN Right&#45;&gt;Move Up -->
<g id="edge11" class="edge">
<title>PAC&#45;MAN Right&#45;&gt;Move Up</title>
<path fill="none" stroke="green" stroke-width="0.14" stroke-dasharray="1,5" d="M809.74,-140.86C800.37,-135.41 787.77,-128.46 776.12,-123.33 713.47,-95.69 637.82,-71.37 591.09,-57.34"/>
<polygon fill="green" stroke="green" stroke-width="0.14" points="592.36,-54.07 581.78,-54.57 590.36,-60.77 592.36,-54.07"/>
</g>
<!-- PAC&#45;MAN Left -->
<g id="node14" class="node">
<title>PAC&#45;MAN Left</title>
<polygon fill="lightblue" stroke="black" points="1080,-159.8 1006.25,-159.8 1006.25,-141.3 1080,-141.3 1080,-159.8"/>
<text text-anchor="middle" x="1043.12" y="-147.25" font-family="Times,serif" font-size="9.00">PAC&#45;MAN Left</text>
</g>
<!-- PAC&#45;MAN Left&#45;&gt;Move Right -->
<g id="edge12" class="edge">
<title>PAC&#45;MAN Left&#45;&gt;Move Right</title>
<path fill="none" stroke="red" stroke-width="0.12" stroke-dasharray="1,5" d="M1028.97,-140.97C1004.06,-125.87 951.46,-93.97 913.6,-71.02"/>
<polygon fill="red" stroke="red" stroke-width="0.12" points="915.81,-68.27 905.44,-66.08 912.18,-74.26 915.81,-68.27"/>
</g>
<!-- PAC&#45;MAN Left&#45;&gt;Move Left -->
<g id="edge13" class="edge">
<title>PAC&#45;MAN Left&#45;&gt;Move Left</title>
<path fill="none" stroke="red" stroke-width="0.33" stroke-dasharray="1,5" d="M1053.52,-140.97C1070.77,-126.72 1106.13,-97.52 1133.41,-74.99"/>
<polygon fill="red" stroke="red" stroke-width="0.33" points="1135.37,-77.91 1140.85,-68.84 1130.91,-72.51 1135.37,-77.91"/>
</g>
<!-- PAC&#45;MAN Up -->
<g id="node15" class="node">
<title>PAC&#45;MAN Up</title>
<polygon fill="lightblue" stroke="black" points="490.5,-159.8 419.75,-159.8 419.75,-141.3 490.5,-141.3 490.5,-159.8"/>
<text text-anchor="middle" x="455.12" y="-147.25" font-family="Times,serif" font-size="9.00">PAC&#45;MAN Up</text>
</g>
<!-- PAC&#45;MAN Up&#45;&gt;Move Up -->
<g id="edge14" class="edge">
<title>PAC&#45;MAN Up&#45;&gt;Move Up</title>
<path fill="none" stroke="red" stroke-width="0.16" d="M462.65,-140.97C474.48,-127.49 498.04,-100.63 517.28,-78.69"/>
<polygon fill="red" stroke="red" stroke-width="0.16" points="519.75,-81.18 523.72,-71.35 514.49,-76.56 519.75,-81.18"/>
</g>
<!-- PACM&#45;MAN Down -->
<g id="node16" class="node">
<title>PACM&#45;MAN Down</title>
<polygon fill="lightblue" stroke="black" points="1260.25,-159.8 1170,-159.8 1170,-141.3 1260.25,-141.3 1260.25,-159.8"/>
<text text-anchor="middle" x="1215.12" y="-147.25" font-family="Times,serif" font-size="9.00">PACM&#45;MAN Down</text>
</g>
<!-- PACM&#45;MAN Down&#45;&gt;Move Left -->
<g id="edge15" class="edge">
<title>PACM&#45;MAN Down&#45;&gt;Move Left</title>
<path fill="none" stroke="green" stroke-width="0.39" stroke-dasharray="1,5" d="M1211.44,-140.97C1206.46,-129.36 1197.23,-107.84 1188.75,-88.08"/>
<polygon fill="green" stroke="green" stroke-width="0.39" points="1192.07,-86.93 1184.91,-79.12 1185.63,-89.69 1192.07,-86.93"/>
</g>
<!-- Power&#45;Up Time -->
<g id="node17" class="node">
<title>Power&#45;Up Time</title>
<polygon fill="lightblue" stroke="black" points="767,-159.8 693.25,-159.8 693.25,-141.3 767,-141.3 767,-159.8"/>
<text text-anchor="middle" x="730.12" y="-147.25" font-family="Times,serif" font-size="9.00">Power&#45;Up Time</text>
</g>
<!-- Power&#45;Up Time&#45;&gt;Move Right -->
<g id="edge19" class="edge">
<title>Power&#45;Up Time&#45;&gt;Move Right</title>
<path fill="none" stroke="red" stroke-width="0.25" d="M741.58,-140.97C760.44,-126.84 798.94,-98 828.9,-75.55"/>
<polygon fill="red" stroke="red" stroke-width="0.25" points="830.9,-78.42 836.81,-69.62 826.71,-72.82 830.9,-78.42"/>
</g>
<!-- Power&#45;Up Time&#45;&gt;Move Left -->
<g id="edge16" class="edge">
<title>Power&#45;Up Time&#45;&gt;Move Left</title>
<path fill="none" stroke="green" stroke-width="0.33" stroke-dasharray="1,5" d="M742.86,-140.8C751.8,-135.04 764.24,-127.77 776.12,-123.33 839.29,-99.73 1031.78,-66.9 1122.23,-52.25"/>
<polygon fill="green" stroke="green" stroke-width="0.33" points="1122.66,-55.73 1131.98,-50.68 1121.55,-48.82 1122.66,-55.73"/>
</g>
<!-- Power&#45;Up Time&#45;&gt;Move Up -->
<g id="edge22" class="edge">
<title>Power&#45;Up Time&#45;&gt;Move Up</title>
<path fill="none" stroke="red" stroke-width="0.31" stroke-dasharray="1,5" d="M715.15,-140.97C687.43,-125.08 627.29,-90.61 587,-67.52"/>
<polygon fill="red" stroke="red" stroke-width="0.31" points="588.79,-64.51 578.38,-62.58 585.31,-70.58 588.79,-64.51"/>
</g>
<!-- Power&#45;Up Time&#45;&gt;Move Down -->
<g id="edge17" class="edge">
<title>Power&#45;Up Time&#45;&gt;Move Down</title>
<path fill="none" stroke="red" stroke-width="0.12" stroke-dasharray="1,5" d="M717.81,-140.97C708.85,-135.13 696.23,-127.7 684.12,-123.33 647.68,-110.17 402.41,-70.46 292.37,-53.03"/>
<polygon fill="red" stroke="red" stroke-width="0.12" points="293.08,-49.6 282.66,-51.49 291.99,-56.51 293.08,-49.6"/>
</g>
<!-- 15983&#45;&gt;Move Left -->
<g id="edge33" class="edge">
<title>15983&#45;&gt;Move Left</title>
<path fill="none" stroke="red" stroke-width="0.36" d="M1135.68,-124.96C1140.35,-114.06 1146,-100.89 1151.36,-88.4"/>
<polygon fill="red" stroke="red" stroke-width="0.36" points="1154.44,-90.1 1155.17,-79.53 1148.01,-87.34 1154.44,-90.1"/>
</g>
<!-- 16118&#45;&gt;15868 -->
<g id="edge36" class="edge">
<title>16118&#45;&gt;15868</title>
<path fill="none" stroke="green" stroke-width="0.26" d="M1381.12,-213.46C1381.12,-205.59 1381.12,-196.82 1381.12,-188.42"/>
<polygon fill="green" stroke="green" stroke-width="0.26" points="1384.63,-188.46 1381.13,-178.46 1377.63,-188.46 1384.63,-188.46"/>
</g>
<!-- 15868&#45;&gt;Move Left -->
<g id="edge31" class="edge">
<title>15868&#45;&gt;Move Left</title>
<path fill="none" stroke="green" stroke-width="0.28" d="M1358.9,-134.56C1352.9,-130.73 1346.35,-126.74 1340.12,-123.33 1298.54,-100.55 1249.19,-78.2 1214.4,-63.18"/>
<polygon fill="green" stroke="green" stroke-width="0.28" points="1215.95,-60.04 1205.38,-59.31 1213.19,-66.47 1215.95,-60.04"/>
</g>
</g>
</svg>
