<?xml version="1.0" encoding="UTF-8" standalone="no"?>
<!DOCTYPE svg PUBLIC "-//W3C//DTD SVG 1.1//EN"
 "http://www.w3.org/Graphics/SVG/1.1/DTD/svg11.dtd">
<!-- Generated by graphviz version 12.0.0 (20240704.0754)
 -->
<!-- Pages: 1 -->
<svg width="1558pt" height="240pt"
 viewBox="0.00 0.00 1558.10 240.27" xmlns="http://www.w3.org/2000/svg" xmlns:xlink="http://www.w3.org/1999/xlink">
<g id="graph0" class="graph" transform="scale(1 1) rotate(0) translate(4 236.27)">
<polygon fill="white" stroke="none" points="-4,4 -4,-236.27 1554.1,-236.27 1554.1,4 -4,4"/>
<!-- Pellet Right -->
<g id="node1" class="node">
<title>Pellet Right</title>
<polygon fill="lightblue" stroke="black" points="872.5,-159.8 815.25,-159.8 815.25,-141.3 872.5,-141.3 872.5,-159.8"/>
<text text-anchor="middle" x="843.88" y="-147.25" font-family="Times,serif" font-size="9.00">Pellet Right</text>
</g>
<!-- Move Right -->
<g id="node18" class="node">
<title>Move Right</title>
<ellipse fill="lightblue" stroke="black" cx="359.88" cy="-43.66" rx="41.54" ry="41.54"/>
<text text-anchor="middle" x="359.88" y="-40.36" font-family="Times,serif" font-size="9.00">Move Right</text>
</g>
<!-- Pellet Right&#45;&gt;Move Right -->
<g id="edge21" class="edge">
<title>Pellet Right&#45;&gt;Move Right</title>
<path fill="none" stroke="green" stroke-width="0.25" stroke-dasharray="1,5" d="M834.23,-140.89C827.16,-135.02 817.05,-127.57 806.88,-123.33 770.73,-108.24 521.07,-69.13 411.38,-52.42"/>
<polygon fill="green" stroke="green" stroke-width="0.25" points="411.99,-48.98 401.58,-50.93 410.94,-55.9 411.99,-48.98"/>
</g>
<!-- Move Down -->
<g id="node21" class="node">
<title>Move Down</title>
<ellipse fill="lightblue" stroke="black" cx="1401.88" cy="-43.66" rx="43.66" ry="43.66"/>
<text text-anchor="middle" x="1401.88" y="-40.36" font-family="Times,serif" font-size="9.00">Move Down</text>
</g>
<!-- Pellet Right&#45;&gt;Move Down -->
<g id="edge1" class="edge">
<title>Pellet Right&#45;&gt;Move Down</title>
<path fill="none" stroke="green" stroke-width="0.44" stroke-dasharray="1,5" d="M853.45,-141C860.71,-135.02 871.24,-127.39 881.88,-123.33 1000.3,-78.04 1039.55,-106.57 1164.88,-87.33 1228.07,-77.63 1300.34,-64.29 1348.29,-55.12"/>
<polygon fill="green" stroke="green" stroke-width="0.44" points="1348.93,-58.57 1358.09,-53.24 1347.61,-51.69 1348.93,-58.57"/>
</g>
<!-- Pellet Left -->
<g id="node2" class="node">
<title>Pellet Left</title>
<polygon fill="lightblue" stroke="black" points="1252.88,-159.8 1200.88,-159.8 1200.88,-141.3 1252.88,-141.3 1252.88,-159.8"/>
<text text-anchor="middle" x="1226.88" y="-147.25" font-family="Times,serif" font-size="9.00">Pellet Left</text>
</g>
<!-- Move Left -->
<g id="node19" class="node">
<title>Move Left</title>
<ellipse fill="lightblue" stroke="black" cx="1117.88" cy="-43.66" rx="37.83" ry="37.83"/>
<text text-anchor="middle" x="1117.88" y="-40.36" font-family="Times,serif" font-size="9.00">Move Left</text>
</g>
<!-- Pellet Left&#45;&gt;Move Left -->
<g id="edge2" class="edge">
<title>Pellet Left&#45;&gt;Move Left</title>
<path fill="none" stroke="red" stroke-width="0.28" stroke-dasharray="1,5" d="M1217.96,-140.97C1203.73,-127.28 1175.18,-99.8 1152.2,-77.69"/>
<polygon fill="red" stroke="red" stroke-width="0.28" points="1154.89,-75.43 1145.26,-71.01 1150.04,-80.47 1154.89,-75.43"/>
</g>
<!-- Pellet Up -->
<g id="node3" class="node">
<title>Pellet Up</title>
<polygon fill="lightblue" stroke="black" points="797.38,-159.8 748.38,-159.8 748.38,-141.3 797.38,-141.3 797.38,-159.8"/>
<text text-anchor="middle" x="772.88" y="-147.25" font-family="Times,serif" font-size="9.00">Pellet Up</text>
</g>
<!-- Move Up -->
<g id="node20" class="node">
<title>Move Up</title>
<ellipse fill="lightblue" stroke="black" cx="688.88" cy="-43.66" rx="35.71" ry="35.71"/>
<text text-anchor="middle" x="688.88" y="-40.36" font-family="Times,serif" font-size="9.00">Move Up</text>
</g>
<!-- Pellet Up&#45;&gt;Move Up -->
<g id="edge3" class="edge">
<title>Pellet Up&#45;&gt;Move Up</title>
<path fill="none" stroke="green" stroke-width="0.31" d="M766,-140.97C755.44,-127.78 734.62,-101.78 717.27,-80.12"/>
<polygon fill="green" stroke="green" stroke-width="0.31" points="720.1,-78.05 711.11,-72.43 714.63,-82.43 720.1,-78.05"/>
</g>
<!-- Pellet Down -->
<g id="node4" class="node">
<title>Pellet Down</title>
<polygon fill="lightblue" stroke="black" points="152,-159.8 91.75,-159.8 91.75,-141.3 152,-141.3 152,-159.8"/>
<text text-anchor="middle" x="121.88" y="-147.25" font-family="Times,serif" font-size="9.00">Pellet Down</text>
</g>
<!-- Pellet Down&#45;&gt;Move Right -->
<g id="edge4" class="edge">
<title>Pellet Down&#45;&gt;Move Right</title>
<path fill="none" stroke="green" stroke-width="0.31" stroke-dasharray="1,5" d="M133.41,-140.83C140.97,-135.36 151.2,-128.42 160.88,-123.33 209.93,-97.53 269.4,-75.08 310.48,-60.84"/>
<polygon fill="green" stroke="green" stroke-width="0.31" points="311.48,-64.2 319.81,-57.64 309.21,-57.58 311.48,-64.2"/>
</g>
<!-- Power Pellet Right -->
<g id="node5" class="node">
<title>Power Pellet Right</title>
<polygon fill="lightblue" stroke="black" points="730.25,-159.8 647.5,-159.8 647.5,-141.3 730.25,-141.3 730.25,-159.8"/>
<text text-anchor="middle" x="688.88" y="-147.25" font-family="Times,serif" font-size="9.00">Power Pellet Right</text>
</g>
<!-- Power Pellet Right&#45;&gt;Move Up -->
<g id="edge5" class="edge">
<title>Power Pellet Right&#45;&gt;Move Up</title>
<path fill="none" stroke="green" stroke-width="0.5" stroke-dasharray="1,5" d="M688.88,-140.97C688.88,-129.79 688.88,-109.42 688.88,-90.28"/>
<polygon fill="green" stroke="green" stroke-width="0.5" points="692.38,-90.29 688.88,-80.29 685.38,-90.29 692.38,-90.29"/>
</g>
<!-- Power Pellet Left -->
<g id="node6" class="node">
<title>Power Pellet Left</title>
<polygon fill="lightblue" stroke="black" points="539.62,-159.8 462.12,-159.8 462.12,-141.3 539.62,-141.3 539.62,-159.8"/>
<text text-anchor="middle" x="500.88" y="-147.25" font-family="Times,serif" font-size="9.00">Power Pellet Left</text>
</g>
<!-- Power Pellet Left&#45;&gt;Move Right -->
<g id="edge25" class="edge">
<title>Power Pellet Left&#45;&gt;Move Right</title>
<path fill="none" stroke="green" stroke-width="0.24" stroke-dasharray="1,5" d="M489.34,-140.97C470.28,-126.79 431.33,-97.82 401.1,-75.33"/>
<polygon fill="green" stroke="green" stroke-width="0.24" points="403.24,-72.56 393.12,-69.4 399.06,-78.17 403.24,-72.56"/>
</g>
<!-- Power Pellet Left&#45;&gt;Move Up -->
<g id="edge22" class="edge">
<title>Power Pellet Left&#45;&gt;Move Up</title>
<path fill="none" stroke="red" stroke-width="0.35" d="M516.26,-140.97C544.96,-124.96 607.49,-90.07 648.88,-66.98"/>
<polygon fill="red" stroke="red" stroke-width="0.35" points="650.4,-70.14 657.42,-62.21 646.99,-64.03 650.4,-70.14"/>
</g>
<!-- Power Pellet Up -->
<g id="node7" class="node">
<title>Power Pellet Up</title>
<polygon fill="lightblue" stroke="black" points="1345.12,-159.8 1270.62,-159.8 1270.62,-141.3 1345.12,-141.3 1345.12,-159.8"/>
<text text-anchor="middle" x="1307.88" y="-147.25" font-family="Times,serif" font-size="9.00">Power Pellet Up</text>
</g>
<!-- Power Pellet Up&#45;&gt;Move Left -->
<g id="edge26" class="edge">
<title>Power Pellet Up&#45;&gt;Move Left</title>
<path fill="none" stroke="green" stroke-width="0.87" d="M1293,-140.98C1284.01,-135.82 1272.31,-129.15 1261.88,-123.33 1228.05,-104.45 1189.54,-83.44 1160.85,-67.88"/>
<polygon fill="green" stroke="green" stroke-width="0.87" points="1162.76,-64.93 1152.3,-63.24 1159.43,-71.09 1162.76,-64.93"/>
</g>
<!-- Power Pellet Down -->
<g id="node8" class="node">
<title>Power Pellet Down</title>
<polygon fill="lightblue" stroke="black" points="255.75,-159.8 170,-159.8 170,-141.3 255.75,-141.3 255.75,-159.8"/>
<text text-anchor="middle" x="212.88" y="-147.25" font-family="Times,serif" font-size="9.00">Power Pellet Down</text>
</g>
<!-- Power Pellet Down&#45;&gt;Move Right -->
<g id="edge28" class="edge">
<title>Power Pellet Down&#45;&gt;Move Right</title>
<path fill="none" stroke="green" stroke-width="0.29" d="M224.9,-140.97C245.05,-126.6 286.5,-97.02 318.19,-74.41"/>
<polygon fill="green" stroke="green" stroke-width="0.29" points="319.96,-77.44 326.07,-68.79 315.89,-71.75 319.96,-77.44"/>
</g>
<!-- Ghost Info Right -->
<g id="node9" class="node">
<title>Ghost Info Right</title>
<polygon fill="lightblue" stroke="black" points="1440.25,-159.8 1363.5,-159.8 1363.5,-141.3 1440.25,-141.3 1440.25,-159.8"/>
<text text-anchor="middle" x="1401.88" y="-147.25" font-family="Times,serif" font-size="9.00">Ghost Info Right</text>
</g>
<!-- Ghost Info Right&#45;&gt;Move Down -->
<g id="edge6" class="edge">
<title>Ghost Info Right&#45;&gt;Move Down</title>
<path fill="none" stroke="green" stroke-width="1.1" stroke-dasharray="1,5" d="M1401.88,-140.97C1401.88,-131.43 1401.88,-115.18 1401.88,-98.73"/>
<polygon fill="green" stroke="green" stroke-width="1.1" points="1405.38,-99.05 1401.88,-89.05 1398.38,-99.05 1405.38,-99.05"/>
</g>
<!-- Ghost Info Left -->
<g id="node10" class="node">
<title>Ghost Info Left</title>
<polygon fill="lightblue" stroke="black" points="629.62,-159.8 558.12,-159.8 558.12,-141.3 629.62,-141.3 629.62,-159.8"/>
<text text-anchor="middle" x="593.88" y="-147.25" font-family="Times,serif" font-size="9.00">Ghost Info Left</text>
</g>
<!-- Ghost Info Left&#45;&gt;Move Right -->
<g id="edge7" class="edge">
<title>Ghost Info Left&#45;&gt;Move Right</title>
<path fill="none" stroke="red" stroke-width="0.3" stroke-dasharray="1,5" d="M580.35,-141.03C571.55,-135.65 559.73,-128.72 548.88,-123.33 502.22,-100.15 447.03,-77.73 408.37,-62.79"/>
<polygon fill="red" stroke="red" stroke-width="0.3" points="409.93,-59.64 399.34,-59.32 407.42,-66.18 409.93,-59.64"/>
</g>
<!-- Ghost Info Left&#45;&gt;Move Up -->
<g id="edge8" class="edge">
<title>Ghost Info Left&#45;&gt;Move Up</title>
<path fill="none" stroke="green" stroke-width="0.6" d="M601.65,-140.97C613.88,-127.46 638.29,-100.52 658.18,-78.56"/>
<polygon fill="green" stroke="green" stroke-width="0.6" points="660.55,-81.15 664.67,-71.39 655.36,-76.46 660.55,-81.15"/>
</g>
<!-- Ghost Info Up -->
<g id="node11" class="node">
<title>Ghost Info Up</title>
<polygon fill="lightblue" stroke="black" points="1183.12,-159.8 1114.62,-159.8 1114.62,-141.3 1183.12,-141.3 1183.12,-159.8"/>
<text text-anchor="middle" x="1148.88" y="-147.25" font-family="Times,serif" font-size="9.00">Ghost Info Up</text>
</g>
<!-- Ghost Info Up&#45;&gt;Move Left -->
<g id="edge9" class="edge">
<title>Ghost Info Up&#45;&gt;Move Left</title>
<path fill="none" stroke="red" stroke-width="0.13" d="M1146.34,-140.97C1143.02,-129.75 1136.97,-109.27 1131.29,-90.07"/>
<polygon fill="red" stroke="red" stroke-width="0.13" points="1134.71,-89.29 1128.52,-80.69 1128,-91.28 1134.71,-89.29"/>
</g>
<!-- Ghost Info Up&#45;&gt;Move Up -->
<g id="edge10" class="edge">
<title>Ghost Info Up&#45;&gt;Move Up</title>
<path fill="none" stroke="red" stroke-width="0.22" d="M1124.27,-140.82C1108.32,-135.35 1087.02,-128.4 1067.88,-123.33 948.69,-91.76 805.66,-65.04 734.2,-52.43"/>
<polygon fill="red" stroke="red" stroke-width="0.22" points="734.96,-49.01 724.5,-50.73 733.75,-55.9 734.96,-49.01"/>
</g>
<!-- Ghost Info Up&#45;&gt;Move Down -->
<g id="edge11" class="edge">
<title>Ghost Info Up&#45;&gt;Move Down</title>
<path fill="none" stroke="green" stroke-width="0.21" d="M1161.69,-140.85C1170.05,-135.4 1181.34,-128.46 1191.88,-123.33 1244.32,-97.8 1307.31,-75.21 1350.54,-60.86"/>
<polygon fill="green" stroke="green" stroke-width="0.21" points="1351.56,-64.21 1359.96,-57.76 1349.37,-57.56 1351.56,-64.21"/>
</g>
<!-- Ghost Info Down -->
<g id="node12" class="node">
<title>Ghost Info Down</title>
<polygon fill="lightblue" stroke="black" points="970.75,-159.8 891,-159.8 891,-141.3 970.75,-141.3 970.75,-159.8"/>
<text text-anchor="middle" x="930.88" y="-147.25" font-family="Times,serif" font-size="9.00">Ghost Info Down</text>
</g>
<!-- Ghost Info Down&#45;&gt;Move Left -->
<g id="edge20" class="edge">
<title>Ghost Info Down&#45;&gt;Move Left</title>
<path fill="none" stroke="red" stroke-width="0.43" d="M946.18,-140.97C974.18,-125.26 1034.56,-91.4 1075.71,-68.31"/>
<polygon fill="red" stroke="red" stroke-width="0.43" points="1077.37,-71.39 1084.38,-63.45 1073.95,-65.29 1077.37,-71.39"/>
</g>
<!-- Ghost Info Down&#45;&gt;Move Up -->
<g id="edge12" class="edge">
<title>Ghost Info Down&#45;&gt;Move Up</title>
<path fill="none" stroke="red" stroke-width="0.25" d="M915.64,-140.87C906.07,-135.55 893.4,-128.74 881.88,-123.33 831.31,-99.57 771.52,-75.85 732.04,-60.77"/>
<polygon fill="red" stroke="red" stroke-width="0.25" points="733.4,-57.54 722.81,-57.26 730.91,-64.09 733.4,-57.54"/>
</g>
<!-- PAC&#45;MAN Right -->
<g id="node13" class="node">
<title>PAC&#45;MAN Right</title>
<polygon fill="lightblue" stroke="black" points="352.38,-159.8 273.38,-159.8 273.38,-141.3 352.38,-141.3 352.38,-159.8"/>
<text text-anchor="middle" x="312.88" y="-147.25" font-family="Times,serif" font-size="9.00">PAC&#45;MAN Right</text>
</g>
<!-- PAC&#45;MAN Right&#45;&gt;Move Right -->
<g id="edge13" class="edge">
<title>PAC&#45;MAN Right&#45;&gt;Move Right</title>
<path fill="none" stroke="red" stroke-width="0.26" stroke-dasharray="1,5" d="M316.72,-140.97C321.64,-130 330.52,-110.18 338.95,-91.36"/>
<polygon fill="red" stroke="red" stroke-width="0.26" points="342.11,-92.88 343,-82.32 335.72,-90.01 342.11,-92.88"/>
</g>
<!-- PAC&#45;MAN Right&#45;&gt;Move Up -->
<g id="edge14" class="edge">
<title>PAC&#45;MAN Right&#45;&gt;Move Up</title>
<path fill="none" stroke="green" stroke-width="0.16" stroke-dasharray="1,5" d="M326.27,-140.98C335.65,-135.29 348.65,-128.04 360.88,-123.33 458.39,-85.76 579.34,-62.34 643.66,-51.6"/>
<polygon fill="green" stroke="green" stroke-width="0.16" points="643.95,-55.1 653.25,-50.03 642.81,-48.2 643.95,-55.1"/>
</g>
<!-- PAC&#45;MAN Left -->
<g id="node14" class="node">
<title>PAC&#45;MAN Left</title>
<polygon fill="lightblue" stroke="black" points="443.75,-159.8 370,-159.8 370,-141.3 443.75,-141.3 443.75,-159.8"/>
<text text-anchor="middle" x="406.88" y="-147.25" font-family="Times,serif" font-size="9.00">PAC&#45;MAN Left</text>
</g>
<!-- PAC&#45;MAN Left&#45;&gt;Move Right -->
<g id="edge15" class="edge">
<title>PAC&#45;MAN Left&#45;&gt;Move Right</title>
<path fill="none" stroke="green" stroke-width="0.45" stroke-dasharray="1,5" d="M403.03,-140.97C398.14,-130.05 389.31,-110.36 380.92,-91.62"/>
<polygon fill="green" stroke="green" stroke-width="0.45" points="384.15,-90.27 376.87,-82.58 377.76,-93.14 384.15,-90.27"/>
</g>
<!-- PAC&#45;MAN Left&#45;&gt;Move Up -->
<g id="edge23" class="edge">
<title>PAC&#45;MAN Left&#45;&gt;Move Up</title>
<path fill="none" stroke="green" stroke-width="0.21" d="M420.2,-141.03C429.19,-135.51 441.46,-128.42 452.88,-123.33 517.67,-94.4 596.51,-70.2 644.68,-56.57"/>
<polygon fill="green" stroke="green" stroke-width="0.21" points="645.49,-59.98 654.17,-53.91 643.6,-53.24 645.49,-59.98"/>
</g>
<!-- PAC&#45;MAN Up -->
<g id="node15" class="node">
<title>PAC&#45;MAN Up</title>
<polygon fill="lightblue" stroke="black" points="1059.25,-159.8 988.5,-159.8 988.5,-141.3 1059.25,-141.3 1059.25,-159.8"/>
<text text-anchor="middle" x="1023.88" y="-147.25" font-family="Times,serif" font-size="9.00">PAC&#45;MAN Up</text>
</g>
<!-- PAC&#45;MAN Up&#45;&gt;Move Left -->
<g id="edge16" class="edge">
<title>PAC&#45;MAN Up&#45;&gt;Move Left</title>
<path fill="none" stroke="red" stroke-width="0.19" stroke-dasharray="1,5" d="M1031.57,-140.97C1043.41,-127.75 1066.79,-101.67 1086.22,-79.98"/>
<polygon fill="red" stroke="red" stroke-width="0.19" points="1088.65,-82.52 1092.72,-72.73 1083.44,-77.84 1088.65,-82.52"/>
</g>
<!-- PAC&#45;MAN Up&#45;&gt;Move Up -->
<g id="edge17" class="edge">
<title>PAC&#45;MAN Up&#45;&gt;Move Up</title>
<path fill="none" stroke="green" stroke-width="0.75" d="M1011.65,-141.02C1003.08,-135.36 991.17,-128.11 979.88,-123.33 896.58,-88.04 793.09,-64.54 734.66,-53"/>
<polygon fill="green" stroke="green" stroke-width="0.75" points="735.54,-49.6 725.05,-51.13 734.2,-56.48 735.54,-49.6"/>
</g>
<!-- PACM&#45;MAN Down -->
<g id="node16" class="node">
<title>PACM&#45;MAN Down</title>
<polygon fill="lightblue" stroke="black" points="1513,-232.27 1422.75,-232.27 1422.75,-213.77 1513,-213.77 1513,-232.27"/>
<text text-anchor="middle" x="1467.88" y="-219.72" font-family="Times,serif" font-size="9.00">PACM&#45;MAN Down</text>
</g>
<!-- PACM&#45;MAN Down&#45;&gt;Move Left -->
<g id="edge18" class="edge">
<title>PACM&#45;MAN Down&#45;&gt;Move Left</title>
<path fill="none" stroke="red" stroke-width="0.2" d="M1422.35,-219.78C1329.77,-214.74 1126.54,-201.12 1105.88,-177.77 1084.6,-153.74 1089.82,-116.8 1099.12,-87.93"/>
<polygon fill="red" stroke="red" stroke-width="0.2" points="1102.33,-89.36 1102.3,-78.77 1095.71,-87.07 1102.33,-89.36"/>
</g>
<!-- PACM&#45;MAN Down&#45;&gt;Move Down -->
<g id="edge19" class="edge">
<title>PACM&#45;MAN Down&#45;&gt;Move Down</title>
<path fill="none" stroke="red" stroke-width="0.29" d="M1467.22,-213.3C1465.68,-195.74 1461,-155.12 1448.88,-123.33 1444.45,-111.71 1438.34,-99.86 1432,-89"/>
<polygon fill="red" stroke="red" stroke-width="0.29" points="1435.04,-87.27 1426.88,-80.51 1429.05,-90.88 1435.04,-87.27"/>
</g>
<!-- 13817 -->
<g id="node22" class="node">
<title>13817</title>
<ellipse fill="white" stroke="black" cx="1522.88" cy="-150.55" rx="27.22" ry="27.22"/>
<text text-anchor="middle" x="1522.88" y="-147.25" font-family="Times,serif" font-size="9.00">13817</text>
</g>
<!-- PACM&#45;MAN Down&#45;&gt;13817 -->
<g id="edge27" class="edge">
<title>PACM&#45;MAN Down&#45;&gt;13817</title>
<path fill="none" stroke="red" stroke-width="0.28" d="M1474.62,-213.38C1481.01,-205.2 1490.96,-192.44 1500.18,-180.64"/>
<polygon fill="red" stroke="red" stroke-width="0.28" points="1502.73,-183.05 1506.12,-173.02 1497.21,-178.75 1502.73,-183.05"/>
</g>
<!-- Power&#45;Up Time -->
<g id="node17" class="node">
<title>Power&#45;Up Time</title>
<polygon fill="lightblue" stroke="black" points="73.75,-159.8 0,-159.8 0,-141.3 73.75,-141.3 73.75,-159.8"/>
<text text-anchor="middle" x="36.88" y="-147.25" font-family="Times,serif" font-size="9.00">Power&#45;Up Time</text>
</g>
<!-- Power&#45;Up Time&#45;&gt;Move Right -->
<g id="edge24" class="edge">
<title>Power&#45;Up Time&#45;&gt;Move Right</title>
<path fill="none" stroke="green" stroke-width="0.43" d="M50.12,-140.86C59.09,-135.26 71.35,-128.17 82.88,-123.33 159.03,-91.36 252.26,-67.89 308.81,-55.26"/>
<polygon fill="green" stroke="green" stroke-width="0.43" points="309.29,-58.74 318.3,-53.17 307.78,-51.91 309.29,-58.74"/>
</g>
<!-- 13817&#45;&gt;Move Down -->
<g id="edge29" class="edge">
<title>13817&#45;&gt;Move Down</title>
<path fill="none" stroke="red" stroke-width="0.18" d="M1502.62,-132C1486.16,-117.72 1462.41,-97.14 1442.11,-79.54"/>
<polygon fill="red" stroke="red" stroke-width="0.18" points="1444.58,-77.05 1434.73,-73.15 1440,-82.34 1444.58,-77.05"/>
</g>
</g>
</svg>
