<?xml version="1.0" encoding="UTF-8" standalone="no"?>
<!DOCTYPE svg PUBLIC "-//W3C//DTD SVG 1.1//EN"
 "http://www.w3.org/Graphics/SVG/1.1/DTD/svg11.dtd">
<!-- Generated by graphviz version 12.0.0 (20240704.0754)
 -->
<!-- Pages: 1 -->
<svg width="1520pt" height="150pt"
 viewBox="0.00 0.00 1519.50 149.83" xmlns="http://www.w3.org/2000/svg" xmlns:xlink="http://www.w3.org/1999/xlink">
<g id="graph0" class="graph" transform="scale(1 1) rotate(0) translate(4 145.83)">
<polygon fill="white" stroke="none" points="-4,4 -4,-145.83 1515.5,-145.83 1515.5,4 -4,4"/>
<!-- Pellet Right -->
<g id="node1" class="node">
<title>Pellet Right</title>
<polygon fill="lightblue" stroke="black" points="57.25,-141.83 0,-141.83 0,-123.33 57.25,-123.33 57.25,-141.83"/>
<text text-anchor="middle" x="28.62" y="-129.28" font-family="Times,serif" font-size="9.00">Pellet Right</text>
</g>
<!-- Move Up -->
<g id="node20" class="node">
<title>Move Up</title>
<ellipse fill="lightblue" stroke="black" cx="185.62" cy="-43.66" rx="35.71" ry="35.71"/>
<text text-anchor="middle" x="185.62" y="-40.36" font-family="Times,serif" font-size="9.00">Move Up</text>
</g>
<!-- Pellet Right&#45;&gt;Move Up -->
<g id="edge1" class="edge">
<title>Pellet Right&#45;&gt;Move Up</title>
<path fill="none" stroke="green" stroke-width="0.22" stroke-dasharray="1,5" d="M44.25,-122.93C67.65,-109.97 112.55,-85.12 145.49,-66.88"/>
<polygon fill="green" stroke="green" stroke-width="0.22" points="147.09,-70 154.15,-62.09 143.7,-63.87 147.09,-70"/>
</g>
<!-- Pellet Left -->
<g id="node2" class="node">
<title>Pellet Left</title>
<polygon fill="lightblue" stroke="black" points="127.62,-141.83 75.62,-141.83 75.62,-123.33 127.62,-123.33 127.62,-141.83"/>
<text text-anchor="middle" x="101.62" y="-129.28" font-family="Times,serif" font-size="9.00">Pellet Left</text>
</g>
<!-- Pellet Left&#45;&gt;Move Up -->
<g id="edge2" class="edge">
<title>Pellet Left&#45;&gt;Move Up</title>
<path fill="none" stroke="red" stroke-width="0.54" d="M109.99,-122.93C120.11,-112.45 137.77,-94.17 153.48,-77.92"/>
<polygon fill="red" stroke="red" stroke-width="0.54" points="156,-80.36 160.43,-70.73 150.96,-75.49 156,-80.36"/>
</g>
<!-- Pellet Up -->
<g id="node3" class="node">
<title>Pellet Up</title>
<polygon fill="lightblue" stroke="black" points="1143.12,-141.83 1094.12,-141.83 1094.12,-123.33 1143.12,-123.33 1143.12,-141.83"/>
<text text-anchor="middle" x="1118.62" y="-129.28" font-family="Times,serif" font-size="9.00">Pellet Up</text>
</g>
<!-- Pellet Down -->
<g id="node4" class="node">
<title>Pellet Down</title>
<polygon fill="lightblue" stroke="black" points="501.75,-141.83 441.5,-141.83 441.5,-123.33 501.75,-123.33 501.75,-141.83"/>
<text text-anchor="middle" x="471.62" y="-129.28" font-family="Times,serif" font-size="9.00">Pellet Down</text>
</g>
<!-- Move Left -->
<g id="node19" class="node">
<title>Move Left</title>
<ellipse fill="lightblue" stroke="black" cx="561.62" cy="-43.66" rx="37.83" ry="37.83"/>
<text text-anchor="middle" x="561.62" y="-40.36" font-family="Times,serif" font-size="9.00">Move Left</text>
</g>
<!-- Pellet Down&#45;&gt;Move Left -->
<g id="edge3" class="edge">
<title>Pellet Down&#45;&gt;Move Left</title>
<path fill="none" stroke="red" stroke-width="0.46" stroke-dasharray="1,5" d="M480.58,-122.93C491.46,-112.43 510.43,-94.1 527.29,-77.82"/>
<polygon fill="red" stroke="red" stroke-width="0.46" points="529.58,-80.48 534.34,-71.01 524.72,-75.44 529.58,-80.48"/>
</g>
<!-- 18243 -->
<g id="node22" class="node">
<title>18243</title>
<ellipse fill="white" stroke="black" cx="471.62" cy="-43.66" rx="27.22" ry="27.22"/>
<text text-anchor="middle" x="471.62" y="-40.36" font-family="Times,serif" font-size="9.00">18243</text>
</g>
<!-- Pellet Down&#45;&gt;18243 -->
<g id="edge18" class="edge">
<title>Pellet Down&#45;&gt;18243</title>
<path fill="none" stroke="green" stroke-width="0.4" d="M471.62,-122.93C471.62,-113.23 471.62,-96.85 471.62,-81.58"/>
<polygon fill="green" stroke="green" stroke-width="0.4" points="475.13,-81.89 471.63,-71.89 468.13,-81.89 475.13,-81.89"/>
</g>
<!-- Power Pellet Right -->
<g id="node5" class="node">
<title>Power Pellet Right</title>
<polygon fill="lightblue" stroke="black" points="603,-141.83 520.25,-141.83 520.25,-123.33 603,-123.33 603,-141.83"/>
<text text-anchor="middle" x="561.62" y="-129.28" font-family="Times,serif" font-size="9.00">Power Pellet Right</text>
</g>
<!-- Power Pellet Right&#45;&gt;Move Left -->
<g id="edge16" class="edge">
<title>Power Pellet Right&#45;&gt;Move Left</title>
<path fill="none" stroke="red" stroke-width="0.41" d="M561.62,-122.93C561.62,-115.49 561.62,-104.12 561.62,-92.34"/>
<polygon fill="red" stroke="red" stroke-width="0.41" points="565.13,-92.59 561.63,-82.59 558.13,-92.59 565.13,-92.59"/>
</g>
<!-- Power Pellet Left -->
<g id="node6" class="node">
<title>Power Pellet Left</title>
<polygon fill="lightblue" stroke="black" points="1238.38,-141.83 1160.88,-141.83 1160.88,-123.33 1238.38,-123.33 1238.38,-141.83"/>
<text text-anchor="middle" x="1199.62" y="-129.28" font-family="Times,serif" font-size="9.00">Power Pellet Left</text>
</g>
<!-- Power Pellet Up -->
<g id="node7" class="node">
<title>Power Pellet Up</title>
<polygon fill="lightblue" stroke="black" points="786.88,-141.83 712.38,-141.83 712.38,-123.33 786.88,-123.33 786.88,-141.83"/>
<text text-anchor="middle" x="749.62" y="-129.28" font-family="Times,serif" font-size="9.00">Power Pellet Up</text>
</g>
<!-- Power Pellet Up&#45;&gt;Move Left -->
<g id="edge4" class="edge">
<title>Power Pellet Up&#45;&gt;Move Left</title>
<path fill="none" stroke="green" stroke-width="0.2" stroke-dasharray="1,5" d="M730.91,-122.93C701.76,-109.45 644.74,-83.09 604.97,-64.7"/>
<polygon fill="green" stroke="green" stroke-width="0.2" points="606.58,-61.59 596.03,-60.57 603.64,-67.94 606.58,-61.59"/>
</g>
<!-- Move Down -->
<g id="node21" class="node">
<title>Move Down</title>
<ellipse fill="lightblue" stroke="black" cx="844.62" cy="-43.66" rx="43.66" ry="43.66"/>
<text text-anchor="middle" x="844.62" y="-40.36" font-family="Times,serif" font-size="9.00">Move Down</text>
</g>
<!-- Power Pellet Up&#45;&gt;Move Down -->
<g id="edge5" class="edge">
<title>Power Pellet Up&#45;&gt;Move Down</title>
<path fill="none" stroke="green" stroke-width="0.1" d="M759.08,-122.93C769.92,-113.01 788.39,-96.11 805.4,-80.55"/>
<polygon fill="green" stroke="green" stroke-width="0.1" points="807.45,-83.42 812.46,-74.09 802.72,-78.26 807.45,-83.42"/>
</g>
<!-- Power Pellet Down -->
<g id="node8" class="node">
<title>Power Pellet Down</title>
<polygon fill="lightblue" stroke="black" points="1076.5,-141.83 990.75,-141.83 990.75,-123.33 1076.5,-123.33 1076.5,-141.83"/>
<text text-anchor="middle" x="1033.62" y="-129.28" font-family="Times,serif" font-size="9.00">Power Pellet Down</text>
</g>
<!-- Move Right -->
<g id="node18" class="node">
<title>Move Right</title>
<ellipse fill="lightblue" stroke="black" cx="1033.62" cy="-43.66" rx="41.54" ry="41.54"/>
<text text-anchor="middle" x="1033.62" y="-40.36" font-family="Times,serif" font-size="9.00">Move Right</text>
</g>
<!-- Power Pellet Down&#45;&gt;Move Right -->
<g id="edge6" class="edge">
<title>Power Pellet Down&#45;&gt;Move Right</title>
<path fill="none" stroke="red" stroke-width="0.18" d="M1033.62,-122.93C1033.62,-116.22 1033.62,-106.33 1033.62,-95.82"/>
<polygon fill="red" stroke="red" stroke-width="0.18" points="1037.13,-95.91 1033.63,-85.91 1030.13,-95.91 1037.13,-95.91"/>
</g>
<!-- Power Pellet Down&#45;&gt;Move Down -->
<g id="edge7" class="edge">
<title>Power Pellet Down&#45;&gt;Move Down</title>
<path fill="none" stroke="red" stroke-width="0.35" stroke-dasharray="1,5" d="M1014.81,-122.93C986.78,-110.03 933.1,-85.35 893.49,-67.14"/>
<polygon fill="red" stroke="red" stroke-width="0.35" points="895.03,-63.99 884.48,-62.99 892.1,-70.35 895.03,-63.99"/>
</g>
<!-- Ghost Info Right -->
<g id="node9" class="node">
<title>Ghost Info Right</title>
<polygon fill="lightblue" stroke="black" points="1333,-141.83 1256.25,-141.83 1256.25,-123.33 1333,-123.33 1333,-141.83"/>
<text text-anchor="middle" x="1294.62" y="-129.28" font-family="Times,serif" font-size="9.00">Ghost Info Right</text>
</g>
<!-- Ghost Info Left -->
<g id="node10" class="node">
<title>Ghost Info Left</title>
<polygon fill="lightblue" stroke="black" points="423.38,-141.83 351.88,-141.83 351.88,-123.33 423.38,-123.33 423.38,-141.83"/>
<text text-anchor="middle" x="387.62" y="-129.28" font-family="Times,serif" font-size="9.00">Ghost Info Left</text>
</g>
<!-- Ghost Info Left&#45;&gt;Move Left -->
<g id="edge8" class="edge">
<title>Ghost Info Left&#45;&gt;Move Left</title>
<path fill="none" stroke="red" stroke-width="0.12" stroke-dasharray="1,5" d="M419.39,-122.87C444.29,-115.34 479.35,-103.18 507.62,-87.33 513.79,-83.87 519.98,-79.74 525.87,-75.42"/>
<polygon fill="red" stroke="red" stroke-width="0.12" points="527.7,-78.43 533.52,-69.58 523.45,-72.87 527.7,-78.43"/>
</g>
<!-- Ghost Info Left&#45;&gt;Move Up -->
<g id="edge9" class="edge">
<title>Ghost Info Left&#45;&gt;Move Up</title>
<path fill="none" stroke="red" stroke-width="0.15" stroke-dasharray="1,5" d="M367.52,-122.93C335.05,-108.95 270.38,-81.13 227.56,-62.71"/>
<polygon fill="red" stroke="red" stroke-width="0.15" points="229.01,-59.52 218.44,-58.78 226.25,-65.95 229.01,-59.52"/>
</g>
<!-- Ghost Info Left&#45;&gt;18243 -->
<g id="edge17" class="edge">
<title>Ghost Info Left&#45;&gt;18243</title>
<path fill="none" stroke="green" stroke-width="0.55" d="M395.99,-122.93C407.43,-111.09 428.49,-89.3 445.49,-71.71"/>
<polygon fill="green" stroke="green" stroke-width="0.55" points="447.95,-74.19 452.39,-64.57 442.92,-69.33 447.95,-74.19"/>
</g>
<!-- Ghost Info Up -->
<g id="node11" class="node">
<title>Ghost Info Up</title>
<polygon fill="lightblue" stroke="black" points="1419.88,-141.83 1351.38,-141.83 1351.38,-123.33 1419.88,-123.33 1419.88,-141.83"/>
<text text-anchor="middle" x="1385.62" y="-129.28" font-family="Times,serif" font-size="9.00">Ghost Info Up</text>
</g>
<!-- Ghost Info Down -->
<g id="node12" class="node">
<title>Ghost Info Down</title>
<polygon fill="lightblue" stroke="black" points="884.5,-141.83 804.75,-141.83 804.75,-123.33 884.5,-123.33 884.5,-141.83"/>
<text text-anchor="middle" x="844.62" y="-129.28" font-family="Times,serif" font-size="9.00">Ghost Info Down</text>
</g>
<!-- Ghost Info Down&#45;&gt;Move Down -->
<g id="edge10" class="edge">
<title>Ghost Info Down&#45;&gt;Move Down</title>
<path fill="none" stroke="green" stroke-width="0.62" stroke-dasharray="1,5" d="M844.62,-122.93C844.62,-116.81 844.62,-108.04 844.62,-98.57"/>
<polygon fill="green" stroke="green" stroke-width="0.62" points="848.13,-98.62 844.63,-88.62 841.13,-98.62 848.13,-98.62"/>
</g>
<!-- PAC&#45;MAN Right -->
<g id="node13" class="node">
<title>PAC&#45;MAN Right</title>
<polygon fill="lightblue" stroke="black" points="225.12,-141.83 146.12,-141.83 146.12,-123.33 225.12,-123.33 225.12,-141.83"/>
<text text-anchor="middle" x="185.62" y="-129.28" font-family="Times,serif" font-size="9.00">PAC&#45;MAN Right</text>
</g>
<!-- PAC&#45;MAN Right&#45;&gt;Move Up -->
<g id="edge15" class="edge">
<title>PAC&#45;MAN Right&#45;&gt;Move Up</title>
<path fill="none" stroke="green" stroke-width="0.19" stroke-dasharray="1,5" d="M185.62,-122.93C185.62,-114.93 185.62,-102.4 185.62,-89.69"/>
<polygon fill="green" stroke="green" stroke-width="0.19" points="189.13,-89.83 185.63,-79.83 182.13,-89.83 189.13,-89.83"/>
</g>
<!-- PAC&#45;MAN Left -->
<g id="node14" class="node">
<title>PAC&#45;MAN Left</title>
<polygon fill="lightblue" stroke="black" points="1511.5,-141.83 1437.75,-141.83 1437.75,-123.33 1511.5,-123.33 1511.5,-141.83"/>
<text text-anchor="middle" x="1474.62" y="-129.28" font-family="Times,serif" font-size="9.00">PAC&#45;MAN Left</text>
</g>
<!-- PAC&#45;MAN Up -->
<g id="node15" class="node">
<title>PAC&#45;MAN Up</title>
<polygon fill="lightblue" stroke="black" points="973,-141.83 902.25,-141.83 902.25,-123.33 973,-123.33 973,-141.83"/>
<text text-anchor="middle" x="937.62" y="-129.28" font-family="Times,serif" font-size="9.00">PAC&#45;MAN Up</text>
</g>
<!-- PAC&#45;MAN Up&#45;&gt;Move Down -->
<g id="edge11" class="edge">
<title>PAC&#45;MAN Up&#45;&gt;Move Down</title>
<path fill="none" stroke="red" stroke-width="0.13" stroke-dasharray="1,5" d="M928.37,-122.93C917.75,-113.01 899.67,-96.11 883.02,-80.55"/>
<polygon fill="red" stroke="red" stroke-width="0.13" points="885.84,-78.39 876.15,-74.12 881.06,-83.51 885.84,-78.39"/>
</g>
<!-- PACM&#45;MAN Down -->
<g id="node16" class="node">
<title>PACM&#45;MAN Down</title>
<polygon fill="lightblue" stroke="black" points="333.75,-141.83 243.5,-141.83 243.5,-123.33 333.75,-123.33 333.75,-141.83"/>
<text text-anchor="middle" x="288.62" y="-129.28" font-family="Times,serif" font-size="9.00">PACM&#45;MAN Down</text>
</g>
<!-- PACM&#45;MAN Down&#45;&gt;Move Up -->
<g id="edge12" class="edge">
<title>PACM&#45;MAN Down&#45;&gt;Move Up</title>
<path fill="none" stroke="green" stroke-width="0.25" d="M278.37,-122.93C264.99,-111.63 240.87,-91.28 220.58,-74.16"/>
<polygon fill="green" stroke="green" stroke-width="0.25" points="222.93,-71.56 213.03,-67.78 218.41,-76.91 222.93,-71.56"/>
</g>
<!-- Power&#45;Up Time -->
<g id="node17" class="node">
<title>Power&#45;Up Time</title>
<polygon fill="lightblue" stroke="black" points="694.5,-141.83 620.75,-141.83 620.75,-123.33 694.5,-123.33 694.5,-141.83"/>
<text text-anchor="middle" x="657.62" y="-129.28" font-family="Times,serif" font-size="9.00">Power&#45;Up Time</text>
</g>
<!-- Power&#45;Up Time&#45;&gt;Move Left -->
<g id="edge13" class="edge">
<title>Power&#45;Up Time&#45;&gt;Move Left</title>
<path fill="none" stroke="red" stroke-width="0.17" stroke-dasharray="1,5" d="M648.07,-122.93C636.09,-112.09 614.91,-92.9 596.51,-76.25"/>
<polygon fill="red" stroke="red" stroke-width="0.17" points="599.31,-74.06 589.55,-69.95 594.61,-79.25 599.31,-74.06"/>
</g>
<!-- Power&#45;Up Time&#45;&gt;Move Down -->
<g id="edge14" class="edge">
<title>Power&#45;Up Time&#45;&gt;Move Down</title>
<path fill="none" stroke="green" stroke-width="0.13" d="M676.24,-122.93C703.95,-110.05 756.98,-85.4 796.16,-67.19"/>
<polygon fill="green" stroke="green" stroke-width="0.13" points="797.52,-70.41 805.12,-63.03 794.57,-64.07 797.52,-70.41"/>
</g>
<!-- Power&#45;Up Time&#45;&gt;18243 -->
<g id="edge19" class="edge">
<title>Power&#45;Up Time&#45;&gt;18243</title>
<path fill="none" stroke="red" stroke-width="0.83" d="M620.35,-125.17C590.24,-118.82 547.6,-107.13 514.62,-87.33 508.08,-83.4 501.79,-78.27 496.14,-72.94"/>
<polygon fill="red" stroke="red" stroke-width="0.83" points="498.77,-70.61 489.24,-65.98 493.8,-75.54 498.77,-70.61"/>
</g>
</g>
</svg>
