<?xml version="1.0" encoding="UTF-8" standalone="no"?>
<!DOCTYPE svg PUBLIC "-//W3C//DTD SVG 1.1//EN"
 "http://www.w3.org/Graphics/SVG/1.1/DTD/svg11.dtd">
<!-- Generated by graphviz version 12.0.0 (20240704.0754)
 -->
<!-- Pages: 1 -->
<svg width="1428pt" height="471pt"
 viewBox="0.00 0.00 1428.16 471.02" xmlns="http://www.w3.org/2000/svg" xmlns:xlink="http://www.w3.org/1999/xlink">
<g id="graph0" class="graph" transform="scale(1 1) rotate(0) translate(4 467.02)">
<polygon fill="white" stroke="none" points="-4,4 -4,-467.02 1424.16,-467.02 1424.16,4 -4,4"/>
<!-- Pellet Right -->
<g id="node1" class="node">
<title>Pellet Right</title>
<polygon fill="lightblue" stroke="black" points="595.5,-285.78 538.25,-285.78 538.25,-267.28 595.5,-267.28 595.5,-285.78"/>
<text text-anchor="middle" x="566.88" y="-273.23" font-family="Times,serif" font-size="9.00">Pellet Right</text>
</g>
<!-- Move Left -->
<g id="node19" class="node">
<title>Move Left</title>
<ellipse fill="lightblue" stroke="black" cx="830.88" cy="-161.16" rx="37.83" ry="37.83"/>
<text text-anchor="middle" x="830.88" y="-157.86" font-family="Times,serif" font-size="9.00">Move Left</text>
</g>
<!-- Pellet Right&#45;&gt;Move Left -->
<g id="edge1" class="edge">
<title>Pellet Right&#45;&gt;Move Left</title>
<path fill="none" stroke="green" stroke-width="0.21" d="M572.35,-267.04C578.78,-257.75 590.3,-243.12 603.88,-234.99 659.73,-201.53 684.25,-220 745.88,-198.99 759.72,-194.27 774.45,-188.26 787.69,-182.46"/>
<polygon fill="green" stroke="green" stroke-width="0.21" points="789.03,-185.7 796.75,-178.44 786.19,-179.3 789.03,-185.7"/>
</g>
<!-- Move Up -->
<g id="node20" class="node">
<title>Move Up</title>
<ellipse fill="lightblue" stroke="black" cx="284.88" cy="-43.66" rx="35.71" ry="35.71"/>
<text text-anchor="middle" x="284.88" y="-40.36" font-family="Times,serif" font-size="9.00">Move Up</text>
</g>
<!-- Pellet Right&#45;&gt;Move Up -->
<g id="edge2" class="edge">
<title>Pellet Right&#45;&gt;Move Up</title>
<path fill="none" stroke="red" stroke-width="0.31" stroke-dasharray="1,5" d="M561.59,-266.9C545.9,-241.89 497.2,-168.24 440.88,-123.33 406.45,-95.87 360.9,-74.26 327.92,-60.69"/>
<polygon fill="red" stroke="red" stroke-width="0.31" points="329.56,-57.58 318.97,-57.09 326.94,-64.07 329.56,-57.58"/>
</g>
<!-- Move Down -->
<g id="node21" class="node">
<title>Move Down</title>
<ellipse fill="lightblue" stroke="black" cx="934.88" cy="-43.66" rx="43.66" ry="43.66"/>
<text text-anchor="middle" x="934.88" y="-40.36" font-family="Times,serif" font-size="9.00">Move Down</text>
</g>
<!-- Pellet Right&#45;&gt;Move Down -->
<g id="edge3" class="edge">
<title>Pellet Right&#45;&gt;Move Down</title>
<path fill="none" stroke="red" stroke-width="0.18" stroke-dasharray="1,5" d="M570.35,-267.14C581.41,-241.49 618.36,-163.42 673.88,-123.33 736.36,-78.21 824.98,-58.66 881.19,-50.41"/>
<polygon fill="red" stroke="red" stroke-width="0.18" points="881.61,-53.88 891.03,-49.03 880.64,-46.95 881.61,-53.88"/>
</g>
<!-- 13032 -->
<g id="node26" class="node">
<title>13032</title>
<ellipse fill="white" stroke="black" cx="709.88" cy="-161.16" rx="27.22" ry="27.22"/>
<text text-anchor="middle" x="709.88" y="-157.86" font-family="Times,serif" font-size="9.00">13032</text>
</g>
<!-- Pellet Right&#45;&gt;13032 -->
<g id="edge43" class="edge">
<title>Pellet Right&#45;&gt;13032</title>
<path fill="none" stroke="red" stroke-width="0.18" d="M573.28,-267.02C580.16,-258.25 591.76,-244.56 603.88,-234.99 629.79,-214.52 641.98,-218.14 668.88,-198.99 673.67,-195.57 678.52,-191.68 683.14,-187.72"/>
<polygon fill="red" stroke="red" stroke-width="0.18" points="685.26,-190.52 690.42,-181.27 680.61,-185.28 685.26,-190.52"/>
</g>
<!-- Pellet Left -->
<g id="node2" class="node">
<title>Pellet Left</title>
<polygon fill="lightblue" stroke="black" points="561.88,-390.55 509.88,-390.55 509.88,-372.05 561.88,-372.05 561.88,-390.55"/>
<text text-anchor="middle" x="535.88" y="-378" font-family="Times,serif" font-size="9.00">Pellet Left</text>
</g>
<!-- Pellet Left&#45;&gt;Move Down -->
<g id="edge4" class="edge">
<title>Pellet Left&#45;&gt;Move Down</title>
<path fill="none" stroke="green" stroke-width="0.37" stroke-dasharray="1,5" d="M533.55,-371.87C527.68,-349.16 513.79,-285.05 528.88,-234.99 546.05,-177.98 554.05,-157.39 602.88,-123.33 687.44,-64.34 810.5,-49.2 880.6,-45.55"/>
<polygon fill="green" stroke="green" stroke-width="0.37" points="880.58,-49.06 890.41,-45.1 880.26,-42.06 880.58,-49.06"/>
</g>
<!-- 11840 -->
<g id="node22" class="node">
<title>11840</title>
<ellipse fill="white" stroke="black" cx="157.88" cy="-276.53" rx="27.22" ry="27.22"/>
<text text-anchor="middle" x="157.88" y="-273.23" font-family="Times,serif" font-size="9.00">11840</text>
</g>
<!-- Pellet Left&#45;&gt;11840 -->
<g id="edge41" class="edge">
<title>Pellet Left&#45;&gt;11840</title>
<path fill="none" stroke="green" stroke-width="0.25" d="M527.17,-371.76C520.53,-365.79 510.85,-358.16 500.88,-354.07 391.32,-309.13 349.83,-353.62 236.88,-318.07 220.59,-312.95 203.61,-304.67 189.59,-296.93"/>
<polygon fill="green" stroke="green" stroke-width="0.25" points="191.58,-294.04 181.16,-292.14 188.12,-300.12 191.58,-294.04"/>
</g>
<!-- 11751 -->
<g id="node25" class="node">
<title>11751</title>
<ellipse fill="white" stroke="black" cx="1067.88" cy="-161.16" rx="27.22" ry="27.22"/>
<text text-anchor="middle" x="1067.88" y="-157.86" font-family="Times,serif" font-size="9.00">11751</text>
</g>
<!-- Pellet Left&#45;&gt;11751 -->
<g id="edge37" class="edge">
<title>Pellet Left&#45;&gt;11751</title>
<path fill="none" stroke="green" stroke-width="0.31" d="M558.13,-371.63C574.42,-365.67 597.19,-358.13 617.88,-354.07 668.29,-344.18 1043.99,-355.79 1078.88,-318.07 1109.02,-285.48 1096.14,-230.86 1082.92,-195.68"/>
<polygon fill="green" stroke="green" stroke-width="0.31" points="1086.31,-194.76 1079.38,-186.74 1079.8,-197.33 1086.31,-194.76"/>
</g>
<!-- Pellet Up -->
<g id="node3" class="node">
<title>Pellet Up</title>
<polygon fill="lightblue" stroke="black" points="807.38,-390.55 758.38,-390.55 758.38,-372.05 807.38,-372.05 807.38,-390.55"/>
<text text-anchor="middle" x="782.88" y="-378" font-family="Times,serif" font-size="9.00">Pellet Up</text>
</g>
<!-- Move Right -->
<g id="node18" class="node">
<title>Move Right</title>
<ellipse fill="lightblue" stroke="black" cx="1205.88" cy="-276.53" rx="41.54" ry="41.54"/>
<text text-anchor="middle" x="1205.88" y="-273.23" font-family="Times,serif" font-size="9.00">Move Right</text>
</g>
<!-- Pellet Up&#45;&gt;Move Right -->
<g id="edge33" class="edge">
<title>Pellet Up&#45;&gt;Move Right</title>
<path fill="none" stroke="red" stroke-width="0.38" stroke-dasharray="1,5" d="M790.98,-371.71C797.18,-365.71 806.29,-358.08 815.88,-354.07 938.13,-302.92 983.95,-352.67 1111.88,-318.07 1127.92,-313.73 1144.78,-307.16 1159.73,-300.55"/>
<polygon fill="red" stroke="red" stroke-width="0.38" points="1161.06,-303.79 1168.72,-296.47 1158.17,-297.42 1161.06,-303.79"/>
</g>
<!-- Pellet Up&#45;&gt;Move Left -->
<g id="edge5" class="edge">
<title>Pellet Up&#45;&gt;Move Left</title>
<path fill="none" stroke="green" stroke-width="0.12" stroke-dasharray="1,5" d="M785.18,-371.87C788.42,-359.94 794.41,-337.42 798.88,-318.07 807.35,-281.39 815.87,-239.59 821.98,-208.51"/>
<polygon fill="green" stroke="green" stroke-width="0.12" points="825.36,-209.48 823.85,-198.99 818.49,-208.13 825.36,-209.48"/>
</g>
<!-- Pellet Up&#45;&gt;Move Up -->
<g id="edge6" class="edge">
<title>Pellet Up&#45;&gt;Move Up</title>
<path fill="none" stroke="green" stroke-width="0.38" d="M763.94,-371.66C750.3,-365.8 731.3,-358.36 713.88,-354.07 648.46,-337.99 462.79,-363.31 412.88,-318.07 347.2,-258.55 413.97,-200.22 369.88,-123.33 358.1,-102.79 339.18,-84.51 322.17,-70.75"/>
<polygon fill="green" stroke="green" stroke-width="0.38" points="324.5,-68.12 314.47,-64.72 320.18,-73.64 324.5,-68.12"/>
</g>
<!-- Pellet Down -->
<g id="node4" class="node">
<title>Pellet Down</title>
<polygon fill="lightblue" stroke="black" points="1401,-390.55 1340.75,-390.55 1340.75,-372.05 1401,-372.05 1401,-390.55"/>
<text text-anchor="middle" x="1370.88" y="-378" font-family="Times,serif" font-size="9.00">Pellet Down</text>
</g>
<!-- Pellet Down&#45;&gt;Move Right -->
<g id="edge7" class="edge">
<title>Pellet Down&#45;&gt;Move Right</title>
<path fill="none" stroke="red" stroke-width="0.16" stroke-dasharray="1,5" d="M1358.33,-371.65C1350.73,-366.46 1340.81,-359.79 1331.88,-354.07 1304.99,-336.88 1274.4,-318.28 1250.1,-303.72"/>
<polygon fill="red" stroke="red" stroke-width="0.16" points="1252.04,-300.8 1241.66,-298.67 1248.44,-306.81 1252.04,-300.8"/>
</g>
<!-- Pellet Down&#45;&gt;Move Left -->
<g id="edge8" class="edge">
<title>Pellet Down&#45;&gt;Move Left</title>
<path fill="none" stroke="red" stroke-width="0.67" stroke-dasharray="1,5" d="M1368.67,-371.59C1361.62,-345.78 1337.08,-269.36 1285.88,-234.99 1191.21,-171.44 1144.42,-217.27 1031.88,-198.99 979.43,-190.47 919.55,-179.31 878.89,-171.52"/>
<polygon fill="red" stroke="red" stroke-width="0.67" points="879.69,-168.11 869.21,-169.66 878.37,-174.98 879.69,-168.11"/>
</g>
<!-- Pellet Down&#45;&gt;Move Down -->
<g id="edge9" class="edge">
<title>Pellet Down&#45;&gt;Move Down</title>
<path fill="none" stroke="red" stroke-width="0.32" stroke-dasharray="1,5" d="M1369.88,-371.6C1366.91,-348.22 1356.7,-282.6 1330.88,-234.99 1299.25,-176.69 1288.34,-158.12 1231.88,-123.33 1155.52,-76.28 1051.34,-57.1 988.83,-49.48"/>
<polygon fill="red" stroke="red" stroke-width="0.32" points="989.6,-46.04 979.26,-48.36 988.79,-53 989.6,-46.04"/>
</g>
<!-- Power Pellet Right -->
<g id="node5" class="node">
<title>Power Pellet Right</title>
<polygon fill="lightblue" stroke="black" points="361.25,-170.41 278.5,-170.41 278.5,-151.91 361.25,-151.91 361.25,-170.41"/>
<text text-anchor="middle" x="319.88" y="-157.86" font-family="Times,serif" font-size="9.00">Power Pellet Right</text>
</g>
<!-- Power Pellet Right&#45;&gt;Move Up -->
<g id="edge10" class="edge">
<title>Power Pellet Right&#45;&gt;Move Up</title>
<path fill="none" stroke="red" stroke-width="0.38" stroke-dasharray="1,5" d="M317.24,-151.48C313.2,-138.13 305.19,-111.69 298.14,-88.45"/>
<polygon fill="red" stroke="red" stroke-width="0.38" points="301.51,-87.5 295.26,-78.94 294.81,-89.53 301.51,-87.5"/>
</g>
<!-- Power Pellet Left -->
<g id="node6" class="node">
<title>Power Pellet Left</title>
<polygon fill="lightblue" stroke="black" points="704.62,-390.55 627.12,-390.55 627.12,-372.05 704.62,-372.05 704.62,-390.55"/>
<text text-anchor="middle" x="665.88" y="-378" font-family="Times,serif" font-size="9.00">Power Pellet Left</text>
</g>
<!-- Power Pellet Left&#45;&gt;Move Right -->
<g id="edge11" class="edge">
<title>Power Pellet Left&#45;&gt;Move Right</title>
<path fill="none" stroke="red" stroke-width="0.18" stroke-dasharray="1,5" d="M689.08,-371.65C705.76,-365.78 728.92,-358.34 749.88,-354.07 908.31,-321.82 955.35,-358.57 1111.88,-318.07 1128.12,-313.87 1145.17,-307.25 1160.21,-300.58"/>
<polygon fill="red" stroke="red" stroke-width="0.18" points="1161.41,-303.88 1169.06,-296.54 1158.51,-297.51 1161.41,-303.88"/>
</g>
<!-- Power Pellet Left&#45;&gt;Move Up -->
<g id="edge12" class="edge">
<title>Power Pellet Left&#45;&gt;Move Up</title>
<path fill="none" stroke="green" stroke-width="0.34" d="M636.94,-371.6C618.2,-366.14 593.22,-359.2 570.88,-354.07 484.55,-334.27 451.96,-361.69 374.88,-318.07 313.46,-283.32 294.82,-264.99 269.88,-198.99 256.31,-163.09 262.5,-119.31 270.66,-87.56"/>
<polygon fill="green" stroke="green" stroke-width="0.34" points="273.96,-88.77 273.22,-78.2 267.21,-86.92 273.96,-88.77"/>
</g>
<!-- Power Pellet Up -->
<g id="node7" class="node">
<title>Power Pellet Up</title>
<polygon fill="lightblue" stroke="black" points="1323.12,-390.55 1248.62,-390.55 1248.62,-372.05 1323.12,-372.05 1323.12,-390.55"/>
<text text-anchor="middle" x="1285.88" y="-378" font-family="Times,serif" font-size="9.00">Power Pellet Up</text>
</g>
<!-- Power Pellet Up&#45;&gt;Move Right -->
<g id="edge13" class="edge">
<title>Power Pellet Up&#45;&gt;Move Right</title>
<path fill="none" stroke="green" stroke-width="0.74" d="M1279.33,-371.89C1270.23,-360.19 1253.13,-338.23 1237.72,-318.43"/>
<polygon fill="green" stroke="green" stroke-width="0.74" points="1240.61,-316.46 1231.71,-310.72 1235.09,-320.76 1240.61,-316.46"/>
</g>
<!-- Power Pellet Up&#45;&gt;Move Left -->
<g id="edge14" class="edge">
<title>Power Pellet Up&#45;&gt;Move Left</title>
<path fill="none" stroke="red" stroke-width="0.24" stroke-dasharray="1,5" d="M1287.13,-371.89C1290.33,-346.93 1295.98,-272.63 1256.88,-234.99 1220.39,-199.88 1081.78,-207.55 1031.88,-198.99 979.28,-189.96 919.11,-178.83 878.41,-171.18"/>
<polygon fill="red" stroke="red" stroke-width="0.24" points="879.08,-167.75 868.61,-169.33 877.79,-174.63 879.08,-167.75"/>
</g>
<!-- Power Pellet Up&#45;&gt;Move Down -->
<g id="edge15" class="edge">
<title>Power Pellet Up&#45;&gt;Move Down</title>
<path fill="none" stroke="red" stroke-width="0.39" stroke-dasharray="1,5" d="M1288.38,-371.82C1294.79,-348.46 1309.65,-281.77 1285.88,-234.99 1227.98,-121.06 1071.43,-72.51 988.34,-54.27"/>
<polygon fill="red" stroke="red" stroke-width="0.39" points="989.2,-50.87 978.69,-52.22 987.74,-57.72 989.2,-50.87"/>
</g>
<!-- Power Pellet Down -->
<g id="node8" class="node">
<title>Power Pellet Down</title>
<polygon fill="lightblue" stroke="black" points="910.75,-390.55 825,-390.55 825,-372.05 910.75,-372.05 910.75,-390.55"/>
<text text-anchor="middle" x="867.88" y="-378" font-family="Times,serif" font-size="9.00">Power Pellet Down</text>
</g>
<!-- Power Pellet Down&#45;&gt;Move Right -->
<g id="edge16" class="edge">
<title>Power Pellet Down&#45;&gt;Move Right</title>
<path fill="none" stroke="red" stroke-width="0.51" stroke-dasharray="1,5" d="M885.69,-371.61C897.89,-365.95 914.57,-358.77 929.88,-354.07 1008.7,-329.89 1033.13,-342.54 1111.88,-318.07 1127.61,-313.19 1144.27,-306.52 1159.13,-300.01"/>
<polygon fill="red" stroke="red" stroke-width="0.51" points="1160.2,-303.37 1167.9,-296.09 1157.34,-296.98 1160.2,-303.37"/>
</g>
<!-- Power Pellet Down&#45;&gt;Move Up -->
<g id="edge17" class="edge">
<title>Power Pellet Down&#45;&gt;Move Up</title>
<path fill="none" stroke="green" stroke-width="0.39" d="M854.15,-371.56C844.2,-365.64 830.19,-358.19 816.88,-354.07 693.63,-316 640.21,-383.22 528.88,-318.07 437.53,-264.63 464.46,-200.34 391.88,-123.33 371.86,-102.09 345.48,-82.63 323.93,-68.37"/>
<polygon fill="green" stroke="green" stroke-width="0.39" points="326.11,-65.62 315.82,-63.11 322.3,-71.49 326.11,-65.62"/>
</g>
<!-- Power Pellet Down&#45;&gt;Move Down -->
<g id="edge18" class="edge">
<title>Power Pellet Down&#45;&gt;Move Down</title>
<path fill="none" stroke="red" stroke-width="0.37" stroke-dasharray="1,5" d="M869.6,-371.66C877.19,-333.63 908,-179.3 924.43,-96.98"/>
<polygon fill="red" stroke="red" stroke-width="0.37" points="927.82,-97.87 926.35,-87.38 920.96,-96.5 927.82,-97.87"/>
</g>
<!-- Ghost Info Right -->
<g id="node9" class="node">
<title>Ghost Info Right</title>
<polygon fill="lightblue" stroke="black" points="177.25,-390.55 100.5,-390.55 100.5,-372.05 177.25,-372.05 177.25,-390.55"/>
<text text-anchor="middle" x="138.88" y="-378" font-family="Times,serif" font-size="9.00">Ghost Info Right</text>
</g>
<!-- Ghost Info Right&#45;&gt;Move Up -->
<g id="edge19" class="edge">
<title>Ghost Info Right&#45;&gt;Move Up</title>
<path fill="none" stroke="green" stroke-width="0.25" d="M134.26,-371.87C116.18,-337.6 53.76,-206.6 107.88,-123.33 136.74,-78.92 197.09,-59.38 239.26,-50.91"/>
<polygon fill="green" stroke="green" stroke-width="0.25" points="239.73,-54.39 248.91,-49.11 238.44,-47.51 239.73,-54.39"/>
</g>
<!-- Ghost Info Right&#45;&gt;11840 -->
<g id="edge38" class="edge">
<title>Ghost Info Right&#45;&gt;11840</title>
<path fill="none" stroke="red" stroke-width="0.48" d="M140.43,-371.89C142.75,-359.31 147.28,-334.86 151.13,-314"/>
<polygon fill="red" stroke="red" stroke-width="0.48" points="154.57,-314.68 152.94,-304.21 147.68,-313.41 154.57,-314.68"/>
</g>
<!-- Ghost Info Left -->
<g id="node10" class="node">
<title>Ghost Info Left</title>
<polygon fill="lightblue" stroke="black" points="684.62,-285.78 613.12,-285.78 613.12,-267.28 684.62,-267.28 684.62,-285.78"/>
<text text-anchor="middle" x="648.88" y="-273.23" font-family="Times,serif" font-size="9.00">Ghost Info Left</text>
</g>
<!-- Ghost Info Left&#45;&gt;Move Left -->
<g id="edge20" class="edge">
<title>Ghost Info Left&#45;&gt;Move Left</title>
<path fill="none" stroke="green" stroke-width="0.19" stroke-dasharray="1,5" d="M656.81,-266.85C665.3,-257.94 679.51,-244.14 693.88,-234.99 728.48,-212.95 743.04,-218.96 778.88,-198.99 783.41,-196.46 788.03,-193.62 792.55,-190.67"/>
<polygon fill="green" stroke="green" stroke-width="0.19" points="794.5,-193.58 800.83,-185.08 790.58,-187.78 794.5,-193.58"/>
</g>
<!-- Ghost Info Left&#45;&gt;Move Up -->
<g id="edge21" class="edge">
<title>Ghost Info Left&#45;&gt;Move Up</title>
<path fill="none" stroke="red" stroke-width="0.27" stroke-dasharray="1,5" d="M642.18,-267.08C621.83,-241.9 557.97,-166.5 489.88,-123.33 438.9,-91.02 372.58,-68.59 329.38,-56.17"/>
<polygon fill="red" stroke="red" stroke-width="0.27" points="330.43,-52.83 319.85,-53.49 328.53,-59.57 330.43,-52.83"/>
</g>
<!-- Ghost Info Left&#45;&gt;Move Down -->
<g id="edge34" class="edge">
<title>Ghost Info Left&#45;&gt;Move Down</title>
<path fill="none" stroke="red" stroke-width="0.29" stroke-dasharray="1,5" d="M657.88,-266.79C666.76,-258.33 680.85,-245.3 693.88,-234.99 715.92,-217.55 727.44,-220.21 745.88,-198.99 770.56,-170.58 757.46,-150.13 783.88,-123.33 811.7,-95.09 851.82,-74.84 883.71,-61.97"/>
<polygon fill="red" stroke="red" stroke-width="0.29" points="884.87,-65.28 892.91,-58.38 882.32,-58.76 884.87,-65.28"/>
</g>
<!-- Ghost Info Up -->
<g id="node11" class="node">
<title>Ghost Info Up</title>
<polygon fill="lightblue" stroke="black" points="1327.12,-463.02 1258.62,-463.02 1258.62,-444.52 1327.12,-444.52 1327.12,-463.02"/>
<text text-anchor="middle" x="1292.88" y="-450.47" font-family="Times,serif" font-size="9.00">Ghost Info Up</text>
</g>
<!-- Ghost Info Down -->
<g id="node12" class="node">
<title>Ghost Info Down</title>
<polygon fill="lightblue" stroke="black" points="1018.75,-390.55 939,-390.55 939,-372.05 1018.75,-372.05 1018.75,-390.55"/>
<text text-anchor="middle" x="978.88" y="-378" font-family="Times,serif" font-size="9.00">Ghost Info Down</text>
</g>
<!-- Ghost Info Down&#45;&gt;Move Right -->
<g id="edge22" class="edge">
<title>Ghost Info Down&#45;&gt;Move Right</title>
<path fill="none" stroke="green" stroke-width="0.47" d="M995.13,-371.59C1005.7,-366.14 1019.88,-359.19 1032.88,-354.07 1083.49,-334.13 1101.19,-342.35 1149.88,-318.07 1154.98,-315.53 1160.11,-312.53 1165.1,-309.34"/>
<polygon fill="green" stroke="green" stroke-width="0.47" points="1166.93,-312.32 1173.27,-303.83 1163.02,-306.52 1166.93,-312.32"/>
</g>
<!-- Ghost Info Down&#45;&gt;Move Left -->
<g id="edge23" class="edge">
<title>Ghost Info Down&#45;&gt;Move Left</title>
<path fill="none" stroke="red" stroke-width="0.32" stroke-dasharray="1,5" d="M968.96,-371.72C956.16,-360.32 933.64,-339.15 917.88,-318.07 891.18,-282.38 867.02,-237.59 850.97,-205.18"/>
<polygon fill="red" stroke="red" stroke-width="0.32" points="854.22,-203.85 846.68,-196.41 847.93,-206.93 854.22,-203.85"/>
</g>
<!-- Ghost Info Down&#45;&gt;Move Down -->
<g id="edge24" class="edge">
<title>Ghost Info Down&#45;&gt;Move Down</title>
<path fill="none" stroke="green" stroke-width="0.42" stroke-dasharray="1,5" d="M996.75,-371.55C1030.49,-355 1100.33,-320.53 1101.88,-318.07 1147.83,-244.72 1150.41,-196.31 1103.88,-123.33 1078.64,-83.75 1027.75,-63.77 988.38,-53.88"/>
<polygon fill="green" stroke="green" stroke-width="0.42" points="989.28,-50.5 978.74,-51.61 987.68,-57.31 989.28,-50.5"/>
</g>
<!-- 14243 -->
<g id="node24" class="node">
<title>14243</title>
<ellipse fill="white" stroke="black" cx="953.88" cy="-276.53" rx="27.22" ry="27.22"/>
<text text-anchor="middle" x="953.88" y="-273.23" font-family="Times,serif" font-size="9.00">14243</text>
</g>
<!-- Ghost Info Down&#45;&gt;14243 -->
<g id="edge55" class="edge">
<title>Ghost Info Down&#45;&gt;14243</title>
<path fill="none" stroke="red" stroke-width="0.34" d="M976.83,-371.89C973.74,-359.2 967.71,-334.41 962.61,-313.43"/>
<polygon fill="red" stroke="red" stroke-width="0.34" points="966.08,-312.89 960.31,-304 959.28,-314.54 966.08,-312.89"/>
</g>
<!-- PAC&#45;MAN Right -->
<g id="node13" class="node">
<title>PAC&#45;MAN Right</title>
<polygon fill="lightblue" stroke="black" points="1120.38,-390.55 1041.38,-390.55 1041.38,-372.05 1120.38,-372.05 1120.38,-390.55"/>
<text text-anchor="middle" x="1080.88" y="-378" font-family="Times,serif" font-size="9.00">PAC&#45;MAN Right</text>
</g>
<!-- PAC&#45;MAN Right&#45;&gt;Move Right -->
<g id="edge25" class="edge">
<title>PAC&#45;MAN Right&#45;&gt;Move Right</title>
<path fill="none" stroke="green" stroke-width="0.16" stroke-dasharray="1,5" d="M1091.1,-371.89C1107.4,-358.49 1140.09,-331.62 1166.43,-309.96"/>
<polygon fill="green" stroke="green" stroke-width="0.16" points="1168.33,-312.93 1173.83,-303.87 1163.88,-307.52 1168.33,-312.93"/>
</g>
<!-- PAC&#45;MAN Left -->
<g id="node14" class="node">
<title>PAC&#45;MAN Left</title>
<polygon fill="lightblue" stroke="black" points="1240.75,-463.02 1167,-463.02 1167,-444.52 1240.75,-444.52 1240.75,-463.02"/>
<text text-anchor="middle" x="1203.88" y="-450.47" font-family="Times,serif" font-size="9.00">PAC&#45;MAN Left</text>
</g>
<!-- PAC&#45;MAN Left&#45;&gt;Move Right -->
<g id="edge26" class="edge">
<title>PAC&#45;MAN Left&#45;&gt;Move Right</title>
<path fill="none" stroke="red" stroke-width="0.41" stroke-dasharray="1,5" d="M1193.72,-444.14C1184.97,-435.99 1172.98,-422.89 1167.88,-408.52 1159.77,-385.72 1162.35,-377.63 1167.88,-354.07 1170.44,-343.12 1174.82,-331.95 1179.71,-321.64"/>
<polygon fill="red" stroke="red" stroke-width="0.41" points="1182.69,-323.51 1184.04,-313 1176.43,-320.38 1182.69,-323.51"/>
</g>
<!-- PAC&#45;MAN Left&#45;&gt;Move Down -->
<g id="edge49" class="edge">
<title>PAC&#45;MAN Left&#45;&gt;Move Down</title>
<path fill="none" stroke="red" stroke-width="0.37" d="M1240.93,-446.05C1298.78,-435.39 1404.54,-415.12 1409.88,-408.52 1446.91,-362.68 1369.47,-254.62 1358.88,-234.99 1330.6,-182.6 1333.9,-157.11 1284.88,-123.33 1194.44,-61.02 1062.54,-47.23 989.2,-44.67"/>
<polygon fill="red" stroke="red" stroke-width="0.37" points="989.46,-41.18 979.37,-44.39 989.26,-48.18 989.46,-41.18"/>
</g>
<!-- 13380 -->
<g id="node23" class="node">
<title>13380</title>
<ellipse fill="white" stroke="black" cx="1203.88" cy="-381.3" rx="27.22" ry="27.22"/>
<text text-anchor="middle" x="1203.88" y="-378" font-family="Times,serif" font-size="9.00">13380</text>
</g>
<!-- PAC&#45;MAN Left&#45;&gt;13380 -->
<g id="edge47" class="edge">
<title>PAC&#45;MAN Left&#45;&gt;13380</title>
<path fill="none" stroke="green" stroke-width="0.12" d="M1203.88,-444.13C1203.88,-437.7 1203.88,-428.46 1203.88,-419.07"/>
<polygon fill="green" stroke="green" stroke-width="0.12" points="1207.38,-419.13 1203.88,-409.13 1200.38,-419.13 1207.38,-419.13"/>
</g>
<!-- PAC&#45;MAN Up -->
<g id="node15" class="node">
<title>PAC&#45;MAN Up</title>
<polygon fill="lightblue" stroke="black" points="1070.25,-285.78 999.5,-285.78 999.5,-267.28 1070.25,-267.28 1070.25,-285.78"/>
<text text-anchor="middle" x="1034.88" y="-273.23" font-family="Times,serif" font-size="9.00">PAC&#45;MAN Up</text>
</g>
<!-- PAC&#45;MAN Up&#45;&gt;Move Left -->
<g id="edge27" class="edge">
<title>PAC&#45;MAN Up&#45;&gt;Move Left</title>
<path fill="none" stroke="green" stroke-width="0.25" d="M1027.39,-266.96C1019.04,-257.88 1004.76,-243.69 989.88,-234.99 946.56,-209.67 927.6,-221.73 882.88,-198.99 878.25,-196.64 873.57,-193.91 869.02,-191.02"/>
<polygon fill="green" stroke="green" stroke-width="0.25" points="871.04,-188.17 860.77,-185.55 867.17,-194 871.04,-188.17"/>
</g>
<!-- PAC&#45;MAN Up&#45;&gt;Move Up -->
<g id="edge28" class="edge">
<title>PAC&#45;MAN Up&#45;&gt;Move Up</title>
<path fill="none" stroke="green" stroke-width="0.15" stroke-dasharray="1,5" d="M1027.28,-266.85C1001.18,-237.27 914.78,-141.19 877.88,-123.33 781.03,-76.44 452.45,-53.92 330.73,-47.04"/>
<polygon fill="green" stroke="green" stroke-width="0.15" points="331.02,-43.55 320.85,-46.49 330.64,-50.54 331.02,-43.55"/>
</g>
<!-- PAC&#45;MAN Up&#45;&gt;Move Down -->
<g id="edge29" class="edge">
<title>PAC&#45;MAN Up&#45;&gt;Move Down</title>
<path fill="none" stroke="green" stroke-width="0.54" d="M1031.2,-267.04C1019.23,-239.41 980.76,-150.6 956.21,-93.92"/>
<polygon fill="green" stroke="green" stroke-width="0.54" points="959.46,-92.61 952.27,-84.83 953.04,-95.4 959.46,-92.61"/>
</g>
<!-- PAC&#45;MAN Up&#45;&gt;11751 -->
<g id="edge35" class="edge">
<title>PAC&#45;MAN Up&#45;&gt;11751</title>
<path fill="none" stroke="red" stroke-width="0.11" d="M1037.36,-267.01C1041.62,-252.34 1050.59,-221.56 1057.7,-197.12"/>
<polygon fill="red" stroke="red" stroke-width="0.11" points="1061.03,-198.18 1060.47,-187.6 1054.31,-196.23 1061.03,-198.18"/>
</g>
<!-- PACM&#45;MAN Down -->
<g id="node16" class="node">
<title>PACM&#45;MAN Down</title>
<polygon fill="lightblue" stroke="black" points="492,-390.55 401.75,-390.55 401.75,-372.05 492,-372.05 492,-390.55"/>
<text text-anchor="middle" x="446.88" y="-378" font-family="Times,serif" font-size="9.00">PACM&#45;MAN Down</text>
</g>
<!-- PACM&#45;MAN Down&#45;&gt;Move Left -->
<g id="edge30" class="edge">
<title>PACM&#45;MAN Down&#45;&gt;Move Left</title>
<path fill="none" stroke="green" stroke-width="0.12" stroke-dasharray="1,5" d="M461.49,-371.62C472.07,-365.74 486.91,-358.3 500.88,-354.07 614.65,-319.68 672.26,-391.31 765.88,-318.07 797.17,-293.59 783.55,-271.65 798.88,-234.99 802.91,-225.33 807.36,-215.01 811.63,-205.26"/>
<polygon fill="green" stroke="green" stroke-width="0.12" points="814.75,-206.86 815.57,-196.3 808.34,-204.04 814.75,-206.86"/>
</g>
<!-- PACM&#45;MAN Down&#45;&gt;Move Up -->
<g id="edge31" class="edge">
<title>PACM&#45;MAN Down&#45;&gt;Move Up</title>
<path fill="none" stroke="red" stroke-width="0.3" d="M401.65,-373.31C346.05,-363.69 256.61,-344.5 236.88,-318.07 185.09,-248.72 213.46,-206.65 236.88,-123.33 241.09,-108.31 249.06,-93.32 257.31,-80.52"/>
<polygon fill="red" stroke="red" stroke-width="0.3" points="260.09,-82.66 262.77,-72.41 254.28,-78.75 260.09,-82.66"/>
</g>
<!-- PACM&#45;MAN Down&#45;&gt;Move Down -->
<g id="edge52" class="edge">
<title>PACM&#45;MAN Down&#45;&gt;Move Down</title>
<path fill="none" stroke="red" stroke-width="0.63" d="M447.01,-372.03C448.05,-336.12 457.25,-192.4 536.88,-123.33 587.59,-79.33 783.51,-57.24 880.23,-48.82"/>
<polygon fill="red" stroke="red" stroke-width="0.63" points="880.34,-52.33 890.01,-47.99 879.75,-45.35 880.34,-52.33"/>
</g>
<!-- PACM&#45;MAN Down&#45;&gt;11840 -->
<g id="edge42" class="edge">
<title>PACM&#45;MAN Down&#45;&gt;11840</title>
<path fill="none" stroke="red" stroke-width="0.31" d="M401.68,-376.21C349.84,-369.93 263.66,-354.55 198.88,-318.07 192.78,-314.64 186.96,-310.06 181.71,-305.22"/>
<polygon fill="red" stroke="red" stroke-width="0.31" points="184.37,-302.93 174.81,-298.37 179.44,-307.9 184.37,-302.93"/>
</g>
<!-- 13297 -->
<g id="node27" class="node">
<title>13297</title>
<ellipse fill="white" stroke="black" cx="729.88" cy="-276.53" rx="27.22" ry="27.22"/>
<text text-anchor="middle" x="729.88" y="-273.23" font-family="Times,serif" font-size="9.00">13297</text>
</g>
<!-- PACM&#45;MAN Down&#45;&gt;13297 -->
<g id="edge45" class="edge">
<title>PACM&#45;MAN Down&#45;&gt;13297</title>
<path fill="none" stroke="green" stroke-width="0.51" d="M462.01,-371.59C472.59,-365.84 487.21,-358.57 500.88,-354.07 583.75,-326.77 617.92,-361.02 693.88,-318.07 698.89,-315.24 703.57,-311.44 707.79,-307.29"/>
<polygon fill="green" stroke="green" stroke-width="0.51" points="710.13,-309.91 714.32,-300.18 704.98,-305.18 710.13,-309.91"/>
</g>
<!-- Power&#45;Up Time -->
<g id="node17" class="node">
<title>Power&#45;Up Time</title>
<polygon fill="lightblue" stroke="black" points="73.75,-390.55 0,-390.55 0,-372.05 73.75,-372.05 73.75,-390.55"/>
<text text-anchor="middle" x="36.88" y="-378" font-family="Times,serif" font-size="9.00">Power&#45;Up Time</text>
</g>
<!-- Power&#45;Up Time&#45;&gt;Move Up -->
<g id="edge32" class="edge">
<title>Power&#45;Up Time&#45;&gt;Move Up</title>
<path fill="none" stroke="green" stroke-width="0.46" stroke-dasharray="1,5" d="M35.71,-372.01C31.31,-337.21 18.96,-201.04 82.88,-123.33 121.58,-76.27 192.11,-57.27 238.74,-49.66"/>
<polygon fill="green" stroke="green" stroke-width="0.46" points="239.12,-53.15 248.48,-48.19 238.07,-46.22 239.12,-53.15"/>
</g>
<!-- Power&#45;Up Time&#45;&gt;11840 -->
<g id="edge51" class="edge">
<title>Power&#45;Up Time&#45;&gt;11840</title>
<path fill="none" stroke="red" stroke-width="0.45" d="M46.78,-371.89C64.68,-356.68 103.04,-324.1 129.64,-301.51"/>
<polygon fill="red" stroke="red" stroke-width="0.45" points="131.6,-304.43 136.96,-295.29 127.07,-299.1 131.6,-304.43"/>
</g>
<!-- Move Right&#45;&gt;11751 -->
<g id="edge50" class="edge">
<title>Move Right&#45;&gt;11751</title>
<path fill="none" stroke="red" stroke-width="0.36" d="M1174.22,-249.52C1150.83,-230.31 1119.25,-204.36 1096.59,-185.75"/>
<polygon fill="red" stroke="red" stroke-width="0.36" points="1099.05,-183.24 1089.1,-179.6 1094.61,-188.65 1099.05,-183.24"/>
</g>
<!-- 11840&#45;&gt;Move Up -->
<g id="edge39" class="edge">
<title>11840&#45;&gt;Move Up</title>
<path fill="none" stroke="red" stroke-width="0.46" stroke-dasharray="1,5" d="M142.89,-253.42C123.77,-222.18 96.11,-164.38 121.88,-123.33 147.49,-82.53 200.88,-62.39 239.59,-52.79"/>
<polygon fill="red" stroke="red" stroke-width="0.46" points="239.96,-56.3 248.9,-50.62 238.37,-49.48 239.96,-56.3"/>
</g>
<!-- 11840&#45;&gt;Move Down -->
<g id="edge40" class="edge">
<title>11840&#45;&gt;Move Down</title>
<path fill="none" stroke="green" stroke-width="1.06" d="M184.08,-268.11C224.88,-256.1 305.6,-230.55 369.88,-198.99 426.13,-171.37 430.45,-146.02 488.88,-123.33 623.06,-71.21 793.43,-53.41 879.6,-47.49"/>
<polygon fill="green" stroke="green" stroke-width="1.06" points="879.59,-51 889.34,-46.85 879.13,-44.01 879.59,-51"/>
</g>
<!-- 14103 -->
<g id="node28" class="node">
<title>14103</title>
<ellipse fill="white" stroke="black" cx="157.88" cy="-161.16" rx="27.22" ry="27.22"/>
<text text-anchor="middle" x="157.88" y="-157.86" font-family="Times,serif" font-size="9.00">14103</text>
</g>
<!-- 11840&#45;&gt;14103 -->
<g id="edge53" class="edge">
<title>11840&#45;&gt;14103</title>
<path fill="none" stroke="red" stroke-width="0.17" d="M157.88,-248.95C157.88,-233.88 157.88,-214.82 157.88,-198.4"/>
<polygon fill="red" stroke="red" stroke-width="0.17" points="161.38,-198.83 157.88,-188.83 154.38,-198.83 161.38,-198.83"/>
</g>
<!-- 13380&#45;&gt;Move Right -->
<g id="edge48" class="edge">
<title>13380&#45;&gt;Move Right</title>
<path fill="none" stroke="red" stroke-width="0.25" d="M1204.39,-353.83C1204.54,-346.05 1204.71,-337.27 1204.88,-328.5"/>
<polygon fill="red" stroke="red" stroke-width="0.25" points="1208.38,-328.71 1205.07,-318.65 1201.38,-328.58 1208.38,-328.71"/>
</g>
<!-- 14243&#45;&gt;Move Left -->
<g id="edge56" class="edge">
<title>14243&#45;&gt;Move Left</title>
<path fill="none" stroke="red" stroke-width="0.36" d="M934.89,-256.34C928.03,-249.52 920.18,-241.83 912.88,-234.99 898.11,-221.15 881.46,-206.24 867.05,-193.54"/>
<polygon fill="red" stroke="red" stroke-width="0.36" points="869.53,-191.06 859.7,-187.09 864.91,-196.32 869.53,-191.06"/>
</g>
<!-- 11751&#45;&gt;Move Down -->
<g id="edge36" class="edge">
<title>11751&#45;&gt;Move Down</title>
<path fill="none" stroke="red" stroke-width="0.24" stroke-dasharray="1,5" d="M1047.68,-142.62C1028.53,-125.99 999.21,-100.54 975.27,-79.74"/>
<polygon fill="red" stroke="red" stroke-width="0.24" points="977.82,-77.32 967.98,-73.41 973.23,-82.61 977.82,-77.32"/>
</g>
<!-- 13032&#45;&gt;Move Down -->
<g id="edge44" class="edge">
<title>13032&#45;&gt;Move Down</title>
<path fill="none" stroke="red" stroke-width="0.15" d="M728.42,-141.15C735.11,-134.95 742.97,-128.37 750.88,-123.33 792.99,-96.45 845.86,-74.95 884.1,-61.26"/>
<polygon fill="red" stroke="red" stroke-width="0.15" points="885.02,-64.65 893.29,-58.02 882.69,-58.05 885.02,-64.65"/>
</g>
<!-- 13297&#45;&gt;Move Left -->
<g id="edge46" class="edge">
<title>13297&#45;&gt;Move Left</title>
<path fill="none" stroke="green" stroke-width="0.13" d="M747.7,-255.52C762,-239.47 782.42,-216.55 799.45,-197.43"/>
<polygon fill="green" stroke="green" stroke-width="0.13" points="801.86,-199.99 805.9,-190.2 796.63,-195.33 801.86,-199.99"/>
</g>
<!-- 14103&#45;&gt;Move Up -->
<g id="edge54" class="edge">
<title>14103&#45;&gt;Move Up</title>
<path fill="none" stroke="green" stroke-width="0.53" stroke-dasharray="1,5" d="M177.72,-142.11C197.31,-124.29 227.66,-96.7 251.06,-75.41"/>
<polygon fill="green" stroke="green" stroke-width="0.53" points="253.38,-78.04 258.42,-68.72 248.67,-72.86 253.38,-78.04"/>
</g>
</g>
</svg>
