<?xml version="1.0" encoding="UTF-8" standalone="no"?>
<!DOCTYPE svg PUBLIC "-//W3C//DTD SVG 1.1//EN"
 "http://www.w3.org/Graphics/SVG/1.1/DTD/svg11.dtd">
<!-- Generated by graphviz version 12.0.0 (20240704.0754)
 -->
<!-- Pages: 1 -->
<svg width="1490pt" height="261pt"
 viewBox="0.00 0.00 1490.35 261.49" xmlns="http://www.w3.org/2000/svg" xmlns:xlink="http://www.w3.org/1999/xlink">
<g id="graph0" class="graph" transform="scale(1 1) rotate(0) translate(4 257.49)">
<polygon fill="white" stroke="none" points="-4,4 -4,-257.49 1486.35,-257.49 1486.35,4 -4,4"/>
<!-- Pellet Right -->
<g id="node1" class="node">
<title>Pellet Right</title>
<polygon fill="lightblue" stroke="black" points="215.85,-170.41 158.6,-170.41 158.6,-151.91 215.85,-151.91 215.85,-170.41"/>
<text text-anchor="middle" x="187.22" y="-157.86" font-family="Times,serif" font-size="9.00">Pellet Right</text>
</g>
<!-- Move Right -->
<g id="node18" class="node">
<title>Move Right</title>
<ellipse fill="lightblue" stroke="black" cx="187.22" cy="-43.66" rx="41.54" ry="41.54"/>
<text text-anchor="middle" x="187.22" y="-40.36" font-family="Times,serif" font-size="9.00">Move Right</text>
</g>
<!-- Pellet Right&#45;&gt;Move Right -->
<g id="edge1" class="edge">
<title>Pellet Right&#45;&gt;Move Right</title>
<path fill="none" stroke="red" stroke-width="0.14" stroke-dasharray="1,5" d="M187.22,-151.48C187.22,-139.48 187.22,-116.87 187.22,-95.54"/>
<polygon fill="red" stroke="red" stroke-width="0.14" points="190.72,-95.76 187.22,-85.76 183.72,-95.76 190.72,-95.76"/>
</g>
<!-- Pellet Left -->
<g id="node2" class="node">
<title>Pellet Left</title>
<polygon fill="lightblue" stroke="black" points="1093.22,-253.49 1041.22,-253.49 1041.22,-234.99 1093.22,-234.99 1093.22,-253.49"/>
<text text-anchor="middle" x="1067.22" y="-240.94" font-family="Times,serif" font-size="9.00">Pellet Left</text>
</g>
<!-- Pellet Up -->
<g id="node3" class="node">
<title>Pellet Up</title>
<polygon fill="lightblue" stroke="black" points="731.72,-253.49 682.72,-253.49 682.72,-234.99 731.72,-234.99 731.72,-253.49"/>
<text text-anchor="middle" x="707.22" y="-240.94" font-family="Times,serif" font-size="9.00">Pellet Up</text>
</g>
<!-- Move Down -->
<g id="node21" class="node">
<title>Move Down</title>
<ellipse fill="lightblue" stroke="black" cx="690.22" cy="-43.66" rx="43.66" ry="43.66"/>
<text text-anchor="middle" x="690.22" y="-40.36" font-family="Times,serif" font-size="9.00">Move Down</text>
</g>
<!-- Pellet Up&#45;&gt;Move Down -->
<g id="edge8" class="edge">
<title>Pellet Up&#45;&gt;Move Down</title>
<path fill="none" stroke="red" stroke-width="0.45" d="M707.58,-234.78C708.3,-215.14 709.51,-164.96 705.22,-123.33 704.34,-114.77 703.01,-105.76 701.5,-97.01"/>
<polygon fill="red" stroke="red" stroke-width="0.45" points="704.95,-96.39 699.71,-87.18 698.06,-97.65 704.95,-96.39"/>
</g>
<!-- 21159 -->
<g id="node22" class="node">
<title>21159</title>
<ellipse fill="white" stroke="black" cx="779.22" cy="-161.16" rx="27.22" ry="27.22"/>
<text text-anchor="middle" x="779.22" y="-157.86" font-family="Times,serif" font-size="9.00">21159</text>
</g>
<!-- Pellet Up&#45;&gt;21159 -->
<g id="edge12" class="edge">
<title>Pellet Up&#45;&gt;21159</title>
<path fill="none" stroke="green" stroke-width="0.43" d="M714.93,-234.56C724.32,-223.99 740.65,-205.59 754.5,-190"/>
<polygon fill="green" stroke="green" stroke-width="0.43" points="757.02,-192.44 761.04,-182.64 751.78,-187.79 757.02,-192.44"/>
</g>
<!-- Pellet Down -->
<g id="node4" class="node">
<title>Pellet Down</title>
<polygon fill="lightblue" stroke="black" points="373.35,-253.49 313.1,-253.49 313.1,-234.99 373.35,-234.99 373.35,-253.49"/>
<text text-anchor="middle" x="343.22" y="-240.94" font-family="Times,serif" font-size="9.00">Pellet Down</text>
</g>
<!-- Move Up -->
<g id="node20" class="node">
<title>Move Up</title>
<ellipse fill="lightblue" stroke="black" cx="380.22" cy="-161.16" rx="35.71" ry="35.71"/>
<text text-anchor="middle" x="380.22" y="-157.86" font-family="Times,serif" font-size="9.00">Move Up</text>
</g>
<!-- Pellet Down&#45;&gt;Move Up -->
<g id="edge10" class="edge">
<title>Pellet Down&#45;&gt;Move Up</title>
<path fill="none" stroke="green" stroke-width="0.75" d="M347.18,-234.56C350.59,-227.1 355.76,-215.76 361.01,-204.25"/>
<polygon fill="green" stroke="green" stroke-width="0.75" points="364.17,-205.78 365.13,-195.22 357.8,-202.87 364.17,-205.78"/>
</g>
<!-- Power Pellet Right -->
<g id="node5" class="node">
<title>Power Pellet Right</title>
<polygon fill="lightblue" stroke="black" points="1193.6,-253.49 1110.85,-253.49 1110.85,-234.99 1193.6,-234.99 1193.6,-253.49"/>
<text text-anchor="middle" x="1152.22" y="-240.94" font-family="Times,serif" font-size="9.00">Power Pellet Right</text>
</g>
<!-- Power Pellet Left -->
<g id="node6" class="node">
<title>Power Pellet Left</title>
<polygon fill="lightblue" stroke="black" points="468.97,-253.49 391.47,-253.49 391.47,-234.99 468.97,-234.99 468.97,-253.49"/>
<text text-anchor="middle" x="430.22" y="-240.94" font-family="Times,serif" font-size="9.00">Power Pellet Left</text>
</g>
<!-- Power Pellet Left&#45;&gt;Move Up -->
<g id="edge2" class="edge">
<title>Power Pellet Left&#45;&gt;Move Up</title>
<path fill="none" stroke="red" stroke-width="0.36" stroke-dasharray="1,5" d="M424.87,-234.56C419.8,-226.33 411.8,-213.36 403.97,-200.66"/>
<polygon fill="red" stroke="red" stroke-width="0.36" points="407.13,-199.12 398.9,-192.44 401.17,-202.79 407.13,-199.12"/>
</g>
<!-- Power Pellet Up -->
<g id="node7" class="node">
<title>Power Pellet Up</title>
<polygon fill="lightblue" stroke="black" points="919.47,-253.49 844.97,-253.49 844.97,-234.99 919.47,-234.99 919.47,-253.49"/>
<text text-anchor="middle" x="882.22" y="-240.94" font-family="Times,serif" font-size="9.00">Power Pellet Up</text>
</g>
<!-- Move Left -->
<g id="node19" class="node">
<title>Move Left</title>
<ellipse fill="lightblue" stroke="black" cx="882.22" cy="-161.16" rx="37.83" ry="37.83"/>
<text text-anchor="middle" x="882.22" y="-157.86" font-family="Times,serif" font-size="9.00">Move Left</text>
</g>
<!-- Power Pellet Up&#45;&gt;Move Left -->
<g id="edge3" class="edge">
<title>Power Pellet Up&#45;&gt;Move Left</title>
<path fill="none" stroke="green" stroke-width="0.12" stroke-dasharray="1,5" d="M882.22,-234.56C882.22,-228.25 882.22,-219.17 882.22,-209.55"/>
<polygon fill="green" stroke="green" stroke-width="0.12" points="885.72,-209.61 882.22,-199.61 878.72,-209.61 885.72,-209.61"/>
</g>
<!-- Power Pellet Down -->
<g id="node8" class="node">
<title>Power Pellet Down</title>
<polygon fill="lightblue" stroke="black" points="1023.1,-253.49 937.35,-253.49 937.35,-234.99 1023.1,-234.99 1023.1,-253.49"/>
<text text-anchor="middle" x="980.22" y="-240.94" font-family="Times,serif" font-size="9.00">Power Pellet Down</text>
</g>
<!-- Power Pellet Down&#45;&gt;Move Left -->
<g id="edge7" class="edge">
<title>Power Pellet Down&#45;&gt;Move Left</title>
<path fill="none" stroke="green" stroke-width="0.1" stroke-dasharray="1,5" d="M969.74,-234.56C957.55,-224.48 936.79,-207.3 918.54,-192.2"/>
<polygon fill="green" stroke="green" stroke-width="0.1" points="920.96,-189.66 911.02,-185.99 916.5,-195.06 920.96,-189.66"/>
</g>
<!-- Ghost Info Right -->
<g id="node9" class="node">
<title>Ghost Info Right</title>
<polygon fill="lightblue" stroke="black" points="826.6,-253.49 749.85,-253.49 749.85,-234.99 826.6,-234.99 826.6,-253.49"/>
<text text-anchor="middle" x="788.22" y="-240.94" font-family="Times,serif" font-size="9.00">Ghost Info Right</text>
</g>
<!-- Ghost Info Right&#45;&gt;21159 -->
<g id="edge15" class="edge">
<title>Ghost Info Right&#45;&gt;21159</title>
<path fill="none" stroke="green" stroke-width="0.13" d="M787.26,-234.56C786.3,-225.9 784.76,-212 783.28,-198.69"/>
<polygon fill="green" stroke="green" stroke-width="0.13" points="786.78,-198.47 782.19,-188.91 779.82,-199.24 786.78,-198.47"/>
</g>
<!-- Ghost Info Left -->
<g id="node10" class="node">
<title>Ghost Info Left</title>
<polygon fill="lightblue" stroke="black" points="294.97,-253.49 223.47,-253.49 223.47,-234.99 294.97,-234.99 294.97,-253.49"/>
<text text-anchor="middle" x="259.22" y="-240.94" font-family="Times,serif" font-size="9.00">Ghost Info Left</text>
</g>
<!-- Ghost Info Left&#45;&gt;Move Right -->
<g id="edge4" class="edge">
<title>Ghost Info Left&#45;&gt;Move Right</title>
<path fill="none" stroke="red" stroke-width="0.81" stroke-dasharray="1,5" d="M257.33,-234.64C252.82,-214.72 240.67,-163.98 225.22,-123.33 221.14,-112.58 216.15,-101.31 211.14,-90.76"/>
<polygon fill="red" stroke="red" stroke-width="0.81" points="214.4,-89.47 206.89,-82 208.1,-92.52 214.4,-89.47"/>
</g>
<!-- Ghost Info Left&#45;&gt;Move Up -->
<g id="edge5" class="edge">
<title>Ghost Info Left&#45;&gt;Move Up</title>
<path fill="none" stroke="red" stroke-width="0.25" stroke-dasharray="1,5" d="M275.69,-234.63C291.41,-226.2 315.53,-212.65 335.22,-198.99 338.68,-196.59 342.2,-194 345.67,-191.34"/>
<polygon fill="red" stroke="red" stroke-width="0.25" points="347.64,-194.24 353.34,-185.31 343.32,-188.74 347.64,-194.24"/>
</g>
<!-- 22346 -->
<g id="node23" class="node">
<title>22346</title>
<ellipse fill="white" stroke="black" cx="27.22" cy="-161.16" rx="27.22" ry="27.22"/>
<text text-anchor="middle" x="27.22" y="-157.86" font-family="Times,serif" font-size="9.00">22346</text>
</g>
<!-- Ghost Info Left&#45;&gt;22346 -->
<g id="edge16" class="edge">
<title>Ghost Info Left&#45;&gt;22346</title>
<path fill="none" stroke="green" stroke-width="0.28" d="M223.07,-241.21C182,-237.57 114.08,-227.4 63.22,-198.99 58.96,-196.61 54.88,-193.56 51.09,-190.25"/>
<polygon fill="green" stroke="green" stroke-width="0.28" points="53.71,-187.92 44.08,-183.5 48.85,-192.96 53.71,-187.92"/>
</g>
<!-- 23245 -->
<g id="node24" class="node">
<title>23245</title>
<ellipse fill="white" stroke="black" cx="461.22" cy="-161.16" rx="27.22" ry="27.22"/>
<text text-anchor="middle" x="461.22" y="-157.86" font-family="Times,serif" font-size="9.00">23245</text>
</g>
<!-- Ghost Info Left&#45;&gt;23245 -->
<g id="edge23" class="edge">
<title>Ghost Info Left&#45;&gt;23245</title>
<path fill="none" stroke="green" stroke-width="0.13" d="M295.43,-235.94C337.31,-227.09 403.33,-211.77 425.22,-198.99 429.44,-196.52 433.5,-193.44 437.27,-190.1"/>
<polygon fill="green" stroke="green" stroke-width="0.13" points="439.68,-192.64 444.43,-183.17 434.82,-187.61 439.68,-192.64"/>
</g>
<!-- 22906 -->
<g id="node26" class="node">
<title>22906</title>
<ellipse fill="white" stroke="black" cx="299.22" cy="-161.16" rx="27.22" ry="27.22"/>
<text text-anchor="middle" x="299.22" y="-157.86" font-family="Times,serif" font-size="9.00">22906</text>
</g>
<!-- Ghost Info Left&#45;&gt;22906 -->
<g id="edge20" class="edge">
<title>Ghost Info Left&#45;&gt;22906</title>
<path fill="none" stroke="green" stroke-width="0.6" d="M263.5,-234.56C268.12,-225.2 275.76,-209.72 282.79,-195.47"/>
<polygon fill="green" stroke="green" stroke-width="0.6" points="285.83,-197.22 287.12,-186.7 279.55,-194.12 285.83,-197.22"/>
</g>
<!-- Ghost Info Up -->
<g id="node11" class="node">
<title>Ghost Info Up</title>
<polygon fill="lightblue" stroke="black" points="140.47,-170.41 71.97,-170.41 71.97,-151.91 140.47,-151.91 140.47,-170.41"/>
<text text-anchor="middle" x="106.22" y="-157.86" font-family="Times,serif" font-size="9.00">Ghost Info Up</text>
</g>
<!-- Ghost Info Up&#45;&gt;Move Right -->
<g id="edge6" class="edge">
<title>Ghost Info Up&#45;&gt;Move Right</title>
<path fill="none" stroke="green" stroke-width="0.24" stroke-dasharray="1,5" d="M112.31,-151.48C121.92,-137.77 141.22,-110.25 157.83,-86.58"/>
<polygon fill="green" stroke="green" stroke-width="0.24" points="160.48,-88.89 163.36,-78.7 154.75,-84.87 160.48,-88.89"/>
</g>
<!-- Ghost Info Down -->
<g id="node12" class="node">
<title>Ghost Info Down</title>
<polygon fill="lightblue" stroke="black" points="659.1,-253.49 579.35,-253.49 579.35,-234.99 659.1,-234.99 659.1,-253.49"/>
<text text-anchor="middle" x="619.22" y="-240.94" font-family="Times,serif" font-size="9.00">Ghost Info Down</text>
</g>
<!-- Ghost Info Down&#45;&gt;Move Right -->
<g id="edge14" class="edge">
<title>Ghost Info Down&#45;&gt;Move Right</title>
<path fill="none" stroke="green" stroke-width="0.23" stroke-dasharray="1,5" d="M616.83,-234.83C609.65,-210.11 587.58,-138.46 569.22,-123.33 519.36,-82.22 331.45,-58.68 239.1,-49.36"/>
<polygon fill="green" stroke="green" stroke-width="0.23" points="239.5,-45.89 229.21,-48.38 238.81,-52.85 239.5,-45.89"/>
</g>
<!-- Ghost Info Down&#45;&gt;Move Left -->
<g id="edge17" class="edge">
<title>Ghost Info Down&#45;&gt;Move Left</title>
<path fill="none" stroke="green" stroke-width="1.04" d="M659.2,-235.59C707.88,-226.04 787.09,-209.65 815.22,-198.99 823.6,-195.81 832.22,-191.75 840.37,-187.49"/>
<polygon fill="green" stroke="green" stroke-width="1.04" points="841.89,-190.65 849.01,-182.79 838.55,-184.5 841.89,-190.65"/>
</g>
<!-- Ghost Info Down&#45;&gt;23245 -->
<g id="edge22" class="edge">
<title>Ghost Info Down&#45;&gt;23245</title>
<path fill="none" stroke="green" stroke-width="0.23" d="M582.29,-234.51C557.01,-227.46 523.46,-215.89 497.22,-198.99 493.12,-196.34 489.13,-193.15 485.38,-189.76"/>
<polygon fill="green" stroke="green" stroke-width="0.23" points="487.95,-187.37 478.35,-182.89 483.06,-192.38 487.95,-187.37"/>
</g>
<!-- PAC&#45;MAN Right -->
<g id="node13" class="node">
<title>PAC&#45;MAN Right</title>
<polygon fill="lightblue" stroke="black" points="695.72,-170.41 616.72,-170.41 616.72,-151.91 695.72,-151.91 695.72,-170.41"/>
<text text-anchor="middle" x="656.22" y="-157.86" font-family="Times,serif" font-size="9.00">PAC&#45;MAN Right</text>
</g>
<!-- PAC&#45;MAN Right&#45;&gt;Move Down -->
<g id="edge11" class="edge">
<title>PAC&#45;MAN Right&#45;&gt;Move Down</title>
<path fill="none" stroke="green" stroke-width="0.17" d="M658.78,-151.48C662.3,-139.51 668.93,-117.01 675.19,-95.74"/>
<polygon fill="green" stroke="green" stroke-width="0.17" points="678.49,-96.93 677.95,-86.34 671.77,-94.95 678.49,-96.93"/>
</g>
<!-- PAC&#45;MAN Left -->
<g id="node14" class="node">
<title>PAC&#45;MAN Left</title>
<polygon fill="lightblue" stroke="black" points="1285.1,-253.49 1211.35,-253.49 1211.35,-234.99 1285.1,-234.99 1285.1,-253.49"/>
<text text-anchor="middle" x="1248.22" y="-240.94" font-family="Times,serif" font-size="9.00">PAC&#45;MAN Left</text>
</g>
<!-- PAC&#45;MAN Up -->
<g id="node15" class="node">
<title>PAC&#45;MAN Up</title>
<polygon fill="lightblue" stroke="black" points="1373.6,-253.49 1302.85,-253.49 1302.85,-234.99 1373.6,-234.99 1373.6,-253.49"/>
<text text-anchor="middle" x="1338.22" y="-240.94" font-family="Times,serif" font-size="9.00">PAC&#45;MAN Up</text>
</g>
<!-- PACM&#45;MAN Down -->
<g id="node16" class="node">
<title>PACM&#45;MAN Down</title>
<polygon fill="lightblue" stroke="black" points="1482.35,-253.49 1392.1,-253.49 1392.1,-234.99 1482.35,-234.99 1482.35,-253.49"/>
<text text-anchor="middle" x="1437.22" y="-240.94" font-family="Times,serif" font-size="9.00">PACM&#45;MAN Down</text>
</g>
<!-- Power&#45;Up Time -->
<g id="node17" class="node">
<title>Power&#45;Up Time</title>
<polygon fill="lightblue" stroke="black" points="561.1,-253.49 487.35,-253.49 487.35,-234.99 561.1,-234.99 561.1,-253.49"/>
<text text-anchor="middle" x="524.22" y="-240.94" font-family="Times,serif" font-size="9.00">Power&#45;Up Time</text>
</g>
<!-- Power&#45;Up Time&#45;&gt;Move Up -->
<g id="edge9" class="edge">
<title>Power&#45;Up Time&#45;&gt;Move Up</title>
<path fill="none" stroke="green" stroke-width="0.33" d="M500.13,-234.55C479.51,-226.63 449.41,-213.92 425.22,-198.99 421.75,-196.84 418.25,-194.45 414.81,-191.95"/>
<polygon fill="green" stroke="green" stroke-width="0.33" points="416.94,-189.18 406.87,-185.89 412.69,-194.74 416.94,-189.18"/>
</g>
<!-- 22706 -->
<g id="node25" class="node">
<title>22706</title>
<ellipse fill="white" stroke="black" cx="533.22" cy="-161.16" rx="27.22" ry="27.22"/>
<text text-anchor="middle" x="533.22" y="-157.86" font-family="Times,serif" font-size="9.00">22706</text>
</g>
<!-- Power&#45;Up Time&#45;&gt;22706 -->
<g id="edge18" class="edge">
<title>Power&#45;Up Time&#45;&gt;22706</title>
<path fill="none" stroke="red" stroke-width="0.1" d="M525.19,-234.56C526.15,-225.9 527.69,-212 529.17,-198.69"/>
<polygon fill="red" stroke="red" stroke-width="0.1" points="532.63,-199.2 530.26,-188.87 525.68,-198.42 532.63,-199.2"/>
</g>
<!-- 21159&#45;&gt;Move Down -->
<g id="edge13" class="edge">
<title>21159&#45;&gt;Move Down</title>
<path fill="none" stroke="green" stroke-width="0.37" d="M762.9,-138.97C751.67,-124.4 736.38,-104.56 722.72,-86.83"/>
<polygon fill="green" stroke="green" stroke-width="0.37" points="725.79,-85.09 716.92,-79.3 720.25,-89.36 725.79,-85.09"/>
</g>
<!-- 22346&#45;&gt;Move Right -->
<g id="edge21" class="edge">
<title>22346&#45;&gt;Move Right</title>
<path fill="none" stroke="red" stroke-width="0.18" d="M45.12,-140.17C50.67,-134.45 56.97,-128.39 63.22,-123.33 87.92,-103.31 117.98,-84.13 142.31,-69.72"/>
<polygon fill="red" stroke="red" stroke-width="0.18" points="143.9,-72.85 150.76,-64.78 140.37,-66.81 143.9,-72.85"/>
</g>
<!-- 22706&#45;&gt;Move Down -->
<g id="edge19" class="edge">
<title>22706&#45;&gt;Move Down</title>
<path fill="none" stroke="green" stroke-width="0.21" d="M555.05,-144.1C578.77,-126.65 617.28,-98.33 647.13,-76.36"/>
<polygon fill="green" stroke="green" stroke-width="0.21" points="649.06,-79.29 655.05,-70.54 644.92,-73.65 649.06,-79.29"/>
</g>
</g>
</svg>
