<?xml version="1.0" encoding="UTF-8" standalone="no"?>
<!DOCTYPE svg PUBLIC "-//W3C//DTD SVG 1.1//EN"
 "http://www.w3.org/Graphics/SVG/1.1/DTD/svg11.dtd">
<!-- Generated by graphviz version 12.0.0 (20240704.0754)
 -->
<!-- Pages: 1 -->
<svg width="1696pt" height="240pt"
 viewBox="0.00 0.00 1695.62 240.27" xmlns="http://www.w3.org/2000/svg" xmlns:xlink="http://www.w3.org/1999/xlink">
<g id="graph0" class="graph" transform="scale(1 1) rotate(0) translate(4 236.27)">
<polygon fill="white" stroke="none" points="-4,4 -4,-236.27 1691.62,-236.27 1691.62,4 -4,4"/>
<!-- Pellet Right -->
<g id="node1" class="node">
<title>Pellet Right</title>
<polygon fill="lightblue" stroke="black" points="555.38,-159.8 498.12,-159.8 498.12,-141.3 555.38,-141.3 555.38,-159.8"/>
<text text-anchor="middle" x="526.75" y="-147.25" font-family="Times,serif" font-size="9.00">Pellet Right</text>
</g>
<!-- Move Right -->
<g id="node18" class="node">
<title>Move Right</title>
<ellipse fill="lightblue" stroke="black" cx="215.75" cy="-43.66" rx="41.54" ry="41.54"/>
<text text-anchor="middle" x="215.75" y="-40.36" font-family="Times,serif" font-size="9.00">Move Right</text>
</g>
<!-- Pellet Right&#45;&gt;Move Right -->
<g id="edge17" class="edge">
<title>Pellet Right&#45;&gt;Move Right</title>
<path fill="none" stroke="green" stroke-width="0.29" stroke-dasharray="1,5" d="M501.78,-140.87C486.96,-135.74 467.8,-129.12 450.75,-123.33 386.67,-101.55 312.61,-76.83 265.03,-61.01"/>
<polygon fill="green" stroke="green" stroke-width="0.29" points="266.29,-57.74 255.7,-57.91 264.08,-64.39 266.29,-57.74"/>
</g>
<!-- Move Down -->
<g id="node21" class="node">
<title>Move Down</title>
<ellipse fill="lightblue" stroke="black" cx="831.75" cy="-43.66" rx="43.66" ry="43.66"/>
<text text-anchor="middle" x="831.75" y="-40.36" font-family="Times,serif" font-size="9.00">Move Down</text>
</g>
<!-- Pellet Right&#45;&gt;Move Down -->
<g id="edge1" class="edge">
<title>Pellet Right&#45;&gt;Move Down</title>
<path fill="none" stroke="green" stroke-width="0.47" stroke-dasharray="1,5" d="M537.16,-141.01C544.5,-135.34 554.77,-128.09 564.75,-123.33 635.22,-89.7 723.1,-67.18 778.34,-55.15"/>
<polygon fill="green" stroke="green" stroke-width="0.47" points="778.87,-58.61 787.91,-53.1 777.4,-51.77 778.87,-58.61"/>
</g>
<!-- Pellet Left -->
<g id="node2" class="node">
<title>Pellet Left</title>
<polygon fill="lightblue" stroke="black" points="1489.75,-232.27 1437.75,-232.27 1437.75,-213.77 1489.75,-213.77 1489.75,-232.27"/>
<text text-anchor="middle" x="1463.75" y="-219.72" font-family="Times,serif" font-size="9.00">Pellet Left</text>
</g>
<!-- Move Left -->
<g id="node19" class="node">
<title>Move Left</title>
<ellipse fill="lightblue" stroke="black" cx="1289.75" cy="-43.66" rx="37.83" ry="37.83"/>
<text text-anchor="middle" x="1289.75" y="-40.36" font-family="Times,serif" font-size="9.00">Move Left</text>
</g>
<!-- Pellet Left&#45;&gt;Move Left -->
<g id="edge30" class="edge">
<title>Pellet Left&#45;&gt;Move Left</title>
<path fill="none" stroke="green" stroke-width="0.32" d="M1467.81,-213.5C1475.86,-195.26 1491.49,-151.78 1472.75,-123.33 1442.99,-78.14 1381.25,-58.81 1337.74,-50.6"/>
<polygon fill="green" stroke="green" stroke-width="0.32" points="1338.59,-47.2 1328.13,-48.92 1337.38,-54.09 1338.59,-47.2"/>
</g>
<!-- 16896 -->
<g id="node22" class="node">
<title>16896</title>
<ellipse fill="white" stroke="black" cx="1436.75" cy="-150.55" rx="27.22" ry="27.22"/>
<text text-anchor="middle" x="1436.75" y="-147.25" font-family="Times,serif" font-size="9.00">16896</text>
</g>
<!-- Pellet Left&#45;&gt;16896 -->
<g id="edge34" class="edge">
<title>Pellet Left&#45;&gt;16896</title>
<path fill="none" stroke="red" stroke-width="0.17" d="M1460.44,-213.38C1457.74,-206.35 1453.75,-195.93 1449.81,-185.65"/>
<polygon fill="red" stroke="red" stroke-width="0.17" points="1453.18,-184.66 1446.34,-176.57 1446.65,-187.16 1453.18,-184.66"/>
</g>
<!-- Pellet Up -->
<g id="node3" class="node">
<title>Pellet Up</title>
<polygon fill="lightblue" stroke="black" points="709.25,-159.8 660.25,-159.8 660.25,-141.3 709.25,-141.3 709.25,-159.8"/>
<text text-anchor="middle" x="684.75" y="-147.25" font-family="Times,serif" font-size="9.00">Pellet Up</text>
</g>
<!-- Move Up -->
<g id="node20" class="node">
<title>Move Up</title>
<ellipse fill="lightblue" stroke="black" cx="469.75" cy="-43.66" rx="35.71" ry="35.71"/>
<text text-anchor="middle" x="469.75" y="-40.36" font-family="Times,serif" font-size="9.00">Move Up</text>
</g>
<!-- Pellet Up&#45;&gt;Move Up -->
<g id="edge2" class="edge">
<title>Pellet Up&#45;&gt;Move Up</title>
<path fill="none" stroke="red" stroke-width="0.41" stroke-dasharray="1,5" d="M674.8,-140.82C668.26,-135.35 659.35,-128.41 650.75,-123.33 605.93,-96.86 550.56,-74.1 512.95,-59.97"/>
<polygon fill="red" stroke="red" stroke-width="0.41" points="514.49,-56.81 503.9,-56.61 512.05,-63.37 514.49,-56.81"/>
</g>
<!-- Pellet Up&#45;&gt;Move Down -->
<g id="edge26" class="edge">
<title>Pellet Up&#45;&gt;Move Down</title>
<path fill="none" stroke="red" stroke-width="0.34" d="M695.67,-140.91C702.29,-135.73 710.93,-129.06 718.75,-123.33 741.12,-106.93 766.42,-89.24 787.4,-74.8"/>
<polygon fill="red" stroke="red" stroke-width="0.34" points="789.12,-77.86 795.38,-69.32 785.15,-72.09 789.12,-77.86"/>
</g>
<!-- Pellet Down -->
<g id="node4" class="node">
<title>Pellet Down</title>
<polygon fill="lightblue" stroke="black" points="919.88,-159.8 859.62,-159.8 859.62,-141.3 919.88,-141.3 919.88,-159.8"/>
<text text-anchor="middle" x="889.75" y="-147.25" font-family="Times,serif" font-size="9.00">Pellet Down</text>
</g>
<!-- Pellet Down&#45;&gt;Move Down -->
<g id="edge21" class="edge">
<title>Pellet Down&#45;&gt;Move Down</title>
<path fill="none" stroke="red" stroke-width="0.12" d="M885,-140.97C878.93,-129.99 867.95,-110.13 857.53,-91.28"/>
<polygon fill="red" stroke="red" stroke-width="0.12" points="860.63,-89.67 852.73,-82.61 854.51,-93.05 860.63,-89.67"/>
</g>
<!-- Power Pellet Right -->
<g id="node5" class="node">
<title>Power Pellet Right</title>
<polygon fill="lightblue" stroke="black" points="1590.12,-232.27 1507.38,-232.27 1507.38,-213.77 1590.12,-213.77 1590.12,-232.27"/>
<text text-anchor="middle" x="1548.75" y="-219.72" font-family="Times,serif" font-size="9.00">Power Pellet Right</text>
</g>
<!-- Power Pellet Left -->
<g id="node6" class="node">
<title>Power Pellet Left</title>
<polygon fill="lightblue" stroke="black" points="77.5,-159.8 0,-159.8 0,-141.3 77.5,-141.3 77.5,-159.8"/>
<text text-anchor="middle" x="38.75" y="-147.25" font-family="Times,serif" font-size="9.00">Power Pellet Left</text>
</g>
<!-- Power Pellet Left&#45;&gt;Move Right -->
<g id="edge19" class="edge">
<title>Power Pellet Left&#45;&gt;Move Right</title>
<path fill="none" stroke="red" stroke-width="0.13" stroke-dasharray="1,5" d="M53.23,-140.97C78.8,-125.82 132.86,-93.78 171.62,-70.82"/>
<polygon fill="red" stroke="red" stroke-width="0.13" points="173.14,-73.98 179.96,-65.87 169.57,-67.96 173.14,-73.98"/>
</g>
<!-- Power Pellet Up -->
<g id="node7" class="node">
<title>Power Pellet Up</title>
<polygon fill="lightblue" stroke="black" points="1262,-159.8 1187.5,-159.8 1187.5,-141.3 1262,-141.3 1262,-159.8"/>
<text text-anchor="middle" x="1224.75" y="-147.25" font-family="Times,serif" font-size="9.00">Power Pellet Up</text>
</g>
<!-- Power Pellet Up&#45;&gt;Move Left -->
<g id="edge20" class="edge">
<title>Power Pellet Up&#45;&gt;Move Left</title>
<path fill="none" stroke="green" stroke-width="0.58" stroke-dasharray="1,5" d="M1230.07,-140.97C1237.59,-128.83 1251.83,-105.86 1264.51,-85.39"/>
<polygon fill="green" stroke="green" stroke-width="0.58" points="1267.45,-87.3 1269.74,-76.95 1261.5,-83.61 1267.45,-87.3"/>
</g>
<!-- Power Pellet Down -->
<g id="node8" class="node">
<title>Power Pellet Down</title>
<polygon fill="lightblue" stroke="black" points="1023.62,-159.8 937.88,-159.8 937.88,-141.3 1023.62,-141.3 1023.62,-159.8"/>
<text text-anchor="middle" x="980.75" y="-147.25" font-family="Times,serif" font-size="9.00">Power Pellet Down</text>
</g>
<!-- Power Pellet Down&#45;&gt;Move Down -->
<g id="edge23" class="edge">
<title>Power Pellet Down&#45;&gt;Move Down</title>
<path fill="none" stroke="green" stroke-width="0.26" d="M968.56,-140.97C948.46,-126.82 907.43,-97.94 875.52,-75.47"/>
<polygon fill="green" stroke="green" stroke-width="0.26" points="877.72,-72.74 867.53,-69.85 873.69,-78.47 877.72,-72.74"/>
</g>
<!-- Ghost Info Right -->
<g id="node9" class="node">
<title>Ghost Info Right</title>
<polygon fill="lightblue" stroke="black" points="804.12,-159.8 727.38,-159.8 727.38,-141.3 804.12,-141.3 804.12,-159.8"/>
<text text-anchor="middle" x="765.75" y="-147.25" font-family="Times,serif" font-size="9.00">Ghost Info Right</text>
</g>
<!-- Ghost Info Right&#45;&gt;Move Up -->
<g id="edge3" class="edge">
<title>Ghost Info Right&#45;&gt;Move Up</title>
<path fill="none" stroke="red" stroke-width="0.68" stroke-dasharray="1,5" d="M752.14,-140.99C742.95,-135.45 730.42,-128.36 718.75,-123.33 649.72,-93.54 565.64,-69.33 514.97,-55.98"/>
<polygon fill="red" stroke="red" stroke-width="0.68" points="515.94,-52.61 505.38,-53.48 514.17,-59.39 515.94,-52.61"/>
</g>
<!-- Ghost Info Right&#45;&gt;Move Down -->
<g id="edge4" class="edge">
<title>Ghost Info Right&#45;&gt;Move Down</title>
<path fill="none" stroke="green" stroke-width="0.42" d="M771.15,-140.97C778.22,-129.73 791.14,-109.2 803.24,-89.98"/>
<polygon fill="green" stroke="green" stroke-width="0.42" points="806.2,-91.85 808.56,-81.52 800.27,-88.12 806.2,-91.85"/>
</g>
<!-- Ghost Info Left -->
<g id="node10" class="node">
<title>Ghost Info Left</title>
<polygon fill="lightblue" stroke="black" points="315.5,-159.8 244,-159.8 244,-141.3 315.5,-141.3 315.5,-159.8"/>
<text text-anchor="middle" x="279.75" y="-147.25" font-family="Times,serif" font-size="9.00">Ghost Info Left</text>
</g>
<!-- Ghost Info Left&#45;&gt;Move Right -->
<g id="edge5" class="edge">
<title>Ghost Info Left&#45;&gt;Move Right</title>
<path fill="none" stroke="green" stroke-width="0.45" stroke-dasharray="1,5" d="M274.51,-140.97C267.47,-129.43 254.45,-108.08 242.44,-88.41"/>
<polygon fill="green" stroke="green" stroke-width="0.45" points="245.58,-86.83 237.38,-80.12 239.6,-90.48 245.58,-86.83"/>
</g>
<!-- Ghost Info Left&#45;&gt;Move Up -->
<g id="edge6" class="edge">
<title>Ghost Info Left&#45;&gt;Move Up</title>
<path fill="none" stroke="green" stroke-width="0.78" d="M295.3,-140.97C324.26,-124.98 387.32,-90.17 429.16,-67.07"/>
<polygon fill="green" stroke="green" stroke-width="0.78" points="430.68,-70.23 437.74,-62.33 427.29,-64.1 430.68,-70.23"/>
</g>
<!-- Ghost Info Left&#45;&gt;Move Down -->
<g id="edge25" class="edge">
<title>Ghost Info Left&#45;&gt;Move Down</title>
<path fill="none" stroke="red" stroke-width="0.27" d="M304.19,-140.84C320.59,-135.24 342.77,-128.14 362.75,-123.33 511.43,-87.56 690.47,-62.37 778.12,-51.18"/>
<polygon fill="red" stroke="red" stroke-width="0.27" points="778.46,-54.66 787.94,-49.93 777.58,-47.72 778.46,-54.66"/>
</g>
<!-- Ghost Info Up -->
<g id="node11" class="node">
<title>Ghost Info Up</title>
<polygon fill="lightblue" stroke="black" points="642,-159.8 573.5,-159.8 573.5,-141.3 642,-141.3 642,-159.8"/>
<text text-anchor="middle" x="607.75" y="-147.25" font-family="Times,serif" font-size="9.00">Ghost Info Up</text>
</g>
<!-- Ghost Info Up&#45;&gt;Move Right -->
<g id="edge7" class="edge">
<title>Ghost Info Up&#45;&gt;Move Right</title>
<path fill="none" stroke="green" stroke-width="0.12" stroke-dasharray="1,5" d="M595.89,-140.86C587.56,-135.12 575.93,-127.86 564.75,-123.33 537.25,-112.19 356.35,-73.85 266.38,-55.12"/>
<polygon fill="green" stroke="green" stroke-width="0.12" points="267.34,-51.75 256.84,-53.14 265.92,-58.6 267.34,-51.75"/>
</g>
<!-- Ghost Info Up&#45;&gt;Move Left -->
<g id="edge8" class="edge">
<title>Ghost Info Up&#45;&gt;Move Left</title>
<path fill="none" stroke="green" stroke-width="0.25" d="M619.05,-141.02C627.57,-135.04 639.8,-127.42 651.75,-123.33 707.31,-104.29 1102.92,-63.37 1241.75,-49.43"/>
<polygon fill="green" stroke="green" stroke-width="0.25" points="1242.08,-52.91 1251.68,-48.43 1241.38,-45.95 1242.08,-52.91"/>
</g>
<!-- Ghost Info Up&#45;&gt;Move Up -->
<g id="edge9" class="edge">
<title>Ghost Info Up&#45;&gt;Move Up</title>
<path fill="none" stroke="green" stroke-width="0.34" d="M596.46,-140.97C576.98,-126.17 536.28,-95.23 506.23,-72.39"/>
<polygon fill="green" stroke="green" stroke-width="0.34" points="508.56,-69.77 498.48,-66.5 504.32,-75.34 508.56,-69.77"/>
</g>
<!-- Ghost Info Down -->
<g id="node12" class="node">
<title>Ghost Info Down</title>
<polygon fill="lightblue" stroke="black" points="1687.62,-232.27 1607.88,-232.27 1607.88,-213.77 1687.62,-213.77 1687.62,-232.27"/>
<text text-anchor="middle" x="1647.75" y="-219.72" font-family="Times,serif" font-size="9.00">Ghost Info Down</text>
</g>
<!-- PAC&#45;MAN Right -->
<g id="node13" class="node">
<title>PAC&#45;MAN Right</title>
<polygon fill="lightblue" stroke="black" points="292.25,-232.27 213.25,-232.27 213.25,-213.77 292.25,-213.77 292.25,-232.27"/>
<text text-anchor="middle" x="252.75" y="-219.72" font-family="Times,serif" font-size="9.00">PAC&#45;MAN Right</text>
</g>
<!-- PAC&#45;MAN Right&#45;&gt;Move Right -->
<g id="edge10" class="edge">
<title>PAC&#45;MAN Right&#45;&gt;Move Right</title>
<path fill="none" stroke="green" stroke-width="0.15" stroke-dasharray="1,5" d="M212.89,-219.98C183.23,-216.12 144.6,-205.64 124.75,-177.77 110.71,-158.07 114.68,-145.33 124.75,-123.33 134.62,-101.75 153.65,-83.84 171.76,-70.58"/>
<polygon fill="green" stroke="green" stroke-width="0.15" points="173.62,-73.55 179.8,-64.95 169.6,-67.82 173.62,-73.55"/>
</g>
<!-- PAC&#45;MAN Right&#45;&gt;Move Up -->
<g id="edge11" class="edge">
<title>PAC&#45;MAN Right&#45;&gt;Move Up</title>
<path fill="none" stroke="green" stroke-width="0.18" stroke-dasharray="1,5" d="M271.33,-213.32C286.77,-205.47 308.74,-192.88 324.75,-177.77 346.22,-157.53 342.14,-144.45 362.75,-123.33 383.13,-102.44 409.51,-82.98 430.98,-68.64"/>
<polygon fill="green" stroke="green" stroke-width="0.18" points="432.88,-71.58 439.31,-63.16 429.03,-65.73 432.88,-71.58"/>
</g>
<!-- PAC&#45;MAN Right&#45;&gt;Move Down -->
<g id="edge24" class="edge">
<title>PAC&#45;MAN Right&#45;&gt;Move Down</title>
<path fill="none" stroke="red" stroke-width="0.25" d="M292.49,-221.7C414.06,-220.32 774.98,-213.24 812.75,-177.77 834.2,-157.64 839.13,-125.07 838.62,-97.19"/>
<polygon fill="red" stroke="red" stroke-width="0.25" points="842.13,-97.38 838.21,-87.53 835.13,-97.67 842.13,-97.38"/>
</g>
<!-- 16504 -->
<g id="node23" class="node">
<title>16504</title>
<ellipse fill="white" stroke="black" cx="160.75" cy="-150.55" rx="27.22" ry="27.22"/>
<text text-anchor="middle" x="160.75" y="-147.25" font-family="Times,serif" font-size="9.00">16504</text>
</g>
<!-- PAC&#45;MAN Right&#45;&gt;16504 -->
<g id="edge27" class="edge">
<title>PAC&#45;MAN Right&#45;&gt;16504</title>
<path fill="none" stroke="red" stroke-width="0.19" d="M241.47,-213.38C228.65,-203.57 207.24,-187.17 189.69,-173.72"/>
<polygon fill="red" stroke="red" stroke-width="0.19" points="192.23,-171.26 182.17,-167.96 187.98,-176.82 192.23,-171.26"/>
</g>
<!-- PAC&#45;MAN Left -->
<g id="node14" class="node">
<title>PAC&#45;MAN Left</title>
<polygon fill="lightblue" stroke="black" points="1391.62,-159.8 1317.88,-159.8 1317.88,-141.3 1391.62,-141.3 1391.62,-159.8"/>
<text text-anchor="middle" x="1354.75" y="-147.25" font-family="Times,serif" font-size="9.00">PAC&#45;MAN Left</text>
</g>
<!-- PAC&#45;MAN Left&#45;&gt;Move Left -->
<g id="edge12" class="edge">
<title>PAC&#45;MAN Left&#45;&gt;Move Left</title>
<path fill="none" stroke="green" stroke-width="0.27" stroke-dasharray="1,5" d="M1349.43,-140.97C1341.84,-128.72 1327.42,-105.44 1314.65,-84.84"/>
<polygon fill="green" stroke="green" stroke-width="0.27" points="1317.76,-83.21 1309.51,-76.55 1311.81,-86.9 1317.76,-83.21"/>
</g>
<!-- PAC&#45;MAN Up -->
<g id="node15" class="node">
<title>PAC&#45;MAN Up</title>
<polygon fill="lightblue" stroke="black" points="442.12,-159.8 371.38,-159.8 371.38,-141.3 442.12,-141.3 442.12,-159.8"/>
<text text-anchor="middle" x="406.75" y="-147.25" font-family="Times,serif" font-size="9.00">PAC&#45;MAN Up</text>
</g>
<!-- PAC&#45;MAN Up&#45;&gt;Move Up -->
<g id="edge13" class="edge">
<title>PAC&#45;MAN Up&#45;&gt;Move Up</title>
<path fill="none" stroke="red" stroke-width="0.42" stroke-dasharray="1,5" d="M411.91,-140.97C419.38,-128.52 433.7,-104.67 446.23,-83.83"/>
<polygon fill="red" stroke="red" stroke-width="0.42" points="449.17,-85.73 451.32,-75.35 443.17,-82.12 449.17,-85.73"/>
</g>
<!-- PACM&#45;MAN Down -->
<g id="node16" class="node">
<title>PACM&#45;MAN Down</title>
<polygon fill="lightblue" stroke="black" points="1169.88,-159.8 1079.62,-159.8 1079.62,-141.3 1169.88,-141.3 1169.88,-159.8"/>
<text text-anchor="middle" x="1124.75" y="-147.25" font-family="Times,serif" font-size="9.00">PACM&#45;MAN Down</text>
</g>
<!-- PACM&#45;MAN Down&#45;&gt;Move Left -->
<g id="edge14" class="edge">
<title>PACM&#45;MAN Down&#45;&gt;Move Left</title>
<path fill="none" stroke="green" stroke-width="0.42" stroke-dasharray="1,5" d="M1138.25,-140.97C1162.23,-125.72 1213.14,-93.37 1249.31,-70.37"/>
<polygon fill="green" stroke="green" stroke-width="0.42" points="1251.07,-73.4 1257.63,-65.08 1247.31,-67.49 1251.07,-73.4"/>
</g>
<!-- PACM&#45;MAN Down&#45;&gt;Move Down -->
<g id="edge29" class="edge">
<title>PACM&#45;MAN Down&#45;&gt;Move Down</title>
<path fill="none" stroke="green" stroke-width="0.12" d="M1106.34,-140.83C1094.79,-135.5 1079.54,-128.7 1065.75,-123.33 1003.72,-99.18 930.84,-75.38 883.09,-60.39"/>
<polygon fill="green" stroke="green" stroke-width="0.12" points="884.36,-57.12 873.77,-57.48 882.27,-63.8 884.36,-57.12"/>
</g>
<!-- Power&#45;Up Time -->
<g id="node17" class="node">
<title>Power&#45;Up Time</title>
<polygon fill="lightblue" stroke="black" points="797.62,-232.27 723.88,-232.27 723.88,-213.77 797.62,-213.77 797.62,-232.27"/>
<text text-anchor="middle" x="760.75" y="-219.72" font-family="Times,serif" font-size="9.00">Power&#45;Up Time</text>
</g>
<!-- Power&#45;Up Time&#45;&gt;Move Right -->
<g id="edge18" class="edge">
<title>Power&#45;Up Time&#45;&gt;Move Right</title>
<path fill="none" stroke="red" stroke-width="0.39" d="M723.42,-221.52C609.21,-219.62 270.16,-211.19 234.75,-177.77 212.92,-157.17 208.23,-123.69 208.96,-95.46"/>
<polygon fill="red" stroke="red" stroke-width="0.39" points="212.45,-95.69 209.45,-85.53 205.46,-95.34 212.45,-95.69"/>
</g>
<!-- Power&#45;Up Time&#45;&gt;Move Left -->
<g id="edge15" class="edge">
<title>Power&#45;Up Time&#45;&gt;Move Left</title>
<path fill="none" stroke="green" stroke-width="0.34" stroke-dasharray="1,5" d="M797.74,-221.42C909.24,-219.25 1236.54,-210.15 1270.75,-177.77 1293.55,-156.2 1297.64,-120.56 1296.38,-91.58"/>
<polygon fill="green" stroke="green" stroke-width="0.34" points="1299.89,-91.51 1295.74,-81.76 1292.9,-91.97 1299.89,-91.51"/>
</g>
<!-- Power&#45;Up Time&#45;&gt;Move Up -->
<g id="edge22" class="edge">
<title>Power&#45;Up Time&#45;&gt;Move Up</title>
<path fill="none" stroke="green" stroke-width="0.14" d="M723.5,-221.23C656.76,-218.99 520.78,-210.44 488.75,-177.77 466.31,-154.89 462.47,-118.26 463.74,-89.21"/>
<polygon fill="green" stroke="green" stroke-width="0.14" points="467.22,-89.7 464.37,-79.5 460.23,-89.25 467.22,-89.7"/>
</g>
<!-- Power&#45;Up Time&#45;&gt;Move Down -->
<g id="edge16" class="edge">
<title>Power&#45;Up Time&#45;&gt;Move Down</title>
<path fill="none" stroke="red" stroke-width="0.53" stroke-dasharray="1,5" d="M797.93,-221.67C865.23,-220.14 1003.03,-212.72 1032.75,-177.77 1048.43,-159.34 1046.39,-143.32 1032.75,-123.33 1000.05,-75.42 933.41,-56.68 885.82,-49.36"/>
<polygon fill="red" stroke="red" stroke-width="0.53" points="886.56,-45.93 876.17,-48 885.58,-52.86 886.56,-45.93"/>
</g>
<!-- Power&#45;Up Time&#45;&gt;16896 -->
<g id="edge32" class="edge">
<title>Power&#45;Up Time&#45;&gt;16896</title>
<path fill="none" stroke="green" stroke-width="0.16" d="M797.74,-222.14C916.78,-222.08 1288.77,-218.56 1400.75,-177.77 1403.17,-176.9 1405.56,-175.8 1407.9,-174.56"/>
<polygon fill="green" stroke="green" stroke-width="0.16" points="1409.69,-177.57 1416.37,-169.35 1406.02,-171.61 1409.69,-177.57"/>
</g>
<!-- Power&#45;Up Time&#45;&gt;16504 -->
<g id="edge31" class="edge">
<title>Power&#45;Up Time&#45;&gt;16504</title>
<path fill="none" stroke="red" stroke-width="0.11" d="M723.64,-221.43C614.98,-219.31 299,-210.44 201.75,-177.77 197.98,-176.51 194.22,-174.82 190.58,-172.92"/>
<polygon fill="red" stroke="red" stroke-width="0.11" points="192.41,-169.93 182.01,-167.91 188.88,-175.98 192.41,-169.93"/>
</g>
<!-- 16896&#45;&gt;Move Left -->
<g id="edge33" class="edge">
<title>16896&#45;&gt;Move Left</title>
<path fill="none" stroke="red" stroke-width="0.26" d="M1415.08,-133.7C1410.37,-130.27 1405.4,-126.67 1400.75,-123.33 1376.98,-106.25 1350.21,-87.27 1328.92,-72.23"/>
<polygon fill="red" stroke="red" stroke-width="0.26" points="1330.96,-69.39 1320.77,-66.49 1326.92,-75.11 1330.96,-69.39"/>
</g>
<!-- 16504&#45;&gt;Move Right -->
<g id="edge28" class="edge">
<title>16504&#45;&gt;Move Right</title>
<path fill="none" stroke="red" stroke-width="0.23" d="M173.09,-126.01C178.7,-115.32 185.53,-102.3 192.07,-89.83"/>
<polygon fill="red" stroke="red" stroke-width="0.23" points="195.05,-91.68 196.59,-81.2 188.85,-88.43 195.05,-91.68"/>
</g>
</g>
</svg>
