<?xml version="1.0" encoding="UTF-8" standalone="no"?>
<!DOCTYPE svg PUBLIC "-//W3C//DTD SVG 1.1//EN"
 "http://www.w3.org/Graphics/SVG/1.1/DTD/svg11.dtd">
<!-- Generated by graphviz version 12.0.0 (20240704.0754)
 -->
<!-- Pages: 1 -->
<svg width="1473pt" height="261pt"
 viewBox="0.00 0.00 1472.96 261.49" xmlns="http://www.w3.org/2000/svg" xmlns:xlink="http://www.w3.org/1999/xlink">
<g id="graph0" class="graph" transform="scale(1 1) rotate(0) translate(4 257.49)">
<polygon fill="white" stroke="none" points="-4,4 -4,-257.49 1468.96,-257.49 1468.96,4 -4,4"/>
<!-- Pellet Right -->
<g id="node1" class="node">
<title>Pellet Right</title>
<polygon fill="lightblue" stroke="black" points="66.46,-253.49 9.21,-253.49 9.21,-234.99 66.46,-234.99 66.46,-253.49"/>
<text text-anchor="middle" x="37.83" y="-240.94" font-family="Times,serif" font-size="9.00">Pellet Right</text>
</g>
<!-- 26296 -->
<g id="node26" class="node">
<title>26296</title>
<ellipse fill="white" stroke="black" cx="37.83" cy="-155.32" rx="27.22" ry="27.22"/>
<text text-anchor="middle" x="37.83" y="-152.02" font-family="Times,serif" font-size="9.00">26296</text>
</g>
<!-- Pellet Right&#45;&gt;26296 -->
<g id="edge12" class="edge">
<title>Pellet Right&#45;&gt;26296</title>
<path fill="none" stroke="red" stroke-width="0.23" d="M37.83,-234.59C37.83,-224.89 37.83,-208.52 37.83,-193.24"/>
<polygon fill="red" stroke="red" stroke-width="0.23" points="41.33,-193.3 37.83,-183.3 34.33,-193.3 41.33,-193.3"/>
</g>
<!-- Pellet Left -->
<g id="node2" class="node">
<title>Pellet Left</title>
<polygon fill="lightblue" stroke="black" points="136.83,-253.49 84.83,-253.49 84.83,-234.99 136.83,-234.99 136.83,-253.49"/>
<text text-anchor="middle" x="110.83" y="-240.94" font-family="Times,serif" font-size="9.00">Pellet Left</text>
</g>
<!-- Pellet Up -->
<g id="node3" class="node">
<title>Pellet Up</title>
<polygon fill="lightblue" stroke="black" points="204.33,-253.49 155.33,-253.49 155.33,-234.99 204.33,-234.99 204.33,-253.49"/>
<text text-anchor="middle" x="179.83" y="-240.94" font-family="Times,serif" font-size="9.00">Pellet Up</text>
</g>
<!-- Pellet Down -->
<g id="node4" class="node">
<title>Pellet Down</title>
<polygon fill="lightblue" stroke="black" points="369.96,-164.57 309.71,-164.57 309.71,-146.07 369.96,-146.07 369.96,-164.57"/>
<text text-anchor="middle" x="339.83" y="-152.02" font-family="Times,serif" font-size="9.00">Pellet Down</text>
</g>
<!-- Move Up -->
<g id="node20" class="node">
<title>Move Up</title>
<ellipse fill="lightblue" stroke="black" cx="264.83" cy="-37.83" rx="35.71" ry="35.71"/>
<text text-anchor="middle" x="264.83" y="-34.53" font-family="Times,serif" font-size="9.00">Move Up</text>
</g>
<!-- Pellet Down&#45;&gt;Move Up -->
<g id="edge3" class="edge">
<title>Pellet Down&#45;&gt;Move Up</title>
<path fill="none" stroke="red" stroke-width="0.33" d="M334.19,-145.64C324.79,-131.16 305.36,-101.24 289.45,-76.74"/>
<polygon fill="red" stroke="red" stroke-width="0.33" points="292.42,-74.9 284.04,-68.42 286.55,-78.71 292.42,-74.9"/>
</g>
<!-- 23712 -->
<g id="node22" class="node">
<title>23712</title>
<ellipse fill="white" stroke="black" cx="345.83" cy="-37.83" rx="27.22" ry="27.22"/>
<text text-anchor="middle" x="345.83" y="-34.53" font-family="Times,serif" font-size="9.00">23712</text>
</g>
<!-- Pellet Down&#45;&gt;23712 -->
<g id="edge5" class="edge">
<title>Pellet Down&#45;&gt;23712</title>
<path fill="none" stroke="green" stroke-width="0.1" d="M340.28,-145.64C341.05,-130.8 342.67,-99.73 343.96,-74.91"/>
<polygon fill="green" stroke="green" stroke-width="0.1" points="347.44,-75.39 344.46,-65.22 340.44,-75.03 347.44,-75.39"/>
</g>
<!-- Power Pellet Right -->
<g id="node5" class="node">
<title>Power Pellet Right</title>
<polygon fill="lightblue" stroke="black" points="419.21,-253.49 336.46,-253.49 336.46,-234.99 419.21,-234.99 419.21,-253.49"/>
<text text-anchor="middle" x="377.83" y="-240.94" font-family="Times,serif" font-size="9.00">Power Pellet Right</text>
</g>
<!-- Power Pellet Left -->
<g id="node6" class="node">
<title>Power Pellet Left</title>
<polygon fill="lightblue" stroke="black" points="525.58,-253.49 448.08,-253.49 448.08,-234.99 525.58,-234.99 525.58,-253.49"/>
<text text-anchor="middle" x="486.83" y="-240.94" font-family="Times,serif" font-size="9.00">Power Pellet Left</text>
</g>
<!-- 26087 -->
<g id="node24" class="node">
<title>26087</title>
<ellipse fill="white" stroke="black" cx="486.83" cy="-155.32" rx="27.22" ry="27.22"/>
<text text-anchor="middle" x="486.83" y="-152.02" font-family="Times,serif" font-size="9.00">26087</text>
</g>
<!-- Power Pellet Left&#45;&gt;26087 -->
<g id="edge11" class="edge">
<title>Power Pellet Left&#45;&gt;26087</title>
<path fill="none" stroke="red" stroke-width="0.2" d="M486.83,-234.59C486.83,-224.89 486.83,-208.52 486.83,-193.24"/>
<polygon fill="red" stroke="red" stroke-width="0.2" points="490.33,-193.25 486.83,-183.25 483.33,-193.25 490.33,-193.25"/>
</g>
<!-- Power Pellet Up -->
<g id="node7" class="node">
<title>Power Pellet Up</title>
<polygon fill="lightblue" stroke="black" points="618.08,-253.49 543.58,-253.49 543.58,-234.99 618.08,-234.99 618.08,-253.49"/>
<text text-anchor="middle" x="580.83" y="-240.94" font-family="Times,serif" font-size="9.00">Power Pellet Up</text>
</g>
<!-- Power Pellet Down -->
<g id="node8" class="node">
<title>Power Pellet Down</title>
<polygon fill="lightblue" stroke="black" points="307.71,-253.49 221.96,-253.49 221.96,-234.99 307.71,-234.99 307.71,-253.49"/>
<text text-anchor="middle" x="264.83" y="-240.94" font-family="Times,serif" font-size="9.00">Power Pellet Down</text>
</g>
<!-- 24430 -->
<g id="node25" class="node">
<title>24430</title>
<ellipse fill="white" stroke="black" cx="264.83" cy="-155.32" rx="27.22" ry="27.22"/>
<text text-anchor="middle" x="264.83" y="-152.02" font-family="Times,serif" font-size="9.00">24430</text>
</g>
<!-- Power Pellet Down&#45;&gt;24430 -->
<g id="edge9" class="edge">
<title>Power Pellet Down&#45;&gt;24430</title>
<path fill="none" stroke="green" stroke-width="0.14" d="M264.83,-234.59C264.83,-224.8 264.83,-208.2 264.83,-192.8"/>
<polygon fill="green" stroke="green" stroke-width="0.14" points="268.33,-193.16 264.83,-183.16 261.33,-193.16 268.33,-193.16"/>
</g>
<!-- Ghost Info Right -->
<g id="node9" class="node">
<title>Ghost Info Right</title>
<polygon fill="lightblue" stroke="black" points="713.21,-253.49 636.46,-253.49 636.46,-234.99 713.21,-234.99 713.21,-253.49"/>
<text text-anchor="middle" x="674.83" y="-240.94" font-family="Times,serif" font-size="9.00">Ghost Info Right</text>
</g>
<!-- Ghost Info Left -->
<g id="node10" class="node">
<title>Ghost Info Left</title>
<polygon fill="lightblue" stroke="black" points="802.58,-253.49 731.08,-253.49 731.08,-234.99 802.58,-234.99 802.58,-253.49"/>
<text text-anchor="middle" x="766.83" y="-240.94" font-family="Times,serif" font-size="9.00">Ghost Info Left</text>
</g>
<!-- Move Right -->
<g id="node18" class="node">
<title>Move Right</title>
<ellipse fill="lightblue" stroke="black" cx="813.83" cy="-155.32" rx="41.54" ry="41.54"/>
<text text-anchor="middle" x="813.83" y="-152.02" font-family="Times,serif" font-size="9.00">Move Right</text>
</g>
<!-- Ghost Info Left&#45;&gt;Move Right -->
<g id="edge1" class="edge">
<title>Ghost Info Left&#45;&gt;Move Right</title>
<path fill="none" stroke="green" stroke-width="0.1" stroke-dasharray="1,5" d="M771.51,-234.59C775.85,-226.56 782.66,-213.97 789.56,-201.21"/>
<polygon fill="green" stroke="green" stroke-width="0.1" points="792.57,-203 794.24,-192.54 786.41,-199.67 792.57,-203"/>
</g>
<!-- Ghost Info Up -->
<g id="node11" class="node">
<title>Ghost Info Up</title>
<polygon fill="lightblue" stroke="black" points="987.08,-253.49 918.58,-253.49 918.58,-234.99 987.08,-234.99 987.08,-253.49"/>
<text text-anchor="middle" x="952.83" y="-240.94" font-family="Times,serif" font-size="9.00">Ghost Info Up</text>
</g>
<!-- Ghost Info Down -->
<g id="node12" class="node">
<title>Ghost Info Down</title>
<polygon fill="lightblue" stroke="black" points="900.71,-253.49 820.96,-253.49 820.96,-234.99 900.71,-234.99 900.71,-253.49"/>
<text text-anchor="middle" x="860.83" y="-240.94" font-family="Times,serif" font-size="9.00">Ghost Info Down</text>
</g>
<!-- Ghost Info Down&#45;&gt;Move Right -->
<g id="edge4" class="edge">
<title>Ghost Info Down&#45;&gt;Move Right</title>
<path fill="none" stroke="green" stroke-width="0.21" d="M856.15,-234.59C851.81,-226.56 845,-213.97 838.1,-201.21"/>
<polygon fill="green" stroke="green" stroke-width="0.21" points="841.33,-199.83 833.5,-192.69 835.18,-203.16 841.33,-199.83"/>
</g>
<!-- PAC&#45;MAN Right -->
<g id="node13" class="node">
<title>PAC&#45;MAN Right</title>
<polygon fill="lightblue" stroke="black" points="1084.33,-253.49 1005.33,-253.49 1005.33,-234.99 1084.33,-234.99 1084.33,-253.49"/>
<text text-anchor="middle" x="1044.83" y="-240.94" font-family="Times,serif" font-size="9.00">PAC&#45;MAN Right</text>
</g>
<!-- PAC&#45;MAN Left -->
<g id="node14" class="node">
<title>PAC&#45;MAN Left</title>
<polygon fill="lightblue" stroke="black" points="1175.71,-253.49 1101.96,-253.49 1101.96,-234.99 1175.71,-234.99 1175.71,-253.49"/>
<text text-anchor="middle" x="1138.83" y="-240.94" font-family="Times,serif" font-size="9.00">PAC&#45;MAN Left</text>
</g>
<!-- Move Down -->
<g id="node21" class="node">
<title>Move Down</title>
<ellipse fill="lightblue" stroke="black" cx="1184.83" cy="-155.32" rx="43.66" ry="43.66"/>
<text text-anchor="middle" x="1184.83" y="-152.02" font-family="Times,serif" font-size="9.00">Move Down</text>
</g>
<!-- PAC&#45;MAN Left&#45;&gt;Move Down -->
<g id="edge6" class="edge">
<title>PAC&#45;MAN Left&#45;&gt;Move Down</title>
<path fill="none" stroke="red" stroke-width="0.55" d="M1143.41,-234.59C1147.35,-227.13 1153.39,-215.74 1159.63,-203.93"/>
<polygon fill="red" stroke="red" stroke-width="0.55" points="1162.68,-205.65 1164.27,-195.18 1156.5,-202.38 1162.68,-205.65"/>
</g>
<!-- PAC&#45;MAN Up -->
<g id="node15" class="node">
<title>PAC&#45;MAN Up</title>
<polygon fill="lightblue" stroke="black" points="1356.21,-253.49 1285.46,-253.49 1285.46,-234.99 1356.21,-234.99 1356.21,-253.49"/>
<text text-anchor="middle" x="1320.83" y="-240.94" font-family="Times,serif" font-size="9.00">PAC&#45;MAN Up</text>
</g>
<!-- PACM&#45;MAN Down -->
<g id="node16" class="node">
<title>PACM&#45;MAN Down</title>
<polygon fill="lightblue" stroke="black" points="1464.96,-253.49 1374.71,-253.49 1374.71,-234.99 1464.96,-234.99 1464.96,-253.49"/>
<text text-anchor="middle" x="1419.83" y="-240.94" font-family="Times,serif" font-size="9.00">PACM&#45;MAN Down</text>
</g>
<!-- Power&#45;Up Time -->
<g id="node17" class="node">
<title>Power&#45;Up Time</title>
<polygon fill="lightblue" stroke="black" points="1267.71,-253.49 1193.96,-253.49 1193.96,-234.99 1267.71,-234.99 1267.71,-253.49"/>
<text text-anchor="middle" x="1230.83" y="-240.94" font-family="Times,serif" font-size="9.00">Power&#45;Up Time</text>
</g>
<!-- Power&#45;Up Time&#45;&gt;Move Down -->
<g id="edge2" class="edge">
<title>Power&#45;Up Time&#45;&gt;Move Down</title>
<path fill="none" stroke="red" stroke-width="0.21" d="M1226.25,-234.59C1222.23,-226.99 1216.04,-215.28 1209.65,-203.23"/>
<polygon fill="red" stroke="red" stroke-width="0.21" points="1212.92,-201.91 1205.15,-194.71 1206.73,-205.19 1212.92,-201.91"/>
</g>
<!-- Move Left -->
<g id="node19" class="node">
<title>Move Left</title>
<ellipse fill="lightblue" stroke="black" cx="37.83" cy="-37.83" rx="37.83" ry="37.83"/>
<text text-anchor="middle" x="37.83" y="-34.53" font-family="Times,serif" font-size="9.00">Move Left</text>
</g>
<!-- 24483 -->
<g id="node23" class="node">
<title>24483</title>
<ellipse fill="white" stroke="black" cx="414.83" cy="-155.32" rx="27.22" ry="27.22"/>
<text text-anchor="middle" x="414.83" y="-152.02" font-family="Times,serif" font-size="9.00">24483</text>
</g>
<!-- 24483&#45;&gt;23712 -->
<g id="edge8" class="edge">
<title>24483&#45;&gt;23712</title>
<path fill="none" stroke="red" stroke-width="0.46" d="M401.2,-131.51C390.8,-114.11 376.36,-89.93 364.83,-70.63"/>
<polygon fill="red" stroke="red" stroke-width="0.46" points="367.92,-68.98 359.79,-62.19 361.91,-72.57 367.92,-68.98"/>
</g>
<!-- 24430&#45;&gt;Move Up -->
<g id="edge7" class="edge">
<title>24430&#45;&gt;Move Up</title>
<path fill="none" stroke="red" stroke-width="0.13" d="M264.83,-127.83C264.83,-114.84 264.83,-98.84 264.83,-84"/>
<polygon fill="red" stroke="red" stroke-width="0.13" points="268.33,-84.16 264.83,-74.16 261.33,-84.16 268.33,-84.16"/>
</g>
<!-- 24430&#45;&gt;23712 -->
<g id="edge10" class="edge">
<title>24430&#45;&gt;23712</title>
<path fill="none" stroke="green" stroke-width="0.32" d="M280.26,-132.33C292.81,-114.43 310.67,-88.97 324.58,-69.14"/>
<polygon fill="green" stroke="green" stroke-width="0.32" points="327.3,-71.34 330.18,-61.15 321.57,-67.32 327.3,-71.34"/>
</g>
<!-- 26296&#45;&gt;Move Left -->
<g id="edge13" class="edge">
<title>26296&#45;&gt;Move Left</title>
<path fill="none" stroke="red" stroke-width="0.23" d="M37.83,-127.83C37.83,-115.5 37.83,-100.46 37.83,-86.27"/>
<polygon fill="red" stroke="red" stroke-width="0.23" points="41.33,-86.49 37.83,-76.49 34.33,-86.49 41.33,-86.49"/>
</g>
</g>
</svg>
