<?xml version="1.0" encoding="UTF-8" standalone="no"?>
<!DOCTYPE svg PUBLIC "-//W3C//DTD SVG 1.1//EN"
 "http://www.w3.org/Graphics/SVG/1.1/DTD/svg11.dtd">
<!-- Generated by graphviz version 12.0.0 (20240704.0754)
 -->
<!-- Pages: 1 -->
<svg width="2294pt" height="318pt"
 viewBox="0.00 0.00 2293.57 317.99" xmlns="http://www.w3.org/2000/svg" xmlns:xlink="http://www.w3.org/1999/xlink">
<g id="graph0" class="graph" transform="scale(1 1) rotate(0) translate(4 313.99)">
<polygon fill="white" stroke="none" points="-4,4 -4,-313.99 2289.57,-313.99 2289.57,4 -4,4"/>
<!-- Pellet Right -->
<g id="node1" class="node">
<title>Pellet Right</title>
<polygon fill="lightblue" stroke="black" points="1185.05,-156.62 1127.8,-156.62 1127.8,-138.12 1185.05,-138.12 1185.05,-156.62"/>
<text text-anchor="middle" x="1156.42" y="-144.07" font-family="Times,serif" font-size="9.00">Pellet Right</text>
</g>
<!-- Move Right -->
<g id="node18" class="node">
<title>Move Right</title>
<ellipse fill="lightblue" stroke="black" cx="337.42" cy="-43.66" rx="41.54" ry="41.54"/>
<text text-anchor="middle" x="337.42" y="-40.36" font-family="Times,serif" font-size="9.00">Move Right</text>
</g>
<!-- Pellet Right&#45;&gt;Move Right -->
<g id="edge1" class="edge">
<title>Pellet Right&#45;&gt;Move Right</title>
<path fill="none" stroke="green" stroke-width="0.86" d="M1145.11,-137.66C1137.88,-132.58 1128.08,-126.56 1118.42,-123.33 1049.6,-100.31 554.58,-61.13 390.27,-48.63"/>
<polygon fill="green" stroke="green" stroke-width="0.86" points="390.56,-45.14 380.33,-47.87 390.03,-52.12 390.56,-45.14"/>
</g>
<!-- Move Left -->
<g id="node19" class="node">
<title>Move Left</title>
<ellipse fill="lightblue" stroke="black" cx="1931.42" cy="-43.66" rx="37.83" ry="37.83"/>
<text text-anchor="middle" x="1931.42" y="-40.36" font-family="Times,serif" font-size="9.00">Move Left</text>
</g>
<!-- Pellet Right&#45;&gt;Move Left -->
<g id="edge2" class="edge">
<title>Pellet Right&#45;&gt;Move Left</title>
<path fill="none" stroke="red" stroke-width="0.14" stroke-dasharray="1,5" d="M1167.36,-137.75C1174.6,-132.57 1184.55,-126.4 1194.42,-123.33 1458.42,-41.23 1544.76,-143.65 1815.42,-87.33 1840.13,-82.19 1866.61,-72.77 1888.03,-64.08"/>
<polygon fill="red" stroke="red" stroke-width="0.14" points="1889.09,-67.43 1896.99,-60.37 1886.42,-60.96 1889.09,-67.43"/>
</g>
<!-- Move Up -->
<g id="node20" class="node">
<title>Move Up</title>
<ellipse fill="lightblue" stroke="black" cx="891.42" cy="-43.66" rx="35.71" ry="35.71"/>
<text text-anchor="middle" x="891.42" y="-40.36" font-family="Times,serif" font-size="9.00">Move Up</text>
</g>
<!-- Pellet Right&#45;&gt;Move Up -->
<g id="edge3" class="edge">
<title>Pellet Right&#45;&gt;Move Up</title>
<path fill="none" stroke="green" stroke-width="0.3" d="M1143.78,-137.78C1136.56,-133.11 1127.22,-127.46 1118.42,-123.33 1057.06,-94.49 982.09,-70.55 935.54,-56.92"/>
<polygon fill="green" stroke="green" stroke-width="0.3" points="936.79,-53.64 926.21,-54.22 934.84,-60.37 936.79,-53.64"/>
</g>
<!-- Move Down -->
<g id="node21" class="node">
<title>Move Down</title>
<ellipse fill="lightblue" stroke="black" cx="1438.42" cy="-43.66" rx="43.66" ry="43.66"/>
<text text-anchor="middle" x="1438.42" y="-40.36" font-family="Times,serif" font-size="9.00">Move Down</text>
</g>
<!-- Pellet Right&#45;&gt;Move Down -->
<g id="edge4" class="edge">
<title>Pellet Right&#45;&gt;Move Down</title>
<path fill="none" stroke="green" stroke-width="0.14" stroke-dasharray="1,5" d="M1169.03,-137.7C1176.24,-133.01 1185.58,-127.37 1194.42,-123.33 1258.19,-94.2 1335.85,-71.14 1386.17,-57.7"/>
<polygon fill="green" stroke="green" stroke-width="0.14" points="1386.88,-61.14 1395.66,-55.2 1385.09,-54.37 1386.88,-61.14"/>
</g>
<!-- Pellet Left -->
<g id="node2" class="node">
<title>Pellet Left</title>
<polygon fill="lightblue" stroke="black" points="853.42,-309.99 801.42,-309.99 801.42,-291.49 853.42,-291.49 853.42,-309.99"/>
<text text-anchor="middle" x="827.42" y="-297.44" font-family="Times,serif" font-size="9.00">Pellet Left</text>
</g>
<!-- Pellet Left&#45;&gt;Move Right -->
<g id="edge5" class="edge">
<title>Pellet Left&#45;&gt;Move Right</title>
<path fill="none" stroke="green" stroke-width="0.48" d="M801.27,-299.2C667.52,-296.33 65.24,-281.94 36.42,-255.49 -7.04,-215.62 -11.85,-169.84 24.42,-123.33 56.24,-82.52 205.09,-59.65 285.52,-50.07"/>
<polygon fill="green" stroke="green" stroke-width="0.48" points="285.67,-53.58 295.2,-48.95 284.86,-46.63 285.67,-53.58"/>
</g>
<!-- Pellet Left&#45;&gt;Move Left -->
<g id="edge6" class="edge">
<title>Pellet Left&#45;&gt;Move Left</title>
<path fill="none" stroke="red" stroke-width="0.41" stroke-dasharray="1,5" d="M853.74,-299.88C1008.38,-300.52 1800.22,-301.49 2038.42,-255.49 2146.93,-234.54 2208.85,-261.81 2272.42,-171.41 2345.91,-66.92 2090.4,-48.42 1979.9,-45.26"/>
<polygon fill="red" stroke="red" stroke-width="0.41" points="1980.07,-41.76 1969.99,-45.01 1979.89,-48.76 1980.07,-41.76"/>
</g>
<!-- Pellet Left&#45;&gt;Move Up -->
<g id="edge7" class="edge">
<title>Pellet Left&#45;&gt;Move Up</title>
<path fill="none" stroke="green" stroke-width="0.27" d="M829.55,-291.26C837.36,-260.14 864.77,-150.89 880.36,-88.75"/>
<polygon fill="green" stroke="green" stroke-width="0.27" points="883.71,-89.79 882.75,-79.24 876.92,-88.08 883.71,-89.79"/>
</g>
<!-- Pellet Left&#45;&gt;Move Down -->
<g id="edge8" class="edge">
<title>Pellet Left&#45;&gt;Move Down</title>
<path fill="none" stroke="red" stroke-width="0.33" d="M853.52,-299.27C986.95,-296.74 1587.69,-283.77 1614.42,-255.49 1636.31,-232.35 1602.15,-133.1 1594.42,-123.33 1568.5,-90.51 1525.24,-70.22 1490.85,-58.49"/>
<polygon fill="red" stroke="red" stroke-width="0.33" points="1492.01,-55.19 1481.42,-55.42 1489.84,-61.84 1492.01,-55.19"/>
</g>
<!-- 8136 -->
<g id="node26" class="node">
<title>8136</title>
<ellipse fill="white" stroke="black" cx="69.42" cy="-231.45" rx="24.04" ry="24.04"/>
<text text-anchor="middle" x="69.42" y="-228.15" font-family="Times,serif" font-size="9.00">8136</text>
</g>
<!-- Pellet Left&#45;&gt;8136 -->
<g id="edge63" class="edge">
<title>Pellet Left&#45;&gt;8136</title>
<path fill="none" stroke="red" stroke-width="0.4" d="M801.33,-297.43C687.38,-287.31 233.28,-247 103.95,-235.52"/>
<polygon fill="red" stroke="red" stroke-width="0.4" points="104.37,-232.04 94.1,-234.64 103.75,-239.01 104.37,-232.04"/>
</g>
<!-- Pellet Up -->
<g id="node3" class="node">
<title>Pellet Up</title>
<polygon fill="lightblue" stroke="black" points="798.92,-156.62 749.92,-156.62 749.92,-138.12 798.92,-138.12 798.92,-156.62"/>
<text text-anchor="middle" x="774.42" y="-144.07" font-family="Times,serif" font-size="9.00">Pellet Up</text>
</g>
<!-- Pellet Up&#45;&gt;Move Right -->
<g id="edge58" class="edge">
<title>Pellet Up&#45;&gt;Move Right</title>
<path fill="none" stroke="red" stroke-width="0.15" stroke-dasharray="1,5" d="M764.04,-137.71C757.62,-132.77 748.98,-126.89 740.42,-123.33 620.74,-73.55 467.76,-54.8 389.16,-48.11"/>
<polygon fill="red" stroke="red" stroke-width="0.15" points="389.51,-44.63 379.25,-47.3 388.93,-51.6 389.51,-44.63"/>
</g>
<!-- Pellet Up&#45;&gt;Move Left -->
<g id="edge9" class="edge">
<title>Pellet Up&#45;&gt;Move Left</title>
<path fill="none" stroke="green" stroke-width="0.19" stroke-dasharray="1,5" d="M799.13,-139.95C821.29,-134.49 854.79,-126.98 884.42,-123.33 1295.4,-72.7 1409.23,-167.78 1815.42,-87.33 1840.07,-82.45 1866.43,-73.11 1887.79,-64.41"/>
<polygon fill="green" stroke="green" stroke-width="0.19" points="1889.07,-67.66 1896.96,-60.59 1886.38,-61.2 1889.07,-67.66"/>
</g>
<!-- Pellet Up&#45;&gt;Move Up -->
<g id="edge10" class="edge">
<title>Pellet Up&#45;&gt;Move Up</title>
<path fill="none" stroke="green" stroke-width="0.6" d="M784.4,-137.7C800.29,-123.89 832.08,-96.25 856.9,-74.67"/>
<polygon fill="green" stroke="green" stroke-width="0.6" points="859.09,-77.41 864.34,-68.21 854.5,-72.13 859.09,-77.41"/>
</g>
<!-- Pellet Down -->
<g id="node4" class="node">
<title>Pellet Down</title>
<polygon fill="lightblue" stroke="black" points="639.55,-240.7 579.3,-240.7 579.3,-222.2 639.55,-222.2 639.55,-240.7"/>
<text text-anchor="middle" x="609.42" y="-228.15" font-family="Times,serif" font-size="9.00">Pellet Down</text>
</g>
<!-- Pellet Down&#45;&gt;Move Right -->
<g id="edge11" class="edge">
<title>Pellet Down&#45;&gt;Move Right</title>
<path fill="none" stroke="green" stroke-width="0.47" stroke-dasharray="1,5" d="M597.79,-221.72C590.36,-216.64 580.3,-210.61 570.42,-207.41 488.25,-180.8 241.6,-235.25 183.42,-171.41 142.74,-126.77 228.97,-84.13 288.07,-61.48"/>
<polygon fill="green" stroke="green" stroke-width="0.47" points="289.21,-64.79 297.35,-58 286.76,-58.23 289.21,-64.79"/>
</g>
<!-- Pellet Down&#45;&gt;Move Left -->
<g id="edge12" class="edge">
<title>Pellet Down&#45;&gt;Move Left</title>
<path fill="none" stroke="red" stroke-width="0.21" d="M620.66,-221.74C628.09,-216.51 638.3,-210.34 648.42,-207.41 778.8,-169.7 1755.35,-244.96 1869.42,-171.41 1884.51,-161.69 1902.64,-121.57 1915.38,-89.03"/>
<polygon fill="red" stroke="red" stroke-width="0.21" points="1918.55,-90.55 1918.88,-79.96 1912.02,-88.04 1918.55,-90.55"/>
</g>
<!-- Pellet Down&#45;&gt;Move Down -->
<g id="edge13" class="edge">
<title>Pellet Down&#45;&gt;Move Down</title>
<path fill="none" stroke="green" stroke-width="0.58" stroke-dasharray="1,5" d="M620.68,-221.82C628.12,-216.63 638.34,-210.46 648.42,-207.41 791.36,-164.19 1186.82,-240.07 1319.42,-171.41 1343.61,-158.89 1339.17,-143.54 1357.42,-123.33 1370.38,-108.98 1385.38,-94 1398.92,-81.02"/>
<polygon fill="green" stroke="green" stroke-width="0.58" points="1401.23,-83.66 1406.06,-74.23 1396.4,-78.59 1401.23,-83.66"/>
</g>
<!-- 7814 -->
<g id="node24" class="node">
<title>7814</title>
<ellipse fill="white" stroke="black" cx="69.42" cy="-147.37" rx="24.04" ry="24.04"/>
<text text-anchor="middle" x="69.42" y="-144.07" font-family="Times,serif" font-size="9.00">7814</text>
</g>
<!-- Pellet Down&#45;&gt;7814 -->
<g id="edge61" class="edge">
<title>Pellet Down&#45;&gt;7814</title>
<path fill="none" stroke="green" stroke-width="0.28" d="M598.13,-221.93C590.68,-216.78 580.46,-210.62 570.42,-207.41 389.84,-149.75 331.6,-207.11 145.42,-171.41 130.86,-168.62 115.11,-164.1 101.75,-159.81"/>
<polygon fill="green" stroke="green" stroke-width="0.28" points="103.05,-156.55 92.46,-156.73 100.85,-163.2 103.05,-156.55"/>
</g>
<!-- Power Pellet Right -->
<g id="node5" class="node">
<title>Power Pellet Right</title>
<polygon fill="lightblue" stroke="black" points="1567.8,-156.62 1485.05,-156.62 1485.05,-138.12 1567.8,-138.12 1567.8,-156.62"/>
<text text-anchor="middle" x="1526.42" y="-144.07" font-family="Times,serif" font-size="9.00">Power Pellet Right</text>
</g>
<!-- Power Pellet Right&#45;&gt;Move Left -->
<g id="edge14" class="edge">
<title>Power Pellet Right&#45;&gt;Move Left</title>
<path fill="none" stroke="red" stroke-width="0.23" stroke-dasharray="1,5" d="M1568.05,-139.9C1624.64,-130.64 1728.73,-111.97 1815.42,-87.33 1839.5,-80.48 1865.71,-71.02 1887.12,-62.74"/>
<polygon fill="red" stroke="red" stroke-width="0.23" points="1888.24,-66.07 1896.28,-59.16 1885.69,-59.55 1888.24,-66.07"/>
</g>
<!-- Power Pellet Right&#45;&gt;Move Up -->
<g id="edge15" class="edge">
<title>Power Pellet Right&#45;&gt;Move Up</title>
<path fill="none" stroke="red" stroke-width="0.15" stroke-dasharray="1,5" d="M1484.76,-139.7C1370.81,-121.45 1054.68,-70.81 936.64,-51.91"/>
<polygon fill="red" stroke="red" stroke-width="0.15" points="937.49,-48.5 927.06,-50.37 936.39,-55.41 937.49,-48.5"/>
</g>
<!-- Power Pellet Right&#45;&gt;Move Down -->
<g id="edge16" class="edge">
<title>Power Pellet Right&#45;&gt;Move Down</title>
<path fill="none" stroke="red" stroke-width="0.72" d="M1518.92,-137.7C1508.93,-126.15 1490.57,-104.93 1473.91,-85.67"/>
<polygon fill="red" stroke="red" stroke-width="0.72" points="1476.56,-83.39 1467.37,-78.12 1471.27,-87.97 1476.56,-83.39"/>
</g>
<!-- Power Pellet Left -->
<g id="node6" class="node">
<title>Power Pellet Left</title>
<polygon fill="lightblue" stroke="black" points="1035.17,-240.7 957.67,-240.7 957.67,-222.2 1035.17,-222.2 1035.17,-240.7"/>
<text text-anchor="middle" x="996.42" y="-228.15" font-family="Times,serif" font-size="9.00">Power Pellet Left</text>
</g>
<!-- Power Pellet Left&#45;&gt;Move Right -->
<g id="edge17" class="edge">
<title>Power Pellet Left&#45;&gt;Move Right</title>
<path fill="none" stroke="green" stroke-width="0.3" stroke-dasharray="1,5" d="M982.28,-221.84C973.01,-216.66 960.42,-210.49 948.42,-207.41 878.26,-189.39 347.21,-224.03 297.42,-171.41 275.39,-148.12 289.06,-112.77 306.17,-85.31"/>
<polygon fill="green" stroke="green" stroke-width="0.3" points="309.01,-87.36 311.55,-77.08 303.15,-83.53 309.01,-87.36"/>
</g>
<!-- Power Pellet Left&#45;&gt;Move Left -->
<g id="edge18" class="edge">
<title>Power Pellet Left&#45;&gt;Move Left</title>
<path fill="none" stroke="red" stroke-width="0.1" d="M1035.61,-228.84C1216.98,-221.27 1966.87,-188.98 1983.42,-171.41 2007.72,-145.62 1986.12,-106.91 1963.82,-79.07"/>
<polygon fill="red" stroke="red" stroke-width="0.1" points="1966.73,-77.09 1957.65,-71.64 1961.35,-81.56 1966.73,-77.09"/>
</g>
<!-- Power Pellet Left&#45;&gt;Move Up -->
<g id="edge19" class="edge">
<title>Power Pellet Left&#45;&gt;Move Up</title>
<path fill="none" stroke="green" stroke-width="0.14" d="M993.5,-221.79C987.04,-203.13 970.49,-158.01 950.42,-123.33 941.71,-108.28 930.6,-92.75 920.36,-79.51"/>
<polygon fill="green" stroke="green" stroke-width="0.14" points="923.2,-77.45 914.27,-71.75 917.7,-81.78 923.2,-77.45"/>
</g>
<!-- Power Pellet Left&#45;&gt;Move Down -->
<g id="edge20" class="edge">
<title>Power Pellet Left&#45;&gt;Move Down</title>
<path fill="none" stroke="red" stroke-width="0.22" stroke-dasharray="1,5" d="M1035.61,-231.27C1132.77,-232.4 1380.69,-229.4 1433.42,-171.41 1451.47,-151.56 1453.48,-121.9 1450.62,-96.26"/>
<polygon fill="red" stroke="red" stroke-width="0.22" points="1454.12,-96.05 1449.29,-86.62 1447.19,-97.01 1454.12,-96.05"/>
</g>
<!-- 8346 -->
<g id="node28" class="node">
<title>8346</title>
<ellipse fill="white" stroke="black" cx="917.42" cy="-147.37" rx="24.04" ry="24.04"/>
<text text-anchor="middle" x="917.42" y="-144.07" font-family="Times,serif" font-size="9.00">8346</text>
</g>
<!-- Power Pellet Left&#45;&gt;8346 -->
<g id="edge64" class="edge">
<title>Power Pellet Left&#45;&gt;8346</title>
<path fill="none" stroke="green" stroke-width="0.26" d="M988.27,-221.98C977.19,-210.47 956.94,-189.42 940.91,-172.78"/>
<polygon fill="green" stroke="green" stroke-width="0.26" points="943.62,-170.54 934.17,-165.77 938.58,-175.4 943.62,-170.54"/>
</g>
<!-- Power Pellet Up -->
<g id="node7" class="node">
<title>Power Pellet Up</title>
<polygon fill="lightblue" stroke="black" points="731.67,-240.7 657.17,-240.7 657.17,-222.2 731.67,-222.2 731.67,-240.7"/>
<text text-anchor="middle" x="694.42" y="-228.15" font-family="Times,serif" font-size="9.00">Power Pellet Up</text>
</g>
<!-- Power Pellet Up&#45;&gt;Move Right -->
<g id="edge21" class="edge">
<title>Power Pellet Up&#45;&gt;Move Right</title>
<path fill="none" stroke="green" stroke-width="0.23" stroke-dasharray="1,5" d="M680.49,-221.72C671.65,-216.63 659.77,-210.6 648.42,-207.41 556.76,-181.62 285.87,-241.52 221.42,-171.41 188.11,-135.18 245.93,-93 291.24,-67.59"/>
<polygon fill="green" stroke="green" stroke-width="0.23" points="292.71,-70.78 299.8,-62.9 289.35,-64.63 292.71,-70.78"/>
</g>
<!-- Power Pellet Up&#45;&gt;Move Left -->
<g id="edge22" class="edge">
<title>Power Pellet Up&#45;&gt;Move Left</title>
<path fill="none" stroke="green" stroke-width="0.18" stroke-dasharray="1,5" d="M731.88,-224.12C765.44,-218.72 816.07,-211.24 860.42,-207.41 918.41,-202.4 1863.25,-209.3 1907.42,-171.41 1929.81,-152.21 1935.51,-119.23 1935.78,-91.72"/>
<polygon fill="green" stroke="green" stroke-width="0.18" points="1939.28,-91.71 1935.64,-81.76 1932.28,-91.81 1939.28,-91.71"/>
</g>
<!-- Power Pellet Up&#45;&gt;Move Up -->
<g id="edge23" class="edge">
<title>Power Pellet Up&#45;&gt;Move Up</title>
<path fill="none" stroke="red" stroke-width="0.12" d="M684.79,-221.76C664.79,-202.65 622.53,-156.1 646.42,-123.33 691.99,-60.84 787.96,-46.89 845.33,-44.41"/>
<polygon fill="red" stroke="red" stroke-width="0.12" points="845.17,-47.92 855.05,-44.09 844.94,-40.92 845.17,-47.92"/>
</g>
<!-- Power Pellet Up&#45;&gt;Move Down -->
<g id="edge24" class="edge">
<title>Power Pellet Up&#45;&gt;Move Down</title>
<path fill="none" stroke="green" stroke-width="0.17" d="M731.92,-224.53C765.51,-219.4 816.15,-212.08 860.42,-207.41 970.55,-195.79 1262.29,-228.08 1357.42,-171.41 1365.75,-166.45 1391.65,-124.64 1411.94,-90.37"/>
<polygon fill="green" stroke="green" stroke-width="0.17" points="1414.78,-92.46 1416.84,-82.07 1408.75,-88.91 1414.78,-92.46"/>
</g>
<!-- 9666 -->
<g id="node25" class="node">
<title>9666</title>
<ellipse fill="white" stroke="black" cx="363.42" cy="-147.37" rx="24.04" ry="24.04"/>
<text text-anchor="middle" x="363.42" y="-144.07" font-family="Times,serif" font-size="9.00">9666</text>
</g>
<!-- Power Pellet Up&#45;&gt;9666 -->
<g id="edge73" class="edge">
<title>Power Pellet Up&#45;&gt;9666</title>
<path fill="none" stroke="red" stroke-width="0.27" d="M680.01,-221.73C671.19,-216.78 659.5,-210.89 648.42,-207.41 542.59,-174.14 505.83,-208.92 401.42,-171.41 398.23,-170.26 395.01,-168.83 391.87,-167.24"/>
<polygon fill="red" stroke="red" stroke-width="0.27" points="393.58,-164.19 383.15,-162.35 390.16,-170.29 393.58,-164.19"/>
</g>
<!-- Power Pellet Down -->
<g id="node8" class="node">
<title>Power Pellet Down</title>
<polygon fill="lightblue" stroke="black" points="561.3,-240.7 475.55,-240.7 475.55,-222.2 561.3,-222.2 561.3,-240.7"/>
<text text-anchor="middle" x="518.42" y="-228.15" font-family="Times,serif" font-size="9.00">Power Pellet Down</text>
</g>
<!-- Power Pellet Down&#45;&gt;Move Right -->
<g id="edge25" class="edge">
<title>Power Pellet Down&#45;&gt;Move Right</title>
<path fill="none" stroke="green" stroke-width="0.16" d="M475.14,-230.32C386.14,-229.03 187.42,-220.58 145.42,-171.41 98.16,-116.08 215.4,-75.31 286.95,-56.4"/>
<polygon fill="green" stroke="green" stroke-width="0.16" points="287.68,-59.83 296.49,-53.94 285.93,-53.05 287.68,-59.83"/>
</g>
<!-- Power Pellet Down&#45;&gt;Move Left -->
<g id="edge26" class="edge">
<title>Power Pellet Down&#45;&gt;Move Left</title>
<path fill="none" stroke="green" stroke-width="0.27" stroke-dasharray="1,5" d="M533.8,-221.73C543.88,-216.51 557.52,-210.33 570.42,-207.41 707.67,-176.32 1712.85,-238.74 1836.42,-171.41 1859.18,-159.01 1854.06,-144.2 1869.42,-123.33 1879.67,-109.41 1891.3,-94.44 1901.7,-81.34"/>
<polygon fill="green" stroke="green" stroke-width="0.27" points="1904.24,-83.77 1907.74,-73.77 1898.77,-79.4 1904.24,-83.77"/>
</g>
<!-- Power Pellet Down&#45;&gt;Move Up -->
<g id="edge27" class="edge">
<title>Power Pellet Down&#45;&gt;Move Up</title>
<path fill="none" stroke="green" stroke-width="0.17" d="M525.4,-221.85C542.21,-201.68 587.14,-150.96 635.42,-123.33 703.48,-84.39 792.95,-62.61 846.1,-52.29"/>
<polygon fill="green" stroke="green" stroke-width="0.17" points="846.49,-55.78 855.66,-50.48 845.18,-48.9 846.49,-55.78"/>
</g>
<!-- Power Pellet Down&#45;&gt;Move Down -->
<g id="edge28" class="edge">
<title>Power Pellet Down&#45;&gt;Move Down</title>
<path fill="none" stroke="green" stroke-width="0.28" d="M533.83,-221.83C543.91,-216.64 557.55,-210.47 570.42,-207.41 725.41,-170.52 1147.37,-249.15 1286.42,-171.41 1309.05,-158.76 1300.94,-141.5 1319.42,-123.33 1340.55,-102.56 1367.92,-84.03 1391.08,-70.17"/>
<polygon fill="green" stroke="green" stroke-width="0.28" points="1392.83,-73.2 1399.68,-65.13 1389.29,-67.17 1392.83,-73.2"/>
</g>
<!-- Power Pellet Down&#45;&gt;7814 -->
<g id="edge59" class="edge">
<title>Power Pellet Down&#45;&gt;7814</title>
<path fill="none" stroke="green" stroke-width="0.46" d="M475.06,-229.88C398.58,-227.64 235.69,-217.34 107.42,-171.41 104.23,-170.27 101.01,-168.83 97.87,-167.25"/>
<polygon fill="green" stroke="green" stroke-width="0.46" points="99.82,-164.33 89.38,-162.5 96.4,-170.44 99.82,-164.33"/>
</g>
<!-- Ghost Info Right -->
<g id="node9" class="node">
<title>Ghost Info Right</title>
<polygon fill="lightblue" stroke="black" points="731.8,-156.62 655.05,-156.62 655.05,-138.12 731.8,-138.12 731.8,-156.62"/>
<text text-anchor="middle" x="693.42" y="-144.07" font-family="Times,serif" font-size="9.00">Ghost Info Right</text>
</g>
<!-- Ghost Info Right&#45;&gt;Move Right -->
<g id="edge29" class="edge">
<title>Ghost Info Right&#45;&gt;Move Right</title>
<path fill="none" stroke="green" stroke-width="0.67" stroke-dasharray="1,5" d="M663.07,-137.7C601.72,-120.17 462.45,-80.38 387.46,-58.96"/>
<polygon fill="green" stroke="green" stroke-width="0.67" points="388.87,-55.72 378.29,-56.34 386.94,-62.45 388.87,-55.72"/>
</g>
<!-- Ghost Info Right&#45;&gt;Move Up -->
<g id="edge30" class="edge">
<title>Ghost Info Right&#45;&gt;Move Up</title>
<path fill="none" stroke="green" stroke-width="0.36" d="M710.3,-137.7C741.15,-121.86 807.41,-87.82 850.66,-65.6"/>
<polygon fill="green" stroke="green" stroke-width="0.36" points="852.01,-68.85 859.3,-61.16 848.81,-62.62 852.01,-68.85"/>
</g>
<!-- Ghost Info Right&#45;&gt;Move Down -->
<g id="edge31" class="edge">
<title>Ghost Info Right&#45;&gt;Move Down</title>
<path fill="none" stroke="green" stroke-width="0.34" stroke-dasharray="1,5" d="M707.72,-137.75C716.77,-132.71 728.91,-126.69 740.42,-123.33 861.48,-87.99 1242.53,-58.41 1384.45,-48.34"/>
<polygon fill="green" stroke="green" stroke-width="0.34" points="1384.4,-51.86 1394.13,-47.66 1383.91,-44.87 1384.4,-51.86"/>
</g>
<!-- Ghost Info Left -->
<g id="node10" class="node">
<title>Ghost Info Left</title>
<polygon fill="lightblue" stroke="black" points="1832.17,-240.7 1760.67,-240.7 1760.67,-222.2 1832.17,-222.2 1832.17,-240.7"/>
<text text-anchor="middle" x="1796.42" y="-228.15" font-family="Times,serif" font-size="9.00">Ghost Info Left</text>
</g>
<!-- Ghost Info Left&#45;&gt;Move Right -->
<g id="edge32" class="edge">
<title>Ghost Info Left&#45;&gt;Move Right</title>
<path fill="none" stroke="green" stroke-width="0.24" d="M1760.27,-224.84C1723.62,-219.4 1665.23,-211.4 1614.42,-207.41 1549.31,-202.3 497.89,-200.52 439.42,-171.41 429.62,-166.53 394.27,-121.06 367.92,-85.96"/>
<polygon fill="green" stroke="green" stroke-width="0.24" points="370.78,-83.94 361.98,-78.03 365.17,-88.13 370.78,-83.94"/>
</g>
<!-- Ghost Info Left&#45;&gt;Move Left -->
<g id="edge33" class="edge">
<title>Ghost Info Left&#45;&gt;Move Left</title>
<path fill="none" stroke="red" stroke-width="0.28" d="M1832.51,-224.7C1917.91,-210.99 2125.62,-177.14 2130.42,-171.41 2179.45,-112.96 2051.82,-72.47 1978.62,-54.75"/>
<polygon fill="red" stroke="red" stroke-width="0.28" points="1979.63,-51.39 1969.09,-52.5 1978.02,-58.2 1979.63,-51.39"/>
</g>
<!-- Ghost Info Left&#45;&gt;Move Down -->
<g id="edge34" class="edge">
<title>Ghost Info Left&#45;&gt;Move Down</title>
<path fill="none" stroke="green" stroke-width="0.14" d="M1778.4,-221.71C1757.49,-211.18 1722.43,-192.27 1695.42,-171.41 1671.52,-152.95 1672.79,-139.7 1647.42,-123.33 1598.36,-91.66 1534.69,-70.03 1490.58,-57.58"/>
<polygon fill="green" stroke="green" stroke-width="0.14" points="1491.69,-54.26 1481.12,-54.97 1489.83,-61.01 1491.69,-54.26"/>
</g>
<!-- 9210 -->
<g id="node22" class="node">
<title>9210</title>
<ellipse fill="white" stroke="black" cx="2097.42" cy="-147.37" rx="24.04" ry="24.04"/>
<text text-anchor="middle" x="2097.42" y="-144.07" font-family="Times,serif" font-size="9.00">9210</text>
</g>
<!-- Ghost Info Left&#45;&gt;9210 -->
<g id="edge69" class="edge">
<title>Ghost Info Left&#45;&gt;9210</title>
<path fill="none" stroke="green" stroke-width="0.6" d="M1832.4,-226.14C1884.1,-219.11 1981.73,-202.71 2059.42,-171.41 2062.47,-170.18 2065.56,-168.72 2068.59,-167.15"/>
<polygon fill="green" stroke="green" stroke-width="0.6" points="2070.18,-170.27 2077.15,-162.29 2066.73,-164.18 2070.18,-170.27"/>
</g>
<!-- Ghost Info Up -->
<g id="node11" class="node">
<title>Ghost Info Up</title>
<polygon fill="lightblue" stroke="black" points="1605.67,-240.7 1537.17,-240.7 1537.17,-222.2 1605.67,-222.2 1605.67,-240.7"/>
<text text-anchor="middle" x="1571.42" y="-228.15" font-family="Times,serif" font-size="9.00">Ghost Info Up</text>
</g>
<!-- Ghost Info Up&#45;&gt;Move Right -->
<g id="edge35" class="edge">
<title>Ghost Info Up&#45;&gt;Move Right</title>
<path fill="none" stroke="green" stroke-width="0.38" d="M1536.77,-228.97C1336.49,-220.35 335.78,-177.03 330.42,-171.41 310.94,-150.97 312.71,-119.24 319.34,-92.64"/>
<polygon fill="green" stroke="green" stroke-width="0.38" points="322.64,-93.86 321.94,-83.29 315.89,-91.99 322.64,-93.86"/>
</g>
<!-- Ghost Info Up&#45;&gt;Move Left -->
<g id="edge36" class="edge">
<title>Ghost Info Up&#45;&gt;Move Left</title>
<path fill="none" stroke="red" stroke-width="0.29" stroke-dasharray="1,5" d="M1605.91,-226C1711.07,-212.43 2020.56,-172.39 2021.42,-171.41 2050.01,-138.83 2007.3,-97.23 1971.5,-70.77"/>
<polygon fill="red" stroke="red" stroke-width="0.29" points="1973.58,-67.95 1963.41,-64.96 1969.49,-73.63 1973.58,-67.95"/>
</g>
<!-- Ghost Info Up&#45;&gt;Move Up -->
<g id="edge37" class="edge">
<title>Ghost Info Up&#45;&gt;Move Up</title>
<path fill="none" stroke="green" stroke-width="0.69" stroke-dasharray="1,5" d="M1536.78,-229.56C1431.67,-226.42 1118.04,-213.64 1026.42,-171.41 998.13,-158.37 998.13,-144.66 975.42,-123.33 958.81,-107.72 940.32,-90.39 924.92,-75.99"/>
<polygon fill="green" stroke="green" stroke-width="0.69" points="927.64,-73.74 917.95,-69.46 922.86,-78.85 927.64,-73.74"/>
</g>
<!-- Ghost Info Up&#45;&gt;Move Down -->
<g id="edge38" class="edge">
<title>Ghost Info Up&#45;&gt;Move Down</title>
<path fill="none" stroke="green" stroke-width="0.46" d="M1574.72,-221.94C1581.56,-202.8 1595.13,-155.52 1576.42,-123.33 1557.98,-91.59 1521.42,-71.59 1490.55,-59.7"/>
<polygon fill="green" stroke="green" stroke-width="0.46" points="1492.01,-56.51 1481.41,-56.36 1489.6,-63.08 1492.01,-56.51"/>
</g>
<!-- Ghost Info Up&#45;&gt;9210 -->
<g id="edge72" class="edge">
<title>Ghost Info Up&#45;&gt;9210</title>
<path fill="none" stroke="green" stroke-width="0.15" d="M1605.92,-225.92C1642.14,-221.19 1700.76,-213.61 1751.42,-207.41 1888.22,-190.66 1929.07,-216.16 2059.42,-171.41 2062.73,-170.27 2066.07,-168.82 2069.31,-167.19"/>
<polygon fill="green" stroke="green" stroke-width="0.15" points="2070.89,-170.31 2077.9,-162.38 2067.47,-164.2 2070.89,-170.31"/>
</g>
<!-- Ghost Info Down -->
<g id="node12" class="node">
<title>Ghost Info Down</title>
<polygon fill="lightblue" stroke="black" points="2029.3,-240.7 1949.55,-240.7 1949.55,-222.2 2029.3,-222.2 2029.3,-240.7"/>
<text text-anchor="middle" x="1989.42" y="-228.15" font-family="Times,serif" font-size="9.00">Ghost Info Down</text>
</g>
<!-- Ghost Info Down&#45;&gt;Move Right -->
<g id="edge39" class="edge">
<title>Ghost Info Down&#45;&gt;Move Right</title>
<path fill="none" stroke="red" stroke-width="0.13" stroke-dasharray="1,5" d="M1949.08,-222.74C1919.42,-217.42 1878.07,-210.73 1841.42,-207.41 1765.65,-200.54 540.67,-205.04 472.42,-171.41 447.74,-159.25 452.83,-142.83 433.42,-123.33 416.42,-106.24 395.95,-89.07 378.28,-75.14"/>
<polygon fill="red" stroke="red" stroke-width="0.13" points="380.58,-72.5 370.55,-69.11 376.28,-78.02 380.58,-72.5"/>
</g>
<!-- Ghost Info Down&#45;&gt;Move Left -->
<g id="edge40" class="edge">
<title>Ghost Info Down&#45;&gt;Move Left</title>
<path fill="none" stroke="red" stroke-width="0.4" stroke-dasharray="1,5" d="M2029.64,-229.47C2070.87,-226.05 2133.13,-213.67 2163.42,-171.41 2175.87,-154.04 2175.87,-140.7 2163.42,-123.33 2121.84,-65.32 2035.08,-49.56 1980.25,-45.59"/>
<polygon fill="red" stroke="red" stroke-width="0.4" points="1980.53,-42.1 1970.33,-44.98 1980.1,-49.08 1980.53,-42.1"/>
</g>
<!-- Ghost Info Down&#45;&gt;Move Down -->
<g id="edge41" class="edge">
<title>Ghost Info Down&#45;&gt;Move Down</title>
<path fill="none" stroke="red" stroke-width="0.47" d="M1949.14,-224.42C1885.59,-214.39 1765.51,-193.23 1728.42,-171.41 1703.71,-156.87 1709.49,-138.91 1685.42,-123.33 1625.35,-84.42 1544.58,-63.49 1492.02,-53.22"/>
<polygon fill="red" stroke="red" stroke-width="0.47" points="1492.75,-49.8 1482.27,-51.38 1491.45,-56.68 1492.75,-49.8"/>
</g>
<!-- 8720 -->
<g id="node27" class="node">
<title>8720</title>
<ellipse fill="white" stroke="black" cx="2239.42" cy="-147.37" rx="24.04" ry="24.04"/>
<text text-anchor="middle" x="2239.42" y="-144.07" font-family="Times,serif" font-size="9.00">8720</text>
</g>
<!-- Ghost Info Down&#45;&gt;8720 -->
<g id="edge66" class="edge">
<title>Ghost Info Down&#45;&gt;8720</title>
<path fill="none" stroke="red" stroke-width="0.36" d="M2029.6,-222.7C2073.09,-213.53 2143.92,-196.29 2201.42,-171.41 2204.54,-170.06 2207.71,-168.5 2210.82,-166.83"/>
<polygon fill="red" stroke="red" stroke-width="0.36" points="2212.46,-169.92 2219.39,-161.9 2208.97,-163.85 2212.46,-169.92"/>
</g>
<!-- PAC&#45;MAN Right -->
<g id="node13" class="node">
<title>PAC&#45;MAN Right</title>
<polygon fill="lightblue" stroke="black" points="560.92,-156.62 481.92,-156.62 481.92,-138.12 560.92,-138.12 560.92,-156.62"/>
<text text-anchor="middle" x="521.42" y="-144.07" font-family="Times,serif" font-size="9.00">PAC&#45;MAN Right</text>
</g>
<!-- PAC&#45;MAN Right&#45;&gt;Move Right -->
<g id="edge42" class="edge">
<title>PAC&#45;MAN Right&#45;&gt;Move Right</title>
<path fill="none" stroke="green" stroke-width="0.46" d="M505.74,-137.7C478.86,-122.84 423.06,-92 383.07,-69.9"/>
<polygon fill="green" stroke="green" stroke-width="0.46" points="384.84,-66.87 374.39,-65.1 381.45,-73 384.84,-66.87"/>
</g>
<!-- PAC&#45;MAN Right&#45;&gt;Move Up -->
<g id="edge43" class="edge">
<title>PAC&#45;MAN Right&#45;&gt;Move Up</title>
<path fill="none" stroke="red" stroke-width="0.15" d="M539.64,-137.74C549.98,-133.06 563.25,-127.41 575.42,-123.33 670.12,-91.56 784.6,-66.18 846.47,-53.49"/>
<polygon fill="red" stroke="red" stroke-width="0.15" points="846.98,-56.96 856.09,-51.54 845.59,-50.1 846.98,-56.96"/>
</g>
<!-- PAC&#45;MAN Left -->
<g id="node14" class="node">
<title>PAC&#45;MAN Left</title>
<polygon fill="lightblue" stroke="black" points="1277.3,-156.62 1203.55,-156.62 1203.55,-138.12 1277.3,-138.12 1277.3,-156.62"/>
<text text-anchor="middle" x="1240.42" y="-144.07" font-family="Times,serif" font-size="9.00">PAC&#45;MAN Left</text>
</g>
<!-- PAC&#45;MAN Left&#45;&gt;Move Right -->
<g id="edge44" class="edge">
<title>PAC&#45;MAN Left&#45;&gt;Move Right</title>
<path fill="none" stroke="green" stroke-width="0.12" d="M1226.48,-137.67C1217.64,-132.59 1205.76,-126.56 1194.42,-123.33 1155.51,-112.22 568.57,-63.57 389.14,-48.88"/>
<polygon fill="green" stroke="green" stroke-width="0.12" points="389.59,-45.4 379.33,-48.08 389.01,-52.38 389.59,-45.4"/>
</g>
<!-- PAC&#45;MAN Left&#45;&gt;Move Left -->
<g id="edge45" class="edge">
<title>PAC&#45;MAN Left&#45;&gt;Move Left</title>
<path fill="none" stroke="green" stroke-width="0.4" stroke-dasharray="1,5" d="M1277.62,-142.68C1402.87,-130.22 1802.24,-90.38 1815.42,-87.33 1839.7,-81.71 1865.81,-72.41 1887.11,-63.93"/>
<polygon fill="green" stroke="green" stroke-width="0.4" points="1888.33,-67.21 1896.27,-60.21 1885.69,-60.73 1888.33,-67.21"/>
</g>
<!-- PAC&#45;MAN Left&#45;&gt;Move Up -->
<g id="edge46" class="edge">
<title>PAC&#45;MAN Left&#45;&gt;Move Up</title>
<path fill="none" stroke="green" stroke-width="0.21" d="M1225.04,-137.64C1216.27,-132.93 1204.96,-127.28 1194.42,-123.33 1105.44,-89.92 996.63,-65.44 936.61,-53.29"/>
<polygon fill="green" stroke="green" stroke-width="0.21" points="937.51,-49.9 927.01,-51.37 936.13,-56.76 937.51,-49.9"/>
</g>
<!-- PAC&#45;MAN Left&#45;&gt;Move Down -->
<g id="edge47" class="edge">
<title>PAC&#45;MAN Left&#45;&gt;Move Down</title>
<path fill="none" stroke="green" stroke-width="0.16" d="M1257.3,-137.7C1286.55,-122.67 1347.65,-91.29 1390.77,-69.14"/>
<polygon fill="green" stroke="green" stroke-width="0.16" points="1392.17,-72.36 1399.46,-64.68 1388.97,-66.13 1392.17,-72.36"/>
</g>
<!-- PAC&#45;MAN Up -->
<g id="node15" class="node">
<title>PAC&#45;MAN Up</title>
<polygon fill="lightblue" stroke="black" points="939.8,-240.7 869.05,-240.7 869.05,-222.2 939.8,-222.2 939.8,-240.7"/>
<text text-anchor="middle" x="904.42" y="-228.15" font-family="Times,serif" font-size="9.00">PAC&#45;MAN Up</text>
</g>
<!-- PAC&#45;MAN Up&#45;&gt;Move Right -->
<g id="edge48" class="edge">
<title>PAC&#45;MAN Up&#45;&gt;Move Right</title>
<path fill="none" stroke="green" stroke-width="0.26" d="M868.68,-224.75C835.51,-219.62 784.73,-212.18 740.42,-207.41 687.14,-201.68 295.88,-210.7 259.42,-171.41 232.61,-142.51 265.46,-103.04 296.38,-75.86"/>
<polygon fill="green" stroke="green" stroke-width="0.26" points="298.53,-78.64 303.87,-69.49 293.99,-73.31 298.53,-78.64"/>
</g>
<!-- PAC&#45;MAN Up&#45;&gt;Move Left -->
<g id="edge49" class="edge">
<title>PAC&#45;MAN Up&#45;&gt;Move Left</title>
<path fill="none" stroke="green" stroke-width="0.51" stroke-dasharray="1,5" d="M917.27,-221.76C925.72,-216.55 937.25,-210.37 948.42,-207.41 1002,-193.2 1906.95,-211.3 1945.42,-171.41 1966.3,-149.77 1961.08,-115.41 1951.58,-87.93"/>
<polygon fill="green" stroke="green" stroke-width="0.51" points="1954.98,-87.02 1948.2,-78.88 1948.42,-89.47 1954.98,-87.02"/>
</g>
<!-- PAC&#45;MAN Up&#45;&gt;Move Up -->
<g id="edge50" class="edge">
<title>PAC&#45;MAN Up&#45;&gt;Move Up</title>
<path fill="none" stroke="red" stroke-width="0.41" d="M900.52,-221.88C895.62,-210.59 887.48,-189.99 884.42,-171.41 879.99,-144.51 881.48,-114.02 884.2,-89.68"/>
<polygon fill="red" stroke="red" stroke-width="0.41" points="887.65,-90.28 885.39,-79.93 880.7,-89.43 887.65,-90.28"/>
</g>
<!-- PAC&#45;MAN Up&#45;&gt;Move Down -->
<g id="edge51" class="edge">
<title>PAC&#45;MAN Up&#45;&gt;Move Down</title>
<path fill="none" stroke="green" stroke-width="0.3" d="M917.31,-221.93C925.79,-216.78 937.32,-210.62 948.42,-207.41 1044.16,-179.74 1316.82,-232.67 1395.42,-171.41 1417.91,-153.88 1428.72,-124.04 1433.88,-97.71"/>
<polygon fill="green" stroke="green" stroke-width="0.3" points="1437.32,-98.35 1435.57,-87.9 1430.42,-97.16 1437.32,-98.35"/>
</g>
<!-- PAC&#45;MAN Up&#45;&gt;8346 -->
<g id="edge75" class="edge">
<title>PAC&#45;MAN Up&#45;&gt;8346</title>
<path fill="none" stroke="green" stroke-width="0.35" d="M905.77,-221.98C907.27,-212.48 909.8,-196.5 912.12,-181.85"/>
<polygon fill="green" stroke="green" stroke-width="0.35" points="915.56,-182.49 913.67,-172.06 908.65,-181.39 915.56,-182.49"/>
</g>
<!-- PACM&#45;MAN Down -->
<g id="node16" class="node">
<title>PACM&#45;MAN Down</title>
<polygon fill="lightblue" stroke="black" points="1827.55,-156.62 1737.3,-156.62 1737.3,-138.12 1827.55,-138.12 1827.55,-156.62"/>
<text text-anchor="middle" x="1782.42" y="-144.07" font-family="Times,serif" font-size="9.00">PACM&#45;MAN Down</text>
</g>
<!-- PACM&#45;MAN Down&#45;&gt;Move Left -->
<g id="edge52" class="edge">
<title>PACM&#45;MAN Down&#45;&gt;Move Left</title>
<path fill="none" stroke="green" stroke-width="0.15" d="M1795.13,-137.7C1816.38,-123.19 1859.98,-93.43 1892.18,-71.45"/>
<polygon fill="green" stroke="green" stroke-width="0.15" points="1894.03,-74.42 1900.32,-65.9 1890.09,-68.64 1894.03,-74.42"/>
</g>
<!-- PACM&#45;MAN Down&#45;&gt;Move Up -->
<g id="edge53" class="edge">
<title>PACM&#45;MAN Down&#45;&gt;Move Up</title>
<path fill="none" stroke="red" stroke-width="0.45" stroke-dasharray="1,5" d="M1737.01,-141.19C1584.46,-123.77 1091.34,-67.48 937.62,-49.94"/>
<polygon fill="red" stroke="red" stroke-width="0.45" points="938.15,-46.48 927.82,-48.82 937.36,-53.43 938.15,-46.48"/>
</g>
<!-- PACM&#45;MAN Down&#45;&gt;Move Down -->
<g id="edge54" class="edge">
<title>PACM&#45;MAN Down&#45;&gt;Move Down</title>
<path fill="none" stroke="red" stroke-width="0.37" d="M1761.59,-137.63C1750.38,-133.08 1736.26,-127.59 1723.42,-123.33 1643.24,-96.68 1548.33,-71.78 1490.79,-57.39"/>
<polygon fill="red" stroke="red" stroke-width="0.37" points="1491.93,-54.07 1481.38,-55.05 1490.24,-60.86 1491.93,-54.07"/>
</g>
<!-- 9379 -->
<g id="node23" class="node">
<title>9379</title>
<ellipse fill="white" stroke="black" cx="1782.42" cy="-43.66" rx="24.04" ry="24.04"/>
<text text-anchor="middle" x="1782.42" y="-40.36" font-family="Times,serif" font-size="9.00">9379</text>
</g>
<!-- PACM&#45;MAN Down&#45;&gt;9379 -->
<g id="edge71" class="edge">
<title>PACM&#45;MAN Down&#45;&gt;9379</title>
<path fill="none" stroke="red" stroke-width="0.42" d="M1782.42,-137.7C1782.42,-124.69 1782.42,-99.42 1782.42,-78.49"/>
<polygon fill="red" stroke="red" stroke-width="0.42" points="1785.92,-78.67 1782.42,-68.67 1778.92,-78.67 1785.92,-78.67"/>
</g>
<!-- Power&#45;Up Time -->
<g id="node17" class="node">
<title>Power&#45;Up Time</title>
<polygon fill="lightblue" stroke="black" points="1109.3,-156.62 1035.55,-156.62 1035.55,-138.12 1109.3,-138.12 1109.3,-156.62"/>
<text text-anchor="middle" x="1072.42" y="-144.07" font-family="Times,serif" font-size="9.00">Power&#45;Up Time</text>
</g>
<!-- Power&#45;Up Time&#45;&gt;Move Right -->
<g id="edge55" class="edge">
<title>Power&#45;Up Time&#45;&gt;Move Right</title>
<path fill="none" stroke="red" stroke-width="0.28" stroke-dasharray="1,5" d="M1035.15,-138.74C1011.04,-133.95 978.95,-127.85 950.42,-123.33 743,-90.46 494.41,-61.87 388.86,-50.23"/>
<polygon fill="red" stroke="red" stroke-width="0.28" points="389.55,-46.78 379.23,-49.17 388.78,-53.74 389.55,-46.78"/>
</g>
<!-- Power&#45;Up Time&#45;&gt;Move Left -->
<g id="edge56" class="edge">
<title>Power&#45;Up Time&#45;&gt;Move Left</title>
<path fill="none" stroke="green" stroke-width="0.28" stroke-dasharray="1,5" d="M1085.92,-137.74C1094.79,-132.55 1106.85,-126.38 1118.42,-123.33 1418.35,-44.19 1511.54,-149.57 1815.42,-87.33 1840.03,-82.29 1866.39,-72.93 1887.76,-64.27"/>
<polygon fill="green" stroke="green" stroke-width="0.28" points="1888.91,-67.58 1896.81,-60.51 1886.23,-61.11 1888.91,-67.58"/>
</g>
<!-- Power&#45;Up Time&#45;&gt;Move Up -->
<g id="edge57" class="edge">
<title>Power&#45;Up Time&#45;&gt;Move Up</title>
<path fill="none" stroke="red" stroke-width="0.74" d="M1056.99,-137.7C1029.57,-122.29 971.5,-89.66 931.97,-67.45"/>
<polygon fill="red" stroke="red" stroke-width="0.74" points="933.76,-64.44 923.33,-62.59 930.33,-70.54 933.76,-64.44"/>
</g>
<!-- 9210&#45;&gt;Move Left -->
<g id="edge70" class="edge">
<title>9210&#45;&gt;Move Left</title>
<path fill="none" stroke="green" stroke-width="0.13" stroke-dasharray="1,5" d="M2077.07,-133.9C2051.08,-117.98 2005.5,-90.05 1972.24,-69.67"/>
<polygon fill="green" stroke="green" stroke-width="0.13" points="1974.16,-66.74 1963.8,-64.5 1970.5,-72.71 1974.16,-66.74"/>
</g>
<!-- 7814&#45;&gt;Move Right -->
<g id="edge60" class="edge">
<title>7814&#45;&gt;Move Right</title>
<path fill="none" stroke="green" stroke-width="0.34" d="M89.09,-133.34C94.86,-129.82 101.27,-126.2 107.42,-123.33 167.26,-95.35 239.9,-72.18 287.33,-58.4"/>
<polygon fill="green" stroke="green" stroke-width="0.34" points="288.21,-61.78 296.85,-55.66 286.28,-55.06 288.21,-61.78"/>
</g>
<!-- 9666&#45;&gt;Move Right -->
<g id="edge76" class="edge">
<title>9666&#45;&gt;Move Right</title>
<path fill="none" stroke="green" stroke-width="0.29" d="M357.59,-123.54C355.34,-114.76 352.68,-104.35 350.04,-94.02"/>
<polygon fill="green" stroke="green" stroke-width="0.29" points="353.51,-93.45 347.64,-84.62 346.72,-95.18 353.51,-93.45"/>
</g>
<!-- 9666&#45;&gt;Move Up -->
<g id="edge74" class="edge">
<title>9666&#45;&gt;Move Up</title>
<path fill="none" stroke="red" stroke-width="0.54" d="M386.78,-141.27C408.83,-136.5 442.83,-129.23 472.42,-123.33 607.95,-96.28 768.68,-66.84 845.75,-52.89"/>
<polygon fill="red" stroke="red" stroke-width="0.54" points="846.03,-56.39 855.24,-51.17 844.78,-49.51 846.03,-56.39"/>
</g>
<!-- 8136&#45;&gt;Move Right -->
<g id="edge62" class="edge">
<title>8136&#45;&gt;Move Right</title>
<path fill="none" stroke="green" stroke-width="0.39" d="M54.78,-212.38C38.15,-189.53 15.85,-149.97 36.42,-123.33 66.71,-84.1 208.25,-60.69 285.97,-50.58"/>
<polygon fill="green" stroke="green" stroke-width="0.39" points="285.97,-54.11 295.45,-49.37 285.09,-47.16 285.97,-54.11"/>
</g>
<!-- 8136&#45;&gt;7814 -->
<g id="edge68" class="edge">
<title>8136&#45;&gt;7814</title>
<path fill="none" stroke="red" stroke-width="0.49" d="M69.42,-207.15C69.42,-199.44 69.42,-190.69 69.42,-182.35"/>
<polygon fill="red" stroke="red" stroke-width="0.49" points="72.92,-182.46 69.42,-172.46 65.92,-182.46 72.92,-182.46"/>
</g>
<!-- 8720&#45;&gt;Move Left -->
<g id="edge67" class="edge">
<title>8720&#45;&gt;Move Left</title>
<path fill="none" stroke="red" stroke-width="0.25" d="M2219.84,-133.15C2214.07,-129.64 2207.64,-126.06 2201.42,-123.33 2126.32,-90.3 2033.48,-66.74 1978.54,-54.45"/>
<polygon fill="red" stroke="red" stroke-width="0.25" points="1979.64,-51.1 1969.12,-52.36 1978.13,-57.94 1979.64,-51.1"/>
</g>
<!-- 8346&#45;&gt;Move Up -->
<g id="edge65" class="edge">
<title>8346&#45;&gt;Move Up</title>
<path fill="none" stroke="red" stroke-width="0.37" d="M911.59,-123.54C908.94,-113.2 905.73,-100.61 902.64,-88.56"/>
<polygon fill="red" stroke="red" stroke-width="0.37" points="906.11,-87.99 900.24,-79.16 899.33,-89.72 906.11,-87.99"/>
</g>
</g>
</svg>
