<?xml version="1.0" encoding="UTF-8" standalone="no"?>
<!DOCTYPE svg PUBLIC "-//W3C//DTD SVG 1.1//EN"
 "http://www.w3.org/Graphics/SVG/1.1/DTD/svg11.dtd">
<!-- Generated by graphviz version 12.0.0 (20240704.0754)
 -->
<!-- Pages: 1 -->
<svg width="1475pt" height="442pt"
 viewBox="0.00 0.00 1474.53 442.38" xmlns="http://www.w3.org/2000/svg" xmlns:xlink="http://www.w3.org/1999/xlink">
<g id="graph0" class="graph" transform="scale(1 1) rotate(0) translate(4 438.38)">
<polygon fill="white" stroke="none" points="-4,4 -4,-438.38 1470.53,-438.38 1470.53,4 -4,4"/>
<!-- Pellet Right -->
<g id="node1" class="node">
<title>Pellet Right</title>
<polygon fill="lightblue" stroke="black" points="183.66,-434.38 126.41,-434.38 126.41,-415.88 183.66,-415.88 183.66,-434.38"/>
<text text-anchor="middle" x="155.03" y="-421.83" font-family="Times,serif" font-size="9.00">Pellet Right</text>
</g>
<!-- Move Right -->
<g id="node18" class="node">
<title>Move Right</title>
<ellipse fill="lightblue" stroke="black" cx="227.03" cy="-155.32" rx="41.54" ry="41.54"/>
<text text-anchor="middle" x="227.03" y="-152.02" font-family="Times,serif" font-size="9.00">Move Right</text>
</g>
<!-- Pellet Right&#45;&gt;Move Right -->
<g id="edge1" class="edge">
<title>Pellet Right&#45;&gt;Move Right</title>
<path fill="none" stroke="green" stroke-width="0.49" stroke-dasharray="1,5" d="M154.86,-415.55C154.59,-388.28 155.72,-301.53 179.03,-234.99 183.46,-222.36 190.12,-209.59 197.08,-198.11"/>
<polygon fill="green" stroke="green" stroke-width="0.49" points="199.92,-200.17 202.29,-189.84 194,-196.43 199.92,-200.17"/>
</g>
<!-- Move Left -->
<g id="node19" class="node">
<title>Move Left</title>
<ellipse fill="lightblue" stroke="black" cx="1042.03" cy="-37.83" rx="37.83" ry="37.83"/>
<text text-anchor="middle" x="1042.03" y="-34.53" font-family="Times,serif" font-size="9.00">Move Left</text>
</g>
<!-- Pellet Right&#45;&gt;Move Left -->
<g id="edge2" class="edge">
<title>Pellet Right&#45;&gt;Move Left</title>
<path fill="none" stroke="red" stroke-width="0.24" d="M126.99,-415.45C107.55,-408.32 82.02,-396.66 64.03,-379.88 14.01,-333.2 -18.52,-296.2 12.03,-234.99 52.77,-153.39 90.82,-144.16 176.03,-111.66 327.52,-53.89 834.96,-41.79 993.96,-39.39"/>
<polygon fill="red" stroke="red" stroke-width="0.24" points="993.62,-42.9 1003.57,-39.25 993.52,-35.9 993.62,-42.9"/>
</g>
<!-- Move Up -->
<g id="node20" class="node">
<title>Move Up</title>
<ellipse fill="lightblue" stroke="black" cx="1042.03" cy="-155.32" rx="35.71" ry="35.71"/>
<text text-anchor="middle" x="1042.03" y="-152.02" font-family="Times,serif" font-size="9.00">Move Up</text>
</g>
<!-- Pellet Right&#45;&gt;Move Up -->
<g id="edge3" class="edge">
<title>Pellet Right&#45;&gt;Move Up</title>
<path fill="none" stroke="red" stroke-width="0.11" stroke-dasharray="1,5" d="M183.98,-423.2C316.04,-418.37 860.61,-392.44 989.03,-289.44 1015.97,-267.83 1029.28,-230.52 1035.82,-200.89"/>
<polygon fill="red" stroke="red" stroke-width="0.11" points="1039.2,-201.83 1037.75,-191.33 1032.34,-200.44 1039.2,-201.83"/>
</g>
<!-- 15274 -->
<g id="node23" class="node">
<title>15274</title>
<ellipse fill="white" stroke="black" cx="1171.03" cy="-352.66" rx="27.22" ry="27.22"/>
<text text-anchor="middle" x="1171.03" y="-349.36" font-family="Times,serif" font-size="9.00">15274</text>
</g>
<!-- Pellet Right&#45;&gt;15274 -->
<g id="edge39" class="edge">
<title>Pellet Right&#45;&gt;15274</title>
<path fill="none" stroke="red" stroke-width="0.42" d="M184.07,-422.12C328.57,-412.1 969.56,-367.63 1133,-356.3"/>
<polygon fill="red" stroke="red" stroke-width="0.42" points="1133.14,-359.8 1142.87,-355.61 1132.65,-352.81 1133.14,-359.8"/>
</g>
<!-- 16599 -->
<g id="node24" class="node">
<title>16599</title>
<ellipse fill="white" stroke="black" cx="100.03" cy="-352.66" rx="27.22" ry="27.22"/>
<text text-anchor="middle" x="100.03" y="-349.36" font-family="Times,serif" font-size="9.00">16599</text>
</g>
<!-- Pellet Right&#45;&gt;16599 -->
<g id="edge43" class="edge">
<title>Pellet Right&#45;&gt;16599</title>
<path fill="none" stroke="green" stroke-width="0.3" d="M148.29,-415.49C141.9,-407.31 131.95,-394.55 122.73,-382.75"/>
<polygon fill="green" stroke="green" stroke-width="0.3" points="125.72,-380.88 116.81,-375.15 120.2,-385.19 125.72,-380.88"/>
</g>
<!-- Pellet Left -->
<g id="node2" class="node">
<title>Pellet Left</title>
<polygon fill="lightblue" stroke="black" points="1088.03,-271.46 1036.03,-271.46 1036.03,-252.96 1088.03,-252.96 1088.03,-271.46"/>
<text text-anchor="middle" x="1062.03" y="-258.91" font-family="Times,serif" font-size="9.00">Pellet Left</text>
</g>
<!-- Pellet Left&#45;&gt;Move Up -->
<g id="edge4" class="edge">
<title>Pellet Left&#45;&gt;Move Up</title>
<path fill="none" stroke="red" stroke-width="0.59" d="M1060.4,-252.63C1058.24,-241.32 1054.29,-220.59 1050.6,-201.25"/>
<polygon fill="red" stroke="red" stroke-width="0.59" points="1054.07,-200.76 1048.76,-191.59 1047.19,-202.07 1054.07,-200.76"/>
</g>
<!-- Pellet Up -->
<g id="node3" class="node">
<title>Pellet Up</title>
<polygon fill="lightblue" stroke="black" points="1274.53,-434.38 1225.53,-434.38 1225.53,-415.88 1274.53,-415.88 1274.53,-434.38"/>
<text text-anchor="middle" x="1250.03" y="-421.83" font-family="Times,serif" font-size="9.00">Pellet Up</text>
</g>
<!-- Pellet Up&#45;&gt;Move Left -->
<g id="edge5" class="edge">
<title>Pellet Up&#45;&gt;Move Left</title>
<path fill="none" stroke="green" stroke-width="0.32" d="M1268.82,-415.42C1284.46,-407.57 1306.71,-394.98 1323.03,-379.88 1359.38,-346.27 1372.86,-336.55 1388.03,-289.44 1412.62,-213.09 1414.28,-167.83 1357.03,-111.66 1319.55,-74.89 1168.6,-52.96 1090.06,-43.83"/>
<polygon fill="green" stroke="green" stroke-width="0.32" points="1090.75,-40.38 1080.41,-42.73 1089.95,-47.34 1090.75,-40.38"/>
</g>
<!-- Pellet Up&#45;&gt;Move Up -->
<g id="edge6" class="edge">
<title>Pellet Up&#45;&gt;Move Up</title>
<path fill="none" stroke="green" stroke-width="0.28" stroke-dasharray="1,5" d="M1247.42,-415.42C1241.82,-397.54 1227.48,-355.84 1207.03,-325.44 1204.41,-321.54 1121.04,-236.61 1073.84,-188.63"/>
<polygon fill="green" stroke="green" stroke-width="0.28" points="1076.39,-186.23 1066.89,-181.56 1071.4,-191.14 1076.39,-186.23"/>
</g>
<!-- Pellet Up&#45;&gt;15274 -->
<g id="edge33" class="edge">
<title>Pellet Up&#45;&gt;15274</title>
<path fill="none" stroke="red" stroke-width="0.37" d="M1240.35,-415.49C1230.06,-406.31 1213.31,-391.38 1198.86,-378.48"/>
<polygon fill="red" stroke="red" stroke-width="0.37" points="1201.34,-376 1191.55,-371.96 1196.68,-381.22 1201.34,-376"/>
</g>
<!-- Pellet Down -->
<g id="node4" class="node">
<title>Pellet Down</title>
<polygon fill="lightblue" stroke="black" points="483.16,-271.46 422.91,-271.46 422.91,-252.96 483.16,-252.96 483.16,-271.46"/>
<text text-anchor="middle" x="453.03" y="-258.91" font-family="Times,serif" font-size="9.00">Pellet Down</text>
</g>
<!-- Pellet Down&#45;&gt;Move Left -->
<g id="edge7" class="edge">
<title>Pellet Down&#45;&gt;Move Left</title>
<path fill="none" stroke="green" stroke-width="0.42" d="M454.66,-252.65C460.12,-226.55 480.36,-147.52 531.03,-111.66 605,-59.32 880.98,-44.23 993.66,-40.19"/>
<polygon fill="green" stroke="green" stroke-width="0.42" points="993.53,-43.7 1003.4,-39.86 993.29,-36.7 993.53,-43.7"/>
</g>
<!-- Move Down -->
<g id="node21" class="node">
<title>Move Down</title>
<ellipse fill="lightblue" stroke="black" cx="584.03" cy="-155.32" rx="43.66" ry="43.66"/>
<text text-anchor="middle" x="584.03" y="-152.02" font-family="Times,serif" font-size="9.00">Move Down</text>
</g>
<!-- Pellet Down&#45;&gt;Move Down -->
<g id="edge8" class="edge">
<title>Pellet Down&#45;&gt;Move Down</title>
<path fill="none" stroke="green" stroke-width="0.32" stroke-dasharray="1,5" d="M463.75,-252.63C480.72,-239.05 514.64,-211.88 542.15,-189.86"/>
<polygon fill="green" stroke="green" stroke-width="0.32" points="544.09,-192.79 549.71,-183.81 539.71,-187.33 544.09,-192.79"/>
</g>
<!-- Power Pellet Right -->
<g id="node5" class="node">
<title>Power Pellet Right</title>
<polygon fill="lightblue" stroke="black" points="1116.41,-434.38 1033.66,-434.38 1033.66,-415.88 1116.41,-415.88 1116.41,-434.38"/>
<text text-anchor="middle" x="1075.03" y="-421.83" font-family="Times,serif" font-size="9.00">Power Pellet Right</text>
</g>
<!-- Power Pellet Right&#45;&gt;Move Right -->
<g id="edge45" class="edge">
<title>Power Pellet Right&#45;&gt;Move Right</title>
<path fill="none" stroke="red" stroke-width="0.16" d="M1033.38,-424.48C875.68,-424.83 318.74,-416.9 212.03,-289.44 192.27,-265.83 196.96,-231.04 206.1,-202.94"/>
<polygon fill="red" stroke="red" stroke-width="0.16" points="209.39,-204.14 209.4,-193.54 202.78,-201.82 209.39,-204.14"/>
</g>
<!-- Power Pellet Right&#45;&gt;Move Up -->
<g id="edge9" class="edge">
<title>Power Pellet Right&#45;&gt;Move Up</title>
<path fill="none" stroke="red" stroke-width="0.41" stroke-dasharray="1,5" d="M1078.48,-415.6C1088.91,-388.49 1118.19,-302.15 1097.03,-234.99 1091.98,-218.95 1082.37,-203.34 1072.58,-190.3"/>
<polygon fill="red" stroke="red" stroke-width="0.41" points="1075.48,-188.33 1066.55,-182.62 1069.97,-192.65 1075.48,-188.33"/>
</g>
<!-- Power Pellet Right&#45;&gt;15274 -->
<g id="edge36" class="edge">
<title>Power Pellet Right&#45;&gt;15274</title>
<path fill="none" stroke="green" stroke-width="0.24" d="M1086.81,-415.49C1100.27,-405.61 1122.81,-389.06 1141.19,-375.57"/>
<polygon fill="green" stroke="green" stroke-width="0.24" points="1143.01,-378.57 1149,-369.83 1138.87,-372.93 1143.01,-378.57"/>
</g>
<!-- Power Pellet Left -->
<g id="node6" class="node">
<title>Power Pellet Left</title>
<polygon fill="lightblue" stroke="black" points="708.78,-271.46 631.28,-271.46 631.28,-252.96 708.78,-252.96 708.78,-271.46"/>
<text text-anchor="middle" x="670.03" y="-258.91" font-family="Times,serif" font-size="9.00">Power Pellet Left</text>
</g>
<!-- Power Pellet Left&#45;&gt;Move Right -->
<g id="edge10" class="edge">
<title>Power Pellet Left&#45;&gt;Move Right</title>
<path fill="none" stroke="red" stroke-width="0.34" stroke-dasharray="1,5" d="M643.46,-252.51C626.54,-247.13 604.12,-240.25 584.03,-234.99 476.01,-206.66 347.81,-180.11 278.22,-166.28"/>
<polygon fill="red" stroke="red" stroke-width="0.34" points="278.96,-162.86 268.48,-164.35 277.61,-169.72 278.96,-162.86"/>
</g>
<!-- Power Pellet Left&#45;&gt;Move Up -->
<g id="edge11" class="edge">
<title>Power Pellet Left&#45;&gt;Move Up</title>
<path fill="none" stroke="red" stroke-width="0.35" d="M683.44,-252.65C692.82,-246.97 705.81,-239.72 718.03,-234.99 813.92,-197.9 932.71,-174.41 996.47,-163.5"/>
<polygon fill="red" stroke="red" stroke-width="0.35" points="996.8,-167 1006.08,-161.88 995.63,-160.09 996.8,-167"/>
</g>
<!-- Power Pellet Left&#45;&gt;Move Down -->
<g id="edge12" class="edge">
<title>Power Pellet Left&#45;&gt;Move Down</title>
<path fill="none" stroke="green" stroke-width="0.1" d="M663,-252.63C653.11,-240.57 634.44,-217.8 617.73,-197.42"/>
<polygon fill="green" stroke="green" stroke-width="0.1" points="620.6,-195.4 611.55,-189.88 615.18,-199.83 620.6,-195.4"/>
</g>
<!-- Power Pellet Up -->
<g id="node7" class="node">
<title>Power Pellet Up</title>
<polygon fill="lightblue" stroke="black" points="891.28,-271.46 816.78,-271.46 816.78,-252.96 891.28,-252.96 891.28,-271.46"/>
<text text-anchor="middle" x="854.03" y="-258.91" font-family="Times,serif" font-size="9.00">Power Pellet Up</text>
</g>
<!-- Power Pellet Up&#45;&gt;Move Left -->
<g id="edge13" class="edge">
<title>Power Pellet Up&#45;&gt;Move Left</title>
<path fill="none" stroke="red" stroke-width="0.13" stroke-dasharray="1,5" d="M859.16,-252.61C873.49,-228.88 915.86,-160.96 960.03,-111.66 973.78,-96.32 990.54,-80.95 1005.32,-68.3"/>
<polygon fill="red" stroke="red" stroke-width="0.13" points="1007.31,-71.21 1012.69,-62.08 1002.79,-65.86 1007.31,-71.21"/>
</g>
<!-- Power Pellet Up&#45;&gt;Move Up -->
<g id="edge14" class="edge">
<title>Power Pellet Up&#45;&gt;Move Up</title>
<path fill="none" stroke="red" stroke-width="0.5" stroke-dasharray="1,5" d="M869.42,-252.63C898.06,-236.65 960.39,-201.88 1001.78,-178.78"/>
<polygon fill="red" stroke="red" stroke-width="0.5" points="1003.35,-181.92 1010.38,-173.99 999.94,-175.8 1003.35,-181.92"/>
</g>
<!-- Power Pellet Up&#45;&gt;Move Down -->
<g id="edge15" class="edge">
<title>Power Pellet Up&#45;&gt;Move Down</title>
<path fill="none" stroke="green" stroke-width="0.42" d="M840.29,-252.5C831.32,-247.05 819.24,-240.1 808.03,-234.99 750.68,-208.83 681.91,-185.85 635.83,-171.59"/>
<polygon fill="green" stroke="green" stroke-width="0.42" points="636.99,-168.28 626.4,-168.69 634.93,-174.97 636.99,-168.28"/>
</g>
<!-- Power Pellet Down -->
<g id="node8" class="node">
<title>Power Pellet Down</title>
<polygon fill="lightblue" stroke="black" points="404.91,-271.46 319.16,-271.46 319.16,-252.96 404.91,-252.96 404.91,-271.46"/>
<text text-anchor="middle" x="362.03" y="-258.91" font-family="Times,serif" font-size="9.00">Power Pellet Down</text>
</g>
<!-- Power Pellet Down&#45;&gt;Move Right -->
<g id="edge16" class="edge">
<title>Power Pellet Down&#45;&gt;Move Right</title>
<path fill="none" stroke="green" stroke-width="0.26" d="M350.99,-252.63C332.97,-238.63 296.38,-210.21 267.61,-187.85"/>
<polygon fill="green" stroke="green" stroke-width="0.26" points="270.08,-185.34 260.04,-181.96 265.78,-190.86 270.08,-185.34"/>
</g>
<!-- Power Pellet Down&#45;&gt;Move Down -->
<g id="edge17" class="edge">
<title>Power Pellet Down&#45;&gt;Move Down</title>
<path fill="none" stroke="green" stroke-width="0.28" stroke-dasharray="1,5" d="M378.82,-252.56C388.98,-247.38 402.2,-240.71 414.03,-234.99 454.58,-215.39 501.01,-193.98 535.08,-178.45"/>
<polygon fill="green" stroke="green" stroke-width="0.28" points="536.31,-181.73 543.97,-174.41 533.41,-175.36 536.31,-181.73"/>
</g>
<!-- Ghost Info Right -->
<g id="node9" class="node">
<title>Ghost Info Right</title>
<polygon fill="lightblue" stroke="black" points="1369.41,-434.38 1292.66,-434.38 1292.66,-415.88 1369.41,-415.88 1369.41,-434.38"/>
<text text-anchor="middle" x="1331.03" y="-421.83" font-family="Times,serif" font-size="9.00">Ghost Info Right</text>
</g>
<!-- Ghost Info Left -->
<g id="node10" class="node">
<title>Ghost Info Left</title>
<polygon fill="lightblue" stroke="black" points="798.78,-271.46 727.28,-271.46 727.28,-252.96 798.78,-252.96 798.78,-271.46"/>
<text text-anchor="middle" x="763.03" y="-258.91" font-family="Times,serif" font-size="9.00">Ghost Info Left</text>
</g>
<!-- Ghost Info Left&#45;&gt;Move Right -->
<g id="edge18" class="edge">
<title>Ghost Info Left&#45;&gt;Move Right</title>
<path fill="none" stroke="red" stroke-width="0.41" stroke-dasharray="1,5" d="M751.03,-252.56C742.3,-246.69 729.96,-239.25 718.03,-234.99 677.05,-220.34 395.95,-179.96 278.46,-163.47"/>
<polygon fill="red" stroke="red" stroke-width="0.41" points="279.28,-160.05 268.89,-162.13 278.31,-166.98 279.28,-160.05"/>
</g>
<!-- Ghost Info Left&#45;&gt;Move Left -->
<g id="edge19" class="edge">
<title>Ghost Info Left&#45;&gt;Move Left</title>
<path fill="none" stroke="green" stroke-width="0.11" stroke-dasharray="1,5" d="M768.31,-252.68C783.97,-227.95 832.6,-155.23 889.03,-111.66 921.88,-86.3 964.99,-66.77 997.08,-54.35"/>
<polygon fill="green" stroke="green" stroke-width="0.11" points="997.96,-57.76 1006.07,-50.94 995.48,-51.21 997.96,-57.76"/>
</g>
<!-- Ghost Info Left&#45;&gt;Move Up -->
<g id="edge20" class="edge">
<title>Ghost Info Left&#45;&gt;Move Up</title>
<path fill="none" stroke="red" stroke-width="0.23" d="M776.05,-252.68C784.84,-247.15 796.84,-240.07 808.03,-234.99 871.98,-205.97 949.93,-181.87 997.76,-168.29"/>
<polygon fill="red" stroke="red" stroke-width="0.23" points="998.47,-171.72 1007.15,-165.64 996.58,-164.98 998.47,-171.72"/>
</g>
<!-- Ghost Info Up -->
<g id="node11" class="node">
<title>Ghost Info Up</title>
<polygon fill="lightblue" stroke="black" points="89.28,-271.46 20.78,-271.46 20.78,-252.96 89.28,-252.96 89.28,-271.46"/>
<text text-anchor="middle" x="55.03" y="-258.91" font-family="Times,serif" font-size="9.00">Ghost Info Up</text>
</g>
<!-- Ghost Info Up&#45;&gt;Move Right -->
<g id="edge21" class="edge">
<title>Ghost Info Up&#45;&gt;Move Right</title>
<path fill="none" stroke="green" stroke-width="0.31" stroke-dasharray="1,5" d="M69.11,-252.63C93.7,-237.64 145.42,-206.09 182.99,-183.18"/>
<polygon fill="green" stroke="green" stroke-width="0.31" points="184.62,-186.29 191.34,-178.09 180.98,-180.31 184.62,-186.29"/>
</g>
<!-- Ghost Info Down -->
<g id="node12" class="node">
<title>Ghost Info Down</title>
<polygon fill="lightblue" stroke="black" points="300.91,-271.46 221.16,-271.46 221.16,-252.96 300.91,-252.96 300.91,-271.46"/>
<text text-anchor="middle" x="261.03" y="-258.91" font-family="Times,serif" font-size="9.00">Ghost Info Down</text>
</g>
<!-- Ghost Info Down&#45;&gt;Move Right -->
<g id="edge22" class="edge">
<title>Ghost Info Down&#45;&gt;Move Right</title>
<path fill="none" stroke="green" stroke-width="0.11" d="M258.25,-252.63C254.79,-241.96 248.62,-222.92 242.67,-204.57"/>
<polygon fill="green" stroke="green" stroke-width="0.11" points="246.06,-203.67 239.65,-195.24 239.4,-205.83 246.06,-203.67"/>
</g>
<!-- Ghost Info Down&#45;&gt;Move Left -->
<g id="edge23" class="edge">
<title>Ghost Info Down&#45;&gt;Move Left</title>
<path fill="none" stroke="red" stroke-width="0.27" stroke-dasharray="1,5" d="M269.43,-252.53C295.61,-226.07 379.23,-146.13 466.03,-111.66 561.97,-73.56 873.1,-49.81 993.67,-41.83"/>
<polygon fill="red" stroke="red" stroke-width="0.27" points="993.9,-45.32 1003.65,-41.18 993.44,-38.34 993.9,-45.32"/>
</g>
<!-- Ghost Info Down&#45;&gt;Move Down -->
<g id="edge24" class="edge">
<title>Ghost Info Down&#45;&gt;Move Down</title>
<path fill="none" stroke="green" stroke-width="0.17" stroke-dasharray="1,5" d="M275.23,-252.58C284.81,-247.01 297.88,-239.92 310.03,-234.99 384.88,-204.62 475.65,-181 531.63,-167.87"/>
<polygon fill="green" stroke="green" stroke-width="0.17" points="532.12,-171.35 541.07,-165.68 530.54,-164.53 532.12,-171.35"/>
</g>
<!-- PAC&#45;MAN Right -->
<g id="node13" class="node">
<title>PAC&#45;MAN Right</title>
<polygon fill="lightblue" stroke="black" points="1466.53,-434.38 1387.53,-434.38 1387.53,-415.88 1466.53,-415.88 1466.53,-434.38"/>
<text text-anchor="middle" x="1427.03" y="-421.83" font-family="Times,serif" font-size="9.00">PAC&#45;MAN Right</text>
</g>
<!-- PAC&#45;MAN Left -->
<g id="node14" class="node">
<title>PAC&#45;MAN Left</title>
<polygon fill="lightblue" stroke="black" points="574.91,-271.46 501.16,-271.46 501.16,-252.96 574.91,-252.96 574.91,-271.46"/>
<text text-anchor="middle" x="538.03" y="-258.91" font-family="Times,serif" font-size="9.00">PAC&#45;MAN Left</text>
</g>
<!-- PAC&#45;MAN Left&#45;&gt;Move Down -->
<g id="edge25" class="edge">
<title>PAC&#45;MAN Left&#45;&gt;Move Down</title>
<path fill="none" stroke="red" stroke-width="0.32" d="M541.8,-252.63C546.44,-242.05 554.7,-223.22 562.69,-205"/>
<polygon fill="red" stroke="red" stroke-width="0.32" points="565.81,-206.58 566.63,-196.02 559.4,-203.77 565.81,-206.58"/>
</g>
<!-- PAC&#45;MAN Up -->
<g id="node15" class="node">
<title>PAC&#45;MAN Up</title>
<polygon fill="lightblue" stroke="black" points="980.41,-271.46 909.66,-271.46 909.66,-252.96 980.41,-252.96 980.41,-271.46"/>
<text text-anchor="middle" x="945.03" y="-258.91" font-family="Times,serif" font-size="9.00">PAC&#45;MAN Up</text>
</g>
<!-- PAC&#45;MAN Up&#45;&gt;Move Left -->
<g id="edge26" class="edge">
<title>PAC&#45;MAN Up&#45;&gt;Move Left</title>
<path fill="none" stroke="red" stroke-width="0.26" d="M947.33,-252.52C953.68,-229.11 972.59,-163.04 997.03,-111.66 1002.37,-100.44 1009.02,-88.78 1015.56,-78.17"/>
<polygon fill="red" stroke="red" stroke-width="0.26" points="1018.42,-80.2 1020.78,-69.87 1012.49,-76.47 1018.42,-80.2"/>
</g>
<!-- PAC&#45;MAN Up&#45;&gt;Move Up -->
<g id="edge27" class="edge">
<title>PAC&#45;MAN Up&#45;&gt;Move Up</title>
<path fill="none" stroke="red" stroke-width="0.22" stroke-dasharray="1,5" d="M952.97,-252.63C965.6,-238.97 990.93,-211.59 1011.35,-189.5"/>
<polygon fill="red" stroke="red" stroke-width="0.22" points="1013.89,-191.91 1018.11,-182.19 1008.76,-187.15 1013.89,-191.91"/>
</g>
<!-- PAC&#45;MAN Up&#45;&gt;Move Down -->
<g id="edge28" class="edge">
<title>PAC&#45;MAN Up&#45;&gt;Move Down</title>
<path fill="none" stroke="red" stroke-width="0.27" stroke-dasharray="1,5" d="M932.53,-252.63C923.77,-246.94 911.6,-239.68 900.03,-234.99 811.16,-198.89 701.28,-176.09 637.28,-164.81"/>
<polygon fill="red" stroke="red" stroke-width="0.27" points="638.27,-161.43 627.82,-163.17 637.07,-168.33 638.27,-161.43"/>
</g>
<!-- PACM&#45;MAN Down -->
<g id="node16" class="node">
<title>PACM&#45;MAN Down</title>
<polygon fill="lightblue" stroke="black" points="1344.16,-271.46 1253.91,-271.46 1253.91,-252.96 1344.16,-252.96 1344.16,-271.46"/>
<text text-anchor="middle" x="1299.03" y="-258.91" font-family="Times,serif" font-size="9.00">PACM&#45;MAN Down</text>
</g>
<!-- PACM&#45;MAN Down&#45;&gt;Move Left -->
<g id="edge29" class="edge">
<title>PACM&#45;MAN Down&#45;&gt;Move Left</title>
<path fill="none" stroke="green" stroke-width="0.25" stroke-dasharray="1,5" d="M1297.98,-252.79C1294.41,-227.73 1280.52,-152.83 1238.03,-111.66 1197.37,-72.25 1133.48,-53.83 1089.78,-45.45"/>
<polygon fill="green" stroke="green" stroke-width="0.25" points="1090.52,-42.03 1080.06,-43.69 1089.27,-48.91 1090.52,-42.03"/>
</g>
<!-- PACM&#45;MAN Down&#45;&gt;Move Up -->
<g id="edge30" class="edge">
<title>PACM&#45;MAN Down&#45;&gt;Move Up</title>
<path fill="none" stroke="red" stroke-width="0.37" d="M1282.18,-252.58C1271.61,-247.28 1257.65,-240.48 1245.03,-234.99 1190.78,-211.35 1126.94,-187.2 1085.55,-172"/>
<polygon fill="red" stroke="red" stroke-width="0.37" points="1086.9,-168.77 1076.31,-168.62 1084.5,-175.35 1086.9,-168.77"/>
</g>
<!-- Power&#45;Up Time -->
<g id="node17" class="node">
<title>Power&#45;Up Time</title>
<polygon fill="lightblue" stroke="black" points="1207.91,-434.38 1134.16,-434.38 1134.16,-415.88 1207.91,-415.88 1207.91,-434.38"/>
<text text-anchor="middle" x="1171.03" y="-421.83" font-family="Times,serif" font-size="9.00">Power&#45;Up Time</text>
</g>
<!-- Power&#45;Up Time&#45;&gt;Move Left -->
<g id="edge31" class="edge">
<title>Power&#45;Up Time&#45;&gt;Move Left</title>
<path fill="none" stroke="red" stroke-width="0.13" stroke-dasharray="1,5" d="M1197.68,-415.51C1243.05,-399.2 1333.96,-359.1 1371.03,-289.44 1382.4,-268.07 1375.58,-258.76 1371.03,-234.99 1359.95,-177.06 1366.24,-150.71 1322.03,-111.66 1256.73,-53.98 1151.37,-41.03 1090.22,-38.67"/>
<polygon fill="red" stroke="red" stroke-width="0.13" points="1090.36,-35.18 1080.26,-38.37 1090.15,-42.17 1090.36,-35.18"/>
</g>
<!-- Power&#45;Up Time&#45;&gt;Move Down -->
<g id="edge32" class="edge">
<title>Power&#45;Up Time&#45;&gt;Move Down</title>
<path fill="none" stroke="red" stroke-width="0.11" stroke-dasharray="1,5" d="M1133.78,-417.23C1016.41,-395.19 659.76,-325.77 622.03,-289.44 600.45,-268.65 590.88,-236.53 586.74,-209.05"/>
<polygon fill="red" stroke="red" stroke-width="0.11" points="590.23,-208.8 585.47,-199.34 583.29,-209.71 590.23,-208.8"/>
</g>
<!-- Power&#45;Up Time&#45;&gt;15274 -->
<g id="edge35" class="edge">
<title>Power&#45;Up Time&#45;&gt;15274</title>
<path fill="none" stroke="green" stroke-width="0.16" d="M1171.03,-415.49C1171.03,-409.07 1171.03,-399.82 1171.03,-390.43"/>
<polygon fill="green" stroke="green" stroke-width="0.16" points="1174.53,-390.56 1171.03,-380.56 1167.53,-390.56 1174.53,-390.56"/>
</g>
<!-- 15778 -->
<g id="node22" class="node">
<title>15778</title>
<ellipse fill="white" stroke="black" cx="1209.03" cy="-262.21" rx="27.22" ry="27.22"/>
<text text-anchor="middle" x="1209.03" y="-258.91" font-family="Times,serif" font-size="9.00">15778</text>
</g>
<!-- 15778&#45;&gt;Move Left -->
<g id="edge38" class="edge">
<title>15778&#45;&gt;Move Left</title>
<path fill="none" stroke="green" stroke-width="0.3" stroke-dasharray="1,5" d="M1193.02,-239.89C1164.76,-202.25 1105.68,-123.58 1070.38,-76.58"/>
<polygon fill="green" stroke="green" stroke-width="0.3" points="1073.38,-74.74 1064.57,-68.84 1067.78,-78.94 1073.38,-74.74"/>
</g>
<!-- 15778&#45;&gt;Move Up -->
<g id="edge42" class="edge">
<title>15778&#45;&gt;Move Up</title>
<path fill="none" stroke="red" stroke-width="0.24" d="M1186.51,-246.74C1180.51,-242.91 1174.03,-238.78 1168.03,-234.99 1138.91,-216.58 1105.87,-195.97 1080.93,-180.46"/>
<polygon fill="red" stroke="red" stroke-width="0.24" points="1082.79,-177.49 1072.45,-175.18 1079.09,-183.43 1082.79,-177.49"/>
</g>
<!-- 16505 -->
<g id="node25" class="node">
<title>16505</title>
<ellipse fill="white" stroke="black" cx="1202.03" cy="-155.32" rx="27.22" ry="27.22"/>
<text text-anchor="middle" x="1202.03" y="-152.02" font-family="Times,serif" font-size="9.00">16505</text>
</g>
<!-- 15778&#45;&gt;16505 -->
<g id="edge40" class="edge">
<title>15778&#45;&gt;16505</title>
<path fill="none" stroke="green" stroke-width="0.33" d="M1207.27,-234.74C1206.42,-222.07 1205.4,-206.7 1204.48,-192.93"/>
<polygon fill="green" stroke="green" stroke-width="0.33" points="1207.99,-193.03 1203.83,-183.28 1201.01,-193.49 1207.99,-193.03"/>
</g>
<!-- 15274&#45;&gt;Move Left -->
<g id="edge34" class="edge">
<title>15274&#45;&gt;Move Left</title>
<path fill="none" stroke="green" stroke-width="0.41" d="M1198.66,-351.48C1240.19,-349.53 1317.59,-339.01 1353.03,-289.44 1367.11,-269.75 1359.77,-258.23 1353.03,-234.99 1334.99,-172.69 1326.47,-151.16 1275.03,-111.66 1220.27,-69.61 1140.85,-51.58 1090.33,-44.03"/>
<polygon fill="green" stroke="green" stroke-width="0.41" points="1091.02,-40.6 1080.63,-42.67 1090.04,-47.53 1091.02,-40.6"/>
</g>
<!-- 15274&#45;&gt;15778 -->
<g id="edge37" class="edge">
<title>15274&#45;&gt;15778</title>
<path fill="none" stroke="red" stroke-width="0.51" d="M1181.42,-327.49C1185.41,-318.21 1190.04,-307.43 1194.35,-297.38"/>
<polygon fill="red" stroke="red" stroke-width="0.51" points="1197.49,-298.94 1198.22,-288.37 1191.06,-296.18 1197.49,-298.94"/>
</g>
<!-- 16599&#45;&gt;Move Right -->
<g id="edge44" class="edge">
<title>16599&#45;&gt;Move Right</title>
<path fill="none" stroke="green" stroke-width="0.59" d="M105.24,-325.9C111.1,-301.1 122.33,-263.29 141.03,-234.99 152.91,-217.02 169.78,-200.39 185.43,-187.1"/>
<polygon fill="green" stroke="green" stroke-width="0.59" points="187.3,-190.09 192.79,-181.03 182.85,-184.69 187.3,-190.09"/>
</g>
<!-- 16505&#45;&gt;Move Left -->
<g id="edge41" class="edge">
<title>16505&#45;&gt;Move Left</title>
<path fill="none" stroke="green" stroke-width="0.38" d="M1181.08,-137.65C1170.9,-129.66 1158.43,-120.03 1147.03,-111.66 1125.69,-96 1101.43,-79.11 1081.61,-65.54"/>
<polygon fill="green" stroke="green" stroke-width="0.38" points="1083.84,-62.83 1073.6,-60.08 1079.89,-68.61 1083.84,-62.83"/>
</g>
</g>
</svg>
