<?xml version="1.0" encoding="UTF-8" standalone="no"?>
<!DOCTYPE svg PUBLIC "-//W3C//DTD SVG 1.1//EN"
 "http://www.w3.org/Graphics/SVG/1.1/DTD/svg11.dtd">
<!-- Generated by graphviz version 12.0.0 (20240704.0754)
 -->
<!-- Pages: 1 -->
<svg width="1492pt" height="240pt"
 viewBox="0.00 0.00 1492.12 240.27" xmlns="http://www.w3.org/2000/svg" xmlns:xlink="http://www.w3.org/1999/xlink">
<g id="graph0" class="graph" transform="scale(1 1) rotate(0) translate(4 236.27)">
<polygon fill="white" stroke="none" points="-4,4 -4,-236.27 1488.12,-236.27 1488.12,4 -4,4"/>
<!-- Pellet Right -->
<g id="node1" class="node">
<title>Pellet Right</title>
<polygon fill="lightblue" stroke="black" points="434.88,-159.8 377.62,-159.8 377.62,-141.3 434.88,-141.3 434.88,-159.8"/>
<text text-anchor="middle" x="406.25" y="-147.25" font-family="Times,serif" font-size="9.00">Pellet Right</text>
</g>
<!-- Move Right -->
<g id="node18" class="node">
<title>Move Right</title>
<ellipse fill="lightblue" stroke="black" cx="225.25" cy="-43.66" rx="41.54" ry="41.54"/>
<text text-anchor="middle" x="225.25" y="-40.36" font-family="Times,serif" font-size="9.00">Move Right</text>
</g>
<!-- Pellet Right&#45;&gt;Move Right -->
<g id="edge1" class="edge">
<title>Pellet Right&#45;&gt;Move Right</title>
<path fill="none" stroke="green" stroke-width="0.19" stroke-dasharray="1,5" d="M395.38,-141.03C388.01,-135.51 377.89,-128.43 368.25,-123.33 329.07,-102.6 313.31,-110.03 275.25,-87.33 271.18,-84.9 267.11,-82.13 263.15,-79.2"/>
<polygon fill="green" stroke="green" stroke-width="0.19" points="265.48,-76.58 255.44,-73.2 261.18,-82.11 265.48,-76.58"/>
</g>
<!-- Move Left -->
<g id="node19" class="node">
<title>Move Left</title>
<ellipse fill="lightblue" stroke="black" cx="322.25" cy="-43.66" rx="37.83" ry="37.83"/>
<text text-anchor="middle" x="322.25" y="-40.36" font-family="Times,serif" font-size="9.00">Move Left</text>
</g>
<!-- Pellet Right&#45;&gt;Move Left -->
<g id="edge2" class="edge">
<title>Pellet Right&#45;&gt;Move Left</title>
<path fill="none" stroke="green" stroke-width="0.41" stroke-dasharray="1,5" d="M399.38,-140.97C389.14,-128.18 369.26,-103.36 352.25,-82.12"/>
<polygon fill="green" stroke="green" stroke-width="0.41" points="355.03,-80 346.05,-74.38 349.57,-84.37 355.03,-80"/>
</g>
<!-- Move Up -->
<g id="node20" class="node">
<title>Move Up</title>
<ellipse fill="lightblue" stroke="black" cx="528.25" cy="-43.66" rx="35.71" ry="35.71"/>
<text text-anchor="middle" x="528.25" y="-40.36" font-family="Times,serif" font-size="9.00">Move Up</text>
</g>
<!-- Pellet Right&#45;&gt;Move Up -->
<g id="edge3" class="edge">
<title>Pellet Right&#45;&gt;Move Up</title>
<path fill="none" stroke="green" stroke-width="0.2" d="M416.23,-140.97C433.02,-126.54 467.63,-96.79 493.96,-74.14"/>
<polygon fill="green" stroke="green" stroke-width="0.2" points="495.96,-77.04 501.27,-67.86 491.4,-71.73 495.96,-77.04"/>
</g>
<!-- 22858 -->
<g id="node23" class="node">
<title>22858</title>
<ellipse fill="white" stroke="black" cx="406.25" cy="-43.66" rx="27.22" ry="27.22"/>
<text text-anchor="middle" x="406.25" y="-40.36" font-family="Times,serif" font-size="9.00">22858</text>
</g>
<!-- Pellet Right&#45;&gt;22858 -->
<g id="edge16" class="edge">
<title>Pellet Right&#45;&gt;22858</title>
<path fill="none" stroke="green" stroke-width="0.22" d="M406.25,-140.97C406.25,-128.02 406.25,-102.72 406.25,-81.3"/>
<polygon fill="green" stroke="green" stroke-width="0.22" points="409.75,-81.5 406.25,-71.5 402.75,-81.5 409.75,-81.5"/>
</g>
<!-- Pellet Left -->
<g id="node2" class="node">
<title>Pellet Left</title>
<polygon fill="lightblue" stroke="black" points="750.25,-232.27 698.25,-232.27 698.25,-213.77 750.25,-213.77 750.25,-232.27"/>
<text text-anchor="middle" x="724.25" y="-219.72" font-family="Times,serif" font-size="9.00">Pellet Left</text>
</g>
<!-- Pellet Up -->
<g id="node3" class="node">
<title>Pellet Up</title>
<polygon fill="lightblue" stroke="black" points="817.75,-232.27 768.75,-232.27 768.75,-213.77 817.75,-213.77 817.75,-232.27"/>
<text text-anchor="middle" x="793.25" y="-219.72" font-family="Times,serif" font-size="9.00">Pellet Up</text>
</g>
<!-- Pellet Down -->
<g id="node4" class="node">
<title>Pellet Down</title>
<polygon fill="lightblue" stroke="black" points="896.38,-232.27 836.12,-232.27 836.12,-213.77 896.38,-213.77 896.38,-232.27"/>
<text text-anchor="middle" x="866.25" y="-219.72" font-family="Times,serif" font-size="9.00">Pellet Down</text>
</g>
<!-- Power Pellet Right -->
<g id="node5" class="node">
<title>Power Pellet Right</title>
<polygon fill="lightblue" stroke="black" points="266.62,-159.8 183.88,-159.8 183.88,-141.3 266.62,-141.3 266.62,-159.8"/>
<text text-anchor="middle" x="225.25" y="-147.25" font-family="Times,serif" font-size="9.00">Power Pellet Right</text>
</g>
<!-- Power Pellet Right&#45;&gt;Move Right -->
<g id="edge9" class="edge">
<title>Power Pellet Right&#45;&gt;Move Right</title>
<path fill="none" stroke="green" stroke-width="0.28" d="M225.25,-140.97C225.25,-130.82 225.25,-113.11 225.25,-95.61"/>
<polygon fill="green" stroke="green" stroke-width="0.28" points="228.75,-95.82 225.25,-85.82 221.75,-95.82 228.75,-95.82"/>
</g>
<!-- Power Pellet Right&#45;&gt;Move Left -->
<g id="edge11" class="edge">
<title>Power Pellet Right&#45;&gt;Move Left</title>
<path fill="none" stroke="green" stroke-width="0.55" stroke-dasharray="1,5" d="M233.19,-140.97C245.44,-127.72 269.64,-101.55 289.72,-79.84"/>
<polygon fill="green" stroke="green" stroke-width="0.55" points="292.12,-82.4 296.34,-72.68 286.98,-77.64 292.12,-82.4"/>
</g>
<!-- Power Pellet Right&#45;&gt;Move Up -->
<g id="edge14" class="edge">
<title>Power Pellet Right&#45;&gt;Move Up</title>
<path fill="none" stroke="red" stroke-width="0.37" d="M239.52,-140.93C249.51,-135.22 263.32,-127.96 276.25,-123.33 347.31,-97.85 371,-112.29 442.25,-87.33 457.86,-81.86 474.3,-74.21 488.57,-66.91"/>
<polygon fill="red" stroke="red" stroke-width="0.37" points="489.86,-70.18 497.1,-62.44 486.62,-63.98 489.86,-70.18"/>
</g>
<!-- Move Down -->
<g id="node21" class="node">
<title>Move Down</title>
<ellipse fill="lightblue" stroke="black" cx="122.25" cy="-43.66" rx="43.66" ry="43.66"/>
<text text-anchor="middle" x="122.25" y="-40.36" font-family="Times,serif" font-size="9.00">Move Down</text>
</g>
<!-- Power Pellet Right&#45;&gt;Move Down -->
<g id="edge15" class="edge">
<title>Power Pellet Right&#45;&gt;Move Down</title>
<path fill="none" stroke="red" stroke-width="0.11" d="M216.82,-140.97C204.3,-128.22 180.04,-103.51 159.22,-82.31"/>
<polygon fill="red" stroke="red" stroke-width="0.11" points="161.94,-80.08 152.43,-75.4 156.94,-84.99 161.94,-80.08"/>
</g>
<!-- Power Pellet Left -->
<g id="node6" class="node">
<title>Power Pellet Left</title>
<polygon fill="lightblue" stroke="black" points="680,-232.27 602.5,-232.27 602.5,-213.77 680,-213.77 680,-232.27"/>
<text text-anchor="middle" x="641.25" y="-219.72" font-family="Times,serif" font-size="9.00">Power Pellet Left</text>
</g>
<!-- Power Pellet Left&#45;&gt;Move Up -->
<g id="edge4" class="edge">
<title>Power Pellet Left&#45;&gt;Move Up</title>
<path fill="none" stroke="green" stroke-width="0.21" stroke-dasharray="1,5" d="M658.09,-213.32C670.64,-205.79 686.83,-193.63 694.25,-177.77 704.5,-155.86 707.19,-143.78 694.25,-123.33 667.98,-81.8 613.19,-61.77 573.74,-52.39"/>
<polygon fill="green" stroke="green" stroke-width="0.21" points="574.63,-49.01 564.11,-50.25 573.11,-55.84 574.63,-49.01"/>
</g>
<!-- 23081 -->
<g id="node22" class="node">
<title>23081</title>
<ellipse fill="white" stroke="black" cx="569.25" cy="-150.55" rx="27.22" ry="27.22"/>
<text text-anchor="middle" x="569.25" y="-147.25" font-family="Times,serif" font-size="9.00">23081</text>
</g>
<!-- Power Pellet Left&#45;&gt;23081 -->
<g id="edge17" class="edge">
<title>Power Pellet Left&#45;&gt;23081</title>
<path fill="none" stroke="green" stroke-width="0.29" d="M632.42,-213.38C623.32,-204.47 608.67,-190.14 595.78,-177.51"/>
<polygon fill="green" stroke="green" stroke-width="0.29" points="598.35,-175.14 588.76,-170.65 593.46,-180.14 598.35,-175.14"/>
</g>
<!-- Power Pellet Up -->
<g id="node7" class="node">
<title>Power Pellet Up</title>
<polygon fill="lightblue" stroke="black" points="359.5,-159.8 285,-159.8 285,-141.3 359.5,-141.3 359.5,-159.8"/>
<text text-anchor="middle" x="322.25" y="-147.25" font-family="Times,serif" font-size="9.00">Power Pellet Up</text>
</g>
<!-- Power Pellet Up&#45;&gt;Move Left -->
<g id="edge5" class="edge">
<title>Power Pellet Up&#45;&gt;Move Left</title>
<path fill="none" stroke="green" stroke-width="0.25" stroke-dasharray="1,5" d="M322.25,-140.97C322.25,-130.15 322.25,-110.72 322.25,-92.13"/>
<polygon fill="green" stroke="green" stroke-width="0.25" points="325.75,-92.33 322.25,-82.33 318.75,-92.33 325.75,-92.33"/>
</g>
<!-- Power Pellet Down -->
<g id="node8" class="node">
<title>Power Pellet Down</title>
<polygon fill="lightblue" stroke="black" points="1000.12,-232.27 914.38,-232.27 914.38,-213.77 1000.12,-213.77 1000.12,-232.27"/>
<text text-anchor="middle" x="957.25" y="-219.72" font-family="Times,serif" font-size="9.00">Power Pellet Down</text>
</g>
<!-- Ghost Info Right -->
<g id="node9" class="node">
<title>Ghost Info Right</title>
<polygon fill="lightblue" stroke="black" points="1094.62,-232.27 1017.88,-232.27 1017.88,-213.77 1094.62,-213.77 1094.62,-232.27"/>
<text text-anchor="middle" x="1056.25" y="-219.72" font-family="Times,serif" font-size="9.00">Ghost Info Right</text>
</g>
<!-- Ghost Info Left -->
<g id="node10" class="node">
<title>Ghost Info Left</title>
<polygon fill="lightblue" stroke="black" points="524,-159.8 452.5,-159.8 452.5,-141.3 524,-141.3 524,-159.8"/>
<text text-anchor="middle" x="488.25" y="-147.25" font-family="Times,serif" font-size="9.00">Ghost Info Left</text>
</g>
<!-- Ghost Info Left&#45;&gt;Move Left -->
<g id="edge12" class="edge">
<title>Ghost Info Left&#45;&gt;Move Left</title>
<path fill="none" stroke="green" stroke-width="0.19" stroke-dasharray="1,5" d="M474.55,-140.98C465.95,-135.7 454.58,-128.91 444.25,-123.33 412.07,-105.95 400.65,-107.67 370.25,-87.33 365.73,-84.31 361.2,-80.89 356.81,-77.33"/>
<polygon fill="green" stroke="green" stroke-width="0.19" points="359.23,-74.8 349.33,-71.03 354.72,-80.15 359.23,-74.8"/>
</g>
<!-- Ghost Info Left&#45;&gt;Move Up -->
<g id="edge6" class="edge">
<title>Ghost Info Left&#45;&gt;Move Up</title>
<path fill="none" stroke="green" stroke-width="0.43" stroke-dasharray="1,5" d="M491.52,-140.97C496.02,-129.16 504.44,-107.1 512.08,-87.07"/>
<polygon fill="green" stroke="green" stroke-width="0.43" points="515.33,-88.35 515.63,-77.76 508.79,-85.86 515.33,-88.35"/>
</g>
<!-- Ghost Info Up -->
<g id="node11" class="node">
<title>Ghost Info Up</title>
<polygon fill="lightblue" stroke="black" points="68.5,-159.8 0,-159.8 0,-141.3 68.5,-141.3 68.5,-159.8"/>
<text text-anchor="middle" x="34.25" y="-147.25" font-family="Times,serif" font-size="9.00">Ghost Info Up</text>
</g>
<!-- Ghost Info Up&#45;&gt;Move Right -->
<g id="edge7" class="edge">
<title>Ghost Info Up&#45;&gt;Move Right</title>
<path fill="none" stroke="red" stroke-width="0.25" stroke-dasharray="1,5" d="M47.38,-140.87C55.95,-135.42 67.5,-128.47 78.25,-123.33 119.73,-103.47 135.59,-110.61 175.25,-87.33 179.34,-84.93 183.42,-82.18 187.39,-79.26"/>
<polygon fill="red" stroke="red" stroke-width="0.25" points="189.28,-82.23 195.03,-73.33 184.99,-76.7 189.28,-82.23"/>
</g>
<!-- Ghost Info Down -->
<g id="node12" class="node">
<title>Ghost Info Down</title>
<polygon fill="lightblue" stroke="black" points="1192.12,-232.27 1112.38,-232.27 1112.38,-213.77 1192.12,-213.77 1192.12,-232.27"/>
<text text-anchor="middle" x="1152.25" y="-219.72" font-family="Times,serif" font-size="9.00">Ghost Info Down</text>
</g>
<!-- PAC&#45;MAN Right -->
<g id="node13" class="node">
<title>PAC&#45;MAN Right</title>
<polygon fill="lightblue" stroke="black" points="165.75,-159.8 86.75,-159.8 86.75,-141.3 165.75,-141.3 165.75,-159.8"/>
<text text-anchor="middle" x="126.25" y="-147.25" font-family="Times,serif" font-size="9.00">PAC&#45;MAN Right</text>
</g>
<!-- PAC&#45;MAN Right&#45;&gt;Move Left -->
<g id="edge13" class="edge">
<title>PAC&#45;MAN Right&#45;&gt;Move Left</title>
<path fill="none" stroke="red" stroke-width="0.22" d="M140.97,-140.93C150.56,-135.5 163.43,-128.56 175.25,-123.33 218.82,-104.03 235.5,-112.04 276.25,-87.33 280.56,-84.71 284.82,-81.65 288.9,-78.38"/>
<polygon fill="red" stroke="red" stroke-width="0.22" points="290.9,-81.28 296.25,-72.13 286.37,-75.94 290.9,-81.28"/>
</g>
<!-- PAC&#45;MAN Right&#45;&gt;Move Down -->
<g id="edge10" class="edge">
<title>PAC&#45;MAN Right&#45;&gt;Move Down</title>
<path fill="none" stroke="red" stroke-width="0.14" d="M125.92,-140.97C125.55,-131.15 124.9,-114.24 124.26,-97.3"/>
<polygon fill="red" stroke="red" stroke-width="0.14" points="127.77,-97.46 123.89,-87.6 120.77,-97.72 127.77,-97.46"/>
</g>
<!-- PAC&#45;MAN Left -->
<g id="node14" class="node">
<title>PAC&#45;MAN Left</title>
<polygon fill="lightblue" stroke="black" points="1284.12,-232.27 1210.38,-232.27 1210.38,-213.77 1284.12,-213.77 1284.12,-232.27"/>
<text text-anchor="middle" x="1247.25" y="-219.72" font-family="Times,serif" font-size="9.00">PAC&#45;MAN Left</text>
</g>
<!-- PAC&#45;MAN Up -->
<g id="node15" class="node">
<title>PAC&#45;MAN Up</title>
<polygon fill="lightblue" stroke="black" points="685.62,-159.8 614.88,-159.8 614.88,-141.3 685.62,-141.3 685.62,-159.8"/>
<text text-anchor="middle" x="650.25" y="-147.25" font-family="Times,serif" font-size="9.00">PAC&#45;MAN Up</text>
</g>
<!-- PAC&#45;MAN Up&#45;&gt;Move Up -->
<g id="edge8" class="edge">
<title>PAC&#45;MAN Up&#45;&gt;Move Up</title>
<path fill="none" stroke="green" stroke-width="0.31" stroke-dasharray="1,5" d="M640.27,-140.97C623.56,-126.6 589.17,-97.04 562.88,-74.44"/>
<polygon fill="green" stroke="green" stroke-width="0.31" points="565.23,-71.84 555.37,-67.98 560.67,-77.15 565.23,-71.84"/>
</g>
<!-- PACM&#45;MAN Down -->
<g id="node16" class="node">
<title>PACM&#45;MAN Down</title>
<polygon fill="lightblue" stroke="black" points="1392.38,-232.27 1302.12,-232.27 1302.12,-213.77 1392.38,-213.77 1392.38,-232.27"/>
<text text-anchor="middle" x="1347.25" y="-219.72" font-family="Times,serif" font-size="9.00">PACM&#45;MAN Down</text>
</g>
<!-- Power&#45;Up Time -->
<g id="node17" class="node">
<title>Power&#45;Up Time</title>
<polygon fill="lightblue" stroke="black" points="1484.12,-232.27 1410.38,-232.27 1410.38,-213.77 1484.12,-213.77 1484.12,-232.27"/>
<text text-anchor="middle" x="1447.25" y="-219.72" font-family="Times,serif" font-size="9.00">Power&#45;Up Time</text>
</g>
<!-- 23081&#45;&gt;Move Up -->
<g id="edge18" class="edge">
<title>23081&#45;&gt;Move Up</title>
<path fill="none" stroke="red" stroke-width="0.27" d="M559.53,-124.69C555.12,-113.4 549.77,-99.71 544.75,-86.88"/>
<polygon fill="red" stroke="red" stroke-width="0.27" points="548.05,-85.7 541.15,-77.66 541.53,-88.25 548.05,-85.7"/>
</g>
</g>
</svg>
