<?xml version="1.0" encoding="UTF-8" standalone="no"?>
<!DOCTYPE svg PUBLIC "-//W3C//DTD SVG 1.1//EN"
 "http://www.w3.org/Graphics/SVG/1.1/DTD/svg11.dtd">
<!-- Generated by graphviz version 12.0.0 (20240704.0754)
 -->
<!-- Pages: 1 -->
<svg width="1547pt" height="395pt"
 viewBox="0.00 0.00 1547.25 395.31" xmlns="http://www.w3.org/2000/svg" xmlns:xlink="http://www.w3.org/1999/xlink">
<g id="graph0" class="graph" transform="scale(1 1) rotate(0) translate(4 391.31)">
<polygon fill="white" stroke="none" points="-4,4 -4,-391.31 1543.25,-391.31 1543.25,4 -4,4"/>
<!-- Pellet Right -->
<g id="node1" class="node">
<title>Pellet Right</title>
<polygon fill="lightblue" stroke="black" points="401,-369.33 343.75,-369.33 343.75,-350.83 401,-350.83 401,-369.33"/>
<text text-anchor="middle" x="372.38" y="-356.78" font-family="Times,serif" font-size="9.00">Pellet Right</text>
</g>
<!-- Move Up -->
<g id="node20" class="node">
<title>Move Up</title>
<ellipse fill="lightblue" stroke="black" cx="372.38" cy="-255.32" rx="35.71" ry="35.71"/>
<text text-anchor="middle" x="372.38" y="-252.02" font-family="Times,serif" font-size="9.00">Move Up</text>
</g>
<!-- Pellet Right&#45;&gt;Move Up -->
<g id="edge1" class="edge">
<title>Pellet Right&#45;&gt;Move Up</title>
<path fill="none" stroke="green" stroke-width="0.19" stroke-dasharray="1,5" d="M372.38,-350.67C372.38,-339.83 372.38,-320.16 372.38,-301.58"/>
<polygon fill="green" stroke="green" stroke-width="0.19" points="375.88,-301.72 372.38,-291.72 368.88,-301.72 375.88,-301.72"/>
</g>
<!-- Pellet Left -->
<g id="node2" class="node">
<title>Pellet Left</title>
<polygon fill="lightblue" stroke="black" points="890.38,-369.33 838.38,-369.33 838.38,-350.83 890.38,-350.83 890.38,-369.33"/>
<text text-anchor="middle" x="864.38" y="-356.78" font-family="Times,serif" font-size="9.00">Pellet Left</text>
</g>
<!-- Pellet Up -->
<g id="node3" class="node">
<title>Pellet Up</title>
<polygon fill="lightblue" stroke="black" points="902.88,-264.57 853.88,-264.57 853.88,-246.07 902.88,-246.07 902.88,-264.57"/>
<text text-anchor="middle" x="878.38" y="-252.02" font-family="Times,serif" font-size="9.00">Pellet Up</text>
</g>
<!-- 20554 -->
<g id="node23" class="node">
<title>20554</title>
<ellipse fill="white" stroke="black" cx="878.38" cy="-150.55" rx="27.22" ry="27.22"/>
<text text-anchor="middle" x="878.38" y="-147.25" font-family="Times,serif" font-size="9.00">20554</text>
</g>
<!-- Pellet Up&#45;&gt;20554 -->
<g id="edge20" class="edge">
<title>Pellet Up&#45;&gt;20554</title>
<path fill="none" stroke="red" stroke-width="0.12" d="M878.38,-245.91C878.38,-233.36 878.38,-208.98 878.38,-188.14"/>
<polygon fill="red" stroke="red" stroke-width="0.12" points="881.88,-188.14 878.38,-178.14 874.88,-188.14 881.88,-188.14"/>
</g>
<!-- Pellet Down -->
<g id="node4" class="node">
<title>Pellet Down</title>
<polygon fill="lightblue" stroke="black" points="161.5,-369.33 101.25,-369.33 101.25,-350.83 161.5,-350.83 161.5,-369.33"/>
<text text-anchor="middle" x="131.38" y="-356.78" font-family="Times,serif" font-size="9.00">Pellet Down</text>
</g>
<!-- Move Left -->
<g id="node19" class="node">
<title>Move Left</title>
<ellipse fill="lightblue" stroke="black" cx="206.38" cy="-255.32" rx="37.83" ry="37.83"/>
<text text-anchor="middle" x="206.38" y="-252.02" font-family="Times,serif" font-size="9.00">Move Left</text>
</g>
<!-- Pellet Down&#45;&gt;Move Left -->
<g id="edge2" class="edge">
<title>Pellet Down&#45;&gt;Move Left</title>
<path fill="none" stroke="green" stroke-width="0.72" d="M137.51,-350.67C146.35,-338.56 163.23,-315.43 178.07,-295.11"/>
<polygon fill="green" stroke="green" stroke-width="0.72" points="180.77,-297.34 183.84,-287.2 175.12,-293.21 180.77,-297.34"/>
</g>
<!-- Power Pellet Right -->
<g id="node5" class="node">
<title>Power Pellet Right</title>
<polygon fill="lightblue" stroke="black" points="82.75,-369.33 0,-369.33 0,-350.83 82.75,-350.83 82.75,-369.33"/>
<text text-anchor="middle" x="41.38" y="-356.78" font-family="Times,serif" font-size="9.00">Power Pellet Right</text>
</g>
<!-- Power Pellet Right&#45;&gt;Move Left -->
<g id="edge9" class="edge">
<title>Power Pellet Right&#45;&gt;Move Left</title>
<path fill="none" stroke="red" stroke-width="0.33" stroke-dasharray="1,5" d="M55.16,-350.5C79.22,-335.51 129.76,-304.04 165.78,-281.6"/>
<polygon fill="red" stroke="red" stroke-width="0.33" points="167.54,-284.63 174.17,-276.37 163.84,-278.69 167.54,-284.63"/>
</g>
<!-- 21839 -->
<g id="node26" class="node">
<title>21839</title>
<ellipse fill="white" stroke="black" cx="41.38" cy="-255.32" rx="27.22" ry="27.22"/>
<text text-anchor="middle" x="41.38" y="-252.02" font-family="Times,serif" font-size="9.00">21839</text>
</g>
<!-- Power Pellet Right&#45;&gt;21839 -->
<g id="edge21" class="edge">
<title>Power Pellet Right&#45;&gt;21839</title>
<path fill="none" stroke="green" stroke-width="0.4" d="M41.38,-350.67C41.38,-338.18 41.38,-313.97 41.38,-293.19"/>
<polygon fill="green" stroke="green" stroke-width="0.4" points="44.88,-293.33 41.38,-283.33 37.88,-293.33 44.88,-293.33"/>
</g>
<!-- Power Pellet Left -->
<g id="node6" class="node">
<title>Power Pellet Left</title>
<polygon fill="lightblue" stroke="black" points="655.12,-264.57 577.62,-264.57 577.62,-246.07 655.12,-246.07 655.12,-264.57"/>
<text text-anchor="middle" x="616.38" y="-252.02" font-family="Times,serif" font-size="9.00">Power Pellet Left</text>
</g>
<!-- Move Down -->
<g id="node21" class="node">
<title>Move Down</title>
<ellipse fill="lightblue" stroke="black" cx="645.38" cy="-43.66" rx="43.66" ry="43.66"/>
<text text-anchor="middle" x="645.38" y="-40.36" font-family="Times,serif" font-size="9.00">Move Down</text>
</g>
<!-- Power Pellet Left&#45;&gt;Move Down -->
<g id="edge3" class="edge">
<title>Power Pellet Left&#45;&gt;Move Down</title>
<path fill="none" stroke="green" stroke-width="0.41" stroke-dasharray="1,5" d="M617.58,-245.58C621.02,-220.76 631.03,-148.39 638.04,-97.67"/>
<polygon fill="green" stroke="green" stroke-width="0.41" points="641.5,-98.19 639.41,-87.8 634.57,-97.23 641.5,-98.19"/>
</g>
<!-- 22659 -->
<g id="node22" class="node">
<title>22659</title>
<ellipse fill="white" stroke="black" cx="590.38" cy="-150.55" rx="27.22" ry="27.22"/>
<text text-anchor="middle" x="590.38" y="-147.25" font-family="Times,serif" font-size="9.00">22659</text>
</g>
<!-- Power Pellet Left&#45;&gt;22659 -->
<g id="edge25" class="edge">
<title>Power Pellet Left&#45;&gt;22659</title>
<path fill="none" stroke="green" stroke-width="0.11" d="M614.25,-245.91C611,-233.08 604.63,-207.88 599.28,-186.75"/>
<polygon fill="green" stroke="green" stroke-width="0.11" points="602.72,-186.08 596.87,-177.24 595.93,-187.79 602.72,-186.08"/>
</g>
<!-- 21050 -->
<g id="node29" class="node">
<title>21050</title>
<ellipse fill="white" stroke="black" cx="738.38" cy="-150.55" rx="27.22" ry="27.22"/>
<text text-anchor="middle" x="738.38" y="-147.25" font-family="Times,serif" font-size="9.00">21050</text>
</g>
<!-- Power Pellet Left&#45;&gt;21050 -->
<g id="edge15" class="edge">
<title>Power Pellet Left&#45;&gt;21050</title>
<path fill="none" stroke="red" stroke-width="0.14" d="M626.36,-245.91C644.49,-230.64 683.42,-197.84 710.25,-175.24"/>
<polygon fill="red" stroke="red" stroke-width="0.14" points="712.25,-178.13 717.65,-169.01 707.74,-172.78 712.25,-178.13"/>
</g>
<!-- Power Pellet Up -->
<g id="node7" class="node">
<title>Power Pellet Up</title>
<polygon fill="lightblue" stroke="black" points="982.62,-369.33 908.12,-369.33 908.12,-350.83 982.62,-350.83 982.62,-369.33"/>
<text text-anchor="middle" x="945.38" y="-356.78" font-family="Times,serif" font-size="9.00">Power Pellet Up</text>
</g>
<!-- Power Pellet Down -->
<g id="node8" class="node">
<title>Power Pellet Down</title>
<polygon fill="lightblue" stroke="black" points="820.25,-369.33 734.5,-369.33 734.5,-350.83 820.25,-350.83 820.25,-369.33"/>
<text text-anchor="middle" x="777.38" y="-356.78" font-family="Times,serif" font-size="9.00">Power Pellet Down</text>
</g>
<!-- Move Right -->
<g id="node18" class="node">
<title>Move Right</title>
<ellipse fill="lightblue" stroke="black" cx="753.38" cy="-255.32" rx="41.54" ry="41.54"/>
<text text-anchor="middle" x="753.38" y="-252.02" font-family="Times,serif" font-size="9.00">Move Right</text>
</g>
<!-- Power Pellet Down&#45;&gt;Move Right -->
<g id="edge4" class="edge">
<title>Power Pellet Down&#45;&gt;Move Right</title>
<path fill="none" stroke="green" stroke-width="0.19" d="M775.41,-350.67C773.09,-340.74 769.04,-323.38 765.03,-306.23"/>
<polygon fill="green" stroke="green" stroke-width="0.19" points="768.44,-305.44 762.76,-296.5 761.63,-307.04 768.44,-305.44"/>
</g>
<!-- Power Pellet Down&#45;&gt;Move Down -->
<g id="edge5" class="edge">
<title>Power Pellet Down&#45;&gt;Move Down</title>
<path fill="none" stroke="red" stroke-width="0.17" stroke-dasharray="1,5" d="M782.4,-350.6C788.98,-338.95 800.16,-317.15 804.38,-296.86 820.29,-220.22 823.09,-184.59 774.38,-123.33 753.78,-97.43 722.17,-77.96 695.39,-64.86"/>
<polygon fill="red" stroke="red" stroke-width="0.17" points="696.92,-61.71 686.38,-60.61 693.93,-68.04 696.92,-61.71"/>
</g>
<!-- Ghost Info Right -->
<g id="node9" class="node">
<title>Ghost Info Right</title>
<polygon fill="lightblue" stroke="black" points="1077.75,-369.33 1001,-369.33 1001,-350.83 1077.75,-350.83 1077.75,-369.33"/>
<text text-anchor="middle" x="1039.38" y="-356.78" font-family="Times,serif" font-size="9.00">Ghost Info Right</text>
</g>
<!-- Ghost Info Left -->
<g id="node10" class="node">
<title>Ghost Info Left</title>
<polygon fill="lightblue" stroke="black" points="1167.12,-369.33 1095.62,-369.33 1095.62,-350.83 1167.12,-350.83 1167.12,-369.33"/>
<text text-anchor="middle" x="1131.38" y="-356.78" font-family="Times,serif" font-size="9.00">Ghost Info Left</text>
</g>
<!-- Ghost Info Up -->
<g id="node11" class="node">
<title>Ghost Info Up</title>
<polygon fill="lightblue" stroke="black" points="1253.62,-369.33 1185.12,-369.33 1185.12,-350.83 1253.62,-350.83 1253.62,-369.33"/>
<text text-anchor="middle" x="1219.38" y="-356.78" font-family="Times,serif" font-size="9.00">Ghost Info Up</text>
</g>
<!-- Ghost Info Down -->
<g id="node12" class="node">
<title>Ghost Info Down</title>
<polygon fill="lightblue" stroke="black" points="1351.25,-369.33 1271.5,-369.33 1271.5,-350.83 1351.25,-350.83 1351.25,-369.33"/>
<text text-anchor="middle" x="1311.38" y="-356.78" font-family="Times,serif" font-size="9.00">Ghost Info Down</text>
</g>
<!-- PAC&#45;MAN Right -->
<g id="node13" class="node">
<title>PAC&#45;MAN Right</title>
<polygon fill="lightblue" stroke="black" points="1447.88,-369.33 1368.88,-369.33 1368.88,-350.83 1447.88,-350.83 1447.88,-369.33"/>
<text text-anchor="middle" x="1408.38" y="-356.78" font-family="Times,serif" font-size="9.00">PAC&#45;MAN Right</text>
</g>
<!-- PAC&#45;MAN Left -->
<g id="node14" class="node">
<title>PAC&#45;MAN Left</title>
<polygon fill="lightblue" stroke="black" points="325.25,-369.33 251.5,-369.33 251.5,-350.83 325.25,-350.83 325.25,-369.33"/>
<text text-anchor="middle" x="288.38" y="-356.78" font-family="Times,serif" font-size="9.00">PAC&#45;MAN Left</text>
</g>
<!-- PAC&#45;MAN Left&#45;&gt;Move Left -->
<g id="edge19" class="edge">
<title>PAC&#45;MAN Left&#45;&gt;Move Left</title>
<path fill="none" stroke="red" stroke-width="0.24" d="M281.66,-350.67C271.74,-338.23 252.53,-314.16 236,-293.44"/>
<polygon fill="red" stroke="red" stroke-width="0.24" points="238.78,-291.32 229.81,-285.69 233.31,-295.69 238.78,-291.32"/>
</g>
<!-- PAC&#45;MAN Left&#45;&gt;Move Down -->
<g id="edge17" class="edge">
<title>PAC&#45;MAN Left&#45;&gt;Move Down</title>
<path fill="none" stroke="green" stroke-width="0.45" d="M288.57,-350.64C289.52,-326.79 295.08,-257.79 327.38,-213.77 393.03,-124.27 520.54,-77.58 592.55,-57.36"/>
<polygon fill="green" stroke="green" stroke-width="0.45" points="593.38,-60.77 602.1,-54.75 591.54,-54.01 593.38,-60.77"/>
</g>
<!-- PAC&#45;MAN Up -->
<g id="node15" class="node">
<title>PAC&#45;MAN Up</title>
<polygon fill="lightblue" stroke="black" points="694.75,-369.33 624,-369.33 624,-350.83 694.75,-350.83 694.75,-369.33"/>
<text text-anchor="middle" x="659.38" y="-356.78" font-family="Times,serif" font-size="9.00">PAC&#45;MAN Up</text>
</g>
<!-- PAC&#45;MAN Up&#45;&gt;Move Down -->
<g id="edge6" class="edge">
<title>PAC&#45;MAN Up&#45;&gt;Move Down</title>
<path fill="none" stroke="green" stroke-width="0.22" stroke-dasharray="1,5" d="M660.27,-350.64C661.49,-338.69 663.6,-316.14 664.38,-296.86 665.86,-259.96 666.44,-250.64 664.38,-213.77 662.18,-174.61 657.15,-130.59 652.82,-97.27"/>
<polygon fill="green" stroke="green" stroke-width="0.22" points="656.32,-97.08 651.54,-87.62 649.38,-97.99 656.32,-97.08"/>
</g>
<!-- 19950 -->
<g id="node25" class="node">
<title>19950</title>
<ellipse fill="white" stroke="black" cx="525.38" cy="-255.32" rx="27.22" ry="27.22"/>
<text text-anchor="middle" x="525.38" y="-252.02" font-family="Times,serif" font-size="9.00">19950</text>
</g>
<!-- PAC&#45;MAN Up&#45;&gt;19950 -->
<g id="edge11" class="edge">
<title>PAC&#45;MAN Up&#45;&gt;19950</title>
<path fill="none" stroke="green" stroke-width="0.27" d="M645.33,-350.45C627.03,-338.98 594.31,-317.74 568.38,-296.86 562.66,-292.26 556.78,-287.07 551.28,-281.97"/>
<polygon fill="green" stroke="green" stroke-width="0.27" points="554.03,-279.75 544.36,-275.42 549.22,-284.84 554.03,-279.75"/>
</g>
<!-- PACM&#45;MAN Down -->
<g id="node16" class="node">
<title>PACM&#45;MAN Down</title>
<polygon fill="lightblue" stroke="black" points="509.5,-369.33 419.25,-369.33 419.25,-350.83 509.5,-350.83 509.5,-369.33"/>
<text text-anchor="middle" x="464.38" y="-356.78" font-family="Times,serif" font-size="9.00">PACM&#45;MAN Down</text>
</g>
<!-- PACM&#45;MAN Down&#45;&gt;Move Left -->
<g id="edge7" class="edge">
<title>PACM&#45;MAN Down&#45;&gt;Move Left</title>
<path fill="none" stroke="green" stroke-width="0.24" stroke-dasharray="1,5" d="M447.54,-350.41C436.98,-345.09 423.02,-338.29 410.38,-332.86 356.63,-309.79 293.4,-286.67 251.74,-271.97"/>
<polygon fill="green" stroke="green" stroke-width="0.24" points="253.09,-268.73 242.49,-268.72 250.77,-275.34 253.09,-268.73"/>
</g>
<!-- PACM&#45;MAN Down&#45;&gt;Move Up -->
<g id="edge8" class="edge">
<title>PACM&#45;MAN Down&#45;&gt;Move Up</title>
<path fill="none" stroke="red" stroke-width="0.39" d="M456.85,-350.67C445.15,-337.61 421.97,-311.72 402.85,-290.36"/>
<polygon fill="red" stroke="red" stroke-width="0.39" points="405.69,-288.28 396.41,-283.17 400.47,-292.95 405.69,-288.28"/>
</g>
<!-- PACM&#45;MAN Down&#45;&gt;19950 -->
<g id="edge24" class="edge">
<title>PACM&#45;MAN Down&#45;&gt;19950</title>
<path fill="none" stroke="green" stroke-width="0.44" d="M469.37,-350.67C477.38,-337.17 493.54,-309.95 506.45,-288.21"/>
<polygon fill="green" stroke="green" stroke-width="0.44" points="509.31,-290.24 511.41,-279.85 503.29,-286.66 509.31,-290.24"/>
</g>
<!-- 19288 -->
<g id="node28" class="node">
<title>19288</title>
<ellipse fill="white" stroke="black" cx="453.38" cy="-255.32" rx="27.22" ry="27.22"/>
<text text-anchor="middle" x="453.38" y="-252.02" font-family="Times,serif" font-size="9.00">19288</text>
</g>
<!-- PACM&#45;MAN Down&#45;&gt;19288 -->
<g id="edge10" class="edge">
<title>PACM&#45;MAN Down&#45;&gt;19288</title>
<path fill="none" stroke="red" stroke-width="0.16" d="M463.47,-350.67C462.13,-338.13 459.52,-313.74 457.29,-292.91"/>
<polygon fill="red" stroke="red" stroke-width="0.16" points="460.77,-292.54 456.23,-282.97 453.81,-293.29 460.77,-292.54"/>
</g>
<!-- Power&#45;Up Time -->
<g id="node17" class="node">
<title>Power&#45;Up Time</title>
<polygon fill="lightblue" stroke="black" points="1539.25,-369.33 1465.5,-369.33 1465.5,-350.83 1539.25,-350.83 1539.25,-369.33"/>
<text text-anchor="middle" x="1502.38" y="-356.78" font-family="Times,serif" font-size="9.00">Power&#45;Up Time</text>
</g>
<!-- Move Right&#45;&gt;21050 -->
<g id="edge18" class="edge">
<title>Move Right&#45;&gt;21050</title>
<path fill="none" stroke="green" stroke-width="0.38" d="M747.45,-213.7C746.23,-205.35 744.95,-196.61 743.75,-188.4"/>
<polygon fill="green" stroke="green" stroke-width="0.38" points="747.23,-187.97 742.32,-178.58 740.3,-188.98 747.23,-187.97"/>
</g>
<!-- 22659&#45;&gt;Move Down -->
<g id="edge26" class="edge">
<title>22659&#45;&gt;Move Down</title>
<path fill="none" stroke="green" stroke-width="0.32" d="M602.72,-126.01C607.97,-116 614.29,-103.95 620.43,-92.23"/>
<polygon fill="green" stroke="green" stroke-width="0.32" points="623.53,-93.86 625.07,-83.38 617.33,-90.61 623.53,-93.86"/>
</g>
<!-- 20554&#45;&gt;Move Down -->
<g id="edge13" class="edge">
<title>20554&#45;&gt;Move Down</title>
<path fill="none" stroke="green" stroke-width="0.25" d="M856.25,-134.37C850.25,-130.55 843.67,-126.6 837.38,-123.33 790.96,-99.22 735.43,-77.16 696.06,-62.57"/>
<polygon fill="green" stroke="green" stroke-width="0.25" points="697.36,-59.32 686.76,-59.16 694.94,-65.89 697.36,-59.32"/>
</g>
<!-- 20653 -->
<g id="node24" class="node">
<title>20653</title>
<ellipse fill="white" stroke="black" cx="206.38" cy="-360.08" rx="27.22" ry="27.22"/>
<text text-anchor="middle" x="206.38" y="-356.78" font-family="Times,serif" font-size="9.00">20653</text>
</g>
<!-- 20653&#45;&gt;Move Left -->
<g id="edge14" class="edge">
<title>20653&#45;&gt;Move Left</title>
<path fill="none" stroke="green" stroke-width="0.22" stroke-dasharray="1,5" d="M206.38,-332.62C206.38,-323.79 206.38,-313.67 206.38,-303.74"/>
<polygon fill="green" stroke="green" stroke-width="0.22" points="209.88,-303.87 206.38,-293.87 202.88,-303.87 209.88,-303.87"/>
</g>
<!-- 19950&#45;&gt;Move Down -->
<g id="edge12" class="edge">
<title>19950&#45;&gt;Move Down</title>
<path fill="none" stroke="red" stroke-width="0.17" d="M508.5,-233.93C488.38,-206.99 460.1,-158.8 482.38,-123.33 506.3,-85.22 554.46,-65.13 592.26,-54.83"/>
<polygon fill="red" stroke="red" stroke-width="0.17" points="593.05,-58.24 601.86,-52.36 591.31,-51.46 593.05,-58.24"/>
</g>
<!-- 21935 -->
<g id="node27" class="node">
<title>21935</title>
<ellipse fill="white" stroke="black" cx="518.38" cy="-150.55" rx="27.22" ry="27.22"/>
<text text-anchor="middle" x="518.38" y="-147.25" font-family="Times,serif" font-size="9.00">21935</text>
</g>
<!-- 19950&#45;&gt;21935 -->
<g id="edge22" class="edge">
<title>19950&#45;&gt;21935</title>
<path fill="none" stroke="green" stroke-width="0.51" d="M523.57,-227.85C522.76,-215.87 521.78,-201.49 520.89,-188.47"/>
<polygon fill="green" stroke="green" stroke-width="0.51" points="524.4,-188.44 520.22,-178.7 517.41,-188.91 524.4,-188.44"/>
</g>
<!-- 21935&#45;&gt;Move Down -->
<g id="edge23" class="edge">
<title>21935&#45;&gt;Move Down</title>
<path fill="none" stroke="green" stroke-width="0.37" d="M539.06,-132.47C556.64,-117.95 582.4,-96.67 604.17,-78.7"/>
<polygon fill="green" stroke="green" stroke-width="0.37" points="606.37,-81.41 611.85,-72.35 601.92,-76.02 606.37,-81.41"/>
</g>
<!-- 21050&#45;&gt;Move Down -->
<g id="edge16" class="edge">
<title>21050&#45;&gt;Move Down</title>
<path fill="none" stroke="red" stroke-width="0.23" stroke-dasharray="1,5" d="M720.88,-129.82C709.58,-117.07 694.47,-100.03 680.73,-84.54"/>
<polygon fill="red" stroke="red" stroke-width="0.23" points="683.61,-82.51 674.35,-77.35 678.37,-87.15 683.61,-82.51"/>
</g>
</g>
</svg>
