<?xml version="1.0" encoding="UTF-8" standalone="no"?>
<!DOCTYPE svg PUBLIC "-//W3C//DTD SVG 1.1//EN"
 "http://www.w3.org/Graphics/SVG/1.1/DTD/svg11.dtd">
<!-- Generated by graphviz version 12.0.0 (20240704.0754)
 -->
<!-- Pages: 1 -->
<svg width="1521pt" height="150pt"
 viewBox="0.00 0.00 1520.50 149.83" xmlns="http://www.w3.org/2000/svg" xmlns:xlink="http://www.w3.org/1999/xlink">
<g id="graph0" class="graph" transform="scale(1 1) rotate(0) translate(4 145.83)">
<polygon fill="white" stroke="none" points="-4,4 -4,-145.83 1516.5,-145.83 1516.5,4 -4,4"/>
<!-- Pellet Right -->
<g id="node1" class="node">
<title>Pellet Right</title>
<polygon fill="lightblue" stroke="black" points="1512.5,-141.83 1455.25,-141.83 1455.25,-123.33 1512.5,-123.33 1512.5,-141.83"/>
<text text-anchor="middle" x="1483.88" y="-129.28" font-family="Times,serif" font-size="9.00">Pellet Right</text>
</g>
<!-- Move Right -->
<g id="node18" class="node">
<title>Move Right</title>
<ellipse fill="lightblue" stroke="black" cx="743.88" cy="-43.66" rx="41.54" ry="41.54"/>
<text text-anchor="middle" x="743.88" y="-40.36" font-family="Times,serif" font-size="9.00">Move Right</text>
</g>
<!-- Pellet Right&#45;&gt;Move Right -->
<g id="edge1" class="edge">
<title>Pellet Right&#45;&gt;Move Right</title>
<path fill="none" stroke="green" stroke-width="0.67" d="M1454.91,-124.79C1451.87,-124.23 1448.82,-123.73 1445.88,-123.33 1302.08,-103.87 928.59,-141.26 793.88,-87.33 789.47,-85.56 785.17,-83.24 781.06,-80.6"/>
<polygon fill="green" stroke="green" stroke-width="0.67" points="783.4,-77.97 773.24,-74.97 779.31,-83.65 783.4,-77.97"/>
</g>
<!-- Move Up -->
<g id="node20" class="node">
<title>Move Up</title>
<ellipse fill="lightblue" stroke="black" cx="838.88" cy="-43.66" rx="35.71" ry="35.71"/>
<text text-anchor="middle" x="838.88" y="-40.36" font-family="Times,serif" font-size="9.00">Move Up</text>
</g>
<!-- Pellet Right&#45;&gt;Move Up -->
<g id="edge2" class="edge">
<title>Pellet Right&#45;&gt;Move Up</title>
<path fill="none" stroke="red" stroke-width="0.21" d="M1454.91,-124.82C1451.87,-124.25 1448.82,-123.74 1445.88,-123.33 1321.94,-106 998.58,-137.37 883.88,-87.33 878.57,-85.01 873.5,-81.78 868.81,-78.13"/>
<polygon fill="red" stroke="red" stroke-width="0.21" points="871.4,-75.74 861.54,-71.87 866.83,-81.05 871.4,-75.74"/>
</g>
<!-- Move Down -->
<g id="node21" class="node">
<title>Move Down</title>
<ellipse fill="lightblue" stroke="black" cx="936.88" cy="-43.66" rx="43.66" ry="43.66"/>
<text text-anchor="middle" x="936.88" y="-40.36" font-family="Times,serif" font-size="9.00">Move Down</text>
</g>
<!-- Pellet Right&#45;&gt;Move Down -->
<g id="edge3" class="edge">
<title>Pellet Right&#45;&gt;Move Down</title>
<path fill="none" stroke="green" stroke-width="0.14" d="M1454.87,-125.09C1451.83,-124.47 1448.8,-123.87 1445.88,-123.33 1280.42,-92.61 1083.15,-64.54 990.26,-51.83"/>
<polygon fill="green" stroke="green" stroke-width="0.14" points="990.86,-48.38 980.48,-50.5 989.91,-55.32 990.86,-48.38"/>
</g>
<!-- Pellet Left -->
<g id="node2" class="node">
<title>Pellet Left</title>
<polygon fill="lightblue" stroke="black" points="700.88,-141.83 648.88,-141.83 648.88,-123.33 700.88,-123.33 700.88,-141.83"/>
<text text-anchor="middle" x="674.88" y="-129.28" font-family="Times,serif" font-size="9.00">Pellet Left</text>
</g>
<!-- Pellet Left&#45;&gt;Move Right -->
<g id="edge4" class="edge">
<title>Pellet Left&#45;&gt;Move Right</title>
<path fill="none" stroke="green" stroke-width="0.2" d="M681.74,-122.93C688.93,-113.87 700.75,-98.99 712.15,-84.63"/>
<polygon fill="green" stroke="green" stroke-width="0.2" points="714.74,-86.99 718.22,-76.98 709.26,-82.63 714.74,-86.99"/>
</g>
<!-- Move Left -->
<g id="node19" class="node">
<title>Move Left</title>
<ellipse fill="lightblue" stroke="black" cx="646.88" cy="-43.66" rx="37.83" ry="37.83"/>
<text text-anchor="middle" x="646.88" y="-40.36" font-family="Times,serif" font-size="9.00">Move Left</text>
</g>
<!-- Pellet Left&#45;&gt;Move Left -->
<g id="edge5" class="edge">
<title>Pellet Left&#45;&gt;Move Left</title>
<path fill="none" stroke="green" stroke-width="0.32" d="M672.09,-122.93C669.51,-114.92 665.46,-102.36 661.36,-89.64"/>
<polygon fill="green" stroke="green" stroke-width="0.32" points="664.79,-88.85 658.39,-80.41 658.13,-91 664.79,-88.85"/>
</g>
<!-- Pellet Left&#45;&gt;Move Up -->
<g id="edge6" class="edge">
<title>Pellet Left&#45;&gt;Move Up</title>
<path fill="none" stroke="red" stroke-width="0.49" d="M701.11,-125.3C726.43,-118.49 765.18,-106.01 794.88,-87.33 799.15,-84.64 803.36,-81.47 807.37,-78.11"/>
<polygon fill="red" stroke="red" stroke-width="0.49" points="809.63,-80.79 814.74,-71.5 804.96,-75.57 809.63,-80.79"/>
</g>
<!-- Pellet Left&#45;&gt;Move Down -->
<g id="edge7" class="edge">
<title>Pellet Left&#45;&gt;Move Down</title>
<path fill="none" stroke="green" stroke-width="0.75" stroke-dasharray="1,5" d="M701.23,-125.28C704.14,-124.61 707.07,-123.95 709.88,-123.33 786.98,-106.27 812.46,-121.03 883.88,-87.33 888.02,-85.37 892.13,-83.03 896.11,-80.46"/>
<polygon fill="green" stroke="green" stroke-width="0.75" points="898.04,-83.38 904.22,-74.78 894.02,-77.65 898.04,-83.38"/>
</g>
<!-- Pellet Up -->
<g id="node3" class="node">
<title>Pellet Up</title>
<polygon fill="lightblue" stroke="black" points="333.38,-141.83 284.38,-141.83 284.38,-123.33 333.38,-123.33 333.38,-141.83"/>
<text text-anchor="middle" x="308.88" y="-129.28" font-family="Times,serif" font-size="9.00">Pellet Up</text>
</g>
<!-- Pellet Up&#45;&gt;Move Right -->
<g id="edge8" class="edge">
<title>Pellet Up&#45;&gt;Move Right</title>
<path fill="none" stroke="red" stroke-width="0.56" d="M333.68,-125.15C336.76,-124.47 339.88,-123.84 342.88,-123.33 497.43,-96.78 549.7,-149.02 693.88,-87.33 698.24,-85.46 702.51,-83.07 706.6,-80.38"/>
<polygon fill="red" stroke="red" stroke-width="0.56" points="708.52,-83.31 714.54,-74.59 704.4,-77.65 708.52,-83.31"/>
</g>
<!-- Pellet Up&#45;&gt;Move Left -->
<g id="edge9" class="edge">
<title>Pellet Up&#45;&gt;Move Left</title>
<path fill="none" stroke="red" stroke-width="0.11" d="M333.73,-125.19C389.93,-110.73 527.55,-75.35 600.2,-56.67"/>
<polygon fill="red" stroke="red" stroke-width="0.11" points="601.04,-60.06 609.85,-54.18 599.29,-53.28 601.04,-60.06"/>
</g>
<!-- Pellet Up&#45;&gt;Move Up -->
<g id="edge10" class="edge">
<title>Pellet Up&#45;&gt;Move Up</title>
<path fill="none" stroke="green" stroke-width="0.32" d="M333.67,-125.08C336.75,-124.42 339.88,-123.81 342.88,-123.33 442.37,-107.4 703.07,-128.85 794.88,-87.33 799.72,-85.14 804.35,-82.18 808.66,-78.83"/>
<polygon fill="green" stroke="green" stroke-width="0.32" points="810.9,-81.52 816.17,-72.34 806.32,-76.23 810.9,-81.52"/>
</g>
<!-- Pellet Down -->
<g id="node4" class="node">
<title>Pellet Down</title>
<polygon fill="lightblue" stroke="black" points="779,-141.83 718.75,-141.83 718.75,-123.33 779,-123.33 779,-141.83"/>
<text text-anchor="middle" x="748.88" y="-129.28" font-family="Times,serif" font-size="9.00">Pellet Down</text>
</g>
<!-- Pellet Down&#45;&gt;Move Right -->
<g id="edge11" class="edge">
<title>Pellet Down&#45;&gt;Move Right</title>
<path fill="none" stroke="red" stroke-width="0.31" d="M748.38,-122.93C747.99,-116.22 747.42,-106.33 746.82,-95.82"/>
<polygon fill="red" stroke="red" stroke-width="0.31" points="750.33,-95.89 746.26,-86.1 743.34,-96.29 750.33,-95.89"/>
</g>
<!-- Pellet Down&#45;&gt;Move Left -->
<g id="edge12" class="edge">
<title>Pellet Down&#45;&gt;Move Left</title>
<path fill="none" stroke="red" stroke-width="0.26" stroke-dasharray="1,5" d="M737.51,-123.02C726.04,-114.29 707.93,-100.22 692.88,-87.33 689.04,-84.05 685.09,-80.56 681.19,-77.04"/>
<polygon fill="red" stroke="red" stroke-width="0.26" points="683.83,-74.71 674.08,-70.56 679.11,-79.88 683.83,-74.71"/>
</g>
<!-- Pellet Down&#45;&gt;Move Up -->
<g id="edge13" class="edge">
<title>Pellet Down&#45;&gt;Move Up</title>
<path fill="none" stroke="red" stroke-width="0.13" d="M757.7,-123.11C766.97,-114.21 781.96,-99.8 794.88,-87.33 798.7,-83.63 802.71,-79.75 806.69,-75.9"/>
<polygon fill="red" stroke="red" stroke-width="0.13" points="808.88,-78.65 813.62,-69.18 804.01,-73.63 808.88,-78.65"/>
</g>
<!-- Pellet Down&#45;&gt;Move Down -->
<g id="edge14" class="edge">
<title>Pellet Down&#45;&gt;Move Down</title>
<path fill="none" stroke="green" stroke-width="0.23" d="M779.37,-124.93C807.6,-118.02 850.17,-105.62 883.88,-87.33 888.07,-85.05 892.25,-82.43 896.34,-79.64"/>
<polygon fill="green" stroke="green" stroke-width="0.23" points="898.21,-82.6 904.25,-73.9 894.1,-76.93 898.21,-82.6"/>
</g>
<!-- Power Pellet Right -->
<g id="node5" class="node">
<title>Power Pellet Right</title>
<polygon fill="lightblue" stroke="black" points="880.25,-141.83 797.5,-141.83 797.5,-123.33 880.25,-123.33 880.25,-141.83"/>
<text text-anchor="middle" x="838.88" y="-129.28" font-family="Times,serif" font-size="9.00">Power Pellet Right</text>
</g>
<!-- Power Pellet Right&#45;&gt;Move Right -->
<g id="edge15" class="edge">
<title>Power Pellet Right&#45;&gt;Move Right</title>
<path fill="none" stroke="green" stroke-width="0.2" d="M829.42,-122.93C818.25,-112.71 798.98,-95.08 781.55,-79.14"/>
<polygon fill="green" stroke="green" stroke-width="0.2" points="784.19,-76.8 774.45,-72.63 779.46,-81.96 784.19,-76.8"/>
</g>
<!-- Power Pellet Right&#45;&gt;Move Left -->
<g id="edge16" class="edge">
<title>Power Pellet Right&#45;&gt;Move Left</title>
<path fill="none" stroke="green" stroke-width="0.13" d="M797.21,-124.21C766.85,-117.62 725.49,-106.05 692.88,-87.33 688.5,-84.82 684.2,-81.82 680.1,-78.59"/>
<polygon fill="green" stroke="green" stroke-width="0.13" points="682.53,-76.06 672.62,-72.3 678.02,-81.42 682.53,-76.06"/>
</g>
<!-- Power Pellet Right&#45;&gt;Move Up -->
<g id="edge17" class="edge">
<title>Power Pellet Right&#45;&gt;Move Up</title>
<path fill="none" stroke="green" stroke-width="0.18" d="M838.88,-122.93C838.88,-114.93 838.88,-102.4 838.88,-89.69"/>
<polygon fill="green" stroke="green" stroke-width="0.18" points="842.38,-89.81 838.88,-79.81 835.38,-89.81 842.38,-89.81"/>
</g>
<!-- Power Pellet Right&#45;&gt;Move Down -->
<g id="edge18" class="edge">
<title>Power Pellet Right&#45;&gt;Move Down</title>
<path fill="none" stroke="green" stroke-width="0.15" d="M848.63,-122.93C859.98,-112.86 879.45,-95.59 897.21,-79.84"/>
<polygon fill="green" stroke="green" stroke-width="0.15" points="899.36,-82.61 904.52,-73.36 894.72,-77.38 899.36,-82.61"/>
</g>
<!-- Power Pellet Left -->
<g id="node6" class="node">
<title>Power Pellet Left</title>
<polygon fill="lightblue" stroke="black" points="975.62,-141.83 898.12,-141.83 898.12,-123.33 975.62,-123.33 975.62,-141.83"/>
<text text-anchor="middle" x="936.88" y="-129.28" font-family="Times,serif" font-size="9.00">Power Pellet Left</text>
</g>
<!-- Power Pellet Left&#45;&gt;Move Right -->
<g id="edge19" class="edge">
<title>Power Pellet Left&#45;&gt;Move Right</title>
<path fill="none" stroke="green" stroke-width="0.32" d="M897.85,-124.01C868.09,-117.2 826.77,-105.44 793.88,-87.33 789.66,-85.01 785.48,-82.29 781.43,-79.38"/>
<polygon fill="green" stroke="green" stroke-width="0.32" points="783.8,-76.79 773.74,-73.48 779.54,-82.34 783.8,-76.79"/>
</g>
<!-- Power Pellet Left&#45;&gt;Move Left -->
<g id="edge20" class="edge">
<title>Power Pellet Left&#45;&gt;Move Left</title>
<path fill="none" stroke="green" stroke-width="0.43" d="M897.76,-124.77C829.99,-112.94 697.45,-89.62 692.88,-87.33 688.36,-85.07 683.98,-82.24 679.82,-79.1"/>
<polygon fill="green" stroke="green" stroke-width="0.43" points="682.09,-76.44 672.15,-72.77 677.63,-81.83 682.09,-76.44"/>
</g>
<!-- Power Pellet Left&#45;&gt;Move Up -->
<g id="edge21" class="edge">
<title>Power Pellet Left&#45;&gt;Move Up</title>
<path fill="none" stroke="green" stroke-width="0.34" d="M926.15,-122.96C915.32,-114.18 898.2,-100.08 883.88,-87.33 879.95,-83.84 875.9,-80.13 871.89,-76.42"/>
<polygon fill="green" stroke="green" stroke-width="0.34" points="874.38,-73.95 864.69,-69.67 869.6,-79.06 874.38,-73.95"/>
</g>
<!-- Power Pellet Left&#45;&gt;Move Down -->
<g id="edge22" class="edge">
<title>Power Pellet Left&#45;&gt;Move Down</title>
<path fill="none" stroke="red" stroke-width="0.19" d="M936.88,-122.93C936.88,-116.68 936.88,-107.67 936.88,-97.96"/>
<polygon fill="red" stroke="red" stroke-width="0.19" points="940.38,-97.97 936.88,-87.97 933.38,-97.98 940.38,-97.97"/>
</g>
<!-- Power Pellet Up -->
<g id="node7" class="node">
<title>Power Pellet Up</title>
<polygon fill="lightblue" stroke="black" points="1068.12,-141.83 993.62,-141.83 993.62,-123.33 1068.12,-123.33 1068.12,-141.83"/>
<text text-anchor="middle" x="1030.88" y="-129.28" font-family="Times,serif" font-size="9.00">Power Pellet Up</text>
</g>
<!-- Power Pellet Up&#45;&gt;Move Right -->
<g id="edge23" class="edge">
<title>Power Pellet Up&#45;&gt;Move Right</title>
<path fill="none" stroke="red" stroke-width="0.1" d="M993.15,-124.79C927.41,-112.93 798.37,-89.48 793.88,-87.33 789.42,-85.2 785.04,-82.57 780.84,-79.68"/>
<polygon fill="red" stroke="red" stroke-width="0.1" points="783.25,-77.1 773.14,-73.93 779.06,-82.71 783.25,-77.1"/>
</g>
<!-- Power Pellet Up&#45;&gt;Move Left -->
<g id="edge24" class="edge">
<title>Power Pellet Up&#45;&gt;Move Left</title>
<path fill="none" stroke="red" stroke-width="0.74" d="M993.25,-124.66C990.42,-124.19 987.6,-123.74 984.88,-123.33 855.58,-103.78 811.45,-142.46 692.88,-87.33 688.42,-85.26 684.11,-82.59 680.03,-79.61"/>
<polygon fill="red" stroke="red" stroke-width="0.74" points="682.32,-76.96 672.36,-73.37 677.91,-82.39 682.32,-76.96"/>
</g>
<!-- Power Pellet Up&#45;&gt;Move Up -->
<g id="edge25" class="edge">
<title>Power Pellet Up&#45;&gt;Move Up</title>
<path fill="none" stroke="red" stroke-width="0.35" d="M995.23,-122.87C958.13,-113.46 902.84,-98.33 883.88,-87.33 879.1,-84.56 874.44,-81.19 870.03,-77.57"/>
<polygon fill="red" stroke="red" stroke-width="0.35" points="872.62,-75.19 862.8,-71.21 868,-80.45 872.62,-75.19"/>
</g>
<!-- Power Pellet Up&#45;&gt;Move Down -->
<g id="edge26" class="edge">
<title>Power Pellet Up&#45;&gt;Move Down</title>
<path fill="none" stroke="red" stroke-width="0.17" stroke-dasharray="1,5" d="M1021.52,-122.93C1010.79,-113.01 992.51,-96.11 975.68,-80.55"/>
<polygon fill="red" stroke="red" stroke-width="0.17" points="978.5,-78.38 968.78,-74.16 973.74,-83.52 978.5,-78.38"/>
</g>
<!-- Power Pellet Down -->
<g id="node8" class="node">
<title>Power Pellet Down</title>
<polygon fill="lightblue" stroke="black" points="85.75,-141.83 0,-141.83 0,-123.33 85.75,-123.33 85.75,-141.83"/>
<text text-anchor="middle" x="42.88" y="-129.28" font-family="Times,serif" font-size="9.00">Power Pellet Down</text>
</g>
<!-- Power Pellet Down&#45;&gt;Move Right -->
<g id="edge27" class="edge">
<title>Power Pellet Down&#45;&gt;Move Right</title>
<path fill="none" stroke="green" stroke-width="0.14" d="M86.24,-124.37C89.16,-123.99 92.06,-123.64 94.88,-123.33 227.44,-108.86 570.2,-137.19 693.88,-87.33 698.52,-85.46 703.04,-82.97 707.34,-80.14"/>
<polygon fill="green" stroke="green" stroke-width="0.14" points="709.12,-83.18 715.15,-74.47 705,-77.51 709.12,-83.18"/>
</g>
<!-- Power Pellet Down&#45;&gt;Move Left -->
<g id="edge28" class="edge">
<title>Power Pellet Down&#45;&gt;Move Left</title>
<path fill="none" stroke="green" stroke-width="0.17" d="M86,-124.68C89,-124.22 91.98,-123.76 94.88,-123.33 281.44,-95.24 503.88,-64.32 599.43,-51.17"/>
<polygon fill="green" stroke="green" stroke-width="0.17" points="599.69,-54.67 609.11,-49.84 598.73,-47.73 599.69,-54.67"/>
</g>
<!-- Power Pellet Down&#45;&gt;Move Up -->
<g id="edge29" class="edge">
<title>Power Pellet Down&#45;&gt;Move Up</title>
<path fill="none" stroke="red" stroke-width="0.38" d="M86.24,-124.35C89.16,-123.97 92.06,-123.62 94.88,-123.33 249.79,-107.1 652.07,-149.51 794.88,-87.33 799.75,-85.21 804.4,-82.29 808.72,-78.96"/>
<polygon fill="red" stroke="red" stroke-width="0.38" points="810.88,-81.72 816.18,-72.54 806.32,-76.41 810.88,-81.72"/>
</g>
<!-- Ghost Info Right -->
<g id="node9" class="node">
<title>Ghost Info Right</title>
<polygon fill="lightblue" stroke="black" points="1163.25,-141.83 1086.5,-141.83 1086.5,-123.33 1163.25,-123.33 1163.25,-141.83"/>
<text text-anchor="middle" x="1124.88" y="-129.28" font-family="Times,serif" font-size="9.00">Ghost Info Right</text>
</g>
<!-- Ghost Info Right&#45;&gt;Move Right -->
<g id="edge30" class="edge">
<title>Ghost Info Right&#45;&gt;Move Right</title>
<path fill="none" stroke="red" stroke-width="0.15" d="M1086.13,-124.77C1083,-124.26 1079.89,-123.78 1076.88,-123.33 951.48,-104.58 909.83,-138.62 793.88,-87.33 789.3,-85.3 784.82,-82.72 780.54,-79.83"/>
<polygon fill="red" stroke="red" stroke-width="0.15" points="782.9,-77.22 772.78,-74.09 778.74,-82.85 782.9,-77.22"/>
</g>
<!-- Ghost Info Right&#45;&gt;Move Left -->
<g id="edge31" class="edge">
<title>Ghost Info Right&#45;&gt;Move Left</title>
<path fill="none" stroke="red" stroke-width="0.53" d="M1086.14,-124.66C1083.01,-124.18 1079.89,-123.73 1076.88,-123.33 991.91,-112.06 771.11,-122.33 692.88,-87.33 688.27,-85.27 683.83,-82.56 679.64,-79.5"/>
<polygon fill="red" stroke="red" stroke-width="0.53" points="682.01,-76.91 672.04,-73.33 677.59,-82.35 682.01,-76.91"/>
</g>
<!-- Ghost Info Right&#45;&gt;Move Up -->
<g id="edge32" class="edge">
<title>Ghost Info Right&#45;&gt;Move Up</title>
<path fill="none" stroke="green" stroke-width="0.1" d="M1086.24,-124.77C1019.29,-112.94 888.38,-89.62 883.88,-87.33 878.96,-84.83 874.2,-81.62 869.75,-78.09"/>
<polygon fill="green" stroke="green" stroke-width="0.1" points="872.04,-75.45 862.19,-71.56 867.47,-80.74 872.04,-75.45"/>
</g>
<!-- Ghost Info Right&#45;&gt;Move Down -->
<g id="edge33" class="edge">
<title>Ghost Info Right&#45;&gt;Move Down</title>
<path fill="none" stroke="red" stroke-width="0.44" d="M1106.16,-122.93C1078.42,-110.1 1025.43,-85.61 986.1,-67.42"/>
<polygon fill="red" stroke="red" stroke-width="0.44" points="987.57,-64.24 977.02,-63.23 984.63,-70.6 987.57,-64.24"/>
</g>
<!-- Ghost Info Left -->
<g id="node10" class="node">
<title>Ghost Info Left</title>
<polygon fill="lightblue" stroke="black" points="1252.62,-141.83 1181.12,-141.83 1181.12,-123.33 1252.62,-123.33 1252.62,-141.83"/>
<text text-anchor="middle" x="1216.88" y="-129.28" font-family="Times,serif" font-size="9.00">Ghost Info Left</text>
</g>
<!-- Ghost Info Left&#45;&gt;Move Right -->
<g id="edge34" class="edge">
<title>Ghost Info Left&#45;&gt;Move Right</title>
<path fill="none" stroke="red" stroke-width="0.16" d="M1181.06,-124.72C1177.96,-124.22 1174.86,-123.74 1171.88,-123.33 1004.72,-100.09 949.27,-153.15 793.88,-87.33 789.26,-85.37 784.77,-82.84 780.48,-79.98"/>
<polygon fill="red" stroke="red" stroke-width="0.16" points="782.84,-77.37 772.7,-74.28 778.7,-83.01 782.84,-77.37"/>
</g>
<!-- Ghost Info Left&#45;&gt;Move Left -->
<g id="edge35" class="edge">
<title>Ghost Info Left&#45;&gt;Move Left</title>
<path fill="none" stroke="green" stroke-width="0.27" d="M1181.07,-124.66C1177.96,-124.17 1174.87,-123.71 1171.88,-123.33 1066.01,-109.68 790.71,-130.01 692.88,-87.33 688.13,-85.26 683.56,-82.49 679.27,-79.34"/>
<polygon fill="green" stroke="green" stroke-width="0.27" points="681.66,-76.78 671.69,-73.19 677.25,-82.21 681.66,-76.78"/>
</g>
<!-- Ghost Info Left&#45;&gt;Move Up -->
<g id="edge36" class="edge">
<title>Ghost Info Left&#45;&gt;Move Up</title>
<path fill="none" stroke="red" stroke-width="0.14" d="M1181.04,-124.82C1177.95,-124.29 1174.86,-123.79 1171.88,-123.33 1044.38,-103.69 1000.5,-142.45 883.88,-87.33 878.64,-84.85 873.61,-81.53 868.94,-77.83"/>
<polygon fill="red" stroke="red" stroke-width="0.14" points="871.45,-75.38 861.61,-71.47 866.87,-80.66 871.45,-75.38"/>
</g>
<!-- Ghost Info Left&#45;&gt;Move Down -->
<g id="edge37" class="edge">
<title>Ghost Info Left&#45;&gt;Move Down</title>
<path fill="none" stroke="red" stroke-width="0.18" d="M1188.75,-122.85C1141.85,-108.29 1047.02,-78.85 988.04,-60.55"/>
<polygon fill="red" stroke="red" stroke-width="0.18" points="989.39,-57.3 978.8,-57.68 987.32,-63.99 989.39,-57.3"/>
</g>
<!-- Ghost Info Up -->
<g id="node11" class="node">
<title>Ghost Info Up</title>
<polygon fill="lightblue" stroke="black" points="1339.12,-141.83 1270.62,-141.83 1270.62,-123.33 1339.12,-123.33 1339.12,-141.83"/>
<text text-anchor="middle" x="1304.88" y="-129.28" font-family="Times,serif" font-size="9.00">Ghost Info Up</text>
</g>
<!-- Ghost Info Up&#45;&gt;Move Right -->
<g id="edge38" class="edge">
<title>Ghost Info Up&#45;&gt;Move Right</title>
<path fill="none" stroke="red" stroke-width="0.2" d="M1270.2,-124.58C1267.39,-124.12 1264.59,-123.69 1261.88,-123.33 1158.49,-109.48 890.29,-127.14 793.88,-87.33 789.37,-85.47 784.97,-83.04 780.77,-80.28"/>
<polygon fill="red" stroke="red" stroke-width="0.2" points="782.85,-77.47 772.71,-74.42 778.74,-83.13 782.85,-77.47"/>
</g>
<!-- Ghost Info Up&#45;&gt;Move Left -->
<g id="edge39" class="edge">
<title>Ghost Info Up&#45;&gt;Move Left</title>
<path fill="none" stroke="red" stroke-width="0.26" d="M1270.2,-124.54C1267.39,-124.08 1264.59,-123.67 1261.88,-123.33 1136.19,-107.36 809.3,-137.31 692.88,-87.33 688.12,-85.29 683.54,-82.53 679.24,-79.4"/>
<polygon fill="red" stroke="red" stroke-width="0.26" points="681.62,-76.82 671.64,-73.24 677.21,-82.26 681.62,-76.82"/>
</g>
<!-- Ghost Info Up&#45;&gt;Move Up -->
<g id="edge40" class="edge">
<title>Ghost Info Up&#45;&gt;Move Up</title>
<path fill="none" stroke="green" stroke-width="0.43" d="M1270.19,-124.63C1267.38,-124.16 1264.58,-123.72 1261.88,-123.33 1094.82,-99.4 1037.49,-157.2 883.88,-87.33 878.73,-84.99 873.8,-81.81 869.22,-78.24"/>
<polygon fill="green" stroke="green" stroke-width="0.43" points="871.72,-75.78 861.86,-71.91 867.16,-81.09 871.72,-75.78"/>
</g>
<!-- Ghost Info Up&#45;&gt;Move Down -->
<g id="edge41" class="edge">
<title>Ghost Info Up&#45;&gt;Move Down</title>
<path fill="none" stroke="green" stroke-width="0.16" stroke-dasharray="1,5" d="M1270.25,-123.4C1205.53,-108.11 1065.84,-75.12 989.43,-57.08"/>
<polygon fill="green" stroke="green" stroke-width="0.16" points="990.3,-53.69 979.77,-54.79 988.69,-60.5 990.3,-53.69"/>
</g>
<!-- Ghost Info Down -->
<g id="node12" class="node">
<title>Ghost Info Down</title>
<polygon fill="lightblue" stroke="black" points="1436.75,-141.83 1357,-141.83 1357,-123.33 1436.75,-123.33 1436.75,-141.83"/>
<text text-anchor="middle" x="1396.88" y="-129.28" font-family="Times,serif" font-size="9.00">Ghost Info Down</text>
</g>
<!-- Ghost Info Down&#45;&gt;Move Right -->
<g id="edge42" class="edge">
<title>Ghost Info Down&#45;&gt;Move Right</title>
<path fill="none" stroke="green" stroke-width="0.59" d="M1356.54,-124.45C1353.62,-124.04 1350.7,-123.66 1347.88,-123.33 1225.33,-109.07 908.19,-133.73 793.88,-87.33 789.47,-85.54 785.18,-83.21 781.08,-80.55"/>
<polygon fill="green" stroke="green" stroke-width="0.59" points="783.32,-77.85 773.16,-74.83 779.22,-83.53 783.32,-77.85"/>
</g>
<!-- Ghost Info Down&#45;&gt;Move Left -->
<g id="edge43" class="edge">
<title>Ghost Info Down&#45;&gt;Move Left</title>
<path fill="none" stroke="red" stroke-width="0.37" d="M1356.55,-124.42C1353.62,-124.01 1350.7,-123.64 1347.88,-123.33 1202.99,-107.2 827.07,-144.28 692.88,-87.33 688.11,-85.31 683.53,-82.56 679.23,-79.44"/>
<polygon fill="red" stroke="red" stroke-width="0.37" points="681.74,-76.97 671.76,-73.4 677.33,-82.41 681.74,-76.97"/>
</g>
<!-- Ghost Info Down&#45;&gt;Move Up -->
<g id="edge44" class="edge">
<title>Ghost Info Down&#45;&gt;Move Up</title>
<path fill="none" stroke="red" stroke-width="0.19" d="M1356.54,-124.49C1353.61,-124.07 1350.7,-123.67 1347.88,-123.33 1245.22,-110.73 978.39,-129.32 883.88,-87.33 878.58,-84.98 873.52,-81.73 868.84,-78.06"/>
<polygon fill="red" stroke="red" stroke-width="0.19" points="871.41,-75.66 861.55,-71.78 866.84,-80.96 871.41,-75.66"/>
</g>
<!-- Ghost Info Down&#45;&gt;Move Down -->
<g id="edge45" class="edge">
<title>Ghost Info Down&#45;&gt;Move Down</title>
<path fill="none" stroke="green" stroke-width="0.21" d="M1356.86,-124.02C1273.85,-108.33 1082.92,-72.26 989.84,-54.67"/>
<polygon fill="green" stroke="green" stroke-width="0.21" points="990.58,-51.25 980.11,-52.83 989.29,-58.13 990.58,-51.25"/>
</g>
<!-- PAC&#45;MAN Right -->
<g id="node13" class="node">
<title>PAC&#45;MAN Right</title>
<polygon fill="lightblue" stroke="black" points="430.38,-141.83 351.38,-141.83 351.38,-123.33 430.38,-123.33 430.38,-141.83"/>
<text text-anchor="middle" x="390.88" y="-129.28" font-family="Times,serif" font-size="9.00">PAC&#45;MAN Right</text>
</g>
<!-- PAC&#45;MAN Right&#45;&gt;Move Right -->
<g id="edge46" class="edge">
<title>PAC&#45;MAN Right&#45;&gt;Move Right</title>
<path fill="none" stroke="red" stroke-width="0.46" d="M430.71,-124.78C433.81,-124.28 436.89,-123.79 439.88,-123.33 552.55,-105.86 589.93,-134.19 693.88,-87.33 698.21,-85.38 702.45,-82.93 706.52,-80.2"/>
<polygon fill="red" stroke="red" stroke-width="0.46" points="708.58,-83.03 714.56,-74.28 704.43,-77.4 708.58,-83.03"/>
</g>
<!-- PAC&#45;MAN Right&#45;&gt;Move Left -->
<g id="edge47" class="edge">
<title>PAC&#45;MAN Right&#45;&gt;Move Left</title>
<path fill="none" stroke="red" stroke-width="0.38" d="M416.36,-122.93C459.37,-108.32 546.94,-78.59 600.91,-60.27"/>
<polygon fill="red" stroke="red" stroke-width="0.38" points="602.01,-63.59 610.36,-57.06 599.76,-56.96 602.01,-63.59"/>
</g>
<!-- PAC&#45;MAN Right&#45;&gt;Move Up -->
<g id="edge48" class="edge">
<title>PAC&#45;MAN Right&#45;&gt;Move Up</title>
<path fill="none" stroke="red" stroke-width="0.2" d="M430.69,-124.65C433.79,-124.18 436.88,-123.73 439.88,-123.33 597.04,-102.15 651.09,-154.23 794.88,-87.33 799.82,-85.03 804.55,-81.94 808.95,-78.47"/>
<polygon fill="red" stroke="red" stroke-width="0.2" points="811.02,-81.3 816.27,-72.09 806.43,-76.02 811.02,-81.3"/>
</g>
<!-- PAC&#45;MAN Right&#45;&gt;Move Down -->
<g id="edge49" class="edge">
<title>PAC&#45;MAN Right&#45;&gt;Move Down</title>
<path fill="none" stroke="green" stroke-width="0.34" d="M430.68,-124.58C433.79,-124.13 436.88,-123.7 439.88,-123.33 538.11,-111.1 791.92,-123.98 883.88,-87.33 888.44,-85.51 892.91,-83.16 897.21,-80.49"/>
<polygon fill="green" stroke="green" stroke-width="0.34" points="899.05,-83.47 905.34,-74.94 895.1,-77.69 899.05,-83.47"/>
</g>
<!-- PAC&#45;MAN Left -->
<g id="node14" class="node">
<title>PAC&#45;MAN Left</title>
<polygon fill="lightblue" stroke="black" points="177.75,-141.83 104,-141.83 104,-123.33 177.75,-123.33 177.75,-141.83"/>
<text text-anchor="middle" x="140.88" y="-129.28" font-family="Times,serif" font-size="9.00">PAC&#45;MAN Left</text>
</g>
<!-- PAC&#45;MAN Left&#45;&gt;Move Right -->
<g id="edge50" class="edge">
<title>PAC&#45;MAN Left&#45;&gt;Move Right</title>
<path fill="none" stroke="red" stroke-width="0.63" d="M178.23,-124.53C181.15,-124.09 184.06,-123.68 186.88,-123.33 298.96,-109.34 589.35,-130.13 693.88,-87.33 698.27,-85.53 702.56,-83.19 706.66,-80.52"/>
<polygon fill="red" stroke="red" stroke-width="0.63" points="708.47,-83.53 714.53,-74.84 704.37,-77.86 708.47,-83.53"/>
</g>
<!-- PAC&#45;MAN Left&#45;&gt;Move Left -->
<g id="edge51" class="edge">
<title>PAC&#45;MAN Left&#45;&gt;Move Left</title>
<path fill="none" stroke="red" stroke-width="0.33" d="M178.03,-124.89C181.02,-124.36 184,-123.83 186.88,-123.33 337.26,-96.98 515.49,-66.8 599.09,-52.7"/>
<polygon fill="red" stroke="red" stroke-width="0.33" points="599.52,-56.18 608.8,-51.07 598.35,-49.28 599.52,-56.18"/>
</g>
<!-- PAC&#45;MAN Left&#45;&gt;Move Up -->
<g id="edge52" class="edge">
<title>PAC&#45;MAN Left&#45;&gt;Move Up</title>
<path fill="none" stroke="green" stroke-width="0.14" d="M178.23,-124.5C181.15,-124.06 184.06,-123.66 186.88,-123.33 321.28,-107.35 670.99,-141.84 794.88,-87.33 799.87,-85.13 804.62,-82.1 809.04,-78.67"/>
<polygon fill="green" stroke="green" stroke-width="0.14" points="811.16,-81.46 816.43,-72.27 806.58,-76.17 811.16,-81.46"/>
</g>
<!-- PAC&#45;MAN Up -->
<g id="node15" class="node">
<title>PAC&#45;MAN Up</title>
<polygon fill="lightblue" stroke="black" points="266.25,-141.83 195.5,-141.83 195.5,-123.33 266.25,-123.33 266.25,-141.83"/>
<text text-anchor="middle" x="230.88" y="-129.28" font-family="Times,serif" font-size="9.00">PAC&#45;MAN Up</text>
</g>
<!-- PAC&#45;MAN Up&#45;&gt;Move Right -->
<g id="edge53" class="edge">
<title>PAC&#45;MAN Up&#45;&gt;Move Right</title>
<path fill="none" stroke="green" stroke-width="0.73" d="M266.69,-124.69C269.79,-124.19 272.88,-123.73 275.88,-123.33 368.28,-110.91 607.86,-123.3 693.88,-87.33 698.14,-85.54 702.3,-83.26 706.3,-80.67"/>
<polygon fill="green" stroke="green" stroke-width="0.73" points="708.32,-83.53 714.37,-74.83 704.22,-77.85 708.32,-83.53"/>
</g>
<!-- PAC&#45;MAN Up&#45;&gt;Move Left -->
<g id="edge54" class="edge">
<title>PAC&#45;MAN Up&#45;&gt;Move Left</title>
<path fill="none" stroke="green" stroke-width="0.66" d="M266.7,-124.09C341.66,-108.43 515.03,-72.21 599.25,-54.61"/>
<polygon fill="green" stroke="green" stroke-width="0.66" points="599.74,-58.09 608.81,-52.62 598.31,-51.24 599.74,-58.09"/>
</g>
<!-- PAC&#45;MAN Up&#45;&gt;Move Up -->
<g id="edge55" class="edge">
<title>PAC&#45;MAN Up&#45;&gt;Move Up</title>
<path fill="none" stroke="green" stroke-width="0.65" d="M266.68,-124.64C269.78,-124.15 272.88,-123.7 275.88,-123.33 390.58,-108.88 689.29,-134.43 794.88,-87.33 799.61,-85.22 804.13,-82.37 808.35,-79.13"/>
<polygon fill="green" stroke="green" stroke-width="0.65" points="810.52,-81.88 815.82,-72.71 805.96,-76.57 810.52,-81.88"/>
</g>
<!-- PAC&#45;MAN Down -->
<g id="node16" class="node">
<title>PAC&#45;MAN Down</title>
<polygon fill="lightblue" stroke="black" points="539,-141.83 448.75,-141.83 448.75,-123.33 539,-123.33 539,-141.83"/>
<text text-anchor="middle" x="493.88" y="-129.28" font-family="Times,serif" font-size="9.00">PAC&#45;MAN Down</text>
</g>
<!-- PAC&#45;MAN Down&#45;&gt;Move Right -->
<g id="edge56" class="edge">
<title>PAC&#45;MAN Down&#45;&gt;Move Right</title>
<path fill="none" stroke="red" stroke-width="0.13" d="M539.5,-124.13C589.82,-115.45 667.22,-100.6 693.88,-87.33 698.18,-85.18 702.42,-82.59 706.51,-79.75"/>
<polygon fill="red" stroke="red" stroke-width="0.13" points="708.58,-82.57 714.48,-73.77 704.38,-76.97 708.58,-82.57"/>
</g>
<!-- PAC&#45;MAN Down&#45;&gt;Move Left -->
<g id="edge57" class="edge">
<title>PAC&#45;MAN Down&#45;&gt;Move Left</title>
<path fill="none" stroke="red" stroke-width="0.17" d="M509.1,-122.93C531.35,-110.29 573.55,-86.32 605.41,-68.22"/>
<polygon fill="red" stroke="red" stroke-width="0.17" points="606.9,-71.4 613.87,-63.42 603.44,-65.31 606.9,-71.4"/>
</g>
<!-- PAC&#45;MAN Down&#45;&gt;Move Up -->
<g id="edge58" class="edge">
<title>PAC&#45;MAN Down&#45;&gt;Move Up</title>
<path fill="none" stroke="red" stroke-width="0.45" d="M539.24,-124.62C542.17,-124.18 545.06,-123.75 547.88,-123.33 657.6,-106.95 695.34,-136.32 794.88,-87.33 799.65,-84.98 804.23,-81.92 808.52,-78.52"/>
<polygon fill="red" stroke="red" stroke-width="0.45" points="810.64,-81.32 815.86,-72.11 806.03,-76.05 810.64,-81.32"/>
</g>
<!-- PAC&#45;MAN Down&#45;&gt;Move Down -->
<g id="edge59" class="edge">
<title>PAC&#45;MAN Down&#45;&gt;Move Down</title>
<path fill="none" stroke="green" stroke-width="0.46" stroke-dasharray="1,5" d="M539.23,-124.5C542.15,-124.09 545.05,-123.69 547.88,-123.33 696.81,-103.98 745.09,-144.74 883.88,-87.33 888.41,-85.45 892.87,-83.06 897.16,-80.37"/>
<polygon fill="green" stroke="green" stroke-width="0.46" points="898.87,-83.44 905.13,-74.89 894.91,-77.67 898.87,-83.44"/>
</g>
<!-- Power&#45;Up Time -->
<g id="node17" class="node">
<title>Power&#45;Up Time</title>
<polygon fill="lightblue" stroke="black" points="630.75,-141.83 557,-141.83 557,-123.33 630.75,-123.33 630.75,-141.83"/>
<text text-anchor="middle" x="593.88" y="-129.28" font-family="Times,serif" font-size="9.00">Power&#45;Up Time</text>
</g>
<!-- Power&#45;Up Time&#45;&gt;Move Right -->
<g id="edge60" class="edge">
<title>Power&#45;Up Time&#45;&gt;Move Right</title>
<path fill="none" stroke="red" stroke-width="0.22" d="M618.71,-122.9C639.58,-115.08 669.77,-102.49 693.88,-87.33 697.89,-84.8 701.92,-81.97 705.85,-79"/>
<polygon fill="red" stroke="red" stroke-width="0.22" points="707.81,-81.91 713.49,-72.97 703.48,-76.42 707.81,-81.91"/>
</g>
<!-- Power&#45;Up Time&#45;&gt;Move Left -->
<g id="edge61" class="edge">
<title>Power&#45;Up Time&#45;&gt;Move Left</title>
<path fill="none" stroke="red" stroke-width="0.37" d="M599.15,-122.93C604.61,-113.97 613.55,-99.31 622.23,-85.09"/>
<polygon fill="red" stroke="red" stroke-width="0.37" points="625.05,-87.18 627.26,-76.82 619.07,-83.54 625.05,-87.18"/>
</g>
<!-- Power&#45;Up Time&#45;&gt;Move Up -->
<g id="edge62" class="edge">
<title>Power&#45;Up Time&#45;&gt;Move Up</title>
<path fill="none" stroke="red" stroke-width="0.37" d="M630.96,-124.55C685,-114.14 780.56,-95.03 794.88,-87.33 799.56,-84.81 804.09,-81.65 808.35,-78.19"/>
<polygon fill="red" stroke="red" stroke-width="0.37" points="810.59,-80.89 815.76,-71.64 805.95,-75.64 810.59,-80.89"/>
</g>
<!-- Power&#45;Up Time&#45;&gt;Move Down -->
<g id="edge63" class="edge">
<title>Power&#45;Up Time&#45;&gt;Move Down</title>
<path fill="none" stroke="red" stroke-width="0.28" d="M631.02,-124.81C634.01,-124.3 636.99,-123.8 639.88,-123.33 748.06,-105.65 783.43,-131.24 883.88,-87.33 888.31,-85.39 892.68,-82.98 896.9,-80.3"/>
<polygon fill="red" stroke="red" stroke-width="0.28" points="898.73,-83.29 904.95,-74.72 894.74,-77.53 898.73,-83.29"/>
</g>
</g>
</svg>
