<?xml version="1.0" encoding="UTF-8" standalone="no"?>
<!DOCTYPE svg PUBLIC "-//W3C//DTD SVG 1.1//EN"
 "http://www.w3.org/Graphics/SVG/1.1/DTD/svg11.dtd">
<!-- Generated by graphviz version 12.0.0 (20240704.0754)
 -->
<!-- Pages: 1 -->
<svg width="2569pt" height="228pt"
 viewBox="0.00 0.00 2569.32 227.55" xmlns="http://www.w3.org/2000/svg" xmlns:xlink="http://www.w3.org/1999/xlink">
<g id="graph0" class="graph" transform="scale(1 1) rotate(0) translate(4 223.55)">
<polygon fill="white" stroke="none" points="-4,4 -4,-223.55 2565.32,-223.55 2565.32,4 -4,4"/>
<!-- Pellet Right -->
<g id="node1" class="node">
<title>Pellet Right</title>
<polygon fill="lightblue" stroke="black" points="1139.62,-219.55 1082.37,-219.55 1082.37,-201.05 1139.62,-201.05 1139.62,-219.55"/>
<text text-anchor="middle" x="1110.99" y="-207" font-family="Times,serif" font-size="9.00">Pellet Right</text>
</g>
<!-- Move Right -->
<g id="node18" class="node">
<title>Move Right</title>
<ellipse fill="lightblue" stroke="black" cx="1372.99" cy="-43.66" rx="41.54" ry="41.54"/>
<text text-anchor="middle" x="1372.99" y="-40.36" font-family="Times,serif" font-size="9.00">Move Right</text>
</g>
<!-- Pellet Right&#45;&gt;Move Right -->
<g id="edge22" class="edge">
<title>Pellet Right&#45;&gt;Move Right</title>
<path fill="none" stroke="red" stroke-width="0.11" d="M1110.74,-200.57C1110.75,-183.26 1113.35,-144.42 1134.99,-123.33 1181.92,-77.58 1216.08,-108.84 1277.99,-87.33 1294.41,-81.62 1311.89,-74.19 1327.33,-67.12"/>
<polygon fill="red" stroke="red" stroke-width="0.11" points="1328.41,-70.48 1336.01,-63.09 1325.46,-64.13 1328.41,-70.48"/>
</g>
<!-- Move Left -->
<g id="node19" class="node">
<title>Move Left</title>
<ellipse fill="lightblue" stroke="black" cx="1034.99" cy="-43.66" rx="37.83" ry="37.83"/>
<text text-anchor="middle" x="1034.99" y="-40.36" font-family="Times,serif" font-size="9.00">Move Left</text>
</g>
<!-- Pellet Right&#45;&gt;Move Left -->
<g id="edge23" class="edge">
<title>Pellet Right&#45;&gt;Move Left</title>
<path fill="none" stroke="red" stroke-width="0.63" d="M1082.02,-207.37C1031.04,-203.3 928.66,-191.92 906.99,-165.05 874.48,-124.72 941.41,-84.93 990.17,-62.7"/>
<polygon fill="red" stroke="red" stroke-width="0.63" points="991.36,-66 999.08,-58.75 988.52,-59.61 991.36,-66"/>
</g>
<!-- Move Up -->
<g id="node20" class="node">
<title>Move Up</title>
<ellipse fill="lightblue" stroke="black" cx="1512.99" cy="-43.66" rx="35.71" ry="35.71"/>
<text text-anchor="middle" x="1512.99" y="-40.36" font-family="Times,serif" font-size="9.00">Move Up</text>
</g>
<!-- Pellet Right&#45;&gt;Move Up -->
<g id="edge24" class="edge">
<title>Pellet Right&#45;&gt;Move Up</title>
<path fill="none" stroke="red" stroke-width="0.33" d="M1125.59,-200.58C1154.53,-183.61 1221.59,-145.86 1281.99,-123.33 1342.99,-100.57 1362.78,-109.51 1423.99,-87.33 1440.4,-81.38 1457.84,-73.41 1472.9,-65.97"/>
<polygon fill="red" stroke="red" stroke-width="0.33" points="1474.13,-69.27 1481.49,-61.65 1470.98,-63.02 1474.13,-69.27"/>
</g>
<!-- Move Down -->
<g id="node21" class="node">
<title>Move Down</title>
<ellipse fill="lightblue" stroke="black" cx="1224.99" cy="-43.66" rx="43.66" ry="43.66"/>
<text text-anchor="middle" x="1224.99" y="-40.36" font-family="Times,serif" font-size="9.00">Move Down</text>
</g>
<!-- Pellet Right&#45;&gt;Move Down -->
<g id="edge25" class="edge">
<title>Pellet Right&#45;&gt;Move Down</title>
<path fill="none" stroke="red" stroke-width="0.54" d="M1116.8,-200.91C1130.89,-180.56 1167.68,-127.42 1194.46,-88.76"/>
<polygon fill="red" stroke="red" stroke-width="0.54" points="1197.07,-91.14 1199.88,-80.93 1191.31,-87.15 1197.07,-91.14"/>
</g>
<!-- 334 -->
<g id="node23" class="node">
<title>334</title>
<ellipse fill="white" stroke="black" cx="1311.99" cy="-144.19" rx="20.86" ry="20.86"/>
<text text-anchor="middle" x="1311.99" y="-140.89" font-family="Times,serif" font-size="9.00">334</text>
</g>
<!-- Pellet Right&#45;&gt;334 -->
<g id="edge1" class="edge">
<title>Pellet Right&#45;&gt;334</title>
<path fill="none" stroke="red" stroke-width="0.11" d="M1138.1,-200.65C1175.83,-188.61 1243.92,-166.9 1282.76,-154.51"/>
<polygon fill="red" stroke="red" stroke-width="0.11" points="1283.35,-158 1291.81,-151.62 1281.22,-151.33 1283.35,-158"/>
</g>
<!-- Pellet Left -->
<g id="node2" class="node">
<title>Pellet Left</title>
<polygon fill="lightblue" stroke="black" points="984.99,-219.55 932.99,-219.55 932.99,-201.05 984.99,-201.05 984.99,-219.55"/>
<text text-anchor="middle" x="958.99" y="-207" font-family="Times,serif" font-size="9.00">Pellet Left</text>
</g>
<!-- Pellet Left&#45;&gt;Move Right -->
<g id="edge26" class="edge">
<title>Pellet Left&#45;&gt;Move Right</title>
<path fill="none" stroke="red" stroke-width="0.46" d="M958.53,-200.61C958.13,-183 959.96,-143.13 982.99,-123.33 1033.07,-80.28 1214.37,-105.06 1277.99,-87.33 1294.42,-82.75 1311.64,-75.75 1326.84,-68.74"/>
<polygon fill="red" stroke="red" stroke-width="0.46" points="1328.34,-71.9 1335.87,-64.46 1325.34,-65.58 1328.34,-71.9"/>
</g>
<!-- Pellet Left&#45;&gt;Move Left -->
<g id="edge27" class="edge">
<title>Pellet Left&#45;&gt;Move Left</title>
<path fill="none" stroke="green" d="M932.77,-207.58C882.83,-203.71 777.06,-192.41 754.99,-165.05 743.35,-150.61 743.79,-138.11 754.99,-123.33 782.85,-86.56 913.59,-62.2 986.15,-51.27"/>
<polygon fill="green" stroke="green" points="986.4,-54.77 995.78,-49.85 985.38,-47.85 986.4,-54.77"/>
</g>
<!-- Pellet Left&#45;&gt;Move Up -->
<g id="edge28" class="edge">
<title>Pellet Left&#45;&gt;Move Up</title>
<path fill="none" stroke="green" stroke-width="0.16" d="M977.77,-200.67C1016.2,-183.35 1106.97,-144.24 1186.99,-123.33 1290.07,-96.39 1322.17,-118.7 1423.99,-87.33 1440.67,-82.19 1458.17,-74.38 1473.19,-66.85"/>
<polygon fill="green" stroke="green" stroke-width="0.16" points="1474.69,-70.01 1481.98,-62.33 1471.49,-63.79 1474.69,-70.01"/>
</g>
<!-- Pellet Left&#45;&gt;Move Down -->
<g id="edge29" class="edge">
<title>Pellet Left&#45;&gt;Move Down</title>
<path fill="none" stroke="red" stroke-width="0.19" d="M972.92,-200.68C1011,-177.11 1118.12,-110.81 1179.77,-72.65"/>
<polygon fill="red" stroke="red" stroke-width="0.19" points="1181.26,-75.85 1187.92,-67.61 1177.57,-69.9 1181.26,-75.85"/>
</g>
<!-- Pellet Left&#45;&gt;334 -->
<g id="edge2" class="edge">
<title>Pellet Left&#45;&gt;334</title>
<path fill="none" stroke="green" stroke-width="0.13" d="M985.23,-204.53C1049.37,-192.88 1213.77,-163.02 1281.81,-150.67"/>
<polygon fill="green" stroke="green" stroke-width="0.13" points="1282.09,-154.18 1291.3,-148.94 1280.84,-147.29 1282.09,-154.18"/>
</g>
<!-- Pellet Up -->
<g id="node3" class="node">
<title>Pellet Up</title>
<polygon fill="lightblue" stroke="black" points="185.49,-219.55 136.49,-219.55 136.49,-201.05 185.49,-201.05 185.49,-219.55"/>
<text text-anchor="middle" x="160.99" y="-207" font-family="Times,serif" font-size="9.00">Pellet Up</text>
</g>
<!-- Pellet Up&#45;&gt;Move Right -->
<g id="edge30" class="edge">
<title>Pellet Up&#45;&gt;Move Right</title>
<path fill="none" stroke="red" stroke-width="0.35" d="M173.62,-200.58C201.08,-182.19 268.96,-139.73 332.99,-123.33 536.57,-71.17 1073.38,-135.26 1277.99,-87.33 1294.9,-83.37 1312.5,-76.37 1327.88,-69.18"/>
<polygon fill="red" stroke="red" stroke-width="0.35" points="1329.2,-72.43 1336.68,-64.92 1326.15,-66.12 1329.2,-72.43"/>
</g>
<!-- Pellet Up&#45;&gt;Move Left -->
<g id="edge31" class="edge">
<title>Pellet Up&#45;&gt;Move Left</title>
<path fill="none" stroke="red" stroke-width="0.43" d="M136.24,-205.72C97.23,-199.51 24.29,-185.44 8.99,-165.05 -2.14,-150.22 -3.61,-136.93 8.99,-123.33 76.05,-50.93 791.62,-44.91 986.32,-44.61"/>
<polygon fill="red" stroke="red" stroke-width="0.43" points="986.16,-48.11 996.15,-44.6 986.15,-41.11 986.16,-48.11"/>
</g>
<!-- Pellet Up&#45;&gt;Move Down -->
<g id="edge32" class="edge">
<title>Pellet Up&#45;&gt;Move Down</title>
<path fill="none" stroke="green" stroke-width="0.15" d="M160.41,-200.72C159.74,-182.97 161.05,-142.27 184.99,-123.33 263.22,-61.44 983.6,-103.71 1081.99,-87.33 1113.29,-82.12 1147.36,-72.13 1174.4,-63.12"/>
<polygon fill="green" stroke="green" stroke-width="0.15" points="1175.46,-66.46 1183.81,-59.94 1173.21,-59.83 1175.46,-66.46"/>
</g>
<!-- Pellet Up&#45;&gt;334 -->
<g id="edge3" class="edge">
<title>Pellet Up&#45;&gt;334</title>
<path fill="none" stroke="green" stroke-width="0.39" d="M185.9,-206.72C203.74,-204.94 228.32,-202.62 249.99,-201.05 657.06,-171.49 1152.99,-151.33 1280.79,-146.37"/>
<polygon fill="green" stroke="green" stroke-width="0.39" points="1280.56,-149.88 1290.42,-146 1280.29,-142.89 1280.56,-149.88"/>
</g>
<!-- 911 -->
<g id="node24" class="node">
<title>911</title>
<ellipse fill="white" stroke="black" cx="111.99" cy="-144.19" rx="20.86" ry="20.86"/>
<text text-anchor="middle" x="111.99" y="-140.89" font-family="Times,serif" font-size="9.00">911</text>
</g>
<!-- Pellet Up&#45;&gt;911 -->
<g id="edge91" class="edge">
<title>Pellet Up&#45;&gt;911</title>
<path fill="none" stroke="red" stroke-width="0.11" d="M154.38,-200.65C148.26,-192.64 138.87,-180.35 130.48,-169.37"/>
<polygon fill="red" stroke="red" stroke-width="0.11" points="133.28,-167.28 124.43,-161.46 127.72,-171.53 133.28,-167.28"/>
</g>
<!-- Pellet Down -->
<g id="node4" class="node">
<title>Pellet Down</title>
<polygon fill="lightblue" stroke="black" points="837.12,-219.55 776.87,-219.55 776.87,-201.05 837.12,-201.05 837.12,-219.55"/>
<text text-anchor="middle" x="806.99" y="-207" font-family="Times,serif" font-size="9.00">Pellet Down</text>
</g>
<!-- Pellet Down&#45;&gt;Move Right -->
<g id="edge33" class="edge">
<title>Pellet Down&#45;&gt;Move Right</title>
<path fill="none" stroke="red" stroke-width="0.16" d="M806.47,-200.8C805.92,-183.19 807.44,-142.75 830.99,-123.33 907.88,-59.94 1181.46,-112.1 1277.99,-87.33 1294.67,-83.05 1312.08,-76.05 1327.38,-68.94"/>
<polygon fill="red" stroke="red" stroke-width="0.16" points="1328.87,-72.11 1336.38,-64.64 1325.85,-65.8 1328.87,-72.11"/>
</g>
<!-- Pellet Down&#45;&gt;Move Left -->
<g id="edge34" class="edge">
<title>Pellet Down&#45;&gt;Move Left</title>
<path fill="none" stroke="green" stroke-width="0.12" d="M776.39,-207.24C724.9,-203.06 624.43,-191.64 602.99,-165.05 591.35,-150.61 591.11,-137.56 602.99,-123.33 651.51,-65.18 884.91,-49.91 987.01,-45.98"/>
<polygon fill="green" stroke="green" stroke-width="0.12" points="987,-49.49 996.86,-45.62 986.74,-42.49 987,-49.49"/>
</g>
<!-- Pellet Down&#45;&gt;Move Up -->
<g id="edge35" class="edge">
<title>Pellet Down&#45;&gt;Move Up</title>
<path fill="none" stroke="red" stroke-width="0.52" d="M827.45,-200.66C870.29,-182.98 972.92,-142.68 1062.99,-123.33 1220.63,-89.45 1268.73,-130.83 1423.99,-87.33 1440.64,-82.66 1457.99,-75.05 1472.9,-67.53"/>
<polygon fill="red" stroke="red" stroke-width="0.52" points="1474.36,-70.72 1481.62,-63 1471.14,-64.51 1474.36,-70.72"/>
</g>
<!-- Pellet Down&#45;&gt;Move Down -->
<g id="edge36" class="edge">
<title>Pellet Down&#45;&gt;Move Down</title>
<path fill="none" stroke="green" stroke-width="0.92" d="M829.17,-200.56C893.7,-175.14 1082.6,-100.74 1174.12,-64.7"/>
<polygon fill="green" stroke="green" stroke-width="0.92" points="1175.21,-68.03 1183.23,-61.11 1172.64,-61.52 1175.21,-68.03"/>
</g>
<!-- Pellet Down&#45;&gt;334 -->
<g id="edge4" class="edge">
<title>Pellet Down&#45;&gt;334</title>
<path fill="none" stroke="red" stroke-width="0.21" d="M837.44,-205.43C927.2,-194.04 1190.07,-160.67 1280.78,-149.15"/>
<polygon fill="red" stroke="red" stroke-width="0.21" points="1281.18,-152.63 1290.66,-147.9 1280.3,-145.68 1281.18,-152.63"/>
</g>
<!-- Power Pellet Right -->
<g id="node5" class="node">
<title>Power Pellet Right</title>
<polygon fill="lightblue" stroke="black" points="1364.37,-219.55 1281.62,-219.55 1281.62,-201.05 1364.37,-201.05 1364.37,-219.55"/>
<text text-anchor="middle" x="1322.99" y="-207" font-family="Times,serif" font-size="9.00">Power Pellet Right</text>
</g>
<!-- Power Pellet Right&#45;&gt;Move Right -->
<g id="edge37" class="edge">
<title>Power Pellet Right&#45;&gt;Move Right</title>
<path fill="none" stroke="red" stroke-width="0.25" d="M1327.18,-200.64C1331.33,-191.83 1337.67,-177.71 1341.99,-165.05 1349.75,-142.3 1356.63,-116.56 1361.92,-94.74"/>
<polygon fill="red" stroke="red" stroke-width="0.25" points="1365.31,-95.6 1364.22,-85.07 1358.5,-93.98 1365.31,-95.6"/>
</g>
<!-- Power Pellet Right&#45;&gt;Move Left -->
<g id="edge38" class="edge">
<title>Power Pellet Right&#45;&gt;Move Left</title>
<path fill="none" stroke="green" stroke-width="0.45" d="M1307.91,-200.68C1265.11,-176.21 1141.75,-105.7 1076.54,-68.42"/>
<polygon fill="green" stroke="green" stroke-width="0.45" points="1078.36,-65.43 1067.94,-63.5 1074.89,-71.5 1078.36,-65.43"/>
</g>
<!-- Power Pellet Right&#45;&gt;Move Up -->
<g id="edge39" class="edge">
<title>Power Pellet Right&#45;&gt;Move Up</title>
<path fill="none" stroke="green" stroke-width="0.61" d="M1332.94,-200.68C1359.62,-177.56 1433.77,-113.31 1478.15,-74.85"/>
<polygon fill="green" stroke="green" stroke-width="0.61" points="1480.37,-77.56 1485.64,-68.36 1475.79,-72.27 1480.37,-77.56"/>
</g>
<!-- Power Pellet Right&#45;&gt;Move Down -->
<g id="edge40" class="edge">
<title>Power Pellet Right&#45;&gt;Move Down</title>
<path fill="none" stroke="green" stroke-width="0.24" d="M1313.64,-200.83C1304.71,-192.4 1291.26,-178.75 1281.99,-165.05 1267.14,-143.09 1254.16,-116.66 1244.35,-94.17"/>
<polygon fill="green" stroke="green" stroke-width="0.24" points="1247.64,-92.95 1240.49,-85.13 1241.2,-95.7 1247.64,-92.95"/>
</g>
<!-- Power Pellet Right&#45;&gt;334 -->
<g id="edge5" class="edge">
<title>Power Pellet Right&#45;&gt;334</title>
<path fill="none" stroke="green" stroke-width="0.61" d="M1321.51,-200.65C1320.39,-194.12 1318.77,-184.73 1317.2,-175.53"/>
<polygon fill="green" stroke="green" stroke-width="0.61" points="1320.69,-175.18 1315.55,-165.91 1313.79,-176.36 1320.69,-175.18"/>
</g>
<!-- Power Pellet Left -->
<g id="node6" class="node">
<title>Power Pellet Left</title>
<polygon fill="lightblue" stroke="black" points="2520.74,-219.55 2443.24,-219.55 2443.24,-201.05 2520.74,-201.05 2520.74,-219.55"/>
<text text-anchor="middle" x="2481.99" y="-207" font-family="Times,serif" font-size="9.00">Power Pellet Left</text>
</g>
<!-- Power Pellet Left&#45;&gt;Move Right -->
<g id="edge41" class="edge">
<title>Power Pellet Left&#45;&gt;Move Right</title>
<path fill="none" stroke="red" stroke-width="0.58" d="M2445.33,-200.56C2369.55,-182.88 2189.97,-142.86 2036.99,-123.33 1785.64,-91.23 1713.96,-148.21 1467.99,-87.33 1451.43,-83.23 1434.18,-76.36 1418.99,-69.31"/>
<polygon fill="red" stroke="red" stroke-width="0.58" points="1420.65,-66.23 1410.12,-65.06 1417.63,-72.54 1420.65,-66.23"/>
</g>
<!-- Power Pellet Left&#45;&gt;Move Up -->
<g id="edge42" class="edge">
<title>Power Pellet Left&#45;&gt;Move Up</title>
<path fill="none" stroke="green" stroke-width="0.54" d="M2507.85,-200.63C2523.96,-193.73 2543.4,-182.32 2552.99,-165.05 2561.99,-148.84 2565.6,-136.92 2552.99,-123.33 2484.68,-49.66 1753.13,-44.6 1559.69,-44.56"/>
<polygon fill="green" stroke="green" stroke-width="0.54" points="1559.86,-41.06 1549.86,-44.56 1559.86,-48.06 1559.86,-41.06"/>
</g>
<!-- Power Pellet Left&#45;&gt;Move Down -->
<g id="edge43" class="edge">
<title>Power Pellet Left&#45;&gt;Move Down</title>
<path fill="none" stroke="green" stroke-width="0.11" d="M2470.6,-200.57C2445.79,-182.15 2384.32,-139.65 2324.99,-123.33 2109.94,-64.18 1539.39,-137.11 1321.99,-87.33 1305.05,-83.45 1287.41,-76.62 1271.88,-69.55"/>
<polygon fill="green" stroke="green" stroke-width="0.11" points="1273.7,-66.54 1263.16,-65.46 1270.72,-72.88 1273.7,-66.54"/>
</g>
<!-- Power Pellet Left&#45;&gt;334 -->
<g id="edge6" class="edge">
<title>Power Pellet Left&#45;&gt;334</title>
<path fill="none" stroke="red" stroke-width="0.25" d="M2442.76,-205.01C2428.94,-203.6 2413.29,-202.12 2398.99,-201.05 1981.58,-169.59 1472.63,-150.75 1343.11,-146.24"/>
<polygon fill="red" stroke="red" stroke-width="0.25" points="1343.6,-142.76 1333.48,-145.91 1343.36,-149.75 1343.6,-142.76"/>
</g>
<!-- Power Pellet Up -->
<g id="node7" class="node">
<title>Power Pellet Up</title>
<polygon fill="lightblue" stroke="black" points="333.24,-219.55 258.74,-219.55 258.74,-201.05 333.24,-201.05 333.24,-219.55"/>
<text text-anchor="middle" x="295.99" y="-207" font-family="Times,serif" font-size="9.00">Power Pellet Up</text>
</g>
<!-- Power Pellet Up&#45;&gt;Move Right -->
<g id="edge44" class="edge">
<title>Power Pellet Up&#45;&gt;Move Right</title>
<path fill="none" stroke="red" stroke-width="0.15" d="M303.87,-200.83C312.14,-191.94 325.51,-177.54 336.99,-165.05 353.96,-146.58 352.26,-133.92 374.99,-123.33 466.01,-80.93 1180.24,-110.31 1277.99,-87.33 1295.06,-83.31 1312.82,-76.22 1328.31,-68.95"/>
<polygon fill="red" stroke="red" stroke-width="0.15" points="1329.47,-72.28 1336.95,-64.78 1326.42,-65.98 1329.47,-72.28"/>
</g>
<!-- Power Pellet Up&#45;&gt;Move Left -->
<g id="edge45" class="edge">
<title>Power Pellet Up&#45;&gt;Move Left</title>
<path fill="none" stroke="green" stroke-width="0.33" stroke-dasharray="1,5" d="M258.5,-205.93C187.07,-199.12 37.16,-182.86 21.99,-165.05 9.97,-150.93 9.4,-136.94 21.99,-123.33 88.09,-51.89 793.13,-45.16 986.3,-44.66"/>
<polygon fill="green" stroke="green" stroke-width="0.33" points="986.21,-48.16 996.2,-44.64 986.19,-41.16 986.21,-48.16"/>
</g>
<!-- Power Pellet Up&#45;&gt;Move Up -->
<g id="edge46" class="edge">
<title>Power Pellet Up&#45;&gt;Move Up</title>
<path fill="none" stroke="red" stroke-width="0.28" d="M319.85,-200.58C370.93,-182.38 495.05,-140.57 602.99,-123.33 783.32,-94.52 1246.84,-131.7 1423.99,-87.33 1441.06,-83.05 1458.75,-75.34 1473.83,-67.64"/>
<polygon fill="red" stroke="red" stroke-width="0.28" points="1475.26,-70.84 1482.47,-63.08 1471.99,-64.65 1475.26,-70.84"/>
</g>
<!-- Power Pellet Up&#45;&gt;Move Down -->
<g id="edge47" class="edge">
<title>Power Pellet Up&#45;&gt;Move Down</title>
<path fill="none" stroke="green" stroke-width="0.17" stroke-dasharray="1,5" d="M322.09,-200.63C376.69,-182.9 507.26,-142.51 619.99,-123.33 823.03,-88.78 879.51,-124.98 1081.99,-87.33 1113.18,-81.53 1147.26,-71.51 1174.31,-62.64"/>
<polygon fill="green" stroke="green" stroke-width="0.17" points="1175.31,-66 1183.7,-59.52 1173.1,-59.36 1175.31,-66"/>
</g>
<!-- 994 -->
<g id="node22" class="node">
<title>994</title>
<ellipse fill="white" stroke="black" cx="51.99" cy="-144.19" rx="20.86" ry="20.86"/>
<text text-anchor="middle" x="51.99" y="-140.89" font-family="Times,serif" font-size="9.00">994</text>
</g>
<!-- Power Pellet Up&#45;&gt;994 -->
<g id="edge89" class="edge">
<title>Power Pellet Up&#45;&gt;994</title>
<path fill="none" stroke="green" stroke-width="0.24" d="M258.37,-205.89C214.61,-200.94 140.84,-189.53 81.99,-165.05 80.4,-164.39 78.81,-163.64 77.24,-162.83"/>
<polygon fill="green" stroke="green" stroke-width="0.24" points="79.21,-159.93 68.81,-157.9 75.67,-165.97 79.21,-159.93"/>
</g>
<!-- Power Pellet Up&#45;&gt;334 -->
<g id="edge7" class="edge">
<title>Power Pellet Up&#45;&gt;334</title>
<path fill="none" stroke="green" stroke-width="0.39" d="M333.66,-206.92C495.7,-196.7 1131.94,-156.55 1280.74,-147.16"/>
<polygon fill="green" stroke="green" stroke-width="0.39" points="1280.63,-150.67 1290.39,-146.55 1280.19,-143.69 1280.63,-150.67"/>
</g>
<!-- Power Pellet Down -->
<g id="node8" class="node">
<title>Power Pellet Down</title>
<polygon fill="lightblue" stroke="black" points="1479.87,-219.55 1394.12,-219.55 1394.12,-201.05 1479.87,-201.05 1479.87,-219.55"/>
<text text-anchor="middle" x="1436.99" y="-207" font-family="Times,serif" font-size="9.00">Power Pellet Down</text>
</g>
<!-- Power Pellet Down&#45;&gt;Move Right -->
<g id="edge48" class="edge">
<title>Power Pellet Down&#45;&gt;Move Right</title>
<path fill="none" stroke="red" stroke-width="0.24" d="M1433.73,-200.91C1426.05,-181.15 1406.36,-130.5 1391.46,-92.18"/>
<polygon fill="red" stroke="red" stroke-width="0.24" points="1394.8,-91.11 1387.92,-83.06 1388.28,-93.65 1394.8,-91.11"/>
</g>
<!-- Power Pellet Down&#45;&gt;Move Left -->
<g id="edge49" class="edge">
<title>Power Pellet Down&#45;&gt;Move Left</title>
<path fill="none" stroke="red" stroke-width="0.3" d="M1430.18,-200.61C1415.88,-183.02 1380.82,-143.15 1341.99,-123.33 1273.21,-88.21 1246.72,-106.83 1171.99,-87.33 1141.21,-79.3 1107.05,-68.66 1080.54,-60.02"/>
<polygon fill="red" stroke="red" stroke-width="0.3" points="1081.81,-56.75 1071.21,-56.96 1079.62,-63.4 1081.81,-56.75"/>
</g>
<!-- Power Pellet Down&#45;&gt;Move Up -->
<g id="edge50" class="edge">
<title>Power Pellet Down&#45;&gt;Move Up</title>
<path fill="none" stroke="red" stroke-width="0.16" d="M1440.86,-200.91C1450.52,-179.98 1476.2,-124.36 1494.15,-85.48"/>
<polygon fill="red" stroke="red" stroke-width="0.16" points="1497.19,-87.24 1498.2,-76.69 1490.84,-84.31 1497.19,-87.24"/>
</g>
<!-- Power Pellet Down&#45;&gt;Move Down -->
<g id="edge51" class="edge">
<title>Power Pellet Down&#45;&gt;Move Down</title>
<path fill="none" stroke="green" stroke-width="0.19" d="M1437,-200.8C1436.55,-183.91 1433.21,-145.78 1412.99,-123.33 1383.88,-91.01 1362.13,-104.09 1321.99,-87.33 1306.24,-80.75 1289.18,-73.34 1273.81,-66.56"/>
<polygon fill="green" stroke="green" stroke-width="0.19" points="1275.31,-63.4 1264.75,-62.55 1272.48,-69.8 1275.31,-63.4"/>
</g>
<!-- Power Pellet Down&#45;&gt;334 -->
<g id="edge8" class="edge">
<title>Power Pellet Down&#45;&gt;334</title>
<path fill="none" stroke="red" stroke-width="0.3" d="M1420.13,-200.65C1399.42,-190.03 1364.02,-171.87 1339.38,-159.24"/>
<polygon fill="red" stroke="red" stroke-width="0.3" points="1341.1,-156.18 1330.6,-154.73 1337.9,-162.41 1341.1,-156.18"/>
</g>
<!-- Ghost Info Right -->
<g id="node9" class="node">
<title>Ghost Info Right</title>
<polygon fill="lightblue" stroke="black" points="1779.37,-219.55 1702.62,-219.55 1702.62,-201.05 1779.37,-201.05 1779.37,-219.55"/>
<text text-anchor="middle" x="1740.99" y="-207" font-family="Times,serif" font-size="9.00">Ghost Info Right</text>
</g>
<!-- Ghost Info Right&#45;&gt;Move Right -->
<g id="edge52" class="edge">
<title>Ghost Info Right&#45;&gt;Move Right</title>
<path fill="none" stroke="red" stroke-width="0.25" d="M1721.45,-200.58C1676.64,-180.59 1562.98,-129.88 1467.99,-87.33 1452.41,-80.35 1435.41,-72.72 1420.14,-65.86"/>
<polygon fill="red" stroke="red" stroke-width="0.25" points="1421.8,-62.77 1411.24,-61.86 1418.93,-69.15 1421.8,-62.77"/>
</g>
<!-- Ghost Info Right&#45;&gt;Move Left -->
<g id="edge53" class="edge">
<title>Ghost Info Right&#45;&gt;Move Left</title>
<path fill="none" stroke="red" stroke-width="0.23" d="M1716.51,-200.59C1667,-183.3 1551.18,-144.5 1450.99,-123.33 1328.66,-97.48 1294.14,-114.02 1171.99,-87.33 1140.91,-80.54 1106.76,-69.91 1080.32,-60.96"/>
<polygon fill="red" stroke="red" stroke-width="0.23" points="1081.52,-57.67 1070.92,-57.73 1079.25,-64.29 1081.52,-57.67"/>
</g>
<!-- Ghost Info Right&#45;&gt;Move Up -->
<g id="edge54" class="edge">
<title>Ghost Info Right&#45;&gt;Move Up</title>
<path fill="none" stroke="green" stroke-width="0.42" d="M1779.73,-206.55C1833.01,-201.87 1924.63,-190.3 1944.99,-165.05 1956.63,-150.61 1956.87,-137.56 1944.99,-123.33 1896.22,-64.87 1660.61,-49.75 1559.37,-45.92"/>
<polygon fill="green" stroke="green" stroke-width="0.42" points="1559.62,-42.43 1549.5,-45.57 1559.37,-49.42 1559.62,-42.43"/>
</g>
<!-- Ghost Info Right&#45;&gt;Move Down -->
<g id="edge55" class="edge">
<title>Ghost Info Right&#45;&gt;Move Down</title>
<path fill="none" stroke="red" stroke-width="0.57" d="M1741.5,-200.55C1742,-182.84 1740.32,-142.77 1716.99,-123.33 1649.28,-66.9 1407.33,-109.36 1321.99,-87.33 1305.62,-83.1 1288.51,-76.42 1273.3,-69.58"/>
<polygon fill="red" stroke="red" stroke-width="0.57" points="1274.93,-66.48 1264.39,-65.45 1271.99,-72.83 1274.93,-66.48"/>
</g>
<!-- Ghost Info Right&#45;&gt;334 -->
<g id="edge9" class="edge">
<title>Ghost Info Right&#45;&gt;334</title>
<path fill="none" stroke="red" stroke-width="0.61" stroke-dasharray="1,5" d="M1702.16,-203.49C1618.02,-190.92 1420.27,-161.37 1343.36,-149.88"/>
<polygon fill="red" stroke="red" stroke-width="0.61" points="1344.25,-146.47 1333.84,-148.45 1343.21,-153.39 1344.25,-146.47"/>
</g>
<!-- Ghost Info Left -->
<g id="node10" class="node">
<title>Ghost Info Left</title>
<polygon fill="lightblue" stroke="black" points="1928.74,-219.55 1857.24,-219.55 1857.24,-201.05 1928.74,-201.05 1928.74,-219.55"/>
<text text-anchor="middle" x="1892.99" y="-207" font-family="Times,serif" font-size="9.00">Ghost Info Left</text>
</g>
<!-- Ghost Info Left&#45;&gt;Move Right -->
<g id="edge56" class="edge">
<title>Ghost Info Left&#45;&gt;Move Right</title>
<path fill="none" stroke="green" stroke-width="0.48" d="M1865.48,-200.64C1814.62,-184.73 1702.36,-150 1606.99,-123.33 1545.53,-106.14 1528.2,-108.47 1467.99,-87.33 1451.9,-81.68 1434.77,-74.4 1419.54,-67.46"/>
<polygon fill="green" stroke="green" stroke-width="0.48" points="1421.05,-64.3 1410.51,-63.27 1418.11,-70.65 1421.05,-64.3"/>
</g>
<!-- Ghost Info Left&#45;&gt;Move Left -->
<g id="edge57" class="edge">
<title>Ghost Info Left&#45;&gt;Move Left</title>
<path fill="none" stroke="green" stroke-width="0.25" d="M1863.53,-200.62C1803.32,-183.22 1661.56,-143.97 1539.99,-123.33 1377.97,-95.82 1333.06,-119.93 1171.99,-87.33 1140.81,-81.02 1106.65,-70.39 1080.24,-61.32"/>
<polygon fill="green" stroke="green" stroke-width="0.25" points="1081.48,-58.04 1070.88,-58.06 1079.17,-64.65 1081.48,-58.04"/>
</g>
<!-- Ghost Info Left&#45;&gt;Move Up -->
<g id="edge58" class="edge">
<title>Ghost Info Left&#45;&gt;Move Up</title>
<path fill="none" stroke="green" stroke-width="0.11" d="M1929.08,-206.78C1981.91,-202.25 2076.29,-190.72 2096.99,-165.05 2108.63,-150.61 2109.19,-137.29 2096.99,-123.33 2061.59,-82.83 1690.23,-55.78 1558.78,-47.42"/>
<polygon fill="green" stroke="green" stroke-width="0.11" points="1559.01,-43.92 1548.81,-46.79 1558.57,-50.91 1559.01,-43.92"/>
</g>
<!-- Ghost Info Left&#45;&gt;Move Down -->
<g id="edge59" class="edge">
<title>Ghost Info Left&#45;&gt;Move Down</title>
<path fill="none" stroke="green" stroke-width="0.81" d="M1893.53,-200.77C1894.12,-183.11 1892.69,-142.57 1868.99,-123.33 1821.71,-84.93 1381.15,-101.81 1321.99,-87.33 1305.43,-83.27 1288.14,-76.56 1272.83,-69.65"/>
<polygon fill="green" stroke="green" stroke-width="0.81" points="1274.73,-66.68 1264.19,-65.62 1271.78,-73.02 1274.73,-66.68"/>
</g>
<!-- Ghost Info Left&#45;&gt;334 -->
<g id="edge10" class="edge">
<title>Ghost Info Left&#45;&gt;334</title>
<path fill="none" stroke="red" stroke-width="0.32" d="M1857.08,-205.34C1751.44,-193.68 1442.89,-159.63 1343.34,-148.65"/>
<polygon fill="red" stroke="red" stroke-width="0.32" points="1343.86,-145.18 1333.54,-147.56 1343.09,-152.14 1343.86,-145.18"/>
</g>
<!-- Ghost Info Up -->
<g id="node11" class="node">
<title>Ghost Info Up</title>
<polygon fill="lightblue" stroke="black" points="506.24,-219.55 437.74,-219.55 437.74,-201.05 506.24,-201.05 506.24,-219.55"/>
<text text-anchor="middle" x="471.99" y="-207" font-family="Times,serif" font-size="9.00">Ghost Info Up</text>
</g>
<!-- Ghost Info Up&#45;&gt;Move Right -->
<g id="edge60" class="edge">
<title>Ghost Info Up&#45;&gt;Move Right</title>
<path fill="none" stroke="green" stroke-width="0.27" d="M474.51,-200.76C480.33,-182.72 496.63,-140.9 526.99,-123.33 599.29,-81.47 1196.75,-106.78 1277.99,-87.33 1294.74,-83.32 1312.17,-76.39 1327.46,-69.26"/>
<polygon fill="green" stroke="green" stroke-width="0.27" points="1328.83,-72.49 1336.32,-65 1325.79,-66.18 1328.83,-72.49"/>
</g>
<!-- Ghost Info Up&#45;&gt;Move Left -->
<g id="edge61" class="edge">
<title>Ghost Info Up&#45;&gt;Move Left</title>
<path fill="none" stroke="red" stroke-width="0.45" stroke-dasharray="1,5" d="M437.54,-205.45C392.08,-199.58 315.82,-186.72 298.99,-165.05 287.62,-150.4 286.6,-137.12 298.99,-123.33 345.02,-72.12 829.85,-51.52 986.49,-46.17"/>
<polygon fill="red" stroke="red" stroke-width="0.45" points="986.2,-49.68 996.08,-45.85 985.97,-42.68 986.2,-49.68"/>
</g>
<!-- Ghost Info Up&#45;&gt;Move Up -->
<g id="edge62" class="edge">
<title>Ghost Info Up&#45;&gt;Move Up</title>
<path fill="none" stroke="red" stroke-width="0.5" d="M495.14,-200.67C544.7,-182.62 665.14,-141.1 769.99,-123.33 1057,-74.67 1142.01,-159.63 1423.99,-87.33 1440.74,-83.03 1458.11,-75.5 1473.01,-67.94"/>
<polygon fill="red" stroke="red" stroke-width="0.5" points="1474.51,-71.11 1481.74,-63.36 1471.26,-64.91 1474.51,-71.11"/>
</g>
<!-- Ghost Info Up&#45;&gt;Move Down -->
<g id="edge63" class="edge">
<title>Ghost Info Up&#45;&gt;Move Down</title>
<path fill="none" stroke="red" stroke-width="0.11" d="M498.82,-200.62C553.06,-183.4 679.87,-144.71 788.99,-123.33 917.74,-98.09 953.57,-114.18 1081.99,-87.33 1113.05,-80.84 1147.11,-70.79 1174.2,-62.08"/>
<polygon fill="red" stroke="red" stroke-width="0.11" points="1175.27,-65.41 1183.7,-58.99 1173.1,-58.76 1175.27,-65.41"/>
</g>
<!-- Ghost Info Up&#45;&gt;334 -->
<g id="edge11" class="edge">
<title>Ghost Info Up&#45;&gt;334</title>
<path fill="none" stroke="green" stroke-width="0.38" d="M506.49,-206.66C643.71,-196.19 1149.79,-157.57 1280.84,-147.56"/>
<polygon fill="green" stroke="green" stroke-width="0.38" points="1280.71,-151.08 1290.42,-146.83 1280.18,-144.1 1280.71,-151.08"/>
</g>
<!-- Ghost Info Up&#45;&gt;911 -->
<g id="edge87" class="edge">
<title>Ghost Info Up&#45;&gt;911</title>
<path fill="none" stroke="green" stroke-width="0.18" d="M437.47,-203.15C367.31,-190.66 209.07,-162.48 142.46,-150.61"/>
<polygon fill="green" stroke="green" stroke-width="0.18" points="143.3,-147.21 132.84,-148.9 142.07,-154.1 143.3,-147.21"/>
</g>
<!-- Ghost Info Down -->
<g id="node12" class="node">
<title>Ghost Info Down</title>
<polygon fill="lightblue" stroke="black" points="2084.87,-219.55 2005.12,-219.55 2005.12,-201.05 2084.87,-201.05 2084.87,-219.55"/>
<text text-anchor="middle" x="2044.99" y="-207" font-family="Times,serif" font-size="9.00">Ghost Info Down</text>
</g>
<!-- Ghost Info Down&#45;&gt;Move Right -->
<g id="edge64" class="edge">
<title>Ghost Info Down&#45;&gt;Move Right</title>
<path fill="none" stroke="red" stroke-width="0.48" d="M2012.96,-200.63C1951.09,-184.08 1810.64,-147.48 1690.99,-123.33 1592.58,-103.47 1564.16,-116.14 1467.99,-87.33 1451.65,-82.43 1434.45,-75.35 1419.25,-68.36"/>
<polygon fill="red" stroke="red" stroke-width="0.48" points="1420.77,-65.21 1410.23,-64.11 1417.79,-71.54 1420.77,-65.21"/>
</g>
<!-- Ghost Info Down&#45;&gt;Move Left -->
<g id="edge65" class="edge">
<title>Ghost Info Down&#45;&gt;Move Left</title>
<path fill="none" stroke="red" stroke-width="0.35" stroke-dasharray="1,5" d="M2011.82,-200.56C1943.64,-182.97 1782.6,-143.26 1644.99,-123.33 1436.34,-93.11 1379.07,-126.92 1171.99,-87.33 1140.64,-81.33 1106.35,-70.65 1079.92,-61.48"/>
<polygon fill="red" stroke="red" stroke-width="0.35" points="1081.29,-58.25 1070.7,-58.22 1078.96,-64.85 1081.29,-58.25"/>
</g>
<!-- Ghost Info Down&#45;&gt;Move Up -->
<g id="edge66" class="edge">
<title>Ghost Info Down&#45;&gt;Move Up</title>
<path fill="none" stroke="green" stroke-width="0.34" d="M2085.08,-206.43C2138.54,-201.68 2228.8,-190.08 2248.99,-165.05 2260.63,-150.61 2261.39,-137.12 2248.99,-123.33 2202.7,-71.83 1712.59,-51.28 1558.85,-46.08"/>
<polygon fill="green" stroke="green" stroke-width="0.34" points="1559.42,-42.6 1549.31,-45.76 1559.19,-49.59 1559.42,-42.6"/>
</g>
<!-- Ghost Info Down&#45;&gt;Move Down -->
<g id="edge67" class="edge">
<title>Ghost Info Down&#45;&gt;Move Down</title>
<path fill="none" stroke="green" stroke-width="0.68" d="M2045.55,-200.74C2046.19,-183.03 2044.82,-142.4 2020.99,-123.33 1960.28,-74.73 1397.66,-105.28 1321.99,-87.33 1305.4,-83.39 1288.1,-76.71 1272.79,-69.79"/>
<polygon fill="green" stroke="green" stroke-width="0.68" points="1274.52,-66.74 1263.98,-65.68 1271.56,-73.08 1274.52,-66.74"/>
</g>
<!-- Ghost Info Down&#45;&gt;334 -->
<g id="edge12" class="edge">
<title>Ghost Info Down&#45;&gt;334</title>
<path fill="none" stroke="red" stroke-width="0.11" d="M2004.8,-205.78C1873.69,-194.32 1460.19,-158.15 1343.14,-147.91"/>
<polygon fill="red" stroke="red" stroke-width="0.11" points="1343.49,-144.43 1333.22,-147.04 1342.88,-151.4 1343.49,-144.43"/>
</g>
<!-- PAC&#45;MAN Right -->
<g id="node13" class="node">
<title>PAC&#45;MAN Right</title>
<polygon fill="lightblue" stroke="black" points="2236.49,-219.55 2157.49,-219.55 2157.49,-201.05 2236.49,-201.05 2236.49,-219.55"/>
<text text-anchor="middle" x="2196.99" y="-207" font-family="Times,serif" font-size="9.00">PAC&#45;MAN Right</text>
</g>
<!-- PAC&#45;MAN Right&#45;&gt;Move Right -->
<g id="edge68" class="edge">
<title>PAC&#45;MAN Right&#45;&gt;Move Right</title>
<path fill="none" stroke="green" stroke-width="0.23" d="M2161.73,-200.58C2091.67,-183.55 1929.83,-145.56 1791.99,-123.33 1648.95,-100.26 1607.77,-125.47 1467.99,-87.33 1451.38,-82.8 1433.98,-75.73 1418.68,-68.65"/>
<polygon fill="green" stroke="green" stroke-width="0.23" points="1420.29,-65.54 1409.75,-64.4 1417.28,-71.86 1420.29,-65.54"/>
</g>
<!-- PAC&#45;MAN Right&#45;&gt;Move Left -->
<g id="edge69" class="edge">
<title>PAC&#45;MAN Right&#45;&gt;Move Left</title>
<path fill="none" stroke="green" stroke-width="0.4" d="M2161.95,-200.57C2089.11,-182.81 1915.82,-142.51 1767.99,-123.33 1504.83,-89.18 1433.02,-135.13 1171.99,-87.33 1140.59,-81.58 1106.31,-70.9 1079.89,-61.66"/>
<polygon fill="green" stroke="green" stroke-width="0.4" points="1081.33,-58.46 1070.74,-58.41 1078.98,-65.05 1081.33,-58.46"/>
</g>
<!-- PAC&#45;MAN Right&#45;&gt;Move Up -->
<g id="edge70" class="edge">
<title>PAC&#45;MAN Right&#45;&gt;Move Up</title>
<path fill="none" stroke="green" stroke-width="0.39" d="M2236.94,-204.25C2281.01,-197.76 2347.73,-184.91 2362.99,-165.05 2374.29,-150.34 2375.48,-137.03 2362.99,-123.33 2308.49,-63.55 1728.76,-48.52 1559.28,-45.39"/>
<polygon fill="green" stroke="green" stroke-width="0.39" points="1559.59,-41.9 1549.53,-45.22 1559.47,-48.89 1559.59,-41.9"/>
</g>
<!-- PAC&#45;MAN Right&#45;&gt;Move Down -->
<g id="edge71" class="edge">
<title>PAC&#45;MAN Right&#45;&gt;Move Down</title>
<path fill="none" stroke="green" stroke-width="0.31" d="M2197.57,-200.73C2198.23,-182.98 2196.91,-142.29 2172.99,-123.33 2098.83,-64.53 1414.17,-108.75 1321.99,-87.33 1305.22,-83.43 1287.75,-76.68 1272.33,-69.69"/>
<polygon fill="green" stroke="green" stroke-width="0.31" points="1273.98,-66.6 1263.44,-65.52 1271.01,-72.93 1273.98,-66.6"/>
</g>
<!-- PAC&#45;MAN Right&#45;&gt;334 -->
<g id="edge13" class="edge">
<title>PAC&#45;MAN Right&#45;&gt;334</title>
<path fill="none" stroke="green" stroke-width="0.11" d="M2157.38,-206.04C2138.23,-204.49 2114.92,-202.63 2093.99,-201.05 1802.04,-178.93 1448.58,-154.54 1343.12,-147.31"/>
<polygon fill="green" stroke="green" stroke-width="0.11" points="1343.53,-143.83 1333.31,-146.64 1343.05,-150.82 1343.53,-143.83"/>
</g>
<!-- PAC&#45;MAN Left -->
<g id="node14" class="node">
<title>PAC&#45;MAN Left</title>
<polygon fill="lightblue" stroke="black" points="1625.87,-219.55 1552.12,-219.55 1552.12,-201.05 1625.87,-201.05 1625.87,-219.55"/>
<text text-anchor="middle" x="1588.99" y="-207" font-family="Times,serif" font-size="9.00">PAC&#45;MAN Left</text>
</g>
<!-- PAC&#45;MAN Left&#45;&gt;Move Right -->
<g id="edge72" class="edge">
<title>PAC&#45;MAN Left&#45;&gt;Move Right</title>
<path fill="none" stroke="red" stroke-width="0.27" d="M1577.68,-200.68C1547.59,-177.74 1464.39,-114.33 1413.81,-75.78"/>
<polygon fill="red" stroke="red" stroke-width="0.27" points="1416.08,-73.1 1406,-69.83 1411.83,-78.67 1416.08,-73.1"/>
</g>
<!-- PAC&#45;MAN Left&#45;&gt;Move Left -->
<g id="edge73" class="edge">
<title>PAC&#45;MAN Left&#45;&gt;Move Left</title>
<path fill="none" stroke="red" stroke-width="0.27" d="M1571.84,-200.56C1537.1,-183.24 1455.57,-144.37 1382.99,-123.33 1291.62,-96.84 1264.5,-109.52 1171.99,-87.33 1141.06,-79.91 1106.9,-69.28 1080.43,-60.48"/>
<polygon fill="red" stroke="red" stroke-width="0.27" points="1081.66,-57.2 1071.07,-57.34 1079.44,-63.84 1081.66,-57.2"/>
</g>
<!-- PAC&#45;MAN Left&#45;&gt;Move Up -->
<g id="edge74" class="edge">
<title>PAC&#45;MAN Left&#45;&gt;Move Up</title>
<path fill="none" stroke="green" stroke-width="0.12" d="M1625.96,-206.7C1678.95,-202.13 1772.4,-190.58 1792.99,-165.05 1804.63,-150.61 1804.19,-138.11 1792.99,-123.33 1764.67,-85.95 1630.01,-61.4 1558.26,-50.74"/>
<polygon fill="green" stroke="green" stroke-width="0.12" points="1559.15,-47.33 1548.75,-49.35 1558.14,-54.26 1559.15,-47.33"/>
</g>
<!-- PAC&#45;MAN Left&#45;&gt;Move Down -->
<g id="edge75" class="edge">
<title>PAC&#45;MAN Left&#45;&gt;Move Down</title>
<path fill="none" stroke="red" stroke-width="0.16" d="M1589.41,-200.65C1589.74,-183.14 1587.77,-143.42 1564.99,-123.33 1483.11,-51.11 1426.9,-117.58 1321.99,-87.33 1305.59,-82.6 1288.35,-75.7 1273.02,-68.82"/>
<polygon fill="red" stroke="red" stroke-width="0.16" points="1274.51,-65.65 1263.96,-64.66 1271.59,-72.01 1274.51,-65.65"/>
</g>
<!-- PAC&#45;MAN Left&#45;&gt;334 -->
<g id="edge14" class="edge">
<title>PAC&#45;MAN Left&#45;&gt;334</title>
<path fill="none" stroke="red" stroke-width="0.38" d="M1551.63,-200.65C1496.35,-187.86 1393.79,-164.12 1342.64,-152.28"/>
<polygon fill="red" stroke="red" stroke-width="0.38" points="1343.63,-148.92 1333.1,-150.07 1342.05,-155.74 1343.63,-148.92"/>
</g>
<!-- PAC&#45;MAN Up -->
<g id="node15" class="node">
<title>PAC&#45;MAN Up</title>
<polygon fill="lightblue" stroke="black" points="690.37,-219.55 619.62,-219.55 619.62,-201.05 690.37,-201.05 690.37,-219.55"/>
<text text-anchor="middle" x="654.99" y="-207" font-family="Times,serif" font-size="9.00">PAC&#45;MAN Up</text>
</g>
<!-- PAC&#45;MAN Up&#45;&gt;Move Right -->
<g id="edge76" class="edge">
<title>PAC&#45;MAN Up&#45;&gt;Move Right</title>
<path fill="none" stroke="green" stroke-width="0.35" d="M654.44,-200.76C653.83,-183.08 655.24,-142.51 678.99,-123.33 730.87,-81.44 1213.24,-103.25 1277.99,-87.33 1294.71,-83.22 1312.14,-76.26 1327.43,-69.14"/>
<polygon fill="green" stroke="green" stroke-width="0.35" points="1328.67,-72.43 1336.17,-64.95 1325.65,-66.12 1328.67,-72.43"/>
</g>
<!-- PAC&#45;MAN Up&#45;&gt;Move Left -->
<g id="edge77" class="edge">
<title>PAC&#45;MAN Up&#45;&gt;Move Left</title>
<path fill="none" stroke="red" stroke-width="0.18" d="M619.33,-206.81C566.59,-202.32 471.75,-190.79 450.99,-165.05 439.35,-150.61 438.79,-137.29 450.99,-123.33 486.22,-83.03 854.2,-56.04 987.29,-47.54"/>
<polygon fill="red" stroke="red" stroke-width="0.18" points="987.17,-51.05 996.93,-46.93 986.72,-44.07 987.17,-51.05"/>
</g>
<!-- PAC&#45;MAN Up&#45;&gt;Move Up -->
<g id="edge78" class="edge">
<title>PAC&#45;MAN Up&#45;&gt;Move Up</title>
<path fill="none" stroke="green" stroke-width="0.11" stroke-dasharray="1,5" d="M675.74,-200.6C719.7,-182.63 825.79,-141.54 918.99,-123.33 1139.83,-80.17 1206.49,-144.98 1423.99,-87.33 1440.86,-82.86 1458.4,-75.19 1473.4,-67.58"/>
<polygon fill="green" stroke="green" stroke-width="0.11" points="1475,-70.69 1482.23,-62.95 1471.75,-64.49 1475,-70.69"/>
</g>
<!-- PAC&#45;MAN Up&#45;&gt;Move Down -->
<g id="edge79" class="edge">
<title>PAC&#45;MAN Up&#45;&gt;Move Down</title>
<path fill="none" stroke="green" stroke-width="0.33" d="M680.29,-200.57C728.13,-184.24 835.28,-148.43 926.99,-123.33 995.2,-104.66 1013.63,-105.45 1081.99,-87.33 1112.41,-79.26 1146.16,-69.25 1173.23,-60.95"/>
<polygon fill="green" stroke="green" stroke-width="0.33" points="1174.25,-64.29 1182.78,-58 1172.19,-57.6 1174.25,-64.29"/>
</g>
<!-- PAC&#45;MAN Up&#45;&gt;334 -->
<g id="edge15" class="edge">
<title>PAC&#45;MAN Up&#45;&gt;334</title>
<path fill="none" stroke="green" stroke-width="0.37" d="M690.78,-205.8C806.76,-194.49 1171.07,-158.94 1280.56,-148.25"/>
<polygon fill="green" stroke="green" stroke-width="0.37" points="1280.76,-151.75 1290.37,-147.3 1280.08,-144.78 1280.76,-151.75"/>
</g>
<!-- PAC&#45;MAN Down -->
<g id="node16" class="node">
<title>PAC&#45;MAN Down</title>
<polygon fill="lightblue" stroke="black" points="2390.12,-219.55 2299.87,-219.55 2299.87,-201.05 2390.12,-201.05 2390.12,-219.55"/>
<text text-anchor="middle" x="2344.99" y="-207" font-family="Times,serif" font-size="9.00">PAC&#45;MAN Down</text>
</g>
<!-- PAC&#45;MAN Down&#45;&gt;Move Right -->
<g id="edge80" class="edge">
<title>PAC&#45;MAN Down&#45;&gt;Move Right</title>
<path fill="none" stroke="green" stroke-width="0.52" d="M2308.36,-200.56C2233.95,-183.15 2059.53,-144.01 1910.99,-123.33 1715.34,-96.09 1659.31,-136.5 1467.99,-87.33 1451.47,-83.08 1434.23,-76.17 1419.03,-69.14"/>
<polygon fill="green" stroke="green" stroke-width="0.52" points="1420.62,-66.02 1410.09,-64.86 1417.6,-72.33 1420.62,-66.02"/>
</g>
<!-- PAC&#45;MAN Down&#45;&gt;Move Left -->
<g id="edge81" class="edge">
<title>PAC&#45;MAN Down&#45;&gt;Move Left</title>
<path fill="none" stroke="green" stroke-width="0.17" d="M2309.13,-200.6C2233.73,-182.7 2053.02,-141.89 1898.99,-123.33 1577.81,-84.62 1490.52,-143.87 1171.99,-87.33 1140.42,-81.72 1105.97,-70.97 1079.51,-61.66"/>
<polygon fill="green" stroke="green" stroke-width="0.17" points="1080.98,-58.47 1070.38,-58.4 1078.62,-65.06 1080.98,-58.47"/>
</g>
<!-- PAC&#45;MAN Down&#45;&gt;Move Up -->
<g id="edge82" class="edge">
<title>PAC&#45;MAN Down&#45;&gt;Move Up</title>
<path fill="none" stroke="red" stroke-width="0.32" d="M2390.53,-207.06C2420.41,-202.94 2457.44,-192.22 2476.99,-165.05 2487.82,-150 2489.56,-136.96 2476.99,-123.33 2414.23,-55.23 1743.77,-46.08 1559.58,-44.85"/>
<polygon fill="red" stroke="red" stroke-width="0.32" points="1559.67,-41.35 1549.65,-44.79 1559.63,-48.35 1559.67,-41.35"/>
</g>
<!-- PAC&#45;MAN Down&#45;&gt;334 -->
<g id="edge16" class="edge">
<title>PAC&#45;MAN Down&#45;&gt;334</title>
<path fill="none" stroke="red" stroke-width="0.11" d="M2299.67,-205.3C2282.82,-203.87 2263.54,-202.3 2245.99,-201.05 1891.68,-175.69 1461.18,-152.9 1343.17,-146.79"/>
<polygon fill="red" stroke="red" stroke-width="0.11" points="1343.38,-143.29 1333.21,-146.27 1343.02,-150.28 1343.38,-143.29"/>
</g>
<!-- Power&#45;Up Time -->
<g id="node17" class="node">
<title>Power&#45;Up Time</title>
<polygon fill="lightblue" stroke="black" points="1263.87,-219.55 1190.12,-219.55 1190.12,-201.05 1263.87,-201.05 1263.87,-219.55"/>
<text text-anchor="middle" x="1226.99" y="-207" font-family="Times,serif" font-size="9.00">Power&#45;Up Time</text>
</g>
<!-- Power&#45;Up Time&#45;&gt;Move Right -->
<g id="edge83" class="edge">
<title>Power&#45;Up Time&#45;&gt;Move Right</title>
<path fill="none" stroke="red" stroke-width="0.17" d="M1231.41,-200.69C1239.92,-184.55 1259.72,-149.05 1281.99,-123.33 1296.91,-106.1 1315.65,-89.26 1332.24,-75.61"/>
<polygon fill="red" stroke="red" stroke-width="0.17" points="1334.41,-78.36 1339.98,-69.35 1330,-72.92 1334.41,-78.36"/>
</g>
<!-- Power&#45;Up Time&#45;&gt;Move Left -->
<g id="edge84" class="edge">
<title>Power&#45;Up Time&#45;&gt;Move Left</title>
<path fill="none" stroke="red" stroke-width="0.28" d="M1216.94,-200.68C1190.15,-177.71 1116.04,-114.16 1071.1,-75.62"/>
<polygon fill="red" stroke="red" stroke-width="0.28" points="1073.53,-73.1 1063.66,-69.24 1068.97,-78.41 1073.53,-73.1"/>
</g>
<!-- Power&#45;Up Time&#45;&gt;Move Up -->
<g id="edge85" class="edge">
<title>Power&#45;Up Time&#45;&gt;Move Up</title>
<path fill="none" stroke="red" stroke-width="0.42" d="M1263.66,-200.61C1287.57,-193.7 1318.56,-182.29 1341.99,-165.05 1361.03,-151.03 1357.06,-138.73 1374.99,-123.33 1404.02,-98.38 1442.15,-77.36 1470.96,-63.34"/>
<polygon fill="red" stroke="red" stroke-width="0.42" points="1472.26,-66.6 1479.77,-59.14 1469.24,-60.28 1472.26,-66.6"/>
</g>
<!-- Power&#45;Up Time&#45;&gt;Move Down -->
<g id="edge86" class="edge">
<title>Power&#45;Up Time&#45;&gt;Move Down</title>
<path fill="none" stroke="green" stroke-width="0.1" d="M1222.88,-200.73C1218.93,-191.99 1213.25,-177.92 1210.99,-165.05 1207.06,-142.59 1208.96,-117.58 1212.46,-96.2"/>
<polygon fill="green" stroke="green" stroke-width="0.1" points="1215.88,-96.96 1214.2,-86.5 1208.99,-95.72 1215.88,-96.96"/>
</g>
<!-- Power&#45;Up Time&#45;&gt;334 -->
<g id="edge17" class="edge">
<title>Power&#45;Up Time&#45;&gt;334</title>
<path fill="none" stroke="green" stroke-width="0.38" d="M1238.45,-200.65C1250.84,-191.31 1270.97,-176.13 1287.03,-164.01"/>
<polygon fill="green" stroke="green" stroke-width="0.38" points="1289.13,-166.82 1295,-158 1284.91,-161.23 1289.13,-166.82"/>
</g>
<!-- 994&#45;&gt;Move Left -->
<g id="edge90" class="edge">
<title>994&#45;&gt;Move Left</title>
<path fill="none" stroke="red" stroke-width="0.26" d="M68.02,-130.46C72.33,-127.64 77.15,-125 81.99,-123.33 251.97,-64.43 817.17,-48.88 986.59,-45.49"/>
<polygon fill="red" stroke="red" stroke-width="0.26" points="986.62,-48.99 996.55,-45.3 986.48,-41.99 986.62,-48.99"/>
</g>
<!-- 334&#45;&gt;Move Right -->
<g id="edge18" class="edge">
<title>334&#45;&gt;Move Right</title>
<path fill="none" stroke="green" stroke-width="0.53" d="M1322.62,-126.03C1329.05,-115.63 1337.57,-101.87 1345.78,-88.62"/>
<polygon fill="green" stroke="green" stroke-width="0.53" points="1348.67,-90.6 1350.96,-80.25 1342.72,-86.91 1348.67,-90.6"/>
</g>
<!-- 334&#45;&gt;Move Left -->
<g id="edge19" class="edge">
<title>334&#45;&gt;Move Left</title>
<path fill="none" stroke="red" stroke-width="0.86" d="M1292.51,-136.26C1248.95,-120.76 1142.64,-82.95 1081.1,-61.06"/>
<polygon fill="red" stroke="red" stroke-width="0.86" points="1082.33,-57.79 1071.74,-57.73 1079.99,-64.38 1082.33,-57.79"/>
</g>
<!-- 334&#45;&gt;Move Up -->
<g id="edge20" class="edge">
<title>334&#45;&gt;Move Up</title>
<path fill="none" stroke="green" stroke-width="0.11" d="M1329.65,-132.81C1335.15,-129.67 1341.28,-126.28 1346.99,-123.33 1380.56,-105.99 1389.85,-103.49 1423.99,-87.33 1439.64,-79.92 1456.8,-71.71 1471.84,-64.49"/>
<polygon fill="green" stroke="green" stroke-width="0.11" points="1473.24,-67.7 1480.74,-60.22 1470.21,-61.39 1473.24,-67.7"/>
</g>
<!-- 334&#45;&gt;Move Down -->
<g id="edge21" class="edge">
<title>334&#45;&gt;Move Down</title>
<path fill="none" stroke="green" stroke-width="0.22" d="M1298.4,-127.79C1288.13,-116.17 1273.55,-99.66 1260.09,-84.42"/>
<polygon fill="green" stroke="green" stroke-width="0.22" points="1263.06,-82.49 1253.82,-77.31 1257.82,-87.12 1263.06,-82.49"/>
</g>
<!-- 911&#45;&gt;Move Left -->
<g id="edge88" class="edge">
<title>911&#45;&gt;Move Left</title>
<path fill="none" stroke="green" stroke-width="0.22" d="M129.12,-131.53C134.61,-128.34 140.85,-125.24 146.99,-123.33 306.03,-73.74 825.53,-51.92 986.79,-46.24"/>
<polygon fill="green" stroke="green" stroke-width="0.22" points="986.68,-49.74 996.56,-45.9 986.44,-42.75 986.68,-49.74"/>
</g>
</g>
</svg>
