<?xml version="1.0" encoding="UTF-8" standalone="no"?>
<!DOCTYPE svg PUBLIC "-//W3C//DTD SVG 1.1//EN"
 "http://www.w3.org/Graphics/SVG/1.1/DTD/svg11.dtd">
<!-- Generated by graphviz version 12.0.0 (20240704.0754)
 -->
<!-- Pages: 1 -->
<svg width="1931pt" height="234pt"
 viewBox="0.00 0.00 1931.08 233.91" xmlns="http://www.w3.org/2000/svg" xmlns:xlink="http://www.w3.org/1999/xlink">
<g id="graph0" class="graph" transform="scale(1 1) rotate(0) translate(4 229.91)">
<polygon fill="white" stroke="none" points="-4,4 -4,-229.91 1927.08,-229.91 1927.08,4 -4,4"/>
<!-- Pellet Right -->
<g id="node1" class="node">
<title>Pellet Right</title>
<polygon fill="lightblue" stroke="black" points="1162.67,-156.62 1105.42,-156.62 1105.42,-138.12 1162.67,-138.12 1162.67,-156.62"/>
<text text-anchor="middle" x="1134.04" y="-144.07" font-family="Times,serif" font-size="9.00">Pellet Right</text>
</g>
<!-- Move Left -->
<g id="node19" class="node">
<title>Move Left</title>
<ellipse fill="lightblue" stroke="black" cx="1134.04" cy="-43.66" rx="37.83" ry="37.83"/>
<text text-anchor="middle" x="1134.04" y="-40.36" font-family="Times,serif" font-size="9.00">Move Left</text>
</g>
<!-- Pellet Right&#45;&gt;Move Left -->
<g id="edge1" class="edge">
<title>Pellet Right&#45;&gt;Move Left</title>
<path fill="none" stroke="red" stroke-width="0.47" d="M1134.04,-137.7C1134.04,-127.51 1134.04,-109.81 1134.04,-92.57"/>
<polygon fill="red" stroke="red" stroke-width="0.47" points="1137.54,-92.66 1134.04,-82.66 1130.54,-92.66 1137.54,-92.66"/>
</g>
<!-- Move Up -->
<g id="node20" class="node">
<title>Move Up</title>
<ellipse fill="lightblue" stroke="black" cx="534.04" cy="-43.66" rx="35.71" ry="35.71"/>
<text text-anchor="middle" x="534.04" y="-40.36" font-family="Times,serif" font-size="9.00">Move Up</text>
</g>
<!-- Pellet Right&#45;&gt;Move Up -->
<g id="edge2" class="edge">
<title>Pellet Right&#45;&gt;Move Up</title>
<path fill="none" stroke="red" stroke-width="0.11" d="M1123.09,-137.8C1115.84,-132.64 1105.89,-126.48 1096.04,-123.33 889.74,-57.36 817.42,-149.83 610.04,-87.33 596.88,-83.36 583.49,-76.84 571.69,-70.07"/>
<polygon fill="red" stroke="red" stroke-width="0.11" points="573.53,-67.09 563.15,-64.97 569.94,-73.1 573.53,-67.09"/>
</g>
<!-- Move Down -->
<g id="node21" class="node">
<title>Move Down</title>
<ellipse fill="lightblue" stroke="black" cx="1245.04" cy="-43.66" rx="43.66" ry="43.66"/>
<text text-anchor="middle" x="1245.04" y="-40.36" font-family="Times,serif" font-size="9.00">Move Down</text>
</g>
<!-- Pellet Right&#45;&gt;Move Down -->
<g id="edge3" class="edge">
<title>Pellet Right&#45;&gt;Move Down</title>
<path fill="none" stroke="red" stroke-width="0.16" stroke-dasharray="1,5" d="M1143.51,-137.7C1157.26,-125.1 1183.58,-100.98 1205.97,-80.46"/>
<polygon fill="red" stroke="red" stroke-width="0.16" points="1208.2,-83.17 1213.21,-73.83 1203.47,-78 1208.2,-83.17"/>
</g>
<!-- Pellet Left -->
<g id="node2" class="node">
<title>Pellet Left</title>
<polygon fill="lightblue" stroke="black" points="1271.04,-156.62 1219.04,-156.62 1219.04,-138.12 1271.04,-138.12 1271.04,-156.62"/>
<text text-anchor="middle" x="1245.04" y="-144.07" font-family="Times,serif" font-size="9.00">Pellet Left</text>
</g>
<!-- Move Right -->
<g id="node18" class="node">
<title>Move Right</title>
<ellipse fill="lightblue" stroke="black" cx="661.04" cy="-43.66" rx="41.54" ry="41.54"/>
<text text-anchor="middle" x="661.04" y="-40.36" font-family="Times,serif" font-size="9.00">Move Right</text>
</g>
<!-- Pellet Left&#45;&gt;Move Right -->
<g id="edge4" class="edge">
<title>Pellet Left&#45;&gt;Move Right</title>
<path fill="none" stroke="red" stroke-width="0.54" d="M1220.63,-137.64C1206.57,-132.86 1188.48,-127.16 1172.04,-123.33 1006.4,-84.68 805.99,-60.14 713.04,-50.01"/>
<polygon fill="red" stroke="red" stroke-width="0.54" points="713.65,-46.55 703.33,-48.96 712.9,-53.51 713.65,-46.55"/>
</g>
<!-- Pellet Left&#45;&gt;Move Left -->
<g id="edge5" class="edge">
<title>Pellet Left&#45;&gt;Move Left</title>
<path fill="none" stroke="green" stroke-width="0.13" d="M1235.58,-137.7C1220.91,-124.26 1191.96,-97.74 1168.72,-76.44"/>
<polygon fill="green" stroke="green" stroke-width="0.13" points="1171.28,-74.03 1161.54,-69.86 1166.55,-79.19 1171.28,-74.03"/>
</g>
<!-- Pellet Left&#45;&gt;Move Down -->
<g id="edge6" class="edge">
<title>Pellet Left&#45;&gt;Move Down</title>
<path fill="none" stroke="green" stroke-width="0.21" d="M1245.04,-137.7C1245.04,-128.56 1245.04,-113.36 1245.04,-97.87"/>
<polygon fill="green" stroke="green" stroke-width="0.21" points="1248.54,-98.02 1245.04,-88.02 1241.54,-98.02 1248.54,-98.02"/>
</g>
<!-- Pellet Up -->
<g id="node3" class="node">
<title>Pellet Up</title>
<polygon fill="lightblue" stroke="black" points="607.54,-156.62 558.54,-156.62 558.54,-138.12 607.54,-138.12 607.54,-156.62"/>
<text text-anchor="middle" x="583.04" y="-144.07" font-family="Times,serif" font-size="9.00">Pellet Up</text>
</g>
<!-- Pellet Up&#45;&gt;Move Right -->
<g id="edge7" class="edge">
<title>Pellet Up&#45;&gt;Move Right</title>
<path fill="none" stroke="red" stroke-width="0.22" d="M589.69,-137.7C598.59,-126.1 614.97,-104.74 629.79,-85.41"/>
<polygon fill="red" stroke="red" stroke-width="0.22" points="632.51,-87.62 635.81,-77.56 626.95,-83.36 632.51,-87.62"/>
</g>
<!-- Pellet Up&#45;&gt;Move Left -->
<g id="edge8" class="edge">
<title>Pellet Up&#45;&gt;Move Left</title>
<path fill="none" stroke="red" stroke-width="0.14" stroke-dasharray="1,5" d="M592.74,-137.8C598.97,-132.77 607.48,-126.75 616.04,-123.33 779.49,-58.02 991.79,-46.5 1085.71,-44.76"/>
<polygon fill="red" stroke="red" stroke-width="0.14" points="1085.61,-48.27 1095.55,-44.61 1085.5,-41.27 1085.61,-48.27"/>
</g>
<!-- Pellet Up&#45;&gt;Move Up -->
<g id="edge9" class="edge">
<title>Pellet Up&#45;&gt;Move Up</title>
<path fill="none" stroke="red" stroke-width="0.37" d="M578.86,-137.7C573.32,-126.19 563.15,-105.09 553.9,-85.89"/>
<polygon fill="red" stroke="red" stroke-width="0.37" points="557.06,-84.37 549.56,-76.88 550.75,-87.41 557.06,-84.37"/>
</g>
<!-- Pellet Up&#45;&gt;Move Down -->
<g id="edge10" class="edge">
<title>Pellet Up&#45;&gt;Move Down</title>
<path fill="none" stroke="red" stroke-width="0.13" d="M592.36,-137.76C598.58,-132.59 607.2,-126.42 616.04,-123.33 853.54,-40.23 942.66,-167.86 1181.04,-87.33 1188.42,-84.83 1195.77,-81.26 1202.71,-77.23"/>
<polygon fill="red" stroke="red" stroke-width="0.13" points="1204.43,-80.27 1211.08,-72.02 1200.74,-74.33 1204.43,-80.27"/>
</g>
<!-- Pellet Down -->
<g id="node4" class="node">
<title>Pellet Down</title>
<polygon fill="lightblue" stroke="black" points="240.17,-156.62 179.92,-156.62 179.92,-138.12 240.17,-138.12 240.17,-156.62"/>
<text text-anchor="middle" x="210.04" y="-144.07" font-family="Times,serif" font-size="9.00">Pellet Down</text>
</g>
<!-- Pellet Down&#45;&gt;Move Right -->
<g id="edge11" class="edge">
<title>Pellet Down&#45;&gt;Move Right</title>
<path fill="none" stroke="green" stroke-width="0.61" d="M223.35,-137.73C231.8,-132.67 243.16,-126.65 254.04,-123.33 393.03,-80.89 439.99,-129.59 579.04,-87.33 591.64,-83.5 604.58,-77.74 616.35,-71.69"/>
<polygon fill="green" stroke="green" stroke-width="0.61" points="617.95,-74.81 625.12,-67.01 614.65,-68.63 617.95,-74.81"/>
</g>
<!-- Pellet Down&#45;&gt;Move Left -->
<g id="edge12" class="edge">
<title>Pellet Down&#45;&gt;Move Left</title>
<path fill="none" stroke="red" stroke-width="0.27" d="M234.34,-137.69C249.34,-132.69 269.08,-126.74 287.04,-123.33 473.28,-87.97 523.29,-104.86 712.04,-87.33 847.82,-74.71 1007.99,-58.02 1086.2,-49.76"/>
<polygon fill="red" stroke="red" stroke-width="0.27" points="1086.25,-53.27 1095.83,-48.74 1085.52,-46.31 1086.25,-53.27"/>
</g>
<!-- Pellet Down&#45;&gt;Move Up -->
<g id="edge13" class="edge">
<title>Pellet Down&#45;&gt;Move Up</title>
<path fill="none" stroke="green" stroke-width="0.33" stroke-dasharray="1,5" d="M224.75,-137.68C233.13,-132.98 243.94,-127.34 254.04,-123.33 334.66,-91.3 433.18,-66.83 489.27,-54.2"/>
<polygon fill="green" stroke="green" stroke-width="0.33" points="489.74,-57.68 498.74,-52.09 488.22,-50.85 489.74,-57.68"/>
</g>
<!-- Power Pellet Right -->
<g id="node5" class="node">
<title>Power Pellet Right</title>
<polygon fill="lightblue" stroke="black" points="1639.42,-156.62 1556.67,-156.62 1556.67,-138.12 1639.42,-138.12 1639.42,-156.62"/>
<text text-anchor="middle" x="1598.04" y="-144.07" font-family="Times,serif" font-size="9.00">Power Pellet Right</text>
</g>
<!-- Power Pellet Right&#45;&gt;Move Right -->
<g id="edge14" class="edge">
<title>Power Pellet Right&#45;&gt;Move Right</title>
<path fill="none" stroke="green" stroke-width="0.16" d="M1556.19,-137.77C1531.74,-132.98 1500.24,-127.22 1472.04,-123.33 1301.8,-99.85 1258.1,-103.89 1087.04,-87.33 951.71,-74.22 792.27,-58.06 712.28,-49.9"/>
<polygon fill="green" stroke="green" stroke-width="0.16" points="713,-46.46 702.7,-48.93 712.29,-53.42 713,-46.46"/>
</g>
<!-- Power Pellet Right&#45;&gt;Move Left -->
<g id="edge15" class="edge">
<title>Power Pellet Right&#45;&gt;Move Left</title>
<path fill="none" stroke="green" stroke-width="0.43" d="M1581.15,-137.76C1570.49,-132.72 1556.28,-126.7 1543.04,-123.33 1391.08,-84.61 1338.35,-143.77 1192.04,-87.33 1184.5,-84.42 1177.06,-80.25 1170.16,-75.66"/>
<polygon fill="green" stroke="green" stroke-width="0.43" points="1172.44,-72.98 1162.27,-70.04 1168.39,-78.69 1172.44,-72.98"/>
</g>
<!-- Power Pellet Right&#45;&gt;Move Down -->
<g id="edge16" class="edge">
<title>Power Pellet Right&#45;&gt;Move Down</title>
<path fill="none" stroke="green" stroke-width="0.11" d="M1579.2,-137.71C1568.7,-133.08 1555.3,-127.49 1543.04,-123.33 1458.33,-94.56 1357.16,-69.81 1297.16,-56.11"/>
<polygon fill="green" stroke="green" stroke-width="0.11" points="1298.22,-52.76 1287.7,-53.96 1296.67,-59.59 1298.22,-52.76"/>
</g>
<!-- Power Pellet Left -->
<g id="node6" class="node">
<title>Power Pellet Left</title>
<polygon fill="lightblue" stroke="black" points="306.79,-225.91 229.29,-225.91 229.29,-207.41 306.79,-207.41 306.79,-225.91"/>
<text text-anchor="middle" x="268.04" y="-213.36" font-family="Times,serif" font-size="9.00">Power Pellet Left</text>
</g>
<!-- Power Pellet Left&#45;&gt;Move Right -->
<g id="edge17" class="edge">
<title>Power Pellet Left&#45;&gt;Move Right</title>
<path fill="none" stroke="red" stroke-width="0.22" d="M266.86,-206.97C264.88,-188.52 263.23,-145.3 287.04,-123.33 335.09,-78.99 516.6,-106.72 579.04,-87.33 591.86,-83.34 605.07,-77.41 617.03,-71.22"/>
<polygon fill="red" stroke="red" stroke-width="0.22" points="618.45,-74.43 625.61,-66.62 615.15,-68.26 618.45,-74.43"/>
</g>
<!-- Power Pellet Left&#45;&gt;Move Left -->
<g id="edge18" class="edge">
<title>Power Pellet Left&#45;&gt;Move Left</title>
<path fill="none" stroke="red" stroke-width="0.3" d="M307.16,-215.23C476.81,-213.19 1141.8,-203.17 1172.04,-171.41 1194.77,-147.54 1180.09,-110.62 1162.79,-82.77"/>
<polygon fill="red" stroke="red" stroke-width="0.3" points="1165.77,-80.93 1157.37,-74.46 1159.9,-84.75 1165.77,-80.93"/>
</g>
<!-- Power Pellet Left&#45;&gt;Move Up -->
<g id="edge19" class="edge">
<title>Power Pellet Left&#45;&gt;Move Up</title>
<path fill="none" stroke="red" stroke-width="0.26" d="M228.81,-210.85C184.24,-204.49 115.65,-191.66 100.04,-171.41 87,-154.48 86.34,-139.73 100.04,-123.33 149.1,-64.57 386.23,-49.61 487.76,-45.88"/>
<polygon fill="red" stroke="red" stroke-width="0.26" points="487.75,-49.38 497.62,-45.53 487.51,-42.38 487.75,-49.38"/>
</g>
<!-- Power Pellet Left&#45;&gt;Move Down -->
<g id="edge20" class="edge">
<title>Power Pellet Left&#45;&gt;Move Down</title>
<path fill="none" stroke="red" stroke-width="0.42" d="M307.08,-215.92C526.72,-217.19 1600.15,-220.86 1648.04,-171.41 1752.62,-63.43 1431.45,-47.11 1299.2,-44.89"/>
<polygon fill="red" stroke="red" stroke-width="0.42" points="1299.57,-41.4 1289.52,-44.75 1299.46,-48.4 1299.57,-41.4"/>
</g>
<!-- 5441 -->
<g id="node24" class="node">
<title>5441</title>
<ellipse fill="white" stroke="black" cx="24.04" cy="-147.37" rx="24.04" ry="24.04"/>
<text text-anchor="middle" x="24.04" y="-144.07" font-family="Times,serif" font-size="9.00">5441</text>
</g>
<!-- Power Pellet Left&#45;&gt;5441 -->
<g id="edge67" class="edge">
<title>Power Pellet Left&#45;&gt;5441</title>
<path fill="none" stroke="green" stroke-width="0.19" d="M228.95,-211.21C186.65,-205.5 117.79,-193.57 62.04,-171.41 58.79,-170.12 55.49,-168.56 52.28,-166.87"/>
<polygon fill="green" stroke="green" stroke-width="0.19" points="54.17,-163.92 43.75,-162.01 50.71,-170 54.17,-163.92"/>
</g>
<!-- Power Pellet Up -->
<g id="node7" class="node">
<title>Power Pellet Up</title>
<polygon fill="lightblue" stroke="black" points="1528.29,-225.91 1453.79,-225.91 1453.79,-207.41 1528.29,-207.41 1528.29,-225.91"/>
<text text-anchor="middle" x="1491.04" y="-213.36" font-family="Times,serif" font-size="9.00">Power Pellet Up</text>
</g>
<!-- Power Pellet Up&#45;&gt;Move Left -->
<g id="edge21" class="edge">
<title>Power Pellet Up&#45;&gt;Move Left</title>
<path fill="none" stroke="red" stroke-width="0.26" d="M1492.22,-206.98C1494.17,-188.55 1495.8,-145.37 1472.04,-123.33 1426.05,-80.66 1250.28,-110.66 1192.04,-87.33 1184.62,-84.35 1177.28,-80.2 1170.45,-75.64"/>
<polygon fill="red" stroke="red" stroke-width="0.26" points="1172.61,-72.88 1162.43,-69.94 1168.55,-78.59 1172.61,-72.88"/>
</g>
<!-- Power Pellet Up&#45;&gt;Move Up -->
<g id="edge22" class="edge">
<title>Power Pellet Up&#45;&gt;Move Up</title>
<path fill="none" stroke="green" stroke-width="0.24" d="M1453.44,-208.9C1449.27,-208.31 1445.07,-207.8 1441.04,-207.41 1370.78,-200.65 220.24,-222.02 171.04,-171.41 74.95,-72.56 370.13,-50.71 487.83,-45.96"/>
<polygon fill="green" stroke="green" stroke-width="0.24" points="487.76,-49.47 497.62,-45.59 487.5,-42.47 487.76,-49.47"/>
</g>
<!-- Power Pellet Up&#45;&gt;Move Down -->
<g id="edge23" class="edge">
<title>Power Pellet Up&#45;&gt;Move Down</title>
<path fill="none" stroke="red" stroke-width="0.33" d="M1528.68,-212.81C1605.2,-206.63 1773.16,-190.98 1790.04,-171.41 1804,-155.23 1804.03,-139.48 1790.04,-123.33 1726.87,-50.39 1424.45,-43.57 1299.37,-43.94"/>
<polygon fill="red" stroke="red" stroke-width="0.33" points="1299.39,-40.44 1289.4,-43.99 1299.42,-47.44 1299.39,-40.44"/>
</g>
<!-- 5411 -->
<g id="node22" class="node">
<title>5411</title>
<ellipse fill="white" stroke="black" cx="1757.04" cy="-147.37" rx="24.04" ry="24.04"/>
<text text-anchor="middle" x="1757.04" y="-144.07" font-family="Times,serif" font-size="9.00">5411</text>
</g>
<!-- Power Pellet Up&#45;&gt;5411 -->
<g id="edge65" class="edge">
<title>Power Pellet Up&#45;&gt;5411</title>
<path fill="none" stroke="green" stroke-width="0.46" d="M1528.48,-212.48C1574.6,-207.64 1654.72,-196.24 1719.04,-171.41 1722.21,-170.19 1725.41,-168.71 1728.54,-167.09"/>
<polygon fill="green" stroke="green" stroke-width="0.46" points="1730.03,-170.27 1737.01,-162.3 1726.58,-164.18 1730.03,-170.27"/>
</g>
<!-- 5273 -->
<g id="node25" class="node">
<title>5273</title>
<ellipse fill="white" stroke="black" cx="1439.04" cy="-147.37" rx="24.04" ry="24.04"/>
<text text-anchor="middle" x="1439.04" y="-144.07" font-family="Times,serif" font-size="9.00">5273</text>
</g>
<!-- Power Pellet Up&#45;&gt;5273 -->
<g id="edge62" class="edge">
<title>Power Pellet Up&#45;&gt;5273</title>
<path fill="none" stroke="green" stroke-width="0.38" d="M1484.46,-207.14C1478.21,-199.06 1468.49,-186.48 1459.65,-175.03"/>
<polygon fill="green" stroke="green" stroke-width="0.38" points="1462.66,-173.2 1453.77,-167.43 1457.12,-177.48 1462.66,-173.2"/>
</g>
<!-- Power Pellet Down -->
<g id="node8" class="node">
<title>Power Pellet Down</title>
<polygon fill="lightblue" stroke="black" points="898.92,-156.62 813.17,-156.62 813.17,-138.12 898.92,-138.12 898.92,-156.62"/>
<text text-anchor="middle" x="856.04" y="-144.07" font-family="Times,serif" font-size="9.00">Power Pellet Down</text>
</g>
<!-- Power Pellet Down&#45;&gt;Move Right -->
<g id="edge24" class="edge">
<title>Power Pellet Down&#45;&gt;Move Right</title>
<path fill="none" stroke="red" stroke-width="0.59" stroke-dasharray="1,5" d="M839.42,-137.7C810.45,-122.59 749.77,-90.94 707.26,-68.77"/>
<polygon fill="red" stroke="red" stroke-width="0.59" points="708.96,-65.71 698.47,-64.19 705.72,-71.91 708.96,-65.71"/>
</g>
<!-- Power Pellet Down&#45;&gt;Move Left -->
<g id="edge25" class="edge">
<title>Power Pellet Down&#45;&gt;Move Left</title>
<path fill="none" stroke="green" stroke-width="0.28" d="M874.66,-137.68C884.5,-133.19 896.84,-127.75 908.04,-123.33 969.78,-98.95 1042.49,-74.36 1088.42,-59.32"/>
<polygon fill="green" stroke="green" stroke-width="0.28" points="1089.27,-62.72 1097.69,-56.29 1087.1,-56.07 1089.27,-62.72"/>
</g>
<!-- Power Pellet Down&#45;&gt;Move Up -->
<g id="edge26" class="edge">
<title>Power Pellet Down&#45;&gt;Move Up</title>
<path fill="none" stroke="red" stroke-width="0.45" d="M839.1,-137.65C829.12,-132.83 816.12,-127.07 804.04,-123.33 720.27,-97.39 692.49,-117.19 610.04,-87.33 597.36,-82.73 584.29,-76.16 572.64,-69.55"/>
<polygon fill="red" stroke="red" stroke-width="0.45" points="574.63,-66.66 564.23,-64.62 571.09,-72.7 574.63,-66.66"/>
</g>
<!-- Power Pellet Down&#45;&gt;Move Down -->
<g id="edge27" class="edge">
<title>Power Pellet Down&#45;&gt;Move Down</title>
<path fill="none" stroke="green" stroke-width="0.2" d="M872.45,-137.64C882.47,-132.69 895.68,-126.8 908.04,-123.33 1025.86,-90.2 1066.48,-130.39 1181.04,-87.33 1188.34,-84.59 1195.63,-80.88 1202.55,-76.78"/>
<polygon fill="green" stroke="green" stroke-width="0.2" points="1204.21,-79.87 1210.82,-71.6 1200.49,-73.94 1204.21,-79.87"/>
</g>
<!-- Ghost Info Right -->
<g id="node9" class="node">
<title>Ghost Info Right</title>
<polygon fill="lightblue" stroke="black" points="540.42,-156.62 463.67,-156.62 463.67,-138.12 540.42,-138.12 540.42,-156.62"/>
<text text-anchor="middle" x="502.04" y="-144.07" font-family="Times,serif" font-size="9.00">Ghost Info Right</text>
</g>
<!-- Ghost Info Right&#45;&gt;Move Right -->
<g id="edge28" class="edge">
<title>Ghost Info Right&#45;&gt;Move Right</title>
<path fill="none" stroke="green" stroke-width="0.65" d="M515.6,-137.7C537.87,-123.45 583.12,-94.51 617.27,-72.66"/>
<polygon fill="green" stroke="green" stroke-width="0.65" points="618.77,-75.86 625.3,-67.52 614.99,-69.96 618.77,-75.86"/>
</g>
<!-- Ghost Info Right&#45;&gt;Move Up -->
<g id="edge29" class="edge">
<title>Ghost Info Right&#45;&gt;Move Up</title>
<path fill="none" stroke="green" stroke-width="0.57" d="M504.77,-137.7C508.22,-126.72 514.42,-107.02 520.23,-88.57"/>
<polygon fill="green" stroke="green" stroke-width="0.57" points="523.57,-89.62 523.23,-79.03 516.89,-87.52 523.57,-89.62"/>
</g>
<!-- Ghost Info Right&#45;&gt;Move Down -->
<g id="edge30" class="edge">
<title>Ghost Info Right&#45;&gt;Move Down</title>
<path fill="none" stroke="green" stroke-width="0.23" stroke-dasharray="1,5" d="M516.18,-137.76C525.46,-132.59 538.05,-126.42 550.04,-123.33 822.05,-53.21 914.62,-176.35 1181.04,-87.33 1188.43,-84.86 1195.78,-81.3 1202.72,-77.27"/>
<polygon fill="green" stroke="green" stroke-width="0.23" points="1204.31,-80.4 1210.96,-72.16 1200.62,-74.45 1204.31,-80.4"/>
</g>
<!-- Ghost Info Left -->
<g id="node10" class="node">
<title>Ghost Info Left</title>
<polygon fill="lightblue" stroke="black" points="696.79,-156.62 625.29,-156.62 625.29,-138.12 696.79,-138.12 696.79,-156.62"/>
<text text-anchor="middle" x="661.04" y="-144.07" font-family="Times,serif" font-size="9.00">Ghost Info Left</text>
</g>
<!-- Ghost Info Left&#45;&gt;Move Right -->
<g id="edge31" class="edge">
<title>Ghost Info Left&#45;&gt;Move Right</title>
<path fill="none" stroke="green" stroke-width="0.2" stroke-dasharray="1,5" d="M661.04,-137.7C661.04,-128.07 661.04,-111.73 661.04,-95.4"/>
<polygon fill="green" stroke="green" stroke-width="0.2" points="664.54,-95.6 661.04,-85.6 657.54,-95.6 664.54,-95.6"/>
</g>
<!-- Ghost Info Left&#45;&gt;Move Left -->
<g id="edge32" class="edge">
<title>Ghost Info Left&#45;&gt;Move Left</title>
<path fill="none" stroke="green" stroke-width="0.17" d="M675.16,-137.79C683.8,-132.88 695.24,-127 706.04,-123.33 839.64,-77.94 1006.1,-56.91 1086.37,-48.85"/>
<polygon fill="green" stroke="green" stroke-width="0.17" points="1086.32,-52.38 1095.93,-47.92 1085.64,-45.41 1086.32,-52.38"/>
</g>
<!-- Ghost Info Left&#45;&gt;Move Up -->
<g id="edge33" class="edge">
<title>Ghost Info Left&#45;&gt;Move Up</title>
<path fill="none" stroke="green" stroke-width="0.18" d="M650.21,-137.7C632.52,-123.53 596.67,-94.82 569.45,-73.02"/>
<polygon fill="green" stroke="green" stroke-width="0.18" points="571.88,-70.48 561.88,-66.96 567.5,-75.94 571.88,-70.48"/>
</g>
<!-- Ghost Info Left&#45;&gt;Move Down -->
<g id="edge34" class="edge">
<title>Ghost Info Left&#45;&gt;Move Down</title>
<path fill="none" stroke="red" stroke-width="0.36" stroke-dasharray="1,5" d="M674.25,-137.83C682.92,-132.68 694.72,-126.52 706.04,-123.33 909.84,-65.95 980.87,-156.3 1181.04,-87.33 1188.41,-84.79 1195.74,-81.19 1202.68,-77.15"/>
<polygon fill="red" stroke="red" stroke-width="0.36" points="1204.12,-80.37 1210.76,-72.12 1200.42,-74.43 1204.12,-80.37"/>
</g>
<!-- Ghost Info Up -->
<g id="node11" class="node">
<title>Ghost Info Up</title>
<polygon fill="lightblue" stroke="black" points="1748.29,-225.91 1679.79,-225.91 1679.79,-207.41 1748.29,-207.41 1748.29,-225.91"/>
<text text-anchor="middle" x="1714.04" y="-213.36" font-family="Times,serif" font-size="9.00">Ghost Info Up</text>
</g>
<!-- Ghost Info Up&#45;&gt;Move Right -->
<g id="edge35" class="edge">
<title>Ghost Info Up&#45;&gt;Move Right</title>
<path fill="none" stroke="red" stroke-width="0.27" d="M1679.45,-213.91C1643.78,-212.14 1586.53,-209.39 1537.04,-207.41 1476.95,-205.01 496.86,-214.64 455.04,-171.41 440.18,-156.05 442.21,-140.42 455.04,-123.33 489.5,-77.44 525.77,-108.67 579.04,-87.33 591.27,-82.43 604.08,-76.29 615.85,-70.2"/>
<polygon fill="red" stroke="red" stroke-width="0.27" points="617.45,-73.31 624.66,-65.55 614.18,-67.12 617.45,-73.31"/>
</g>
<!-- Ghost Info Up&#45;&gt;Move Left -->
<g id="edge36" class="edge">
<title>Ghost Info Up&#45;&gt;Move Left</title>
<path fill="none" stroke="green" stroke-width="0.12" d="M1679.48,-211.42C1644.58,-206.03 1589.97,-194.5 1548.04,-171.41 1520.47,-156.23 1524.63,-136.51 1496.04,-123.33 1372.49,-66.35 1318.59,-137.29 1192.04,-87.33 1184.44,-84.33 1176.93,-80.07 1169.97,-75.4"/>
<polygon fill="green" stroke="green" stroke-width="0.12" points="1172.4,-72.84 1162.23,-69.89 1168.34,-78.54 1172.4,-72.84"/>
</g>
<!-- Ghost Info Up&#45;&gt;Move Down -->
<g id="edge37" class="edge">
<title>Ghost Info Up&#45;&gt;Move Down</title>
<path fill="none" stroke="green" stroke-width="0.16" d="M1748.33,-209.36C1769.76,-203.46 1795.74,-192.28 1809.04,-171.41 1820.53,-153.39 1823.07,-139.45 1809.04,-123.33 1775.76,-85.08 1433.61,-57.61 1299.01,-48.21"/>
<polygon fill="green" stroke="green" stroke-width="0.16" points="1299.37,-44.73 1289.16,-47.53 1298.89,-51.71 1299.37,-44.73"/>
</g>
<!-- 5221 -->
<g id="node23" class="node">
<title>5221</title>
<ellipse fill="white" stroke="black" cx="1899.04" cy="-147.37" rx="24.04" ry="24.04"/>
<text text-anchor="middle" x="1899.04" y="-144.07" font-family="Times,serif" font-size="9.00">5221</text>
</g>
<!-- Ghost Info Up&#45;&gt;5221 -->
<g id="edge60" class="edge">
<title>Ghost Info Up&#45;&gt;5221</title>
<path fill="none" stroke="green" stroke-width="0.36" d="M1748.79,-207.84C1779.15,-200.39 1824.03,-187.88 1861.04,-171.41 1864.14,-170.03 1867.3,-168.44 1870.4,-166.76"/>
<polygon fill="green" stroke="green" stroke-width="0.36" points="1872.06,-169.85 1878.97,-161.82 1868.56,-163.79 1872.06,-169.85"/>
</g>
<!-- Ghost Info Down -->
<g id="node12" class="node">
<title>Ghost Info Down</title>
<polygon fill="lightblue" stroke="black" points="794.92,-156.62 715.17,-156.62 715.17,-138.12 794.92,-138.12 794.92,-156.62"/>
<text text-anchor="middle" x="755.04" y="-144.07" font-family="Times,serif" font-size="9.00">Ghost Info Down</text>
</g>
<!-- Ghost Info Down&#45;&gt;Move Right -->
<g id="edge38" class="edge">
<title>Ghost Info Down&#45;&gt;Move Right</title>
<path fill="none" stroke="green" stroke-width="0.37" d="M747.03,-137.7C735.69,-125.43 714.27,-102.26 695.65,-82.11"/>
<polygon fill="green" stroke="green" stroke-width="0.37" points="698.41,-79.94 689.06,-74.97 693.27,-84.69 698.41,-79.94"/>
</g>
<!-- Ghost Info Down&#45;&gt;Move Left -->
<g id="edge39" class="edge">
<title>Ghost Info Down&#45;&gt;Move Left</title>
<path fill="none" stroke="red" stroke-width="0.15" d="M771.02,-137.83C780.43,-133.06 792.68,-127.3 804.04,-123.33 902.05,-89.01 1021.6,-64.65 1086.52,-52.81"/>
<polygon fill="red" stroke="red" stroke-width="0.15" points="1087.01,-56.28 1096.23,-51.06 1085.76,-49.39 1087.01,-56.28"/>
</g>
<!-- Ghost Info Down&#45;&gt;Move Up -->
<g id="edge40" class="edge">
<title>Ghost Info Down&#45;&gt;Move Up</title>
<path fill="none" stroke="green" stroke-width="0.39" d="M737.51,-137.7C728.23,-133.23 716.61,-127.78 706.04,-123.33 664.06,-105.62 651.36,-106.54 610.04,-87.33 597.81,-81.64 584.88,-74.74 573.22,-68.16"/>
<polygon fill="green" stroke="green" stroke-width="0.39" points="575.1,-65.21 564.69,-63.27 571.63,-71.28 575.1,-65.21"/>
</g>
<!-- Ghost Info Down&#45;&gt;Move Down -->
<g id="edge41" class="edge">
<title>Ghost Info Down&#45;&gt;Move Down</title>
<path fill="none" stroke="green" stroke-width="0.51" d="M769.97,-137.7C779.42,-132.63 792.07,-126.61 804.04,-123.33 966.38,-78.86 1022.45,-143.71 1181.04,-87.33 1188.22,-84.78 1195.38,-81.24 1202.17,-77.29"/>
<polygon fill="green" stroke="green" stroke-width="0.51" points="1203.87,-80.35 1210.51,-72.1 1200.17,-74.41 1203.87,-80.35"/>
</g>
<!-- PAC&#45;MAN Right -->
<g id="node13" class="node">
<title>PAC&#45;MAN Right</title>
<polygon fill="lightblue" stroke="black" points="995.54,-156.62 916.54,-156.62 916.54,-138.12 995.54,-138.12 995.54,-156.62"/>
<text text-anchor="middle" x="956.04" y="-144.07" font-family="Times,serif" font-size="9.00">PAC&#45;MAN Right</text>
</g>
<!-- PAC&#45;MAN Right&#45;&gt;Move Right -->
<g id="edge42" class="edge">
<title>PAC&#45;MAN Right&#45;&gt;Move Right</title>
<path fill="none" stroke="green" stroke-width="0.41" d="M939.41,-137.68C930.29,-133.1 918.69,-127.56 908.04,-123.33 841.13,-96.76 761.38,-72.68 710.98,-58.35"/>
<polygon fill="green" stroke="green" stroke-width="0.41" points="712.16,-55.05 701.59,-55.7 710.26,-61.78 712.16,-55.05"/>
</g>
<!-- PAC&#45;MAN Right&#45;&gt;Move Left -->
<g id="edge43" class="edge">
<title>PAC&#45;MAN Right&#45;&gt;Move Left</title>
<path fill="none" stroke="green" stroke-width="0.25" d="M971.22,-137.7C997.76,-122.53 1053.47,-90.7 1092.29,-68.52"/>
<polygon fill="green" stroke="green" stroke-width="0.25" points="1094.01,-71.57 1100.95,-63.57 1090.53,-65.49 1094.01,-71.57"/>
</g>
<!-- PAC&#45;MAN Right&#45;&gt;Move Up -->
<g id="edge44" class="edge">
<title>PAC&#45;MAN Right&#45;&gt;Move Up</title>
<path fill="none" stroke="green" stroke-width="0.42" d="M941.41,-137.79C932.15,-132.76 919.75,-126.75 908.04,-123.33 779.97,-85.96 736.85,-128.77 610.04,-87.33 597.1,-83.1 583.87,-76.58 572.16,-69.89"/>
<polygon fill="green" stroke="green" stroke-width="0.42" points="574.05,-66.94 563.66,-64.86 570.48,-72.97 574.05,-66.94"/>
</g>
<!-- PAC&#45;MAN Right&#45;&gt;Move Down -->
<g id="edge45" class="edge">
<title>PAC&#45;MAN Right&#45;&gt;Move Down</title>
<path fill="none" stroke="green" stroke-width="0.11" d="M971.63,-137.67C980.83,-132.86 992.83,-127.1 1004.04,-123.33 1080.14,-97.76 1106.92,-118.17 1181.04,-87.33 1188.15,-84.37 1195.3,-80.58 1202.12,-76.48"/>
<polygon fill="green" stroke="green" stroke-width="0.11" points="1203.81,-79.56 1210.4,-71.26 1200.07,-73.64 1203.81,-79.56"/>
</g>
<!-- PAC&#45;MAN Left -->
<g id="node14" class="node">
<title>PAC&#45;MAN Left</title>
<polygon fill="lightblue" stroke="black" points="1086.92,-156.62 1013.17,-156.62 1013.17,-138.12 1086.92,-138.12 1086.92,-156.62"/>
<text text-anchor="middle" x="1050.04" y="-144.07" font-family="Times,serif" font-size="9.00">PAC&#45;MAN Left</text>
</g>
<!-- PAC&#45;MAN Left&#45;&gt;Move Right -->
<g id="edge46" class="edge">
<title>PAC&#45;MAN Left&#45;&gt;Move Right</title>
<path fill="none" stroke="red" stroke-width="0.37" d="M1035.46,-137.73C1026.85,-132.93 1015.6,-127.17 1005.04,-123.33 904.28,-86.66 780.51,-63.36 712.29,-52.29"/>
<polygon fill="red" stroke="red" stroke-width="0.37" points="713.21,-48.89 702.78,-50.77 712.1,-55.81 713.21,-48.89"/>
</g>
<!-- PAC&#45;MAN Left&#45;&gt;Move Left -->
<g id="edge47" class="edge">
<title>PAC&#45;MAN Left&#45;&gt;Move Left</title>
<path fill="none" stroke="red" stroke-width="0.34" d="M1057.2,-137.7C1067.5,-125.23 1087.1,-101.5 1103.93,-81.12"/>
<polygon fill="red" stroke="red" stroke-width="0.34" points="1106.46,-83.56 1110.13,-73.62 1101.06,-79.1 1106.46,-83.56"/>
</g>
<!-- PAC&#45;MAN Left&#45;&gt;Move Up -->
<g id="edge48" class="edge">
<title>PAC&#45;MAN Left&#45;&gt;Move Up</title>
<path fill="none" stroke="red" stroke-width="0.11" stroke-dasharray="1,5" d="M1036.43,-137.66C1027.79,-132.58 1016.17,-126.55 1005.04,-123.33 835.72,-74.26 778.39,-139.63 610.04,-87.33 596.91,-83.25 583.53,-76.69 571.73,-69.93"/>
<polygon fill="red" stroke="red" stroke-width="0.11" points="573.58,-66.96 563.19,-64.85 569.99,-72.97 573.58,-66.96"/>
</g>
<!-- PAC&#45;MAN Left&#45;&gt;Move Down -->
<g id="edge49" class="edge">
<title>PAC&#45;MAN Left&#45;&gt;Move Down</title>
<path fill="none" stroke="green" stroke-width="0.35" d="M1066.53,-137.79C1075.24,-133.34 1086.15,-127.9 1096.04,-123.33 1133.29,-106.13 1144.93,-106.79 1181.04,-87.33 1187.67,-83.76 1194.48,-79.69 1201.07,-75.52"/>
<polygon fill="green" stroke="green" stroke-width="0.35" points="1202.96,-78.47 1209.44,-70.09 1199.15,-72.59 1202.96,-78.47"/>
</g>
<!-- PAC&#45;MAN Up -->
<g id="node15" class="node">
<title>PAC&#45;MAN Up</title>
<polygon fill="lightblue" stroke="black" points="1359.42,-156.62 1288.67,-156.62 1288.67,-138.12 1359.42,-138.12 1359.42,-156.62"/>
<text text-anchor="middle" x="1324.04" y="-144.07" font-family="Times,serif" font-size="9.00">PAC&#45;MAN Up</text>
</g>
<!-- PAC&#45;MAN Up&#45;&gt;Move Right -->
<g id="edge50" class="edge">
<title>PAC&#45;MAN Up&#45;&gt;Move Right</title>
<path fill="none" stroke="green" stroke-width="0.31" stroke-dasharray="1,5" d="M1310.72,-137.79C1302.26,-132.76 1290.9,-126.74 1280.04,-123.33 1174.24,-90.09 841.73,-59.7 712.82,-48.86"/>
<polygon fill="green" stroke="green" stroke-width="0.31" points="713.17,-45.38 702.92,-48.04 712.59,-52.36 713.17,-45.38"/>
</g>
<!-- PAC&#45;MAN Up&#45;&gt;Move Left -->
<g id="edge51" class="edge">
<title>PAC&#45;MAN Up&#45;&gt;Move Left</title>
<path fill="none" stroke="green" stroke-width="0.32" stroke-dasharray="1,5" d="M1308.34,-137.69C1300.02,-133.21 1289.58,-127.76 1280.04,-123.33 1241.73,-105.51 1228.9,-108 1192.04,-87.33 1185.14,-83.46 1178.11,-78.89 1171.43,-74.22"/>
<polygon fill="green" stroke="green" stroke-width="0.32" points="1173.75,-71.57 1163.6,-68.56 1169.66,-77.25 1173.75,-71.57"/>
</g>
<!-- PAC&#45;MAN Up&#45;&gt;Move Down -->
<g id="edge52" class="edge">
<title>PAC&#45;MAN Up&#45;&gt;Move Down</title>
<path fill="none" stroke="red" stroke-width="0.46" d="M1317.31,-137.7C1308.53,-126.4 1292.57,-105.85 1277.87,-86.93"/>
<polygon fill="red" stroke="red" stroke-width="0.46" points="1280.78,-84.97 1271.88,-79.22 1275.25,-89.26 1280.78,-84.97"/>
</g>
<!-- PAC&#45;MAN Down -->
<g id="node16" class="node">
<title>PAC&#45;MAN Down</title>
<polygon fill="lightblue" stroke="black" points="1432.17,-225.91 1341.92,-225.91 1341.92,-207.41 1432.17,-207.41 1432.17,-225.91"/>
<text text-anchor="middle" x="1387.04" y="-213.36" font-family="Times,serif" font-size="9.00">PAC&#45;MAN Down</text>
</g>
<!-- PAC&#45;MAN Down&#45;&gt;Move Right -->
<g id="edge53" class="edge">
<title>PAC&#45;MAN Down&#45;&gt;Move Right</title>
<path fill="none" stroke="green" stroke-width="0.38" d="M1341.57,-215.3C1154.69,-213.61 454.15,-205.03 422.04,-171.41 407.28,-155.96 408.73,-140.04 422.04,-123.33 466.65,-67.34 511.86,-112.05 579.04,-87.33 591.52,-82.74 604.51,-76.65 616.37,-70.51"/>
<polygon fill="green" stroke="green" stroke-width="0.38" points="617.91,-73.66 625.11,-65.88 614.63,-67.48 617.91,-73.66"/>
</g>
<!-- PAC&#45;MAN Down&#45;&gt;Move Left -->
<g id="edge54" class="edge">
<title>PAC&#45;MAN Down&#45;&gt;Move Left</title>
<path fill="none" stroke="green" stroke-width="0.22" stroke-dasharray="1,5" d="M1388.09,-207.12C1389.8,-188.94 1390.97,-146.23 1368.04,-123.33 1311.55,-66.9 1265.01,-119.74 1192.04,-87.33 1184.73,-84.08 1177.45,-79.79 1170.65,-75.18"/>
<polygon fill="green" stroke="green" stroke-width="0.22" points="1172.76,-72.39 1162.59,-69.43 1168.69,-78.09 1172.76,-72.39"/>
</g>
<!-- PAC&#45;MAN Down&#45;&gt;Move Up -->
<g id="edge55" class="edge">
<title>PAC&#45;MAN Down&#45;&gt;Move Up</title>
<path fill="none" stroke="red" stroke-width="0.35" d="M1341.72,-215.8C1122.48,-216.24 180.63,-215.54 138.04,-171.41 33.43,-63.03 362.46,-47.12 487.71,-44.95"/>
<polygon fill="red" stroke="red" stroke-width="0.35" points="487.65,-48.45 497.6,-44.8 487.55,-41.45 487.65,-48.45"/>
</g>
<!-- PAC&#45;MAN Down&#45;&gt;Move Down -->
<g id="edge56" class="edge">
<title>PAC&#45;MAN Down&#45;&gt;Move Down</title>
<path fill="none" stroke="green" stroke-width="0.54" d="M1432.6,-209.19C1514.66,-197.48 1679.02,-173.76 1681.04,-171.41 1694.98,-155.21 1694.75,-139.73 1681.04,-123.33 1633.05,-65.9 1406.05,-50.32 1299.95,-46.16"/>
<polygon fill="green" stroke="green" stroke-width="0.54" points="1300.09,-42.66 1289.97,-45.79 1299.83,-49.66 1300.09,-42.66"/>
</g>
<!-- PAC&#45;MAN Down&#45;&gt;5273 -->
<g id="edge64" class="edge">
<title>PAC&#45;MAN Down&#45;&gt;5273</title>
<path fill="none" stroke="red" stroke-width="0.21" d="M1393.63,-207.14C1399.87,-199.06 1409.59,-186.48 1418.44,-175.03"/>
<polygon fill="red" stroke="red" stroke-width="0.21" points="1421.12,-177.28 1424.47,-167.23 1415.58,-173 1421.12,-177.28"/>
</g>
<!-- Power&#45;Up Time -->
<g id="node17" class="node">
<title>Power&#45;Up Time</title>
<polygon fill="lightblue" stroke="black" points="369.92,-156.62 296.17,-156.62 296.17,-138.12 369.92,-138.12 369.92,-156.62"/>
<text text-anchor="middle" x="333.04" y="-144.07" font-family="Times,serif" font-size="9.00">Power&#45;Up Time</text>
</g>
<!-- Power&#45;Up Time&#45;&gt;Move Right -->
<g id="edge57" class="edge">
<title>Power&#45;Up Time&#45;&gt;Move Right</title>
<path fill="none" stroke="green" stroke-width="0.15" d="M349.64,-137.64C359.42,-132.8 372.17,-127.04 384.04,-123.33 468.15,-96.99 495.7,-115.98 579.04,-87.33 591.74,-82.96 604.9,-76.89 616.86,-70.7"/>
<polygon fill="green" stroke="green" stroke-width="0.15" points="618.36,-73.86 625.54,-66.07 615.07,-67.69 618.36,-73.86"/>
</g>
<!-- Power&#45;Up Time&#45;&gt;Move Left -->
<g id="edge58" class="edge">
<title>Power&#45;Up Time&#45;&gt;Move Left</title>
<path fill="none" stroke="green" stroke-width="0.14" d="M370.3,-138.62C394.4,-133.78 426.49,-127.67 455.04,-123.33 690.83,-87.45 974.88,-59.42 1086.1,-49.03"/>
<polygon fill="green" stroke="green" stroke-width="0.14" points="1086.17,-52.54 1095.8,-48.13 1085.52,-45.57 1086.17,-52.54"/>
</g>
<!-- Power&#45;Up Time&#45;&gt;Move Up -->
<g id="edge59" class="edge">
<title>Power&#45;Up Time&#45;&gt;Move Up</title>
<path fill="none" stroke="green" stroke-width="0.21" stroke-dasharray="1,5" d="M350.18,-137.7C381.64,-121.78 449.41,-87.48 493.3,-65.28"/>
<polygon fill="green" stroke="green" stroke-width="0.21" points="494.67,-68.51 502.01,-60.87 491.51,-62.26 494.67,-68.51"/>
</g>
<!-- 5411&#45;&gt;Move Down -->
<g id="edge66" class="edge">
<title>5411&#45;&gt;Move Down</title>
<path fill="none" stroke="green" stroke-width="0.4" d="M1737.65,-132.67C1731.89,-129.15 1725.41,-125.69 1719.04,-123.33 1573.59,-69.45 1389.37,-52.34 1299.43,-47.01"/>
<polygon fill="green" stroke="green" stroke-width="0.4" points="1299.72,-43.52 1289.54,-46.45 1299.33,-50.51 1299.72,-43.52"/>
</g>
<!-- 5221&#45;&gt;Move Down -->
<g id="edge61" class="edge">
<title>5221&#45;&gt;Move Down</title>
<path fill="none" stroke="red" stroke-width="0.33" d="M1879.71,-132.52C1873.94,-128.99 1867.45,-125.57 1861.04,-123.33 1662.56,-54 1409.03,-44.65 1299.48,-44.13"/>
<polygon fill="red" stroke="red" stroke-width="0.33" points="1299.53,-40.63 1289.52,-44.1 1299.51,-47.63 1299.53,-40.63"/>
</g>
<!-- 5441&#45;&gt;Move Up -->
<g id="edge68" class="edge">
<title>5441&#45;&gt;Move Up</title>
<path fill="none" stroke="green" stroke-width="0.44" d="M43.43,-132.67C49.2,-129.15 55.68,-125.69 62.04,-123.33 211.06,-68.07 400.96,-51.47 487.41,-46.61"/>
<polygon fill="green" stroke="green" stroke-width="0.44" points="487.47,-50.11 497.27,-46.08 487.09,-43.12 487.47,-50.11"/>
</g>
<!-- 5273&#45;&gt;Move Left -->
<g id="edge63" class="edge">
<title>5273&#45;&gt;Move Left</title>
<path fill="none" stroke="green" stroke-width="0.32" d="M1419.64,-132.7C1413.88,-129.17 1407.4,-125.71 1401.04,-123.33 1312.76,-90.32 1278.77,-124.24 1192.04,-87.33 1184.68,-84.2 1177.38,-79.96 1170.56,-75.38"/>
<polygon fill="green" stroke="green" stroke-width="0.32" points="1172.79,-72.67 1162.62,-69.72 1168.73,-78.37 1172.79,-72.67"/>
</g>
</g>
</svg>
