<?xml version="1.0" encoding="UTF-8" standalone="no"?>
<!DOCTYPE svg PUBLIC "-//W3C//DTD SVG 1.1//EN"
 "http://www.w3.org/Graphics/SVG/1.1/DTD/svg11.dtd">
<!-- Generated by graphviz version 12.0.0 (20240704.0754)
 -->
<!-- Pages: 1 -->
<svg width="1691pt" height="443pt"
 viewBox="0.00 0.00 1691.36 443.44" xmlns="http://www.w3.org/2000/svg" xmlns:xlink="http://www.w3.org/1999/xlink">
<g id="graph0" class="graph" transform="scale(1 1) rotate(0) translate(4 439.44)">
<polygon fill="white" stroke="none" points="-4,4 -4,-439.44 1687.36,-439.44 1687.36,4 -4,4"/>
<!-- Pellet Right -->
<g id="node1" class="node">
<title>Pellet Right</title>
<polygon fill="lightblue" stroke="black" points="350.12,-362.97 292.88,-362.97 292.88,-344.47 350.12,-344.47 350.12,-362.97"/>
<text text-anchor="middle" x="321.5" y="-350.42" font-family="Times,serif" font-size="9.00">Pellet Right</text>
</g>
<!-- Move Right -->
<g id="node18" class="node">
<title>Move Right</title>
<ellipse fill="lightblue" stroke="black" cx="714.5" cy="-41.54" rx="41.54" ry="41.54"/>
<text text-anchor="middle" x="714.5" y="-38.24" font-family="Times,serif" font-size="9.00">Move Right</text>
</g>
<!-- Pellet Right&#45;&gt;Move Right -->
<g id="edge1" class="edge">
<title>Pellet Right&#45;&gt;Move Right</title>
<path fill="none" stroke="green" stroke-width="0.18" d="M328.72,-344.15C356.49,-311.56 460.1,-193.43 564.5,-119.09 596.55,-96.26 636.36,-76.28 666.91,-62.46"/>
<polygon fill="green" stroke="green" stroke-width="0.18" points="668.12,-65.75 675.83,-58.48 665.27,-59.36 668.12,-65.75"/>
</g>
<!-- Move Up -->
<g id="node20" class="node">
<title>Move Up</title>
<ellipse fill="lightblue" stroke="black" cx="650.5" cy="-246.83" rx="35.71" ry="35.71"/>
<text text-anchor="middle" x="650.5" y="-243.53" font-family="Times,serif" font-size="9.00">Move Up</text>
</g>
<!-- Pellet Right&#45;&gt;Move Up -->
<g id="edge2" class="edge">
<title>Pellet Right&#45;&gt;Move Up</title>
<path fill="none" stroke="green" stroke-width="0.71" d="M332.9,-344.03C341.22,-338.14 353,-330.69 364.5,-326.5 464.19,-290.16 504.01,-334.62 600.5,-290.5 606.35,-287.82 612.05,-284.25 617.38,-280.32"/>
<polygon fill="green" stroke="green" stroke-width="0.71" points="619.51,-283.09 625.13,-274.11 615.14,-277.63 619.51,-283.09"/>
</g>
<!-- Move Down -->
<g id="node21" class="node">
<title>Move Down</title>
<ellipse fill="lightblue" stroke="black" cx="956.5" cy="-246.83" rx="43.66" ry="43.66"/>
<text text-anchor="middle" x="956.5" y="-243.53" font-family="Times,serif" font-size="9.00">Move Down</text>
</g>
<!-- Pellet Right&#45;&gt;Move Down -->
<g id="edge3" class="edge">
<title>Pellet Right&#45;&gt;Move Down</title>
<path fill="none" stroke="red" stroke-width="0.14" stroke-dasharray="1,5" d="M342.77,-344.02C357.81,-338.21 378.59,-330.85 397.5,-326.5 527.51,-296.57 563.42,-309.26 695.5,-290.5 767.89,-280.21 851.2,-266.21 903.85,-257.1"/>
<polygon fill="red" stroke="red" stroke-width="0.14" points="904.18,-260.6 913.43,-255.44 902.98,-253.7 904.18,-260.6"/>
</g>
<!-- Pellet Left -->
<g id="node2" class="node">
<title>Pellet Left</title>
<polygon fill="lightblue" stroke="black" points="686.5,-362.97 634.5,-362.97 634.5,-344.47 686.5,-344.47 686.5,-362.97"/>
<text text-anchor="middle" x="660.5" y="-350.42" font-family="Times,serif" font-size="9.00">Pellet Left</text>
</g>
<!-- Pellet Left&#45;&gt;Move Right -->
<g id="edge4" class="edge">
<title>Pellet Left&#45;&gt;Move Right</title>
<path fill="none" stroke="green" stroke-width="0.13" d="M667.05,-344.01C675.32,-332.46 689.24,-311.13 695.5,-290.5 715.48,-224.59 717.94,-144.55 716.95,-93.58"/>
<polygon fill="green" stroke="green" stroke-width="0.13" points="720.46,-93.58 716.71,-83.67 713.46,-93.75 720.46,-93.58"/>
</g>
<!-- Move Left -->
<g id="node19" class="node">
<title>Move Left</title>
<ellipse fill="lightblue" stroke="black" cx="1210.5" cy="-246.83" rx="37.83" ry="37.83"/>
<text text-anchor="middle" x="1210.5" y="-243.53" font-family="Times,serif" font-size="9.00">Move Left</text>
</g>
<!-- Pellet Left&#45;&gt;Move Left -->
<g id="edge5" class="edge">
<title>Pellet Left&#45;&gt;Move Left</title>
<path fill="none" stroke="green" stroke-width="0.22" d="M669.18,-344.12C675.81,-338.11 685.48,-330.48 695.5,-326.5 826.02,-274.58 870.86,-313.1 1009.5,-290.5 1062.73,-281.82 1123.19,-268.51 1163.78,-259.07"/>
<polygon fill="green" stroke="green" stroke-width="0.22" points="1164.39,-262.52 1173.33,-256.83 1162.79,-255.7 1164.39,-262.52"/>
</g>
<!-- Pellet Left&#45;&gt;Move Up -->
<g id="edge6" class="edge">
<title>Pellet Left&#45;&gt;Move Up</title>
<path fill="none" stroke="red" stroke-width="0.27" d="M659.68,-344.14C658.61,-332.86 656.64,-312.21 654.8,-292.91"/>
<polygon fill="red" stroke="red" stroke-width="0.27" points="658.3,-292.73 653.86,-283.11 651.33,-293.39 658.3,-292.73"/>
</g>
<!-- Pellet Left&#45;&gt;Move Down -->
<g id="edge7" class="edge">
<title>Pellet Left&#45;&gt;Move Down</title>
<path fill="none" stroke="red" stroke-width="0.3" d="M669.99,-344.15C676.71,-338.47 686.15,-331.22 695.5,-326.5 763.55,-292.11 849.33,-269.85 903.56,-258.07"/>
<polygon fill="red" stroke="red" stroke-width="0.3" points="904.14,-261.52 913.2,-256.02 902.69,-254.68 904.14,-261.52"/>
</g>
<!-- Pellet Up -->
<g id="node3" class="node">
<title>Pellet Up</title>
<polygon fill="lightblue" stroke="black" points="616,-362.97 567,-362.97 567,-344.47 616,-344.47 616,-362.97"/>
<text text-anchor="middle" x="591.5" y="-350.42" font-family="Times,serif" font-size="9.00">Pellet Up</text>
</g>
<!-- Pellet Up&#45;&gt;Move Right -->
<g id="edge53" class="edge">
<title>Pellet Up&#45;&gt;Move Right</title>
<path fill="none" stroke="green" stroke-width="0.15" stroke-dasharray="1,5" d="M590.42,-344.3C586.73,-312.28 577.31,-195.93 623.5,-119.09 635.3,-99.44 653.98,-82.45 671.35,-69.49"/>
<polygon fill="green" stroke="green" stroke-width="0.15" points="672.96,-72.64 679.03,-63.96 668.87,-66.96 672.96,-72.64"/>
</g>
<!-- Pellet Up&#45;&gt;Move Left -->
<g id="edge8" class="edge">
<title>Pellet Up&#45;&gt;Move Left</title>
<path fill="none" stroke="red" stroke-width="0.24" stroke-dasharray="1,5" d="M599.86,-344.06C606.27,-338.02 615.65,-330.38 625.5,-326.5 784.99,-263.67 840.04,-316.33 1009.5,-290.5 1062.82,-282.37 1123.26,-268.96 1163.82,-259.34"/>
<polygon fill="red" stroke="red" stroke-width="0.24" points="1164.43,-262.8 1173.34,-257.07 1162.8,-255.99 1164.43,-262.8"/>
</g>
<!-- Pellet Up&#45;&gt;Move Up -->
<g id="edge9" class="edge">
<title>Pellet Up&#45;&gt;Move Up</title>
<path fill="none" stroke="red" stroke-width="0.27" d="M596.33,-344.14C603.28,-331.78 616.56,-308.17 628.23,-287.42"/>
<polygon fill="red" stroke="red" stroke-width="0.27" points="631.23,-289.23 633.08,-278.8 625.13,-285.8 631.23,-289.23"/>
</g>
<!-- Pellet Down -->
<g id="node4" class="node">
<title>Pellet Down</title>
<polygon fill="lightblue" stroke="black" points="1663.62,-362.97 1603.38,-362.97 1603.38,-344.47 1663.62,-344.47 1663.62,-362.97"/>
<text text-anchor="middle" x="1633.5" y="-350.42" font-family="Times,serif" font-size="9.00">Pellet Down</text>
</g>
<!-- Pellet Down&#45;&gt;Move Right -->
<g id="edge10" class="edge">
<title>Pellet Down&#45;&gt;Move Right</title>
<path fill="none" stroke="green" stroke-width="0.22" stroke-dasharray="1,5" d="M1620.78,-344.13C1585.45,-320.42 1482.88,-252.56 1393.5,-203.17 1318.67,-161.82 1302.14,-144.45 1220.5,-119.09 1059.56,-69.08 859.31,-51.15 766.37,-45.22"/>
<polygon fill="green" stroke="green" stroke-width="0.22" points="766.64,-41.73 756.44,-44.61 766.21,-48.72 766.64,-41.73"/>
</g>
<!-- Pellet Down&#45;&gt;Move Left -->
<g id="edge11" class="edge">
<title>Pellet Down&#45;&gt;Move Left</title>
<path fill="none" stroke="red" stroke-width="0.14" stroke-dasharray="1,5" d="M1621.36,-343.98C1612.83,-338.22 1600.94,-330.95 1589.5,-326.5 1574,-320.47 1355.77,-276.71 1257.67,-257.19"/>
<polygon fill="red" stroke="red" stroke-width="0.14" points="1258.43,-253.77 1247.93,-255.25 1257.06,-260.64 1258.43,-253.77"/>
</g>
<!-- Pellet Down&#45;&gt;Move Down -->
<g id="edge12" class="edge">
<title>Pellet Down&#45;&gt;Move Down</title>
<path fill="none" stroke="red" stroke-width="0.13" stroke-dasharray="1,5" d="M1602.95,-344.67C1579.89,-338.86 1547.4,-331.24 1518.5,-326.5 1362.01,-300.82 1320.25,-314.53 1163.5,-290.5 1110.56,-282.38 1050.69,-269.65 1009.01,-260.2"/>
<polygon fill="red" stroke="red" stroke-width="0.13" points="1009.8,-256.79 999.28,-257.98 1008.25,-263.62 1009.8,-256.79"/>
</g>
<!-- 7814 -->
<g id="node23" class="node">
<title>7814</title>
<ellipse fill="white" stroke="black" cx="656.5" cy="-143.13" rx="24.04" ry="24.04"/>
<text text-anchor="middle" x="656.5" y="-139.83" font-family="Times,serif" font-size="9.00">7814</text>
</g>
<!-- Pellet Down&#45;&gt;7814 -->
<g id="edge56" class="edge">
<title>Pellet Down&#45;&gt;7814</title>
<path fill="none" stroke="green" stroke-width="0.29" d="M1616.83,-344.08C1565.13,-317.73 1402.28,-238.08 1257.5,-203.17 1046.72,-152.34 784.27,-145.1 691.19,-144.2"/>
<polygon fill="green" stroke="green" stroke-width="0.29" points="691.42,-140.7 681.39,-144.12 691.36,-147.7 691.42,-140.7"/>
</g>
<!-- Power Pellet Right -->
<g id="node5" class="node">
<title>Power Pellet Right</title>
<polygon fill="lightblue" stroke="black" points="1322.88,-362.97 1240.12,-362.97 1240.12,-344.47 1322.88,-344.47 1322.88,-362.97"/>
<text text-anchor="middle" x="1281.5" y="-350.42" font-family="Times,serif" font-size="9.00">Power Pellet Right</text>
</g>
<!-- Power Pellet Right&#45;&gt;Move Left -->
<g id="edge13" class="edge">
<title>Power Pellet Right&#45;&gt;Move Left</title>
<path fill="none" stroke="red" stroke-width="0.33" stroke-dasharray="1,5" d="M1275.69,-344.14C1267.25,-331.67 1251.06,-307.75 1236.92,-286.86"/>
<polygon fill="red" stroke="red" stroke-width="0.33" points="1240.01,-285.18 1231.5,-278.86 1234.21,-289.1 1240.01,-285.18"/>
</g>
<!-- Power Pellet Right&#45;&gt;Move Down -->
<g id="edge14" class="edge">
<title>Power Pellet Right&#45;&gt;Move Down</title>
<path fill="none" stroke="green" stroke-width="0.15" d="M1267,-344.1C1257.21,-338.54 1243.88,-331.45 1231.5,-326.5 1156.26,-296.37 1065.19,-272.69 1009.05,-259.47"/>
<polygon fill="green" stroke="green" stroke-width="0.15" points="1010.08,-256.12 999.54,-257.26 1008.49,-262.94 1010.08,-256.12"/>
</g>
<!-- Power Pellet Left -->
<g id="node6" class="node">
<title>Power Pellet Left</title>
<polygon fill="lightblue" stroke="black" points="782.25,-362.97 704.75,-362.97 704.75,-344.47 782.25,-344.47 782.25,-362.97"/>
<text text-anchor="middle" x="743.5" y="-350.42" font-family="Times,serif" font-size="9.00">Power Pellet Left</text>
</g>
<!-- Power Pellet Left&#45;&gt;Move Right -->
<g id="edge15" class="edge">
<title>Power Pellet Left&#45;&gt;Move Right</title>
<path fill="none" stroke="red" stroke-width="0.3" stroke-dasharray="1,5" d="M743.31,-344.2C742.56,-313.63 739.28,-206.62 728.5,-119.09 727.44,-110.51 726.04,-101.44 724.53,-92.66"/>
<polygon fill="red" stroke="red" stroke-width="0.3" points="728.01,-92.21 722.8,-82.98 721.12,-93.44 728.01,-92.21"/>
</g>
<!-- Power Pellet Left&#45;&gt;Move Left -->
<g id="edge16" class="edge">
<title>Power Pellet Left&#45;&gt;Move Left</title>
<path fill="none" stroke="red" stroke-width="0.27" stroke-dasharray="1,5" d="M769.66,-344.01C786.6,-338.55 809.22,-331.6 829.5,-326.5 908.61,-306.57 929.6,-306.97 1009.5,-290.5 1062.21,-279.63 1122.6,-266.75 1163.31,-258.01"/>
<polygon fill="red" stroke="red" stroke-width="0.27" points="1164.04,-261.44 1173.08,-255.91 1162.57,-254.59 1164.04,-261.44"/>
</g>
<!-- Power Pellet Left&#45;&gt;Move Up -->
<g id="edge17" class="edge">
<title>Power Pellet Left&#45;&gt;Move Up</title>
<path fill="none" stroke="green" stroke-width="0.58" d="M735.89,-344.14C724.04,-330.77 700.54,-304.27 681.18,-282.44"/>
<polygon fill="green" stroke="green" stroke-width="0.58" points="683.83,-280.15 674.58,-274.99 678.6,-284.79 683.83,-280.15"/>
</g>
<!-- Power Pellet Left&#45;&gt;Move Down -->
<g id="edge18" class="edge">
<title>Power Pellet Left&#45;&gt;Move Down</title>
<path fill="none" stroke="red" stroke-width="0.32" stroke-dasharray="1,5" d="M760.68,-344.21C771.05,-339.07 784.53,-332.4 796.5,-326.5 834.02,-307.99 876.52,-287.1 908.28,-271.5"/>
<polygon fill="red" stroke="red" stroke-width="0.32" points="909.5,-274.8 916.93,-267.25 906.41,-268.52 909.5,-274.8"/>
</g>
<!-- Power Pellet Up -->
<g id="node7" class="node">
<title>Power Pellet Up</title>
<polygon fill="lightblue" stroke="black" points="1130.75,-362.97 1056.25,-362.97 1056.25,-344.47 1130.75,-344.47 1130.75,-362.97"/>
<text text-anchor="middle" x="1093.5" y="-350.42" font-family="Times,serif" font-size="9.00">Power Pellet Up</text>
</g>
<!-- Power Pellet Up&#45;&gt;Move Right -->
<g id="edge19" class="edge">
<title>Power Pellet Up&#45;&gt;Move Right</title>
<path fill="none" stroke="green" stroke-width="0.29" stroke-dasharray="1,5" d="M1090.65,-344.22C1082.02,-319.59 1054.01,-247.1 1009.5,-203.17 937.3,-131.92 827.02,-83.33 763.74,-59.51"/>
<polygon fill="green" stroke="green" stroke-width="0.29" points="765,-56.24 754.41,-56.05 762.57,-62.81 765,-56.24"/>
</g>
<!-- Power Pellet Up&#45;&gt;Move Left -->
<g id="edge20" class="edge">
<title>Power Pellet Up&#45;&gt;Move Left</title>
<path fill="none" stroke="red" stroke-width="0.15" stroke-dasharray="1,5" d="M1103.07,-344.14C1118.7,-330.12 1150.46,-301.66 1175.41,-279.29"/>
<polygon fill="red" stroke="red" stroke-width="0.15" points="1177.62,-282.01 1182.73,-272.72 1172.95,-276.79 1177.62,-282.01"/>
</g>
<!-- Power Pellet Up&#45;&gt;Move Up -->
<g id="edge21" class="edge">
<title>Power Pellet Up&#45;&gt;Move Up</title>
<path fill="none" stroke="red" stroke-width="0.28" stroke-dasharray="1,5" d="M1081.15,-344.22C1072.19,-338.41 1059.56,-330.99 1047.5,-326.5 983.22,-302.53 786.02,-269.36 696.07,-254.97"/>
<polygon fill="red" stroke="red" stroke-width="0.28" points="696.76,-251.53 686.33,-253.41 695.66,-258.44 696.76,-251.53"/>
</g>
<!-- Power Pellet Up&#45;&gt;Move Down -->
<g id="edge22" class="edge">
<title>Power Pellet Up&#45;&gt;Move Down</title>
<path fill="none" stroke="red" stroke-width="0.26" stroke-dasharray="1,5" d="M1082.29,-344.14C1064.24,-330.32 1027.82,-302.44 998.8,-280.22"/>
<polygon fill="red" stroke="red" stroke-width="0.26" points="1001.22,-277.66 991.15,-274.36 996.96,-283.22 1001.22,-277.66"/>
</g>
<!-- Power Pellet Down -->
<g id="node8" class="node">
<title>Power Pellet Down</title>
<polygon fill="lightblue" stroke="black" points="274.38,-362.97 188.62,-362.97 188.62,-344.47 274.38,-344.47 274.38,-362.97"/>
<text text-anchor="middle" x="231.5" y="-350.42" font-family="Times,serif" font-size="9.00">Power Pellet Down</text>
</g>
<!-- Power Pellet Down&#45;&gt;Move Right -->
<g id="edge23" class="edge">
<title>Power Pellet Down&#45;&gt;Move Right</title>
<path fill="none" stroke="red" stroke-width="0.18" d="M238.35,-344.3C257.97,-320.45 316.73,-251.12 374.5,-203.17 427.16,-159.46 442.26,-149.64 503.5,-119.09 556.55,-92.61 621.07,-70.57 664.69,-57.04"/>
<polygon fill="red" stroke="red" stroke-width="0.18" points="665.69,-60.4 674.22,-54.12 663.64,-53.71 665.69,-60.4"/>
</g>
<!-- Power Pellet Down&#45;&gt;Move Up -->
<g id="edge24" class="edge">
<title>Power Pellet Down&#45;&gt;Move Up</title>
<path fill="none" stroke="red" stroke-width="0.5" d="M245.07,-344.19C255.25,-338.22 269.74,-330.6 283.5,-326.5 419.37,-285.94 470.44,-346.98 600.5,-290.5 606.61,-287.84 612.54,-284.18 618.05,-280.1"/>
<polygon fill="red" stroke="red" stroke-width="0.5" points="620.13,-282.92 625.72,-273.93 615.74,-277.47 620.13,-282.92"/>
</g>
<!-- Power Pellet Down&#45;&gt;Move Down -->
<g id="edge25" class="edge">
<title>Power Pellet Down&#45;&gt;Move Down</title>
<path fill="none" stroke="green" stroke-width="0.18" d="M245.04,-344.09C255.2,-338.06 269.69,-330.42 283.5,-326.5 460.3,-276.21 513.12,-313.34 695.5,-290.5 768.05,-281.41 851.32,-267.12 903.92,-257.62"/>
<polygon fill="green" stroke="green" stroke-width="0.18" points="904.22,-261.12 913.43,-255.89 902.97,-254.23 904.22,-261.12"/>
</g>
<!-- Power Pellet Down&#45;&gt;7814 -->
<g id="edge54" class="edge">
<title>Power Pellet Down&#45;&gt;7814</title>
<path fill="none" stroke="green" stroke-width="0.32" d="M248.34,-344.16C258.5,-339.01 271.73,-332.34 283.5,-326.5 410.31,-263.52 562.11,-189.83 625.9,-158.93"/>
<polygon fill="green" stroke="green" stroke-width="0.32" points="627.1,-162.24 634.58,-154.73 624.05,-155.94 627.1,-162.24"/>
</g>
<!-- Ghost Info Right -->
<g id="node9" class="node">
<title>Ghost Info Right</title>
<polygon fill="lightblue" stroke="black" points="548.88,-362.97 472.12,-362.97 472.12,-344.47 548.88,-344.47 548.88,-362.97"/>
<text text-anchor="middle" x="510.5" y="-350.42" font-family="Times,serif" font-size="9.00">Ghost Info Right</text>
</g>
<!-- Ghost Info Right&#45;&gt;Move Right -->
<g id="edge26" class="edge">
<title>Ghost Info Right&#45;&gt;Move Right</title>
<path fill="none" stroke="green" stroke-width="0.32" stroke-dasharray="1,5" d="M511.77,-344.14C516.98,-311.51 539.27,-193.26 598.5,-119.09 616.91,-96.03 644.2,-77.54 667.68,-64.51"/>
<polygon fill="green" stroke="green" stroke-width="0.32" points="669.22,-67.66 676.37,-59.84 665.91,-61.49 669.22,-67.66"/>
</g>
<!-- Ghost Info Right&#45;&gt;Move Up -->
<g id="edge27" class="edge">
<title>Ghost Info Right&#45;&gt;Move Up</title>
<path fill="none" stroke="green" stroke-width="0.34" stroke-dasharray="1,5" d="M523.91,-344.06C541.77,-332.4 574.15,-310.76 600.5,-290.5 605.6,-286.57 610.89,-282.3 616.03,-278.03"/>
<polygon fill="green" stroke="green" stroke-width="0.34" points="618.15,-280.82 623.54,-271.7 613.64,-275.47 618.15,-280.82"/>
</g>
<!-- Ghost Info Right&#45;&gt;Move Down -->
<g id="edge28" class="edge">
<title>Ghost Info Right&#45;&gt;Move Down</title>
<path fill="none" stroke="green" stroke-width="0.2" stroke-dasharray="1,5" d="M523.84,-343.99C533.19,-338.23 546.18,-330.96 558.5,-326.5 621.37,-303.72 809.94,-271.45 903.15,-256.31"/>
<polygon fill="green" stroke="green" stroke-width="0.2" points="903.61,-259.78 912.92,-254.72 902.49,-252.87 903.61,-259.78"/>
</g>
<!-- Ghost Info Left -->
<g id="node10" class="node">
<title>Ghost Info Left</title>
<polygon fill="lightblue" stroke="black" points="1047.25,-435.44 975.75,-435.44 975.75,-416.94 1047.25,-416.94 1047.25,-435.44"/>
<text text-anchor="middle" x="1011.5" y="-422.89" font-family="Times,serif" font-size="9.00">Ghost Info Left</text>
</g>
<!-- Ghost Info Left&#45;&gt;Move Right -->
<g id="edge29" class="edge">
<title>Ghost Info Left&#45;&gt;Move Right</title>
<path fill="none" stroke="red" stroke-width="0.48" d="M1047.58,-425.58C1179.43,-426.62 1629.63,-426.78 1672.5,-380.94 1689.03,-363.27 1684.12,-347.72 1672.5,-326.5 1623.6,-237.22 1569.24,-251.22 1479.5,-203.17 1397.74,-159.38 1377.8,-144.15 1288.5,-119.09 1101.25,-66.53 869.22,-49.69 767.02,-44.61"/>
<polygon fill="red" stroke="red" stroke-width="0.48" points="767.26,-41.11 757.11,-44.13 766.93,-48.11 767.26,-41.11"/>
</g>
<!-- Ghost Info Left&#45;&gt;Move Left -->
<g id="edge30" class="edge">
<title>Ghost Info Left&#45;&gt;Move Left</title>
<path fill="none" stroke="red" stroke-width="0.16" d="M1047.58,-425C1162.96,-424.01 1517.4,-417.95 1551.5,-380.94 1567.9,-363.15 1566.57,-345.43 1551.5,-326.5 1542.27,-314.9 1348.89,-275.26 1257.53,-257.08"/>
<polygon fill="red" stroke="red" stroke-width="0.16" points="1258.43,-253.69 1247.94,-255.17 1257.07,-260.55 1258.43,-253.69"/>
</g>
<!-- Ghost Info Left&#45;&gt;Move Down -->
<g id="edge31" class="edge">
<title>Ghost Info Left&#45;&gt;Move Down</title>
<path fill="none" stroke="green" stroke-width="0.13" d="M1002.15,-416.69C993.71,-408.43 981.69,-395.1 975.5,-380.94 964.56,-355.94 959.65,-326.02 957.55,-300.88"/>
<polygon fill="green" stroke="green" stroke-width="0.13" points="961.04,-300.71 956.84,-290.98 954.06,-301.21 961.04,-300.71"/>
</g>
<!-- 10050 -->
<g id="node22" class="node">
<title>10050</title>
<ellipse fill="white" stroke="black" cx="1011.5" cy="-353.72" rx="27.22" ry="27.22"/>
<text text-anchor="middle" x="1011.5" y="-350.42" font-family="Times,serif" font-size="9.00">10050</text>
</g>
<!-- Ghost Info Left&#45;&gt;10050 -->
<g id="edge61" class="edge">
<title>Ghost Info Left&#45;&gt;10050</title>
<path fill="none" stroke="red" stroke-width="0.17" d="M1011.5,-416.55C1011.5,-410.13 1011.5,-400.88 1011.5,-391.49"/>
<polygon fill="red" stroke="red" stroke-width="0.17" points="1015,-391.63 1011.5,-381.63 1008,-391.63 1015,-391.63"/>
</g>
<!-- 9625 -->
<g id="node24" class="node">
<title>9625</title>
<ellipse fill="white" stroke="black" cx="430.5" cy="-353.72" rx="24.04" ry="24.04"/>
<text text-anchor="middle" x="430.5" y="-350.42" font-family="Times,serif" font-size="9.00">9625</text>
</g>
<!-- Ghost Info Left&#45;&gt;9625 -->
<g id="edge59" class="edge">
<title>Ghost Info Left&#45;&gt;9625</title>
<path fill="none" stroke="red" stroke-width="0.61" d="M975.34,-425C868.7,-424 557.16,-417.92 463.5,-380.94 461.09,-379.99 458.71,-378.8 456.41,-377.45"/>
<polygon fill="red" stroke="red" stroke-width="0.61" points="458.41,-374.59 448.19,-371.79 454.44,-380.35 458.41,-374.59"/>
</g>
<!-- Ghost Info Up -->
<g id="node11" class="node">
<title>Ghost Info Up</title>
<polygon fill="lightblue" stroke="black" points="654.75,-435.44 586.25,-435.44 586.25,-416.94 654.75,-416.94 654.75,-435.44"/>
<text text-anchor="middle" x="620.5" y="-422.89" font-family="Times,serif" font-size="9.00">Ghost Info Up</text>
</g>
<!-- Ghost Info Up&#45;&gt;Move Left -->
<g id="edge32" class="edge">
<title>Ghost Info Up&#45;&gt;Move Left</title>
<path fill="none" stroke="red" stroke-width="0.26" stroke-dasharray="1,5" d="M655.06,-424.14C818.12,-419.07 1503.33,-396.88 1518.5,-380.94 1535.18,-363.42 1533.34,-345.61 1518.5,-326.5 1502.41,-305.78 1340.35,-272.45 1258,-256.66"/>
<polygon fill="red" stroke="red" stroke-width="0.26" points="1258.76,-253.25 1248.28,-254.81 1257.44,-260.12 1258.76,-253.25"/>
</g>
<!-- Ghost Info Up&#45;&gt;Move Up -->
<g id="edge33" class="edge">
<title>Ghost Info Up&#45;&gt;Move Up</title>
<path fill="none" stroke="red" stroke-width="0.28" stroke-dasharray="1,5" d="M586.19,-423.53C529.69,-419.99 420.98,-409.54 397.5,-380.94 382.14,-362.24 381.95,-345.04 397.5,-326.5 456.36,-256.27 517.63,-329.6 600.5,-290.5 606.6,-287.62 612.55,-283.79 618.09,-279.61"/>
<polygon fill="red" stroke="red" stroke-width="0.28" points="620,-282.58 625.57,-273.57 615.59,-277.13 620,-282.58"/>
</g>
<!-- Ghost Info Up&#45;&gt;Move Down -->
<g id="edge34" class="edge">
<title>Ghost Info Up&#45;&gt;Move Down</title>
<path fill="none" stroke="red" stroke-width="0.5" d="M655.22,-423.24C692,-419.67 750.33,-409.56 791.5,-380.94 815.73,-364.1 808.07,-346.78 829.5,-326.5 852.63,-304.6 882.8,-285.61 907.92,-271.77"/>
<polygon fill="red" stroke="red" stroke-width="0.5" points="909.47,-274.91 916.61,-267.09 906.15,-268.75 909.47,-274.91"/>
</g>
<!-- Ghost Info Up&#45;&gt;9625 -->
<g id="edge57" class="edge">
<title>Ghost Info Up&#45;&gt;9625</title>
<path fill="none" stroke="green" stroke-width="0.27" d="M585.98,-419.55C553.16,-413.25 503.08,-401.2 463.5,-380.94 461,-379.66 458.5,-378.17 456.07,-376.57"/>
<polygon fill="green" stroke="green" stroke-width="0.27" points="458.59,-374.08 448.44,-371.04 454.48,-379.75 458.59,-374.08"/>
</g>
<!-- Ghost Info Down -->
<g id="node12" class="node">
<title>Ghost Info Down</title>
<polygon fill="lightblue" stroke="black" points="1509.38,-362.97 1429.62,-362.97 1429.62,-344.47 1509.38,-344.47 1509.38,-362.97"/>
<text text-anchor="middle" x="1469.5" y="-350.42" font-family="Times,serif" font-size="9.00">Ghost Info Down</text>
</g>
<!-- Ghost Info Down&#45;&gt;Move Right -->
<g id="edge35" class="edge">
<title>Ghost Info Down&#45;&gt;Move Right</title>
<path fill="none" stroke="green" stroke-width="0.22" stroke-dasharray="1,5" d="M1461.95,-344.12C1440.32,-319.8 1375.53,-249.34 1311.5,-203.17 1247.3,-156.87 1229.33,-144.88 1154.5,-119.09 1019.18,-72.44 850.22,-53.26 766.5,-46.2"/>
<polygon fill="green" stroke="green" stroke-width="0.22" points="766.82,-42.71 756.57,-45.38 766.25,-49.69 766.82,-42.71"/>
</g>
<!-- Ghost Info Down&#45;&gt;Move Left -->
<g id="edge36" class="edge">
<title>Ghost Info Down&#45;&gt;Move Left</title>
<path fill="none" stroke="red" stroke-width="0.23" d="M1454.75,-344.16C1445.15,-338.76 1432.28,-331.83 1420.5,-326.5 1365.05,-301.41 1299.02,-277.63 1256,-262.91"/>
<polygon fill="red" stroke="red" stroke-width="0.23" points="1257.31,-259.66 1246.71,-259.75 1255.06,-266.29 1257.31,-259.66"/>
</g>
<!-- Ghost Info Down&#45;&gt;Move Up -->
<g id="edge63" class="edge">
<title>Ghost Info Down&#45;&gt;Move Up</title>
<path fill="none" stroke="red" stroke-width="0.19" d="M1456.84,-344.01C1447.3,-337.94 1433.67,-330.29 1420.5,-326.5 1199.17,-262.74 1132.22,-317.68 903.5,-290.5 830.25,-281.79 745.91,-266.5 695.47,-256.78"/>
<polygon fill="red" stroke="red" stroke-width="0.19" points="696.31,-253.38 685.83,-254.91 694.98,-260.25 696.31,-253.38"/>
</g>
<!-- Ghost Info Down&#45;&gt;Move Down -->
<g id="edge37" class="edge">
<title>Ghost Info Down&#45;&gt;Move Down</title>
<path fill="none" stroke="red" stroke-width="0.11" d="M1456.35,-344.03C1446.79,-338.13 1433.34,-330.68 1420.5,-326.5 1310.85,-290.73 1277.15,-310.15 1163.5,-290.5 1110.61,-281.35 1050.58,-268.73 1008.84,-259.59"/>
<polygon fill="red" stroke="red" stroke-width="0.11" points="1009.84,-256.22 999.32,-257.49 1008.34,-263.06 1009.84,-256.22"/>
</g>
<!-- PAC&#45;MAN Right -->
<g id="node13" class="node">
<title>PAC&#45;MAN Right</title>
<polygon fill="lightblue" stroke="black" points="79,-362.97 0,-362.97 0,-344.47 79,-344.47 79,-362.97"/>
<text text-anchor="middle" x="39.5" y="-350.42" font-family="Times,serif" font-size="9.00">PAC&#45;MAN Right</text>
</g>
<!-- PAC&#45;MAN Right&#45;&gt;Move Right -->
<g id="edge38" class="edge">
<title>PAC&#45;MAN Right&#45;&gt;Move Right</title>
<path fill="none" stroke="green" stroke-width="0.19" d="M46.52,-344.23C66.63,-320.21 126.89,-250.46 186.5,-203.17 242.77,-158.53 257.55,-145.09 324.5,-119.09 440.53,-74.01 586.7,-54.45 662.91,-46.83"/>
<polygon fill="green" stroke="green" stroke-width="0.19" points="662.84,-50.36 672.45,-45.91 662.16,-43.39 662.84,-50.36"/>
</g>
<!-- PAC&#45;MAN Right&#45;&gt;Move Up -->
<g id="edge39" class="edge">
<title>PAC&#45;MAN Right&#45;&gt;Move Up</title>
<path fill="none" stroke="green" stroke-width="0.4" d="M52.36,-344.02C61.71,-338.12 74.88,-330.67 87.5,-326.5 272.19,-265.41 506.24,-251.76 604.15,-248.71"/>
<polygon fill="green" stroke="green" stroke-width="0.4" points="604.08,-252.21 613.97,-248.42 603.88,-245.21 604.08,-252.21"/>
</g>
<!-- PAC&#45;MAN Left -->
<g id="node14" class="node">
<title>PAC&#45;MAN Left</title>
<polygon fill="lightblue" stroke="black" points="1222.38,-362.97 1148.62,-362.97 1148.62,-344.47 1222.38,-344.47 1222.38,-362.97"/>
<text text-anchor="middle" x="1185.5" y="-350.42" font-family="Times,serif" font-size="9.00">PAC&#45;MAN Left</text>
</g>
<!-- PAC&#45;MAN Left&#45;&gt;Move Right -->
<g id="edge40" class="edge">
<title>PAC&#45;MAN Left&#45;&gt;Move Right</title>
<path fill="none" stroke="red" stroke-width="0.38" d="M1179.62,-344.22C1155.32,-309.83 1058.71,-179.91 945.5,-119.09 887.08,-87.7 813.44,-66.02 765.22,-53.95"/>
<polygon fill="red" stroke="red" stroke-width="0.38" points="766.14,-50.57 755.59,-51.59 764.47,-57.37 766.14,-50.57"/>
</g>
<!-- PAC&#45;MAN Left&#45;&gt;Move Left -->
<g id="edge41" class="edge">
<title>PAC&#45;MAN Left&#45;&gt;Move Left</title>
<path fill="none" stroke="green" stroke-width="0.16" stroke-dasharray="1,5" d="M1187.55,-344.14C1190.19,-333.05 1194.98,-312.93 1199.51,-293.93"/>
<polygon fill="green" stroke="green" stroke-width="0.16" points="1202.87,-294.92 1201.79,-284.38 1196.07,-293.3 1202.87,-294.92"/>
</g>
<!-- PAC&#45;MAN Left&#45;&gt;Move Up -->
<g id="edge42" class="edge">
<title>PAC&#45;MAN Left&#45;&gt;Move Up</title>
<path fill="none" stroke="green" stroke-width="0.22" d="M1173.21,-344.05C1164.27,-338.17 1151.66,-330.72 1139.5,-326.5 1039.29,-291.64 1008.26,-307.32 903.5,-290.5 830.67,-278.8 746.2,-264.39 695.63,-255.66"/>
<polygon fill="green" stroke="green" stroke-width="0.22" points="696.45,-252.25 686,-254 695.26,-259.15 696.45,-252.25"/>
</g>
<!-- PAC&#45;MAN Left&#45;&gt;Move Down -->
<g id="edge43" class="edge">
<title>PAC&#45;MAN Left&#45;&gt;Move Down</title>
<path fill="none" stroke="red" stroke-width="0.29" stroke-dasharray="1,5" d="M1171.22,-344.03C1162.25,-338.71 1150.36,-331.91 1139.5,-326.5 1095.45,-304.56 1043.84,-282.71 1006.67,-267.62"/>
<polygon fill="red" stroke="red" stroke-width="0.29" points="1008.06,-264.41 997.48,-263.91 1005.44,-270.9 1008.06,-264.41"/>
</g>
<!-- PAC&#45;MAN Up -->
<g id="node15" class="node">
<title>PAC&#45;MAN Up</title>
<polygon fill="lightblue" stroke="black" points="1411.88,-362.97 1341.12,-362.97 1341.12,-344.47 1411.88,-344.47 1411.88,-362.97"/>
<text text-anchor="middle" x="1376.5" y="-350.42" font-family="Times,serif" font-size="9.00">PAC&#45;MAN Up</text>
</g>
<!-- PAC&#45;MAN Up&#45;&gt;Move Right -->
<g id="edge44" class="edge">
<title>PAC&#45;MAN Up&#45;&gt;Move Right</title>
<path fill="none" stroke="green" stroke-width="0.34" d="M1372.1,-344.17C1358.6,-318.74 1315.12,-242.93 1257.5,-203.17 1100.23,-94.64 868.75,-58.31 766.41,-47.12"/>
<polygon fill="green" stroke="green" stroke-width="0.34" points="766.86,-43.65 756.55,-46.07 766.12,-50.61 766.86,-43.65"/>
</g>
<!-- PAC&#45;MAN Up&#45;&gt;Move Left -->
<g id="edge45" class="edge">
<title>PAC&#45;MAN Up&#45;&gt;Move Left</title>
<path fill="none" stroke="red" stroke-width="1.06" stroke-dasharray="1,5" d="M1362.92,-344.14C1338.89,-328.96 1288.01,-296.81 1251.65,-273.83"/>
<polygon fill="red" stroke="red" stroke-width="1.06" points="1253.95,-271.15 1243.63,-268.76 1250.21,-277.06 1253.95,-271.15"/>
</g>
<!-- PAC&#45;MAN Up&#45;&gt;Move Up -->
<g id="edge46" class="edge">
<title>PAC&#45;MAN Up&#45;&gt;Move Up</title>
<path fill="none" stroke="red" stroke-width="0.35" d="M1364.96,-344.05C1356.25,-338.01 1343.74,-330.36 1331.5,-326.5 1149.46,-269.03 1092.89,-314.39 903.5,-290.5 830.47,-281.28 746.31,-266.19 695.81,-256.64"/>
<polygon fill="red" stroke="red" stroke-width="0.35" points="696.56,-253.22 686.09,-254.79 695.26,-260.1 696.56,-253.22"/>
</g>
<!-- PAC&#45;MAN Up&#45;&gt;Move Down -->
<g id="edge47" class="edge">
<title>PAC&#45;MAN Up&#45;&gt;Move Down</title>
<path fill="none" stroke="red" stroke-width="0.29" stroke-dasharray="1,5" d="M1364.05,-344C1355.31,-338.25 1343.15,-330.98 1331.5,-326.5 1323.95,-323.59 1111.26,-279.66 1009.62,-258.75"/>
<polygon fill="red" stroke="red" stroke-width="0.29" points="1010.48,-255.35 999.98,-256.76 1009.06,-262.21 1010.48,-255.35"/>
</g>
<!-- PACM&#45;MAN Down -->
<g id="node16" class="node">
<title>PACM&#45;MAN Down</title>
<polygon fill="lightblue" stroke="black" points="928.62,-362.97 838.38,-362.97 838.38,-344.47 928.62,-344.47 928.62,-362.97"/>
<text text-anchor="middle" x="883.5" y="-350.42" font-family="Times,serif" font-size="9.00">PACM&#45;MAN Down</text>
</g>
<!-- PACM&#45;MAN Down&#45;&gt;Move Left -->
<g id="edge48" class="edge">
<title>PACM&#45;MAN Down&#45;&gt;Move Left</title>
<path fill="none" stroke="red" stroke-width="0.19" d="M910.54,-344.05C966.47,-326.11 1095.42,-284.74 1164.63,-262.55"/>
<polygon fill="red" stroke="red" stroke-width="0.19" points="1165.67,-265.89 1174.12,-259.5 1163.53,-259.22 1165.67,-265.89"/>
</g>
<!-- PACM&#45;MAN Down&#45;&gt;Move Up -->
<g id="edge49" class="edge">
<title>PACM&#45;MAN Down&#45;&gt;Move Up</title>
<path fill="none" stroke="red" stroke-width="0.17" stroke-dasharray="1,5" d="M864.43,-344.14C826.98,-327.28 743.05,-289.5 692.16,-266.59"/>
<polygon fill="red" stroke="red" stroke-width="0.17" points="693.85,-263.51 683.3,-262.6 690.98,-269.89 693.85,-263.51"/>
</g>
<!-- PACM&#45;MAN Down&#45;&gt;Move Down -->
<g id="edge50" class="edge">
<title>PACM&#45;MAN Down&#45;&gt;Move Down</title>
<path fill="none" stroke="green" stroke-width="0.14" d="M889.47,-344.14C897.52,-332.58 912.41,-311.18 926.12,-291.49"/>
<polygon fill="green" stroke="green" stroke-width="0.14" points="928.93,-293.57 931.77,-283.36 923.19,-289.57 928.93,-293.57"/>
</g>
<!-- Power&#45;Up Time -->
<g id="node17" class="node">
<title>Power&#45;Up Time</title>
<polygon fill="lightblue" stroke="black" points="170.38,-362.97 96.62,-362.97 96.62,-344.47 170.38,-344.47 170.38,-362.97"/>
<text text-anchor="middle" x="133.5" y="-350.42" font-family="Times,serif" font-size="9.00">Power&#45;Up Time</text>
</g>
<!-- Power&#45;Up Time&#45;&gt;Move Right -->
<g id="edge51" class="edge">
<title>Power&#45;Up Time&#45;&gt;Move Right</title>
<path fill="none" stroke="red" stroke-width="0.24" d="M140.61,-344.28C160.98,-320.38 221.92,-250.91 281.5,-203.17 336.37,-159.2 350.89,-146.82 415.5,-119.09 498.82,-83.32 602.62,-61.39 663.43,-50.64"/>
<polygon fill="red" stroke="red" stroke-width="0.24" points="663.94,-54.1 673.19,-48.94 662.74,-47.21 663.94,-54.1"/>
</g>
<!-- Power&#45;Up Time&#45;&gt;Move Up -->
<g id="edge52" class="edge">
<title>Power&#45;Up Time&#45;&gt;Move Up</title>
<path fill="none" stroke="red" stroke-width="0.8" d="M145.81,-344.1C154.75,-338.25 167.37,-330.81 179.5,-326.5 328.63,-273.44 517.3,-255.77 603.58,-250.21"/>
<polygon fill="red" stroke="red" stroke-width="0.8" points="603.6,-253.72 613.37,-249.61 603.17,-246.73 603.6,-253.72"/>
</g>
<!-- Move Up&#45;&gt;7814 -->
<g id="edge60" class="edge">
<title>Move Up&#45;&gt;7814</title>
<path fill="none" stroke="red" stroke-width="0.21" d="M652.56,-210.83C653.2,-200.06 653.9,-188.23 654.53,-177.56"/>
<polygon fill="red" stroke="red" stroke-width="0.21" points="658.02,-177.88 655.11,-167.69 651.03,-177.46 658.02,-177.88"/>
</g>
<!-- 10050&#45;&gt;Move Down -->
<g id="edge62" class="edge">
<title>10050&#45;&gt;Move Down</title>
<path fill="none" stroke="red" stroke-width="0.33" d="M999.16,-329.18C993.91,-319.17 987.59,-307.12 981.44,-295.4"/>
<polygon fill="red" stroke="red" stroke-width="0.33" points="984.55,-293.78 976.8,-286.55 978.35,-297.03 984.55,-293.78"/>
</g>
<!-- 7814&#45;&gt;Move Right -->
<g id="edge55" class="edge">
<title>7814&#45;&gt;Move Right</title>
<path fill="none" stroke="green" stroke-width="0.72" d="M668.24,-121.97C674.04,-112.02 681.28,-99.58 688.31,-87.52"/>
<polygon fill="green" stroke="green" stroke-width="0.72" points="691.31,-89.32 693.31,-78.92 685.26,-85.8 691.31,-89.32"/>
</g>
<!-- 9625&#45;&gt;Move Up -->
<g id="edge58" class="edge">
<title>9625&#45;&gt;Move Up</title>
<path fill="none" stroke="green" stroke-width="0.32" d="M447.73,-336.84C452.56,-333.02 458,-329.25 463.5,-326.5 519.79,-298.31 544.71,-319.66 600.5,-290.5 606.48,-287.37 612.36,-283.41 617.88,-279.17"/>
<polygon fill="green" stroke="green" stroke-width="0.32" points="619.75,-282.16 625.29,-273.13 615.32,-276.74 619.75,-282.16"/>
</g>
</g>
</svg>
