<?xml version="1.0" encoding="UTF-8" standalone="no"?>
<!DOCTYPE svg PUBLIC "-//W3C//DTD SVG 1.1//EN"
 "http://www.w3.org/Graphics/SVG/1.1/DTD/svg11.dtd">
<!-- Generated by graphviz version 12.0.0 (20240704.0754)
 -->
<!-- Pages: 1 -->
<svg width="1518pt" height="150pt"
 viewBox="0.00 0.00 1518.25 149.83" xmlns="http://www.w3.org/2000/svg" xmlns:xlink="http://www.w3.org/1999/xlink">
<g id="graph0" class="graph" transform="scale(1 1) rotate(0) translate(4 145.83)">
<polygon fill="white" stroke="none" points="-4,4 -4,-145.83 1514.25,-145.83 1514.25,4 -4,4"/>
<!-- Pellet Right -->
<g id="node1" class="node">
<title>Pellet Right</title>
<polygon fill="lightblue" stroke="black" points="865.12,-141.83 807.88,-141.83 807.88,-123.33 865.12,-123.33 865.12,-141.83"/>
<text text-anchor="middle" x="836.5" y="-129.28" font-family="Times,serif" font-size="9.00">Pellet Right</text>
</g>
<!-- Move Left -->
<g id="node19" class="node">
<title>Move Left</title>
<ellipse fill="lightblue" stroke="black" cx="702.5" cy="-43.66" rx="37.83" ry="37.83"/>
<text text-anchor="middle" x="702.5" y="-40.36" font-family="Times,serif" font-size="9.00">Move Left</text>
</g>
<!-- Pellet Right&#45;&gt;Move Left -->
<g id="edge1" class="edge">
<title>Pellet Right&#45;&gt;Move Left</title>
<path fill="none" stroke="green" stroke-width="0.22" d="M823.16,-122.93C804.58,-110.88 770.12,-88.52 742.77,-70.78"/>
<polygon fill="green" stroke="green" stroke-width="0.22" points="744.74,-67.89 734.44,-65.38 740.93,-73.76 744.74,-67.89"/>
</g>
<!-- Pellet Left -->
<g id="node2" class="node">
<title>Pellet Left</title>
<polygon fill="lightblue" stroke="black" points="237.5,-141.83 185.5,-141.83 185.5,-123.33 237.5,-123.33 237.5,-141.83"/>
<text text-anchor="middle" x="211.5" y="-129.28" font-family="Times,serif" font-size="9.00">Pellet Left</text>
</g>
<!-- Pellet Left&#45;&gt;Move Left -->
<g id="edge2" class="edge">
<title>Pellet Left&#45;&gt;Move Left</title>
<path fill="none" stroke="green" stroke-width="0.24" stroke-dasharray="1,5" d="M237.8,-124.98C240.72,-124.37 243.67,-123.8 246.5,-123.33 408.18,-96.47 455.65,-131.42 613.5,-87.33 629.76,-82.78 646.69,-75.42 661.37,-68.07"/>
<polygon fill="green" stroke="green" stroke-width="0.24" points="662.58,-71.39 669.87,-63.69 659.37,-65.16 662.58,-71.39"/>
</g>
<!-- Move Down -->
<g id="node21" class="node">
<title>Move Down</title>
<ellipse fill="lightblue" stroke="black" cx="560.5" cy="-43.66" rx="43.66" ry="43.66"/>
<text text-anchor="middle" x="560.5" y="-40.36" font-family="Times,serif" font-size="9.00">Move Down</text>
</g>
<!-- Pellet Left&#45;&gt;Move Down -->
<g id="edge3" class="edge">
<title>Pellet Left&#45;&gt;Move Down</title>
<path fill="none" stroke="red" stroke-width="0.35" stroke-dasharray="1,5" d="M237.73,-125.05C295.08,-110.76 432.52,-76.54 508.25,-57.68"/>
<polygon fill="red" stroke="red" stroke-width="0.35" points="508.68,-61.18 517.54,-55.36 506.99,-54.38 508.68,-61.18"/>
</g>
<!-- Pellet Up -->
<g id="node3" class="node">
<title>Pellet Up</title>
<polygon fill="lightblue" stroke="black" points="697,-141.83 648,-141.83 648,-123.33 697,-123.33 697,-141.83"/>
<text text-anchor="middle" x="672.5" y="-129.28" font-family="Times,serif" font-size="9.00">Pellet Up</text>
</g>
<!-- Pellet Up&#45;&gt;Move Left -->
<g id="edge4" class="edge">
<title>Pellet Up&#45;&gt;Move Left</title>
<path fill="none" stroke="red" stroke-width="0.66" stroke-dasharray="1,5" d="M675.49,-122.93C678.22,-115 682.5,-102.61 686.85,-90.01"/>
<polygon fill="red" stroke="red" stroke-width="0.66" points="690.04,-91.48 690,-80.89 683.42,-89.2 690.04,-91.48"/>
</g>
<!-- Move Up -->
<g id="node20" class="node">
<title>Move Up</title>
<ellipse fill="lightblue" stroke="black" cx="1104.5" cy="-43.66" rx="35.71" ry="35.71"/>
<text text-anchor="middle" x="1104.5" y="-40.36" font-family="Times,serif" font-size="9.00">Move Up</text>
</g>
<!-- Pellet Up&#45;&gt;Move Up -->
<g id="edge5" class="edge">
<title>Pellet Up&#45;&gt;Move Up</title>
<path fill="none" stroke="green" stroke-width="0.46" d="M697.3,-125.15C700.39,-124.47 703.51,-123.84 706.5,-123.33 862.37,-96.62 917.13,-154.07 1060.5,-87.33 1065.32,-85.08 1069.93,-82.09 1074.24,-78.73"/>
<polygon fill="green" stroke="green" stroke-width="0.46" points="1076.33,-81.55 1081.59,-72.35 1071.74,-76.26 1076.33,-81.55"/>
</g>
<!-- Pellet Up&#45;&gt;Move Down -->
<g id="edge6" class="edge">
<title>Pellet Up&#45;&gt;Move Down</title>
<path fill="none" stroke="green" stroke-width="0.34" d="M661.35,-122.93C647.77,-112.39 624.04,-93.97 603.01,-77.65"/>
<polygon fill="green" stroke="green" stroke-width="0.34" points="605.26,-74.96 595.21,-71.6 600.96,-80.49 605.26,-74.96"/>
</g>
<!-- Pellet Down -->
<g id="node4" class="node">
<title>Pellet Down</title>
<polygon fill="lightblue" stroke="black" points="1414.62,-141.83 1354.38,-141.83 1354.38,-123.33 1414.62,-123.33 1414.62,-141.83"/>
<text text-anchor="middle" x="1384.5" y="-129.28" font-family="Times,serif" font-size="9.00">Pellet Down</text>
</g>
<!-- Move Right -->
<g id="node18" class="node">
<title>Move Right</title>
<ellipse fill="lightblue" stroke="black" cx="1009.5" cy="-43.66" rx="41.54" ry="41.54"/>
<text text-anchor="middle" x="1009.5" y="-40.36" font-family="Times,serif" font-size="9.00">Move Right</text>
</g>
<!-- Pellet Down&#45;&gt;Move Right -->
<g id="edge7" class="edge">
<title>Pellet Down&#45;&gt;Move Right</title>
<path fill="none" stroke="green" stroke-width="0.28" d="M1353.89,-124.85C1351.06,-124.3 1348.23,-123.79 1345.5,-123.33 1219.16,-102.05 1176.7,-139.08 1059.5,-87.33 1055.04,-85.36 1050.67,-82.86 1046.49,-80.05"/>
<polygon fill="green" stroke="green" stroke-width="0.28" points="1048.69,-77.32 1038.56,-74.21 1044.54,-82.96 1048.69,-77.32"/>
</g>
<!-- Pellet Down&#45;&gt;Move Left -->
<g id="edge8" class="edge">
<title>Pellet Down&#45;&gt;Move Left</title>
<path fill="none" stroke="green" stroke-width="0.21" stroke-dasharray="1,5" d="M1353.9,-124.76C1351.07,-124.23 1348.24,-123.74 1345.5,-123.33 1174.71,-97.41 1129.81,-109.54 958.5,-87.33 885.34,-77.84 801.05,-63.04 749.79,-53.6"/>
<polygon fill="green" stroke="green" stroke-width="0.21" points="750.46,-50.16 739.99,-51.79 749.19,-57.05 750.46,-50.16"/>
</g>
<!-- Pellet Down&#45;&gt;Move Up -->
<g id="edge9" class="edge">
<title>Pellet Down&#45;&gt;Move Up</title>
<path fill="none" stroke="red" stroke-width="0.17" stroke-dasharray="1,5" d="M1356.37,-122.85C1307.47,-107.67 1206.47,-76.32 1148.32,-58.27"/>
<polygon fill="red" stroke="red" stroke-width="0.17" points="1149.5,-54.97 1138.91,-55.35 1147.43,-61.65 1149.5,-54.97"/>
</g>
<!-- Power Pellet Right -->
<g id="node5" class="node">
<title>Power Pellet Right</title>
<polygon fill="lightblue" stroke="black" points="337.88,-141.83 255.12,-141.83 255.12,-123.33 337.88,-123.33 337.88,-141.83"/>
<text text-anchor="middle" x="296.5" y="-129.28" font-family="Times,serif" font-size="9.00">Power Pellet Right</text>
</g>
<!-- Power Pellet Right&#45;&gt;Move Right -->
<g id="edge10" class="edge">
<title>Power Pellet Right&#45;&gt;Move Right</title>
<path fill="none" stroke="green" stroke-width="0.12" d="M338.21,-124.58C341.35,-124.13 344.47,-123.71 347.5,-123.33 525.49,-100.99 571.54,-109.87 749.5,-87.33 822.61,-78.07 906.68,-63.56 958.96,-54.09"/>
<polygon fill="green" stroke="green" stroke-width="0.12" points="959.26,-57.59 968.47,-52.35 958.01,-50.7 959.26,-57.59"/>
</g>
<!-- Power Pellet Right&#45;&gt;Move Left -->
<g id="edge11" class="edge">
<title>Power Pellet Right&#45;&gt;Move Left</title>
<path fill="none" stroke="red" stroke-width="0.33" d="M338.23,-124.74C341.37,-124.25 344.48,-123.78 347.5,-123.33 465.51,-105.8 499.21,-121.53 613.5,-87.33 629.39,-82.57 645.99,-75.31 660.49,-68.12"/>
<polygon fill="red" stroke="red" stroke-width="0.33" points="661.92,-71.32 669.24,-63.66 658.74,-65.09 661.92,-71.32"/>
</g>
<!-- Power Pellet Right&#45;&gt;Move Down -->
<g id="edge12" class="edge">
<title>Power Pellet Right&#45;&gt;Move Down</title>
<path fill="none" stroke="red" stroke-width="0.29" d="M322.78,-122.93C366.21,-108.63 453.71,-79.82 509.58,-61.43"/>
<polygon fill="red" stroke="red" stroke-width="0.29" points="510.46,-64.82 518.86,-58.37 508.27,-58.18 510.46,-64.82"/>
</g>
<!-- Power Pellet Left -->
<g id="node6" class="node">
<title>Power Pellet Left</title>
<polygon fill="lightblue" stroke="black" points="1510.25,-141.83 1432.75,-141.83 1432.75,-123.33 1510.25,-123.33 1510.25,-141.83"/>
<text text-anchor="middle" x="1471.5" y="-129.28" font-family="Times,serif" font-size="9.00">Power Pellet Left</text>
</g>
<!-- Power Pellet Left&#45;&gt;Move Right -->
<g id="edge13" class="edge">
<title>Power Pellet Left&#45;&gt;Move Right</title>
<path fill="none" stroke="green" stroke-width="0.1" stroke-dasharray="1,5" d="M1432.5,-124.63C1429.46,-124.17 1426.43,-123.72 1423.5,-123.33 1262.4,-101.55 1209.08,-151.01 1059.5,-87.33 1054.89,-85.37 1050.4,-82.82 1046.11,-79.96"/>
<polygon fill="green" stroke="green" stroke-width="0.1" points="1048.4,-77.3 1038.27,-74.2 1044.26,-82.94 1048.4,-77.3"/>
</g>
<!-- Power Pellet Left&#45;&gt;Move Left -->
<g id="edge14" class="edge">
<title>Power Pellet Left&#45;&gt;Move Left</title>
<path fill="none" stroke="green" stroke-width="0.22" d="M1432.25,-124.53C1429.29,-124.09 1426.35,-123.68 1423.5,-123.33 1217.8,-97.74 1164.26,-112.39 958.5,-87.33 885.27,-78.41 801,-63.45 749.77,-53.82"/>
<polygon fill="green" stroke="green" stroke-width="0.22" points="750.46,-50.39 739.99,-51.97 749.16,-57.27 750.46,-50.39"/>
</g>
<!-- Power Pellet Left&#45;&gt;Move Up -->
<g id="edge15" class="edge">
<title>Power Pellet Left&#45;&gt;Move Up</title>
<path fill="none" stroke="green" stroke-width="0.39" stroke-dasharray="1,5" d="M1434.63,-122.85C1366.84,-106.79 1222.64,-72.64 1149.32,-55.28"/>
<polygon fill="green" stroke="green" stroke-width="0.39" points="1150.57,-51.98 1140.03,-53.08 1148.95,-58.79 1150.57,-51.98"/>
</g>
<!-- Power Pellet Up -->
<g id="node7" class="node">
<title>Power Pellet Up</title>
<polygon fill="lightblue" stroke="black" points="789.75,-141.83 715.25,-141.83 715.25,-123.33 789.75,-123.33 789.75,-141.83"/>
<text text-anchor="middle" x="752.5" y="-129.28" font-family="Times,serif" font-size="9.00">Power Pellet Up</text>
</g>
<!-- Power Pellet Up&#45;&gt;Move Left -->
<g id="edge16" class="edge">
<title>Power Pellet Up&#45;&gt;Move Left</title>
<path fill="none" stroke="red" stroke-width="0.33" d="M747.52,-122.93C742.46,-114.12 734.23,-99.81 726.18,-85.82"/>
<polygon fill="red" stroke="red" stroke-width="0.33" points="729.22,-84.09 721.2,-77.17 723.15,-87.58 729.22,-84.09"/>
</g>
<!-- Power Pellet Up&#45;&gt;Move Up -->
<g id="edge17" class="edge">
<title>Power Pellet Up&#45;&gt;Move Up</title>
<path fill="none" stroke="red" stroke-width="0.15" d="M790.13,-124.7C792.96,-124.22 795.78,-123.76 798.5,-123.33 914.59,-104.95 954.83,-138.8 1060.5,-87.33 1065.4,-84.94 1070.11,-81.8 1074.49,-78.3"/>
<polygon fill="red" stroke="red" stroke-width="0.15" points="1076.64,-81.07 1081.86,-71.85 1072.03,-75.81 1076.64,-81.07"/>
</g>
<!-- Power Pellet Up&#45;&gt;Move Down -->
<g id="edge18" class="edge">
<title>Power Pellet Up&#45;&gt;Move Down</title>
<path fill="none" stroke="green" stroke-width="0.57" stroke-dasharray="1,5" d="M733.39,-122.93C704.82,-110 650.04,-85.2 609.77,-66.97"/>
<polygon fill="green" stroke="green" stroke-width="0.57" points="611.47,-63.89 600.91,-62.96 608.58,-70.27 611.47,-63.89"/>
</g>
<!-- Power Pellet Down -->
<g id="node8" class="node">
<title>Power Pellet Down</title>
<polygon fill="lightblue" stroke="black" points="1244.38,-141.83 1158.62,-141.83 1158.62,-123.33 1244.38,-123.33 1244.38,-141.83"/>
<text text-anchor="middle" x="1201.5" y="-129.28" font-family="Times,serif" font-size="9.00">Power Pellet Down</text>
</g>
<!-- Power Pellet Down&#45;&gt;Move Right -->
<g id="edge19" class="edge">
<title>Power Pellet Down&#45;&gt;Move Right</title>
<path fill="none" stroke="red" stroke-width="0.12" stroke-dasharray="1,5" d="M1158.37,-122.94C1129.24,-115.97 1090.59,-104.48 1059.5,-87.33 1055.29,-85 1051.11,-82.29 1047.06,-79.37"/>
<polygon fill="red" stroke="red" stroke-width="0.12" points="1049.19,-76.6 1039.13,-73.28 1044.93,-82.15 1049.19,-76.6"/>
</g>
<!-- Power Pellet Down&#45;&gt;Move Left -->
<g id="edge20" class="edge">
<title>Power Pellet Down&#45;&gt;Move Left</title>
<path fill="none" stroke="red" stroke-width="0.41" stroke-dasharray="1,5" d="M1158.52,-124.09C1065.78,-107.94 847.44,-69.91 750.42,-53.01"/>
<polygon fill="red" stroke="red" stroke-width="0.41" points="751.1,-49.58 740.64,-51.31 749.9,-56.47 751.1,-49.58"/>
</g>
<!-- Power Pellet Down&#45;&gt;Move Up -->
<g id="edge21" class="edge">
<title>Power Pellet Down&#45;&gt;Move Up</title>
<path fill="none" stroke="red" stroke-width="0.4" d="M1191.84,-122.93C1179.52,-111.88 1157.53,-92.18 1138.7,-75.3"/>
<polygon fill="red" stroke="red" stroke-width="0.4" points="1141.09,-72.75 1131.3,-68.68 1136.42,-77.96 1141.09,-72.75"/>
</g>
<!-- Ghost Info Right -->
<g id="node9" class="node">
<title>Ghost Info Right</title>
<polygon fill="lightblue" stroke="black" points="1140.88,-141.83 1064.12,-141.83 1064.12,-123.33 1140.88,-123.33 1140.88,-141.83"/>
<text text-anchor="middle" x="1102.5" y="-129.28" font-family="Times,serif" font-size="9.00">Ghost Info Right</text>
</g>
<!-- Ghost Info Right&#45;&gt;Move Right -->
<g id="edge22" class="edge">
<title>Ghost Info Right&#45;&gt;Move Right</title>
<path fill="none" stroke="green" stroke-width="0.16" d="M1093.24,-122.93C1082.39,-112.78 1063.72,-95.34 1046.76,-79.49"/>
<polygon fill="green" stroke="green" stroke-width="0.16" points="1049.5,-77.25 1039.8,-72.98 1044.72,-82.37 1049.5,-77.25"/>
</g>
<!-- Ghost Info Right&#45;&gt;Move Up -->
<g id="edge23" class="edge">
<title>Ghost Info Right&#45;&gt;Move Up</title>
<path fill="none" stroke="green" stroke-width="0.39" stroke-dasharray="1,5" d="M1102.7,-122.93C1102.88,-115.01 1103.17,-102.65 1103.46,-90.06"/>
<polygon fill="green" stroke="green" stroke-width="0.39" points="1106.95,-90.2 1103.68,-80.12 1099.95,-90.04 1106.95,-90.2"/>
</g>
<!-- Ghost Info Right&#45;&gt;Move Down -->
<g id="edge24" class="edge">
<title>Ghost Info Right&#45;&gt;Move Down</title>
<path fill="none" stroke="green" stroke-width="0.56" stroke-dasharray="1,5" d="M1063.81,-124.52C1061,-124.09 1058.21,-123.69 1055.5,-123.33 878.55,-99.88 828.18,-132.51 655.5,-87.33 639.57,-83.16 622.96,-76.56 608.16,-69.78"/>
<polygon fill="green" stroke="green" stroke-width="0.56" points="610.03,-66.8 599.49,-65.7 607.04,-73.13 610.03,-66.8"/>
</g>
<!-- Ghost Info Left -->
<g id="node10" class="node">
<title>Ghost Info Left</title>
<polygon fill="lightblue" stroke="black" points="954.25,-141.83 882.75,-141.83 882.75,-123.33 954.25,-123.33 954.25,-141.83"/>
<text text-anchor="middle" x="918.5" y="-129.28" font-family="Times,serif" font-size="9.00">Ghost Info Left</text>
</g>
<!-- Ghost Info Left&#45;&gt;Move Left -->
<g id="edge25" class="edge">
<title>Ghost Info Left&#45;&gt;Move Left</title>
<path fill="none" stroke="green" stroke-width="0.58" d="M897,-122.93C862.28,-108.95 793.13,-81.13 747.34,-62.71"/>
<polygon fill="green" stroke="green" stroke-width="0.58" points="748.78,-59.51 738.2,-59.03 746.17,-66.01 748.78,-59.51"/>
</g>
<!-- Ghost Info Left&#45;&gt;Move Up -->
<g id="edge26" class="edge">
<title>Ghost Info Left&#45;&gt;Move Up</title>
<path fill="none" stroke="green" stroke-width="0.35" d="M954.55,-125.21C984.46,-118.82 1027.31,-107.04 1060.5,-87.33 1064.96,-84.68 1069.32,-81.49 1073.45,-78.07"/>
<polygon fill="green" stroke="green" stroke-width="0.35" points="1075.55,-80.88 1080.69,-71.62 1070.89,-75.66 1075.55,-80.88"/>
</g>
<!-- Ghost Info Left&#45;&gt;Move Down -->
<g id="edge27" class="edge">
<title>Ghost Info Left&#45;&gt;Move Down</title>
<path fill="none" stroke="green" stroke-width="0.29" d="M882.49,-124.76C879.79,-124.27 877.1,-123.79 874.5,-123.33 777.35,-106.24 749.95,-115.77 655.5,-87.33 639.74,-82.58 623.17,-75.81 608.36,-69.06"/>
<polygon fill="green" stroke="green" stroke-width="0.29" points="609.85,-65.9 599.31,-64.84 606.89,-72.24 609.85,-65.9"/>
</g>
<!-- Ghost Info Up -->
<g id="node11" class="node">
<title>Ghost Info Up</title>
<polygon fill="lightblue" stroke="black" points="424.75,-141.83 356.25,-141.83 356.25,-123.33 424.75,-123.33 424.75,-141.83"/>
<text text-anchor="middle" x="390.5" y="-129.28" font-family="Times,serif" font-size="9.00">Ghost Info Up</text>
</g>
<!-- Ghost Info Up&#45;&gt;Move Right -->
<g id="edge28" class="edge">
<title>Ghost Info Up&#45;&gt;Move Right</title>
<path fill="none" stroke="green" stroke-width="0.13" stroke-dasharray="1,5" d="M425.19,-124.69C428,-124.2 430.79,-123.74 433.5,-123.33 573.23,-102 609.49,-106.78 749.5,-87.33 822.35,-77.21 906.25,-62.97 958.58,-53.78"/>
<polygon fill="green" stroke="green" stroke-width="0.13" points="959.18,-57.23 968.42,-52.05 957.96,-50.34 959.18,-57.23"/>
</g>
<!-- Ghost Info Up&#45;&gt;Move Left -->
<g id="edge29" class="edge">
<title>Ghost Info Up&#45;&gt;Move Left</title>
<path fill="none" stroke="green" stroke-width="0.28" stroke-dasharray="1,5" d="M425.07,-124.95C485.45,-113.35 604.58,-90.3 613.5,-87.33 629.24,-82.09 645.8,-74.71 660.31,-67.56"/>
<polygon fill="green" stroke="green" stroke-width="0.28" points="661.78,-70.74 669.14,-63.11 658.63,-64.49 661.78,-70.74"/>
</g>
<!-- Ghost Info Up&#45;&gt;Move Down -->
<g id="edge30" class="edge">
<title>Ghost Info Up&#45;&gt;Move Down</title>
<path fill="none" stroke="green" stroke-width="0.26" stroke-dasharray="1,5" d="M407.42,-122.93C431.71,-110.51 477.39,-87.16 512.55,-69.18"/>
<polygon fill="green" stroke="green" stroke-width="0.26" points="514.04,-72.35 521.35,-64.68 510.85,-66.12 514.04,-72.35"/>
</g>
<!-- Ghost Info Down -->
<g id="node12" class="node">
<title>Ghost Info Down</title>
<polygon fill="lightblue" stroke="black" points="630.38,-141.83 550.62,-141.83 550.62,-123.33 630.38,-123.33 630.38,-141.83"/>
<text text-anchor="middle" x="590.5" y="-129.28" font-family="Times,serif" font-size="9.00">Ghost Info Down</text>
</g>
<!-- Ghost Info Down&#45;&gt;Move Right -->
<g id="edge31" class="edge">
<title>Ghost Info Down&#45;&gt;Move Right</title>
<path fill="none" stroke="green" stroke-width="0.45" d="M630.68,-123.24C707.28,-107.35 874.11,-72.75 958.47,-55.25"/>
<polygon fill="green" stroke="green" stroke-width="0.45" points="959.08,-58.7 968.16,-53.24 957.66,-51.84 959.08,-58.7"/>
</g>
<!-- Ghost Info Down&#45;&gt;Move Left -->
<g id="edge32" class="edge">
<title>Ghost Info Down&#45;&gt;Move Left</title>
<path fill="none" stroke="green" stroke-width="0.17" d="M601.65,-122.93C616.33,-111.53 642.89,-90.92 665.07,-73.71"/>
<polygon fill="green" stroke="green" stroke-width="0.17" points="667.05,-76.6 672.81,-67.71 662.76,-71.07 667.05,-76.6"/>
</g>
<!-- Ghost Info Down&#45;&gt;Move Down -->
<g id="edge33" class="edge">
<title>Ghost Info Down&#45;&gt;Move Down</title>
<path fill="none" stroke="green" stroke-width="0.16" d="M587.51,-122.93C585.13,-116.02 581.58,-105.73 577.82,-94.86"/>
<polygon fill="green" stroke="green" stroke-width="0.16" points="581.15,-93.77 574.58,-85.46 574.53,-96.05 581.15,-93.77"/>
</g>
<!-- PAC&#45;MAN Right -->
<g id="node13" class="node">
<title>PAC&#45;MAN Right</title>
<polygon fill="lightblue" stroke="black" points="79,-141.83 0,-141.83 0,-123.33 79,-123.33 79,-141.83"/>
<text text-anchor="middle" x="39.5" y="-129.28" font-family="Times,serif" font-size="9.00">PAC&#45;MAN Right</text>
</g>
<!-- PAC&#45;MAN Right&#45;&gt;Move Left -->
<g id="edge34" class="edge">
<title>PAC&#45;MAN Right&#45;&gt;Move Left</title>
<path fill="none" stroke="red" stroke-width="0.11" d="M79.3,-124.54C82.41,-124.09 85.5,-123.68 88.5,-123.33 320.76,-95.88 387.34,-146.94 613.5,-87.33 629.83,-83.02 646.77,-75.71 661.44,-68.34"/>
<polygon fill="red" stroke="red" stroke-width="0.11" points="662.84,-71.56 670.11,-63.85 659.62,-65.35 662.84,-71.56"/>
</g>
<!-- PAC&#45;MAN Right&#45;&gt;Move Down -->
<g id="edge35" class="edge">
<title>PAC&#45;MAN Right&#45;&gt;Move Down</title>
<path fill="none" stroke="green" stroke-width="0.23" stroke-dasharray="1,5" d="M79.34,-124.86C82.44,-124.34 85.52,-123.83 88.5,-123.33 240.26,-97.91 419.5,-68.09 507.01,-53.55"/>
<polygon fill="green" stroke="green" stroke-width="0.23" points="507.58,-57 516.87,-51.91 506.44,-50.1 507.58,-57"/>
</g>
<!-- PAC&#45;MAN Left -->
<g id="node14" class="node">
<title>PAC&#45;MAN Left</title>
<polygon fill="lightblue" stroke="black" points="1046.38,-141.83 972.62,-141.83 972.62,-123.33 1046.38,-123.33 1046.38,-141.83"/>
<text text-anchor="middle" x="1009.5" y="-129.28" font-family="Times,serif" font-size="9.00">PAC&#45;MAN Left</text>
</g>
<!-- PAC&#45;MAN Left&#45;&gt;Move Right -->
<g id="edge36" class="edge">
<title>PAC&#45;MAN Left&#45;&gt;Move Right</title>
<path fill="none" stroke="green" stroke-width="0.14" d="M1009.5,-122.93C1009.5,-116.22 1009.5,-106.33 1009.5,-95.82"/>
<polygon fill="green" stroke="green" stroke-width="0.14" points="1013,-95.84 1009.5,-85.84 1006,-95.84 1013,-95.84"/>
</g>
<!-- PAC&#45;MAN Left&#45;&gt;Move Left -->
<g id="edge37" class="edge">
<title>PAC&#45;MAN Left&#45;&gt;Move Left</title>
<path fill="none" stroke="green" stroke-width="0.27" d="M978.66,-122.85C924.53,-107.52 812.19,-75.72 748.74,-57.75"/>
<polygon fill="green" stroke="green" stroke-width="0.27" points="749.95,-54.46 739.37,-55.1 748.04,-61.19 749.95,-54.46"/>
</g>
<!-- PAC&#45;MAN Left&#45;&gt;Move Up -->
<g id="edge38" class="edge">
<title>PAC&#45;MAN Left&#45;&gt;Move Up</title>
<path fill="none" stroke="green" stroke-width="0.43" d="M1019.81,-122.93C1030.21,-114.12 1046.68,-100.01 1060.5,-87.33 1064.32,-83.82 1068.28,-80.1 1072.19,-76.38"/>
<polygon fill="green" stroke="green" stroke-width="0.43" points="1074.34,-79.17 1079.13,-69.72 1069.49,-74.12 1074.34,-79.17"/>
</g>
<!-- PAC&#45;MAN Left&#45;&gt;Move Down -->
<g id="edge39" class="edge">
<title>PAC&#45;MAN Left&#45;&gt;Move Down</title>
<path fill="none" stroke="green" stroke-width="0.47" d="M972.37,-124.72C969.38,-124.23 966.39,-123.76 963.5,-123.33 827.16,-103.15 788.36,-123.99 655.5,-87.33 639.63,-82.95 623.03,-76.29 608.23,-69.52"/>
<polygon fill="green" stroke="green" stroke-width="0.47" points="609.97,-66.47 599.43,-65.39 606.99,-72.81 609.97,-66.47"/>
</g>
<!-- PAC&#45;MAN Up -->
<g id="node15" class="node">
<title>PAC&#45;MAN Up</title>
<polygon fill="lightblue" stroke="black" points="167.88,-141.83 97.12,-141.83 97.12,-123.33 167.88,-123.33 167.88,-141.83"/>
<text text-anchor="middle" x="132.5" y="-129.28" font-family="Times,serif" font-size="9.00">PAC&#45;MAN Up</text>
</g>
<!-- PAC&#45;MAN Up&#45;&gt;Move Left -->
<g id="edge40" class="edge">
<title>PAC&#45;MAN Up&#45;&gt;Move Left</title>
<path fill="none" stroke="green" stroke-width="0.34" stroke-dasharray="1,5" d="M167.99,-124.6C170.86,-124.13 173.73,-123.7 176.5,-123.33 369.64,-97.34 425.4,-138.29 613.5,-87.33 629.64,-82.95 646.42,-75.71 660.99,-68.43"/>
<polygon fill="green" stroke="green" stroke-width="0.34" points="662.48,-71.59 669.76,-63.9 659.27,-65.37 662.48,-71.59"/>
</g>
<!-- PAC&#45;MAN Up&#45;&gt;Move Down -->
<g id="edge41" class="edge">
<title>PAC&#45;MAN Up&#45;&gt;Move Down</title>
<path fill="none" stroke="green" stroke-width="0.12" d="M168.25,-124.32C243.7,-109 419.48,-73.3 507.83,-55.36"/>
<polygon fill="green" stroke="green" stroke-width="0.12" points="508.36,-58.82 517.47,-53.4 506.97,-51.96 508.36,-58.82"/>
</g>
<!-- PACM&#45;MAN Down -->
<g id="node16" class="node">
<title>PACM&#45;MAN Down</title>
<polygon fill="lightblue" stroke="black" points="532.62,-141.83 442.38,-141.83 442.38,-123.33 532.62,-123.33 532.62,-141.83"/>
<text text-anchor="middle" x="487.5" y="-129.28" font-family="Times,serif" font-size="9.00">PACM&#45;MAN Down</text>
</g>
<!-- PACM&#45;MAN Down&#45;&gt;Move Right -->
<g id="edge42" class="edge">
<title>PACM&#45;MAN Down&#45;&gt;Move Right</title>
<path fill="none" stroke="green" stroke-width="0.13" d="M532.91,-124.02C629.79,-107.89 856.22,-70.19 958.15,-53.21"/>
<polygon fill="green" stroke="green" stroke-width="0.13" points="958.72,-56.67 968.01,-51.57 957.57,-49.76 958.72,-56.67"/>
</g>
<!-- PACM&#45;MAN Down&#45;&gt;Move Left -->
<g id="edge43" class="edge">
<title>PACM&#45;MAN Down&#45;&gt;Move Left</title>
<path fill="none" stroke="green" stroke-width="0.66" d="M515.11,-122.85C540.86,-114.48 580.19,-101.11 613.5,-87.33 628.68,-81.05 644.97,-73.49 659.42,-66.48"/>
<polygon fill="green" stroke="green" stroke-width="0.66" points="660.75,-69.73 668.19,-62.19 657.67,-63.44 660.75,-69.73"/>
</g>
<!-- PACM&#45;MAN Down&#45;&gt;Move Down -->
<g id="edge44" class="edge">
<title>PACM&#45;MAN Down&#45;&gt;Move Down</title>
<path fill="none" stroke="red" stroke-width="0.25" d="M494.77,-122.93C502.25,-114.01 514.47,-99.47 526.36,-85.32"/>
<polygon fill="red" stroke="red" stroke-width="0.25" points="528.9,-87.73 532.65,-77.83 523.54,-83.23 528.9,-87.73"/>
</g>
<!-- Power&#45;Up Time -->
<g id="node17" class="node">
<title>Power&#45;Up Time</title>
<polygon fill="lightblue" stroke="black" points="1336.38,-141.83 1262.62,-141.83 1262.62,-123.33 1336.38,-123.33 1336.38,-141.83"/>
<text text-anchor="middle" x="1299.5" y="-129.28" font-family="Times,serif" font-size="9.00">Power&#45;Up Time</text>
</g>
<!-- Power&#45;Up Time&#45;&gt;Move Right -->
<g id="edge45" class="edge">
<title>Power&#45;Up Time&#45;&gt;Move Right</title>
<path fill="none" stroke="red" stroke-width="0.26" stroke-dasharray="1,5" d="M1262.17,-124.82C1195.3,-112.7 1061.79,-88.42 1059.5,-87.33 1055.16,-85.26 1050.89,-82.72 1046.79,-79.91"/>
<polygon fill="red" stroke="red" stroke-width="0.26" points="1049.06,-77.24 1038.95,-74.08 1044.88,-82.85 1049.06,-77.24"/>
</g>
<!-- Power&#45;Up Time&#45;&gt;Move Left -->
<g id="edge46" class="edge">
<title>Power&#45;Up Time&#45;&gt;Move Left</title>
<path fill="none" stroke="red" stroke-width="0.27" d="M1262.37,-124.73C1259.37,-124.24 1256.39,-123.76 1253.5,-123.33 1122.89,-103.66 1089.23,-106.19 958.5,-87.33 885.49,-76.79 801.16,-62.28 749.85,-53.19"/>
<polygon fill="red" stroke="red" stroke-width="0.27" points="750.59,-49.77 740.13,-51.46 749.36,-56.66 750.59,-49.77"/>
</g>
<!-- Power&#45;Up Time&#45;&gt;Move Up -->
<g id="edge47" class="edge">
<title>Power&#45;Up Time&#45;&gt;Move Up</title>
<path fill="none" stroke="green" stroke-width="0.52" d="M1280.09,-122.93C1249.21,-109.16 1188.16,-81.95 1146.83,-63.53"/>
<polygon fill="green" stroke="green" stroke-width="0.52" points="1148.32,-60.36 1137.76,-59.49 1145.47,-66.76 1148.32,-60.36"/>
</g>
</g>
</svg>
