<?xml version="1.0" encoding="UTF-8" standalone="no"?>
<!DOCTYPE svg PUBLIC "-//W3C//DTD SVG 1.1//EN"
 "http://www.w3.org/Graphics/SVG/1.1/DTD/svg11.dtd">
<!-- Generated by graphviz version 12.0.0 (20240704.0754)
 -->
<!-- Pages: 1 -->
<svg width="1373pt" height="240pt"
 viewBox="0.00 0.00 1373.12 240.27" xmlns="http://www.w3.org/2000/svg" xmlns:xlink="http://www.w3.org/1999/xlink">
<g id="graph0" class="graph" transform="scale(1 1) rotate(0) translate(4 236.27)">
<polygon fill="white" stroke="none" points="-4,4 -4,-236.27 1369.12,-236.27 1369.12,4 -4,4"/>
<!-- Pellet Right -->
<g id="node1" class="node">
<title>Pellet Right</title>
<polygon fill="lightblue" stroke="black" points="323.62,-159.8 266.38,-159.8 266.38,-141.3 323.62,-141.3 323.62,-159.8"/>
<text text-anchor="middle" x="295" y="-147.25" font-family="Times,serif" font-size="9.00">Pellet Right</text>
</g>
<!-- Move Up -->
<g id="node20" class="node">
<title>Move Up</title>
<ellipse fill="lightblue" stroke="black" cx="501" cy="-43.66" rx="35.71" ry="35.71"/>
<text text-anchor="middle" x="501" y="-40.36" font-family="Times,serif" font-size="9.00">Move Up</text>
</g>
<!-- Pellet Right&#45;&gt;Move Up -->
<g id="edge15" class="edge">
<title>Pellet Right&#45;&gt;Move Up</title>
<path fill="none" stroke="red" stroke-width="0.57" d="M306.32,-141C313.71,-135.61 323.68,-128.67 333,-123.33 374.19,-99.69 423.66,-77.19 458.21,-62.35"/>
<polygon fill="red" stroke="red" stroke-width="0.57" points="459.36,-65.67 467.19,-58.53 456.62,-59.23 459.36,-65.67"/>
</g>
<!-- Move Down -->
<g id="node21" class="node">
<title>Move Down</title>
<ellipse fill="lightblue" stroke="black" cx="211" cy="-43.66" rx="43.66" ry="43.66"/>
<text text-anchor="middle" x="211" y="-40.36" font-family="Times,serif" font-size="9.00">Move Down</text>
</g>
<!-- Pellet Right&#45;&gt;Move Down -->
<g id="edge1" class="edge">
<title>Pellet Right&#45;&gt;Move Down</title>
<path fill="none" stroke="green" stroke-width="0.25" stroke-dasharray="1,5" d="M288.13,-140.97C278.51,-128.96 260.39,-106.34 244.13,-86.03"/>
<polygon fill="green" stroke="green" stroke-width="0.25" points="247,-84.01 238.01,-78.39 241.53,-88.39 247,-84.01"/>
</g>
<!-- Pellet Left -->
<g id="node2" class="node">
<title>Pellet Left</title>
<polygon fill="lightblue" stroke="black" points="52,-159.8 0,-159.8 0,-141.3 52,-141.3 52,-159.8"/>
<text text-anchor="middle" x="26" y="-147.25" font-family="Times,serif" font-size="9.00">Pellet Left</text>
</g>
<!-- Pellet Left&#45;&gt;Move Down -->
<g id="edge13" class="edge">
<title>Pellet Left&#45;&gt;Move Down</title>
<path fill="none" stroke="red" stroke-width="0.22" stroke-dasharray="1,5" d="M36.71,-140.82C43.48,-135.48 52.52,-128.68 61,-123.33 93.79,-102.63 132.6,-82.39 162.52,-67.62"/>
<polygon fill="red" stroke="red" stroke-width="0.22" points="163.77,-70.9 171.21,-63.36 160.69,-64.62 163.77,-70.9"/>
</g>
<!-- Pellet Up -->
<g id="node3" class="node">
<title>Pellet Up</title>
<polygon fill="lightblue" stroke="black" points="1216.5,-232.27 1167.5,-232.27 1167.5,-213.77 1216.5,-213.77 1216.5,-232.27"/>
<text text-anchor="middle" x="1192" y="-219.72" font-family="Times,serif" font-size="9.00">Pellet Up</text>
</g>
<!-- Pellet Down -->
<g id="node4" class="node">
<title>Pellet Down</title>
<polygon fill="lightblue" stroke="black" points="402.12,-159.8 341.88,-159.8 341.88,-141.3 402.12,-141.3 402.12,-159.8"/>
<text text-anchor="middle" x="372" y="-147.25" font-family="Times,serif" font-size="9.00">Pellet Down</text>
</g>
<!-- Pellet Down&#45;&gt;Move Up -->
<g id="edge16" class="edge">
<title>Pellet Down&#45;&gt;Move Up</title>
<path fill="none" stroke="green" stroke-width="0.21" stroke-dasharray="1,5" d="M382.56,-140.97C400.47,-126.41 437.58,-96.23 465.51,-73.52"/>
<polygon fill="green" stroke="green" stroke-width="0.21" points="467.69,-76.26 473.24,-67.23 463.28,-70.83 467.69,-76.26"/>
</g>
<!-- Power Pellet Right -->
<g id="node5" class="node">
<title>Power Pellet Right</title>
<polygon fill="lightblue" stroke="black" points="589.38,-159.8 506.62,-159.8 506.62,-141.3 589.38,-141.3 589.38,-159.8"/>
<text text-anchor="middle" x="548" y="-147.25" font-family="Times,serif" font-size="9.00">Power Pellet Right</text>
</g>
<!-- Power Pellet Right&#45;&gt;Move Up -->
<g id="edge2" class="edge">
<title>Power Pellet Right&#45;&gt;Move Up</title>
<path fill="none" stroke="red" stroke-width="0.23" d="M544.15,-140.97C538.78,-128.97 528.66,-106.38 519.57,-86.1"/>
<polygon fill="red" stroke="red" stroke-width="0.23" points="522.77,-84.69 515.49,-77 516.38,-87.56 522.77,-84.69"/>
</g>
<!-- Power Pellet Left -->
<g id="node6" class="node">
<title>Power Pellet Left</title>
<polygon fill="lightblue" stroke="black" points="956.75,-159.8 879.25,-159.8 879.25,-141.3 956.75,-141.3 956.75,-159.8"/>
<text text-anchor="middle" x="918" y="-147.25" font-family="Times,serif" font-size="9.00">Power Pellet Left</text>
</g>
<!-- Move Right -->
<g id="node18" class="node">
<title>Move Right</title>
<ellipse fill="lightblue" stroke="black" cx="1015" cy="-43.66" rx="41.54" ry="41.54"/>
<text text-anchor="middle" x="1015" y="-40.36" font-family="Times,serif" font-size="9.00">Move Right</text>
</g>
<!-- Power Pellet Left&#45;&gt;Move Right -->
<g id="edge25" class="edge">
<title>Power Pellet Left&#45;&gt;Move Right</title>
<path fill="none" stroke="green" stroke-width="0.27" d="M925.94,-140.97C937.7,-128.24 960.5,-103.6 980.08,-82.43"/>
<polygon fill="green" stroke="green" stroke-width="0.27" points="982.62,-84.83 986.84,-75.12 977.48,-80.08 982.62,-84.83"/>
</g>
<!-- Power Pellet Up -->
<g id="node7" class="node">
<title>Power Pellet Up</title>
<polygon fill="lightblue" stroke="black" points="682.25,-159.8 607.75,-159.8 607.75,-141.3 682.25,-141.3 682.25,-159.8"/>
<text text-anchor="middle" x="645" y="-147.25" font-family="Times,serif" font-size="9.00">Power Pellet Up</text>
</g>
<!-- Power Pellet Up&#45;&gt;Move Right -->
<g id="edge22" class="edge">
<title>Power Pellet Up&#45;&gt;Move Right</title>
<path fill="none" stroke="green" stroke-width="0.17" d="M658.1,-140.97C667.28,-135.29 680,-128.04 692,-123.33 784.56,-87.01 898.83,-63.95 963.66,-52.75"/>
<polygon fill="green" stroke="green" stroke-width="0.17" points="964.11,-56.22 973.39,-51.09 962.94,-49.32 964.11,-56.22"/>
</g>
<!-- Power Pellet Up&#45;&gt;Move Up -->
<g id="edge17" class="edge">
<title>Power Pellet Up&#45;&gt;Move Up</title>
<path fill="none" stroke="red" stroke-width="0.48" d="M633.22,-140.97C612.71,-126.03 569.65,-94.67 538.22,-71.78"/>
<polygon fill="red" stroke="red" stroke-width="0.48" points="540.43,-69.05 530.28,-65.99 536.31,-74.71 540.43,-69.05"/>
</g>
<!-- Power Pellet Down -->
<g id="node8" class="node">
<title>Power Pellet Down</title>
<polygon fill="lightblue" stroke="black" points="155.88,-159.8 70.12,-159.8 70.12,-141.3 155.88,-141.3 155.88,-159.8"/>
<text text-anchor="middle" x="113" y="-147.25" font-family="Times,serif" font-size="9.00">Power Pellet Down</text>
</g>
<!-- Power Pellet Down&#45;&gt;Move Down -->
<g id="edge14" class="edge">
<title>Power Pellet Down&#45;&gt;Move Down</title>
<path fill="none" stroke="red" stroke-width="0.83" stroke-dasharray="1,5" d="M121.02,-140.97C132.56,-128.61 154.6,-105.03 173.98,-84.29"/>
<polygon fill="red" stroke="red" stroke-width="0.83" points="176.39,-86.83 180.66,-77.13 171.28,-82.05 176.39,-86.83"/>
</g>
<!-- Ghost Info Right -->
<g id="node9" class="node">
<title>Ghost Info Right</title>
<polygon fill="lightblue" stroke="black" points="1311.38,-232.27 1234.62,-232.27 1234.62,-213.77 1311.38,-213.77 1311.38,-232.27"/>
<text text-anchor="middle" x="1273" y="-219.72" font-family="Times,serif" font-size="9.00">Ghost Info Right</text>
</g>
<!-- Ghost Info Left -->
<g id="node10" class="node">
<title>Ghost Info Left</title>
<polygon fill="lightblue" stroke="black" points="860.75,-159.8 789.25,-159.8 789.25,-141.3 860.75,-141.3 860.75,-159.8"/>
<text text-anchor="middle" x="825" y="-147.25" font-family="Times,serif" font-size="9.00">Ghost Info Left</text>
</g>
<!-- Move Left -->
<g id="node19" class="node">
<title>Move Left</title>
<ellipse fill="lightblue" stroke="black" cx="1166" cy="-43.66" rx="37.83" ry="37.83"/>
<text text-anchor="middle" x="1166" y="-40.36" font-family="Times,serif" font-size="9.00">Move Left</text>
</g>
<!-- Ghost Info Left&#45;&gt;Move Left -->
<g id="edge19" class="edge">
<title>Ghost Info Left&#45;&gt;Move Left</title>
<path fill="none" stroke="red" stroke-width="0.27" stroke-dasharray="1,5" d="M837.03,-140.99C845.78,-135.15 858.13,-127.72 870,-123.33 953.06,-92.57 981.19,-112.86 1066,-87.33 1085.21,-81.54 1105.72,-73.2 1123.12,-65.43"/>
<polygon fill="red" stroke="red" stroke-width="0.27" points="1124.42,-68.68 1132.08,-61.36 1121.53,-62.31 1124.42,-68.68"/>
</g>
<!-- Ghost Info Left&#45;&gt;Move Up -->
<g id="edge3" class="edge">
<title>Ghost Info Left&#45;&gt;Move Up</title>
<path fill="none" stroke="green" stroke-width="0.18" d="M812.07,-140.83C803.31,-135.23 791.32,-128.13 780,-123.33 700.62,-89.65 602.52,-65.82 546.32,-53.73"/>
<polygon fill="green" stroke="green" stroke-width="0.18" points="547.09,-50.32 536.59,-51.67 545.64,-57.17 547.09,-50.32"/>
</g>
<!-- Ghost Info Up -->
<g id="node11" class="node">
<title>Ghost Info Up</title>
<polygon fill="lightblue" stroke="black" points="488.25,-159.8 419.75,-159.8 419.75,-141.3 488.25,-141.3 488.25,-159.8"/>
<text text-anchor="middle" x="454" y="-147.25" font-family="Times,serif" font-size="9.00">Ghost Info Up</text>
</g>
<!-- Ghost Info Up&#45;&gt;Move Right -->
<g id="edge4" class="edge">
<title>Ghost Info Up&#45;&gt;Move Right</title>
<path fill="none" stroke="red" stroke-width="0.25" stroke-dasharray="1,5" d="M465.7,-140.87C474.22,-134.98 486.28,-127.53 498,-123.33 660.9,-64.93 867.83,-49.88 962.92,-46.01"/>
<polygon fill="red" stroke="red" stroke-width="0.25" points="962.89,-49.51 972.75,-45.63 962.62,-42.52 962.89,-49.51"/>
</g>
<!-- Ghost Info Up&#45;&gt;Move Up -->
<g id="edge5" class="edge">
<title>Ghost Info Up&#45;&gt;Move Up</title>
<path fill="none" stroke="green" stroke-width="0.36" d="M457.85,-140.97C463.22,-128.97 473.34,-106.38 482.43,-86.1"/>
<polygon fill="green" stroke="green" stroke-width="0.36" points="485.54,-87.73 486.43,-77.17 479.15,-84.87 485.54,-87.73"/>
</g>
<!-- Ghost Info Up&#45;&gt;Move Down -->
<g id="edge21" class="edge">
<title>Ghost Info Up&#45;&gt;Move Down</title>
<path fill="none" stroke="green" stroke-width="0.8" stroke-dasharray="1,5" d="M441.16,-140.91C432.78,-135.48 421.49,-128.54 411,-123.33 362.23,-99.09 304.06,-76.92 263.06,-62.34"/>
<polygon fill="green" stroke="green" stroke-width="0.8" points="264.23,-59.04 253.64,-59.02 261.91,-65.64 264.23,-59.04"/>
</g>
<!-- Ghost Info Down -->
<g id="node12" class="node">
<title>Ghost Info Down</title>
<polygon fill="lightblue" stroke="black" points="1054.88,-159.8 975.12,-159.8 975.12,-141.3 1054.88,-141.3 1054.88,-159.8"/>
<text text-anchor="middle" x="1015" y="-147.25" font-family="Times,serif" font-size="9.00">Ghost Info Down</text>
</g>
<!-- Ghost Info Down&#45;&gt;Move Right -->
<g id="edge18" class="edge">
<title>Ghost Info Down&#45;&gt;Move Right</title>
<path fill="none" stroke="red" stroke-width="0.21" d="M1015,-140.97C1015,-130.82 1015,-113.11 1015,-95.61"/>
<polygon fill="red" stroke="red" stroke-width="0.21" points="1018.5,-95.71 1015,-85.71 1011.5,-95.71 1018.5,-95.71"/>
</g>
<!-- PAC&#45;MAN Right -->
<g id="node13" class="node">
<title>PAC&#45;MAN Right</title>
<polygon fill="lightblue" stroke="black" points="1149.5,-232.27 1070.5,-232.27 1070.5,-213.77 1149.5,-213.77 1149.5,-232.27"/>
<text text-anchor="middle" x="1110" y="-219.72" font-family="Times,serif" font-size="9.00">PAC&#45;MAN Right</text>
</g>
<!-- PAC&#45;MAN Right&#45;&gt;Move Right -->
<g id="edge6" class="edge">
<title>PAC&#45;MAN Right&#45;&gt;Move Right</title>
<path fill="none" stroke="green" stroke-width="0.59" stroke-dasharray="1,5" d="M1106.4,-213.4C1099.06,-196.04 1081.56,-155.74 1064,-123.33 1057.71,-111.72 1050.42,-99.48 1043.42,-88.2"/>
<polygon fill="green" stroke="green" stroke-width="0.59" points="1046.39,-86.35 1038.11,-79.74 1040.46,-90.07 1046.39,-86.35"/>
</g>
<!-- 19054 -->
<g id="node22" class="node">
<title>19054</title>
<ellipse fill="white" stroke="black" cx="1138" cy="-150.55" rx="27.22" ry="27.22"/>
<text text-anchor="middle" x="1138" y="-147.25" font-family="Times,serif" font-size="9.00">19054</text>
</g>
<!-- PAC&#45;MAN Right&#45;&gt;19054 -->
<g id="edge23" class="edge">
<title>PAC&#45;MAN Right&#45;&gt;19054</title>
<path fill="none" stroke="green" stroke-width="0.3" d="M1113.43,-213.38C1116.2,-206.42 1120.28,-196.14 1124.33,-185.96"/>
<polygon fill="green" stroke="green" stroke-width="0.3" points="1127.55,-187.34 1127.99,-176.76 1121.04,-184.76 1127.55,-187.34"/>
</g>
<!-- PAC&#45;MAN Left -->
<g id="node14" class="node">
<title>PAC&#45;MAN Left</title>
<polygon fill="lightblue" stroke="black" points="1256.88,-159.8 1183.12,-159.8 1183.12,-141.3 1256.88,-141.3 1256.88,-159.8"/>
<text text-anchor="middle" x="1220" y="-147.25" font-family="Times,serif" font-size="9.00">PAC&#45;MAN Left</text>
</g>
<!-- PAC&#45;MAN Left&#45;&gt;Move Right -->
<g id="edge7" class="edge">
<title>PAC&#45;MAN Left&#45;&gt;Move Right</title>
<path fill="none" stroke="red" stroke-width="0.64" stroke-dasharray="1,5" d="M1205.21,-140.82C1196.25,-135.61 1184.55,-128.94 1174,-123.33 1136.79,-103.54 1093.93,-82.43 1062.09,-67.06"/>
<polygon fill="red" stroke="red" stroke-width="0.64" points="1063.98,-64.09 1053.45,-62.91 1060.94,-70.4 1063.98,-64.09"/>
</g>
<!-- PAC&#45;MAN Left&#45;&gt;Move Left -->
<g id="edge8" class="edge">
<title>PAC&#45;MAN Left&#45;&gt;Move Left</title>
<path fill="none" stroke="red" stroke-width="0.21" d="M1215.58,-140.97C1209.46,-129.09 1198,-106.82 1187.63,-86.68"/>
<polygon fill="red" stroke="red" stroke-width="0.21" points="1190.8,-85.19 1183.11,-77.9 1184.58,-88.4 1190.8,-85.19"/>
</g>
<!-- PAC&#45;MAN Up -->
<g id="node15" class="node">
<title>PAC&#45;MAN Up</title>
<polygon fill="lightblue" stroke="black" points="771.38,-159.8 700.62,-159.8 700.62,-141.3 771.38,-141.3 771.38,-159.8"/>
<text text-anchor="middle" x="736" y="-147.25" font-family="Times,serif" font-size="9.00">PAC&#45;MAN Up</text>
</g>
<!-- PAC&#45;MAN Up&#45;&gt;Move Left -->
<g id="edge9" class="edge">
<title>PAC&#45;MAN Up&#45;&gt;Move Left</title>
<path fill="none" stroke="red" stroke-width="0.23" stroke-dasharray="1,5" d="M747.3,-141.03C755.83,-135.05 768.06,-127.44 780,-123.33 901.15,-81.65 942.33,-120.79 1066,-87.33 1085.37,-82.09 1105.9,-73.84 1123.28,-65.99"/>
<polygon fill="red" stroke="red" stroke-width="0.23" points="1124.67,-69.21 1132.28,-61.84 1121.73,-62.85 1124.67,-69.21"/>
</g>
<!-- PAC&#45;MAN Up&#45;&gt;Move Up -->
<g id="edge10" class="edge">
<title>PAC&#45;MAN Up&#45;&gt;Move Up</title>
<path fill="none" stroke="green" stroke-width="0.21" stroke-dasharray="1,5" d="M722.48,-141.03C713.68,-135.64 701.86,-128.71 691,-123.33 641.75,-98.92 583.02,-75.42 544.03,-60.56"/>
<polygon fill="green" stroke="green" stroke-width="0.21" points="545.44,-57.36 534.85,-57.09 542.96,-63.9 545.44,-57.36"/>
</g>
<!-- PACM&#45;MAN Down -->
<g id="node16" class="node">
<title>PACM&#45;MAN Down</title>
<polygon fill="lightblue" stroke="black" points="1365.12,-159.8 1274.88,-159.8 1274.88,-141.3 1365.12,-141.3 1365.12,-159.8"/>
<text text-anchor="middle" x="1320" y="-147.25" font-family="Times,serif" font-size="9.00">PACM&#45;MAN Down</text>
</g>
<!-- PACM&#45;MAN Down&#45;&gt;Move Left -->
<g id="edge11" class="edge">
<title>PACM&#45;MAN Down&#45;&gt;Move Left</title>
<path fill="none" stroke="green" stroke-width="0.18" stroke-dasharray="1,5" d="M1307.4,-140.97C1285.35,-125.95 1238.91,-94.32 1205.25,-71.4"/>
<polygon fill="green" stroke="green" stroke-width="0.18" points="1207.46,-68.67 1197.22,-65.93 1203.52,-74.45 1207.46,-68.67"/>
</g>
<!-- Power&#45;Up Time -->
<g id="node17" class="node">
<title>Power&#45;Up Time</title>
<polygon fill="lightblue" stroke="black" points="247.88,-159.8 174.12,-159.8 174.12,-141.3 247.88,-141.3 247.88,-159.8"/>
<text text-anchor="middle" x="211" y="-147.25" font-family="Times,serif" font-size="9.00">Power&#45;Up Time</text>
</g>
<!-- Power&#45;Up Time&#45;&gt;Move Up -->
<g id="edge20" class="edge">
<title>Power&#45;Up Time&#45;&gt;Move Up</title>
<path fill="none" stroke="green" stroke-width="0.21" d="M224.31,-140.99C233.29,-135.45 245.56,-128.37 257,-123.33 324.45,-93.61 406.73,-69.43 456.43,-56.05"/>
<polygon fill="green" stroke="green" stroke-width="0.21" points="457.16,-59.48 465.92,-53.52 455.36,-52.71 457.16,-59.48"/>
</g>
<!-- Power&#45;Up Time&#45;&gt;Move Down -->
<g id="edge12" class="edge">
<title>Power&#45;Up Time&#45;&gt;Move Down</title>
<path fill="none" stroke="red" stroke-width="0.33" d="M211,-140.97C211,-131.24 211,-114.56 211,-97.78"/>
<polygon fill="red" stroke="red" stroke-width="0.33" points="214.5,-97.87 211,-87.87 207.5,-97.87 214.5,-97.87"/>
</g>
<!-- 19054&#45;&gt;Move Right -->
<g id="edge24" class="edge">
<title>19054&#45;&gt;Move Right</title>
<path fill="none" stroke="green" stroke-width="0.65" d="M1117.41,-132C1100.27,-117.37 1075.35,-96.13 1054.39,-78.26"/>
<polygon fill="green" stroke="green" stroke-width="0.65" points="1056.91,-75.8 1047.03,-71.98 1052.37,-81.13 1056.91,-75.8"/>
</g>
</g>
</svg>
