<?xml version="1.0" encoding="UTF-8" standalone="no"?>
<!DOCTYPE svg PUBLIC "-//W3C//DTD SVG 1.1//EN"
 "http://www.w3.org/Graphics/SVG/1.1/DTD/svg11.dtd">
<!-- Generated by graphviz version 12.0.0 (20240704.0754)
 -->
<!-- Pages: 1 -->
<svg width="1448pt" height="359pt"
 viewBox="0.00 0.00 1448.25 359.36" xmlns="http://www.w3.org/2000/svg" xmlns:xlink="http://www.w3.org/1999/xlink">
<g id="graph0" class="graph" transform="scale(1 1) rotate(0) translate(4 355.36)">
<polygon fill="white" stroke="none" points="-4,4 -4,-355.36 1444.25,-355.36 1444.25,4 -4,4"/>
<!-- Pellet Right -->
<g id="node1" class="node">
<title>Pellet Right</title>
<polygon fill="lightblue" stroke="black" points="305.5,-159.8 248.25,-159.8 248.25,-141.3 305.5,-141.3 305.5,-159.8"/>
<text text-anchor="middle" x="276.88" y="-147.25" font-family="Times,serif" font-size="9.00">Pellet Right</text>
</g>
<!-- Move Up -->
<g id="node20" class="node">
<title>Move Up</title>
<ellipse fill="lightblue" stroke="black" cx="150.88" cy="-43.66" rx="35.71" ry="35.71"/>
<text text-anchor="middle" x="150.88" y="-40.36" font-family="Times,serif" font-size="9.00">Move Up</text>
</g>
<!-- Pellet Right&#45;&gt;Move Up -->
<g id="edge1" class="edge">
<title>Pellet Right&#45;&gt;Move Up</title>
<path fill="none" stroke="red" stroke-width="0.2" stroke-dasharray="1,5" d="M266.56,-140.97C249.12,-126.45 213.05,-96.42 185.79,-73.73"/>
<polygon fill="red" stroke="red" stroke-width="0.2" points="188.15,-71.14 178.23,-67.43 183.67,-76.52 188.15,-71.14"/>
</g>
<!-- Move Down -->
<g id="node21" class="node">
<title>Move Down</title>
<ellipse fill="lightblue" stroke="black" cx="276.88" cy="-43.66" rx="43.66" ry="43.66"/>
<text text-anchor="middle" x="276.88" y="-40.36" font-family="Times,serif" font-size="9.00">Move Down</text>
</g>
<!-- Pellet Right&#45;&gt;Move Down -->
<g id="edge4" class="edge">
<title>Pellet Right&#45;&gt;Move Down</title>
<path fill="none" stroke="green" stroke-width="0.25" d="M276.88,-140.97C276.88,-131.15 276.88,-114.24 276.88,-97.3"/>
<polygon fill="green" stroke="green" stroke-width="0.25" points="280.38,-97.76 276.88,-87.76 273.38,-97.76 280.38,-97.76"/>
</g>
<!-- Pellet Left -->
<g id="node2" class="node">
<title>Pellet Left</title>
<polygon fill="lightblue" stroke="black" points="696.88,-351.36 644.88,-351.36 644.88,-332.86 696.88,-332.86 696.88,-351.36"/>
<text text-anchor="middle" x="670.88" y="-338.81" font-family="Times,serif" font-size="9.00">Pellet Left</text>
</g>
<!-- Pellet Up -->
<g id="node3" class="node">
<title>Pellet Up</title>
<polygon fill="lightblue" stroke="black" points="440.38,-351.36 391.38,-351.36 391.38,-332.86 440.38,-332.86 440.38,-351.36"/>
<text text-anchor="middle" x="415.88" y="-338.81" font-family="Times,serif" font-size="9.00">Pellet Up</text>
</g>
<!-- 23378 -->
<g id="node22" class="node">
<title>23378</title>
<ellipse fill="white" stroke="black" cx="496.88" cy="-255.32" rx="27.22" ry="27.22"/>
<text text-anchor="middle" x="496.88" y="-252.02" font-family="Times,serif" font-size="9.00">23378</text>
</g>
<!-- Pellet Up&#45;&gt;23378 -->
<g id="edge7" class="edge">
<title>Pellet Up&#45;&gt;23378</title>
<path fill="none" stroke="red" stroke-width="0.32" d="M423.94,-332.67C434.9,-321.19 455.02,-300.13 471.36,-283.03"/>
<polygon fill="red" stroke="red" stroke-width="0.32" points="473.84,-285.5 478.21,-275.85 468.78,-280.66 473.84,-285.5"/>
</g>
<!-- Pellet Down -->
<g id="node4" class="node">
<title>Pellet Down</title>
<polygon fill="lightblue" stroke="black" points="775,-351.36 714.75,-351.36 714.75,-332.86 775,-332.86 775,-351.36"/>
<text text-anchor="middle" x="744.88" y="-338.81" font-family="Times,serif" font-size="9.00">Pellet Down</text>
</g>
<!-- Power Pellet Right -->
<g id="node5" class="node">
<title>Power Pellet Right</title>
<polygon fill="lightblue" stroke="black" points="192.25,-159.8 109.5,-159.8 109.5,-141.3 192.25,-141.3 192.25,-159.8"/>
<text text-anchor="middle" x="150.88" y="-147.25" font-family="Times,serif" font-size="9.00">Power Pellet Right</text>
</g>
<!-- Power Pellet Right&#45;&gt;Move Up -->
<g id="edge14" class="edge">
<title>Power Pellet Right&#45;&gt;Move Up</title>
<path fill="none" stroke="green" stroke-width="0.19" d="M150.88,-140.97C150.88,-129.69 150.88,-109.04 150.88,-89.74"/>
<polygon fill="green" stroke="green" stroke-width="0.19" points="154.38,-89.82 150.88,-79.82 147.38,-89.82 154.38,-89.82"/>
</g>
<!-- Power Pellet Left -->
<g id="node6" class="node">
<title>Power Pellet Left</title>
<polygon fill="lightblue" stroke="black" points="870.62,-351.36 793.12,-351.36 793.12,-332.86 870.62,-332.86 870.62,-351.36"/>
<text text-anchor="middle" x="831.88" y="-338.81" font-family="Times,serif" font-size="9.00">Power Pellet Left</text>
</g>
<!-- Power Pellet Up -->
<g id="node7" class="node">
<title>Power Pellet Up</title>
<polygon fill="lightblue" stroke="black" points="963.12,-351.36 888.62,-351.36 888.62,-332.86 963.12,-332.86 963.12,-351.36"/>
<text text-anchor="middle" x="925.88" y="-338.81" font-family="Times,serif" font-size="9.00">Power Pellet Up</text>
</g>
<!-- Power Pellet Down -->
<g id="node8" class="node">
<title>Power Pellet Down</title>
<polygon fill="lightblue" stroke="black" points="1066.75,-351.36 981,-351.36 981,-332.86 1066.75,-332.86 1066.75,-351.36"/>
<text text-anchor="middle" x="1023.88" y="-338.81" font-family="Times,serif" font-size="9.00">Power Pellet Down</text>
</g>
<!-- Move Right -->
<g id="node18" class="node">
<title>Move Right</title>
<ellipse fill="lightblue" stroke="black" cx="1023.88" cy="-255.32" rx="41.54" ry="41.54"/>
<text text-anchor="middle" x="1023.88" y="-252.02" font-family="Times,serif" font-size="9.00">Move Right</text>
</g>
<!-- Power Pellet Down&#45;&gt;Move Right -->
<g id="edge2" class="edge">
<title>Power Pellet Down&#45;&gt;Move Right</title>
<path fill="none" stroke="green" stroke-width="0.15" d="M1023.88,-332.67C1023.88,-326.32 1023.88,-317.05 1023.88,-307.13"/>
<polygon fill="green" stroke="green" stroke-width="0.15" points="1027.38,-307.31 1023.88,-297.31 1020.38,-307.31 1027.38,-307.31"/>
</g>
<!-- Ghost Info Right -->
<g id="node9" class="node">
<title>Ghost Info Right</title>
<polygon fill="lightblue" stroke="black" points="535.25,-351.36 458.5,-351.36 458.5,-332.86 535.25,-332.86 535.25,-351.36"/>
<text text-anchor="middle" x="496.88" y="-338.81" font-family="Times,serif" font-size="9.00">Ghost Info Right</text>
</g>
<!-- Ghost Info Right&#45;&gt;23378 -->
<g id="edge18" class="edge">
<title>Ghost Info Right&#45;&gt;23378</title>
<path fill="none" stroke="red" stroke-width="0.52" d="M496.88,-332.67C496.88,-323.43 496.88,-307.99 496.88,-293.4"/>
<polygon fill="red" stroke="red" stroke-width="0.52" points="500.38,-293.82 496.88,-283.82 493.38,-293.82 500.38,-293.82"/>
</g>
<!-- Ghost Info Left -->
<g id="node10" class="node">
<title>Ghost Info Left</title>
<polygon fill="lightblue" stroke="black" points="1156.62,-351.36 1085.12,-351.36 1085.12,-332.86 1156.62,-332.86 1156.62,-351.36"/>
<text text-anchor="middle" x="1120.88" y="-338.81" font-family="Times,serif" font-size="9.00">Ghost Info Left</text>
</g>
<!-- Ghost Info Up -->
<g id="node11" class="node">
<title>Ghost Info Up</title>
<polygon fill="lightblue" stroke="black" points="368.12,-264.57 299.62,-264.57 299.62,-246.07 368.12,-246.07 368.12,-264.57"/>
<text text-anchor="middle" x="333.88" y="-252.02" font-family="Times,serif" font-size="9.00">Ghost Info Up</text>
</g>
<!-- Move Left -->
<g id="node19" class="node">
<title>Move Left</title>
<ellipse fill="lightblue" stroke="black" cx="451.88" cy="-43.66" rx="37.83" ry="37.83"/>
<text text-anchor="middle" x="451.88" y="-40.36" font-family="Times,serif" font-size="9.00">Move Left</text>
</g>
<!-- Ghost Info Up&#45;&gt;Move Left -->
<g id="edge8" class="edge">
<title>Ghost Info Up&#45;&gt;Move Left</title>
<path fill="none" stroke="green" stroke-width="0.17" stroke-dasharray="1,5" d="M333.04,-245.66C331.34,-223.6 329.4,-164.17 352.88,-123.33 366.28,-100.01 389.52,-81 410.12,-67.51"/>
<polygon fill="green" stroke="green" stroke-width="0.17" points="411.93,-70.5 418.53,-62.21 408.2,-64.58 411.93,-70.5"/>
</g>
<!-- 25142 -->
<g id="node23" class="node">
<title>25142</title>
<ellipse fill="white" stroke="black" cx="496.88" cy="-150.55" rx="27.22" ry="27.22"/>
<text text-anchor="middle" x="496.88" y="-147.25" font-family="Times,serif" font-size="9.00">25142</text>
</g>
<!-- Ghost Info Up&#45;&gt;25142 -->
<g id="edge13" class="edge">
<title>Ghost Info Up&#45;&gt;25142</title>
<path fill="none" stroke="green" stroke-width="0.47" d="M349,-245.78C373.07,-232.05 421.41,-203.97 460.88,-177.77 462.81,-176.49 464.79,-175.14 466.77,-173.77"/>
<polygon fill="green" stroke="green" stroke-width="0.47" points="468.67,-176.71 474.81,-168.08 464.63,-171 468.67,-176.71"/>
</g>
<!-- 25884 -->
<g id="node24" class="node">
<title>25884</title>
<ellipse fill="white" stroke="black" cx="63.88" cy="-150.55" rx="27.22" ry="27.22"/>
<text text-anchor="middle" x="63.88" y="-147.25" font-family="Times,serif" font-size="9.00">25884</text>
</g>
<!-- Ghost Info Up&#45;&gt;25884 -->
<g id="edge17" class="edge">
<title>Ghost Info Up&#45;&gt;25884</title>
<path fill="none" stroke="green" stroke-width="0.29" d="M299.44,-246.45C252.83,-235.04 167.79,-211.51 100.88,-177.77 98.54,-176.6 96.18,-175.28 93.86,-173.89"/>
<polygon fill="green" stroke="green" stroke-width="0.29" points="95.76,-170.95 85.47,-168.45 91.96,-176.83 95.76,-170.95"/>
</g>
<!-- Ghost Info Down -->
<g id="node12" class="node">
<title>Ghost Info Down</title>
<polygon fill="lightblue" stroke="black" points="1254.75,-351.36 1175,-351.36 1175,-332.86 1254.75,-332.86 1254.75,-351.36"/>
<text text-anchor="middle" x="1214.88" y="-338.81" font-family="Times,serif" font-size="9.00">Ghost Info Down</text>
</g>
<!-- PAC&#45;MAN Right -->
<g id="node13" class="node">
<title>PAC&#45;MAN Right</title>
<polygon fill="lightblue" stroke="black" points="1351.38,-351.36 1272.38,-351.36 1272.38,-332.86 1351.38,-332.86 1351.38,-351.36"/>
<text text-anchor="middle" x="1311.88" y="-338.81" font-family="Times,serif" font-size="9.00">PAC&#45;MAN Right</text>
</g>
<!-- PAC&#45;MAN Left -->
<g id="node14" class="node">
<title>PAC&#45;MAN Left</title>
<polygon fill="lightblue" stroke="black" points="73.75,-264.57 0,-264.57 0,-246.07 73.75,-246.07 73.75,-264.57"/>
<text text-anchor="middle" x="36.88" y="-252.02" font-family="Times,serif" font-size="9.00">PAC&#45;MAN Left</text>
</g>
<!-- PAC&#45;MAN Left&#45;&gt;Move Up -->
<g id="edge9" class="edge">
<title>PAC&#45;MAN Left&#45;&gt;Move Up</title>
<path fill="none" stroke="red" stroke-width="0.47" d="M33.27,-245.67C24.71,-223.66 5.43,-164.32 27.88,-123.33 44.7,-92.6 79.21,-72.12 107.4,-59.78"/>
<polygon fill="red" stroke="red" stroke-width="0.47" points="108.53,-63.11 116.41,-56.03 105.84,-56.64 108.53,-63.11"/>
</g>
<!-- PAC&#45;MAN Left&#45;&gt;25884 -->
<g id="edge15" class="edge">
<title>PAC&#45;MAN Left&#45;&gt;25884</title>
<path fill="none" stroke="red" stroke-width="0.45" d="M39.08,-245.91C42.42,-233.2 48.96,-208.34 54.48,-187.33"/>
<polygon fill="red" stroke="red" stroke-width="0.45" points="57.84,-188.31 56.99,-177.75 51.07,-186.53 57.84,-188.31"/>
</g>
<!-- PAC&#45;MAN Up -->
<g id="node15" class="node">
<title>PAC&#45;MAN Up</title>
<polygon fill="lightblue" stroke="black" points="1440.25,-351.36 1369.5,-351.36 1369.5,-332.86 1440.25,-332.86 1440.25,-351.36"/>
<text text-anchor="middle" x="1404.88" y="-338.81" font-family="Times,serif" font-size="9.00">PAC&#45;MAN Up</text>
</g>
<!-- PACM&#45;MAN Down -->
<g id="node16" class="node">
<title>PACM&#45;MAN Down</title>
<polygon fill="lightblue" stroke="black" points="452,-159.8 361.75,-159.8 361.75,-141.3 452,-141.3 452,-159.8"/>
<text text-anchor="middle" x="406.88" y="-147.25" font-family="Times,serif" font-size="9.00">PACM&#45;MAN Down</text>
</g>
<!-- PACM&#45;MAN Down&#45;&gt;Move Left -->
<g id="edge3" class="edge">
<title>PACM&#45;MAN Down&#45;&gt;Move Left</title>
<path fill="none" stroke="green" stroke-width="0.5" d="M410.56,-140.97C415.51,-129.42 424.69,-108.04 433.13,-88.35"/>
<polygon fill="green" stroke="green" stroke-width="0.5" points="436.3,-89.84 437.03,-79.27 429.87,-87.08 436.3,-89.84"/>
</g>
<!-- Power&#45;Up Time -->
<g id="node17" class="node">
<title>Power&#45;Up Time</title>
<polygon fill="lightblue" stroke="black" points="626.75,-351.36 553,-351.36 553,-332.86 626.75,-332.86 626.75,-351.36"/>
<text text-anchor="middle" x="589.88" y="-338.81" font-family="Times,serif" font-size="9.00">Power&#45;Up Time</text>
</g>
<!-- Power&#45;Up Time&#45;&gt;23378 -->
<g id="edge5" class="edge">
<title>Power&#45;Up Time&#45;&gt;23378</title>
<path fill="none" stroke="red" stroke-width="0.15" stroke-dasharray="1,5" d="M580.62,-332.67C567.62,-320.81 543.4,-298.74 524.34,-281.36"/>
<polygon fill="red" stroke="red" stroke-width="0.15" points="526.72,-278.79 516.97,-274.64 522,-283.96 526.72,-278.79"/>
</g>
<!-- 23378&#45;&gt;Move Left -->
<g id="edge10" class="edge">
<title>23378&#45;&gt;Move Left</title>
<path fill="none" stroke="red" stroke-width="0.44" stroke-dasharray="1,5" d="M511.62,-232.4C527.49,-205.9 548.49,-160.26 532.88,-123.33 524.29,-103.03 507.63,-85.39 491.64,-71.99"/>
<polygon fill="red" stroke="red" stroke-width="0.44" points="493.89,-69.31 483.9,-65.79 489.51,-74.77 493.89,-69.31"/>
</g>
<!-- 23378&#45;&gt;Move Up -->
<g id="edge6" class="edge">
<title>23378&#45;&gt;Move Up</title>
<path fill="none" stroke="green" stroke-width="0.19" stroke-dasharray="1,5" d="M471.29,-245.09C447.11,-236.51 409.74,-223.6 376.88,-213.77 316.14,-195.62 290.43,-214.65 238.88,-177.77 234.27,-174.48 199.6,-121.02 175.18,-82.86"/>
<polygon fill="green" stroke="green" stroke-width="0.19" points="178.32,-81.28 169.99,-74.74 172.43,-85.05 178.32,-81.28"/>
</g>
<!-- 23378&#45;&gt;25142 -->
<g id="edge11" class="edge">
<title>23378&#45;&gt;25142</title>
<path fill="none" stroke="green" stroke-width="0.16" d="M496.88,-227.85C496.88,-215.75 496.88,-201.2 496.88,-188.08"/>
<polygon fill="green" stroke="green" stroke-width="0.16" points="500.38,-188.17 496.88,-178.17 493.38,-188.17 500.38,-188.17"/>
</g>
<!-- 25142&#45;&gt;Move Left -->
<g id="edge12" class="edge">
<title>25142&#45;&gt;Move Left</title>
<path fill="none" stroke="green" stroke-width="0.18" d="M486.32,-124.96C481.65,-114.06 476,-100.89 470.64,-88.4"/>
<polygon fill="green" stroke="green" stroke-width="0.18" points="473.88,-87.08 466.72,-79.28 467.45,-89.84 473.88,-87.08"/>
</g>
<!-- 25884&#45;&gt;Move Up -->
<g id="edge16" class="edge">
<title>25884&#45;&gt;Move Up</title>
<path fill="none" stroke="red" stroke-width="0.17" d="M81.06,-128.83C92.72,-114.77 108.42,-95.84 121.98,-79.5"/>
<polygon fill="red" stroke="red" stroke-width="0.17" points="124.58,-81.84 128.27,-71.91 119.2,-77.37 124.58,-81.84"/>
</g>
</g>
</svg>
