<?xml version="1.0" encoding="UTF-8" standalone="no"?>
<!DOCTYPE svg PUBLIC "-//W3C//DTD SVG 1.1//EN"
 "http://www.w3.org/Graphics/SVG/1.1/DTD/svg11.dtd">
<!-- Generated by graphviz version 12.0.0 (20240704.0754)
 -->
<!-- Pages: 1 -->
<svg width="1521pt" height="150pt"
 viewBox="0.00 0.00 1520.62 149.83" xmlns="http://www.w3.org/2000/svg" xmlns:xlink="http://www.w3.org/1999/xlink">
<g id="graph0" class="graph" transform="scale(1 1) rotate(0) translate(4 145.83)">
<polygon fill="white" stroke="none" points="-4,4 -4,-145.83 1516.62,-145.83 1516.62,4 -4,4"/>
<!-- Pellet Right -->
<g id="node1" class="node">
<title>Pellet Right</title>
<polygon fill="lightblue" stroke="black" points="510.12,-141.83 452.88,-141.83 452.88,-123.33 510.12,-123.33 510.12,-141.83"/>
<text text-anchor="middle" x="481.5" y="-129.28" font-family="Times,serif" font-size="9.00">Pellet Right</text>
</g>
<!-- Move Right -->
<g id="node18" class="node">
<title>Move Right</title>
<ellipse fill="lightblue" stroke="black" cx="400.5" cy="-43.66" rx="41.54" ry="41.54"/>
<text text-anchor="middle" x="400.5" y="-40.36" font-family="Times,serif" font-size="9.00">Move Right</text>
</g>
<!-- Pellet Right&#45;&gt;Move Right -->
<g id="edge1" class="edge">
<title>Pellet Right&#45;&gt;Move Right</title>
<path fill="none" stroke="green" stroke-width="0.1" stroke-dasharray="1,5" d="M473.44,-122.93C464.5,-113.33 449.47,-97.21 435.37,-82.08"/>
<polygon fill="green" stroke="green" stroke-width="0.1" points="438.04,-79.81 428.66,-74.88 432.91,-84.58 438.04,-79.81"/>
</g>
<!-- Move Up -->
<g id="node20" class="node">
<title>Move Up</title>
<ellipse fill="lightblue" stroke="black" cx="702.5" cy="-43.66" rx="35.71" ry="35.71"/>
<text text-anchor="middle" x="702.5" y="-40.36" font-family="Times,serif" font-size="9.00">Move Up</text>
</g>
<!-- Pellet Right&#45;&gt;Move Up -->
<g id="edge2" class="edge">
<title>Pellet Right&#45;&gt;Move Up</title>
<path fill="none" stroke="green" stroke-width="0.14" stroke-dasharray="1,5" d="M503.5,-122.93C539.86,-108.63 613.12,-79.81 659.89,-61.42"/>
<polygon fill="green" stroke="green" stroke-width="0.14" points="660.93,-64.77 668.96,-57.85 658.37,-58.26 660.93,-64.77"/>
</g>
<!-- Pellet Left -->
<g id="node2" class="node">
<title>Pellet Left</title>
<polygon fill="lightblue" stroke="black" points="1434.5,-141.83 1382.5,-141.83 1382.5,-123.33 1434.5,-123.33 1434.5,-141.83"/>
<text text-anchor="middle" x="1408.5" y="-129.28" font-family="Times,serif" font-size="9.00">Pellet Left</text>
</g>
<!-- Pellet Up -->
<g id="node3" class="node">
<title>Pellet Up</title>
<polygon fill="lightblue" stroke="black" points="49,-141.83 0,-141.83 0,-123.33 49,-123.33 49,-141.83"/>
<text text-anchor="middle" x="24.5" y="-129.28" font-family="Times,serif" font-size="9.00">Pellet Up</text>
</g>
<!-- Pellet Up&#45;&gt;Move Right -->
<g id="edge22" class="edge">
<title>Pellet Up&#45;&gt;Move Right</title>
<path fill="none" stroke="green" stroke-width="0.23" d="M49.37,-125.51C52.45,-124.77 55.54,-124.03 58.5,-123.33 161.99,-98.87 283.34,-71.2 350.09,-56.06"/>
<polygon fill="green" stroke="green" stroke-width="0.23" points="350.61,-59.53 359.59,-53.91 349.06,-52.7 350.61,-59.53"/>
</g>
<!-- Pellet Down -->
<g id="node4" class="node">
<title>Pellet Down</title>
<polygon fill="lightblue" stroke="black" points="1512.62,-141.83 1452.38,-141.83 1452.38,-123.33 1512.62,-123.33 1512.62,-141.83"/>
<text text-anchor="middle" x="1482.5" y="-129.28" font-family="Times,serif" font-size="9.00">Pellet Down</text>
</g>
<!-- Power Pellet Right -->
<g id="node5" class="node">
<title>Power Pellet Right</title>
<polygon fill="lightblue" stroke="black" points="149.88,-141.83 67.12,-141.83 67.12,-123.33 149.88,-123.33 149.88,-141.83"/>
<text text-anchor="middle" x="108.5" y="-129.28" font-family="Times,serif" font-size="9.00">Power Pellet Right</text>
</g>
<!-- Power Pellet Right&#45;&gt;Move Right -->
<g id="edge16" class="edge">
<title>Power Pellet Right&#45;&gt;Move Right</title>
<path fill="none" stroke="green" stroke-width="0.65" stroke-dasharray="1,5" d="M137.84,-122.85C187.6,-108.03 289.11,-77.82 350.34,-59.59"/>
<polygon fill="green" stroke="green" stroke-width="0.65" points="351.01,-63.05 359.59,-56.84 349.01,-56.34 351.01,-63.05"/>
</g>
<!-- Power Pellet Left -->
<g id="node6" class="node">
<title>Power Pellet Left</title>
<polygon fill="lightblue" stroke="black" points="788.25,-141.83 710.75,-141.83 710.75,-123.33 788.25,-123.33 788.25,-141.83"/>
<text text-anchor="middle" x="749.5" y="-129.28" font-family="Times,serif" font-size="9.00">Power Pellet Left</text>
</g>
<!-- Power Pellet Left&#45;&gt;Move Right -->
<g id="edge3" class="edge">
<title>Power Pellet Left&#45;&gt;Move Right</title>
<path fill="none" stroke="red" stroke-width="0.25" stroke-dasharray="1,5" d="M714.44,-122.85C652.2,-107.35 522.24,-74.98 450.59,-57.14"/>
<polygon fill="red" stroke="red" stroke-width="0.25" points="451.8,-53.83 441.25,-54.81 450.1,-60.62 451.8,-53.83"/>
</g>
<!-- Power Pellet Left&#45;&gt;Move Up -->
<g id="edge4" class="edge">
<title>Power Pellet Left&#45;&gt;Move Up</title>
<path fill="none" stroke="red" stroke-width="0.4" d="M744.82,-122.93C739.95,-113.91 731.95,-99.12 724.21,-84.82"/>
<polygon fill="red" stroke="red" stroke-width="0.4" points="727.33,-83.22 719.49,-76.08 721.17,-86.55 727.33,-83.22"/>
</g>
<!-- Move Down -->
<g id="node21" class="node">
<title>Move Down</title>
<ellipse fill="lightblue" stroke="black" cx="1135.5" cy="-43.66" rx="43.66" ry="43.66"/>
<text text-anchor="middle" x="1135.5" y="-40.36" font-family="Times,serif" font-size="9.00">Move Down</text>
</g>
<!-- Power Pellet Left&#45;&gt;Move Down -->
<g id="edge18" class="edge">
<title>Power Pellet Left&#45;&gt;Move Down</title>
<path fill="none" stroke="red" stroke-width="0.36" d="M788.28,-122.85C857.81,-107.19 1003.74,-74.33 1082.47,-56.61"/>
<polygon fill="red" stroke="red" stroke-width="0.36" points="1083.13,-60.04 1092.11,-54.43 1081.59,-53.22 1083.13,-60.04"/>
</g>
<!-- Power Pellet Up -->
<g id="node7" class="node">
<title>Power Pellet Up</title>
<polygon fill="lightblue" stroke="black" points="602.75,-141.83 528.25,-141.83 528.25,-123.33 602.75,-123.33 602.75,-141.83"/>
<text text-anchor="middle" x="565.5" y="-129.28" font-family="Times,serif" font-size="9.00">Power Pellet Up</text>
</g>
<!-- Power Pellet Up&#45;&gt;Move Right -->
<g id="edge17" class="edge">
<title>Power Pellet Up&#45;&gt;Move Right</title>
<path fill="none" stroke="red" stroke-width="0.3" d="M549.08,-122.93C525.28,-110.39 480.32,-86.71 446.07,-68.67"/>
<polygon fill="red" stroke="red" stroke-width="0.3" points="448.05,-65.75 437.57,-64.19 444.78,-71.95 448.05,-65.75"/>
</g>
<!-- Move Left -->
<g id="node19" class="node">
<title>Move Left</title>
<ellipse fill="lightblue" stroke="black" cx="890.5" cy="-43.66" rx="37.83" ry="37.83"/>
<text text-anchor="middle" x="890.5" y="-40.36" font-family="Times,serif" font-size="9.00">Move Left</text>
</g>
<!-- Power Pellet Up&#45;&gt;Move Left -->
<g id="edge5" class="edge">
<title>Power Pellet Up&#45;&gt;Move Left</title>
<path fill="none" stroke="red" stroke-width="0.2" stroke-dasharray="1,5" d="M602.94,-123.07C639.84,-114.54 697.75,-100.79 747.5,-87.33 780.27,-78.46 816.97,-67.49 844.98,-58.9"/>
<polygon fill="red" stroke="red" stroke-width="0.2" points="845.68,-62.34 854.21,-56.05 843.62,-55.65 845.68,-62.34"/>
</g>
<!-- Power Pellet Down -->
<g id="node8" class="node">
<title>Power Pellet Down</title>
<polygon fill="lightblue" stroke="black" points="253.38,-141.83 167.62,-141.83 167.62,-123.33 253.38,-123.33 253.38,-141.83"/>
<text text-anchor="middle" x="210.5" y="-129.28" font-family="Times,serif" font-size="9.00">Power Pellet Down</text>
</g>
<!-- Power Pellet Down&#45;&gt;Move Right -->
<g id="edge24" class="edge">
<title>Power Pellet Down&#45;&gt;Move Right</title>
<path fill="none" stroke="red" stroke-width="0.23" d="M229.41,-122.93C258.09,-109.81 313.46,-84.48 353.45,-66.18"/>
<polygon fill="red" stroke="red" stroke-width="0.23" points="354.81,-69.41 362.45,-62.07 351.9,-63.05 354.81,-69.41"/>
</g>
<!-- Ghost Info Right -->
<g id="node9" class="node">
<title>Ghost Info Right</title>
<polygon fill="lightblue" stroke="black" points="347.88,-141.83 271.12,-141.83 271.12,-123.33 347.88,-123.33 347.88,-141.83"/>
<text text-anchor="middle" x="309.5" y="-129.28" font-family="Times,serif" font-size="9.00">Ghost Info Right</text>
</g>
<!-- Ghost Info Right&#45;&gt;Move Right -->
<g id="edge23" class="edge">
<title>Ghost Info Right&#45;&gt;Move Right</title>
<path fill="none" stroke="red" stroke-width="0.27" d="M318.56,-122.93C329.01,-112.95 346.85,-95.9 363.23,-80.26"/>
<polygon fill="red" stroke="red" stroke-width="0.27" points="365.5,-82.93 370.32,-73.49 360.67,-77.87 365.5,-82.93"/>
</g>
<!-- Ghost Info Left -->
<g id="node10" class="node">
<title>Ghost Info Left</title>
<polygon fill="lightblue" stroke="black" points="692.25,-141.83 620.75,-141.83 620.75,-123.33 692.25,-123.33 692.25,-141.83"/>
<text text-anchor="middle" x="656.5" y="-129.28" font-family="Times,serif" font-size="9.00">Ghost Info Left</text>
</g>
<!-- Ghost Info Left&#45;&gt;Move Right -->
<g id="edge6" class="edge">
<title>Ghost Info Left&#45;&gt;Move Right</title>
<path fill="none" stroke="green" stroke-width="0.35" stroke-dasharray="1,5" d="M631.02,-122.93C588.75,-108.58 503.45,-79.62 449.3,-61.23"/>
<polygon fill="green" stroke="green" stroke-width="0.35" points="450.67,-58 440.08,-58.1 448.42,-64.63 450.67,-58"/>
</g>
<!-- Ghost Info Left&#45;&gt;Move Left -->
<g id="edge7" class="edge">
<title>Ghost Info Left&#45;&gt;Move Left</title>
<path fill="none" stroke="green" stroke-width="0.22" stroke-dasharray="1,5" d="M679.79,-122.93C718.37,-108.6 796.19,-79.69 845.69,-61.31"/>
<polygon fill="green" stroke="green" stroke-width="0.22" points="846.73,-64.66 854.89,-57.89 844.29,-58.09 846.73,-64.66"/>
</g>
<!-- Ghost Info Left&#45;&gt;Move Up -->
<g id="edge8" class="edge">
<title>Ghost Info Left&#45;&gt;Move Up</title>
<path fill="none" stroke="red" stroke-width="0.11" d="M661.08,-122.93C665.9,-113.82 673.83,-98.84 681.46,-84.41"/>
<polygon fill="red" stroke="red" stroke-width="0.11" points="684.49,-86.18 686.07,-75.7 678.3,-82.9 684.49,-86.18"/>
</g>
<!-- Ghost Info Up -->
<g id="node11" class="node">
<title>Ghost Info Up</title>
<polygon fill="lightblue" stroke="black" points="434.75,-141.83 366.25,-141.83 366.25,-123.33 434.75,-123.33 434.75,-141.83"/>
<text text-anchor="middle" x="400.5" y="-129.28" font-family="Times,serif" font-size="9.00">Ghost Info Up</text>
</g>
<!-- Ghost Info Up&#45;&gt;Move Right -->
<g id="edge9" class="edge">
<title>Ghost Info Up&#45;&gt;Move Right</title>
<path fill="none" stroke="green" stroke-width="0.39" stroke-dasharray="1,5" d="M400.5,-122.93C400.5,-116.29 400.5,-106.54 400.5,-96.15"/>
<polygon fill="green" stroke="green" stroke-width="0.39" points="404,-96.23 400.5,-86.23 397,-96.23 404,-96.23"/>
</g>
<!-- Ghost Info Down -->
<g id="node12" class="node">
<title>Ghost Info Down</title>
<polygon fill="lightblue" stroke="black" points="1175.38,-141.83 1095.62,-141.83 1095.62,-123.33 1175.38,-123.33 1175.38,-141.83"/>
<text text-anchor="middle" x="1135.5" y="-129.28" font-family="Times,serif" font-size="9.00">Ghost Info Down</text>
</g>
<!-- Ghost Info Down&#45;&gt;Move Left -->
<g id="edge20" class="edge">
<title>Ghost Info Down&#45;&gt;Move Left</title>
<path fill="none" stroke="red" stroke-width="0.21" d="M1111.11,-122.93C1070.29,-108.45 987.52,-79.08 935.78,-60.73"/>
<polygon fill="red" stroke="red" stroke-width="0.21" points="937.09,-57.48 926.49,-57.43 934.75,-64.07 937.09,-57.48"/>
</g>
<!-- Ghost Info Down&#45;&gt;Move Down -->
<g id="edge10" class="edge">
<title>Ghost Info Down&#45;&gt;Move Down</title>
<path fill="none" stroke="red" stroke-width="0.25" stroke-dasharray="1,5" d="M1135.5,-122.93C1135.5,-116.68 1135.5,-107.67 1135.5,-97.96"/>
<polygon fill="red" stroke="red" stroke-width="0.25" points="1139,-98.07 1135.5,-88.07 1132,-98.07 1139,-98.07"/>
</g>
<!-- PAC&#45;MAN Right -->
<g id="node13" class="node">
<title>PAC&#45;MAN Right</title>
<polygon fill="lightblue" stroke="black" points="1364,-141.83 1285,-141.83 1285,-123.33 1364,-123.33 1364,-141.83"/>
<text text-anchor="middle" x="1324.5" y="-129.28" font-family="Times,serif" font-size="9.00">PAC&#45;MAN Right</text>
</g>
<!-- PAC&#45;MAN Right&#45;&gt;Move Down -->
<g id="edge19" class="edge">
<title>PAC&#45;MAN Right&#45;&gt;Move Down</title>
<path fill="none" stroke="red" stroke-width="0.48" d="M1305.69,-122.93C1277.71,-110.06 1224.2,-85.45 1184.62,-67.25"/>
<polygon fill="red" stroke="red" stroke-width="0.48" points="1186.09,-64.07 1175.54,-63.08 1183.16,-70.43 1186.09,-64.07"/>
</g>
<!-- PAC&#45;MAN Left -->
<g id="node14" class="node">
<title>PAC&#45;MAN Left</title>
<polygon fill="lightblue" stroke="black" points="1267.38,-141.83 1193.62,-141.83 1193.62,-123.33 1267.38,-123.33 1267.38,-141.83"/>
<text text-anchor="middle" x="1230.5" y="-129.28" font-family="Times,serif" font-size="9.00">PAC&#45;MAN Left</text>
</g>
<!-- PAC&#45;MAN Left&#45;&gt;Move Down -->
<g id="edge21" class="edge">
<title>PAC&#45;MAN Left&#45;&gt;Move Down</title>
<path fill="none" stroke="green" stroke-width="0.3" d="M1221.04,-122.93C1210.3,-113.1 1192.06,-96.41 1175.18,-80.96"/>
<polygon fill="green" stroke="green" stroke-width="0.3" points="1177.62,-78.46 1167.88,-74.29 1172.9,-83.62 1177.62,-78.46"/>
</g>
<!-- PAC&#45;MAN Up -->
<g id="node15" class="node">
<title>PAC&#45;MAN Up</title>
<polygon fill="lightblue" stroke="black" points="876.88,-141.83 806.12,-141.83 806.12,-123.33 876.88,-123.33 876.88,-141.83"/>
<text text-anchor="middle" x="841.5" y="-129.28" font-family="Times,serif" font-size="9.00">PAC&#45;MAN Up</text>
</g>
<!-- PAC&#45;MAN Up&#45;&gt;Move Left -->
<g id="edge11" class="edge">
<title>PAC&#45;MAN Up&#45;&gt;Move Left</title>
<path fill="none" stroke="green" stroke-width="0.17" d="M846.38,-122.93C851.35,-114.11 859.43,-99.77 867.33,-85.76"/>
<polygon fill="green" stroke="green" stroke-width="0.17" points="870.2,-87.79 872.07,-77.36 864.11,-84.35 870.2,-87.79"/>
</g>
<!-- PAC&#45;MAN Up&#45;&gt;Move Up -->
<g id="edge12" class="edge">
<title>PAC&#45;MAN Up&#45;&gt;Move Up</title>
<path fill="none" stroke="green" stroke-width="0.15" stroke-dasharray="1,5" d="M827.66,-122.93C807.69,-110.44 770.01,-86.87 741.19,-68.85"/>
<polygon fill="green" stroke="green" stroke-width="0.15" points="743.08,-65.91 732.75,-63.58 739.37,-71.85 743.08,-65.91"/>
</g>
<!-- PACM&#45;MAN Down -->
<g id="node16" class="node">
<title>PACM&#45;MAN Down</title>
<polygon fill="lightblue" stroke="black" points="985.62,-141.83 895.38,-141.83 895.38,-123.33 985.62,-123.33 985.62,-141.83"/>
<text text-anchor="middle" x="940.5" y="-129.28" font-family="Times,serif" font-size="9.00">PACM&#45;MAN Down</text>
</g>
<!-- PACM&#45;MAN Down&#45;&gt;Move Left -->
<g id="edge13" class="edge">
<title>PACM&#45;MAN Down&#45;&gt;Move Left</title>
<path fill="none" stroke="red" stroke-width="0.16" stroke-dasharray="1,5" d="M935.52,-122.93C930.41,-114.04 922.07,-99.54 913.95,-85.42"/>
<polygon fill="red" stroke="red" stroke-width="0.16" points="917.09,-83.87 909.07,-76.95 911.03,-87.36 917.09,-83.87"/>
</g>
<!-- Power&#45;Up Time -->
<g id="node17" class="node">
<title>Power&#45;Up Time</title>
<polygon fill="lightblue" stroke="black" points="1077.38,-141.83 1003.62,-141.83 1003.62,-123.33 1077.38,-123.33 1077.38,-141.83"/>
<text text-anchor="middle" x="1040.5" y="-129.28" font-family="Times,serif" font-size="9.00">Power&#45;Up Time</text>
</g>
<!-- Power&#45;Up Time&#45;&gt;Move Left -->
<g id="edge14" class="edge">
<title>Power&#45;Up Time&#45;&gt;Move Left</title>
<path fill="none" stroke="red" stroke-width="0.62" d="M1025.57,-122.93C1004.01,-110.44 963.35,-86.87 932.25,-68.85"/>
<polygon fill="red" stroke="red" stroke-width="0.62" points="934.15,-65.91 923.74,-63.93 930.64,-71.97 934.15,-65.91"/>
</g>
<!-- Power&#45;Up Time&#45;&gt;Move Down -->
<g id="edge15" class="edge">
<title>Power&#45;Up Time&#45;&gt;Move Down</title>
<path fill="none" stroke="green" stroke-width="0.92" d="M1049.96,-122.93C1060.6,-113.18 1078.61,-96.71 1095.37,-81.38"/>
<polygon fill="green" stroke="green" stroke-width="0.92" points="1097.41,-84.26 1102.43,-74.92 1092.69,-79.09 1097.41,-84.26"/>
</g>
</g>
</svg>
