<?xml version="1.0" encoding="UTF-8" standalone="no"?>
<!DOCTYPE svg PUBLIC "-//W3C//DTD SVG 1.1//EN"
 "http://www.w3.org/Graphics/SVG/1.1/DTD/svg11.dtd">
<!-- Generated by graphviz version 12.0.0 (20240704.0754)
 -->
<!-- Pages: 1 -->
<svg width="1525pt" height="240pt"
 viewBox="0.00 0.00 1525.12 240.27" xmlns="http://www.w3.org/2000/svg" xmlns:xlink="http://www.w3.org/1999/xlink">
<g id="graph0" class="graph" transform="scale(1 1) rotate(0) translate(4 236.27)">
<polygon fill="white" stroke="none" points="-4,4 -4,-236.27 1521.12,-236.27 1521.12,4 -4,4"/>
<!-- Pellet Right -->
<g id="node1" class="node">
<title>Pellet Right</title>
<polygon fill="lightblue" stroke="black" points="57.25,-159.8 0,-159.8 0,-141.3 57.25,-141.3 57.25,-159.8"/>
<text text-anchor="middle" x="28.62" y="-147.25" font-family="Times,serif" font-size="9.00">Pellet Right</text>
</g>
<!-- Move Left -->
<g id="node19" class="node">
<title>Move Left</title>
<ellipse fill="lightblue" stroke="black" cx="299.62" cy="-43.66" rx="37.83" ry="37.83"/>
<text text-anchor="middle" x="299.62" y="-40.36" font-family="Times,serif" font-size="9.00">Move Left</text>
</g>
<!-- Pellet Right&#45;&gt;Move Left -->
<g id="edge1" class="edge">
<title>Pellet Right&#45;&gt;Move Left</title>
<path fill="none" stroke="green" stroke-width="0.14" d="M39.42,-140.89C46.76,-135.31 56.88,-128.21 66.62,-123.33 128.27,-92.42 204.87,-69.2 253.02,-56.27"/>
<polygon fill="green" stroke="green" stroke-width="0.14" points="253.88,-59.66 262.65,-53.72 252.09,-52.9 253.88,-59.66"/>
</g>
<!-- Pellet Left -->
<g id="node2" class="node">
<title>Pellet Left</title>
<polygon fill="lightblue" stroke="black" points="127.62,-159.8 75.62,-159.8 75.62,-141.3 127.62,-141.3 127.62,-159.8"/>
<text text-anchor="middle" x="101.62" y="-147.25" font-family="Times,serif" font-size="9.00">Pellet Left</text>
</g>
<!-- Pellet Left&#45;&gt;Move Left -->
<g id="edge2" class="edge">
<title>Pellet Left&#45;&gt;Move Left</title>
<path fill="none" stroke="red" stroke-width="0.17" stroke-dasharray="1,5" d="M114,-140.89C121.78,-135.59 132.12,-128.78 141.62,-123.33 179.48,-101.6 224.12,-79.7 256.28,-64.54"/>
<polygon fill="red" stroke="red" stroke-width="0.17" points="257.62,-67.78 265.19,-60.37 254.65,-61.44 257.62,-67.78"/>
</g>
<!-- Pellet Up -->
<g id="node3" class="node">
<title>Pellet Up</title>
<polygon fill="lightblue" stroke="black" points="1517.12,-159.8 1468.12,-159.8 1468.12,-141.3 1517.12,-141.3 1517.12,-159.8"/>
<text text-anchor="middle" x="1492.62" y="-147.25" font-family="Times,serif" font-size="9.00">Pellet Up</text>
</g>
<!-- Move Up -->
<g id="node20" class="node">
<title>Move Up</title>
<ellipse fill="lightblue" stroke="black" cx="1368.62" cy="-43.66" rx="35.71" ry="35.71"/>
<text text-anchor="middle" x="1368.62" y="-40.36" font-family="Times,serif" font-size="9.00">Move Up</text>
</g>
<!-- Pellet Up&#45;&gt;Move Up -->
<g id="edge3" class="edge">
<title>Pellet Up&#45;&gt;Move Up</title>
<path fill="none" stroke="red" stroke-width="0.13" stroke-dasharray="1,5" d="M1482.48,-140.97C1465.37,-126.5 1430.03,-96.6 1403.23,-73.94"/>
<polygon fill="red" stroke="red" stroke-width="0.13" points="1405.61,-71.37 1395.72,-67.58 1401.09,-76.71 1405.61,-71.37"/>
</g>
<!-- Pellet Down -->
<g id="node4" class="node">
<title>Pellet Down</title>
<polygon fill="lightblue" stroke="black" points="1307.75,-159.8 1247.5,-159.8 1247.5,-141.3 1307.75,-141.3 1307.75,-159.8"/>
<text text-anchor="middle" x="1277.62" y="-147.25" font-family="Times,serif" font-size="9.00">Pellet Down</text>
</g>
<!-- Move Right -->
<g id="node18" class="node">
<title>Move Right</title>
<ellipse fill="lightblue" stroke="black" cx="1040.62" cy="-43.66" rx="41.54" ry="41.54"/>
<text text-anchor="middle" x="1040.62" y="-40.36" font-family="Times,serif" font-size="9.00">Move Right</text>
</g>
<!-- Pellet Down&#45;&gt;Move Right -->
<g id="edge4" class="edge">
<title>Pellet Down&#45;&gt;Move Right</title>
<path fill="none" stroke="red" stroke-width="0.29" stroke-dasharray="1,5" d="M1266.08,-140.83C1258.53,-135.37 1248.3,-128.43 1238.62,-123.33 1189.8,-97.6 1130.64,-75.14 1089.76,-60.88"/>
<polygon fill="red" stroke="red" stroke-width="0.29" points="1091.06,-57.62 1080.47,-57.67 1088.78,-64.24 1091.06,-57.62"/>
</g>
<!-- Pellet Down&#45;&gt;Move Left -->
<g id="edge5" class="edge">
<title>Pellet Down&#45;&gt;Move Left</title>
<path fill="none" stroke="green" stroke-width="0.38" stroke-dasharray="1,5" d="M1268.15,-141.05C1260.7,-134.92 1249.75,-127.1 1238.62,-123.33 1114.42,-81.27 780.21,-99.27 649.62,-87.33 541.42,-77.44 415,-60.75 347.64,-51.45"/>
<polygon fill="green" stroke="green" stroke-width="0.38" points="348.3,-48.01 337.92,-50.1 347.34,-54.94 348.3,-48.01"/>
</g>
<!-- Pellet Down&#45;&gt;Move Up -->
<g id="edge6" class="edge">
<title>Pellet Down&#45;&gt;Move Up</title>
<path fill="none" stroke="red" stroke-width="0.18" stroke-dasharray="1,5" d="M1285.07,-140.97C1296.77,-127.49 1320.07,-100.63 1339.1,-78.69"/>
<polygon fill="red" stroke="red" stroke-width="0.18" points="1341.54,-81.23 1345.45,-71.38 1336.25,-76.64 1341.54,-81.23"/>
</g>
<!-- Power Pellet Right -->
<g id="node5" class="node">
<title>Power Pellet Right</title>
<polygon fill="lightblue" stroke="black" points="744,-159.8 661.25,-159.8 661.25,-141.3 744,-141.3 744,-159.8"/>
<text text-anchor="middle" x="702.62" y="-147.25" font-family="Times,serif" font-size="9.00">Power Pellet Right</text>
</g>
<!-- Power Pellet Right&#45;&gt;Move Right -->
<g id="edge7" class="edge">
<title>Power Pellet Right&#45;&gt;Move Right</title>
<path fill="none" stroke="red" stroke-width="0.56" d="M717.42,-140.9C727.4,-135.33 741.01,-128.24 753.62,-123.33 833.85,-92.1 931.23,-68.2 989.44,-55.31"/>
<polygon fill="red" stroke="red" stroke-width="0.56" points="989.99,-58.78 999.01,-53.22 988.49,-51.94 989.99,-58.78"/>
</g>
<!-- Move Down -->
<g id="node21" class="node">
<title>Move Down</title>
<ellipse fill="lightblue" stroke="black" cx="702.62" cy="-43.66" rx="43.66" ry="43.66"/>
<text text-anchor="middle" x="702.62" y="-40.36" font-family="Times,serif" font-size="9.00">Move Down</text>
</g>
<!-- Power Pellet Right&#45;&gt;Move Down -->
<g id="edge8" class="edge">
<title>Power Pellet Right&#45;&gt;Move Down</title>
<path fill="none" stroke="red" stroke-width="0.32" d="M702.62,-140.97C702.62,-131.24 702.62,-114.56 702.62,-97.78"/>
<polygon fill="red" stroke="red" stroke-width="0.32" points="706.13,-97.87 702.63,-87.87 699.13,-97.87 706.13,-97.87"/>
</g>
<!-- Power Pellet Left -->
<g id="node6" class="node">
<title>Power Pellet Left</title>
<polygon fill="lightblue" stroke="black" points="953.38,-232.27 875.88,-232.27 875.88,-213.77 953.38,-213.77 953.38,-232.27"/>
<text text-anchor="middle" x="914.62" y="-219.72" font-family="Times,serif" font-size="9.00">Power Pellet Left</text>
</g>
<!-- Power Pellet Left&#45;&gt;Move Up -->
<g id="edge9" class="edge">
<title>Power Pellet Left&#45;&gt;Move Up</title>
<path fill="none" stroke="green" stroke-width="0.18" stroke-dasharray="1,5" d="M953.52,-221.58C1066.6,-219.87 1389.24,-212.03 1420.62,-177.77 1446.29,-149.77 1422.66,-107.65 1399.51,-78.32"/>
<polygon fill="green" stroke="green" stroke-width="0.18" points="1402.25,-76.14 1393.21,-70.61 1396.83,-80.57 1402.25,-76.14"/>
</g>
<!-- 12038 -->
<g id="node22" class="node">
<title>12038</title>
<ellipse fill="white" stroke="black" cx="299.62" cy="-150.55" rx="27.22" ry="27.22"/>
<text text-anchor="middle" x="299.62" y="-147.25" font-family="Times,serif" font-size="9.00">12038</text>
</g>
<!-- Power Pellet Left&#45;&gt;12038 -->
<g id="edge33" class="edge">
<title>Power Pellet Left&#45;&gt;12038</title>
<path fill="none" stroke="green" stroke-width="0.13" d="M875.38,-221.73C762.06,-220.46 436.14,-213.7 336.62,-177.77 333.92,-176.8 331.23,-175.56 328.61,-174.17"/>
<polygon fill="green" stroke="green" stroke-width="0.13" points="330.56,-171.26 320.2,-169.03 326.91,-177.23 330.56,-171.26"/>
</g>
<!-- Power Pellet Up -->
<g id="node7" class="node">
<title>Power Pellet Up</title>
<polygon fill="lightblue" stroke="black" points="836.88,-159.8 762.38,-159.8 762.38,-141.3 836.88,-141.3 836.88,-159.8"/>
<text text-anchor="middle" x="799.62" y="-147.25" font-family="Times,serif" font-size="9.00">Power Pellet Up</text>
</g>
<!-- Power Pellet Up&#45;&gt;Move Right -->
<g id="edge29" class="edge">
<title>Power Pellet Up&#45;&gt;Move Right</title>
<path fill="none" stroke="red" stroke-width="0.5" d="M814.2,-140.81C823.36,-135.47 835.5,-128.66 846.62,-123.33 895.01,-100.13 952.12,-77.52 991.79,-62.54"/>
<polygon fill="red" stroke="red" stroke-width="0.5" points="992.89,-65.87 1001.03,-59.08 990.43,-59.31 992.89,-65.87"/>
</g>
<!-- Power Pellet Up&#45;&gt;Move Down -->
<g id="edge10" class="edge">
<title>Power Pellet Up&#45;&gt;Move Down</title>
<path fill="none" stroke="green" stroke-width="0.18" d="M791.69,-140.97C780.16,-128.51 758.06,-104.61 738.76,-83.74"/>
<polygon fill="green" stroke="green" stroke-width="0.18" points="741.34,-81.37 731.98,-76.41 736.2,-86.13 741.34,-81.37"/>
</g>
<!-- Power Pellet Down -->
<g id="node8" class="node">
<title>Power Pellet Down</title>
<polygon fill="lightblue" stroke="black" points="1411.5,-159.8 1325.75,-159.8 1325.75,-141.3 1411.5,-141.3 1411.5,-159.8"/>
<text text-anchor="middle" x="1368.62" y="-147.25" font-family="Times,serif" font-size="9.00">Power Pellet Down</text>
</g>
<!-- Power Pellet Down&#45;&gt;Move Right -->
<g id="edge11" class="edge">
<title>Power Pellet Down&#45;&gt;Move Right</title>
<path fill="none" stroke="green" stroke-width="0.16" stroke-dasharray="1,5" d="M1353.5,-140.96C1343.31,-135.42 1329.43,-128.33 1316.62,-123.33 1239.79,-93.32 1146.9,-69.22 1090.86,-55.94"/>
<polygon fill="green" stroke="green" stroke-width="0.16" points="1091.95,-52.6 1081.41,-53.73 1090.35,-59.42 1091.95,-52.6"/>
</g>
<!-- Power Pellet Down&#45;&gt;Move Up -->
<g id="edge12" class="edge">
<title>Power Pellet Down&#45;&gt;Move Up</title>
<path fill="none" stroke="red" stroke-width="0.31" d="M1368.62,-140.97C1368.62,-129.69 1368.62,-109.04 1368.62,-89.74"/>
<polygon fill="red" stroke="red" stroke-width="0.31" points="1372.13,-90.01 1368.63,-80.01 1365.13,-90.01 1372.13,-90.01"/>
</g>
<!-- Ghost Info Right -->
<g id="node9" class="node">
<title>Ghost Info Right</title>
<polygon fill="lightblue" stroke="black" points="932,-159.8 855.25,-159.8 855.25,-141.3 932,-141.3 932,-159.8"/>
<text text-anchor="middle" x="893.62" y="-147.25" font-family="Times,serif" font-size="9.00">Ghost Info Right</text>
</g>
<!-- Ghost Info Right&#45;&gt;Move Right -->
<g id="edge13" class="edge">
<title>Ghost Info Right&#45;&gt;Move Right</title>
<path fill="none" stroke="green" stroke-width="0.15" d="M905.65,-140.97C925.8,-126.6 967.25,-97.02 998.94,-74.41"/>
<polygon fill="green" stroke="green" stroke-width="0.15" points="1000.89,-77.32 1007,-68.66 996.82,-71.62 1000.89,-77.32"/>
</g>
<!-- Ghost Info Right&#45;&gt;Move Down -->
<g id="edge14" class="edge">
<title>Ghost Info Right&#45;&gt;Move Down</title>
<path fill="none" stroke="green" stroke-width="0.26" d="M877.99,-140.97C850.27,-125.74 791.47,-93.45 749.61,-70.46"/>
<polygon fill="green" stroke="green" stroke-width="0.26" points="751.48,-67.5 741.03,-65.75 748.11,-73.63 751.48,-67.5"/>
</g>
<!-- Ghost Info Left -->
<g id="node10" class="node">
<title>Ghost Info Left</title>
<polygon fill="lightblue" stroke="black" points="643.38,-159.8 571.88,-159.8 571.88,-141.3 643.38,-141.3 643.38,-159.8"/>
<text text-anchor="middle" x="607.62" y="-147.25" font-family="Times,serif" font-size="9.00">Ghost Info Left</text>
</g>
<!-- Ghost Info Left&#45;&gt;Move Left -->
<g id="edge15" class="edge">
<title>Ghost Info Left&#45;&gt;Move Left</title>
<path fill="none" stroke="red" stroke-width="0.11" stroke-dasharray="1,5" d="M582.16,-140.88C529.96,-123.1 410.23,-82.33 344.63,-59.99"/>
<polygon fill="red" stroke="red" stroke-width="0.11" points="346.11,-56.8 335.52,-56.89 343.86,-63.42 346.11,-56.8"/>
</g>
<!-- Ghost Info Left&#45;&gt;Move Up -->
<g id="edge16" class="edge">
<title>Ghost Info Left&#45;&gt;Move Up</title>
<path fill="none" stroke="red" stroke-width="0.12" d="M619.16,-140.87C627.87,-134.83 640.38,-127.18 652.62,-123.33 839.37,-64.59 897.2,-110.24 1091.62,-87.33 1173.74,-77.65 1268.88,-62.02 1323.59,-52.61"/>
<polygon fill="red" stroke="red" stroke-width="0.12" points="1323.87,-56.11 1333.13,-50.96 1322.68,-49.21 1323.87,-56.11"/>
</g>
<!-- Ghost Info Left&#45;&gt;Move Down -->
<g id="edge17" class="edge">
<title>Ghost Info Left&#45;&gt;Move Down</title>
<path fill="none" stroke="green" stroke-width="0.47" d="M615.4,-140.97C626.56,-128.65 647.84,-105.15 666.59,-84.45"/>
<polygon fill="green" stroke="green" stroke-width="0.47" points="669.03,-86.97 673.15,-77.21 663.84,-82.27 669.03,-86.97"/>
</g>
<!-- Ghost Info Up -->
<g id="node11" class="node">
<title>Ghost Info Up</title>
<polygon fill="lightblue" stroke="black" points="333.88,-232.27 265.38,-232.27 265.38,-213.77 333.88,-213.77 333.88,-232.27"/>
<text text-anchor="middle" x="299.62" y="-219.72" font-family="Times,serif" font-size="9.00">Ghost Info Up</text>
</g>
<!-- Ghost Info Up&#45;&gt;Move Left -->
<g id="edge18" class="edge">
<title>Ghost Info Up&#45;&gt;Move Left</title>
<path fill="none" stroke="red" stroke-width="0.25" stroke-dasharray="1,5" d="M265.08,-220.27C235.63,-216.73 194.95,-206.54 174.62,-177.77 160.66,-158.01 162.93,-144.51 174.62,-123.33 191.5,-92.78 225.76,-72.47 254.16,-60.16"/>
<polygon fill="red" stroke="red" stroke-width="0.25" points="255.28,-63.48 263.18,-56.43 252.6,-57.02 255.28,-63.48"/>
</g>
<!-- Ghost Info Up&#45;&gt;Move Down -->
<g id="edge19" class="edge">
<title>Ghost Info Up&#45;&gt;Move Down</title>
<path fill="none" stroke="red" stroke-width="0.11" stroke-dasharray="1,5" d="M334.22,-222.98C381.12,-222.65 465.77,-216.15 524.62,-177.77 549.34,-161.66 540.77,-143.15 562.62,-123.33 589.36,-99.07 624.87,-79.23 653.44,-65.54"/>
<polygon fill="red" stroke="red" stroke-width="0.11" points="654.72,-68.8 662.29,-61.39 651.75,-62.47 654.72,-68.8"/>
</g>
<!-- Ghost Info Up&#45;&gt;12038 -->
<g id="edge31" class="edge">
<title>Ghost Info Up&#45;&gt;12038</title>
<path fill="none" stroke="green" stroke-width="0.23" d="M299.62,-213.38C299.62,-206.96 299.62,-197.72 299.62,-188.33"/>
<polygon fill="green" stroke="green" stroke-width="0.23" points="303.13,-188.56 299.63,-178.56 296.13,-188.56 303.13,-188.56"/>
</g>
<!-- Ghost Info Down -->
<g id="node12" class="node">
<title>Ghost Info Down</title>
<polygon fill="lightblue" stroke="black" points="1029.5,-159.8 949.75,-159.8 949.75,-141.3 1029.5,-141.3 1029.5,-159.8"/>
<text text-anchor="middle" x="989.62" y="-147.25" font-family="Times,serif" font-size="9.00">Ghost Info Down</text>
</g>
<!-- Ghost Info Down&#45;&gt;Move Right -->
<g id="edge20" class="edge">
<title>Ghost Info Down&#45;&gt;Move Right</title>
<path fill="none" stroke="green" stroke-width="0.63" stroke-dasharray="1,5" d="M993.8,-140.97C999.15,-129.97 1008.83,-110.06 1018,-91.19"/>
<polygon fill="green" stroke="green" stroke-width="0.63" points="1021.09,-92.85 1022.31,-82.32 1014.79,-89.79 1021.09,-92.85"/>
</g>
<!-- Ghost Info Down&#45;&gt;Move Down -->
<g id="edge21" class="edge">
<title>Ghost Info Down&#45;&gt;Move Down</title>
<path fill="none" stroke="green" stroke-width="1.1" stroke-dasharray="1,5" d="M974.94,-140.83C965.38,-135.37 952.51,-128.43 940.62,-123.33 878.66,-96.74 804.53,-73.52 755.65,-59.33"/>
<polygon fill="green" stroke="green" stroke-width="1.1" points="756.88,-56.05 746.3,-56.65 754.95,-62.77 756.88,-56.05"/>
</g>
<!-- PAC&#45;MAN Right -->
<g id="node13" class="node">
<title>PAC&#45;MAN Right</title>
<polygon fill="lightblue" stroke="black" points="424.12,-159.8 345.12,-159.8 345.12,-141.3 424.12,-141.3 424.12,-159.8"/>
<text text-anchor="middle" x="384.62" y="-147.25" font-family="Times,serif" font-size="9.00">PAC&#45;MAN Right</text>
</g>
<!-- PAC&#45;MAN Right&#45;&gt;Move Left -->
<g id="edge22" class="edge">
<title>PAC&#45;MAN Right&#45;&gt;Move Left</title>
<path fill="none" stroke="red" stroke-width="0.39" stroke-dasharray="1,5" d="M377.67,-140.97C367.19,-128.04 346.74,-102.8 329.4,-81.41"/>
<polygon fill="red" stroke="red" stroke-width="0.39" points="332.33,-79.46 323.31,-73.89 326.89,-83.86 332.33,-79.46"/>
</g>
<!-- PAC&#45;MAN Right&#45;&gt;Move Down -->
<g id="edge23" class="edge">
<title>PAC&#45;MAN Right&#45;&gt;Move Down</title>
<path fill="none" stroke="red" stroke-width="0.28" stroke-dasharray="1,5" d="M398.51,-140.92C407.89,-135.35 420.69,-128.26 432.62,-123.33 505.9,-93.05 594.86,-69.54 650.12,-56.38"/>
<polygon fill="red" stroke="red" stroke-width="0.28" points="650.69,-59.84 659.62,-54.14 649.09,-53.03 650.69,-59.84"/>
</g>
<!-- PAC&#45;MAN Left -->
<g id="node14" class="node">
<title>PAC&#45;MAN Left</title>
<polygon fill="lightblue" stroke="black" points="1229.5,-159.8 1155.75,-159.8 1155.75,-141.3 1229.5,-141.3 1229.5,-159.8"/>
<text text-anchor="middle" x="1192.62" y="-147.25" font-family="Times,serif" font-size="9.00">PAC&#45;MAN Left</text>
</g>
<!-- PAC&#45;MAN Left&#45;&gt;Move Right -->
<g id="edge24" class="edge">
<title>PAC&#45;MAN Left&#45;&gt;Move Right</title>
<path fill="none" stroke="red" stroke-width="0.56" stroke-dasharray="1,5" d="M1180.19,-140.97C1159.23,-126.51 1115.95,-96.64 1083.12,-73.98"/>
<polygon fill="red" stroke="red" stroke-width="0.56" points="1085.51,-71.38 1075.29,-68.58 1081.53,-77.14 1085.51,-71.38"/>
</g>
<!-- PAC&#45;MAN Up -->
<g id="node15" class="node">
<title>PAC&#45;MAN Up</title>
<polygon fill="lightblue" stroke="black" points="254,-159.8 183.25,-159.8 183.25,-141.3 254,-141.3 254,-159.8"/>
<text text-anchor="middle" x="218.62" y="-147.25" font-family="Times,serif" font-size="9.00">PAC&#45;MAN Up</text>
</g>
<!-- PAC&#45;MAN Up&#45;&gt;Move Left -->
<g id="edge25" class="edge">
<title>PAC&#45;MAN Up&#45;&gt;Move Left</title>
<path fill="none" stroke="green" stroke-width="0.33" stroke-dasharray="1,5" d="M225.25,-140.97C235.06,-128.27 254.04,-103.7 270.36,-82.55"/>
<polygon fill="green" stroke="green" stroke-width="0.33" points="273.05,-84.8 276.39,-74.75 267.51,-80.52 273.05,-84.8"/>
</g>
<!-- PACM&#45;MAN Down -->
<g id="node16" class="node">
<title>PACM&#45;MAN Down</title>
<polygon fill="lightblue" stroke="black" points="1137.75,-159.8 1047.5,-159.8 1047.5,-141.3 1137.75,-141.3 1137.75,-159.8"/>
<text text-anchor="middle" x="1092.62" y="-147.25" font-family="Times,serif" font-size="9.00">PACM&#45;MAN Down</text>
</g>
<!-- PACM&#45;MAN Down&#45;&gt;Move Right -->
<g id="edge26" class="edge">
<title>PACM&#45;MAN Down&#45;&gt;Move Right</title>
<path fill="none" stroke="red" stroke-width="0.4" d="M1088.37,-140.97C1082.89,-129.92 1072.96,-109.88 1063.56,-90.93"/>
<polygon fill="red" stroke="red" stroke-width="0.4" points="1066.72,-89.42 1059.14,-82.02 1060.45,-92.53 1066.72,-89.42"/>
</g>
<!-- PACM&#45;MAN Down&#45;&gt;Move Down -->
<g id="edge27" class="edge">
<title>PACM&#45;MAN Down&#45;&gt;Move Down</title>
<path fill="none" stroke="green" stroke-width="0.71" stroke-dasharray="1,5" d="M1077.42,-141.04C1066.81,-135.38 1052.18,-128.14 1038.62,-123.33 941.82,-88.97 823.97,-65.35 756.68,-53.49"/>
<polygon fill="green" stroke="green" stroke-width="0.71" points="757.44,-50.07 746.99,-51.81 756.24,-56.97 757.44,-50.07"/>
</g>
<!-- Power&#45;Up Time -->
<g id="node17" class="node">
<title>Power&#45;Up Time</title>
<polygon fill="lightblue" stroke="black" points="515.5,-159.8 441.75,-159.8 441.75,-141.3 515.5,-141.3 515.5,-159.8"/>
<text text-anchor="middle" x="478.62" y="-147.25" font-family="Times,serif" font-size="9.00">Power&#45;Up Time</text>
</g>
<!-- Power&#45;Up Time&#45;&gt;Move Left -->
<g id="edge28" class="edge">
<title>Power&#45;Up Time&#45;&gt;Move Left</title>
<path fill="none" stroke="red" stroke-width="0.34" stroke-dasharray="1,5" d="M463.98,-140.97C437.35,-125.37 380.14,-91.84 340.77,-68.77"/>
<polygon fill="red" stroke="red" stroke-width="0.34" points="343,-66.02 332.6,-63.99 339.46,-72.06 343,-66.02"/>
</g>
<!-- Power&#45;Up Time&#45;&gt;Move Down -->
<g id="edge30" class="edge">
<title>Power&#45;Up Time&#45;&gt;Move Down</title>
<path fill="none" stroke="green" stroke-width="0.19" d="M495.06,-140.85C505.01,-135.64 517.98,-128.97 529.62,-123.33 571.2,-103.2 619.04,-81.56 653.86,-66.09"/>
<polygon fill="green" stroke="green" stroke-width="0.19" points="654.88,-69.46 662.6,-62.21 652.04,-63.06 654.88,-69.46"/>
</g>
<!-- 12038&#45;&gt;Move Left -->
<g id="edge32" class="edge">
<title>12038&#45;&gt;Move Left</title>
<path fill="none" stroke="red" stroke-width="0.15" d="M299.62,-123.08C299.62,-113.61 299.62,-102.62 299.62,-91.93"/>
<polygon fill="red" stroke="red" stroke-width="0.15" points="303.13,-92.04 299.63,-82.04 296.13,-92.04 303.13,-92.04"/>
</g>
</g>
</svg>
