<?xml version="1.0" encoding="UTF-8" standalone="no"?>
<!DOCTYPE svg PUBLIC "-//W3C//DTD SVG 1.1//EN"
 "http://www.w3.org/Graphics/SVG/1.1/DTD/svg11.dtd">
<!-- Generated by graphviz version 12.0.0 (20240704.0754)
 -->
<!-- Pages: 1 -->
<svg width="1781pt" height="348pt"
 viewBox="0.00 0.00 1780.56 347.69" xmlns="http://www.w3.org/2000/svg" xmlns:xlink="http://www.w3.org/1999/xlink">
<g id="graph0" class="graph" transform="scale(1 1) rotate(0) translate(4 343.69)">
<polygon fill="white" stroke="none" points="-4,4 -4,-343.69 1776.56,-343.69 1776.56,4 -4,4"/>
<!-- Pellet Right -->
<g id="node1" class="node">
<title>Pellet Right</title>
<polygon fill="lightblue" stroke="black" points="894.12,-267.22 836.88,-267.22 836.88,-248.72 894.12,-248.72 894.12,-267.22"/>
<text text-anchor="middle" x="865.5" y="-254.67" font-family="Times,serif" font-size="9.00">Pellet Right</text>
</g>
<!-- Move Right -->
<g id="node18" class="node">
<title>Move Right</title>
<ellipse fill="lightblue" stroke="black" cx="635.5" cy="-151.08" rx="41.54" ry="41.54"/>
<text text-anchor="middle" x="635.5" y="-147.78" font-family="Times,serif" font-size="9.00">Move Right</text>
</g>
<!-- Pellet Right&#45;&gt;Move Right -->
<g id="edge1" class="edge">
<title>Pellet Right&#45;&gt;Move Right</title>
<path fill="none" stroke="green" stroke-width="0.47" d="M846.68,-248.39C811.17,-232.19 733.34,-196.7 682.73,-173.62"/>
<polygon fill="green" stroke="green" stroke-width="0.47" points="684.19,-170.44 673.64,-169.47 681.28,-176.81 684.19,-170.44"/>
</g>
<!-- Move Left -->
<g id="node19" class="node">
<title>Move Left</title>
<ellipse fill="lightblue" stroke="black" cx="1048.5" cy="-151.08" rx="37.83" ry="37.83"/>
<text text-anchor="middle" x="1048.5" y="-147.78" font-family="Times,serif" font-size="9.00">Move Left</text>
</g>
<!-- Pellet Right&#45;&gt;Move Left -->
<g id="edge2" class="edge">
<title>Pellet Right&#45;&gt;Move Left</title>
<path fill="none" stroke="red" stroke-width="0.18" stroke-dasharray="1,5" d="M877.26,-248.37C884.66,-243.08 894.48,-236.28 903.5,-230.75 937.09,-210.13 976.46,-188.95 1005.7,-173.76"/>
<polygon fill="red" stroke="red" stroke-width="0.18" points="1007.29,-176.88 1014.57,-169.18 1004.08,-170.66 1007.29,-176.88"/>
</g>
<!-- Move Down -->
<g id="node21" class="node">
<title>Move Down</title>
<ellipse fill="lightblue" stroke="black" cx="840.5" cy="-151.08" rx="43.66" ry="43.66"/>
<text text-anchor="middle" x="840.5" y="-147.78" font-family="Times,serif" font-size="9.00">Move Down</text>
</g>
<!-- Pellet Right&#45;&gt;Move Down -->
<g id="edge3" class="edge">
<title>Pellet Right&#45;&gt;Move Down</title>
<path fill="none" stroke="green" stroke-width="0.27" stroke-dasharray="1,5" d="M863.45,-248.39C861.08,-238.41 856.95,-221.09 852.85,-203.88"/>
<polygon fill="green" stroke="green" stroke-width="0.27" points="856.26,-203.12 850.54,-194.2 849.45,-204.74 856.26,-203.12"/>
</g>
<!-- Pellet Left -->
<g id="node2" class="node">
<title>Pellet Left</title>
<polygon fill="lightblue" stroke="black" points="596.5,-267.22 544.5,-267.22 544.5,-248.72 596.5,-248.72 596.5,-267.22"/>
<text text-anchor="middle" x="570.5" y="-254.67" font-family="Times,serif" font-size="9.00">Pellet Left</text>
</g>
<!-- Pellet Left&#45;&gt;Move Right -->
<g id="edge4" class="edge">
<title>Pellet Left&#45;&gt;Move Right</title>
<path fill="none" stroke="red" stroke-width="0.18" d="M575.82,-248.39C583,-236.79 596.32,-215.31 608.55,-195.56"/>
<polygon fill="red" stroke="red" stroke-width="0.18" points="611.45,-197.53 613.74,-187.19 605.5,-193.84 611.45,-197.53"/>
</g>
<!-- Pellet Left&#45;&gt;Move Left -->
<g id="edge5" class="edge">
<title>Pellet Left&#45;&gt;Move Left</title>
<path fill="none" stroke="red" stroke-width="0.25" d="M579.19,-248.4C585.83,-242.41 595.5,-234.78 605.5,-230.75 725.12,-182.46 766.99,-219.93 893.5,-194.75 930.8,-187.32 972.3,-175.71 1002.97,-166.48"/>
<polygon fill="red" stroke="red" stroke-width="0.25" points="1003.62,-169.94 1012.17,-163.68 1001.58,-163.24 1003.62,-169.94"/>
</g>
<!-- Move Up -->
<g id="node20" class="node">
<title>Move Up</title>
<ellipse fill="lightblue" stroke="black" cx="724.5" cy="-35.71" rx="35.71" ry="35.71"/>
<text text-anchor="middle" x="724.5" y="-32.41" font-family="Times,serif" font-size="9.00">Move Up</text>
</g>
<!-- Pellet Left&#45;&gt;Move Up -->
<g id="edge6" class="edge">
<title>Pellet Left&#45;&gt;Move Up</title>
<path fill="none" stroke="green" stroke-width="0.22" d="M568.64,-248.25C563.9,-223.63 553.81,-152.45 584.5,-107.42 606.46,-75.2 647.65,-56.9 679.69,-47.03"/>
<polygon fill="green" stroke="green" stroke-width="0.22" points="680.37,-50.48 689,-44.32 678.42,-43.76 680.37,-50.48"/>
</g>
<!-- Pellet Left&#45;&gt;Move Down -->
<g id="edge7" class="edge">
<title>Pellet Left&#45;&gt;Move Down</title>
<path fill="none" stroke="green" stroke-width="0.61" d="M580.33,-248.25C587.05,-242.64 596.36,-235.54 605.5,-230.75 664.78,-199.66 738.8,-177.3 787.76,-164.55"/>
<polygon fill="green" stroke="green" stroke-width="0.61" points="788.4,-167.99 797.22,-162.12 786.67,-161.21 788.4,-167.99"/>
</g>
<!-- Pellet Up -->
<g id="node3" class="node">
<title>Pellet Up</title>
<polygon fill="lightblue" stroke="black" points="1143,-339.69 1094,-339.69 1094,-321.19 1143,-321.19 1143,-339.69"/>
<text text-anchor="middle" x="1118.5" y="-327.14" font-family="Times,serif" font-size="9.00">Pellet Up</text>
</g>
<!-- Pellet Up&#45;&gt;Move Right -->
<g id="edge56" class="edge">
<title>Pellet Up&#45;&gt;Move Right</title>
<path fill="none" stroke="green" stroke-width="0.38" stroke-dasharray="1,5" d="M1093.57,-329.29C943.51,-328.23 165.77,-321.03 131.5,-285.19 114.78,-267.7 115.45,-248.85 131.5,-230.75 175.75,-180.83 363.67,-205.52 429.5,-194.75 482.83,-186.02 543.33,-173.13 584.89,-163.8"/>
<polygon fill="green" stroke="green" stroke-width="0.38" points="585.49,-167.25 594.47,-161.64 583.95,-160.43 585.49,-167.25"/>
</g>
<!-- Pellet Up&#45;&gt;Move Left -->
<g id="edge8" class="edge">
<title>Pellet Up&#45;&gt;Move Left</title>
<path fill="none" stroke="green" stroke-width="0.4" stroke-dasharray="1,5" d="M1115.12,-320.89C1106.4,-298.79 1082.63,-238.57 1065.99,-196.39"/>
<polygon fill="green" stroke="green" stroke-width="0.4" points="1069.28,-195.2 1062.35,-187.19 1062.77,-197.77 1069.28,-195.2"/>
</g>
<!-- Pellet Up&#45;&gt;Move Up -->
<g id="edge9" class="edge">
<title>Pellet Up&#45;&gt;Move Up</title>
<path fill="none" stroke="red" stroke-width="0.51" d="M1143.28,-327.95C1260.2,-320.89 1751.16,-290.91 1756.5,-285.19 1786.28,-253.28 1771.86,-140.35 1735.5,-107.42 1663.34,-42.06 960.18,-36.86 771.11,-36.65"/>
<polygon fill="red" stroke="red" stroke-width="0.51" points="771.21,-33.15 761.21,-36.65 771.2,-40.15 771.21,-33.15"/>
</g>
<!-- 11111 -->
<g id="node25" class="node">
<title>11111</title>
<ellipse fill="white" stroke="black" cx="1145.5" cy="-257.97" rx="27.22" ry="27.22"/>
<text text-anchor="middle" x="1145.5" y="-254.67" font-family="Times,serif" font-size="9.00">11111</text>
</g>
<!-- Pellet Up&#45;&gt;11111 -->
<g id="edge73" class="edge">
<title>Pellet Up&#45;&gt;11111</title>
<path fill="none" stroke="green" stroke-width="0.3" d="M1121.81,-320.8C1124.48,-313.84 1128.42,-303.56 1132.32,-293.38"/>
<polygon fill="green" stroke="green" stroke-width="0.3" points="1135.53,-294.77 1135.84,-284.18 1129,-292.26 1135.53,-294.77"/>
</g>
<!-- Pellet Down -->
<g id="node4" class="node">
<title>Pellet Down</title>
<polygon fill="lightblue" stroke="black" points="972.62,-267.22 912.38,-267.22 912.38,-248.72 972.62,-248.72 972.62,-267.22"/>
<text text-anchor="middle" x="942.5" y="-254.67" font-family="Times,serif" font-size="9.00">Pellet Down</text>
</g>
<!-- Pellet Down&#45;&gt;Move Right -->
<g id="edge10" class="edge">
<title>Pellet Down&#45;&gt;Move Right</title>
<path fill="none" stroke="green" stroke-width="0.66" stroke-dasharray="1,5" d="M931.78,-248.44C924.23,-242.78 913.69,-235.53 903.5,-230.75 893.44,-226.02 760.28,-187.7 685.54,-166.34"/>
<polygon fill="green" stroke="green" stroke-width="0.66" points="686.94,-163.1 676.36,-163.72 685.02,-169.83 686.94,-163.1"/>
</g>
<!-- Pellet Down&#45;&gt;Move Left -->
<g id="edge11" class="edge">
<title>Pellet Down&#45;&gt;Move Left</title>
<path fill="none" stroke="red" stroke-width="0.31" d="M951.17,-248.39C964.95,-234.76 992.53,-207.46 1014.83,-185.4"/>
<polygon fill="red" stroke="red" stroke-width="0.31" points="1017.18,-188 1021.83,-178.47 1012.26,-183.02 1017.18,-188"/>
</g>
<!-- Pellet Down&#45;&gt;Move Down -->
<g id="edge12" class="edge">
<title>Pellet Down&#45;&gt;Move Down</title>
<path fill="none" stroke="green" stroke-width="0.22" stroke-dasharray="1,5" d="M934.15,-248.39C921.9,-235.78 898.26,-211.48 877.8,-190.44"/>
<polygon fill="green" stroke="green" stroke-width="0.22" points="880.44,-188.13 870.96,-183.4 875.42,-193.01 880.44,-188.13"/>
</g>
<!-- 7814 -->
<g id="node24" class="node">
<title>7814</title>
<ellipse fill="white" stroke="black" cx="1233.5" cy="-151.08" rx="24.04" ry="24.04"/>
<text text-anchor="middle" x="1233.5" y="-147.78" font-family="Times,serif" font-size="9.00">7814</text>
</g>
<!-- Pellet Down&#45;&gt;7814 -->
<g id="edge58" class="edge">
<title>Pellet Down&#45;&gt;7814</title>
<path fill="none" stroke="green" stroke-width="0.15" d="M953.58,-248.25C961.11,-242.65 971.5,-235.54 981.5,-230.75 984.05,-229.52 1133.17,-183.21 1200.79,-162.23"/>
<polygon fill="green" stroke="green" stroke-width="0.15" points="1201.79,-165.58 1210.31,-159.27 1199.72,-158.89 1201.79,-165.58"/>
</g>
<!-- Power Pellet Right -->
<g id="node5" class="node">
<title>Power Pellet Right</title>
<polygon fill="lightblue" stroke="black" points="1573.88,-267.22 1491.12,-267.22 1491.12,-248.72 1573.88,-248.72 1573.88,-267.22"/>
<text text-anchor="middle" x="1532.5" y="-254.67" font-family="Times,serif" font-size="9.00">Power Pellet Right</text>
</g>
<!-- Power Pellet Right&#45;&gt;Move Left -->
<g id="edge13" class="edge">
<title>Power Pellet Right&#45;&gt;Move Left</title>
<path fill="none" stroke="green" stroke-width="0.51" stroke-dasharray="1,5" d="M1518.77,-248.24C1508.82,-242.34 1494.81,-234.88 1481.5,-230.75 1361.26,-193.4 1323.89,-219.83 1200.5,-194.75 1164.46,-187.42 1124.44,-176.05 1094.52,-166.89"/>
<polygon fill="green" stroke="green" stroke-width="0.51" points="1095.71,-163.6 1085.12,-163.99 1093.64,-170.29 1095.71,-163.6"/>
</g>
<!-- Power Pellet Right&#45;&gt;Move Up -->
<g id="edge14" class="edge">
<title>Power Pellet Right&#45;&gt;Move Up</title>
<path fill="none" stroke="green" stroke-width="0.2" stroke-dasharray="1,5" d="M1532.12,-248.39C1530.46,-222.22 1521.59,-143.02 1474.5,-107.42 1418.28,-64.91 925.03,-43.86 770.55,-38.26"/>
<polygon fill="green" stroke="green" stroke-width="0.2" points="770.87,-34.77 760.75,-37.91 770.62,-41.77 770.87,-34.77"/>
</g>
<!-- Power Pellet Right&#45;&gt;Move Down -->
<g id="edge15" class="edge">
<title>Power Pellet Right&#45;&gt;Move Down</title>
<path fill="none" stroke="green" stroke-width="0.21" stroke-dasharray="1,5" d="M1519.26,-248.28C1509.31,-242.23 1495.11,-234.58 1481.5,-230.75 1275.6,-172.67 1212.46,-230.3 1001.5,-194.75 964.32,-188.48 923.25,-177.53 891.89,-168.29"/>
<polygon fill="green" stroke="green" stroke-width="0.21" points="892.96,-164.96 882.37,-165.45 890.96,-171.66 892.96,-164.96"/>
</g>
<!-- Power Pellet Left -->
<g id="node6" class="node">
<title>Power Pellet Left</title>
<polygon fill="lightblue" stroke="black" points="343.25,-267.22 265.75,-267.22 265.75,-248.72 343.25,-248.72 343.25,-267.22"/>
<text text-anchor="middle" x="304.5" y="-254.67" font-family="Times,serif" font-size="9.00">Power Pellet Left</text>
</g>
<!-- Power Pellet Left&#45;&gt;Move Right -->
<g id="edge16" class="edge">
<title>Power Pellet Left&#45;&gt;Move Right</title>
<path fill="none" stroke="red" stroke-width="0.26" stroke-dasharray="1,5" d="M318.37,-248.29C327.73,-242.7 340.53,-235.6 352.5,-230.75 431.17,-198.81 527.22,-175.14 584.77,-162.49"/>
<polygon fill="red" stroke="red" stroke-width="0.26" points="585.29,-165.96 594.32,-160.42 583.8,-159.12 585.29,-165.96"/>
</g>
<!-- Power Pellet Left&#45;&gt;Move Left -->
<g id="edge17" class="edge">
<title>Power Pellet Left&#45;&gt;Move Left</title>
<path fill="none" stroke="red" stroke-width="0.19" d="M316.88,-248.24C326.2,-242.17 339.55,-234.51 352.5,-230.75 583.88,-163.4 655.9,-234.93 893.5,-194.75 931,-188.4 972.49,-176.73 1003.1,-167.19"/>
<polygon fill="red" stroke="red" stroke-width="0.19" points="1003.88,-170.62 1012.36,-164.27 1001.77,-163.94 1003.88,-170.62"/>
</g>
<!-- Power Pellet Left&#45;&gt;Move Up -->
<g id="edge18" class="edge">
<title>Power Pellet Left&#45;&gt;Move Up</title>
<path fill="none" stroke="green" stroke-width="0.52" d="M305.13,-248.22C307.51,-222.26 318.24,-145.1 363.5,-107.42 410.81,-68.04 591.54,-47.87 677.95,-40.31"/>
<polygon fill="green" stroke="green" stroke-width="0.52" points="678.06,-43.82 687.72,-39.48 677.46,-36.84 678.06,-43.82"/>
</g>
<!-- Power Pellet Left&#45;&gt;Move Down -->
<g id="edge19" class="edge">
<title>Power Pellet Left&#45;&gt;Move Down</title>
<path fill="none" stroke="red" stroke-width="0.16" stroke-dasharray="1,5" d="M316.92,-248.4C326.27,-242.41 339.63,-234.78 352.5,-230.75 494.97,-186.1 539.85,-222.77 686.5,-194.75 721.27,-188.1 759.63,-177.48 789.37,-168.5"/>
<polygon fill="red" stroke="red" stroke-width="0.16" points="790.34,-171.87 798.88,-165.6 788.29,-165.17 790.34,-171.87"/>
</g>
<!-- 8346 -->
<g id="node29" class="node">
<title>8346</title>
<ellipse fill="white" stroke="black" cx="396.5" cy="-151.08" rx="24.04" ry="24.04"/>
<text text-anchor="middle" x="396.5" y="-147.78" font-family="Times,serif" font-size="9.00">8346</text>
</g>
<!-- Power Pellet Left&#45;&gt;8346 -->
<g id="edge59" class="edge">
<title>Power Pellet Left&#45;&gt;8346</title>
<path fill="none" stroke="green" stroke-width="0.45" d="M312.03,-248.39C325.41,-233.13 353.81,-200.76 373.98,-177.76"/>
<polygon fill="green" stroke="green" stroke-width="0.45" points="376.58,-180.09 380.55,-170.27 371.32,-175.48 376.58,-180.09"/>
</g>
<!-- Power Pellet Up -->
<g id="node7" class="node">
<title>Power Pellet Up</title>
<polygon fill="lightblue" stroke="black" points="688.75,-267.22 614.25,-267.22 614.25,-248.72 688.75,-248.72 688.75,-267.22"/>
<text text-anchor="middle" x="651.5" y="-254.67" font-family="Times,serif" font-size="9.00">Power Pellet Up</text>
</g>
<!-- Power Pellet Up&#45;&gt;Move Right -->
<g id="edge20" class="edge">
<title>Power Pellet Up&#45;&gt;Move Right</title>
<path fill="none" stroke="green" stroke-width="0.56" stroke-dasharray="1,5" d="M650.19,-248.39C648.63,-238.16 645.9,-220.24 643.21,-202.61"/>
<polygon fill="green" stroke="green" stroke-width="0.56" points="646.73,-202.52 641.77,-193.16 639.81,-203.57 646.73,-202.52"/>
</g>
<!-- Power Pellet Up&#45;&gt;Move Left -->
<g id="edge21" class="edge">
<title>Power Pellet Up&#45;&gt;Move Left</title>
<path fill="none" stroke="green" stroke-width="0.32" stroke-dasharray="1,5" d="M663.83,-248.41C672.79,-242.59 685.41,-235.16 697.5,-230.75 780.7,-200.38 807.17,-214.52 893.5,-194.75 930.41,-186.29 971.73,-174.82 1002.42,-165.9"/>
<polygon fill="green" stroke="green" stroke-width="0.32" points="1003.32,-169.28 1011.94,-163.11 1001.36,-162.56 1003.32,-169.28"/>
</g>
<!-- Power Pellet Up&#45;&gt;Move Up -->
<g id="edge22" class="edge">
<title>Power Pellet Up&#45;&gt;Move Up</title>
<path fill="none" stroke="green" stroke-width="0.37" d="M657.28,-248.49C664.97,-236.85 678.53,-215.05 686.5,-194.75 701.02,-157.77 711.06,-113.68 717.16,-81.47"/>
<polygon fill="green" stroke="green" stroke-width="0.37" points="720.53,-82.48 718.9,-72.01 713.65,-81.21 720.53,-82.48"/>
</g>
<!-- Power Pellet Up&#45;&gt;Move Down -->
<g id="edge23" class="edge">
<title>Power Pellet Up&#45;&gt;Move Down</title>
<path fill="none" stroke="green" stroke-width="0.14" stroke-dasharray="1,5" d="M666.38,-248.41C675.37,-243.26 687.07,-236.58 697.5,-230.75 729.4,-212.88 765.47,-193.04 793.41,-177.75"/>
<polygon fill="green" stroke="green" stroke-width="0.14" points="794.89,-180.93 801.98,-173.06 791.53,-174.79 794.89,-180.93"/>
</g>
<!-- Power Pellet Down -->
<g id="node8" class="node">
<title>Power Pellet Down</title>
<polygon fill="lightblue" stroke="black" points="1276.38,-267.22 1190.62,-267.22 1190.62,-248.72 1276.38,-248.72 1276.38,-267.22"/>
<text text-anchor="middle" x="1233.5" y="-254.67" font-family="Times,serif" font-size="9.00">Power Pellet Down</text>
</g>
<!-- Power Pellet Down&#45;&gt;Move Right -->
<g id="edge24" class="edge">
<title>Power Pellet Down&#45;&gt;Move Right</title>
<path fill="none" stroke="green" stroke-width="0.22" d="M1219.96,-248.35C1209.79,-242.34 1195.3,-234.7 1181.5,-230.75 1012.46,-182.3 960.42,-226.64 787.5,-194.75 752.63,-188.31 714.18,-177.49 684.68,-168.35"/>
<polygon fill="green" stroke="green" stroke-width="0.22" points="685.95,-165.08 675.36,-165.43 683.85,-171.76 685.95,-165.08"/>
</g>
<!-- Power Pellet Down&#45;&gt;Move Left -->
<g id="edge25" class="edge">
<title>Power Pellet Down&#45;&gt;Move Left</title>
<path fill="none" stroke="green" stroke-width="0.37" d="M1218.19,-248.32C1196.93,-236.32 1157.28,-213.91 1123.5,-194.75 1112.71,-188.62 1101.05,-182 1090.22,-175.84"/>
<polygon fill="green" stroke="green" stroke-width="0.37" points="1092.25,-172.97 1081.83,-171.07 1088.79,-179.05 1092.25,-172.97"/>
</g>
<!-- Power Pellet Down&#45;&gt;Move Up -->
<g id="edge26" class="edge">
<title>Power Pellet Down&#45;&gt;Move Up</title>
<path fill="none" stroke="green" stroke-width="0.27" d="M1228.47,-248.46C1212.65,-222.48 1160.98,-143.78 1095.5,-107.42 989.92,-48.78 844.21,-37.92 770.77,-36.44"/>
<polygon fill="green" stroke="green" stroke-width="0.27" points="770.94,-32.94 760.89,-36.29 770.83,-39.94 770.94,-32.94"/>
</g>
<!-- Power Pellet Down&#45;&gt;Move Down -->
<g id="edge27" class="edge">
<title>Power Pellet Down&#45;&gt;Move Down</title>
<path fill="none" stroke="red" stroke-width="0.37" d="M1218.95,-248.29C1208.77,-242.56 1194.69,-235.3 1181.5,-230.75 1104.38,-204.14 1080.97,-213.2 1001.5,-194.75 964.9,-186.24 923.98,-175.38 892.55,-166.75"/>
<polygon fill="red" stroke="red" stroke-width="0.37" points="893.81,-163.46 883.24,-164.18 891.95,-170.21 893.81,-163.46"/>
</g>
<!-- Power Pellet Down&#45;&gt;7814 -->
<g id="edge57" class="edge">
<title>Power Pellet Down&#45;&gt;7814</title>
<path fill="none" stroke="green" stroke-width="0.31" d="M1233.5,-248.39C1233.5,-234.85 1233.5,-207.81 1233.5,-185.82"/>
<polygon fill="green" stroke="green" stroke-width="0.31" points="1237,-185.99 1233.5,-175.99 1230,-185.99 1237,-185.99"/>
</g>
<!-- Ghost Info Right -->
<g id="node9" class="node">
<title>Ghost Info Right</title>
<polygon fill="lightblue" stroke="black" points="526.88,-267.22 450.12,-267.22 450.12,-248.72 526.88,-248.72 526.88,-267.22"/>
<text text-anchor="middle" x="488.5" y="-254.67" font-family="Times,serif" font-size="9.00">Ghost Info Right</text>
</g>
<!-- Ghost Info Right&#45;&gt;Move Right -->
<g id="edge28" class="edge">
<title>Ghost Info Right&#45;&gt;Move Right</title>
<path fill="none" stroke="red" stroke-width="0.27" stroke-dasharray="1,5" d="M500.53,-248.39C520.67,-234.01 562.13,-204.43 593.81,-181.83"/>
<polygon fill="red" stroke="red" stroke-width="0.27" points="595.61,-184.84 601.72,-176.19 591.54,-179.15 595.61,-184.84"/>
</g>
<!-- Ghost Info Right&#45;&gt;Move Down -->
<g id="edge29" class="edge">
<title>Ghost Info Right&#45;&gt;Move Down</title>
<path fill="none" stroke="green" stroke-width="0.46" stroke-dasharray="1,5" d="M501.59,-248.37C510.77,-242.68 523.48,-235.43 535.5,-230.75 599.79,-205.7 619.69,-211.96 686.5,-194.75 720.51,-185.98 758.53,-175.46 788.29,-167.05"/>
<polygon fill="green" stroke="green" stroke-width="0.46" points="789.12,-170.46 797.79,-164.36 787.21,-163.72 789.12,-170.46"/>
</g>
<!-- Ghost Info Left -->
<g id="node10" class="node">
<title>Ghost Info Left</title>
<polygon fill="lightblue" stroke="black" points="1062.25,-267.22 990.75,-267.22 990.75,-248.72 1062.25,-248.72 1062.25,-267.22"/>
<text text-anchor="middle" x="1026.5" y="-254.67" font-family="Times,serif" font-size="9.00">Ghost Info Left</text>
</g>
<!-- Ghost Info Left&#45;&gt;Move Right -->
<g id="edge30" class="edge">
<title>Ghost Info Left&#45;&gt;Move Right</title>
<path fill="none" stroke="red" stroke-width="0.61" d="M1014.46,-248.41C1005.71,-242.58 993.37,-235.15 981.5,-230.75 899.29,-200.22 872.91,-214.61 787.5,-194.75 753.26,-186.78 715.18,-176.09 685.7,-167.4"/>
<polygon fill="red" stroke="red" stroke-width="0.61" points="686.72,-164.05 676.13,-164.56 684.72,-170.76 686.72,-164.05"/>
</g>
<!-- Ghost Info Left&#45;&gt;Move Left -->
<g id="edge31" class="edge">
<title>Ghost Info Left&#45;&gt;Move Left</title>
<path fill="none" stroke="red" stroke-width="0.25" d="M1028.3,-248.39C1030.61,-237.35 1034.81,-217.36 1038.78,-198.44"/>
<polygon fill="red" stroke="red" stroke-width="0.25" points="1042.18,-199.27 1040.81,-188.77 1035.33,-197.84 1042.18,-199.27"/>
</g>
<!-- Ghost Info Left&#45;&gt;Move Down -->
<g id="edge32" class="edge">
<title>Ghost Info Left&#45;&gt;Move Down</title>
<path fill="none" stroke="green" stroke-width="0.12" d="M1011.95,-248.4C1003.16,-243.24 991.71,-236.57 981.5,-230.75 950.19,-212.89 914.76,-193.13 887.25,-177.88"/>
<polygon fill="green" stroke="green" stroke-width="0.12" points="889.21,-174.96 878.76,-173.17 885.81,-181.08 889.21,-174.96"/>
</g>
<!-- 9210 -->
<g id="node22" class="node">
<title>9210</title>
<ellipse fill="white" stroke="black" cx="1369.5" cy="-151.08" rx="24.04" ry="24.04"/>
<text text-anchor="middle" x="1369.5" y="-147.78" font-family="Times,serif" font-size="9.00">9210</text>
</g>
<!-- Ghost Info Left&#45;&gt;9210 -->
<g id="edge63" class="edge">
<title>Ghost Info Left&#45;&gt;9210</title>
<path fill="none" stroke="green" stroke-width="1.1" d="M1052.14,-248.28C1068.46,-242.9 1090.11,-236.02 1109.5,-230.75 1178.58,-211.95 1198.3,-216.52 1266.5,-194.75 1290.77,-187 1317.31,-175.94 1337.37,-167.02"/>
<polygon fill="green" stroke="green" stroke-width="1.1" points="1338.6,-170.31 1346.28,-163.01 1335.72,-163.93 1338.6,-170.31"/>
</g>
<!-- Ghost Info Up -->
<g id="node11" class="node">
<title>Ghost Info Up</title>
<polygon fill="lightblue" stroke="black" points="1472.75,-267.22 1404.25,-267.22 1404.25,-248.72 1472.75,-248.72 1472.75,-267.22"/>
<text text-anchor="middle" x="1438.5" y="-254.67" font-family="Times,serif" font-size="9.00">Ghost Info Up</text>
</g>
<!-- Ghost Info Up&#45;&gt;Move Right -->
<g id="edge33" class="edge">
<title>Ghost Info Up&#45;&gt;Move Right</title>
<path fill="none" stroke="red" stroke-width="0.13" d="M1416.88,-248.33C1400.79,-242.31 1378.12,-234.67 1357.5,-230.75 1108.14,-183.28 1037.75,-237.28 787.5,-194.75 752.42,-188.78 713.83,-177.9 684.31,-168.61"/>
<polygon fill="red" stroke="red" stroke-width="0.13" points="685.44,-165.3 674.85,-165.59 683.31,-171.97 685.44,-165.3"/>
</g>
<!-- Ghost Info Up&#45;&gt;Move Left -->
<g id="edge34" class="edge">
<title>Ghost Info Up&#45;&gt;Move Left</title>
<path fill="none" stroke="red" stroke-width="0.17" stroke-dasharray="1,5" d="M1425.58,-248.45C1416.2,-242.65 1403.02,-235.22 1390.5,-230.75 1309.58,-201.79 1284.17,-214.38 1200.5,-194.75 1164.66,-186.34 1124.58,-175.01 1094.59,-166.14"/>
<polygon fill="red" stroke="red" stroke-width="0.17" points="1095.65,-162.8 1085.07,-163.3 1093.66,-169.51 1095.65,-162.8"/>
</g>
<!-- Ghost Info Up&#45;&gt;Move Up -->
<g id="edge35" class="edge">
<title>Ghost Info Up&#45;&gt;Move Up</title>
<path fill="none" stroke="green" stroke-width="0.47" stroke-dasharray="1,5" d="M1420.29,-248.32C1398.84,-237.6 1362.82,-217.9 1336.5,-194.75 1299.15,-161.89 1309.85,-131.81 1266.5,-107.42 1181.87,-59.81 886.18,-43.13 770.96,-38.36"/>
<polygon fill="green" stroke="green" stroke-width="0.47" points="771.23,-34.86 761.1,-37.96 770.95,-41.86 771.23,-34.86"/>
</g>
<!-- Ghost Info Up&#45;&gt;Move Down -->
<g id="edge36" class="edge">
<title>Ghost Info Up&#45;&gt;Move Down</title>
<path fill="none" stroke="red" stroke-width="0.19" d="M1416.15,-248.31C1400.08,-242.44 1377.75,-235 1357.5,-230.75 1201.86,-198.07 1157.96,-223.2 1001.5,-194.75 964.41,-188 923.33,-177.06 891.95,-167.94"/>
<polygon fill="red" stroke="red" stroke-width="0.19" points="892.98,-164.6 882.4,-165.14 891.01,-171.31 892.98,-164.6"/>
</g>
<!-- Ghost Info Up&#45;&gt;9210 -->
<g id="edge65" class="edge">
<title>Ghost Info Up&#45;&gt;9210</title>
<path fill="none" stroke="red" stroke-width="0.11" d="M1432.85,-248.39C1423.15,-233.64 1402.91,-202.86 1387.9,-180.05"/>
<polygon fill="red" stroke="red" stroke-width="0.11" points="1390.96,-178.33 1382.54,-171.9 1385.11,-182.17 1390.96,-178.33"/>
</g>
<!-- 10889 -->
<g id="node26" class="node">
<title>10889</title>
<ellipse fill="white" stroke="black" cx="1438.5" cy="-151.08" rx="27.22" ry="27.22"/>
<text text-anchor="middle" x="1438.5" y="-147.78" font-family="Times,serif" font-size="9.00">10889</text>
</g>
<!-- Ghost Info Up&#45;&gt;10889 -->
<g id="edge69" class="edge">
<title>Ghost Info Up&#45;&gt;10889</title>
<path fill="none" stroke="green" stroke-width="0.41" d="M1438.5,-248.39C1438.5,-235.49 1438.5,-210.37 1438.5,-189.01"/>
<polygon fill="green" stroke="green" stroke-width="0.41" points="1442,-189.21 1438.5,-179.21 1435,-189.21 1442,-189.21"/>
</g>
<!-- Ghost Info Down -->
<g id="node12" class="node">
<title>Ghost Info Down</title>
<polygon fill="lightblue" stroke="black" points="1361.38,-339.69 1281.62,-339.69 1281.62,-321.19 1361.38,-321.19 1361.38,-339.69"/>
<text text-anchor="middle" x="1321.5" y="-327.14" font-family="Times,serif" font-size="9.00">Ghost Info Down</text>
</g>
<!-- Ghost Info Down&#45;&gt;Move Right -->
<g id="edge37" class="edge">
<title>Ghost Info Down&#45;&gt;Move Right</title>
<path fill="none" stroke="red" stroke-width="0.31" stroke-dasharray="1,5" d="M1281.21,-327.34C1246.98,-325.58 1196.52,-323.07 1152.5,-321.19 1097.62,-318.85 202.62,-324.73 164.5,-285.19 147.7,-267.77 148.58,-248.97 164.5,-230.75 203.59,-185.98 370.92,-204.78 429.5,-194.75 482.76,-185.62 543.27,-172.79 584.86,-163.59"/>
<polygon fill="red" stroke="red" stroke-width="0.31" points="585.55,-167.02 594.55,-161.43 584.03,-160.19 585.55,-167.02"/>
</g>
<!-- Ghost Info Down&#45;&gt;Move Left -->
<g id="edge38" class="edge">
<title>Ghost Info Down&#45;&gt;Move Left</title>
<path fill="none" stroke="green" stroke-width="0.28" stroke-dasharray="1,5" d="M1331.66,-320.81C1340.4,-312.66 1352.39,-299.56 1357.5,-285.19 1365.6,-262.39 1372.58,-249.67 1357.5,-230.75 1312.89,-174.75 1269.87,-212.42 1200.5,-194.75 1164.83,-185.65 1124.74,-174.36 1094.7,-165.67"/>
<polygon fill="green" stroke="green" stroke-width="0.28" points="1095.9,-162.38 1085.32,-162.95 1093.95,-169.1 1095.9,-162.38"/>
</g>
<!-- Ghost Info Down&#45;&gt;Move Down -->
<g id="edge39" class="edge">
<title>Ghost Info Down&#45;&gt;Move Down</title>
<path fill="none" stroke="red" stroke-width="0.28" d="M1281.27,-327.31C1166.17,-321.01 842.77,-301.89 827.5,-285.19 807.11,-262.89 810.81,-228.86 819.38,-200.79"/>
<polygon fill="red" stroke="red" stroke-width="0.28" points="822.62,-202.13 822.45,-191.54 815.98,-199.93 822.62,-202.13"/>
</g>
<!-- 11017 -->
<g id="node27" class="node">
<title>11017</title>
<ellipse fill="white" stroke="black" cx="1321.5" cy="-257.97" rx="27.22" ry="27.22"/>
<text text-anchor="middle" x="1321.5" y="-254.67" font-family="Times,serif" font-size="9.00">11017</text>
</g>
<!-- Ghost Info Down&#45;&gt;11017 -->
<g id="edge71" class="edge">
<title>Ghost Info Down&#45;&gt;11017</title>
<path fill="none" stroke="green" stroke-width="0.42" d="M1321.5,-320.8C1321.5,-314.45 1321.5,-305.33 1321.5,-296.04"/>
<polygon fill="green" stroke="green" stroke-width="0.42" points="1325,-296.26 1321.5,-286.26 1318,-296.26 1325,-296.26"/>
</g>
<!-- 8720 -->
<g id="node28" class="node">
<title>8720</title>
<ellipse fill="white" stroke="black" cx="1615.5" cy="-257.97" rx="24.04" ry="24.04"/>
<text text-anchor="middle" x="1615.5" y="-254.67" font-family="Times,serif" font-size="9.00">8720</text>
</g>
<!-- Ghost Info Down&#45;&gt;8720 -->
<g id="edge61" class="edge">
<title>Ghost Info Down&#45;&gt;8720</title>
<path fill="none" stroke="red" stroke-width="0.38" d="M1361.75,-328.78C1414.6,-326.56 1509.26,-317.87 1582.5,-285.19 1585.04,-284.06 1587.56,-282.68 1590,-281.16"/>
<polygon fill="red" stroke="red" stroke-width="0.38" points="1591.82,-284.16 1597.95,-275.52 1587.77,-278.45 1591.82,-284.16"/>
</g>
<!-- PAC&#45;MAN Right -->
<g id="node13" class="node">
<title>PAC&#45;MAN Right</title>
<polygon fill="lightblue" stroke="black" points="79,-267.22 0,-267.22 0,-248.72 79,-248.72 79,-267.22"/>
<text text-anchor="middle" x="39.5" y="-254.67" font-family="Times,serif" font-size="9.00">PAC&#45;MAN Right</text>
</g>
<!-- PAC&#45;MAN Right&#45;&gt;Move Right -->
<g id="edge40" class="edge">
<title>PAC&#45;MAN Right&#45;&gt;Move Right</title>
<path fill="none" stroke="green" stroke-width="0.31" d="M53.63,-248.43C64.22,-242.45 79.27,-234.83 93.5,-230.75 237.86,-189.33 281.12,-218 429.5,-194.75 482.89,-186.38 543.38,-173.43 584.92,-163.99"/>
<polygon fill="green" stroke="green" stroke-width="0.31" points="585.63,-167.42 594.6,-161.78 584.07,-160.6 585.63,-167.42"/>
</g>
<!-- PAC&#45;MAN Right&#45;&gt;Move Up -->
<g id="edge41" class="edge">
<title>PAC&#45;MAN Right&#45;&gt;Move Up</title>
<path fill="none" stroke="red" stroke-width="0.12" d="M47.41,-248.35C72.12,-222.05 151.15,-142.54 234.5,-107.42 387.64,-42.89 588.96,-35.5 678.33,-35.75"/>
<polygon fill="red" stroke="red" stroke-width="0.12" points="678.22,-39.25 688.24,-35.81 678.26,-32.25 678.22,-39.25"/>
</g>
<!-- PAC&#45;MAN Left -->
<g id="node14" class="node">
<title>PAC&#45;MAN Left</title>
<polygon fill="lightblue" stroke="black" points="780.38,-267.22 706.62,-267.22 706.62,-248.72 780.38,-248.72 780.38,-267.22"/>
<text text-anchor="middle" x="743.5" y="-254.67" font-family="Times,serif" font-size="9.00">PAC&#45;MAN Left</text>
</g>
<!-- PAC&#45;MAN Left&#45;&gt;Move Right -->
<g id="edge42" class="edge">
<title>PAC&#45;MAN Left&#45;&gt;Move Right</title>
<path fill="none" stroke="green" stroke-width="0.3" d="M734.66,-248.39C721.17,-235.29 694.68,-209.55 672.46,-187.98"/>
<polygon fill="green" stroke="green" stroke-width="0.3" points="675.06,-185.62 665.45,-181.17 670.18,-190.65 675.06,-185.62"/>
</g>
<!-- PAC&#45;MAN Left&#45;&gt;Move Left -->
<g id="edge43" class="edge">
<title>PAC&#45;MAN Left&#45;&gt;Move Left</title>
<path fill="none" stroke="red" stroke-width="0.22" stroke-dasharray="1,5" d="M768.72,-248.3C820.17,-230.6 937.87,-190.13 1003.02,-167.72"/>
<polygon fill="red" stroke="red" stroke-width="0.22" points="1003.99,-171.09 1012.31,-164.53 1001.71,-164.47 1003.99,-171.09"/>
</g>
<!-- PAC&#45;MAN Left&#45;&gt;Move Up -->
<g id="edge44" class="edge">
<title>PAC&#45;MAN Left&#45;&gt;Move Up</title>
<path fill="none" stroke="red" stroke-width="0.27" d="M742.76,-248.33C740.4,-221.04 733,-135.29 728.38,-81.68"/>
<polygon fill="red" stroke="red" stroke-width="0.27" points="731.88,-81.49 727.53,-71.83 724.9,-82.09 731.88,-81.49"/>
</g>
<!-- PAC&#45;MAN Left&#45;&gt;Move Down -->
<g id="edge45" class="edge">
<title>PAC&#45;MAN Left&#45;&gt;Move Down</title>
<path fill="none" stroke="green" stroke-width="0.17" stroke-dasharray="1,5" d="M751.44,-248.39C762.96,-235.92 785.06,-212.03 804.37,-191.15"/>
<polygon fill="green" stroke="green" stroke-width="0.17" points="806.93,-193.54 811.15,-183.82 801.79,-188.79 806.93,-193.54"/>
</g>
<!-- PAC&#45;MAN Up -->
<g id="node15" class="node">
<title>PAC&#45;MAN Up</title>
<polygon fill="lightblue" stroke="black" points="431.88,-267.22 361.12,-267.22 361.12,-248.72 431.88,-248.72 431.88,-267.22"/>
<text text-anchor="middle" x="396.5" y="-254.67" font-family="Times,serif" font-size="9.00">PAC&#45;MAN Up</text>
</g>
<!-- PAC&#45;MAN Up&#45;&gt;Move Right -->
<g id="edge46" class="edge">
<title>PAC&#45;MAN Up&#45;&gt;Move Right</title>
<path fill="none" stroke="green" stroke-width="0.11" d="M410.01,-248.42C418.8,-243.02 430.62,-236.09 441.5,-230.75 489.87,-206.99 547.29,-184.37 587.05,-169.53"/>
<polygon fill="green" stroke="green" stroke-width="0.11" points="588.19,-172.84 596.35,-166.08 585.76,-166.28 588.19,-172.84"/>
</g>
<!-- PAC&#45;MAN Up&#45;&gt;Move Left -->
<g id="edge47" class="edge">
<title>PAC&#45;MAN Up&#45;&gt;Move Left</title>
<path fill="none" stroke="green" stroke-width="0.39" stroke-dasharray="1,5" d="M408.03,-248.28C416.74,-242.23 429.25,-234.58 441.5,-230.75 633.81,-170.51 695.02,-229.64 893.5,-194.75 930.79,-188.19 972.09,-176.6 1002.67,-167.15"/>
<polygon fill="green" stroke="green" stroke-width="0.39" points="1003.55,-170.55 1012.05,-164.22 1001.46,-163.86 1003.55,-170.55"/>
</g>
<!-- PAC&#45;MAN Up&#45;&gt;Move Up -->
<g id="edge48" class="edge">
<title>PAC&#45;MAN Up&#45;&gt;Move Up</title>
<path fill="none" stroke="red" stroke-width="0.11" stroke-dasharray="1,5" d="M403.77,-248.45C425.23,-223.74 491,-151.07 558.5,-107.42 597.21,-82.38 646.27,-62.76 680.99,-50.61"/>
<polygon fill="red" stroke="red" stroke-width="0.11" points="681.91,-53.99 690.23,-47.43 679.63,-47.37 681.91,-53.99"/>
</g>
<!-- PAC&#45;MAN Up&#45;&gt;Move Down -->
<g id="edge49" class="edge">
<title>PAC&#45;MAN Up&#45;&gt;Move Down</title>
<path fill="none" stroke="green" stroke-width="0.2" stroke-dasharray="1,5" d="M408.49,-248.27C417.21,-242.38 429.55,-234.93 441.5,-230.75 545.38,-194.38 578.82,-217.48 686.5,-194.75 721.01,-187.46 759.22,-176.89 788.95,-168.09"/>
<polygon fill="green" stroke="green" stroke-width="0.2" points="789.82,-171.48 798.4,-165.27 787.82,-164.78 789.82,-171.48"/>
</g>
<!-- PAC&#45;MAN Up&#45;&gt;8346 -->
<g id="edge66" class="edge">
<title>PAC&#45;MAN Up&#45;&gt;8346</title>
<path fill="none" stroke="green" stroke-width="0.21" d="M396.5,-248.39C396.5,-234.85 396.5,-207.81 396.5,-185.82"/>
<polygon fill="green" stroke="green" stroke-width="0.21" points="400,-185.83 396.5,-175.83 393,-185.83 400,-185.83"/>
</g>
<!-- PACM&#45;MAN Down -->
<g id="node16" class="node">
<title>PACM&#45;MAN Down</title>
<polygon fill="lightblue" stroke="black" points="1747.62,-267.22 1657.38,-267.22 1657.38,-248.72 1747.62,-248.72 1747.62,-267.22"/>
<text text-anchor="middle" x="1702.5" y="-254.67" font-family="Times,serif" font-size="9.00">PACM&#45;MAN Down</text>
</g>
<!-- PACM&#45;MAN Down&#45;&gt;Move Left -->
<g id="edge50" class="edge">
<title>PACM&#45;MAN Down&#45;&gt;Move Left</title>
<path fill="none" stroke="red" stroke-width="0.62" d="M1688.41,-248.32C1677.83,-242.28 1662.78,-234.64 1648.5,-230.75 1455.78,-178.21 1397.14,-229.9 1200.5,-194.75 1164.3,-188.27 1124.29,-176.86 1094.41,-167.47"/>
<polygon fill="red" stroke="red" stroke-width="0.62" points="1095.77,-164.23 1085.18,-164.53 1093.64,-170.9 1095.77,-164.23"/>
</g>
<!-- PACM&#45;MAN Down&#45;&gt;Move Up -->
<g id="edge51" class="edge">
<title>PACM&#45;MAN Down&#45;&gt;Move Up</title>
<path fill="none" stroke="red" stroke-width="0.38" stroke-dasharray="1,5" d="M1695.25,-248.52C1671.95,-222.04 1595.6,-140.43 1512.5,-107.42 1376.14,-53.24 918.52,-40.24 770.86,-37.43"/>
<polygon fill="red" stroke="red" stroke-width="0.38" points="771.01,-33.93 760.94,-37.24 770.88,-40.93 771.01,-33.93"/>
</g>
<!-- PACM&#45;MAN Down&#45;&gt;Move Down -->
<g id="edge52" class="edge">
<title>PACM&#45;MAN Down&#45;&gt;Move Down</title>
<path fill="none" stroke="red" stroke-width="0.29" d="M1688.88,-248.47C1678.3,-242.34 1663.03,-234.51 1648.5,-230.75 1369.73,-158.42 1285.94,-239.86 1001.5,-194.75 964.26,-188.84 923.19,-177.88 891.85,-168.55"/>
<polygon fill="red" stroke="red" stroke-width="0.29" points="893.03,-165.25 882.45,-165.71 891.01,-171.95 893.03,-165.25"/>
</g>
<!-- 9379 -->
<g id="node23" class="node">
<title>9379</title>
<ellipse fill="white" stroke="black" cx="1702.5" cy="-151.08" rx="24.04" ry="24.04"/>
<text text-anchor="middle" x="1702.5" y="-147.78" font-family="Times,serif" font-size="9.00">9379</text>
</g>
<!-- PACM&#45;MAN Down&#45;&gt;9379 -->
<g id="edge64" class="edge">
<title>PACM&#45;MAN Down&#45;&gt;9379</title>
<path fill="none" stroke="green" stroke-width="0.27" d="M1702.5,-248.39C1702.5,-234.85 1702.5,-207.81 1702.5,-185.82"/>
<polygon fill="green" stroke="green" stroke-width="0.27" points="1706,-185.92 1702.5,-175.92 1699,-185.92 1706,-185.92"/>
</g>
<!-- Power&#45;Up Time -->
<g id="node17" class="node">
<title>Power&#45;Up Time</title>
<polygon fill="lightblue" stroke="black" points="247.38,-267.22 173.62,-267.22 173.62,-248.72 247.38,-248.72 247.38,-267.22"/>
<text text-anchor="middle" x="210.5" y="-254.67" font-family="Times,serif" font-size="9.00">Power&#45;Up Time</text>
</g>
<!-- Power&#45;Up Time&#45;&gt;Move Right -->
<g id="edge53" class="edge">
<title>Power&#45;Up Time&#45;&gt;Move Right</title>
<path fill="none" stroke="green" stroke-width="0.39" stroke-dasharray="1,5" d="M223.25,-248.25C232.19,-242.5 244.63,-235.23 256.5,-230.75 257.47,-230.38 481.35,-184 584.52,-162.64"/>
<polygon fill="green" stroke="green" stroke-width="0.39" points="585.05,-166.1 594.13,-160.65 583.63,-159.25 585.05,-166.1"/>
</g>
<!-- Power&#45;Up Time&#45;&gt;Move Left -->
<g id="edge54" class="edge">
<title>Power&#45;Up Time&#45;&gt;Move Left</title>
<path fill="none" stroke="red" stroke-width="0.11" stroke-dasharray="1,5" d="M221.92,-248.46C230.84,-242.32 243.81,-234.5 256.5,-230.75 528.44,-150.4 613.67,-240.63 893.5,-194.75 931.03,-188.59 972.52,-176.9 1003.12,-167.31"/>
<polygon fill="red" stroke="red" stroke-width="0.11" points="1004.02,-170.7 1012.49,-164.33 1001.9,-164.03 1004.02,-170.7"/>
</g>
<!-- Power&#45;Up Time&#45;&gt;Move Up -->
<g id="edge55" class="edge">
<title>Power&#45;Up Time&#45;&gt;Move Up</title>
<path fill="none" stroke="red" stroke-width="0.18" d="M213.48,-248.43C223.05,-222.36 255.7,-143.44 311.5,-107.42 371.74,-68.54 584.06,-47.61 678.55,-40.04"/>
<polygon fill="red" stroke="red" stroke-width="0.18" points="678.7,-43.54 688.4,-39.27 678.15,-36.56 678.7,-43.54"/>
</g>
<!-- 11111&#45;&gt;Move Left -->
<g id="edge74" class="edge">
<title>11111&#45;&gt;Move Left</title>
<path fill="none" stroke="red" stroke-width="0.26" d="M1127.26,-237.24C1114.22,-223.14 1096.32,-203.79 1080.88,-187.09"/>
<polygon fill="red" stroke="red" stroke-width="0.26" points="1083.61,-184.89 1074.25,-179.92 1078.47,-189.64 1083.61,-184.89"/>
</g>
<!-- 10889&#45;&gt;Move Up -->
<g id="edge70" class="edge">
<title>10889&#45;&gt;Move Up</title>
<path fill="none" stroke="green" stroke-width="0.42" d="M1424.58,-127.36C1418.73,-119.76 1411.24,-112.04 1402.5,-107.42 1292.39,-49.12 904.78,-38.89 770.62,-37.09"/>
<polygon fill="green" stroke="green" stroke-width="0.42" points="770.96,-33.6 760.92,-36.97 770.88,-40.6 770.96,-33.6"/>
</g>
<!-- 11017&#45;&gt;Move Left -->
<g id="edge72" class="edge">
<title>11017&#45;&gt;Move Left</title>
<path fill="none" stroke="red" stroke-width="0.29" d="M1300.5,-240.02C1295.74,-236.66 1290.59,-233.36 1285.5,-230.75 1222.87,-198.54 1144.3,-175.53 1095.23,-163.02"/>
<polygon fill="red" stroke="red" stroke-width="0.29" points="1096.2,-159.65 1085.65,-160.61 1094.49,-166.44 1096.2,-159.65"/>
</g>
<!-- 8720&#45;&gt;Move Left -->
<g id="edge62" class="edge">
<title>8720&#45;&gt;Move Left</title>
<path fill="none" stroke="red" stroke-width="0.14" d="M1598.55,-240.47C1593.72,-236.65 1588.2,-233.04 1582.5,-230.75 1424.31,-167.06 1368.16,-225.91 1200.5,-194.75 1164.18,-187.99 1123.98,-176.53 1094.05,-167.18"/>
<polygon fill="red" stroke="red" stroke-width="0.14" points="1095.1,-163.85 1084.51,-164.17 1092.99,-170.52 1095.1,-163.85"/>
</g>
<!-- 8720&#45;&gt;9210 -->
<g id="edge68" class="edge">
<title>8720&#45;&gt;9210</title>
<path fill="none" stroke="red" stroke-width="0.45" d="M1598.38,-240.87C1593.55,-237.05 1588.08,-233.33 1582.5,-230.75 1508.49,-196.41 1471.84,-237.73 1402.5,-194.75 1396.75,-191.18 1391.63,-186.24 1387.22,-180.97"/>
<polygon fill="red" stroke="red" stroke-width="0.45" points="1390.14,-179.02 1381.33,-173.14 1384.54,-183.23 1390.14,-179.02"/>
</g>
<!-- 8720&#45;&gt;7814 -->
<g id="edge67" class="edge">
<title>8720&#45;&gt;7814</title>
<path fill="none" stroke="red" stroke-width="0.19" d="M1598.47,-240.67C1593.63,-236.85 1588.14,-233.19 1582.5,-230.75 1481.09,-186.86 1443.02,-224.11 1336.5,-194.75 1311.32,-187.8 1284.08,-176.33 1263.93,-167.03"/>
<polygon fill="red" stroke="red" stroke-width="0.19" points="1265.45,-163.87 1254.91,-162.78 1262.47,-170.21 1265.45,-163.87"/>
</g>
<!-- 8346&#45;&gt;Move Up -->
<g id="edge60" class="edge">
<title>8346&#45;&gt;Move Up</title>
<path fill="none" stroke="red" stroke-width="0.35" d="M416.73,-137.36C432.13,-128.1 454.07,-115.77 474.5,-107.42 543.83,-79.07 628.41,-57.75 679.28,-46.26"/>
<polygon fill="red" stroke="red" stroke-width="0.35" points="679.78,-49.74 688.78,-44.15 678.25,-42.91 679.78,-49.74"/>
</g>
</g>
</svg>
