<?xml version="1.0" encoding="UTF-8" standalone="no"?>
<!DOCTYPE svg PUBLIC "-//W3C//DTD SVG 1.1//EN"
 "http://www.w3.org/Graphics/SVG/1.1/DTD/svg11.dtd">
<!-- Generated by graphviz version 12.0.0 (20240704.0754)
 -->
<!-- Pages: 1 -->
<svg width="1650pt" height="376pt"
 viewBox="0.00 0.00 1649.72 376.33" xmlns="http://www.w3.org/2000/svg" xmlns:xlink="http://www.w3.org/1999/xlink">
<g id="graph0" class="graph" transform="scale(1 1) rotate(0) translate(4 372.33)">
<polygon fill="white" stroke="none" points="-4,4 -4,-372.33 1645.72,-372.33 1645.72,4 -4,4"/>
<!-- Pellet Right -->
<g id="node1" class="node">
<title>Pellet Right</title>
<polygon fill="lightblue" stroke="black" points="374.85,-281.54 317.6,-281.54 317.6,-263.04 374.85,-263.04 374.85,-281.54"/>
<text text-anchor="middle" x="346.22" y="-268.99" font-family="Times,serif" font-size="9.00">Pellet Right</text>
</g>
<!-- Move Up -->
<g id="node20" class="node">
<title>Move Up</title>
<ellipse fill="lightblue" stroke="black" cx="147.22" cy="-35.71" rx="35.71" ry="35.71"/>
<text text-anchor="middle" x="147.22" y="-32.41" font-family="Times,serif" font-size="9.00">Move Up</text>
</g>
<!-- Pellet Right&#45;&gt;Move Up -->
<g id="edge1" class="edge">
<title>Pellet Right&#45;&gt;Move Up</title>
<path fill="none" stroke="red" stroke-width="0.43" stroke-dasharray="1,5" d="M345.1,-262.7C341.23,-236.36 326.28,-155.6 283.22,-107.42 258.61,-79.87 220.71,-61.41 191.16,-50.28"/>
<polygon fill="red" stroke="red" stroke-width="0.43" points="192.7,-47.11 182.1,-47 190.32,-53.7 192.7,-47.11"/>
</g>
<!-- Move Down -->
<g id="node21" class="node">
<title>Move Down</title>
<ellipse fill="lightblue" stroke="black" cx="565.22" cy="-151.08" rx="43.66" ry="43.66"/>
<text text-anchor="middle" x="565.22" y="-147.78" font-family="Times,serif" font-size="9.00">Move Down</text>
</g>
<!-- Pellet Right&#45;&gt;Move Down -->
<g id="edge7" class="edge">
<title>Pellet Right&#45;&gt;Move Down</title>
<path fill="none" stroke="red" stroke-width="0.28" d="M352.19,-262.86C358.89,-253.91 370.5,-239.82 383.22,-230.75 423.4,-202.09 475.65,-180.86 513.85,-167.73"/>
<polygon fill="red" stroke="red" stroke-width="0.28" points="514.49,-171.21 522.85,-164.7 512.25,-164.57 514.49,-171.21"/>
</g>
<!-- 24062 -->
<g id="node30" class="node">
<title>24062</title>
<ellipse fill="white" stroke="black" cx="175.22" cy="-151.08" rx="27.22" ry="27.22"/>
<text text-anchor="middle" x="175.22" y="-147.78" font-family="Times,serif" font-size="9.00">24062</text>
</g>
<!-- Pellet Right&#45;&gt;24062 -->
<g id="edge16" class="edge">
<title>Pellet Right&#45;&gt;24062</title>
<path fill="none" stroke="green" stroke-width="0.26" d="M340.35,-262.72C333.73,-253.65 322.2,-239.46 309.22,-230.75 270.71,-204.87 249.23,-221.36 211.22,-194.75 206.01,-191.1 201.11,-186.52 196.7,-181.72"/>
<polygon fill="green" stroke="green" stroke-width="0.26" points="199.6,-179.73 190.44,-174.4 194.28,-184.28 199.6,-179.73"/>
</g>
<!-- Pellet Left -->
<g id="node2" class="node">
<title>Pellet Left</title>
<polygon fill="lightblue" stroke="black" points="807.22,-368.33 755.22,-368.33 755.22,-349.83 807.22,-349.83 807.22,-368.33"/>
<text text-anchor="middle" x="781.22" y="-355.78" font-family="Times,serif" font-size="9.00">Pellet Left</text>
</g>
<!-- 24100 -->
<g id="node22" class="node">
<title>24100</title>
<ellipse fill="white" stroke="black" cx="726.22" cy="-272.29" rx="27.22" ry="27.22"/>
<text text-anchor="middle" x="726.22" y="-268.99" font-family="Times,serif" font-size="9.00">24100</text>
</g>
<!-- Pellet Left&#45;&gt;24100 -->
<g id="edge18" class="edge">
<title>Pellet Left&#45;&gt;24100</title>
<path fill="none" stroke="red" stroke-width="0.61" d="M775.75,-349.64C768.98,-339.21 757.07,-320.85 746.63,-304.75"/>
<polygon fill="red" stroke="red" stroke-width="0.61" points="749.58,-302.87 741.21,-296.39 743.71,-306.68 749.58,-302.87"/>
</g>
<!-- 20966 -->
<g id="node23" class="node">
<title>20966</title>
<ellipse fill="white" stroke="black" cx="836.22" cy="-151.08" rx="27.22" ry="27.22"/>
<text text-anchor="middle" x="836.22" y="-147.78" font-family="Times,serif" font-size="9.00">20966</text>
</g>
<!-- Pellet Left&#45;&gt;20966 -->
<g id="edge13" class="edge">
<title>Pellet Left&#45;&gt;20966</title>
<path fill="none" stroke="red" stroke-width="0.3" d="M781.67,-349.56C782.93,-328.82 787.31,-274.24 800.22,-230.75 804.88,-215.07 812.09,-198.5 818.83,-184.63"/>
<polygon fill="red" stroke="red" stroke-width="0.3" points="821.85,-186.42 823.19,-175.91 815.59,-183.29 821.85,-186.42"/>
</g>
<!-- 24169 -->
<g id="node24" class="node">
<title>24169</title>
<ellipse fill="white" stroke="black" cx="836.22" cy="-272.29" rx="27.22" ry="27.22"/>
<text text-anchor="middle" x="836.22" y="-268.99" font-family="Times,serif" font-size="9.00">24169</text>
</g>
<!-- Pellet Left&#45;&gt;24169 -->
<g id="edge20" class="edge">
<title>Pellet Left&#45;&gt;24169</title>
<path fill="none" stroke="green" stroke-width="0.13" d="M786.7,-349.64C793.59,-339.01 805.82,-320.16 816.4,-303.85"/>
<polygon fill="green" stroke="green" stroke-width="0.13" points="819.13,-306.07 821.64,-295.78 813.26,-302.26 819.13,-306.07"/>
</g>
<!-- Pellet Up -->
<g id="node3" class="node">
<title>Pellet Up</title>
<polygon fill="lightblue" stroke="black" points="1079.72,-368.33 1030.72,-368.33 1030.72,-349.83 1079.72,-349.83 1079.72,-368.33"/>
<text text-anchor="middle" x="1055.22" y="-355.78" font-family="Times,serif" font-size="9.00">Pellet Up</text>
</g>
<!-- Pellet Down -->
<g id="node4" class="node">
<title>Pellet Down</title>
<polygon fill="lightblue" stroke="black" points="921.35,-368.33 861.1,-368.33 861.1,-349.83 921.35,-349.83 921.35,-368.33"/>
<text text-anchor="middle" x="891.22" y="-355.78" font-family="Times,serif" font-size="9.00">Pellet Down</text>
</g>
<!-- Pellet Down&#45;&gt;20966 -->
<g id="edge8" class="edge">
<title>Pellet Down&#45;&gt;20966</title>
<path fill="none" stroke="green" stroke-width="0.48" stroke-dasharray="1,5" d="M890.78,-349.56C889.52,-328.82 885.14,-274.24 872.22,-230.75 867.61,-215.22 860.5,-198.82 853.81,-185.03"/>
<polygon fill="green" stroke="green" stroke-width="0.48" points="856.98,-183.54 849.38,-176.16 850.71,-186.67 856.98,-183.54"/>
</g>
<!-- 21463 -->
<g id="node26" class="node">
<title>21463</title>
<ellipse fill="white" stroke="black" cx="946.22" cy="-272.29" rx="27.22" ry="27.22"/>
<text text-anchor="middle" x="946.22" y="-268.99" font-family="Times,serif" font-size="9.00">21463</text>
</g>
<!-- Pellet Down&#45;&gt;21463 -->
<g id="edge10" class="edge">
<title>Pellet Down&#45;&gt;21463</title>
<path fill="none" stroke="green" stroke-width="0.21" stroke-dasharray="1,5" d="M896.7,-349.64C903.59,-339.01 915.82,-320.16 926.4,-303.85"/>
<polygon fill="green" stroke="green" stroke-width="0.21" points="929.06,-306.18 931.57,-295.88 923.19,-302.37 929.06,-306.18"/>
</g>
<!-- Power Pellet Right -->
<g id="node5" class="node">
<title>Power Pellet Right</title>
<polygon fill="lightblue" stroke="black" points="1180.6,-368.33 1097.85,-368.33 1097.85,-349.83 1180.6,-349.83 1180.6,-368.33"/>
<text text-anchor="middle" x="1139.22" y="-355.78" font-family="Times,serif" font-size="9.00">Power Pellet Right</text>
</g>
<!-- Power Pellet Left -->
<g id="node6" class="node">
<title>Power Pellet Left</title>
<polygon fill="lightblue" stroke="black" points="570.97,-281.54 493.47,-281.54 493.47,-263.04 570.97,-263.04 570.97,-281.54"/>
<text text-anchor="middle" x="532.22" y="-268.99" font-family="Times,serif" font-size="9.00">Power Pellet Left</text>
</g>
<!-- Power Pellet Left&#45;&gt;Move Down -->
<g id="edge2" class="edge">
<title>Power Pellet Left&#45;&gt;Move Down</title>
<path fill="none" stroke="green" stroke-width="0.57" stroke-dasharray="1,5" d="M534.6,-262.71C538.04,-250.26 544.71,-226.19 550.94,-203.67"/>
<polygon fill="green" stroke="green" stroke-width="0.57" points="554.24,-204.88 553.53,-194.31 547.49,-203.01 554.24,-204.88"/>
</g>
<!-- Power Pellet Up -->
<g id="node7" class="node">
<title>Power Pellet Up</title>
<polygon fill="lightblue" stroke="black" points="1273.47,-368.33 1198.97,-368.33 1198.97,-349.83 1273.47,-349.83 1273.47,-368.33"/>
<text text-anchor="middle" x="1236.22" y="-355.78" font-family="Times,serif" font-size="9.00">Power Pellet Up</text>
</g>
<!-- Power Pellet Down -->
<g id="node8" class="node">
<title>Power Pellet Down</title>
<polygon fill="lightblue" stroke="black" points="456.1,-368.33 370.35,-368.33 370.35,-349.83 456.1,-349.83 456.1,-368.33"/>
<text text-anchor="middle" x="413.22" y="-355.78" font-family="Times,serif" font-size="9.00">Power Pellet Down</text>
</g>
<!-- Move Right -->
<g id="node18" class="node">
<title>Move Right</title>
<ellipse fill="lightblue" stroke="black" cx="434.22" cy="-272.29" rx="41.54" ry="41.54"/>
<text text-anchor="middle" x="434.22" y="-268.99" font-family="Times,serif" font-size="9.00">Move Right</text>
</g>
<!-- Power Pellet Down&#45;&gt;Move Right -->
<g id="edge3" class="edge">
<title>Power Pellet Down&#45;&gt;Move Right</title>
<path fill="none" stroke="red" stroke-width="0.3" d="M415.31,-349.64C416.95,-343.04 419.37,-333.26 421.94,-322.9"/>
<polygon fill="red" stroke="red" stroke-width="0.3" points="425.31,-323.84 424.31,-313.3 418.51,-322.16 425.31,-323.84"/>
</g>
<!-- Move Left -->
<g id="node19" class="node">
<title>Move Left</title>
<ellipse fill="lightblue" stroke="black" cx="262.22" cy="-272.29" rx="37.83" ry="37.83"/>
<text text-anchor="middle" x="262.22" y="-268.99" font-family="Times,serif" font-size="9.00">Move Left</text>
</g>
<!-- Power Pellet Down&#45;&gt;Move Left -->
<g id="edge9" class="edge">
<title>Power Pellet Down&#45;&gt;Move Left</title>
<path fill="none" stroke="green" stroke-width="0.21" stroke-dasharray="1,5" d="M386.17,-349.41C364.24,-341.75 333.02,-329.4 308.22,-313.83 304.37,-311.41 300.51,-308.66 296.77,-305.77"/>
<polygon fill="green" stroke="green" stroke-width="0.21" points="299.01,-303.08 289.05,-299.48 294.59,-308.51 299.01,-303.08"/>
</g>
<!-- Ghost Info Right -->
<g id="node9" class="node">
<title>Ghost Info Right</title>
<polygon fill="lightblue" stroke="black" points="1368.6,-368.33 1291.85,-368.33 1291.85,-349.83 1368.6,-349.83 1368.6,-368.33"/>
<text text-anchor="middle" x="1330.22" y="-355.78" font-family="Times,serif" font-size="9.00">Ghost Info Right</text>
</g>
<!-- Ghost Info Left -->
<g id="node10" class="node">
<title>Ghost Info Left</title>
<polygon fill="lightblue" stroke="black" points="1457.97,-368.33 1386.47,-368.33 1386.47,-349.83 1457.97,-349.83 1457.97,-368.33"/>
<text text-anchor="middle" x="1422.22" y="-355.78" font-family="Times,serif" font-size="9.00">Ghost Info Left</text>
</g>
<!-- Ghost Info Up -->
<g id="node11" class="node">
<title>Ghost Info Up</title>
<polygon fill="lightblue" stroke="black" points="1544.47,-368.33 1475.97,-368.33 1475.97,-349.83 1544.47,-349.83 1544.47,-368.33"/>
<text text-anchor="middle" x="1510.22" y="-355.78" font-family="Times,serif" font-size="9.00">Ghost Info Up</text>
</g>
<!-- Ghost Info Down -->
<g id="node12" class="node">
<title>Ghost Info Down</title>
<polygon fill="lightblue" stroke="black" points="666.1,-368.33 586.35,-368.33 586.35,-349.83 666.1,-349.83 666.1,-368.33"/>
<text text-anchor="middle" x="626.22" y="-355.78" font-family="Times,serif" font-size="9.00">Ghost Info Down</text>
</g>
<!-- Ghost Info Down&#45;&gt;Move Down -->
<g id="edge4" class="edge">
<title>Ghost Info Down&#45;&gt;Move Down</title>
<path fill="none" stroke="red" stroke-width="0.21" stroke-dasharray="1,5" d="M623.68,-349.49C616.41,-324.93 595.1,-252.99 580.33,-203.1"/>
<polygon fill="red" stroke="red" stroke-width="0.21" points="583.76,-202.34 577.56,-193.74 577.04,-204.33 583.76,-202.34"/>
</g>
<!-- 24921 -->
<g id="node28" class="node">
<title>24921</title>
<ellipse fill="white" stroke="black" cx="654.22" cy="-272.29" rx="27.22" ry="27.22"/>
<text text-anchor="middle" x="654.22" y="-268.99" font-family="Times,serif" font-size="9.00">24921</text>
</g>
<!-- Ghost Info Down&#45;&gt;24921 -->
<g id="edge27" class="edge">
<title>Ghost Info Down&#45;&gt;24921</title>
<path fill="none" stroke="green" stroke-width="0.18" d="M629.01,-349.64C632.21,-339.95 637.67,-323.43 642.69,-308.23"/>
<polygon fill="green" stroke="green" stroke-width="0.18" points="645.99,-309.37 645.81,-298.78 639.35,-307.17 645.99,-309.37"/>
</g>
<!-- PAC&#45;MAN Right -->
<g id="node13" class="node">
<title>PAC&#45;MAN Right</title>
<polygon fill="lightblue" stroke="black" points="1641.72,-368.33 1562.72,-368.33 1562.72,-349.83 1641.72,-349.83 1641.72,-368.33"/>
<text text-anchor="middle" x="1602.22" y="-355.78" font-family="Times,serif" font-size="9.00">PAC&#45;MAN Right</text>
</g>
<!-- PAC&#45;MAN Left -->
<g id="node14" class="node">
<title>PAC&#45;MAN Left</title>
<polygon fill="lightblue" stroke="black" points="1013.1,-368.33 939.35,-368.33 939.35,-349.83 1013.1,-349.83 1013.1,-368.33"/>
<text text-anchor="middle" x="976.22" y="-355.78" font-family="Times,serif" font-size="9.00">PAC&#45;MAN Left</text>
</g>
<!-- PAC&#45;MAN Left&#45;&gt;21463 -->
<g id="edge26" class="edge">
<title>PAC&#45;MAN Left&#45;&gt;21463</title>
<path fill="none" stroke="red" stroke-width="0.7" d="M973.24,-349.64C969.84,-340.04 964.08,-323.74 958.74,-308.66"/>
<polygon fill="red" stroke="red" stroke-width="0.7" points="962.14,-307.78 955.51,-299.52 955.54,-310.12 962.14,-307.78"/>
</g>
<!-- PAC&#45;MAN Up -->
<g id="node15" class="node">
<title>PAC&#45;MAN Up</title>
<polygon fill="lightblue" stroke="black" points="341.6,-368.33 270.85,-368.33 270.85,-349.83 341.6,-349.83 341.6,-368.33"/>
<text text-anchor="middle" x="306.22" y="-355.78" font-family="Times,serif" font-size="9.00">PAC&#45;MAN Up</text>
</g>
<!-- PAC&#45;MAN Up&#45;&gt;Move Left -->
<g id="edge5" class="edge">
<title>PAC&#45;MAN Up&#45;&gt;Move Left</title>
<path fill="none" stroke="green" stroke-width="0.22" stroke-dasharray="1,5" d="M301.84,-349.64C297.57,-341.4 290.74,-328.23 283.94,-315.13"/>
<polygon fill="green" stroke="green" stroke-width="0.22" points="287.13,-313.69 279.42,-306.43 280.92,-316.92 287.13,-313.69"/>
</g>
<!-- PACM&#45;MAN Down -->
<g id="node16" class="node">
<title>PACM&#45;MAN Down</title>
<polygon fill="lightblue" stroke="black" points="252.35,-368.33 162.1,-368.33 162.1,-349.83 252.35,-349.83 252.35,-368.33"/>
<text text-anchor="middle" x="207.22" y="-355.78" font-family="Times,serif" font-size="9.00">PACM&#45;MAN Down</text>
</g>
<!-- PACM&#45;MAN Down&#45;&gt;Move Left -->
<g id="edge6" class="edge">
<title>PACM&#45;MAN Down&#45;&gt;Move Left</title>
<path fill="none" stroke="red" stroke-width="0.15" d="M212.7,-349.64C218.32,-340.97 227.5,-326.83 236.43,-313.05"/>
<polygon fill="red" stroke="red" stroke-width="0.15" points="239.3,-315.06 241.8,-304.77 233.43,-311.25 239.3,-315.06"/>
</g>
<!-- 23448 -->
<g id="node27" class="node">
<title>23448</title>
<ellipse fill="white" stroke="black" cx="247.22" cy="-151.08" rx="27.22" ry="27.22"/>
<text text-anchor="middle" x="247.22" y="-147.78" font-family="Times,serif" font-size="9.00">23448</text>
</g>
<!-- PACM&#45;MAN Down&#45;&gt;23448 -->
<g id="edge14" class="edge">
<title>PACM&#45;MAN Down&#45;&gt;23448</title>
<path fill="none" stroke="green" stroke-width="0.59" stroke-dasharray="1,5" d="M206.82,-349.6C206.05,-328.96 205.21,-274.58 215.22,-230.75 218.7,-215.51 224.79,-199.41 230.72,-185.77"/>
<polygon fill="green" stroke="green" stroke-width="0.59" points="233.9,-187.23 234.82,-176.68 227.52,-184.36 233.9,-187.23"/>
</g>
<!-- Power&#45;Up Time -->
<g id="node17" class="node">
<title>Power&#45;Up Time</title>
<polygon fill="lightblue" stroke="black" points="144.1,-368.33 70.35,-368.33 70.35,-349.83 144.1,-349.83 144.1,-368.33"/>
<text text-anchor="middle" x="107.22" y="-355.78" font-family="Times,serif" font-size="9.00">Power&#45;Up Time</text>
</g>
<!-- Power&#45;Up Time&#45;&gt;Move Up -->
<g id="edge12" class="edge">
<title>Power&#45;Up Time&#45;&gt;Move Up</title>
<path fill="none" stroke="green" stroke-width="0.47" stroke-dasharray="1,5" d="M108.29,-349.48C112.99,-311.73 131.99,-159.08 141.6,-81.88"/>
<polygon fill="green" stroke="green" stroke-width="0.47" points="145.04,-82.57 142.8,-72.21 138.1,-81.71 145.04,-82.57"/>
</g>
<!-- 24669 -->
<g id="node29" class="node">
<title>24669</title>
<ellipse fill="white" stroke="black" cx="65.22" cy="-272.29" rx="27.22" ry="27.22"/>
<text text-anchor="middle" x="65.22" y="-268.99" font-family="Times,serif" font-size="9.00">24669</text>
</g>
<!-- Power&#45;Up Time&#45;&gt;24669 -->
<g id="edge24" class="edge">
<title>Power&#45;Up Time&#45;&gt;24669</title>
<path fill="none" stroke="green" stroke-width="0.26" d="M103.04,-349.64C98.01,-339.49 89.27,-321.83 81.45,-306.05"/>
<polygon fill="green" stroke="green" stroke-width="0.26" points="84.74,-304.81 77.17,-297.41 78.47,-307.92 84.74,-304.81"/>
</g>
<!-- Power&#45;Up Time&#45;&gt;24062 -->
<g id="edge22" class="edge">
<title>Power&#45;Up Time&#45;&gt;24062</title>
<path fill="none" stroke="red" stroke-width="0.31" d="M113.64,-349.35C119.72,-340.72 128.71,-326.94 134.22,-313.83 151.6,-272.5 162.95,-222.04 169.21,-188.58"/>
<polygon fill="red" stroke="red" stroke-width="0.31" points="172.64,-189.27 170.98,-178.8 165.76,-188.02 172.64,-189.27"/>
</g>
<!-- Move Left&#45;&gt;23448 -->
<g id="edge23" class="edge">
<title>Move Left&#45;&gt;23448</title>
<path fill="none" stroke="red" stroke-width="0.16" d="M257.6,-234.55C255.74,-219.76 253.6,-202.77 251.75,-188.06"/>
<polygon fill="red" stroke="red" stroke-width="0.16" points="255.27,-188.03 250.55,-178.55 248.33,-188.9 255.27,-188.03"/>
</g>
<!-- 24100&#45;&gt;20966 -->
<g id="edge19" class="edge">
<title>24100&#45;&gt;20966</title>
<path fill="none" stroke="red" stroke-width="0.33" d="M744.39,-251.6C762.54,-231.93 790.6,-201.52 810.93,-179.5"/>
<polygon fill="red" stroke="red" stroke-width="0.33" points="813.48,-181.89 817.69,-172.16 808.34,-177.14 813.48,-181.89"/>
</g>
<!-- 24169&#45;&gt;20966 -->
<g id="edge21" class="edge">
<title>24169&#45;&gt;20966</title>
<path fill="none" stroke="red" stroke-width="0.31" d="M836.22,-244.83C836.22,-228.32 836.22,-206.83 836.22,-188.69"/>
<polygon fill="red" stroke="red" stroke-width="0.31" points="839.72,-188.93 836.22,-178.93 832.72,-188.93 839.72,-188.93"/>
</g>
<!-- 25033 -->
<g id="node25" class="node">
<title>25033</title>
<ellipse fill="white" stroke="black" cx="27.22" cy="-151.08" rx="27.22" ry="27.22"/>
<text text-anchor="middle" x="27.22" y="-147.78" font-family="Times,serif" font-size="9.00">25033</text>
</g>
<!-- 25033&#45;&gt;Move Up -->
<g id="edge30" class="edge">
<title>25033&#45;&gt;Move Up</title>
<path fill="none" stroke="red" stroke-width="0.49" d="M45.29,-130.67C52.33,-123.27 60.54,-114.84 68.22,-107.42 82.39,-93.74 98.52,-79.14 112.49,-66.79"/>
<polygon fill="red" stroke="red" stroke-width="0.49" points="114.69,-69.51 119.89,-60.28 110.07,-64.26 114.69,-69.51"/>
</g>
<!-- 21463&#45;&gt;20966 -->
<g id="edge11" class="edge">
<title>21463&#45;&gt;20966</title>
<path fill="none" stroke="green" stroke-width="0.16" d="M928.06,-251.6C909.83,-231.85 881.6,-201.26 861.25,-179.21"/>
<polygon fill="green" stroke="green" stroke-width="0.16" points="863.93,-176.95 854.58,-171.98 858.79,-181.7 863.93,-176.95"/>
</g>
<!-- 23448&#45;&gt;Move Up -->
<g id="edge15" class="edge">
<title>23448&#45;&gt;Move Up</title>
<path fill="none" stroke="red" stroke-width="0.34" d="M230.15,-129.56C224.21,-122.5 217.47,-114.57 211.22,-107.42 200.6,-95.26 188.78,-82.11 178.23,-70.48"/>
<polygon fill="red" stroke="red" stroke-width="0.34" points="180.82,-68.13 171.5,-63.09 175.64,-72.84 180.82,-68.13"/>
</g>
<!-- 24921&#45;&gt;Move Down -->
<g id="edge28" class="edge">
<title>24921&#45;&gt;Move Down</title>
<path fill="none" stroke="red" stroke-width="0.23" d="M638.31,-249.98C626.9,-234.69 611.14,-213.58 597.18,-194.88"/>
<polygon fill="red" stroke="red" stroke-width="0.23" points="600.11,-192.96 591.32,-187.04 594.5,-197.15 600.11,-192.96"/>
</g>
<!-- 24669&#45;&gt;Move Up -->
<g id="edge25" class="edge">
<title>24669&#45;&gt;Move Up</title>
<path fill="none" stroke="red" stroke-width="0.56" stroke-dasharray="1,5" d="M69.45,-245.03C75.27,-212.07 87.26,-154.16 106.22,-107.42 110.63,-96.54 116.47,-85.32 122.36,-75.1"/>
<polygon fill="red" stroke="red" stroke-width="0.56" points="125.21,-77.15 127.3,-66.77 119.19,-73.58 125.21,-77.15"/>
</g>
<!-- 24669&#45;&gt;25033 -->
<g id="edge29" class="edge">
<title>24669&#45;&gt;25033</title>
<path fill="none" stroke="green" stroke-width="0.37" d="M57.16,-246.01C51.72,-228.94 44.47,-206.17 38.46,-187.33"/>
<polygon fill="green" stroke="green" stroke-width="0.37" points="41.81,-186.32 35.44,-177.86 35.14,-188.45 41.81,-186.32"/>
</g>
<!-- 24062&#45;&gt;Move Up -->
<g id="edge17" class="edge">
<title>24062&#45;&gt;Move Up</title>
<path fill="none" stroke="red" stroke-width="0.62" d="M168.87,-124.36C165.7,-111.53 161.78,-95.65 158.15,-80.95"/>
<polygon fill="red" stroke="red" stroke-width="0.62" points="161.59,-80.28 155.79,-71.41 154.79,-81.96 161.59,-80.28"/>
</g>
</g>
</svg>
