<?xml version="1.0" encoding="UTF-8" standalone="no"?>
<!DOCTYPE svg PUBLIC "-//W3C//DTD SVG 1.1//EN"
 "http://www.w3.org/Graphics/SVG/1.1/DTD/svg11.dtd">
<!-- Generated by graphviz version 12.0.0 (20240704.0754)
 -->
<!-- Pages: 1 -->
<svg width="1518pt" height="150pt"
 viewBox="0.00 0.00 1518.00 149.83" xmlns="http://www.w3.org/2000/svg" xmlns:xlink="http://www.w3.org/1999/xlink">
<g id="graph0" class="graph" transform="scale(1 1) rotate(0) translate(4 145.83)">
<polygon fill="white" stroke="none" points="-4,4 -4,-145.83 1514,-145.83 1514,4 -4,4"/>
<!-- Pellet Right -->
<g id="node1" class="node">
<title>Pellet Right</title>
<polygon fill="lightblue" stroke="black" points="257.75,-141.83 200.5,-141.83 200.5,-123.33 257.75,-123.33 257.75,-141.83"/>
<text text-anchor="middle" x="229.12" y="-129.28" font-family="Times,serif" font-size="9.00">Pellet Right</text>
</g>
<!-- Move Left -->
<g id="node19" class="node">
<title>Move Left</title>
<ellipse fill="lightblue" stroke="black" cx="313.12" cy="-43.66" rx="37.83" ry="37.83"/>
<text text-anchor="middle" x="313.12" y="-40.36" font-family="Times,serif" font-size="9.00">Move Left</text>
</g>
<!-- Pellet Right&#45;&gt;Move Left -->
<g id="edge1" class="edge">
<title>Pellet Right&#45;&gt;Move Left</title>
<path fill="none" stroke="green" stroke-width="0.12" d="M237.49,-122.93C247.42,-112.65 264.59,-94.88 280.07,-78.87"/>
<polygon fill="green" stroke="green" stroke-width="0.12" points="282.47,-81.42 286.9,-71.8 277.44,-76.56 282.47,-81.42"/>
</g>
<!-- Pellet Left -->
<g id="node2" class="node">
<title>Pellet Left</title>
<polygon fill="lightblue" stroke="black" points="509.12,-141.83 457.12,-141.83 457.12,-123.33 509.12,-123.33 509.12,-141.83"/>
<text text-anchor="middle" x="483.12" y="-129.28" font-family="Times,serif" font-size="9.00">Pellet Left</text>
</g>
<!-- Move Right -->
<g id="node18" class="node">
<title>Move Right</title>
<ellipse fill="lightblue" stroke="black" cx="561.12" cy="-43.66" rx="41.54" ry="41.54"/>
<text text-anchor="middle" x="561.12" y="-40.36" font-family="Times,serif" font-size="9.00">Move Right</text>
</g>
<!-- Pellet Left&#45;&gt;Move Right -->
<g id="edge18" class="edge">
<title>Pellet Left&#45;&gt;Move Right</title>
<path fill="none" stroke="red" stroke-width="0.52" d="M490.89,-122.93C499.36,-113.49 513.49,-97.74 526.87,-82.84"/>
<polygon fill="red" stroke="red" stroke-width="0.52" points="529.16,-85.52 533.23,-75.74 523.95,-80.85 529.16,-85.52"/>
</g>
<!-- Pellet Left&#45;&gt;Move Left -->
<g id="edge20" class="edge">
<title>Pellet Left&#45;&gt;Move Left</title>
<path fill="none" stroke="green" stroke-width="0.48" stroke-dasharray="1,5" d="M466.2,-122.93C440.69,-109.88 391.54,-84.76 355.8,-66.48"/>
<polygon fill="green" stroke="green" stroke-width="0.48" points="357.71,-63.53 347.21,-62.09 354.52,-69.76 357.71,-63.53"/>
</g>
<!-- Move Up -->
<g id="node20" class="node">
<title>Move Up</title>
<ellipse fill="lightblue" stroke="black" cx="886.12" cy="-43.66" rx="35.71" ry="35.71"/>
<text text-anchor="middle" x="886.12" y="-40.36" font-family="Times,serif" font-size="9.00">Move Up</text>
</g>
<!-- Pellet Left&#45;&gt;Move Up -->
<g id="edge19" class="edge">
<title>Pellet Left&#45;&gt;Move Up</title>
<path fill="none" stroke="green" stroke-width="0.12" d="M509.48,-125.3C512.4,-124.63 515.32,-123.96 518.12,-123.33 634.47,-97.18 771.98,-68.33 841.33,-53.92"/>
<polygon fill="green" stroke="green" stroke-width="0.12" points="841.81,-57.4 850.89,-51.94 840.38,-50.55 841.81,-57.4"/>
</g>
<!-- Pellet Up -->
<g id="node3" class="node">
<title>Pellet Up</title>
<polygon fill="lightblue" stroke="black" points="955.62,-141.83 906.62,-141.83 906.62,-123.33 955.62,-123.33 955.62,-141.83"/>
<text text-anchor="middle" x="931.12" y="-129.28" font-family="Times,serif" font-size="9.00">Pellet Up</text>
</g>
<!-- Pellet Up&#45;&gt;Move Up -->
<g id="edge2" class="edge">
<title>Pellet Up&#45;&gt;Move Up</title>
<path fill="none" stroke="green" stroke-width="0.12" d="M926.65,-122.93C921.97,-113.89 914.3,-99.07 906.88,-84.75"/>
<polygon fill="green" stroke="green" stroke-width="0.12" points="910.11,-83.38 902.4,-76.11 903.89,-86.6 910.11,-83.38"/>
</g>
<!-- Pellet Down -->
<g id="node4" class="node">
<title>Pellet Down</title>
<polygon fill="lightblue" stroke="black" points="1123.25,-141.83 1063,-141.83 1063,-123.33 1123.25,-123.33 1123.25,-141.83"/>
<text text-anchor="middle" x="1093.12" y="-129.28" font-family="Times,serif" font-size="9.00">Pellet Down</text>
</g>
<!-- Move Down -->
<g id="node21" class="node">
<title>Move Down</title>
<ellipse fill="lightblue" stroke="black" cx="1056.12" cy="-43.66" rx="43.66" ry="43.66"/>
<text text-anchor="middle" x="1056.12" y="-40.36" font-family="Times,serif" font-size="9.00">Move Down</text>
</g>
<!-- Pellet Down&#45;&gt;Move Down -->
<g id="edge3" class="edge">
<title>Pellet Down&#45;&gt;Move Down</title>
<path fill="none" stroke="green" stroke-width="0.56" stroke-dasharray="1,5" d="M1089.44,-122.93C1086.44,-115.89 1081.95,-105.33 1077.23,-94.23"/>
<polygon fill="green" stroke="green" stroke-width="0.56" points="1080.51,-93.02 1073.38,-85.19 1074.07,-95.76 1080.51,-93.02"/>
</g>
<!-- Power Pellet Right -->
<g id="node5" class="node">
<title>Power Pellet Right</title>
<polygon fill="lightblue" stroke="black" points="793.5,-141.83 710.75,-141.83 710.75,-123.33 793.5,-123.33 793.5,-141.83"/>
<text text-anchor="middle" x="752.12" y="-129.28" font-family="Times,serif" font-size="9.00">Power Pellet Right</text>
</g>
<!-- Power Pellet Right&#45;&gt;Move Right -->
<g id="edge13" class="edge">
<title>Power Pellet Right&#45;&gt;Move Right</title>
<path fill="none" stroke="red" stroke-width="0.37" stroke-dasharray="1,5" d="M733.11,-122.93C704.26,-109.8 648.52,-84.43 608.31,-66.13"/>
<polygon fill="red" stroke="red" stroke-width="0.37" points="609.77,-62.95 599.22,-62 606.87,-69.32 609.77,-62.95"/>
</g>
<!-- Power Pellet Left -->
<g id="node6" class="node">
<title>Power Pellet Left</title>
<polygon fill="lightblue" stroke="black" points="888.88,-141.83 811.38,-141.83 811.38,-123.33 888.88,-123.33 888.88,-141.83"/>
<text text-anchor="middle" x="850.12" y="-129.28" font-family="Times,serif" font-size="9.00">Power Pellet Left</text>
</g>
<!-- Power Pellet Left&#45;&gt;Move Right -->
<g id="edge4" class="edge">
<title>Power Pellet Left&#45;&gt;Move Right</title>
<path fill="none" stroke="red" stroke-width="0.22" stroke-dasharray="1,5" d="M821.09,-122.85C771.74,-108 670.95,-77.69 610.4,-59.48"/>
<polygon fill="red" stroke="red" stroke-width="0.22" points="611.58,-56.18 600.99,-56.65 609.56,-62.89 611.58,-56.18"/>
</g>
<!-- Power Pellet Left&#45;&gt;Move Up -->
<g id="edge5" class="edge">
<title>Power Pellet Left&#45;&gt;Move Up</title>
<path fill="none" stroke="red" stroke-width="0.24" stroke-dasharray="1,5" d="M853.71,-122.93C857.29,-114.27 863.08,-100.31 868.77,-86.56"/>
<polygon fill="red" stroke="red" stroke-width="0.24" points="871.94,-88.05 872.54,-77.47 865.48,-85.37 871.94,-88.05"/>
</g>
<!-- Power Pellet Left&#45;&gt;Move Down -->
<g id="edge14" class="edge">
<title>Power Pellet Left&#45;&gt;Move Down</title>
<path fill="none" stroke="green" stroke-width="0.14" d="M870.63,-122.93C902.11,-109.65 963.25,-83.85 1006.73,-65.51"/>
<polygon fill="green" stroke="green" stroke-width="0.14" points="1007.95,-68.79 1015.8,-61.68 1005.23,-62.34 1007.95,-68.79"/>
</g>
<!-- Power Pellet Up -->
<g id="node7" class="node">
<title>Power Pellet Up</title>
<polygon fill="lightblue" stroke="black" points="350.38,-141.83 275.88,-141.83 275.88,-123.33 350.38,-123.33 350.38,-141.83"/>
<text text-anchor="middle" x="313.12" y="-129.28" font-family="Times,serif" font-size="9.00">Power Pellet Up</text>
</g>
<!-- Power Pellet Up&#45;&gt;Move Left -->
<g id="edge6" class="edge">
<title>Power Pellet Up&#45;&gt;Move Left</title>
<path fill="none" stroke="red" stroke-width="0.23" stroke-dasharray="1,5" d="M313.12,-122.93C313.12,-115.41 313.12,-103.89 313.12,-91.98"/>
<polygon fill="red" stroke="red" stroke-width="0.23" points="316.63,-92.31 313.13,-82.31 309.63,-92.31 316.63,-92.31"/>
</g>
<!-- Power Pellet Down -->
<g id="node8" class="node">
<title>Power Pellet Down</title>
<polygon fill="lightblue" stroke="black" points="1324,-141.83 1238.25,-141.83 1238.25,-123.33 1324,-123.33 1324,-141.83"/>
<text text-anchor="middle" x="1281.12" y="-129.28" font-family="Times,serif" font-size="9.00">Power Pellet Down</text>
</g>
<!-- Ghost Info Right -->
<g id="node9" class="node">
<title>Ghost Info Right</title>
<polygon fill="lightblue" stroke="black" points="1418.5,-141.83 1341.75,-141.83 1341.75,-123.33 1418.5,-123.33 1418.5,-141.83"/>
<text text-anchor="middle" x="1380.12" y="-129.28" font-family="Times,serif" font-size="9.00">Ghost Info Right</text>
</g>
<!-- Ghost Info Left -->
<g id="node10" class="node">
<title>Ghost Info Left</title>
<polygon fill="lightblue" stroke="black" points="1044.88,-141.83 973.38,-141.83 973.38,-123.33 1044.88,-123.33 1044.88,-141.83"/>
<text text-anchor="middle" x="1009.12" y="-129.28" font-family="Times,serif" font-size="9.00">Ghost Info Left</text>
</g>
<!-- Ghost Info Left&#45;&gt;Move Up -->
<g id="edge7" class="edge">
<title>Ghost Info Left&#45;&gt;Move Up</title>
<path fill="none" stroke="green" stroke-width="0.31" stroke-dasharray="1,5" d="M996.88,-122.93C979.9,-110.93 948.47,-88.72 923.42,-71.01"/>
<polygon fill="green" stroke="green" stroke-width="0.31" points="925.76,-68.39 915.58,-65.47 921.72,-74.1 925.76,-68.39"/>
</g>
<!-- Ghost Info Up -->
<g id="node11" class="node">
<title>Ghost Info Up</title>
<polygon fill="lightblue" stroke="black" points="595.38,-141.83 526.88,-141.83 526.88,-123.33 595.38,-123.33 595.38,-141.83"/>
<text text-anchor="middle" x="561.12" y="-129.28" font-family="Times,serif" font-size="9.00">Ghost Info Up</text>
</g>
<!-- Ghost Info Up&#45;&gt;Move Right -->
<g id="edge8" class="edge">
<title>Ghost Info Up&#45;&gt;Move Right</title>
<path fill="none" stroke="green" stroke-width="0.26" stroke-dasharray="1,5" d="M561.12,-122.93C561.12,-116.22 561.12,-106.33 561.12,-95.82"/>
<polygon fill="green" stroke="green" stroke-width="0.26" points="564.63,-96.03 561.13,-86.03 557.63,-96.03 564.63,-96.03"/>
</g>
<!-- Ghost Info Down -->
<g id="node12" class="node">
<title>Ghost Info Down</title>
<polygon fill="lightblue" stroke="black" points="693,-141.83 613.25,-141.83 613.25,-123.33 693,-123.33 693,-141.83"/>
<text text-anchor="middle" x="653.12" y="-129.28" font-family="Times,serif" font-size="9.00">Ghost Info Down</text>
</g>
<!-- Ghost Info Down&#45;&gt;Move Left -->
<g id="edge16" class="edge">
<title>Ghost Info Down&#45;&gt;Move Left</title>
<path fill="none" stroke="green" stroke-width="0.14" d="M618.97,-122.85C557.66,-107.17 428.88,-74.25 359.6,-56.54"/>
<polygon fill="green" stroke="green" stroke-width="0.14" points="360.58,-53.18 350.02,-54.1 358.84,-59.96 360.58,-53.18"/>
</g>
<!-- Ghost Info Down&#45;&gt;Move Down -->
<g id="edge9" class="edge">
<title>Ghost Info Down&#45;&gt;Move Down</title>
<path fill="none" stroke="green" stroke-width="0.31" stroke-dasharray="1,5" d="M693.5,-124.74C696.42,-124.26 699.32,-123.79 702.12,-123.33 803.81,-106.77 831.11,-112.06 931.12,-87.33 956.14,-81.14 983.28,-72.17 1005.86,-64.04"/>
<polygon fill="green" stroke="green" stroke-width="0.31" points="1006.92,-67.38 1015.12,-60.66 1004.53,-60.8 1006.92,-67.38"/>
</g>
<!-- PAC&#45;MAN Right -->
<g id="node13" class="node">
<title>PAC&#45;MAN Right</title>
<polygon fill="lightblue" stroke="black" points="1220.62,-141.83 1141.62,-141.83 1141.62,-123.33 1220.62,-123.33 1220.62,-141.83"/>
<text text-anchor="middle" x="1181.12" y="-129.28" font-family="Times,serif" font-size="9.00">PAC&#45;MAN Right</text>
</g>
<!-- PAC&#45;MAN Right&#45;&gt;Move Down -->
<g id="edge15" class="edge">
<title>PAC&#45;MAN Right&#45;&gt;Move Down</title>
<path fill="none" stroke="green" stroke-width="0.28" stroke-dasharray="1,5" d="M1168.68,-122.93C1152.77,-111.86 1124.38,-92.12 1100.09,-75.23"/>
<polygon fill="green" stroke="green" stroke-width="0.28" points="1102.25,-72.47 1092.04,-69.64 1098.25,-78.22 1102.25,-72.47"/>
</g>
<!-- PAC&#45;MAN Left -->
<g id="node14" class="node">
<title>PAC&#45;MAN Left</title>
<polygon fill="lightblue" stroke="black" points="1510,-141.83 1436.25,-141.83 1436.25,-123.33 1510,-123.33 1510,-141.83"/>
<text text-anchor="middle" x="1473.12" y="-129.28" font-family="Times,serif" font-size="9.00">PAC&#45;MAN Left</text>
</g>
<!-- PAC&#45;MAN Up -->
<g id="node15" class="node">
<title>PAC&#45;MAN Up</title>
<polygon fill="lightblue" stroke="black" points="439.5,-141.83 368.75,-141.83 368.75,-123.33 439.5,-123.33 439.5,-141.83"/>
<text text-anchor="middle" x="404.12" y="-129.28" font-family="Times,serif" font-size="9.00">PAC&#45;MAN Up</text>
</g>
<!-- PAC&#45;MAN Up&#45;&gt;Move Right -->
<g id="edge17" class="edge">
<title>PAC&#45;MAN Up&#45;&gt;Move Right</title>
<path fill="none" stroke="red" stroke-width="0.28" d="M419.75,-122.93C442.01,-110.6 483.74,-87.5 516.12,-69.58"/>
<polygon fill="red" stroke="red" stroke-width="0.28" points="517.55,-72.79 524.6,-64.88 514.16,-66.66 517.55,-72.79"/>
</g>
<!-- PAC&#45;MAN Up&#45;&gt;Move Left -->
<g id="edge10" class="edge">
<title>PAC&#45;MAN Up&#45;&gt;Move Left</title>
<path fill="none" stroke="red" stroke-width="0.24" d="M395.07,-122.93C383.97,-112.33 364.54,-93.77 347.38,-77.38"/>
<polygon fill="red" stroke="red" stroke-width="0.24" points="350.11,-75.15 340.46,-70.78 345.28,-80.21 350.11,-75.15"/>
</g>
<!-- PACM&#45;MAN Down -->
<g id="node16" class="node">
<title>PACM&#45;MAN Down</title>
<polygon fill="lightblue" stroke="black" points="90.25,-141.83 0,-141.83 0,-123.33 90.25,-123.33 90.25,-141.83"/>
<text text-anchor="middle" x="45.12" y="-129.28" font-family="Times,serif" font-size="9.00">PACM&#45;MAN Down</text>
</g>
<!-- PACM&#45;MAN Down&#45;&gt;Move Left -->
<g id="edge11" class="edge">
<title>PACM&#45;MAN Down&#45;&gt;Move Left</title>
<path fill="none" stroke="red" stroke-width="0.16" d="M71.8,-122.93C117.51,-108.1 211.32,-77.68 267.56,-59.44"/>
<polygon fill="red" stroke="red" stroke-width="0.16" points="268.61,-62.78 277.04,-56.37 266.45,-56.12 268.61,-62.78"/>
</g>
<!-- Power&#45;Up Time -->
<g id="node17" class="node">
<title>Power&#45;Up Time</title>
<polygon fill="lightblue" stroke="black" points="182,-141.83 108.25,-141.83 108.25,-123.33 182,-123.33 182,-141.83"/>
<text text-anchor="middle" x="145.12" y="-129.28" font-family="Times,serif" font-size="9.00">Power&#45;Up Time</text>
</g>
<!-- Power&#45;Up Time&#45;&gt;Move Left -->
<g id="edge12" class="edge">
<title>Power&#45;Up Time&#45;&gt;Move Left</title>
<path fill="none" stroke="green" stroke-width="0.32" stroke-dasharray="1,5" d="M161.85,-122.93C186.99,-109.92 235.34,-84.91 270.63,-66.65"/>
<polygon fill="green" stroke="green" stroke-width="0.32" points="272.05,-69.85 279.32,-62.15 268.83,-63.64 272.05,-69.85"/>
</g>
</g>
</svg>
