<?xml version="1.0" encoding="UTF-8" standalone="no"?>
<!DOCTYPE svg PUBLIC "-//W3C//DTD SVG 1.1//EN"
 "http://www.w3.org/Graphics/SVG/1.1/DTD/svg11.dtd">
<!-- Generated by graphviz version 12.0.0 (20240704.0754)
 -->
<!-- Pages: 1 -->
<svg width="2627pt" height="228pt"
 viewBox="0.00 0.00 2626.97 227.55" xmlns="http://www.w3.org/2000/svg" xmlns:xlink="http://www.w3.org/1999/xlink">
<g id="graph0" class="graph" transform="scale(1 1) rotate(0) translate(4 223.55)">
<polygon fill="white" stroke="none" points="-4,4 -4,-223.55 2622.97,-223.55 2622.97,4 -4,4"/>
<!-- Pellet Right -->
<g id="node1" class="node">
<title>Pellet Right</title>
<polygon fill="lightblue" stroke="black" points="2245.26,-219.55 2188.01,-219.55 2188.01,-201.05 2245.26,-201.05 2245.26,-219.55"/>
<text text-anchor="middle" x="2216.63" y="-207" font-family="Times,serif" font-size="9.00">Pellet Right</text>
</g>
<!-- Move Right -->
<g id="node18" class="node">
<title>Move Right</title>
<ellipse fill="lightblue" stroke="black" cx="1268.63" cy="-43.66" rx="41.54" ry="41.54"/>
<text text-anchor="middle" x="1268.63" y="-40.36" font-family="Times,serif" font-size="9.00">Move Right</text>
</g>
<!-- Pellet Right&#45;&gt;Move Right -->
<g id="edge22" class="edge">
<title>Pellet Right&#45;&gt;Move Right</title>
<path fill="none" stroke="green" stroke-width="0.24" d="M2217.21,-200.73C2217.87,-182.98 2216.55,-142.3 2192.63,-123.33 2118.56,-64.59 1433.41,-113.69 1342.63,-87.33 1331.84,-84.19 1320.95,-79.17 1310.97,-73.66"/>
<polygon fill="green" stroke="green" stroke-width="0.24" points="1312.8,-70.68 1302.4,-68.68 1309.28,-76.73 1312.8,-70.68"/>
</g>
<!-- Move Left -->
<g id="node19" class="node">
<title>Move Left</title>
<ellipse fill="lightblue" stroke="black" cx="1054.63" cy="-43.66" rx="37.83" ry="37.83"/>
<text text-anchor="middle" x="1054.63" y="-40.36" font-family="Times,serif" font-size="9.00">Move Left</text>
</g>
<!-- Pellet Right&#45;&gt;Move Left -->
<g id="edge23" class="edge">
<title>Pellet Right&#45;&gt;Move Left</title>
<path fill="none" stroke="red" stroke-width="0.49" d="M2187.73,-202.1C2118.92,-185.27 1939.77,-143.28 1787.63,-123.33 1535.95,-90.31 1468.25,-127.65 1217.63,-87.33 1177.63,-80.89 1133.2,-68.93 1100.84,-59.31"/>
<polygon fill="red" stroke="red" stroke-width="0.49" points="1102.07,-56.02 1091.49,-56.49 1100.05,-62.73 1102.07,-56.02"/>
</g>
<!-- Move Up -->
<g id="node20" class="node">
<title>Move Up</title>
<ellipse fill="lightblue" stroke="black" cx="1387.63" cy="-43.66" rx="35.71" ry="35.71"/>
<text text-anchor="middle" x="1387.63" y="-40.36" font-family="Times,serif" font-size="9.00">Move Up</text>
</g>
<!-- Pellet Right&#45;&gt;Move Up -->
<g id="edge24" class="edge">
<title>Pellet Right&#45;&gt;Move Up</title>
<path fill="none" stroke="red" stroke-width="0.32" d="M2187.7,-202.15C2121.29,-185.97 1952.62,-146.17 1809.63,-123.33 1663.94,-100.05 1621.77,-126.89 1479.63,-87.33 1461.91,-82.4 1443.33,-74.38 1427.54,-66.62"/>
<polygon fill="red" stroke="red" stroke-width="0.32" points="1429.52,-63.7 1419.02,-62.33 1426.37,-69.95 1429.52,-63.7"/>
</g>
<!-- Move Down -->
<g id="node21" class="node">
<title>Move Down</title>
<ellipse fill="lightblue" stroke="black" cx="1532.63" cy="-43.66" rx="43.66" ry="43.66"/>
<text text-anchor="middle" x="1532.63" y="-40.36" font-family="Times,serif" font-size="9.00">Move Down</text>
</g>
<!-- Pellet Right&#45;&gt;Move Down -->
<g id="edge25" class="edge">
<title>Pellet Right&#45;&gt;Move Down</title>
<path fill="none" stroke="red" stroke-width="0.38" d="M2245.61,-207.37C2296.58,-203.3 2398.96,-191.92 2420.63,-165.05 2432.27,-150.61 2433.15,-137.01 2420.63,-123.33 2364.25,-61.73 1771.77,-48.08 1587.21,-45.32"/>
<polygon fill="red" stroke="red" stroke-width="0.38" points="1587.29,-41.82 1577.24,-45.17 1587.19,-48.82 1587.29,-41.82"/>
</g>
<!-- 334 -->
<g id="node23" class="node">
<title>334</title>
<ellipse fill="white" stroke="black" cx="1331.63" cy="-144.19" rx="20.86" ry="20.86"/>
<text text-anchor="middle" x="1331.63" y="-140.89" font-family="Times,serif" font-size="9.00">334</text>
</g>
<!-- Pellet Right&#45;&gt;334 -->
<g id="edge1" class="edge">
<title>Pellet Right&#45;&gt;334</title>
<path fill="none" stroke="green" stroke-width="0.19" d="M2187.84,-207.19C2165,-205.52 2132.27,-203.13 2103.63,-201.05 1815.94,-180.14 1467.94,-155.02 1363.03,-147.45"/>
<polygon fill="green" stroke="green" stroke-width="0.19" points="1363.33,-143.96 1353.11,-146.74 1362.83,-150.95 1363.33,-143.96"/>
</g>
<!-- Pellet Left -->
<g id="node2" class="node">
<title>Pellet Left</title>
<polygon fill="lightblue" stroke="black" points="1634.63,-219.55 1582.63,-219.55 1582.63,-201.05 1634.63,-201.05 1634.63,-219.55"/>
<text text-anchor="middle" x="1608.63" y="-207" font-family="Times,serif" font-size="9.00">Pellet Left</text>
</g>
<!-- Pellet Left&#45;&gt;Move Right -->
<g id="edge26" class="edge">
<title>Pellet Left&#45;&gt;Move Right</title>
<path fill="none" stroke="red" stroke-width="0.42" d="M1609.05,-200.66C1609.37,-183.14 1607.4,-143.43 1584.63,-123.33 1503.1,-51.37 1445.31,-123.11 1342.63,-87.33 1332.23,-83.7 1321.64,-78.59 1311.84,-73.16"/>
<polygon fill="red" stroke="red" stroke-width="0.42" points="1313.67,-70.18 1303.26,-68.21 1310.17,-76.24 1313.67,-70.18"/>
</g>
<!-- Pellet Left&#45;&gt;Move Left -->
<g id="edge27" class="edge">
<title>Pellet Left&#45;&gt;Move Left</title>
<path fill="none" stroke="green" stroke-width="0.98" d="M1591.08,-200.59C1555.93,-183.47 1474.08,-145.22 1401.63,-123.33 1321.86,-99.23 1298.87,-105.89 1217.63,-87.33 1178.47,-78.38 1134.43,-66.76 1102,-57.9"/>
<polygon fill="green" stroke="green" stroke-width="0.98" points="1103.05,-54.56 1092.48,-55.29 1101.2,-61.31 1103.05,-54.56"/>
</g>
<!-- Pellet Left&#45;&gt;Move Up -->
<g id="edge28" class="edge">
<title>Pellet Left&#45;&gt;Move Up</title>
<path fill="none" stroke="green" stroke-width="0.22" d="M1597.06,-200.68C1565.18,-176.92 1475.03,-109.77 1424.01,-71.77"/>
<polygon fill="green" stroke="green" stroke-width="0.22" points="1426.25,-69.06 1416.13,-65.9 1422.06,-74.68 1426.25,-69.06"/>
</g>
<!-- Pellet Left&#45;&gt;Move Down -->
<g id="edge29" class="edge">
<title>Pellet Left&#45;&gt;Move Down</title>
<path fill="none" stroke="green" stroke-width="0.18" d="M1634.85,-207.58C1684.79,-203.71 1790.57,-192.41 1812.63,-165.05 1824.27,-150.61 1823.83,-138.11 1812.63,-123.33 1785.36,-87.34 1659.55,-63.24 1586.18,-51.99"/>
<polygon fill="green" stroke="green" stroke-width="0.18" points="1586.87,-48.55 1576.46,-50.53 1585.83,-55.48 1586.87,-48.55"/>
</g>
<!-- Pellet Left&#45;&gt;334 -->
<g id="edge2" class="edge">
<title>Pellet Left&#45;&gt;334</title>
<path fill="none" stroke="red" stroke-width="0.36" d="M1582.32,-203.21C1530.79,-191.28 1416.84,-164.91 1362.12,-152.24"/>
<polygon fill="red" stroke="red" stroke-width="0.36" points="1363.06,-148.87 1352.53,-150.02 1361.48,-155.69 1363.06,-148.87"/>
</g>
<!-- Pellet Up -->
<g id="node3" class="node">
<title>Pellet Up</title>
<polygon fill="lightblue" stroke="black" points="128.13,-219.55 79.13,-219.55 79.13,-201.05 128.13,-201.05 128.13,-219.55"/>
<text text-anchor="middle" x="103.63" y="-207" font-family="Times,serif" font-size="9.00">Pellet Up</text>
</g>
<!-- Pellet Up&#45;&gt;Move Right -->
<g id="edge30" class="edge">
<title>Pellet Up&#45;&gt;Move Right</title>
<path fill="none" stroke="red" stroke-width="0.35" d="M82.5,-200.57C68.11,-193.36 50.17,-181.62 41.63,-165.05 33.14,-148.56 28.74,-136.66 41.63,-123.33 82.58,-80.96 1043.3,-95.67 1101.63,-87.33 1141.77,-81.59 1186.19,-69.97 1219.13,-60.31"/>
<polygon fill="red" stroke="red" stroke-width="0.35" points="1219.88,-63.74 1228.46,-57.53 1217.88,-57.03 1219.88,-63.74"/>
</g>
<!-- Pellet Up&#45;&gt;Move Left -->
<g id="edge31" class="edge">
<title>Pellet Up&#45;&gt;Move Left</title>
<path fill="none" stroke="red" stroke-width="0.45" d="M78.89,-205.37C56.24,-200.32 23.98,-189.14 8.63,-165.05 -1.33,-149.41 -3.98,-136.92 8.63,-123.33 77.16,-49.46 808.97,-44.52 1006.01,-44.54"/>
<polygon fill="red" stroke="red" stroke-width="0.45" points="1005.92,-48.04 1015.92,-44.54 1005.92,-41.04 1005.92,-48.04"/>
</g>
<!-- Pellet Up&#45;&gt;Move Up -->
<g id="edge32" class="edge">
<title>Pellet Up&#45;&gt;Move Up</title>
<path fill="none" stroke="red" stroke-width="0.17" d="M111.66,-200.57C129.27,-182.15 173.47,-139.65 220.63,-123.33 451.54,-43.4 1085.94,-158.73 1319.63,-87.33 1330.66,-83.96 1341.67,-78.31 1351.51,-72.2"/>
<polygon fill="red" stroke="red" stroke-width="0.17" points="1353.16,-75.31 1359.62,-66.91 1349.33,-69.45 1353.16,-75.31"/>
</g>
<!-- Pellet Up&#45;&gt;Move Down -->
<g id="edge33" class="edge">
<title>Pellet Up&#45;&gt;Move Down</title>
<path fill="none" stroke="green" stroke-width="0.14" d="M126.69,-200.64C176.66,-182.36 299.01,-140.12 405.63,-123.33 631.21,-87.81 1209.73,-136.97 1432.63,-87.33 1450.34,-83.38 1468.85,-76.38 1485.07,-69.18"/>
<polygon fill="green" stroke="green" stroke-width="0.14" points="1486.5,-72.38 1494.13,-65.03 1483.58,-66.01 1486.5,-72.38"/>
</g>
<!-- Pellet Up&#45;&gt;334 -->
<g id="edge3" class="edge">
<title>Pellet Up&#45;&gt;334</title>
<path fill="none" stroke="green" stroke-width="0.37" d="M128.29,-203.45C133.02,-202.51 137.96,-201.65 142.63,-201.05 599.63,-142.37 1162.5,-143.53 1300.17,-144.81"/>
<polygon fill="green" stroke="green" stroke-width="0.37" points="1299.81,-148.3 1309.84,-144.9 1299.88,-141.3 1299.81,-148.3"/>
</g>
<!-- 911 -->
<g id="node24" class="node">
<title>911</title>
<ellipse fill="white" stroke="black" cx="71.63" cy="-144.19" rx="20.86" ry="20.86"/>
<text text-anchor="middle" x="71.63" y="-140.89" font-family="Times,serif" font-size="9.00">911</text>
</g>
<!-- Pellet Up&#45;&gt;911 -->
<g id="edge92" class="edge">
<title>Pellet Up&#45;&gt;911</title>
<path fill="none" stroke="red" stroke-width="0.23" d="M99.32,-200.65C95.68,-193.38 90.29,-182.56 85.22,-172.41"/>
<polygon fill="red" stroke="red" stroke-width="0.23" points="88.47,-171.09 80.87,-163.71 82.21,-174.22 88.47,-171.09"/>
</g>
<!-- Pellet Down -->
<g id="node4" class="node">
<title>Pellet Down</title>
<polygon fill="lightblue" stroke="black" points="2094.76,-219.55 2034.51,-219.55 2034.51,-201.05 2094.76,-201.05 2094.76,-219.55"/>
<text text-anchor="middle" x="2064.63" y="-207" font-family="Times,serif" font-size="9.00">Pellet Down</text>
</g>
<!-- Pellet Down&#45;&gt;Move Right -->
<g id="edge34" class="edge">
<title>Pellet Down&#45;&gt;Move Right</title>
<path fill="none" stroke="green" stroke-width="0.16" d="M2065.19,-200.74C2065.83,-183.03 2064.46,-142.4 2040.63,-123.33 1980,-74.8 1417.11,-109.33 1342.63,-87.33 1331.74,-84.11 1320.75,-79 1310.68,-73.42"/>
<polygon fill="green" stroke="green" stroke-width="0.16" points="1312.71,-70.55 1302.31,-68.55 1309.19,-76.6 1312.71,-70.55"/>
</g>
<!-- Pellet Down&#45;&gt;Move Left -->
<g id="edge35" class="edge">
<title>Pellet Down&#45;&gt;Move Left</title>
<path fill="none" stroke="red" stroke-width="0.13" d="M2034.02,-201.27C1967.37,-184.13 1803.95,-143.82 1664.63,-123.33 1467.44,-94.33 1414.13,-120.69 1217.63,-87.33 1177.51,-80.52 1132.86,-68.51 1100.46,-58.97"/>
<polygon fill="red" stroke="red" stroke-width="0.13" points="1101.58,-55.65 1090.99,-56.15 1099.58,-62.36 1101.58,-55.65"/>
</g>
<!-- Pellet Down&#45;&gt;Move Up -->
<g id="edge36" class="edge">
<title>Pellet Down&#45;&gt;Move Up</title>
<path fill="none" stroke="red" stroke-width="0.5" d="M2034.25,-201.11C1972.87,-184.77 1829.55,-147.59 1707.63,-123.33 1607.02,-103.3 1577.78,-117.19 1479.63,-87.33 1462.2,-82.02 1443.82,-74.03 1428.11,-66.39"/>
<polygon fill="red" stroke="red" stroke-width="0.5" points="1429.89,-63.37 1419.38,-62.05 1426.77,-69.64 1429.89,-63.37"/>
</g>
<!-- Pellet Down&#45;&gt;Move Down -->
<g id="edge37" class="edge">
<title>Pellet Down&#45;&gt;Move Down</title>
<path fill="none" stroke="green" stroke-width="0.85" d="M2095.23,-207.24C2146.72,-203.06 2247.19,-191.64 2268.63,-165.05 2280.27,-150.61 2281.03,-137.12 2268.63,-123.33 2223.23,-72.81 1750.81,-52.08 1587.67,-46.39"/>
<polygon fill="green" stroke="green" stroke-width="0.85" points="1587.87,-42.9 1577.76,-46.05 1587.63,-49.89 1587.87,-42.9"/>
</g>
<!-- Pellet Down&#45;&gt;334 -->
<g id="edge4" class="edge">
<title>Pellet Down&#45;&gt;334</title>
<path fill="none" stroke="red" stroke-width="0.28" d="M2034.07,-206.62C1915.04,-196.21 1483.18,-158.44 1362.91,-147.92"/>
<polygon fill="red" stroke="red" stroke-width="0.28" points="1363.27,-144.44 1353,-147.06 1362.66,-151.41 1363.27,-144.44"/>
</g>
<!-- Power Pellet Right -->
<g id="node5" class="node">
<title>Power Pellet Right</title>
<polygon fill="lightblue" stroke="black" points="2410.01,-219.55 2327.26,-219.55 2327.26,-201.05 2410.01,-201.05 2410.01,-219.55"/>
<text text-anchor="middle" x="2368.63" y="-207" font-family="Times,serif" font-size="9.00">Power Pellet Right</text>
</g>
<!-- Power Pellet Right&#45;&gt;Move Right -->
<g id="edge38" class="edge">
<title>Power Pellet Right&#45;&gt;Move Right</title>
<path fill="none" stroke="red" stroke-width="0.26" d="M2369.22,-200.71C2369.9,-182.94 2368.61,-142.22 2344.63,-123.33 2257.12,-54.39 1449.71,-118.06 1342.63,-87.33 1331.83,-84.23 1320.93,-79.22 1310.95,-73.71"/>
<polygon fill="red" stroke="red" stroke-width="0.26" points="1312.81,-70.75 1302.4,-68.75 1309.29,-76.8 1312.81,-70.75"/>
</g>
<!-- Power Pellet Right&#45;&gt;Move Left -->
<g id="edge39" class="edge">
<title>Power Pellet Right&#45;&gt;Move Left</title>
<path fill="none" stroke="green" stroke-width="0.31" d="M2332.15,-200.56C2255.89,-182.68 2073.8,-142.04 1918.63,-123.33 1608.91,-85.97 1525.92,-135.07 1217.63,-87.33 1177.42,-81.1 1132.78,-69.04 1100.4,-59.33"/>
<polygon fill="green" stroke="green" stroke-width="0.31" points="1101.8,-56.1 1091.21,-56.54 1099.76,-62.8 1101.8,-56.1"/>
</g>
<!-- Power Pellet Right&#45;&gt;Move Up -->
<g id="edge40" class="edge">
<title>Power Pellet Right&#45;&gt;Move Up</title>
<path fill="none" stroke="green" stroke-width="0.61" d="M2331.49,-200.56C2256.04,-183.15 2079.19,-144 1928.63,-123.33 1730.3,-96.09 1673.25,-138.24 1479.63,-87.33 1462.01,-82.69 1443.59,-74.83 1427.91,-67.11"/>
<polygon fill="green" stroke="green" stroke-width="0.61" points="1429.86,-64.17 1419.35,-62.77 1426.69,-70.41 1429.86,-64.17"/>
</g>
<!-- Power Pellet Right&#45;&gt;Move Down -->
<g id="edge41" class="edge">
<title>Power Pellet Right&#45;&gt;Move Down</title>
<path fill="none" stroke="red" stroke-width="0.18" d="M2410.16,-204.01C2454.23,-197.46 2519.55,-184.68 2534.63,-165.05 2545.93,-150.34 2547.22,-136.94 2534.63,-123.33 2469.93,-53.35 1785.94,-45.52 1586.76,-44.73"/>
<polygon fill="red" stroke="red" stroke-width="0.18" points="1586.83,-41.23 1576.81,-44.69 1586.8,-48.23 1586.83,-41.23"/>
</g>
<!-- Power Pellet Right&#45;&gt;334 -->
<g id="edge5" class="edge">
<title>Power Pellet Right&#45;&gt;334</title>
<path fill="none" stroke="green" stroke-width="0.51" d="M2326.95,-206.16C2305.37,-204.57 2278.59,-202.64 2254.63,-201.05 1905.09,-177.82 1480.82,-153.61 1363.18,-146.96"/>
<polygon fill="green" stroke="green" stroke-width="0.51" points="1363.72,-143.49 1353.54,-146.42 1363.32,-150.48 1363.72,-143.49"/>
</g>
<!-- Power Pellet Left -->
<g id="node6" class="node">
<title>Power Pellet Left</title>
<polygon fill="lightblue" stroke="black" points="2578.38,-219.55 2500.88,-219.55 2500.88,-201.05 2578.38,-201.05 2578.38,-219.55"/>
<text text-anchor="middle" x="2539.63" y="-207" font-family="Times,serif" font-size="9.00">Power Pellet Left</text>
</g>
<!-- Power Pellet Left&#45;&gt;Move Right -->
<g id="edge42" class="edge">
<title>Power Pellet Left&#45;&gt;Move Right</title>
<path fill="none" stroke="red" stroke-width="0.58" d="M2527.09,-200.57C2499.81,-182.14 2432.37,-139.63 2368.63,-123.33 2147.61,-66.78 1561.95,-150.16 1342.63,-87.33 1331.94,-84.26 1321.15,-79.33 1311.25,-73.89"/>
<polygon fill="red" stroke="red" stroke-width="0.58" points="1313.23,-70.99 1302.82,-69 1309.71,-77.04 1313.23,-70.99"/>
</g>
<!-- Power Pellet Left&#45;&gt;Move Up -->
<g id="edge43" class="edge">
<title>Power Pellet Left&#45;&gt;Move Up</title>
<path fill="none" stroke="green" stroke-width="0.72" d="M2500.42,-200.75C2418.45,-183.23 2222.81,-143.23 2056.63,-123.33 1801.51,-92.77 1728.7,-150.46 1479.63,-87.33 1462.13,-82.89 1443.89,-75.16 1428.31,-67.49"/>
<polygon fill="green" stroke="green" stroke-width="0.72" points="1429.96,-64.41 1419.46,-62.99 1426.78,-70.65 1429.96,-64.41"/>
</g>
<!-- Power Pellet Left&#45;&gt;Move Down -->
<g id="edge44" class="edge">
<title>Power Pellet Left&#45;&gt;Move Down</title>
<path fill="none" stroke="green" stroke-width="0.11" d="M2565.49,-200.63C2581.61,-193.73 2601.04,-182.32 2610.63,-165.05 2619.63,-148.84 2623.26,-136.91 2610.63,-123.33 2540.39,-47.77 1795.33,-43.98 1586.67,-44.41"/>
<polygon fill="green" stroke="green" stroke-width="0.11" points="1586.72,-40.91 1576.73,-44.43 1586.74,-47.91 1586.72,-40.91"/>
</g>
<!-- Power Pellet Left&#45;&gt;334 -->
<g id="edge6" class="edge">
<title>Power Pellet Left&#45;&gt;334</title>
<path fill="none" stroke="red" stroke-width="0.25" d="M2500.41,-206.46C2476.73,-204.78 2445.95,-202.68 2418.63,-201.05 2000.78,-176.07 1492.15,-152.49 1362.73,-146.59"/>
<polygon fill="red" stroke="red" stroke-width="0.25" points="1363.26,-143.12 1353.11,-146.16 1362.94,-150.11 1363.26,-143.12"/>
</g>
<!-- Power Pellet Up -->
<g id="node7" class="node">
<title>Power Pellet Up</title>
<polygon fill="lightblue" stroke="black" points="616.88,-219.55 542.38,-219.55 542.38,-201.05 616.88,-201.05 616.88,-219.55"/>
<text text-anchor="middle" x="579.63" y="-207" font-family="Times,serif" font-size="9.00">Power Pellet Up</text>
</g>
<!-- Power Pellet Up&#45;&gt;Move Right -->
<g id="edge45" class="edge">
<title>Power Pellet Up&#45;&gt;Move Right</title>
<path fill="none" stroke="red" stroke-width="0.2" d="M617.36,-200.76C703.38,-181.24 920.6,-131.6 1101.63,-87.33 1141.01,-77.7 1185.49,-66.31 1218.63,-57.72"/>
<polygon fill="red" stroke="red" stroke-width="0.2" points="1219.45,-61.13 1228.25,-55.23 1217.69,-54.35 1219.45,-61.13"/>
</g>
<!-- Power Pellet Up&#45;&gt;Move Left -->
<g id="edge46" class="edge">
<title>Power Pellet Up&#45;&gt;Move Left</title>
<path fill="none" stroke="green" stroke-width="0.15" stroke-dasharray="1,5" d="M542.24,-205.12C496.25,-199.13 422.23,-186.39 405.63,-165.05 394.25,-150.41 393.33,-137.21 405.63,-123.33 445.46,-78.38 863.12,-53.98 1006.57,-46.88"/>
<polygon fill="green" stroke="green" stroke-width="0.15" points="1006.37,-50.39 1016.19,-46.41 1006.03,-43.4 1006.37,-50.39"/>
</g>
<!-- Power Pellet Up&#45;&gt;Move Up -->
<g id="edge47" class="edge">
<title>Power Pellet Up&#45;&gt;Move Up</title>
<path fill="none" stroke="red" stroke-width="0.44" d="M587.87,-200.66C605.9,-182.42 651.09,-140.24 698.63,-123.33 959.11,-30.67 1056.27,-171.43 1319.63,-87.33 1330.4,-83.89 1341.16,-78.35 1350.85,-72.38"/>
<polygon fill="red" stroke="red" stroke-width="0.44" points="1352.74,-75.33 1359.22,-66.95 1348.93,-69.46 1352.74,-75.33"/>
</g>
<!-- Power Pellet Up&#45;&gt;Move Down -->
<g id="edge48" class="edge">
<title>Power Pellet Up&#45;&gt;Move Down</title>
<path fill="none" stroke="green" stroke-width="0.34" stroke-dasharray="1,5" d="M608.63,-200.65C669.27,-182.95 814.19,-142.63 938.63,-123.33 1156.17,-89.58 1218.7,-139.23 1432.63,-87.33 1450.26,-83.05 1468.76,-75.97 1484.97,-68.79"/>
<polygon fill="green" stroke="green" stroke-width="0.34" points="1486.11,-72.12 1493.77,-64.79 1483.21,-65.75 1486.11,-72.12"/>
</g>
<!-- 994 -->
<g id="node22" class="node">
<title>994</title>
<ellipse fill="white" stroke="black" cx="435.63" cy="-144.19" rx="20.86" ry="20.86"/>
<text text-anchor="middle" x="435.63" y="-140.89" font-family="Times,serif" font-size="9.00">994</text>
</g>
<!-- Power Pellet Up&#45;&gt;994 -->
<g id="edge90" class="edge">
<title>Power Pellet Up&#45;&gt;994</title>
<path fill="none" stroke="green" stroke-width="0.24" d="M555.86,-200.67C533.51,-192.33 499.31,-178.93 470.63,-165.05 467.83,-163.69 464.94,-162.2 462.08,-160.67"/>
<polygon fill="green" stroke="green" stroke-width="0.24" points="463.96,-157.71 453.52,-155.93 460.57,-163.84 463.96,-157.71"/>
</g>
<!-- Power Pellet Up&#45;&gt;334 -->
<g id="edge7" class="edge">
<title>Power Pellet Up&#45;&gt;334</title>
<path fill="none" stroke="green" stroke-width="0.24" d="M617.18,-206.1C747.69,-194.97 1180.18,-158.1 1300.39,-147.85"/>
<polygon fill="green" stroke="green" stroke-width="0.24" points="1300.68,-151.34 1310.35,-147 1300.09,-144.36 1300.68,-151.34"/>
</g>
<!-- Power Pellet Down -->
<g id="node8" class="node">
<title>Power Pellet Down</title>
<polygon fill="lightblue" stroke="black" points="869.51,-219.55 783.76,-219.55 783.76,-201.05 869.51,-201.05 869.51,-219.55"/>
<text text-anchor="middle" x="826.63" y="-207" font-family="Times,serif" font-size="9.00">Power Pellet Down</text>
</g>
<!-- Power Pellet Down&#45;&gt;Move Right -->
<g id="edge49" class="edge">
<title>Power Pellet Down&#45;&gt;Move Right</title>
<path fill="none" stroke="red" stroke-width="0.24" d="M850.08,-200.56C919.55,-174.69 1125.28,-98.06 1219.96,-62.79"/>
<polygon fill="red" stroke="red" stroke-width="0.24" points="1221.1,-66.1 1229.25,-59.33 1218.65,-59.54 1221.1,-66.1"/>
</g>
<!-- Power Pellet Down&#45;&gt;Move Left -->
<g id="edge50" class="edge">
<title>Power Pellet Down&#45;&gt;Move Left</title>
<path fill="none" stroke="red" stroke-width="0.4" d="M783.34,-206.14C729.55,-201.21 642.42,-189.59 622.63,-165.05 610.99,-150.61 610.75,-137.56 622.63,-123.33 671.1,-65.24 904.08,-49.94 1006.34,-46"/>
<polygon fill="red" stroke="red" stroke-width="0.4" points="1006.22,-49.5 1016.09,-45.64 1005.97,-42.51 1006.22,-49.5"/>
</g>
<!-- Power Pellet Down&#45;&gt;Move Up -->
<g id="edge51" class="edge">
<title>Power Pellet Down&#45;&gt;Move Up</title>
<path fill="none" stroke="red" stroke-width="0.14" d="M826.11,-200.79C825.55,-183.17 827.04,-142.7 850.63,-123.33 931.41,-56.99 1220.36,-120.06 1319.63,-87.33 1330.58,-83.72 1341.56,-77.98 1351.4,-71.87"/>
<polygon fill="red" stroke="red" stroke-width="0.14" points="1353.09,-74.96 1359.56,-66.57 1349.27,-69.09 1353.09,-74.96"/>
</g>
<!-- Power Pellet Down&#45;&gt;Move Down -->
<g id="edge52" class="edge">
<title>Power Pellet Down&#45;&gt;Move Down</title>
<path fill="none" stroke="green" stroke-width="0.18" d="M847.51,-200.55C890.73,-182.85 993.5,-142.8 1083.63,-123.33 1236.05,-90.39 1281.66,-126.36 1432.63,-87.33 1450.2,-82.79 1468.67,-75.64 1484.9,-68.48"/>
<polygon fill="green" stroke="green" stroke-width="0.18" points="1486.25,-71.71 1493.92,-64.4 1483.37,-65.33 1486.25,-71.71"/>
</g>
<!-- Power Pellet Down&#45;&gt;334 -->
<g id="edge8" class="edge">
<title>Power Pellet Down&#45;&gt;334</title>
<path fill="none" stroke="red" stroke-width="0.19" d="M869.69,-203.83C969.4,-191.17 1214.26,-160.09 1300.76,-149.11"/>
<polygon fill="red" stroke="red" stroke-width="0.19" points="1300.97,-152.61 1310.45,-147.88 1300.08,-145.66 1300.97,-152.61"/>
</g>
<!-- Ghost Info Right -->
<g id="node9" class="node">
<title>Ghost Info Right</title>
<polygon fill="lightblue" stroke="black" points="1017.01,-219.55 940.26,-219.55 940.26,-201.05 1017.01,-201.05 1017.01,-219.55"/>
<text text-anchor="middle" x="978.63" y="-207" font-family="Times,serif" font-size="9.00">Ghost Info Right</text>
</g>
<!-- Ghost Info Right&#45;&gt;Move Right -->
<g id="edge53" class="edge">
<title>Ghost Info Right&#45;&gt;Move Right</title>
<path fill="none" stroke="red" stroke-width="0.19" d="M993.81,-200.68C1036.31,-176.55 1157.66,-107.66 1224,-70"/>
<polygon fill="red" stroke="red" stroke-width="0.19" points="1225.37,-73.25 1232.34,-65.27 1221.91,-67.16 1225.37,-73.25"/>
</g>
<!-- Ghost Info Right&#45;&gt;Move Left -->
<g id="edge54" class="edge">
<title>Ghost Info Right&#45;&gt;Move Left</title>
<path fill="none" stroke="red" stroke-width="0.23" d="M939.89,-206.55C886.62,-201.87 794.99,-190.3 774.63,-165.05 762.99,-150.61 763.43,-138.11 774.63,-123.33 802.61,-86.41 934.31,-62 1006.68,-51.14"/>
<polygon fill="red" stroke="red" stroke-width="0.23" points="1007.18,-54.6 1016.56,-49.68 1006.16,-47.68 1007.18,-54.6"/>
</g>
<!-- Ghost Info Right&#45;&gt;Move Up -->
<g id="edge55" class="edge">
<title>Ghost Info Right&#45;&gt;Move Up</title>
<path fill="none" stroke="green" stroke-width="0.26" d="M978.16,-200.59C977.73,-182.96 979.52,-143.03 1002.63,-123.33 1056.59,-77.34 1252.71,-110.75 1319.63,-87.33 1330.41,-83.56 1341.25,-77.83 1351.01,-71.78"/>
<polygon fill="green" stroke="green" stroke-width="0.26" points="1352.82,-74.78 1359.31,-66.41 1349.01,-68.91 1352.82,-74.78"/>
</g>
<!-- Ghost Info Right&#45;&gt;Move Down -->
<g id="edge56" class="edge">
<title>Ghost Info Right&#45;&gt;Move Down</title>
<path fill="none" stroke="green" stroke-width="0.15" d="M997.81,-200.59C1036.61,-183.31 1127.58,-144.53 1207.63,-123.33 1305.53,-97.4 1335.33,-115.41 1432.63,-87.33 1449.91,-82.34 1468.19,-75.15 1484.32,-68.1"/>
<polygon fill="green" stroke="green" stroke-width="0.15" points="1485.64,-71.34 1493.34,-64.06 1482.78,-64.95 1485.64,-71.34"/>
</g>
<!-- Ghost Info Right&#45;&gt;334 -->
<g id="edge9" class="edge">
<title>Ghost Info Right&#45;&gt;334</title>
<path fill="none" stroke="red" stroke-width="0.46" stroke-dasharray="1,5" d="M1017.42,-202.25C1088.02,-189.43 1236.16,-162.53 1300.6,-150.82"/>
<polygon fill="red" stroke="red" stroke-width="0.46" points="1301.01,-154.31 1310.22,-149.08 1299.76,-147.42 1301.01,-154.31"/>
</g>
<!-- Ghost Info Left -->
<g id="node10" class="node">
<title>Ghost Info Left</title>
<polygon fill="lightblue" stroke="black" points="1166.38,-219.55 1094.88,-219.55 1094.88,-201.05 1166.38,-201.05 1166.38,-219.55"/>
<text text-anchor="middle" x="1130.63" y="-207" font-family="Times,serif" font-size="9.00">Ghost Info Left</text>
</g>
<!-- Ghost Info Left&#45;&gt;Move Right -->
<g id="edge57" class="edge">
<title>Ghost Info Left&#45;&gt;Move Right</title>
<path fill="none" stroke="green" stroke-width="0.51" d="M1137.66,-200.91C1155.41,-179.74 1202.89,-123.09 1235.53,-84.16"/>
<polygon fill="green" stroke="green" stroke-width="0.51" points="1238.01,-86.64 1241.76,-76.73 1232.65,-82.14 1238.01,-86.64"/>
</g>
<!-- Ghost Info Left&#45;&gt;Move Left -->
<g id="edge58" class="edge">
<title>Ghost Info Left&#45;&gt;Move Left</title>
<path fill="none" stroke="green" stroke-width="0.36" d="M1094.54,-206.78C1041.71,-202.25 947.33,-190.72 926.63,-165.05 894.05,-124.64 961.33,-84.76 1010.11,-62.56"/>
<polygon fill="green" stroke="green" stroke-width="0.36" points="1011.37,-65.84 1019.09,-58.59 1008.53,-59.44 1011.37,-65.84"/>
</g>
<!-- Ghost Info Left&#45;&gt;Move Up -->
<g id="edge59" class="edge">
<title>Ghost Info Left&#45;&gt;Move Up</title>
<path fill="none" stroke="green" stroke-width="0.17" d="M1130.33,-200.78C1130.21,-183.5 1132.55,-144.18 1154.63,-123.33 1209.21,-71.8 1250.14,-115.7 1319.63,-87.33 1330.1,-83.05 1340.77,-77.2 1350.45,-71.2"/>
<polygon fill="green" stroke="green" stroke-width="0.17" points="1352.29,-74.18 1358.82,-65.83 1348.51,-68.29 1352.29,-74.18"/>
</g>
<!-- Ghost Info Left&#45;&gt;Move Down -->
<g id="edge60" class="edge">
<title>Ghost Info Left&#45;&gt;Move Down</title>
<path fill="none" stroke="green" stroke-width="0.72" d="M1145.28,-200.68C1174.28,-183.9 1241.46,-146.46 1301.63,-123.33 1357.99,-101.66 1375.62,-107.22 1432.63,-87.33 1449.3,-81.51 1467.13,-74.25 1483.06,-67.38"/>
<polygon fill="green" stroke="green" stroke-width="0.72" points="1484.45,-70.59 1492.21,-63.37 1481.65,-64.17 1484.45,-70.59"/>
</g>
<!-- Ghost Info Left&#45;&gt;334 -->
<g id="edge10" class="edge">
<title>Ghost Info Left&#45;&gt;334</title>
<path fill="none" stroke="green" stroke-width="0.18" d="M1157.74,-200.65C1195.32,-188.67 1262.99,-167.08 1301.91,-154.67"/>
<polygon fill="green" stroke="green" stroke-width="0.18" points="1302.88,-158.03 1311.35,-151.66 1300.76,-151.36 1302.88,-158.03"/>
</g>
<!-- Ghost Info Up -->
<g id="node11" class="node">
<title>Ghost Info Up</title>
<polygon fill="lightblue" stroke="black" points="219.88,-219.55 151.38,-219.55 151.38,-201.05 219.88,-201.05 219.88,-219.55"/>
<text text-anchor="middle" x="185.63" y="-207" font-family="Times,serif" font-size="9.00">Ghost Info Up</text>
</g>
<!-- Ghost Info Up&#45;&gt;Move Right -->
<g id="edge61" class="edge">
<title>Ghost Info Up&#45;&gt;Move Right</title>
<path fill="none" stroke="green" stroke-width="0.33" d="M200.55,-200.66C232.96,-182.42 312.74,-140.25 385.63,-123.33 696,-51.28 786.59,-135 1101.63,-87.33 1141.72,-81.26 1186.15,-69.67 1219.1,-60.09"/>
<polygon fill="green" stroke="green" stroke-width="0.33" points="1219.86,-63.52 1228.46,-57.34 1217.88,-56.8 1219.86,-63.52"/>
</g>
<!-- Ghost Info Up&#45;&gt;Move Left -->
<g id="edge62" class="edge">
<title>Ghost Info Up&#45;&gt;Move Left</title>
<path fill="none" stroke="green" stroke-width="0.28" stroke-dasharray="1,5" d="M173.71,-200.66C163.81,-192.69 150.44,-179.87 144.63,-165.05 137.86,-147.78 132.1,-136.99 144.63,-123.33 203.26,-59.42 826.23,-47.29 1006.2,-45.12"/>
<polygon fill="green" stroke="green" stroke-width="0.28" points="1006.04,-48.62 1016,-45 1005.96,-41.62 1006.04,-48.62"/>
</g>
<!-- Ghost Info Up&#45;&gt;Move Up -->
<g id="edge63" class="edge">
<title>Ghost Info Up&#45;&gt;Move Up</title>
<path fill="none" stroke="red" stroke-width="0.5" d="M202.15,-200.61C238.01,-182.28 326.15,-139.93 405.63,-123.33 604.6,-81.76 1125.43,-147.37 1319.63,-87.33 1330.43,-83.99 1341.21,-78.49 1350.9,-72.52"/>
<polygon fill="red" stroke="red" stroke-width="0.5" points="1352.7,-75.52 1359.18,-67.14 1348.89,-69.66 1352.7,-75.52"/>
</g>
<!-- Ghost Info Up&#45;&gt;Move Down -->
<g id="edge64" class="edge">
<title>Ghost Info Up&#45;&gt;Move Down</title>
<path fill="none" stroke="red" stroke-width="0.37" d="M220,-203.85C336.79,-185.37 712.54,-126.03 738.63,-123.33 1045.85,-91.56 1131.73,-157 1432.63,-87.33 1450.31,-83.23 1468.81,-76.2 1485.03,-69.01"/>
<polygon fill="red" stroke="red" stroke-width="0.37" points="1486.13,-72.35 1493.77,-65.01 1483.22,-65.98 1486.13,-72.35"/>
</g>
<!-- Ghost Info Up&#45;&gt;334 -->
<g id="edge11" class="edge">
<title>Ghost Info Up&#45;&gt;334</title>
<path fill="none" stroke="green" stroke-width="0.38" d="M220.24,-207.36C390.51,-197.84 1137.56,-156.04 1300.27,-146.94"/>
<polygon fill="green" stroke="green" stroke-width="0.38" points="1300.19,-150.45 1309.98,-146.4 1299.8,-143.46 1300.19,-150.45"/>
</g>
<!-- Ghost Info Up&#45;&gt;911 -->
<g id="edge88" class="edge">
<title>Ghost Info Up&#45;&gt;911</title>
<path fill="none" stroke="green" stroke-width="0.14" d="M170.18,-200.67C154.24,-191.77 128.68,-177.48 106.63,-165.05 103.92,-163.52 101.09,-161.92 98.27,-160.32"/>
<polygon fill="green" stroke="green" stroke-width="0.14" points="100.03,-157.3 89.6,-155.41 96.58,-163.39 100.03,-157.3"/>
</g>
<!-- Ghost Info Down -->
<g id="node12" class="node">
<title>Ghost Info Down</title>
<polygon fill="lightblue" stroke="black" points="1289.51,-219.55 1209.76,-219.55 1209.76,-201.05 1289.51,-201.05 1289.51,-219.55"/>
<text text-anchor="middle" x="1249.63" y="-207" font-family="Times,serif" font-size="9.00">Ghost Info Down</text>
</g>
<!-- Ghost Info Down&#45;&gt;Move Right -->
<g id="edge65" class="edge">
<title>Ghost Info Down&#45;&gt;Move Right</title>
<path fill="none" stroke="green" stroke-width="0.15" d="M1244.76,-200.82C1240.07,-192.16 1233.33,-178.15 1230.63,-165.05 1226.9,-146.89 1226.49,-141.4 1230.63,-123.33 1233.3,-111.66 1237.94,-99.71 1243.07,-88.77"/>
<polygon fill="green" stroke="green" stroke-width="0.15" points="1246.09,-90.56 1247.37,-80.04 1239.81,-87.46 1246.09,-90.56"/>
</g>
<!-- Ghost Info Down&#45;&gt;Move Left -->
<g id="edge66" class="edge">
<title>Ghost Info Down&#45;&gt;Move Left</title>
<path fill="none" stroke="red" stroke-width="0.11" stroke-dasharray="1,5" d="M1239.42,-200.68C1212.16,-177.66 1136.64,-113.9 1091.02,-75.39"/>
<polygon fill="red" stroke="red" stroke-width="0.11" points="1093.45,-72.86 1083.55,-69.08 1088.93,-78.2 1093.45,-72.86"/>
</g>
<!-- Ghost Info Down&#45;&gt;Move Up -->
<g id="edge67" class="edge">
<title>Ghost Info Down&#45;&gt;Move Up</title>
<path fill="none" stroke="green" stroke-width="0.17" d="M1253.77,-200.72C1261.76,-184.63 1280.39,-149.22 1301.63,-123.33 1316.52,-105.18 1335.58,-87.32 1351.96,-73.22"/>
<polygon fill="green" stroke="green" stroke-width="0.17" points="1354.2,-75.92 1359.57,-66.78 1349.67,-70.58 1354.2,-75.92"/>
</g>
<!-- Ghost Info Down&#45;&gt;Move Down -->
<g id="edge68" class="edge">
<title>Ghost Info Down&#45;&gt;Move Down</title>
<path fill="none" stroke="green" stroke-width="0.68" d="M1283.91,-200.59C1307.29,-193.54 1338.14,-181.98 1361.63,-165.05 1381.27,-150.9 1378.1,-138.89 1396.63,-123.33 1422.95,-101.22 1456.32,-81.82 1483.41,-67.81"/>
<polygon fill="green" stroke="green" stroke-width="0.68" points="1484.83,-71.02 1492.16,-63.37 1481.66,-64.77 1484.83,-71.02"/>
</g>
<!-- Ghost Info Down&#45;&gt;334 -->
<g id="edge12" class="edge">
<title>Ghost Info Down&#45;&gt;334</title>
<path fill="none" stroke="red" stroke-width="0.23" d="M1260.69,-200.65C1272.57,-191.37 1291.81,-176.32 1307.27,-164.24"/>
<polygon fill="red" stroke="red" stroke-width="0.23" points="1309.39,-167.02 1315.11,-158.1 1305.08,-161.5 1309.39,-167.02"/>
</g>
<!-- PAC&#45;MAN Right -->
<g id="node13" class="node">
<title>PAC&#45;MAN Right</title>
<polygon fill="lightblue" stroke="black" points="1386.13,-219.55 1307.13,-219.55 1307.13,-201.05 1386.13,-201.05 1386.13,-219.55"/>
<text text-anchor="middle" x="1346.63" y="-207" font-family="Times,serif" font-size="9.00">PAC&#45;MAN Right</text>
</g>
<!-- PAC&#45;MAN Right&#45;&gt;Move Right -->
<g id="edge69" class="edge">
<title>PAC&#45;MAN Right&#45;&gt;Move Right</title>
<path fill="none" stroke="green" stroke-width="0.15" d="M1334.96,-200.75C1324.72,-192.66 1310.17,-179.6 1301.63,-165.05 1289.12,-143.72 1281.2,-117.49 1276.27,-94.96"/>
<polygon fill="green" stroke="green" stroke-width="0.15" points="1279.76,-94.55 1274.32,-85.46 1272.9,-95.96 1279.76,-94.55"/>
</g>
<!-- PAC&#45;MAN Right&#45;&gt;Move Left -->
<g id="edge70" class="edge">
<title>PAC&#45;MAN Right&#45;&gt;Move Left</title>
<path fill="none" stroke="red" stroke-width="0.15" d="M1331.34,-200.68C1287.77,-176.11 1161.85,-105.12 1095.95,-67.96"/>
<polygon fill="red" stroke="red" stroke-width="0.15" points="1098.07,-65.14 1087.64,-63.27 1094.63,-71.24 1098.07,-65.14"/>
</g>
<!-- PAC&#45;MAN Right&#45;&gt;Move Up -->
<g id="edge71" class="edge">
<title>PAC&#45;MAN Right&#45;&gt;Move Up</title>
<path fill="none" stroke="green" stroke-width="0.41" d="M1349.92,-200.57C1353.18,-191.71 1358.17,-177.56 1361.63,-165.05 1368.47,-140.32 1374.61,-112.32 1379.2,-89.55"/>
<polygon fill="green" stroke="green" stroke-width="0.41" points="1382.63,-90.26 1381.15,-79.77 1375.77,-88.9 1382.63,-90.26"/>
</g>
<!-- PAC&#45;MAN Right&#45;&gt;Move Down -->
<g id="edge72" class="edge">
<title>PAC&#45;MAN Right&#45;&gt;Move Down</title>
<path fill="none" stroke="green" stroke-width="0.35" d="M1356.37,-200.68C1381.33,-178.58 1448.72,-118.94 1492.56,-80.13"/>
<polygon fill="green" stroke="green" stroke-width="0.35" points="1494.63,-82.97 1499.8,-73.72 1489.99,-77.73 1494.63,-82.97"/>
</g>
<!-- PAC&#45;MAN Right&#45;&gt;334 -->
<g id="edge13" class="edge">
<title>PAC&#45;MAN Right&#45;&gt;334</title>
<path fill="none" stroke="red" stroke-width="0.18" d="M1344.61,-200.65C1343.05,-193.97 1340.79,-184.32 1338.59,-174.93"/>
<polygon fill="red" stroke="red" stroke-width="0.18" points="1342.01,-174.2 1336.33,-165.26 1335.2,-175.8 1342.01,-174.2"/>
</g>
<!-- PAC&#45;MAN Left -->
<g id="node14" class="node">
<title>PAC&#45;MAN Left</title>
<polygon fill="lightblue" stroke="black" points="1493.51,-219.55 1419.76,-219.55 1419.76,-201.05 1493.51,-201.05 1493.51,-219.55"/>
<text text-anchor="middle" x="1456.63" y="-207" font-family="Times,serif" font-size="9.00">PAC&#45;MAN Left</text>
</g>
<!-- PAC&#45;MAN Left&#45;&gt;Move Right -->
<g id="edge73" class="edge">
<title>PAC&#45;MAN Left&#45;&gt;Move Right</title>
<path fill="none" stroke="red" stroke-width="0.55" d="M1456.62,-200.55C1456.14,-183.54 1452.71,-145.7 1432.63,-123.33 1403.86,-91.26 1381.39,-106.13 1342.63,-87.33 1332.92,-82.62 1322.76,-77.14 1313.18,-71.71"/>
<polygon fill="red" stroke="red" stroke-width="0.55" points="1314.97,-68.7 1304.55,-66.74 1311.47,-74.77 1314.97,-68.7"/>
</g>
<!-- PAC&#45;MAN Left&#45;&gt;Move Left -->
<g id="edge74" class="edge">
<title>PAC&#45;MAN Left&#45;&gt;Move Left</title>
<path fill="none" stroke="red" stroke-width="0.14" d="M1449.76,-200.73C1435.35,-183.34 1400.09,-143.86 1361.63,-123.33 1303.43,-92.27 1281.54,-103.68 1217.63,-87.33 1178.21,-77.24 1133.5,-65.52 1100.89,-56.92"/>
<polygon fill="red" stroke="red" stroke-width="0.14" points="1101.94,-53.57 1091.38,-54.41 1100.16,-60.34 1101.94,-53.57"/>
</g>
<!-- PAC&#45;MAN Left&#45;&gt;Move Up -->
<g id="edge75" class="edge">
<title>PAC&#45;MAN Left&#45;&gt;Move Up</title>
<path fill="none" stroke="green" stroke-width="0.15" d="M1453.11,-200.91C1444.39,-180.1 1421.3,-125 1405.02,-86.15"/>
<polygon fill="green" stroke="green" stroke-width="0.15" points="1408.43,-85.22 1401.33,-77.36 1401.97,-87.93 1408.43,-85.22"/>
</g>
<!-- PAC&#45;MAN Left&#45;&gt;Move Down -->
<g id="edge76" class="edge">
<title>PAC&#45;MAN Left&#45;&gt;Move Down</title>
<path fill="none" stroke="red" stroke-width="0.23" d="M1460.5,-200.91C1469.58,-181.25 1492.77,-131 1510.43,-92.75"/>
<polygon fill="red" stroke="red" stroke-width="0.23" points="1513.4,-94.67 1514.41,-84.13 1507.05,-91.74 1513.4,-94.67"/>
</g>
<!-- PAC&#45;MAN Left&#45;&gt;334 -->
<g id="edge14" class="edge">
<title>PAC&#45;MAN Left&#45;&gt;334</title>
<path fill="none" stroke="red" stroke-width="0.37" d="M1439.77,-200.65C1419.06,-190.03 1383.66,-171.87 1359.02,-159.24"/>
<polygon fill="red" stroke="red" stroke-width="0.37" points="1360.84,-156.23 1350.34,-154.78 1357.64,-162.46 1360.84,-156.23"/>
</g>
<!-- PAC&#45;MAN Up -->
<g id="node15" class="node">
<title>PAC&#45;MAN Up</title>
<polygon fill="lightblue" stroke="black" points="1796.01,-219.55 1725.26,-219.55 1725.26,-201.05 1796.01,-201.05 1796.01,-219.55"/>
<text text-anchor="middle" x="1760.63" y="-207" font-family="Times,serif" font-size="9.00">PAC&#45;MAN Up</text>
</g>
<!-- PAC&#45;MAN Up&#45;&gt;Move Right -->
<g id="edge77" class="edge">
<title>PAC&#45;MAN Up&#45;&gt;Move Right</title>
<path fill="none" stroke="green" stroke-width="0.35" d="M1761.14,-200.55C1761.64,-182.84 1759.96,-142.77 1736.63,-123.33 1669.09,-67.04 1426.44,-113.9 1342.63,-87.33 1332.02,-83.96 1321.28,-78.91 1311.39,-73.44"/>
<polygon fill="green" stroke="green" stroke-width="0.35" points="1313.44,-70.58 1303.03,-68.6 1309.93,-76.64 1313.44,-70.58"/>
</g>
<!-- PAC&#45;MAN Up&#45;&gt;Move Left -->
<g id="edge78" class="edge">
<title>PAC&#45;MAN Up&#45;&gt;Move Left</title>
<path fill="none" stroke="red" stroke-width="0.16" d="M1735.65,-200.57C1685.71,-183.44 1569.74,-145.15 1469.63,-123.33 1359.09,-99.24 1328.54,-109.69 1217.63,-87.33 1177.74,-79.29 1133.07,-67.39 1100.6,-58.2"/>
<polygon fill="red" stroke="red" stroke-width="0.16" points="1101.74,-54.88 1091.16,-55.5 1099.82,-61.61 1101.74,-54.88"/>
</g>
<!-- PAC&#45;MAN Up&#45;&gt;Move Up -->
<g id="edge79" class="edge">
<title>PAC&#45;MAN Up&#45;&gt;Move Up</title>
<path fill="none" stroke="red" stroke-width="0.13" stroke-dasharray="1,5" d="M1740.11,-200.59C1693.59,-180.83 1576.67,-130.88 1479.63,-87.33 1462.98,-79.86 1444.73,-71.44 1428.91,-64.07"/>
<polygon fill="red" stroke="red" stroke-width="0.13" points="1430.62,-61 1420.07,-59.95 1427.66,-67.35 1430.62,-61"/>
</g>
<!-- PAC&#45;MAN Up&#45;&gt;Move Down -->
<g id="edge80" class="edge">
<title>PAC&#45;MAN Up&#45;&gt;Move Down</title>
<path fill="none" stroke="green" stroke-width="0.27" d="M1796.29,-206.81C1849.04,-202.32 1943.87,-190.79 1964.63,-165.05 1976.27,-150.61 1976.51,-137.56 1964.63,-123.33 1917.12,-66.38 1692.28,-50.56 1587.11,-46.24"/>
<polygon fill="green" stroke="green" stroke-width="0.27" points="1587.26,-42.74 1577.13,-45.85 1586.99,-49.74 1587.26,-42.74"/>
</g>
<!-- PAC&#45;MAN Up&#45;&gt;334 -->
<g id="edge15" class="edge">
<title>PAC&#45;MAN Up&#45;&gt;334</title>
<path fill="none" stroke="green" stroke-width="0.24" d="M1724.79,-203.94C1642.28,-191.61 1440.05,-161.39 1362.55,-149.81"/>
<polygon fill="green" stroke="green" stroke-width="0.24" points="1363.23,-146.37 1352.82,-148.35 1362.2,-153.29 1363.23,-146.37"/>
</g>
<!-- PAC&#45;MAN Down -->
<g id="node16" class="node">
<title>PAC&#45;MAN Down</title>
<polygon fill="lightblue" stroke="black" points="439.76,-219.55 349.51,-219.55 349.51,-201.05 439.76,-201.05 439.76,-219.55"/>
<text text-anchor="middle" x="394.63" y="-207" font-family="Times,serif" font-size="9.00">PAC&#45;MAN Down</text>
</g>
<!-- PAC&#45;MAN Down&#45;&gt;Move Right -->
<g id="edge81" class="edge">
<title>PAC&#45;MAN Down&#45;&gt;Move Right</title>
<path fill="none" stroke="green" stroke-width="0.43" d="M392.6,-200.65C389.05,-183.12 384,-143.38 405.63,-123.33 462.42,-70.68 1025.07,-98.97 1101.63,-87.33 1141.71,-81.23 1186.14,-69.64 1219.1,-60.07"/>
<polygon fill="green" stroke="green" stroke-width="0.43" points="1219.7,-63.55 1228.31,-57.37 1217.72,-56.83 1219.7,-63.55"/>
</g>
<!-- PAC&#45;MAN Down&#45;&gt;Move Left -->
<g id="edge82" class="edge">
<title>PAC&#45;MAN Down&#45;&gt;Move Left</title>
<path fill="none" stroke="red" stroke-width="0.17" d="M349.81,-200.56C329.97,-194.22 308.48,-183.4 296.63,-165.05 286.57,-149.47 284.22,-137.1 296.63,-123.33 344.28,-70.47 847.24,-50.9 1006.53,-46"/>
<polygon fill="red" stroke="red" stroke-width="0.17" points="1006.38,-49.5 1016.27,-45.7 1006.17,-42.51 1006.38,-49.5"/>
</g>
<!-- PAC&#45;MAN Down&#45;&gt;Move Up -->
<g id="edge83" class="edge">
<title>PAC&#45;MAN Down&#45;&gt;Move Up</title>
<path fill="none" stroke="green" stroke-width="0.43" d="M412.42,-200.57C450.57,-182.33 543.55,-140.46 626.63,-123.33 777.66,-92.18 1172.59,-133.8 1319.63,-87.33 1330.41,-83.92 1341.18,-78.39 1350.87,-72.43"/>
<polygon fill="green" stroke="green" stroke-width="0.43" points="1352.77,-75.37 1359.25,-66.98 1348.95,-69.5 1352.77,-75.37"/>
</g>
<!-- PAC&#45;MAN Down&#45;&gt;334 -->
<g id="edge16" class="edge">
<title>PAC&#45;MAN Down&#45;&gt;334</title>
<path fill="none" stroke="green" stroke-width="0.19" d="M440.14,-206.18C604.27,-194.95 1163.32,-156.7 1300.87,-147.29"/>
<polygon fill="green" stroke="green" stroke-width="0.19" points="1300.72,-150.81 1310.45,-146.64 1300.24,-143.83 1300.72,-150.81"/>
</g>
<!-- Power&#45;Up Time -->
<g id="node17" class="node">
<title>Power&#45;Up Time</title>
<polygon fill="lightblue" stroke="black" points="1949.51,-219.55 1875.76,-219.55 1875.76,-201.05 1949.51,-201.05 1949.51,-219.55"/>
<text text-anchor="middle" x="1912.63" y="-207" font-family="Times,serif" font-size="9.00">Power&#45;Up Time</text>
</g>
<!-- Power&#45;Up Time&#45;&gt;Move Right -->
<g id="edge84" class="edge">
<title>Power&#45;Up Time&#45;&gt;Move Right</title>
<path fill="none" stroke="green" stroke-width="0.33" d="M1913.17,-200.77C1913.77,-183.11 1912.33,-142.57 1888.63,-123.33 1794.25,-46.66 1459,-122.61 1342.63,-87.33 1331.98,-84.1 1321.22,-79.1 1311.32,-73.64"/>
<polygon fill="green" stroke="green" stroke-width="0.33" points="1313.35,-70.77 1302.94,-68.79 1309.84,-76.83 1313.35,-70.77"/>
</g>
<!-- Power&#45;Up Time&#45;&gt;Move Left -->
<g id="edge85" class="edge">
<title>Power&#45;Up Time&#45;&gt;Move Left</title>
<path fill="none" stroke="green" stroke-width="0.16" d="M1882.61,-200.57C1821.94,-183.25 1680.14,-144.4 1558.63,-123.33 1408.47,-97.29 1367.55,-114.7 1217.63,-87.33 1177.6,-80.02 1132.94,-68.06 1100.51,-58.65"/>
<polygon fill="green" stroke="green" stroke-width="0.16" points="1101.66,-55.34 1091.08,-55.89 1099.69,-62.06 1101.66,-55.34"/>
</g>
<!-- Power&#45;Up Time&#45;&gt;Move Up -->
<g id="edge86" class="edge">
<title>Power&#45;Up Time&#45;&gt;Move Up</title>
<path fill="none" stroke="red" stroke-width="0.32" d="M1884.75,-200.61C1833.18,-184.64 1719.37,-149.83 1622.63,-123.33 1559.42,-106.01 1541.41,-109.21 1479.63,-87.33 1462.29,-81.19 1443.78,-72.95 1427.94,-65.35"/>
<polygon fill="red" stroke="red" stroke-width="0.32" points="1429.91,-62.42 1419.38,-61.18 1426.84,-68.71 1429.91,-62.42"/>
</g>
<!-- Power&#45;Up Time&#45;&gt;Move Down -->
<g id="edge87" class="edge">
<title>Power&#45;Up Time&#45;&gt;Move Down</title>
<path fill="none" stroke="green" stroke-width="0.13" d="M1949.6,-206.7C2002.59,-202.13 2096.04,-190.58 2116.63,-165.05 2128.27,-150.61 2128.84,-137.29 2116.63,-123.33 2081.9,-83.6 1723.76,-56.81 1586.12,-47.91"/>
<polygon fill="green" stroke="green" stroke-width="0.13" points="1586.61,-44.44 1576.41,-47.29 1586.17,-51.42 1586.61,-44.44"/>
</g>
<!-- Power&#45;Up Time&#45;&gt;334 -->
<g id="edge17" class="edge">
<title>Power&#45;Up Time&#45;&gt;334</title>
<path fill="none" stroke="green" stroke-width="0.46" d="M1875.4,-205.19C1768.57,-193.4 1462.32,-159.61 1363.08,-148.66"/>
<polygon fill="green" stroke="green" stroke-width="0.46" points="1363.56,-145.19 1353.24,-147.57 1362.8,-152.15 1363.56,-145.19"/>
</g>
<!-- 994&#45;&gt;Move Left -->
<g id="edge91" class="edge">
<title>994&#45;&gt;Move Left</title>
<path fill="none" stroke="red" stroke-width="0.24" d="M452.82,-131.71C458.31,-128.52 464.54,-125.38 470.63,-123.33 661.65,-58.96 904.56,-47.08 1006.35,-45.02"/>
<polygon fill="red" stroke="red" stroke-width="0.24" points="1006.32,-48.52 1016.25,-44.84 1006.19,-41.52 1006.32,-48.52"/>
</g>
<!-- 334&#45;&gt;Move Right -->
<g id="edge18" class="edge">
<title>334&#45;&gt;Move Right</title>
<path fill="none" stroke="green" stroke-width="0.41" d="M1320.66,-126.03C1313.89,-115.44 1304.88,-101.36 1296.27,-87.89"/>
<polygon fill="green" stroke="green" stroke-width="0.41" points="1299.37,-86.23 1291.03,-79.69 1293.47,-90 1299.37,-86.23"/>
</g>
<!-- 334&#45;&gt;Move Left -->
<g id="edge19" class="edge">
<title>334&#45;&gt;Move Left</title>
<path fill="none" stroke="red" stroke-width="0.48" d="M1312.15,-136.26C1268.41,-120.7 1161.4,-82.64 1099.98,-60.79"/>
<polygon fill="red" stroke="red" stroke-width="0.48" points="1101.44,-57.6 1090.84,-57.54 1099.09,-64.19 1101.44,-57.6"/>
</g>
<!-- 334&#45;&gt;Move Up -->
<g id="edge20" class="edge">
<title>334&#45;&gt;Move Up</title>
<path fill="none" stroke="red" stroke-width="0.17" d="M1341.64,-125.57C1348.21,-114.02 1357.06,-98.45 1365.25,-84.04"/>
<polygon fill="red" stroke="red" stroke-width="0.17" points="1368.2,-85.93 1370.1,-75.5 1362.12,-82.47 1368.2,-85.93"/>
</g>
<!-- 334&#45;&gt;Move Down -->
<g id="edge21" class="edge">
<title>334&#45;&gt;Move Down</title>
<path fill="none" stroke="green" stroke-width="0.14" d="M1349.3,-132.83C1354.8,-129.69 1360.93,-126.29 1366.63,-123.33 1405.56,-103.09 1450.58,-81.89 1483.91,-66.6"/>
<polygon fill="green" stroke="green" stroke-width="0.14" points="1485.15,-69.88 1492.79,-62.54 1482.24,-63.52 1485.15,-69.88"/>
</g>
<!-- 911&#45;&gt;Move Left -->
<g id="edge89" class="edge">
<title>911&#45;&gt;Move Left</title>
<path fill="none" stroke="red" stroke-width="0.13" d="M88.76,-131.51C94.24,-128.32 100.49,-125.22 106.63,-123.33 277.52,-70.57 837.83,-50.78 1006.3,-45.93"/>
<polygon fill="red" stroke="red" stroke-width="0.13" points="1006.27,-49.43 1016.16,-45.65 1006.07,-42.44 1006.27,-49.43"/>
</g>
</g>
</svg>
