<?xml version="1.0" encoding="UTF-8" standalone="no"?>
<!DOCTYPE svg PUBLIC "-//W3C//DTD SVG 1.1//EN"
 "http://www.w3.org/Graphics/SVG/1.1/DTD/svg11.dtd">
<!-- Generated by graphviz version 12.0.0 (20240704.0754)
 -->
<!-- Pages: 1 -->
<svg width="1410pt" height="240pt"
 viewBox="0.00 0.00 1410.35 240.27" xmlns="http://www.w3.org/2000/svg" xmlns:xlink="http://www.w3.org/1999/xlink">
<g id="graph0" class="graph" transform="scale(1 1) rotate(0) translate(4 236.27)">
<polygon fill="white" stroke="none" points="-4,4 -4,-236.27 1406.35,-236.27 1406.35,4 -4,4"/>
<!-- Pellet Right -->
<g id="node1" class="node">
<title>Pellet Right</title>
<polygon fill="lightblue" stroke="black" points="129.85,-159.8 72.6,-159.8 72.6,-141.3 129.85,-141.3 129.85,-159.8"/>
<text text-anchor="middle" x="101.22" y="-147.25" font-family="Times,serif" font-size="9.00">Pellet Right</text>
</g>
<!-- Move Right -->
<g id="node18" class="node">
<title>Move Right</title>
<ellipse fill="lightblue" stroke="black" cx="292.22" cy="-43.66" rx="41.54" ry="41.54"/>
<text text-anchor="middle" x="292.22" y="-40.36" font-family="Times,serif" font-size="9.00">Move Right</text>
</g>
<!-- Pellet Right&#45;&gt;Move Right -->
<g id="edge19" class="edge">
<title>Pellet Right&#45;&gt;Move Right</title>
<path fill="none" stroke="red" stroke-width="0.21" stroke-dasharray="1,5" d="M115.04,-140.84C123.41,-135.63 134.35,-128.96 144.22,-123.33 178.13,-104 217.13,-83.33 246.59,-68.03"/>
<polygon fill="red" stroke="red" stroke-width="0.21" points="247.85,-71.32 255.12,-63.61 244.63,-65.1 247.85,-71.32"/>
</g>
<!-- Pellet Left -->
<g id="node2" class="node">
<title>Pellet Left</title>
<polygon fill="lightblue" stroke="black" points="264.22,-232.27 212.22,-232.27 212.22,-213.77 264.22,-213.77 264.22,-232.27"/>
<text text-anchor="middle" x="238.22" y="-219.72" font-family="Times,serif" font-size="9.00">Pellet Left</text>
</g>
<!-- Pellet Up -->
<g id="node3" class="node">
<title>Pellet Up</title>
<polygon fill="lightblue" stroke="black" points="235.72,-159.8 186.72,-159.8 186.72,-141.3 235.72,-141.3 235.72,-159.8"/>
<text text-anchor="middle" x="211.22" y="-147.25" font-family="Times,serif" font-size="9.00">Pellet Up</text>
</g>
<!-- Pellet Up&#45;&gt;Move Right -->
<g id="edge29" class="edge">
<title>Pellet Up&#45;&gt;Move Right</title>
<path fill="none" stroke="green" stroke-width="0.22" stroke-dasharray="1,5" d="M217.85,-140.97C227.26,-128.79 245.1,-105.68 260.95,-85.16"/>
<polygon fill="green" stroke="green" stroke-width="0.22" points="263.59,-87.47 266.93,-77.41 258.05,-83.19 263.59,-87.47"/>
</g>
<!-- Move Up -->
<g id="node20" class="node">
<title>Move Up</title>
<ellipse fill="lightblue" stroke="black" cx="574.22" cy="-43.66" rx="35.71" ry="35.71"/>
<text text-anchor="middle" x="574.22" y="-40.36" font-family="Times,serif" font-size="9.00">Move Up</text>
</g>
<!-- Pellet Up&#45;&gt;Move Up -->
<g id="edge1" class="edge">
<title>Pellet Up&#45;&gt;Move Up</title>
<path fill="none" stroke="green" stroke-width="0.13" stroke-dasharray="1,5" d="M219.74,-141.04C226.01,-135.23 235.01,-127.81 244.22,-123.33 294.44,-98.9 451.35,-67.5 529.32,-52.86"/>
<polygon fill="green" stroke="green" stroke-width="0.13" points="529.5,-56.38 538.69,-51.11 528.22,-49.5 529.5,-56.38"/>
</g>
<!-- Pellet Down -->
<g id="node4" class="node">
<title>Pellet Down</title>
<polygon fill="lightblue" stroke="black" points="1402.35,-159.8 1342.1,-159.8 1342.1,-141.3 1402.35,-141.3 1402.35,-159.8"/>
<text text-anchor="middle" x="1372.22" y="-147.25" font-family="Times,serif" font-size="9.00">Pellet Down</text>
</g>
<!-- Move Down -->
<g id="node21" class="node">
<title>Move Down</title>
<ellipse fill="lightblue" stroke="black" cx="1180.22" cy="-43.66" rx="43.66" ry="43.66"/>
<text text-anchor="middle" x="1180.22" y="-40.36" font-family="Times,serif" font-size="9.00">Move Down</text>
</g>
<!-- Pellet Down&#45;&gt;Move Down -->
<g id="edge24" class="edge">
<title>Pellet Down&#45;&gt;Move Down</title>
<path fill="none" stroke="green" stroke-width="0.15" d="M1360.16,-140.91C1352.58,-135.61 1342.5,-128.8 1333.22,-123.33 1299.08,-103.16 1259.2,-82.76 1228.72,-67.78"/>
<polygon fill="green" stroke="green" stroke-width="0.15" points="1230.3,-64.66 1219.77,-63.41 1227.22,-70.95 1230.3,-64.66"/>
</g>
<!-- Power Pellet Right -->
<g id="node5" class="node">
<title>Power Pellet Right</title>
<polygon fill="lightblue" stroke="black" points="615.6,-159.8 532.85,-159.8 532.85,-141.3 615.6,-141.3 615.6,-159.8"/>
<text text-anchor="middle" x="574.22" y="-147.25" font-family="Times,serif" font-size="9.00">Power Pellet Right</text>
</g>
<!-- Power Pellet Right&#45;&gt;Move Up -->
<g id="edge2" class="edge">
<title>Power Pellet Right&#45;&gt;Move Up</title>
<path fill="none" stroke="green" stroke-width="0.37" d="M574.22,-140.97C574.22,-129.74 574.22,-109.23 574.22,-90.01"/>
<polygon fill="green" stroke="green" stroke-width="0.37" points="577.72,-90.1 574.22,-80.1 570.72,-90.1 577.72,-90.1"/>
</g>
<!-- Power Pellet Left -->
<g id="node6" class="node">
<title>Power Pellet Left</title>
<polygon fill="lightblue" stroke="black" points="330.97,-159.8 253.47,-159.8 253.47,-141.3 330.97,-141.3 330.97,-159.8"/>
<text text-anchor="middle" x="292.22" y="-147.25" font-family="Times,serif" font-size="9.00">Power Pellet Left</text>
</g>
<!-- Power Pellet Left&#45;&gt;Move Right -->
<g id="edge22" class="edge">
<title>Power Pellet Left&#45;&gt;Move Right</title>
<path fill="none" stroke="red" stroke-width="0.37" d="M292.22,-140.97C292.22,-130.82 292.22,-113.11 292.22,-95.61"/>
<polygon fill="red" stroke="red" stroke-width="0.37" points="295.72,-95.96 292.22,-85.96 288.72,-95.96 295.72,-95.96"/>
</g>
<!-- Power Pellet Left&#45;&gt;Move Up -->
<g id="edge20" class="edge">
<title>Power Pellet Left&#45;&gt;Move Up</title>
<path fill="none" stroke="red" stroke-width="0.14" d="M306.59,-140.83C315.96,-135.37 328.56,-128.42 340.22,-123.33 404.57,-95.2 482.4,-70.85 530.1,-56.97"/>
<polygon fill="red" stroke="red" stroke-width="0.14" points="530.97,-60.36 539.6,-54.23 529.03,-53.64 530.97,-60.36"/>
</g>
<!-- Power Pellet Up -->
<g id="node7" class="node">
<title>Power Pellet Up</title>
<polygon fill="lightblue" stroke="black" points="1112.47,-159.8 1037.97,-159.8 1037.97,-141.3 1112.47,-141.3 1112.47,-159.8"/>
<text text-anchor="middle" x="1075.22" y="-147.25" font-family="Times,serif" font-size="9.00">Power Pellet Up</text>
</g>
<!-- Move Left -->
<g id="node19" class="node">
<title>Move Left</title>
<ellipse fill="lightblue" stroke="black" cx="934.22" cy="-43.66" rx="37.83" ry="37.83"/>
<text text-anchor="middle" x="934.22" y="-40.36" font-family="Times,serif" font-size="9.00">Move Left</text>
</g>
<!-- Power Pellet Up&#45;&gt;Move Left -->
<g id="edge23" class="edge">
<title>Power Pellet Up&#45;&gt;Move Left</title>
<path fill="none" stroke="red" stroke-width="0.44" d="M1063.68,-140.97C1044.03,-126.34 1003.2,-95.97 972.62,-73.23"/>
<polygon fill="red" stroke="red" stroke-width="0.44" points="974.94,-70.59 964.82,-67.43 970.76,-76.2 974.94,-70.59"/>
</g>
<!-- Power Pellet Down -->
<g id="node8" class="node">
<title>Power Pellet Down</title>
<polygon fill="lightblue" stroke="black" points="1324.1,-159.8 1238.35,-159.8 1238.35,-141.3 1324.1,-141.3 1324.1,-159.8"/>
<text text-anchor="middle" x="1281.22" y="-147.25" font-family="Times,serif" font-size="9.00">Power Pellet Down</text>
</g>
<!-- Power Pellet Down&#45;&gt;Move Left -->
<g id="edge28" class="edge">
<title>Power Pellet Down&#45;&gt;Move Left</title>
<path fill="none" stroke="red" stroke-width="0.32" d="M1266.13,-140.89C1255.95,-135.32 1242.07,-128.22 1229.22,-123.33 1144.18,-90.94 1040.52,-66.61 981.46,-54.1"/>
<polygon fill="red" stroke="red" stroke-width="0.32" points="982.3,-50.7 971.8,-52.08 980.87,-57.55 982.3,-50.7"/>
</g>
<!-- Power Pellet Down&#45;&gt;Move Down -->
<g id="edge26" class="edge">
<title>Power Pellet Down&#45;&gt;Move Down</title>
<path fill="none" stroke="red" stroke-width="0.3" d="M1272.96,-140.97C1260.82,-128.36 1237.42,-104.06 1217.16,-83.02"/>
<polygon fill="red" stroke="red" stroke-width="0.3" points="1219.92,-80.84 1210.46,-76.07 1214.88,-85.7 1219.92,-80.84"/>
</g>
<!-- Ghost Info Right -->
<g id="node9" class="node">
<title>Ghost Info Right</title>
<polygon fill="lightblue" stroke="black" points="1019.6,-159.8 942.85,-159.8 942.85,-141.3 1019.6,-141.3 1019.6,-159.8"/>
<text text-anchor="middle" x="981.22" y="-147.25" font-family="Times,serif" font-size="9.00">Ghost Info Right</text>
</g>
<!-- Ghost Info Right&#45;&gt;Move Left -->
<g id="edge27" class="edge">
<title>Ghost Info Right&#45;&gt;Move Left</title>
<path fill="none" stroke="red" stroke-width="0.48" d="M977.38,-140.97C972.2,-129.42 962.62,-108.04 953.8,-88.35"/>
<polygon fill="red" stroke="red" stroke-width="0.48" points="957,-86.94 949.72,-79.24 950.61,-89.8 957,-86.94"/>
</g>
<!-- Ghost Info Right&#45;&gt;Move Up -->
<g id="edge3" class="edge">
<title>Ghost Info Right&#45;&gt;Move Up</title>
<path fill="none" stroke="red" stroke-width="0.2" d="M968.16,-140.88C959,-135.16 946.28,-127.89 934.22,-123.33 825.53,-82.16 689.81,-59.81 620.15,-50.3"/>
<polygon fill="red" stroke="red" stroke-width="0.2" points="620.64,-46.83 610.26,-48.97 619.71,-53.77 620.64,-46.83"/>
</g>
<!-- Ghost Info Right&#45;&gt;Move Down -->
<g id="edge4" class="edge">
<title>Ghost Info Right&#45;&gt;Move Down</title>
<path fill="none" stroke="green" stroke-width="0.17" d="M996.75,-140.97C1006.12,-135.81 1018.33,-129.14 1029.22,-123.33 1063.73,-104.92 1102.9,-84.52 1132.7,-69.12"/>
<polygon fill="green" stroke="green" stroke-width="0.17" points="1134.13,-72.32 1141.41,-64.62 1130.92,-66.1 1134.13,-72.32"/>
</g>
<!-- Ghost Info Left -->
<g id="node10" class="node">
<title>Ghost Info Left</title>
<polygon fill="lightblue" stroke="black" points="193.97,-232.27 122.47,-232.27 122.47,-213.77 193.97,-213.77 193.97,-232.27"/>
<text text-anchor="middle" x="158.22" y="-219.72" font-family="Times,serif" font-size="9.00">Ghost Info Left</text>
</g>
<!-- Ghost Info Left&#45;&gt;Move Right -->
<g id="edge5" class="edge">
<title>Ghost Info Left&#45;&gt;Move Right</title>
<path fill="none" stroke="red" stroke-width="0.31" stroke-dasharray="1,5" d="M157.78,-213.29C157.28,-195.02 158.37,-152.07 177.22,-123.33 193.69,-98.22 221.23,-78.96 245.23,-65.79"/>
<polygon fill="red" stroke="red" stroke-width="0.31" points="246.61,-69.02 253.82,-61.26 243.34,-62.83 246.61,-69.02"/>
</g>
<!-- Ghost Info Left&#45;&gt;Move Up -->
<g id="edge6" class="edge">
<title>Ghost Info Left&#45;&gt;Move Up</title>
<path fill="none" stroke="green" stroke-width="0.59" d="M194.03,-215.09C197.13,-214.6 200.23,-214.15 203.22,-213.77 259.91,-206.61 677.26,-219.57 716.22,-177.77 732.72,-160.08 728.51,-144.18 716.22,-123.33 695.41,-88.01 652.41,-67.43 619.15,-56.24"/>
<polygon fill="green" stroke="green" stroke-width="0.59" points="620.62,-53.04 610.03,-53.34 618.5,-59.71 620.62,-53.04"/>
</g>
<!-- 15475 -->
<g id="node22" class="node">
<title>15475</title>
<ellipse fill="white" stroke="black" cx="27.22" cy="-150.55" rx="27.22" ry="27.22"/>
<text text-anchor="middle" x="27.22" y="-147.25" font-family="Times,serif" font-size="9.00">15475</text>
</g>
<!-- Ghost Info Left&#45;&gt;15475 -->
<g id="edge30" class="edge">
<title>Ghost Info Left&#45;&gt;15475</title>
<path fill="none" stroke="green" stroke-width="0.34" d="M136.49,-213.33C116.84,-205.13 87.36,-192.01 63.22,-177.77 61.07,-176.5 58.88,-175.13 56.71,-173.71"/>
<polygon fill="green" stroke="green" stroke-width="0.34" points="59.12,-171.12 48.89,-168.36 55.16,-176.9 59.12,-171.12"/>
</g>
<!-- Ghost Info Up -->
<g id="node11" class="node">
<title>Ghost Info Up</title>
<polygon fill="lightblue" stroke="black" points="514.47,-159.8 445.97,-159.8 445.97,-141.3 514.47,-141.3 514.47,-159.8"/>
<text text-anchor="middle" x="480.22" y="-147.25" font-family="Times,serif" font-size="9.00">Ghost Info Up</text>
</g>
<!-- Ghost Info Up&#45;&gt;Move Right -->
<g id="edge7" class="edge">
<title>Ghost Info Up&#45;&gt;Move Right</title>
<path fill="none" stroke="red" stroke-width="0.25" stroke-dasharray="1,5" d="M466.39,-140.87C458.01,-135.67 447.07,-129 437.22,-123.33 404.3,-104.37 366.57,-83.94 337.85,-68.65"/>
<polygon fill="red" stroke="red" stroke-width="0.25" points="339.67,-65.66 329.2,-64.06 336.39,-71.84 339.67,-65.66"/>
</g>
<!-- Ghost Info Up&#45;&gt;Move Left -->
<g id="edge8" class="edge">
<title>Ghost Info Up&#45;&gt;Move Left</title>
<path fill="none" stroke="green" stroke-width="0.3" d="M491.97,-141C500.52,-135.18 512.59,-127.75 524.22,-123.33 649.67,-75.6 808.17,-55.76 886.26,-48.44"/>
<polygon fill="green" stroke="green" stroke-width="0.3" points="886.19,-51.96 895.84,-47.56 885.56,-44.99 886.19,-51.96"/>
</g>
<!-- Ghost Info Up&#45;&gt;Move Up -->
<g id="edge9" class="edge">
<title>Ghost Info Up&#45;&gt;Move Up</title>
<path fill="none" stroke="green" stroke-width="0.21" stroke-dasharray="1,5" d="M487.92,-140.97C500.08,-127.4 524.38,-100.28 544.11,-78.27"/>
<polygon fill="green" stroke="green" stroke-width="0.21" points="546.59,-80.75 550.65,-70.96 541.37,-76.07 546.59,-80.75"/>
</g>
<!-- Ghost Info Down -->
<g id="node12" class="node">
<title>Ghost Info Down</title>
<polygon fill="lightblue" stroke="black" points="362.1,-232.27 282.35,-232.27 282.35,-213.77 362.1,-213.77 362.1,-232.27"/>
<text text-anchor="middle" x="322.22" y="-219.72" font-family="Times,serif" font-size="9.00">Ghost Info Down</text>
</g>
<!-- PAC&#45;MAN Right -->
<g id="node13" class="node">
<title>PAC&#45;MAN Right</title>
<polygon fill="lightblue" stroke="black" points="427.72,-159.8 348.72,-159.8 348.72,-141.3 427.72,-141.3 427.72,-159.8"/>
<text text-anchor="middle" x="388.22" y="-147.25" font-family="Times,serif" font-size="9.00">PAC&#45;MAN Right</text>
</g>
<!-- PAC&#45;MAN Right&#45;&gt;Move Right -->
<g id="edge10" class="edge">
<title>PAC&#45;MAN Right&#45;&gt;Move Right</title>
<path fill="none" stroke="green" stroke-width="0.76" stroke-dasharray="1,5" d="M380.37,-140.97C368.82,-128.36 346.56,-104.03 327.3,-82.99"/>
<polygon fill="green" stroke="green" stroke-width="0.76" points="329.93,-80.67 320.59,-75.66 324.76,-85.4 329.93,-80.67"/>
</g>
<!-- PAC&#45;MAN Right&#45;&gt;Move Up -->
<g id="edge11" class="edge">
<title>PAC&#45;MAN Right&#45;&gt;Move Up</title>
<path fill="none" stroke="red" stroke-width="0.44" stroke-dasharray="1,5" d="M403.44,-140.97C431.7,-125.04 493.09,-90.41 534.04,-67.32"/>
<polygon fill="red" stroke="red" stroke-width="0.44" points="535.64,-70.44 542.63,-62.48 532.2,-64.34 535.64,-70.44"/>
</g>
<!-- PAC&#45;MAN Left -->
<g id="node14" class="node">
<title>PAC&#45;MAN Left</title>
<polygon fill="lightblue" stroke="black" points="707.1,-159.8 633.35,-159.8 633.35,-141.3 707.1,-141.3 707.1,-159.8"/>
<text text-anchor="middle" x="670.22" y="-147.25" font-family="Times,serif" font-size="9.00">PAC&#45;MAN Left</text>
</g>
<!-- PAC&#45;MAN Left&#45;&gt;Move Right -->
<g id="edge12" class="edge">
<title>PAC&#45;MAN Left&#45;&gt;Move Right</title>
<path fill="none" stroke="red" stroke-width="0.14" stroke-dasharray="1,5" d="M657.44,-140.94C648.47,-135.24 636.03,-127.98 624.22,-123.33 528.43,-85.58 409.65,-62.82 343.27,-52.11"/>
<polygon fill="red" stroke="red" stroke-width="0.14" points="344.12,-48.7 333.69,-50.59 343.02,-55.61 344.12,-48.7"/>
</g>
<!-- PAC&#45;MAN Left&#45;&gt;Move Left -->
<g id="edge13" class="edge">
<title>PAC&#45;MAN Left&#45;&gt;Move Left</title>
<path fill="none" stroke="green" stroke-width="0.55" stroke-dasharray="1,5" d="M691.83,-140.97C734.81,-123.89 831.84,-85.34 889.25,-62.53"/>
<polygon fill="green" stroke="green" stroke-width="0.55" points="890.37,-65.85 898.37,-58.91 887.79,-59.35 890.37,-65.85"/>
</g>
<!-- PAC&#45;MAN Up -->
<g id="node15" class="node">
<title>PAC&#45;MAN Up</title>
<polygon fill="lightblue" stroke="black" points="833.6,-159.8 762.85,-159.8 762.85,-141.3 833.6,-141.3 833.6,-159.8"/>
<text text-anchor="middle" x="798.22" y="-147.25" font-family="Times,serif" font-size="9.00">PAC&#45;MAN Up</text>
</g>
<!-- PAC&#45;MAN Up&#45;&gt;Move Left -->
<g id="edge14" class="edge">
<title>PAC&#45;MAN Up&#45;&gt;Move Left</title>
<path fill="none" stroke="red" stroke-width="0.18" stroke-dasharray="1,5" d="M809.35,-140.97C828.14,-126.48 866.97,-96.53 896.38,-73.85"/>
<polygon fill="red" stroke="red" stroke-width="0.18" points="898.4,-76.71 904.18,-67.83 894.12,-71.17 898.4,-76.71"/>
</g>
<!-- PAC&#45;MAN Up&#45;&gt;Move Up -->
<g id="edge15" class="edge">
<title>PAC&#45;MAN Up&#45;&gt;Move Up</title>
<path fill="none" stroke="green" stroke-width="0.5" d="M782.92,-141.01C773.32,-135.74 760.65,-128.95 749.22,-123.33 704.55,-101.36 652.39,-78.24 616.72,-62.79"/>
<polygon fill="green" stroke="green" stroke-width="0.5" points="618.37,-59.69 607.8,-58.94 615.6,-66.12 618.37,-59.69"/>
</g>
<!-- PACM&#45;MAN Down -->
<g id="node16" class="node">
<title>PACM&#45;MAN Down</title>
<polygon fill="lightblue" stroke="black" points="1220.35,-159.8 1130.1,-159.8 1130.1,-141.3 1220.35,-141.3 1220.35,-159.8"/>
<text text-anchor="middle" x="1175.22" y="-147.25" font-family="Times,serif" font-size="9.00">PACM&#45;MAN Down</text>
</g>
<!-- PACM&#45;MAN Down&#45;&gt;Move Left -->
<g id="edge16" class="edge">
<title>PACM&#45;MAN Down&#45;&gt;Move Left</title>
<path fill="none" stroke="red" stroke-width="0.21" stroke-dasharray="1,5" d="M1157.83,-140.81C1147.3,-135.59 1133.57,-128.92 1121.22,-123.33 1072.86,-101.43 1016.62,-78.05 978.55,-62.52"/>
<polygon fill="red" stroke="red" stroke-width="0.21" points="980.16,-59.4 969.58,-58.87 977.52,-65.88 980.16,-59.4"/>
</g>
<!-- Power&#45;Up Time -->
<g id="node17" class="node">
<title>Power&#45;Up Time</title>
<polygon fill="lightblue" stroke="black" points="925.1,-159.8 851.35,-159.8 851.35,-141.3 925.1,-141.3 925.1,-159.8"/>
<text text-anchor="middle" x="888.22" y="-147.25" font-family="Times,serif" font-size="9.00">Power&#45;Up Time</text>
</g>
<!-- Power&#45;Up Time&#45;&gt;Move Right -->
<g id="edge21" class="edge">
<title>Power&#45;Up Time&#45;&gt;Move Right</title>
<path fill="none" stroke="green" stroke-width="0.64" d="M876.36,-141C867.43,-135.01 854.63,-127.39 842.22,-123.33 709.14,-79.77 667.76,-107.74 529.22,-87.33 465.14,-77.88 391.82,-64.24 343.91,-54.95"/>
<polygon fill="green" stroke="green" stroke-width="0.64" points="344.64,-51.52 334.15,-53.04 343.3,-58.39 344.64,-51.52"/>
</g>
<!-- Power&#45;Up Time&#45;&gt;Move Left -->
<g id="edge17" class="edge">
<title>Power&#45;Up Time&#45;&gt;Move Left</title>
<path fill="none" stroke="red" stroke-width="0.14" stroke-dasharray="1,5" d="M891.99,-140.97C897.1,-129.31 906.6,-107.65 915.3,-87.82"/>
<polygon fill="red" stroke="red" stroke-width="0.14" points="918.45,-89.34 919.26,-78.78 912.04,-86.53 918.45,-89.34"/>
</g>
<!-- Power&#45;Up Time&#45;&gt;Move Up -->
<g id="edge25" class="edge">
<title>Power&#45;Up Time&#45;&gt;Move Up</title>
<path fill="none" stroke="green" stroke-width="0.16" d="M874.96,-140.89C865.99,-135.31 853.73,-128.22 842.22,-123.33 766.55,-91.17 673.54,-67.1 619.36,-54.51"/>
<polygon fill="green" stroke="green" stroke-width="0.16" points="620.15,-51.1 609.62,-52.28 618.59,-57.93 620.15,-51.1"/>
</g>
<!-- Power&#45;Up Time&#45;&gt;Move Down -->
<g id="edge18" class="edge">
<title>Power&#45;Up Time&#45;&gt;Move Down</title>
<path fill="none" stroke="red" stroke-width="0.11" stroke-dasharray="1,5" d="M901.52,-140.98C910.51,-135.44 922.78,-128.35 934.22,-123.33 999.08,-94.85 1077.56,-71.56 1128.16,-57.91"/>
<polygon fill="red" stroke="red" stroke-width="0.11" points="1128.98,-61.31 1137.73,-55.35 1127.17,-54.55 1128.98,-61.31"/>
</g>
<!-- 15475&#45;&gt;Move Right -->
<g id="edge31" class="edge">
<title>15475&#45;&gt;Move Right</title>
<path fill="none" stroke="green" stroke-width="0.31" d="M48.24,-132.64C53,-129.28 58.15,-125.97 63.22,-123.33 121.58,-92.93 194.18,-70.3 241.79,-57.3"/>
<polygon fill="green" stroke="green" stroke-width="0.31" points="242.65,-60.69 251.4,-54.72 240.83,-53.93 242.65,-60.69"/>
</g>
</g>
</svg>
