<?xml version="1.0" encoding="UTF-8" standalone="no"?>
<!DOCTYPE svg PUBLIC "-//W3C//DTD SVG 1.1//EN"
 "http://www.w3.org/Graphics/SVG/1.1/DTD/svg11.dtd">
<!-- Generated by graphviz version 12.0.0 (20240704.0754)
 -->
<!-- Pages: 1 -->
<svg width="1092pt" height="488pt"
 viewBox="0.00 0.00 1091.50 487.99" xmlns="http://www.w3.org/2000/svg" xmlns:xlink="http://www.w3.org/1999/xlink">
<g id="graph0" class="graph" transform="scale(1 1) rotate(0) translate(4 483.99)">
<polygon fill="white" stroke="none" points="-4,4 -4,-483.99 1087.5,-483.99 1087.5,4 -4,4"/>
<!-- Pellet Right -->
<g id="node1" class="node">
<title>Pellet Right</title>
<polygon fill="lightblue" stroke="black" points="57.25,-479.99 0,-479.99 0,-461.49 57.25,-461.49 57.25,-479.99"/>
<text text-anchor="middle" x="28.62" y="-467.44" font-family="Times,serif" font-size="9.00">Pellet Right</text>
</g>
<!-- Move Down -->
<g id="node21" class="node">
<title>Move Down</title>
<ellipse fill="lightblue" stroke="black" cx="113.62" cy="-381.83" rx="43.66" ry="43.66"/>
<text text-anchor="middle" x="113.62" y="-378.53" font-family="Times,serif" font-size="9.00">Move Down</text>
</g>
<!-- Pellet Right&#45;&gt;Move Down -->
<g id="edge6" class="edge">
<title>Pellet Right&#45;&gt;Move Down</title>
<path fill="none" stroke="green" stroke-width="0.15" d="M37.09,-461.09C46.32,-451.64 61.75,-435.87 76.35,-420.94"/>
<polygon fill="green" stroke="green" stroke-width="0.15" points="78.77,-423.47 83.26,-413.87 73.77,-418.57 78.77,-423.47"/>
</g>
<!-- Pellet Left -->
<g id="node2" class="node">
<title>Pellet Left</title>
<polygon fill="lightblue" stroke="black" points="320.62,-479.99 268.62,-479.99 268.62,-461.49 320.62,-461.49 320.62,-479.99"/>
<text text-anchor="middle" x="294.62" y="-467.44" font-family="Times,serif" font-size="9.00">Pellet Left</text>
</g>
<!-- 24207 -->
<g id="node25" class="node">
<title>24207</title>
<ellipse fill="white" stroke="black" cx="294.62" cy="-381.83" rx="27.22" ry="27.22"/>
<text text-anchor="middle" x="294.62" y="-378.53" font-family="Times,serif" font-size="9.00">24207</text>
</g>
<!-- Pellet Left&#45;&gt;24207 -->
<g id="edge26" class="edge">
<title>Pellet Left&#45;&gt;24207</title>
<path fill="none" stroke="green" stroke-width="0.39" d="M294.62,-461.09C294.62,-451.39 294.62,-435.02 294.62,-419.75"/>
<polygon fill="green" stroke="green" stroke-width="0.39" points="298.13,-420.04 294.63,-410.04 291.13,-420.04 298.13,-420.04"/>
</g>
<!-- Pellet Up -->
<g id="node3" class="node">
<title>Pellet Up</title>
<polygon fill="lightblue" stroke="black" points="845.12,-269.87 796.12,-269.87 796.12,-251.37 845.12,-251.37 845.12,-269.87"/>
<text text-anchor="middle" x="820.62" y="-257.32" font-family="Times,serif" font-size="9.00">Pellet Up</text>
</g>
<!-- 23378 -->
<g id="node26" class="node">
<title>23378</title>
<ellipse fill="white" stroke="black" cx="872.62" cy="-145.25" rx="27.22" ry="27.22"/>
<text text-anchor="middle" x="872.62" y="-141.95" font-family="Times,serif" font-size="9.00">23378</text>
</g>
<!-- Pellet Up&#45;&gt;23378 -->
<g id="edge19" class="edge">
<title>Pellet Up&#45;&gt;23378</title>
<path fill="none" stroke="red" stroke-width="0.28" d="M824.53,-251.1C831.37,-236.19 845.86,-204.61 857.15,-179.98"/>
<polygon fill="red" stroke="red" stroke-width="0.28" points="860.3,-181.53 861.28,-170.98 853.93,-178.61 860.3,-181.53"/>
</g>
<!-- Pellet Down -->
<g id="node4" class="node">
<title>Pellet Down</title>
<polygon fill="lightblue" stroke="black" points="493.75,-479.99 433.5,-479.99 433.5,-461.49 493.75,-461.49 493.75,-479.99"/>
<text text-anchor="middle" x="463.62" y="-467.44" font-family="Times,serif" font-size="9.00">Pellet Down</text>
</g>
<!-- Move Right -->
<g id="node18" class="node">
<title>Move Right</title>
<ellipse fill="lightblue" stroke="black" cx="904.62" cy="-260.62" rx="41.54" ry="41.54"/>
<text text-anchor="middle" x="904.62" y="-257.32" font-family="Times,serif" font-size="9.00">Move Right</text>
</g>
<!-- Pellet Down&#45;&gt;Move Right -->
<g id="edge30" class="edge">
<title>Pellet Down&#45;&gt;Move Right</title>
<path fill="none" stroke="green" stroke-width="0.39" d="M494.14,-463.09C497.33,-462.5 500.54,-461.95 503.62,-461.49 587.95,-448.86 824.69,-485.13 885.62,-425.49 914.97,-396.77 917.4,-348.83 913.87,-312.21"/>
<polygon fill="green" stroke="green" stroke-width="0.39" points="917.35,-311.84 912.74,-302.3 910.4,-312.63 917.35,-311.84"/>
</g>
<!-- 20966 -->
<g id="node22" class="node">
<title>20966</title>
<ellipse fill="white" stroke="black" cx="405.62" cy="-260.62" rx="27.22" ry="27.22"/>
<text text-anchor="middle" x="405.62" y="-257.32" font-family="Times,serif" font-size="9.00">20966</text>
</g>
<!-- Pellet Down&#45;&gt;20966 -->
<g id="edge7" class="edge">
<title>Pellet Down&#45;&gt;20966</title>
<path fill="none" stroke="red" stroke-width="0.17" stroke-dasharray="1,5" d="M463.01,-461.24C461.32,-440.04 455.71,-383.26 441.62,-338.16 436.9,-323.02 429.74,-307.02 423.06,-293.59"/>
<polygon fill="red" stroke="red" stroke-width="0.17" points="426.33,-292.29 418.66,-284.97 420.09,-295.47 426.33,-292.29"/>
</g>
<!-- 21463 -->
<g id="node27" class="node">
<title>21463</title>
<ellipse fill="white" stroke="black" cx="405.62" cy="-381.83" rx="27.22" ry="27.22"/>
<text text-anchor="middle" x="405.62" y="-378.53" font-family="Times,serif" font-size="9.00">21463</text>
</g>
<!-- Pellet Down&#45;&gt;21463 -->
<g id="edge10" class="edge">
<title>Pellet Down&#45;&gt;21463</title>
<path fill="none" stroke="red" stroke-width="0.31" d="M457.85,-461.09C450.48,-450.05 437.34,-430.35 426.08,-413.48"/>
<polygon fill="red" stroke="red" stroke-width="0.31" points="429.14,-411.75 420.67,-405.38 423.31,-415.64 429.14,-411.75"/>
</g>
<!-- Power Pellet Right -->
<g id="node5" class="node">
<title>Power Pellet Right</title>
<polygon fill="lightblue" stroke="black" points="595,-479.99 512.25,-479.99 512.25,-461.49 595,-461.49 595,-479.99"/>
<text text-anchor="middle" x="553.62" y="-467.44" font-family="Times,serif" font-size="9.00">Power Pellet Right</text>
</g>
<!-- Power Pellet Left -->
<g id="node6" class="node">
<title>Power Pellet Left</title>
<polygon fill="lightblue" stroke="black" points="152.38,-479.99 74.88,-479.99 74.88,-461.49 152.38,-461.49 152.38,-479.99"/>
<text text-anchor="middle" x="113.62" y="-467.44" font-family="Times,serif" font-size="9.00">Power Pellet Left</text>
</g>
<!-- Power Pellet Left&#45;&gt;Move Down -->
<g id="edge1" class="edge">
<title>Power Pellet Left&#45;&gt;Move Down</title>
<path fill="none" stroke="green" stroke-width="0.42" stroke-dasharray="1,5" d="M113.62,-461.09C113.62,-454.91 113.62,-446.02 113.62,-436.43"/>
<polygon fill="green" stroke="green" stroke-width="0.42" points="117.13,-436.48 113.63,-426.48 110.13,-436.48 117.13,-436.48"/>
</g>
<!-- Power Pellet Up -->
<g id="node7" class="node">
<title>Power Pellet Up</title>
<polygon fill="lightblue" stroke="black" points="687.88,-479.99 613.38,-479.99 613.38,-461.49 687.88,-461.49 687.88,-479.99"/>
<text text-anchor="middle" x="650.62" y="-467.44" font-family="Times,serif" font-size="9.00">Power Pellet Up</text>
</g>
<!-- Power Pellet Down -->
<g id="node8" class="node">
<title>Power Pellet Down</title>
<polygon fill="lightblue" stroke="black" points="647.5,-391.08 561.75,-391.08 561.75,-372.58 647.5,-372.58 647.5,-391.08"/>
<text text-anchor="middle" x="604.62" y="-378.53" font-family="Times,serif" font-size="9.00">Power Pellet Down</text>
</g>
<!-- Power Pellet Down&#45;&gt;Move Right -->
<g id="edge2" class="edge">
<title>Power Pellet Down&#45;&gt;Move Right</title>
<path fill="none" stroke="green" stroke-width="0.2" d="M647.7,-372.46C699.12,-361.32 786.69,-338.67 854.62,-302.16 858.5,-300.08 862.36,-297.69 866.12,-295.12"/>
<polygon fill="green" stroke="green" stroke-width="0.2" points="867.88,-298.16 873.92,-289.46 863.77,-292.5 867.88,-298.16"/>
</g>
<!-- Move Left -->
<g id="node19" class="node">
<title>Move Left</title>
<ellipse fill="lightblue" stroke="black" cx="492.62" cy="-145.25" rx="37.83" ry="37.83"/>
<text text-anchor="middle" x="492.62" y="-141.95" font-family="Times,serif" font-size="9.00">Move Left</text>
</g>
<!-- Power Pellet Down&#45;&gt;Move Left -->
<g id="edge9" class="edge">
<title>Power Pellet Down&#45;&gt;Move Left</title>
<path fill="none" stroke="red" stroke-width="0.18" stroke-dasharray="1,5" d="M576.22,-372.11C546.09,-361.17 500.08,-339.2 479.62,-302.16 460.88,-268.22 467.08,-223.66 476.24,-190.87"/>
<polygon fill="red" stroke="red" stroke-width="0.18" points="479.57,-191.94 479.07,-181.35 472.86,-189.94 479.57,-191.94"/>
</g>
<!-- 23758 -->
<g id="node23" class="node">
<title>23758</title>
<ellipse fill="white" stroke="black" cx="604.62" cy="-260.62" rx="27.22" ry="27.22"/>
<text text-anchor="middle" x="604.62" y="-257.32" font-family="Times,serif" font-size="9.00">23758</text>
</g>
<!-- Power Pellet Down&#45;&gt;23758 -->
<g id="edge21" class="edge">
<title>Power Pellet Down&#45;&gt;23758</title>
<path fill="none" stroke="red" stroke-width="0.29" d="M604.62,-372.25C604.62,-356.96 604.62,-324.13 604.62,-298.19"/>
<polygon fill="red" stroke="red" stroke-width="0.29" points="608.13,-298.36 604.63,-288.36 601.13,-298.36 608.13,-298.36"/>
</g>
<!-- Ghost Info Right -->
<g id="node9" class="node">
<title>Ghost Info Right</title>
<polygon fill="lightblue" stroke="black" points="415,-479.99 338.25,-479.99 338.25,-461.49 415,-461.49 415,-479.99"/>
<text text-anchor="middle" x="376.62" y="-467.44" font-family="Times,serif" font-size="9.00">Ghost Info Right</text>
</g>
<!-- Ghost Info Right&#45;&gt;Move Left -->
<g id="edge20" class="edge">
<title>Ghost Info Right&#45;&gt;Move Left</title>
<path fill="none" stroke="green" stroke-width="0.49" d="M373.43,-461.2C361.45,-427.6 322.19,-302.29 369.62,-219.08 386.04,-190.28 418.82,-171.7 446.42,-160.52"/>
<polygon fill="green" stroke="green" stroke-width="0.49" points="447.52,-163.85 455.61,-157 445.02,-157.31 447.52,-163.85"/>
</g>
<!-- Ghost Info Right&#45;&gt;21463 -->
<g id="edge25" class="edge">
<title>Ghost Info Right&#45;&gt;21463</title>
<path fill="none" stroke="red" stroke-width="0.19" d="M379.51,-461.09C382.9,-450.92 388.75,-433.41 394.05,-417.53"/>
<polygon fill="red" stroke="red" stroke-width="0.19" points="397.31,-418.8 397.16,-408.2 390.67,-416.58 397.31,-418.8"/>
</g>
<!-- Ghost Info Left -->
<g id="node10" class="node">
<title>Ghost Info Left</title>
<polygon fill="lightblue" stroke="black" points="777.38,-479.99 705.88,-479.99 705.88,-461.49 777.38,-461.49 777.38,-479.99"/>
<text text-anchor="middle" x="741.62" y="-467.44" font-family="Times,serif" font-size="9.00">Ghost Info Left</text>
</g>
<!-- Ghost Info Up -->
<g id="node11" class="node">
<title>Ghost Info Up</title>
<polygon fill="lightblue" stroke="black" points="863.88,-479.99 795.38,-479.99 795.38,-461.49 863.88,-461.49 863.88,-479.99"/>
<text text-anchor="middle" x="829.62" y="-467.44" font-family="Times,serif" font-size="9.00">Ghost Info Up</text>
</g>
<!-- Ghost Info Down -->
<g id="node12" class="node">
<title>Ghost Info Down</title>
<polygon fill="lightblue" stroke="black" points="250.5,-479.99 170.75,-479.99 170.75,-461.49 250.5,-461.49 250.5,-479.99"/>
<text text-anchor="middle" x="210.62" y="-467.44" font-family="Times,serif" font-size="9.00">Ghost Info Down</text>
</g>
<!-- Ghost Info Down&#45;&gt;Move Down -->
<g id="edge3" class="edge">
<title>Ghost Info Down&#45;&gt;Move Down</title>
<path fill="none" stroke="green" stroke-width="0.21" stroke-dasharray="1,5" d="M200.97,-461.09C189.82,-451.1 170.75,-434.02 153.28,-418.36"/>
<polygon fill="green" stroke="green" stroke-width="0.21" points="155.94,-416.04 146.15,-411.97 151.27,-421.25 155.94,-416.04"/>
</g>
<!-- PAC&#45;MAN Right -->
<g id="node13" class="node">
<title>PAC&#45;MAN Right</title>
<polygon fill="lightblue" stroke="black" points="876.12,-391.08 797.12,-391.08 797.12,-372.58 876.12,-372.58 876.12,-391.08"/>
<text text-anchor="middle" x="836.62" y="-378.53" font-family="Times,serif" font-size="9.00">PAC&#45;MAN Right</text>
</g>
<!-- PAC&#45;MAN Right&#45;&gt;Move Right -->
<g id="edge29" class="edge">
<title>PAC&#45;MAN Right&#45;&gt;Move Right</title>
<path fill="none" stroke="green" stroke-width="0.11" d="M841.52,-372.25C849.38,-358.47 865.37,-330.44 879.29,-306.04"/>
<polygon fill="green" stroke="green" stroke-width="0.11" points="882.31,-307.81 884.22,-297.39 876.23,-304.34 882.31,-307.81"/>
</g>
<!-- PAC&#45;MAN Left -->
<g id="node14" class="node">
<title>PAC&#45;MAN Left</title>
<polygon fill="lightblue" stroke="black" points="955.5,-479.99 881.75,-479.99 881.75,-461.49 955.5,-461.49 955.5,-479.99"/>
<text text-anchor="middle" x="918.62" y="-467.44" font-family="Times,serif" font-size="9.00">PAC&#45;MAN Left</text>
</g>
<!-- PAC&#45;MAN Up -->
<g id="node15" class="node">
<title>PAC&#45;MAN Up</title>
<polygon fill="lightblue" stroke="black" points="559,-269.87 488.25,-269.87 488.25,-251.37 559,-251.37 559,-269.87"/>
<text text-anchor="middle" x="523.62" y="-257.32" font-family="Times,serif" font-size="9.00">PAC&#45;MAN Up</text>
</g>
<!-- PAC&#45;MAN Up&#45;&gt;Move Left -->
<g id="edge4" class="edge">
<title>PAC&#45;MAN Up&#45;&gt;Move Left</title>
<path fill="none" stroke="red" stroke-width="0.12" stroke-dasharray="1,5" d="M521.29,-251.1C517.85,-238.49 511.14,-213.98 505.09,-191.82"/>
<polygon fill="red" stroke="red" stroke-width="0.12" points="508.51,-191.08 502.5,-182.36 501.76,-192.93 508.51,-191.08"/>
</g>
<!-- PACM&#45;MAN Down -->
<g id="node16" class="node">
<title>PACM&#45;MAN Down</title>
<polygon fill="lightblue" stroke="black" points="739.75,-269.87 649.5,-269.87 649.5,-251.37 739.75,-251.37 739.75,-269.87"/>
<text text-anchor="middle" x="694.62" y="-257.32" font-family="Times,serif" font-size="9.00">PACM&#45;MAN Down</text>
</g>
<!-- PACM&#45;MAN Down&#45;&gt;Move Left -->
<g id="edge5" class="edge">
<title>PACM&#45;MAN Down&#45;&gt;Move Left</title>
<path fill="none" stroke="green" stroke-width="0.23" d="M684.28,-250.93C673.71,-242.28 656.61,-228.89 640.62,-219.08 607.04,-198.46 566.8,-178.96 536.76,-165.34"/>
<polygon fill="green" stroke="green" stroke-width="0.23" points="538.26,-162.18 527.71,-161.27 535.39,-168.56 538.26,-162.18"/>
</g>
<!-- Move Up -->
<g id="node20" class="node">
<title>Move Up</title>
<ellipse fill="lightblue" stroke="black" cx="835.62" cy="-35.71" rx="35.71" ry="35.71"/>
<text text-anchor="middle" x="835.62" y="-32.41" font-family="Times,serif" font-size="9.00">Move Up</text>
</g>
<!-- PACM&#45;MAN Down&#45;&gt;Move Up -->
<g id="edge13" class="edge">
<title>PACM&#45;MAN Down&#45;&gt;Move Up</title>
<path fill="none" stroke="green" stroke-width="0.32" stroke-dasharray="1,5" d="M695.92,-250.95C699.92,-226.41 713.91,-155.2 747.62,-107.42 760.64,-88.98 779.75,-72.82 796.84,-60.62"/>
<polygon fill="green" stroke="green" stroke-width="0.32" points="798.39,-63.8 804.63,-55.24 794.41,-58.05 798.39,-63.8"/>
</g>
<!-- 23448 -->
<g id="node28" class="node">
<title>23448</title>
<ellipse fill="white" stroke="black" cx="783.62" cy="-145.25" rx="27.22" ry="27.22"/>
<text text-anchor="middle" x="783.62" y="-141.95" font-family="Times,serif" font-size="9.00">23448</text>
</g>
<!-- PACM&#45;MAN Down&#45;&gt;23448 -->
<g id="edge16" class="edge">
<title>PACM&#45;MAN Down&#45;&gt;23448</title>
<path fill="none" stroke="green" stroke-width="0.36" d="M701.31,-251.1C713.74,-235.28 740.89,-200.68 760.63,-175.55"/>
<polygon fill="green" stroke="green" stroke-width="0.36" points="763.25,-177.88 766.67,-167.85 757.74,-173.55 763.25,-177.88"/>
</g>
<!-- Power&#45;Up Time -->
<g id="node17" class="node">
<title>Power&#45;Up Time</title>
<polygon fill="lightblue" stroke="black" points="1083.5,-391.08 1009.75,-391.08 1009.75,-372.58 1083.5,-372.58 1083.5,-391.08"/>
<text text-anchor="middle" x="1046.62" y="-378.53" font-family="Times,serif" font-size="9.00">Power&#45;Up Time</text>
</g>
<!-- Power&#45;Up Time&#45;&gt;Move Up -->
<g id="edge12" class="edge">
<title>Power&#45;Up Time&#45;&gt;Move Up</title>
<path fill="none" stroke="red" stroke-width="1.1" stroke-dasharray="1,5" d="M1049.64,-372.22C1057.89,-347.14 1078.61,-272.56 1053.62,-219.08 1017.4,-141.54 930.2,-85.36 877.72,-57.19"/>
<polygon fill="red" stroke="red" stroke-width="1.1" points="879.67,-54.25 869.19,-52.7 876.41,-60.45 879.67,-54.25"/>
</g>
<!-- 23886 -->
<g id="node24" class="node">
<title>23886</title>
<ellipse fill="white" stroke="black" cx="991.62" cy="-260.62" rx="27.22" ry="27.22"/>
<text text-anchor="middle" x="991.62" y="-257.32" font-family="Times,serif" font-size="9.00">23886</text>
</g>
<!-- Power&#45;Up Time&#45;&gt;23886 -->
<g id="edge23" class="edge">
<title>Power&#45;Up Time&#45;&gt;23886</title>
<path fill="none" stroke="green" stroke-width="0.2" d="M1042.67,-372.25C1035.3,-356.28 1019.11,-321.18 1006.92,-294.78"/>
<polygon fill="green" stroke="green" stroke-width="0.2" points="1010.13,-293.38 1002.77,-285.77 1003.78,-296.31 1010.13,-293.38"/>
</g>
<!-- Power&#45;Up Time&#45;&gt;23378 -->
<g id="edge14" class="edge">
<title>Power&#45;Up Time&#45;&gt;23378</title>
<path fill="none" stroke="green" stroke-width="0.42" d="M1048.3,-372.08C1052.79,-345.98 1062.49,-267.49 1027.62,-219.08 999.79,-180.43 946.1,-161.63 909.81,-152.98"/>
<polygon fill="green" stroke="green" stroke-width="0.42" points="910.76,-149.6 900.24,-150.84 909.23,-156.43 910.76,-149.6"/>
</g>
<!-- Move Right&#45;&gt;23378 -->
<g id="edge18" class="edge">
<title>Move Right&#45;&gt;23378</title>
<path fill="none" stroke="green" stroke-width="0.92" d="M893.52,-220.29C890.04,-207.95 886.21,-194.39 882.8,-182.29"/>
<polygon fill="green" stroke="green" stroke-width="0.92" points="886.26,-181.68 880.18,-173.01 879.53,-183.58 886.26,-181.68"/>
</g>
<!-- 20966&#45;&gt;Move Left -->
<g id="edge8" class="edge">
<title>20966&#45;&gt;Move Left</title>
<path fill="none" stroke="green" stroke-width="0.55" d="M421.99,-238.3C433.66,-223.08 449.68,-202.21 463.51,-184.19"/>
<polygon fill="green" stroke="green" stroke-width="0.55" points="466.28,-186.33 469.59,-176.27 460.73,-182.07 466.28,-186.33"/>
</g>
<!-- 23758&#45;&gt;Move Left -->
<g id="edge22" class="edge">
<title>23758&#45;&gt;Move Left</title>
<path fill="none" stroke="green" stroke-width="0.38" d="M586.79,-239.6C580.79,-232.99 573.99,-225.65 567.62,-219.08 554.64,-205.68 539.98,-191.3 527.1,-178.88"/>
<polygon fill="green" stroke="green" stroke-width="0.38" points="529.79,-176.61 520.15,-172.21 524.94,-181.66 529.79,-176.61"/>
</g>
<!-- 23886&#45;&gt;23448 -->
<g id="edge28" class="edge">
<title>23886&#45;&gt;23448</title>
<path fill="none" stroke="red" stroke-width="0.52" d="M976.29,-238.04C970.49,-231.16 963.4,-224.05 955.62,-219.08 909.08,-189.3 886.37,-207.14 836.62,-183.08 828.58,-179.19 820.4,-174.14 812.95,-169.04"/>
<polygon fill="red" stroke="red" stroke-width="0.52" points="815.41,-166.5 805.24,-163.55 811.35,-172.2 815.41,-166.5"/>
</g>
<!-- 24207&#45;&gt;20966 -->
<g id="edge27" class="edge">
<title>24207&#45;&gt;20966</title>
<path fill="none" stroke="red" stroke-width="0.11" d="M312.95,-361.14C331.35,-341.39 359.83,-310.8 380.37,-288.75"/>
<polygon fill="red" stroke="red" stroke-width="0.11" points="382.9,-291.16 387.16,-281.45 377.78,-286.39 382.9,-291.16"/>
</g>
<!-- 23378&#45;&gt;Move Up -->
<g id="edge15" class="edge">
<title>23378&#45;&gt;Move Up</title>
<path fill="none" stroke="green" stroke-width="0.47" d="M863.95,-119.03C859.93,-107.36 855.05,-93.15 850.47,-79.85"/>
<polygon fill="green" stroke="green" stroke-width="0.47" points="853.84,-78.9 847.28,-70.58 847.22,-81.18 853.84,-78.9"/>
</g>
<!-- 21463&#45;&gt;20966 -->
<g id="edge11" class="edge">
<title>21463&#45;&gt;20966</title>
<path fill="none" stroke="green" stroke-width="0.25" d="M405.62,-354.37C405.62,-337.86 405.62,-316.37 405.62,-298.23"/>
<polygon fill="green" stroke="green" stroke-width="0.25" points="409.13,-298.37 405.63,-288.37 402.13,-298.37 409.13,-298.37"/>
</g>
<!-- 21463&#45;&gt;23448 -->
<g id="edge24" class="edge">
<title>21463&#45;&gt;23448</title>
<path fill="none" stroke="red" stroke-width="0.22" d="M431.44,-372.48C460.63,-363.24 509.69,-348.31 552.62,-338.16 638.82,-317.79 684.78,-363.55 748.62,-302.16 780.57,-271.45 786.27,-218.36 786.05,-182.78"/>
<polygon fill="red" stroke="red" stroke-width="0.22" points="789.56,-183.04 785.84,-173.12 782.56,-183.19 789.56,-183.04"/>
</g>
<!-- 23448&#45;&gt;Move Up -->
<g id="edge17" class="edge">
<title>23448&#45;&gt;Move Up</title>
<path fill="none" stroke="green" stroke-width="0.11" d="M795.29,-120.11C801.44,-107.4 809.15,-91.46 816.17,-76.94"/>
<polygon fill="green" stroke="green" stroke-width="0.11" points="819.16,-78.8 820.36,-68.27 812.86,-75.75 819.16,-78.8"/>
</g>
</g>
</svg>
