<?xml version="1.0" encoding="UTF-8" standalone="no"?>
<!DOCTYPE svg PUBLIC "-//W3C//DTD SVG 1.1//EN"
 "http://www.w3.org/Graphics/SVG/1.1/DTD/svg11.dtd">
<!-- Generated by graphviz version 12.0.0 (20240704.0754)
 -->
<!-- Pages: 1 -->
<svg width="1976pt" height="228pt"
 viewBox="0.00 0.00 1976.16 227.55" xmlns="http://www.w3.org/2000/svg" xmlns:xlink="http://www.w3.org/1999/xlink">
<g id="graph0" class="graph" transform="scale(1 1) rotate(0) translate(4 223.55)">
<polygon fill="white" stroke="none" points="-4,4 -4,-223.55 1972.16,-223.55 1972.16,4 -4,4"/>
<!-- Pellet Right -->
<g id="node1" class="node">
<title>Pellet Right</title>
<polygon fill="lightblue" stroke="black" points="1083.88,-219.55 1026.62,-219.55 1026.62,-201.05 1083.88,-201.05 1083.88,-219.55"/>
<text text-anchor="middle" x="1055.25" y="-207" font-family="Times,serif" font-size="9.00">Pellet Right</text>
</g>
<!-- Move Right -->
<g id="node18" class="node">
<title>Move Right</title>
<ellipse fill="lightblue" stroke="black" cx="881.25" cy="-43.66" rx="41.54" ry="41.54"/>
<text text-anchor="middle" x="881.25" y="-40.36" font-family="Times,serif" font-size="9.00">Move Right</text>
</g>
<!-- Pellet Right&#45;&gt;Move Right -->
<g id="edge20" class="edge">
<title>Pellet Right&#45;&gt;Move Right</title>
<path fill="none" stroke="green" stroke-width="0.24" d="M1047.35,-200.78C1032.71,-185.09 1000.2,-150.72 971.25,-123.33 954.93,-107.89 936.31,-91.43 920.26,-77.59"/>
<polygon fill="green" stroke="green" stroke-width="0.24" points="922.76,-75.12 912.89,-71.26 918.2,-80.43 922.76,-75.12"/>
</g>
<!-- Move Left -->
<g id="node19" class="node">
<title>Move Left</title>
<ellipse fill="lightblue" stroke="black" cx="555.25" cy="-43.66" rx="37.83" ry="37.83"/>
<text text-anchor="middle" x="555.25" y="-40.36" font-family="Times,serif" font-size="9.00">Move Left</text>
</g>
<!-- Pellet Right&#45;&gt;Move Left -->
<g id="edge21" class="edge">
<title>Pellet Right&#45;&gt;Move Left</title>
<path fill="none" stroke="green" stroke-width="0.32" d="M1038.15,-200.57C999.84,-181.13 907.94,-135.01 875.25,-123.33 780.84,-89.58 665.74,-65.17 602.51,-53.13"/>
<polygon fill="green" stroke="green" stroke-width="0.32" points="603.39,-49.74 592.91,-51.33 602.09,-56.62 603.39,-49.74"/>
</g>
<!-- Move Up -->
<g id="node20" class="node">
<title>Move Up</title>
<ellipse fill="lightblue" stroke="black" cx="1353.25" cy="-43.66" rx="35.71" ry="35.71"/>
<text text-anchor="middle" x="1353.25" y="-40.36" font-family="Times,serif" font-size="9.00">Move Up</text>
</g>
<!-- Pellet Right&#45;&gt;Move Up -->
<g id="edge22" class="edge">
<title>Pellet Right&#45;&gt;Move Up</title>
<path fill="none" stroke="red" stroke-width="0.58" stroke-dasharray="1,5" d="M1084.23,-202.66C1087.27,-202.07 1090.32,-201.51 1093.25,-201.05 1170.46,-188.73 1390.87,-223.09 1443.25,-165.05 1471.45,-133.79 1428.37,-94.12 1392.64,-69.06"/>
<polygon fill="red" stroke="red" stroke-width="0.58" points="1394.72,-66.24 1384.49,-63.5 1390.78,-72.02 1394.72,-66.24"/>
</g>
<!-- Move Down -->
<g id="node21" class="node">
<title>Move Down</title>
<ellipse fill="lightblue" stroke="black" cx="1622.25" cy="-43.66" rx="43.66" ry="43.66"/>
<text text-anchor="middle" x="1622.25" y="-40.36" font-family="Times,serif" font-size="9.00">Move Down</text>
</g>
<!-- Pellet Right&#45;&gt;Move Down -->
<g id="edge23" class="edge">
<title>Pellet Right&#45;&gt;Move Down</title>
<path fill="none" stroke="red" stroke-width="0.66" stroke-dasharray="1,5" d="M1084.21,-202.51C1087.25,-201.95 1090.31,-201.44 1093.25,-201.05 1167.8,-191.04 1717.5,-219.63 1769.25,-165.05 1807.82,-124.37 1730.42,-84.66 1674.01,-62.55"/>
<polygon fill="red" stroke="red" stroke-width="0.66" points="1675.27,-59.28 1664.68,-58.98 1672.77,-65.82 1675.27,-59.28"/>
</g>
<!-- 488 -->
<g id="node22" class="node">
<title>488</title>
<ellipse fill="white" stroke="black" cx="794.25" cy="-144.19" rx="20.86" ry="20.86"/>
<text text-anchor="middle" x="794.25" y="-140.89" font-family="Times,serif" font-size="9.00">488</text>
</g>
<!-- Pellet Right&#45;&gt;488 -->
<g id="edge1" class="edge">
<title>Pellet Right&#45;&gt;488</title>
<path fill="none" stroke="green" stroke-width="0.62" d="M1026.32,-202.19C976.74,-190.01 875.96,-165.26 825.09,-152.76"/>
<polygon fill="green" stroke="green" stroke-width="0.62" points="826.19,-149.43 815.65,-150.44 824.52,-156.23 826.19,-149.43"/>
</g>
<!-- Pellet Left -->
<g id="node2" class="node">
<title>Pellet Left</title>
<polygon fill="lightblue" stroke="black" points="234.25,-219.55 182.25,-219.55 182.25,-201.05 234.25,-201.05 234.25,-219.55"/>
<text text-anchor="middle" x="208.25" y="-207" font-family="Times,serif" font-size="9.00">Pellet Left</text>
</g>
<!-- Pellet Left&#45;&gt;Move Left -->
<g id="edge24" class="edge">
<title>Pellet Left&#45;&gt;Move Left</title>
<path fill="none" stroke="green" stroke-width="0.42" d="M211.99,-200.74C220.03,-183.37 240.64,-143.92 270.25,-123.33 342.8,-72.87 446.67,-54.7 506.92,-48.21"/>
<polygon fill="green" stroke="green" stroke-width="0.42" points="507.06,-51.72 516.65,-47.23 506.35,-44.75 507.06,-51.72"/>
</g>
<!-- Pellet Left&#45;&gt;488 -->
<g id="edge2" class="edge">
<title>Pellet Left&#45;&gt;488</title>
<path fill="none" stroke="green" stroke-width="0.35" d="M234.55,-202.71C237.47,-202.09 240.42,-201.52 243.25,-201.05 439.27,-168.15 678,-151.96 762.65,-146.94"/>
<polygon fill="green" stroke="green" stroke-width="0.35" points="762.79,-150.44 772.57,-146.37 762.39,-143.45 762.79,-150.44"/>
</g>
<!-- Pellet Up -->
<g id="node3" class="node">
<title>Pellet Up</title>
<polygon fill="lightblue" stroke="black" points="1150.75,-219.55 1101.75,-219.55 1101.75,-201.05 1150.75,-201.05 1150.75,-219.55"/>
<text text-anchor="middle" x="1126.25" y="-207" font-family="Times,serif" font-size="9.00">Pellet Up</text>
</g>
<!-- Pellet Up&#45;&gt;Move Right -->
<g id="edge25" class="edge">
<title>Pellet Up&#45;&gt;Move Right</title>
<path fill="none" stroke="green" stroke-width="0.42" stroke-dasharray="1,5" d="M1120.16,-200.72C1107.95,-184 1078.91,-146.66 1047.25,-123.33 1011.26,-96.81 964.92,-75.75 930.35,-62.12"/>
<polygon fill="green" stroke="green" stroke-width="0.42" points="931.66,-58.87 921.07,-58.53 929.14,-65.4 931.66,-58.87"/>
</g>
<!-- Pellet Up&#45;&gt;Move Left -->
<g id="edge26" class="edge">
<title>Pellet Up&#45;&gt;Move Left</title>
<path fill="none" stroke="green" stroke-width="0.14" d="M1110.03,-200.58C1077.55,-183.46 1001.84,-145.19 934.25,-123.33 817.92,-85.7 675.5,-61.82 602.84,-51.16"/>
<polygon fill="green" stroke="green" stroke-width="0.14" points="603.67,-47.74 593.27,-49.77 602.67,-54.67 603.67,-47.74"/>
</g>
<!-- Pellet Up&#45;&gt;Move Up -->
<g id="edge27" class="edge">
<title>Pellet Up&#45;&gt;Move Up</title>
<path fill="none" stroke="red" stroke-width="0.43" d="M1151.04,-202.82C1154.13,-202.15 1157.25,-201.53 1160.25,-201.05 1206.92,-193.45 1552.26,-199.86 1584.25,-165.05 1643.24,-100.84 1482.35,-65.06 1399.32,-51.31"/>
<polygon fill="red" stroke="red" stroke-width="0.43" points="1399.94,-47.87 1389.51,-49.73 1398.83,-54.78 1399.94,-47.87"/>
</g>
<!-- Pellet Up&#45;&gt;Move Down -->
<g id="edge28" class="edge">
<title>Pellet Up&#45;&gt;Move Down</title>
<path fill="none" stroke="red" stroke-width="0.14" d="M1151.03,-202.73C1154.12,-202.08 1157.25,-201.49 1160.25,-201.05 1231.48,-190.51 1757.77,-217.35 1807.25,-165.05 1854.53,-115.06 1744.48,-75.97 1674.54,-57.09"/>
<polygon fill="red" stroke="red" stroke-width="0.14" points="1675.72,-53.78 1665.16,-54.61 1673.94,-60.55 1675.72,-53.78"/>
</g>
<!-- Pellet Up&#45;&gt;488 -->
<g id="edge3" class="edge">
<title>Pellet Up&#45;&gt;488</title>
<path fill="none" stroke="red" stroke-width="0.48" stroke-dasharray="1,5" d="M1101.42,-202.92C1098.67,-202.26 1095.9,-201.63 1093.25,-201.05 995.99,-179.82 879.84,-159.57 825.35,-150.36"/>
<polygon fill="red" stroke="red" stroke-width="0.48" points="826.16,-146.95 815.71,-148.74 825,-153.85 826.16,-146.95"/>
</g>
<!-- Pellet Down -->
<g id="node4" class="node">
<title>Pellet Down</title>
<polygon fill="lightblue" stroke="black" points="1229.38,-219.55 1169.12,-219.55 1169.12,-201.05 1229.38,-201.05 1229.38,-219.55"/>
<text text-anchor="middle" x="1199.25" y="-207" font-family="Times,serif" font-size="9.00">Pellet Down</text>
</g>
<!-- Pellet Down&#45;&gt;Move Right -->
<g id="edge29" class="edge">
<title>Pellet Down&#45;&gt;Move Right</title>
<path fill="none" stroke="red" stroke-width="0.11" d="M1189.52,-200.76C1170.19,-184.12 1125.08,-146.92 1082.25,-123.33 1033.02,-96.22 972.49,-73.87 930.79,-60.02"/>
<polygon fill="red" stroke="red" stroke-width="0.11" points="931.89,-56.69 921.3,-56.9 929.71,-63.35 931.89,-56.69"/>
</g>
<!-- Pellet Down&#45;&gt;Move Down -->
<g id="edge30" class="edge">
<title>Pellet Down&#45;&gt;Move Down</title>
<path fill="none" stroke="green" stroke-width="0.51" d="M1229.75,-202.54C1232.95,-201.97 1236.16,-201.46 1239.25,-201.05 1306.12,-192.21 1798.99,-214.14 1845.25,-165.05 1901.33,-105.54 1758.45,-68.99 1675.94,-53.42"/>
<polygon fill="green" stroke="green" stroke-width="0.51" points="1676.69,-50 1666.22,-51.64 1675.42,-56.89 1676.69,-50"/>
</g>
<!-- Pellet Down&#45;&gt;488 -->
<g id="edge4" class="edge">
<title>Pellet Down&#45;&gt;488</title>
<path fill="none" stroke="red" stroke-width="0.59" stroke-dasharray="1,5" d="M1168.63,-202.65C1165.8,-202.08 1162.97,-201.54 1160.25,-201.05 1036.76,-178.58 888.71,-157.89 825.42,-149.33"/>
<polygon fill="red" stroke="red" stroke-width="0.59" points="826.22,-145.91 815.84,-148.05 825.29,-152.85 826.22,-145.91"/>
</g>
<!-- Power Pellet Right -->
<g id="node5" class="node">
<title>Power Pellet Right</title>
<polygon fill="lightblue" stroke="black" points="1330.62,-219.55 1247.88,-219.55 1247.88,-201.05 1330.62,-201.05 1330.62,-219.55"/>
<text text-anchor="middle" x="1289.25" y="-207" font-family="Times,serif" font-size="9.00">Power Pellet Right</text>
</g>
<!-- Power Pellet Right&#45;&gt;Move Right -->
<g id="edge31" class="edge">
<title>Power Pellet Right&#45;&gt;Move Right</title>
<path fill="none" stroke="red" stroke-width="0.38" d="M1274.93,-200.57C1247.2,-183.93 1183.88,-147.18 1127.25,-123.33 1061.34,-95.56 982.06,-71.86 931.66,-57.93"/>
<polygon fill="red" stroke="red" stroke-width="0.38" points="932.78,-54.61 922.21,-55.35 930.93,-61.36 932.78,-54.61"/>
</g>
<!-- Power Pellet Right&#45;&gt;Move Left -->
<g id="edge32" class="edge">
<title>Power Pellet Right&#45;&gt;Move Left</title>
<path fill="none" stroke="red" stroke-width="0.35" d="M1263.43,-200.61C1212.95,-183.86 1097.47,-146.72 998.25,-123.33 855.71,-89.73 684.35,-63.15 602.83,-51.33"/>
<polygon fill="red" stroke="red" stroke-width="0.35" points="603.79,-47.93 593.39,-49.97 602.79,-54.86 603.79,-47.93"/>
</g>
<!-- Power Pellet Right&#45;&gt;Move Up -->
<g id="edge33" class="edge">
<title>Power Pellet Right&#45;&gt;Move Up</title>
<path fill="none" stroke="green" stroke-width="0.11" stroke-dasharray="1,5" d="M1330.96,-207.82C1429.32,-203.91 1669.35,-191.71 1693.25,-165.05 1705.63,-151.24 1704.79,-137.84 1693.25,-123.33 1683.99,-111.68 1488.76,-71.59 1398.41,-53.57"/>
<polygon fill="green" stroke="green" stroke-width="0.11" points="1399.09,-50.14 1388.6,-51.62 1397.73,-57 1399.09,-50.14"/>
</g>
<!-- Power Pellet Right&#45;&gt;Move Down -->
<g id="edge34" class="edge">
<title>Power Pellet Right&#45;&gt;Move Down</title>
<path fill="none" stroke="green" stroke-width="0.51" d="M1330.91,-207.73C1462.93,-202.58 1864.45,-185.3 1883.25,-165.05 1948.14,-95.15 1770.64,-62.52 1676.53,-50.47"/>
<polygon fill="green" stroke="green" stroke-width="0.51" points="1677.16,-47.02 1666.81,-49.26 1676.3,-53.97 1677.16,-47.02"/>
</g>
<!-- Power Pellet Right&#45;&gt;488 -->
<g id="edge5" class="edge">
<title>Power Pellet Right&#45;&gt;488</title>
<path fill="none" stroke="red" stroke-width="0.44" stroke-dasharray="1,5" d="M1247.52,-202.42C1244.38,-201.95 1241.27,-201.48 1238.25,-201.05 1083.55,-178.81 897.8,-157.03 825.34,-148.72"/>
<polygon fill="red" stroke="red" stroke-width="0.44" points="826.08,-145.28 815.75,-147.62 825.29,-152.23 826.08,-145.28"/>
</g>
<!-- Power Pellet Left -->
<g id="node6" class="node">
<title>Power Pellet Left</title>
<polygon fill="lightblue" stroke="black" points="164,-219.55 86.5,-219.55 86.5,-201.05 164,-201.05 164,-219.55"/>
<text text-anchor="middle" x="125.25" y="-207" font-family="Times,serif" font-size="9.00">Power Pellet Left</text>
</g>
<!-- Power Pellet Left&#45;&gt;Move Right -->
<g id="edge35" class="edge">
<title>Power Pellet Left&#45;&gt;Move Right</title>
<path fill="none" stroke="red" stroke-width="0.11" d="M131.9,-200.79C146.53,-182.8 183.54,-141.09 225.25,-123.33 380.11,-57.37 435.21,-108.06 602.25,-87.33 682.13,-77.41 774.38,-62.66 830.23,-53.35"/>
<polygon fill="red" stroke="red" stroke-width="0.11" points="830.78,-56.81 840.06,-51.71 829.62,-49.91 830.78,-56.81"/>
</g>
<!-- Power Pellet Left&#45;&gt;Move Left -->
<g id="edge36" class="edge">
<title>Power Pellet Left&#45;&gt;Move Left</title>
<path fill="none" stroke="red" stroke-width="0.18" d="M132.85,-200.72C148.75,-183.33 187.46,-143.83 228.25,-123.33 320.48,-76.96 441.28,-57.12 507.2,-49.28"/>
<polygon fill="red" stroke="red" stroke-width="0.18" points="507.49,-52.77 517.03,-48.15 506.69,-45.82 507.49,-52.77"/>
</g>
<!-- Power Pellet Left&#45;&gt;Move Up -->
<g id="edge37" class="edge">
<title>Power Pellet Left&#45;&gt;Move Up</title>
<path fill="none" stroke="green" stroke-width="0.3" d="M142.16,-200.61C178.42,-182.47 266.83,-140.77 346.25,-123.33 601.11,-67.36 672.17,-108.49 932.25,-87.33 1068.79,-76.22 1229.8,-58.66 1307.18,-49.94"/>
<polygon fill="green" stroke="green" stroke-width="0.3" points="1307.54,-53.42 1317.08,-48.82 1306.75,-46.46 1307.54,-53.42"/>
</g>
<!-- Power Pellet Left&#45;&gt;488 -->
<g id="edge6" class="edge">
<title>Power Pellet Left&#45;&gt;488</title>
<path fill="none" stroke="red" stroke-width="0.26" stroke-dasharray="1,5" d="M164.24,-202.32C167.29,-201.86 170.32,-201.43 173.25,-201.05 398.62,-171.59 672.04,-152.88 763.09,-147.1"/>
<polygon fill="red" stroke="red" stroke-width="0.26" points="763.12,-150.6 772.88,-146.48 762.68,-143.62 763.12,-150.6"/>
</g>
<!-- Power Pellet Up -->
<g id="node7" class="node">
<title>Power Pellet Up</title>
<polygon fill="lightblue" stroke="black" points="520.5,-219.55 446,-219.55 446,-201.05 520.5,-201.05 520.5,-219.55"/>
<text text-anchor="middle" x="483.25" y="-207" font-family="Times,serif" font-size="9.00">Power Pellet Up</text>
</g>
<!-- Power Pellet Up&#45;&gt;Move Right -->
<g id="edge38" class="edge">
<title>Power Pellet Up&#45;&gt;Move Right</title>
<path fill="none" stroke="green" stroke-width="0.16" stroke-dasharray="1,5" d="M495.71,-200.69C520.42,-183.94 577.8,-146.53 630.25,-123.33 697.4,-93.63 779.21,-70.2 830.78,-56.89"/>
<polygon fill="green" stroke="green" stroke-width="0.16" points="831.61,-60.29 840.44,-54.42 829.88,-53.51 831.61,-60.29"/>
</g>
<!-- Power Pellet Up&#45;&gt;Move Left -->
<g id="edge39" class="edge">
<title>Power Pellet Up&#45;&gt;Move Left</title>
<path fill="none" stroke="green" stroke-width="0.25" stroke-dasharray="1,5" d="M445.63,-205.83C396.48,-200.42 314.51,-188.14 296.25,-165.05 284.75,-150.5 285.21,-138.22 296.25,-123.33 321.54,-89.22 440.2,-64.06 507.8,-52.22"/>
<polygon fill="green" stroke="green" stroke-width="0.25" points="508.15,-55.71 517.41,-50.57 506.97,-48.81 508.15,-55.71"/>
</g>
<!-- Power Pellet Up&#45;&gt;Move Up -->
<g id="edge40" class="edge">
<title>Power Pellet Up&#45;&gt;Move Up</title>
<path fill="none" stroke="red" stroke-width="0.28" d="M487.81,-200.67C498.54,-180.76 525.6,-132.59 541.25,-123.33 616.33,-78.87 845.4,-95.73 932.25,-87.33 1068.61,-74.14 1229.7,-57.53 1307.14,-49.48"/>
<polygon fill="red" stroke="red" stroke-width="0.28" points="1307.49,-52.96 1317.07,-48.44 1306.76,-46 1307.49,-52.96"/>
</g>
<!-- Power Pellet Up&#45;&gt;Move Down -->
<g id="edge41" class="edge">
<title>Power Pellet Up&#45;&gt;Move Down</title>
<path fill="none" stroke="red" stroke-width="0.35" d="M497.2,-200.65C527.5,-182.38 602.21,-140.16 671.25,-123.33 985.55,-46.68 1077.02,-125.68 1398.25,-87.33 1457.33,-80.27 1524.24,-66.8 1569.43,-56.87"/>
<polygon fill="red" stroke="red" stroke-width="0.35" points="1570.07,-60.32 1579.07,-54.73 1568.55,-53.48 1570.07,-60.32"/>
</g>
<!-- Power Pellet Up&#45;&gt;488 -->
<g id="edge7" class="edge">
<title>Power Pellet Up&#45;&gt;488</title>
<path fill="none" stroke="red" stroke-width="0.12" d="M520.76,-201.56C583.12,-188.71 706.88,-163.2 764.03,-151.42"/>
<polygon fill="red" stroke="red" stroke-width="0.12" points="764.64,-154.87 773.72,-149.42 763.22,-148.01 764.64,-154.87"/>
</g>
<!-- Power Pellet Down -->
<g id="node8" class="node">
<title>Power Pellet Down</title>
<polygon fill="lightblue" stroke="black" points="624.12,-219.55 538.38,-219.55 538.38,-201.05 624.12,-201.05 624.12,-219.55"/>
<text text-anchor="middle" x="581.25" y="-207" font-family="Times,serif" font-size="9.00">Power Pellet Down</text>
</g>
<!-- Power Pellet Down&#45;&gt;Move Right -->
<g id="edge42" class="edge">
<title>Power Pellet Down&#45;&gt;Move Right</title>
<path fill="none" stroke="green" stroke-width="0.22" d="M591.03,-200.58C610.06,-183.95 653.81,-147.23 695.25,-123.33 739.63,-97.73 793.94,-75.73 832.39,-61.55"/>
<polygon fill="green" stroke="green" stroke-width="0.22" points="833.29,-64.95 841.49,-58.24 830.9,-58.37 833.29,-64.95"/>
</g>
<!-- Power Pellet Down&#45;&gt;Move Left -->
<g id="edge43" class="edge">
<title>Power Pellet Down&#45;&gt;Move Left</title>
<path fill="none" stroke="red" stroke-width="0.44" d="M538.07,-202.35C462.51,-190.16 314.16,-166.12 313.25,-165.05 254.82,-96.18 421.05,-62.82 507.14,-50.5"/>
<polygon fill="red" stroke="red" stroke-width="0.44" points="507.39,-54 516.81,-49.16 506.43,-47.07 507.39,-54"/>
</g>
<!-- Power Pellet Down&#45;&gt;Move Up -->
<g id="edge44" class="edge">
<title>Power Pellet Down&#45;&gt;Move Up</title>
<path fill="none" stroke="red" stroke-width="0.11" d="M589.23,-200.6C606.31,-182.63 648.53,-141.54 693.25,-123.33 721.82,-111.7 1163.28,-64.6 1307.82,-49.41"/>
<polygon fill="red" stroke="red" stroke-width="0.11" points="1307.96,-52.91 1317.54,-48.39 1307.23,-45.95 1307.96,-52.91"/>
</g>
<!-- Power Pellet Down&#45;&gt;Move Down -->
<g id="edge45" class="edge">
<title>Power Pellet Down&#45;&gt;Move Down</title>
<path fill="none" stroke="green" stroke-width="0.57" d="M599.63,-200.55C645.16,-178.9 759.89,-124.43 764.25,-123.33 1037.85,-54.06 1118.13,-121.8 1398.25,-87.33 1457.18,-80.07 1523.94,-66.68 1569.13,-56.82"/>
<polygon fill="green" stroke="green" stroke-width="0.57" points="1569.72,-60.28 1578.74,-54.71 1568.22,-53.44 1569.72,-60.28"/>
</g>
<!-- Power Pellet Down&#45;&gt;488 -->
<g id="edge8" class="edge">
<title>Power Pellet Down&#45;&gt;488</title>
<path fill="none" stroke="red" stroke-width="0.4" d="M609.98,-200.65C650.3,-188.51 723.32,-166.53 764.3,-154.2"/>
<polygon fill="red" stroke="red" stroke-width="0.4" points="765.08,-157.62 773.65,-151.39 763.06,-150.92 765.08,-157.62"/>
</g>
<!-- Ghost Info Right -->
<g id="node9" class="node">
<title>Ghost Info Right</title>
<polygon fill="lightblue" stroke="black" points="810.62,-219.55 733.88,-219.55 733.88,-201.05 810.62,-201.05 810.62,-219.55"/>
<text text-anchor="middle" x="772.25" y="-207" font-family="Times,serif" font-size="9.00">Ghost Info Right</text>
</g>
<!-- Ghost Info Right&#45;&gt;Move Left -->
<g id="edge46" class="edge">
<title>Ghost Info Right&#45;&gt;Move Left</title>
<path fill="none" stroke="red" stroke-width="0.11" d="M733.46,-201.9C693.62,-193.66 635,-179.59 617.25,-165.05 593.79,-145.82 578.23,-115.4 568.57,-89.95"/>
<polygon fill="red" stroke="red" stroke-width="0.11" points="571.89,-88.85 565.2,-80.63 565.31,-91.22 571.89,-88.85"/>
</g>
<!-- Ghost Info Right&#45;&gt;Move Up -->
<g id="edge47" class="edge">
<title>Ghost Info Right&#45;&gt;Move Up</title>
<path fill="none" stroke="green" stroke-width="0.27" d="M810.97,-202.3C814.11,-201.84 817.23,-201.41 820.25,-201.05 877.09,-194.19 1292.05,-203.74 1334.25,-165.05 1354.6,-146.38 1359.14,-115.46 1358.7,-89.63"/>
<polygon fill="green" stroke="green" stroke-width="0.27" points="1362.2,-89.54 1358.28,-79.7 1355.21,-89.84 1362.2,-89.54"/>
</g>
<!-- Ghost Info Right&#45;&gt;488 -->
<g id="edge9" class="edge">
<title>Ghost Info Right&#45;&gt;488</title>
<path fill="none" stroke="red" stroke-width="0.2" stroke-dasharray="1,5" d="M775.22,-200.65C777.57,-193.8 780.99,-183.82 784.29,-174.2"/>
<polygon fill="red" stroke="red" stroke-width="0.2" points="787.6,-175.34 787.54,-164.75 780.98,-173.07 787.6,-175.34"/>
</g>
<!-- Ghost Info Left -->
<g id="node10" class="node">
<title>Ghost Info Left</title>
<polygon fill="lightblue" stroke="black" points="1690,-219.55 1618.5,-219.55 1618.5,-201.05 1690,-201.05 1690,-219.55"/>
<text text-anchor="middle" x="1654.25" y="-207" font-family="Times,serif" font-size="9.00">Ghost Info Left</text>
</g>
<!-- Ghost Info Left&#45;&gt;Move Left -->
<g id="edge48" class="edge">
<title>Ghost Info Left&#45;&gt;Move Left</title>
<path fill="none" stroke="red" stroke-width="0.2" stroke-dasharray="1,5" d="M1618.15,-207.32C1546.16,-202.95 1379.79,-190.78 1242.25,-165.05 1172.13,-151.93 1157.15,-137.57 1087.25,-123.33 974.24,-100.3 944.35,-104.17 830.25,-87.33 750.32,-75.53 657.48,-60.94 602.69,-52.24"/>
<polygon fill="red" stroke="red" stroke-width="0.2" points="603.31,-48.8 592.88,-50.68 602.21,-55.71 603.31,-48.8"/>
</g>
<!-- Ghost Info Left&#45;&gt;Move Up -->
<g id="edge49" class="edge">
<title>Ghost Info Left&#45;&gt;Move Up</title>
<path fill="none" stroke="red" stroke-width="0.48" d="M1672.88,-200.6C1686.27,-193.22 1703.32,-181.25 1711.25,-165.05 1719.4,-148.39 1722.87,-137.78 1711.25,-123.33 1706.31,-117.18 1494.1,-73.33 1398.78,-53.9"/>
<polygon fill="red" stroke="red" stroke-width="0.48" points="1399.51,-50.47 1389.01,-51.91 1398.11,-57.33 1399.51,-50.47"/>
</g>
<!-- Ghost Info Left&#45;&gt;Move Down -->
<g id="edge50" class="edge">
<title>Ghost Info Left&#45;&gt;Move Down</title>
<path fill="none" stroke="red" stroke-width="0.25" d="M1690.44,-209.68C1763.56,-209.6 1924.85,-204.8 1959.25,-165.05 1971.38,-151.03 1970.78,-137.85 1959.25,-123.33 1924.49,-79.52 1762.04,-57.82 1676.02,-49.25"/>
<polygon fill="red" stroke="red" stroke-width="0.25" points="1676.58,-45.79 1666.29,-48.3 1675.91,-52.75 1676.58,-45.79"/>
</g>
<!-- Ghost Info Left&#45;&gt;488 -->
<g id="edge10" class="edge">
<title>Ghost Info Left&#45;&gt;488</title>
<path fill="none" stroke="red" stroke-width="0.49" stroke-dasharray="1,5" d="M1618.12,-206.6C1476.4,-196.04 959.7,-157.52 826,-147.55"/>
<polygon fill="red" stroke="red" stroke-width="0.49" points="826.29,-144.07 816.05,-146.81 825.77,-151.05 826.29,-144.07"/>
</g>
<!-- Ghost Info Up -->
<g id="node11" class="node">
<title>Ghost Info Up</title>
<polygon fill="lightblue" stroke="black" points="68.5,-219.55 0,-219.55 0,-201.05 68.5,-201.05 68.5,-219.55"/>
<text text-anchor="middle" x="34.25" y="-207" font-family="Times,serif" font-size="9.00">Ghost Info Up</text>
</g>
<!-- Ghost Info Up&#45;&gt;Move Right -->
<g id="edge51" class="edge">
<title>Ghost Info Up&#45;&gt;Move Right</title>
<path fill="none" stroke="red" stroke-width="0.1" stroke-dasharray="1,5" d="M43.28,-200.75C63.01,-182.69 112.22,-140.83 162.25,-123.33 347.45,-58.54 407.38,-110.17 602.25,-87.33 682.2,-77.96 774.43,-63.04 830.26,-53.56"/>
<polygon fill="red" stroke="red" stroke-width="0.1" points="830.82,-57.02 840.09,-51.88 829.64,-50.11 830.82,-57.02"/>
</g>
<!-- Ghost Info Up&#45;&gt;Move Left -->
<g id="edge52" class="edge">
<title>Ghost Info Up&#45;&gt;Move Left</title>
<path fill="none" stroke="red" stroke-width="0.31" d="M44.52,-200.69C65.9,-183.25 117.35,-143.66 167.25,-123.33 283.82,-75.83 432.17,-56.03 507.18,-48.61"/>
<polygon fill="red" stroke="red" stroke-width="0.31" points="507.17,-52.13 516.79,-47.69 506.5,-45.16 507.17,-52.13"/>
</g>
<!-- Ghost Info Up&#45;&gt;488 -->
<g id="edge11" class="edge">
<title>Ghost Info Up&#45;&gt;488</title>
<path fill="none" stroke="green" stroke-width="0.36" d="M68.93,-202.3C71.74,-201.84 74.54,-201.41 77.25,-201.05 340.84,-165.61 662.2,-150.47 762.69,-146.39"/>
<polygon fill="green" stroke="green" stroke-width="0.36" points="762.65,-149.89 772.5,-145.99 762.37,-142.9 762.65,-149.89"/>
</g>
<!-- Ghost Info Down -->
<g id="node12" class="node">
<title>Ghost Info Down</title>
<polygon fill="lightblue" stroke="black" points="332.12,-219.55 252.38,-219.55 252.38,-201.05 332.12,-201.05 332.12,-219.55"/>
<text text-anchor="middle" x="292.25" y="-207" font-family="Times,serif" font-size="9.00">Ghost Info Down</text>
</g>
<!-- Ghost Info Down&#45;&gt;Move Right -->
<g id="edge53" class="edge">
<title>Ghost Info Down&#45;&gt;Move Right</title>
<path fill="none" stroke="green" stroke-width="0.21" stroke-dasharray="1,5" d="M274.53,-200.59C261.55,-193.14 244.93,-181.07 237.25,-165.05 229.24,-148.32 224.8,-137.07 237.25,-123.33 264.62,-93.13 561.82,-92.41 602.25,-87.33 682.12,-77.29 774.37,-62.57 830.22,-53.3"/>
<polygon fill="green" stroke="green" stroke-width="0.21" points="830.61,-56.79 839.9,-51.69 829.47,-49.88 830.61,-56.79"/>
</g>
<!-- Ghost Info Down&#45;&gt;Move Left -->
<g id="edge54" class="edge">
<title>Ghost Info Down&#45;&gt;Move Left</title>
<path fill="none" stroke="red" stroke-width="0.26" d="M287.84,-200.71C279.94,-183.97 265.76,-146.6 283.25,-123.33 310.21,-87.47 436.99,-62.76 507.55,-51.52"/>
<polygon fill="red" stroke="red" stroke-width="0.26" points="507.81,-55.03 517.15,-50.02 506.73,-48.11 507.81,-55.03"/>
</g>
<!-- Ghost Info Down&#45;&gt;Move Up -->
<g id="edge55" class="edge">
<title>Ghost Info Down&#45;&gt;Move Up</title>
<path fill="none" stroke="red" stroke-width="0.36" d="M301.85,-200.72C322.82,-182.58 375.01,-140.59 427.25,-123.33 534.08,-88.03 820.16,-97 932.25,-87.33 1068.74,-75.55 1229.77,-58.29 1307.17,-49.79"/>
<polygon fill="red" stroke="red" stroke-width="0.36" points="1307.42,-53.28 1316.98,-48.71 1306.65,-46.32 1307.42,-53.28"/>
</g>
<!-- Ghost Info Down&#45;&gt;Move Down -->
<g id="edge56" class="edge">
<title>Ghost Info Down&#45;&gt;Move Down</title>
<path fill="none" stroke="red" stroke-width="0.52" d="M312.78,-200.68C357.28,-182.47 466.34,-140.35 562.25,-123.33 928.43,-58.34 1028.83,-130.23 1398.25,-87.33 1457.23,-80.48 1523.98,-67.01 1569.16,-57.03"/>
<polygon fill="red" stroke="red" stroke-width="0.52" points="1569.83,-60.47 1578.83,-54.87 1568.3,-53.64 1569.83,-60.47"/>
</g>
<!-- Ghost Info Down&#45;&gt;488 -->
<g id="edge12" class="edge">
<title>Ghost Info Down&#45;&gt;488</title>
<path fill="none" stroke="green" stroke-width="0.62" d="M332.48,-204.16C429.56,-191.76 675.1,-160.4 762.64,-149.22"/>
<polygon fill="green" stroke="green" stroke-width="0.62" points="763.05,-152.7 772.53,-147.96 762.16,-145.76 763.05,-152.7"/>
</g>
<!-- PAC&#45;MAN Right -->
<g id="node13" class="node">
<title>PAC&#45;MAN Right</title>
<polygon fill="lightblue" stroke="black" points="1574.75,-153.44 1495.75,-153.44 1495.75,-134.94 1574.75,-134.94 1574.75,-153.44"/>
<text text-anchor="middle" x="1535.25" y="-140.89" font-family="Times,serif" font-size="9.00">PAC&#45;MAN Right</text>
</g>
<!-- PAC&#45;MAN Right&#45;&gt;Move Right -->
<g id="edge57" class="edge">
<title>PAC&#45;MAN Right&#45;&gt;Move Right</title>
<path fill="none" stroke="green" stroke-width="0.22" d="M1495.32,-137.17C1382.03,-120.11 1058.6,-71.38 932.48,-52.38"/>
<polygon fill="green" stroke="green" stroke-width="0.22" points="933.05,-48.93 922.65,-50.9 932.01,-55.85 933.05,-48.93"/>
</g>
<!-- PAC&#45;MAN Right&#45;&gt;Move Up -->
<g id="edge58" class="edge">
<title>PAC&#45;MAN Right&#45;&gt;Move Up</title>
<path fill="none" stroke="green" stroke-width="0.36" d="M1519.1,-134.44C1491.15,-119.32 1432.98,-87.83 1393.52,-66.46"/>
<polygon fill="green" stroke="green" stroke-width="0.36" points="1395.35,-63.48 1384.89,-61.79 1392.02,-69.63 1395.35,-63.48"/>
</g>
<!-- PAC&#45;MAN Right&#45;&gt;Move Down -->
<g id="edge59" class="edge">
<title>PAC&#45;MAN Right&#45;&gt;Move Down</title>
<path fill="none" stroke="red" stroke-width="0.55" d="M1542.97,-134.44C1552.87,-123.24 1570.69,-103.05 1586.94,-84.65"/>
<polygon fill="red" stroke="red" stroke-width="0.55" points="1589.23,-87.34 1593.23,-77.53 1583.98,-82.71 1589.23,-87.34"/>
</g>
<!-- PAC&#45;MAN Left -->
<g id="node14" class="node">
<title>PAC&#45;MAN Left</title>
<polygon fill="lightblue" stroke="black" points="716.12,-219.55 642.38,-219.55 642.38,-201.05 716.12,-201.05 716.12,-219.55"/>
<text text-anchor="middle" x="679.25" y="-207" font-family="Times,serif" font-size="9.00">PAC&#45;MAN Left</text>
</g>
<!-- PAC&#45;MAN Left&#45;&gt;Move Right -->
<g id="edge60" class="edge">
<title>PAC&#45;MAN Left&#45;&gt;Move Right</title>
<path fill="none" stroke="red" stroke-width="0.33" d="M682.59,-200.69C689.45,-183.93 706.6,-146.52 731.25,-123.33 760.36,-95.94 800.85,-75.46 832.43,-62.27"/>
<polygon fill="red" stroke="red" stroke-width="0.33" points="833.51,-65.61 841.45,-58.6 830.87,-59.12 833.51,-65.61"/>
</g>
<!-- PAC&#45;MAN Left&#45;&gt;Move Left -->
<g id="edge61" class="edge">
<title>PAC&#45;MAN Left&#45;&gt;Move Left</title>
<path fill="none" stroke="green" stroke-width="0.14" stroke-dasharray="1,5" d="M642.09,-202.23C581.55,-190.63 468.06,-168.49 465.25,-165.05 439.09,-132.92 480,-94.34 514.84,-69.67"/>
<polygon fill="green" stroke="green" stroke-width="0.14" points="516.64,-72.68 522.9,-64.13 512.67,-66.91 516.64,-72.68"/>
</g>
<!-- PAC&#45;MAN Left&#45;&gt;Move Up -->
<g id="edge62" class="edge">
<title>PAC&#45;MAN Left&#45;&gt;Move Up</title>
<path fill="none" stroke="green" stroke-width="0.13" d="M684.82,-200.64C696.85,-182.73 727.24,-141.76 764.25,-123.33 812.69,-99.21 1177.39,-61.78 1307.39,-49.07"/>
<polygon fill="green" stroke="green" stroke-width="0.13" points="1307.62,-52.56 1317.23,-48.11 1306.94,-45.59 1307.62,-52.56"/>
</g>
<!-- PAC&#45;MAN Left&#45;&gt;Move Down -->
<g id="edge63" class="edge">
<title>PAC&#45;MAN Left&#45;&gt;Move Down</title>
<path fill="none" stroke="green" stroke-width="0.85" d="M716.59,-202.16C719.52,-201.74 722.43,-201.36 725.25,-201.05 820.2,-190.59 1508.4,-223.12 1584.25,-165.05 1604.7,-149.39 1614.38,-122.74 1618.87,-98.5"/>
<polygon fill="green" stroke="green" stroke-width="0.85" points="1622.29,-99.26 1620.39,-88.84 1615.38,-98.18 1622.29,-99.26"/>
</g>
<!-- PAC&#45;MAN Left&#45;&gt;488 -->
<g id="edge13" class="edge">
<title>PAC&#45;MAN Left&#45;&gt;488</title>
<path fill="none" stroke="red" stroke-width="0.5" d="M694.91,-200.7C711.06,-191.82 736.96,-177.54 759.25,-165.05 761.88,-163.57 764.61,-162.03 767.35,-160.49"/>
<polygon fill="red" stroke="red" stroke-width="0.5" points="768.82,-163.68 775.8,-155.7 765.38,-157.59 768.82,-163.68"/>
</g>
<!-- PAC&#45;MAN Up -->
<g id="node15" class="node">
<title>PAC&#45;MAN Up</title>
<polygon fill="lightblue" stroke="black" points="899.62,-219.55 828.88,-219.55 828.88,-201.05 899.62,-201.05 899.62,-219.55"/>
<text text-anchor="middle" x="864.25" y="-207" font-family="Times,serif" font-size="9.00">PAC&#45;MAN Up</text>
</g>
<!-- PAC&#45;MAN Up&#45;&gt;Move Right -->
<g id="edge64" class="edge">
<title>PAC&#45;MAN Up&#45;&gt;Move Right</title>
<path fill="none" stroke="green" stroke-width="0.32" stroke-dasharray="1,5" d="M865.12,-200.91C867.1,-181.74 872.08,-133.48 875.99,-95.62"/>
<polygon fill="green" stroke="green" stroke-width="0.32" points="879.46,-96.04 877.01,-85.73 872.5,-95.32 879.46,-96.04"/>
</g>
<!-- PAC&#45;MAN Up&#45;&gt;Move Left -->
<g id="edge65" class="edge">
<title>PAC&#45;MAN Up&#45;&gt;Move Left</title>
<path fill="none" stroke="green" stroke-width="0.14" d="M842.88,-200.61C822.42,-192.12 790.83,-178.53 764.25,-165.05 704.29,-134.62 637.32,-95 595.72,-69.69"/>
<polygon fill="green" stroke="green" stroke-width="0.14" points="597.79,-66.85 587.43,-64.63 594.14,-72.82 597.79,-66.85"/>
</g>
<!-- PAC&#45;MAN Up&#45;&gt;Move Up -->
<g id="edge66" class="edge">
<title>PAC&#45;MAN Up&#45;&gt;Move Up</title>
<path fill="none" stroke="red" stroke-width="0.11" d="M900.06,-202.39C903.16,-201.89 906.26,-201.44 909.25,-201.05 959.87,-194.44 1332.6,-202.53 1367.25,-165.05 1386.65,-144.06 1381.52,-111.46 1372.44,-85.47"/>
<polygon fill="red" stroke="red" stroke-width="0.11" points="1375.81,-84.5 1369,-76.39 1369.26,-86.98 1375.81,-84.5"/>
</g>
<!-- PAC&#45;MAN Up&#45;&gt;Move Down -->
<g id="edge67" class="edge">
<title>PAC&#45;MAN Up&#45;&gt;Move Down</title>
<path fill="none" stroke="green" stroke-width="0.32" d="M900.05,-202.3C903.15,-201.82 906.25,-201.4 909.25,-201.05 987.49,-191.93 1561.81,-221 1617.25,-165.05 1634.71,-147.43 1637.06,-120.31 1634.57,-96.27"/>
<polygon fill="green" stroke="green" stroke-width="0.32" points="1638.08,-96.12 1633.29,-86.67 1631.14,-97.04 1638.08,-96.12"/>
</g>
<!-- PAC&#45;MAN Up&#45;&gt;488 -->
<g id="edge14" class="edge">
<title>PAC&#45;MAN Up&#45;&gt;488</title>
<path fill="none" stroke="green" stroke-width="0.9" d="M854.81,-200.65C845.35,-191.99 830.41,-178.31 817.74,-166.7"/>
<polygon fill="green" stroke="green" stroke-width="0.9" points="820.17,-164.18 810.43,-160.01 815.44,-169.34 820.17,-164.18"/>
</g>
<!-- PACM&#45;MAN Down -->
<g id="node16" class="node">
<title>PACM&#45;MAN Down</title>
<polygon fill="lightblue" stroke="black" points="1008.38,-219.55 918.12,-219.55 918.12,-201.05 1008.38,-201.05 1008.38,-219.55"/>
<text text-anchor="middle" x="963.25" y="-207" font-family="Times,serif" font-size="9.00">PACM&#45;MAN Down</text>
</g>
<!-- PACM&#45;MAN Down&#45;&gt;Move Right -->
<g id="edge68" class="edge">
<title>PACM&#45;MAN Down&#45;&gt;Move Right</title>
<path fill="none" stroke="red" stroke-width="0.12" d="M959.07,-200.91C949.07,-180.83 923.16,-128.82 903.97,-90.29"/>
<polygon fill="red" stroke="red" stroke-width="0.12" points="907.17,-88.86 899.58,-81.47 900.91,-91.98 907.17,-88.86"/>
</g>
<!-- PACM&#45;MAN Down&#45;&gt;Move Left -->
<g id="edge69" class="edge">
<title>PACM&#45;MAN Down&#45;&gt;Move Left</title>
<path fill="none" stroke="red" stroke-width="0.3" d="M951.59,-200.55C928.43,-183.55 874.53,-145.73 824.25,-123.33 749.72,-90.12 657.41,-66.66 602.59,-54.43"/>
<polygon fill="red" stroke="red" stroke-width="0.3" points="603.43,-51.03 592.91,-52.3 601.93,-57.87 603.43,-51.03"/>
</g>
<!-- PACM&#45;MAN Down&#45;&gt;Move Up -->
<g id="edge70" class="edge">
<title>PACM&#45;MAN Down&#45;&gt;Move Up</title>
<path fill="none" stroke="green" stroke-width="0.29" stroke-dasharray="1,5" d="M1008.6,-202.17C1011.52,-201.77 1014.43,-201.39 1017.25,-201.05 1060.22,-195.78 1376.08,-197.05 1405.25,-165.05 1428.04,-140.04 1406.84,-103.49 1385.05,-77.24"/>
<polygon fill="green" stroke="green" stroke-width="0.29" points="1387.79,-75.05 1378.61,-69.78 1382.5,-79.63 1387.79,-75.05"/>
</g>
<!-- PACM&#45;MAN Down&#45;&gt;Move Down -->
<g id="edge71" class="edge">
<title>PACM&#45;MAN Down&#45;&gt;Move Down</title>
<path fill="none" stroke="green" stroke-width="0.27" d="M1008.58,-202.05C1011.51,-201.68 1014.42,-201.34 1017.25,-201.05 1087.87,-193.68 1606.48,-216.65 1655.25,-165.05 1674.54,-144.64 1665.85,-114.04 1652.55,-88.81"/>
<polygon fill="green" stroke="green" stroke-width="0.27" points="1655.64,-87.15 1647.69,-80.14 1649.53,-90.57 1655.64,-87.15"/>
</g>
<!-- PACM&#45;MAN Down&#45;&gt;488 -->
<g id="edge15" class="edge">
<title>PACM&#45;MAN Down&#45;&gt;488</title>
<path fill="none" stroke="green" stroke-width="0.48" stroke-dasharray="1,5" d="M930.91,-200.56C903.34,-192.66 862.95,-180 829.25,-165.05 826.5,-163.83 823.68,-162.45 820.89,-161.01"/>
<polygon fill="green" stroke="green" stroke-width="0.48" points="822.79,-158.06 812.34,-156.33 819.43,-164.2 822.79,-158.06"/>
</g>
<!-- Power&#45;Up Time -->
<g id="node17" class="node">
<title>Power&#45;Up Time</title>
<polygon fill="lightblue" stroke="black" points="1325.12,-153.44 1251.38,-153.44 1251.38,-134.94 1325.12,-134.94 1325.12,-153.44"/>
<text text-anchor="middle" x="1288.25" y="-140.89" font-family="Times,serif" font-size="9.00">Power&#45;Up Time</text>
</g>
<!-- Power&#45;Up Time&#45;&gt;Move Right -->
<g id="edge72" class="edge">
<title>Power&#45;Up Time&#45;&gt;Move Right</title>
<path fill="none" stroke="green" stroke-width="0.55" d="M1268.15,-134.54C1258.86,-130.75 1247.62,-126.47 1237.25,-123.33 1130.66,-91.01 1002.4,-65.95 932.62,-53.45"/>
<polygon fill="green" stroke="green" stroke-width="0.55" points="933.62,-50.07 923.17,-51.76 932.4,-56.96 933.62,-50.07"/>
</g>
<!-- Power&#45;Up Time&#45;&gt;Move Left -->
<g id="edge73" class="edge">
<title>Power&#45;Up Time&#45;&gt;Move Left</title>
<path fill="none" stroke="red" stroke-width="0.26" d="M1253.78,-134.46C1237.36,-130.57 1217.38,-126.22 1199.25,-123.33 1036.53,-97.34 993.73,-107.97 830.25,-87.33 750.09,-77.21 657.32,-62.1 602.61,-52.85"/>
<polygon fill="red" stroke="red" stroke-width="0.26" points="603.35,-49.42 592.9,-51.2 602.18,-56.32 603.35,-49.42"/>
</g>
<!-- Power&#45;Up Time&#45;&gt;Move Up -->
<g id="edge74" class="edge">
<title>Power&#45;Up Time&#45;&gt;Move Up</title>
<path fill="none" stroke="red" stroke-width="0.13" d="M1294.02,-134.44C1301.72,-122.76 1315.86,-101.33 1328.39,-82.34"/>
<polygon fill="red" stroke="red" stroke-width="0.13" points="1331.32,-84.27 1333.9,-73.99 1325.47,-80.41 1331.32,-84.27"/>
</g>
<!-- Power&#45;Up Time&#45;&gt;Move Down -->
<g id="edge75" class="edge">
<title>Power&#45;Up Time&#45;&gt;Move Down</title>
<path fill="none" stroke="green" stroke-width="0.23" d="M1317.89,-134.44C1374.77,-117.67 1499.84,-80.77 1570.68,-59.88"/>
<polygon fill="green" stroke="green" stroke-width="0.23" points="1571.36,-63.32 1579.96,-57.14 1569.38,-56.61 1571.36,-63.32"/>
</g>
<!-- 488&#45;&gt;Move Right -->
<g id="edge16" class="edge">
<title>488&#45;&gt;Move Right</title>
<path fill="none" stroke="green" stroke-width="0.71" d="M807.84,-127.79C818.34,-115.9 833.35,-98.91 847.06,-83.38"/>
<polygon fill="green" stroke="green" stroke-width="0.71" points="849.38,-86.05 853.37,-76.23 844.13,-81.41 849.38,-86.05"/>
</g>
<!-- 488&#45;&gt;Move Left -->
<g id="edge17" class="edge">
<title>488&#45;&gt;Move Left</title>
<path fill="none" stroke="green" stroke-width="0.91" d="M775.1,-135.29C737.48,-119.78 653.04,-84.98 600.45,-63.29"/>
<polygon fill="green" stroke="green" stroke-width="0.91" points="601.91,-60.11 591.33,-59.54 599.24,-66.58 601.91,-60.11"/>
</g>
<!-- 488&#45;&gt;Move Up -->
<g id="edge18" class="edge">
<title>488&#45;&gt;Move Up</title>
<path fill="none" stroke="red" stroke-width="0.64" stroke-dasharray="1,5" d="M814.81,-139.56C895.62,-125.32 1192.65,-72.97 1307.49,-52.73"/>
<polygon fill="red" stroke="red" stroke-width="0.64" points="1307.83,-56.22 1317.08,-51.04 1306.62,-49.33 1307.83,-56.22"/>
</g>
<!-- 488&#45;&gt;Move Down -->
<g id="edge19" class="edge">
<title>488&#45;&gt;Move Down</title>
<path fill="none" stroke="green" stroke-width="0.64" d="M815.47,-141.97C893.41,-137.32 1171.19,-119.38 1398.25,-87.33 1457.04,-79.03 1523.83,-65.81 1569.06,-56.29"/>
<polygon fill="green" stroke="green" stroke-width="0.64" points="1569.51,-59.77 1578.57,-54.27 1568.06,-52.92 1569.51,-59.77"/>
</g>
</g>
</svg>
