<?xml version="1.0" encoding="UTF-8" standalone="no"?>
<!DOCTYPE svg PUBLIC "-//W3C//DTD SVG 1.1//EN"
 "http://www.w3.org/Graphics/SVG/1.1/DTD/svg11.dtd">
<!-- Generated by graphviz version 12.0.0 (20240704.0754)
 -->
<!-- Pages: 1 -->
<svg width="2675pt" height="234pt"
 viewBox="0.00 0.00 2674.61 233.91" xmlns="http://www.w3.org/2000/svg" xmlns:xlink="http://www.w3.org/1999/xlink">
<g id="graph0" class="graph" transform="scale(1 1) rotate(0) translate(4 229.91)">
<polygon fill="white" stroke="none" points="-4,4 -4,-229.91 2670.61,-229.91 2670.61,4 -4,4"/>
<!-- Pellet Right -->
<g id="node1" class="node">
<title>Pellet Right</title>
<polygon fill="lightblue" stroke="black" points="501.38,-225.91 444.12,-225.91 444.12,-207.41 501.38,-207.41 501.38,-225.91"/>
<text text-anchor="middle" x="472.75" y="-213.36" font-family="Times,serif" font-size="9.00">Pellet Right</text>
</g>
<!-- Move Right -->
<g id="node18" class="node">
<title>Move Right</title>
<ellipse fill="lightblue" stroke="black" cx="1012.75" cy="-43.66" rx="41.54" ry="41.54"/>
<text text-anchor="middle" x="1012.75" y="-40.36" font-family="Times,serif" font-size="9.00">Move Right</text>
</g>
<!-- Pellet Right&#45;&gt;Move Right -->
<g id="edge22" class="edge">
<title>Pellet Right&#45;&gt;Move Right</title>
<path fill="none" stroke="green" stroke-width="0.25" d="M443.78,-213.73C392.8,-209.66 290.42,-198.28 268.75,-171.41 255.34,-154.78 254.46,-139.21 268.75,-123.33 315,-71.93 799.12,-51.61 960.63,-46.23"/>
<polygon fill="green" stroke="green" stroke-width="0.25" points="960.54,-49.73 970.42,-45.91 960.31,-42.74 960.54,-49.73"/>
</g>
<!-- Move Left -->
<g id="node19" class="node">
<title>Move Left</title>
<ellipse fill="lightblue" stroke="black" cx="1482.75" cy="-43.66" rx="37.83" ry="37.83"/>
<text text-anchor="middle" x="1482.75" y="-40.36" font-family="Times,serif" font-size="9.00">Move Left</text>
</g>
<!-- Pellet Right&#45;&gt;Move Left -->
<g id="edge23" class="edge">
<title>Pellet Right&#45;&gt;Move Left</title>
<path fill="none" stroke="red" stroke-width="0.49" d="M490.4,-207.03C530.52,-187.88 632.13,-142.06 722.75,-123.33 1013.92,-63.15 1102.24,-159.16 1390.75,-87.33 1407.87,-83.07 1425.68,-75.6 1441.02,-68.1"/>
<polygon fill="red" stroke="red" stroke-width="0.49" points="1442.22,-71.42 1449.57,-63.78 1439.06,-65.17 1442.22,-71.42"/>
</g>
<!-- Move Up -->
<g id="node20" class="node">
<title>Move Up</title>
<ellipse fill="lightblue" stroke="black" cx="1114.75" cy="-43.66" rx="35.71" ry="35.71"/>
<text text-anchor="middle" x="1114.75" y="-40.36" font-family="Times,serif" font-size="9.00">Move Up</text>
</g>
<!-- Pellet Right&#45;&gt;Move Up -->
<g id="edge24" class="edge">
<title>Pellet Right&#45;&gt;Move Up</title>
<path fill="none" stroke="red" stroke-width="0.17" d="M492.02,-206.98C534.29,-188.33 638.71,-144.46 730.75,-123.33 875.84,-90.02 926.76,-145.59 1063.75,-87.33 1070.32,-84.53 1076.7,-80.6 1082.59,-76.23"/>
<polygon fill="red" stroke="red" stroke-width="0.17" points="1084.46,-79.22 1090.09,-70.25 1080.09,-73.75 1084.46,-79.22"/>
</g>
<!-- Move Down -->
<g id="node21" class="node">
<title>Move Down</title>
<ellipse fill="lightblue" stroke="black" cx="1337.75" cy="-43.66" rx="43.66" ry="43.66"/>
<text text-anchor="middle" x="1337.75" y="-40.36" font-family="Times,serif" font-size="9.00">Move Down</text>
</g>
<!-- Pellet Right&#45;&gt;Move Down -->
<g id="edge25" class="edge">
<title>Pellet Right&#45;&gt;Move Down</title>
<path fill="none" stroke="red" stroke-width="0.36" d="M471.99,-207.07C470.88,-188.41 471.23,-144.19 496.75,-123.33 553.87,-76.63 1086.75,-97.97 1159.75,-87.33 1202.68,-81.07 1250.45,-69.35 1285.68,-59.78"/>
<polygon fill="red" stroke="red" stroke-width="0.36" points="1286.49,-63.19 1295.2,-57.16 1284.63,-56.44 1286.49,-63.19"/>
</g>
<!-- 334 -->
<g id="node23" class="node">
<title>334</title>
<ellipse fill="white" stroke="black" cx="1129.75" cy="-147.37" rx="20.86" ry="20.86"/>
<text text-anchor="middle" x="1129.75" y="-144.07" font-family="Times,serif" font-size="9.00">334</text>
</g>
<!-- Pellet Right&#45;&gt;334 -->
<g id="edge1" class="edge">
<title>Pellet Right&#45;&gt;334</title>
<path fill="none" stroke="red" stroke-width="0.43" d="M501.83,-212.68C609.63,-201.64 986,-163.09 1098.05,-151.62"/>
<polygon fill="red" stroke="red" stroke-width="0.43" points="1098.4,-155.1 1107.99,-150.6 1097.69,-148.14 1098.4,-155.1"/>
</g>
<!-- Pellet Left -->
<g id="node2" class="node">
<title>Pellet Left</title>
<polygon fill="lightblue" stroke="black" points="1280.75,-225.91 1228.75,-225.91 1228.75,-207.41 1280.75,-207.41 1280.75,-225.91"/>
<text text-anchor="middle" x="1254.75" y="-213.36" font-family="Times,serif" font-size="9.00">Pellet Left</text>
</g>
<!-- Pellet Left&#45;&gt;Move Right -->
<g id="edge26" class="edge">
<title>Pellet Left&#45;&gt;Move Right</title>
<path fill="none" stroke="red" stroke-width="0.45" d="M1247.99,-207.14C1233.52,-189.38 1197.75,-148 1159.75,-123.33 1123.62,-99.87 1107.32,-108.42 1069.75,-87.33 1064.16,-84.19 1058.5,-80.57 1053.02,-76.8"/>
<polygon fill="red" stroke="red" stroke-width="0.45" points="1055.33,-74.15 1045.16,-71.19 1051.26,-79.85 1055.33,-74.15"/>
</g>
<!-- Pellet Left&#45;&gt;Move Left -->
<g id="edge27" class="edge">
<title>Pellet Left&#45;&gt;Move Left</title>
<path fill="none" stroke="green" stroke-width="0.89" d="M1271.01,-207.05C1286.52,-198.61 1310.33,-185.06 1329.75,-171.41 1371.8,-141.87 1416.73,-103.78 1446.94,-77.1"/>
<polygon fill="green" stroke="green" stroke-width="0.89" points="1448.9,-80.04 1454.06,-70.79 1444.25,-74.81 1448.9,-80.04"/>
</g>
<!-- Pellet Left&#45;&gt;Move Up -->
<g id="edge28" class="edge">
<title>Pellet Left&#45;&gt;Move Up</title>
<path fill="none" stroke="red" stroke-width="0.25" d="M1254.48,-206.93C1253.55,-189.48 1249.37,-149.71 1230.75,-123.33 1212.07,-96.86 1181.44,-76.64 1156.35,-63.34"/>
<polygon fill="red" stroke="red" stroke-width="0.25" points="1158.22,-60.36 1147.72,-58.92 1155.03,-66.59 1158.22,-60.36"/>
</g>
<!-- Pellet Left&#45;&gt;Move Down -->
<g id="edge29" class="edge">
<title>Pellet Left&#45;&gt;Move Down</title>
<path fill="none" stroke="green" stroke-width="0.21" d="M1269.31,-206.97C1281.17,-199.13 1297.41,-186.54 1306.75,-171.41 1320.44,-149.23 1328.08,-121.38 1332.35,-97.44"/>
<polygon fill="green" stroke="green" stroke-width="0.21" points="1335.78,-98.19 1333.93,-87.76 1328.87,-97.06 1335.78,-98.19"/>
</g>
<!-- Pellet Left&#45;&gt;334 -->
<g id="edge2" class="edge">
<title>Pellet Left&#45;&gt;334</title>
<path fill="none" stroke="red" stroke-width="0.17" d="M1238.66,-207C1217.97,-195.86 1181.71,-176.34 1156.75,-162.91"/>
<polygon fill="red" stroke="red" stroke-width="0.17" points="1158.49,-159.86 1148.02,-158.21 1155.17,-166.03 1158.49,-159.86"/>
</g>
<!-- Pellet Up -->
<g id="node3" class="node">
<title>Pellet Up</title>
<polygon fill="lightblue" stroke="black" points="2248.25,-225.91 2199.25,-225.91 2199.25,-207.41 2248.25,-207.41 2248.25,-225.91"/>
<text text-anchor="middle" x="2223.75" y="-213.36" font-family="Times,serif" font-size="9.00">Pellet Up</text>
</g>
<!-- Pellet Up&#45;&gt;Move Right -->
<g id="edge30" class="edge">
<title>Pellet Up&#45;&gt;Move Right</title>
<path fill="none" stroke="red" stroke-width="0.35" d="M2198.91,-209.58C2128.64,-192.64 1922.16,-144.77 1747.75,-123.33 1598,-104.92 1211.6,-138.75 1069.75,-87.33 1063.43,-85.03 1057.21,-81.79 1051.35,-78.1"/>
<polygon fill="red" stroke="red" stroke-width="0.35" points="1053.71,-75.47 1043.48,-72.73 1049.77,-81.25 1053.71,-75.47"/>
</g>
<!-- Pellet Up&#45;&gt;Move Left -->
<g id="edge31" class="edge">
<title>Pellet Up&#45;&gt;Move Left</title>
<path fill="none" stroke="red" stroke-width="0.45" d="M2248.58,-215.72C2280.35,-214.29 2334.29,-206.47 2359.75,-171.41 2372.31,-154.12 2374.17,-139.1 2359.75,-123.33 2303.55,-61.86 1707.44,-48.04 1531.42,-45.29"/>
<polygon fill="red" stroke="red" stroke-width="0.45" points="1531.66,-41.79 1521.61,-45.14 1531.55,-48.79 1531.66,-41.79"/>
</g>
<!-- Pellet Up&#45;&gt;Move Up -->
<g id="edge32" class="edge">
<title>Pellet Up&#45;&gt;Move Up</title>
<path fill="none" stroke="red" stroke-width="0.17" d="M2222.7,-207.15C2219.87,-188.26 2210.19,-142.93 2180.75,-123.33 2097.82,-68.1 1383.37,-101.53 1284.75,-87.33 1241.16,-81.05 1192.53,-68.24 1158.49,-58.28"/>
<polygon fill="red" stroke="red" stroke-width="0.17" points="1159.67,-54.98 1149.09,-55.5 1157.69,-61.7 1159.67,-54.98"/>
</g>
<!-- Pellet Up&#45;&gt;Move Down -->
<g id="edge33" class="edge">
<title>Pellet Up&#45;&gt;Move Down</title>
<path fill="none" stroke="green" stroke-width="0.25" d="M2226.57,-207.04C2231.97,-188.7 2241.32,-145.71 2218.75,-123.33 2156.92,-62 1520.58,-107.04 1435.75,-87.33 1418.84,-83.4 1401.19,-76.64 1385.61,-69.65"/>
<polygon fill="green" stroke="green" stroke-width="0.25" points="1387.1,-66.48 1376.55,-65.45 1384.15,-72.83 1387.1,-66.48"/>
</g>
<!-- Pellet Up&#45;&gt;334 -->
<g id="edge3" class="edge">
<title>Pellet Up&#45;&gt;334</title>
<path fill="none" stroke="green" stroke-width="0.36" d="M2199.08,-213.68C2177,-211.94 2143.72,-209.38 2114.75,-207.41 1739.75,-181.98 1284.04,-156.77 1161.4,-150.09"/>
<polygon fill="green" stroke="green" stroke-width="0.36" points="1161.62,-146.59 1151.44,-149.54 1161.24,-153.58 1161.62,-146.59"/>
</g>
<!-- 911 -->
<g id="node24" class="node">
<title>911</title>
<ellipse fill="white" stroke="black" cx="2329.75" cy="-147.37" rx="20.86" ry="20.86"/>
<text text-anchor="middle" x="2329.75" y="-144.07" font-family="Times,serif" font-size="9.00">911</text>
</g>
<!-- Pellet Up&#45;&gt;911 -->
<g id="edge92" class="edge">
<title>Pellet Up&#45;&gt;911</title>
<path fill="none" stroke="red" stroke-width="0.39" d="M2237.96,-206.95C2252.34,-198.1 2275.18,-183.95 2294.75,-171.41 2297.78,-169.47 2300.95,-167.42 2304.09,-165.37"/>
<polygon fill="red" stroke="red" stroke-width="0.39" points="2305.79,-168.44 2312.23,-160.03 2301.95,-162.59 2305.79,-168.44"/>
</g>
<!-- Pellet Down -->
<g id="node4" class="node">
<title>Pellet Down</title>
<polygon fill="lightblue" stroke="black" points="1176.88,-225.91 1116.62,-225.91 1116.62,-207.41 1176.88,-207.41 1176.88,-225.91"/>
<text text-anchor="middle" x="1146.75" y="-213.36" font-family="Times,serif" font-size="9.00">Pellet Down</text>
</g>
<!-- Pellet Down&#45;&gt;Move Right -->
<g id="edge34" class="edge">
<title>Pellet Down&#45;&gt;Move Right</title>
<path fill="none" stroke="green" stroke-width="0.14" d="M1132.66,-207.11C1120.1,-199.01 1101.75,-185.95 1088.75,-171.41 1067.1,-147.2 1048.28,-115.95 1034.78,-90.53"/>
<polygon fill="green" stroke="green" stroke-width="0.14" points="1038.06,-89.25 1030.34,-82 1031.85,-92.48 1038.06,-89.25"/>
</g>
<!-- Pellet Down&#45;&gt;Move Left -->
<g id="edge35" class="edge">
<title>Pellet Down&#45;&gt;Move Left</title>
<path fill="none" stroke="green" stroke-width="0.23" d="M1164.73,-206.94C1182.93,-198.09 1211.87,-183.94 1236.75,-171.41 1308.51,-135.29 1391.49,-92.27 1440.41,-66.79"/>
<polygon fill="green" stroke="green" stroke-width="0.23" points="1441.87,-69.97 1449.12,-62.24 1438.64,-63.76 1441.87,-69.97"/>
</g>
<!-- Pellet Down&#45;&gt;Move Up -->
<g id="edge36" class="edge">
<title>Pellet Down&#45;&gt;Move Up</title>
<path fill="none" stroke="red" stroke-width="0.5" d="M1132.68,-207.12C1121.41,-199.38 1106.42,-186.84 1099.75,-171.41 1088.36,-145.04 1092.35,-112.87 1099.07,-87.55"/>
<polygon fill="red" stroke="red" stroke-width="0.5" points="1102.35,-88.8 1101.76,-78.22 1095.62,-86.86 1102.35,-88.8"/>
</g>
<!-- Pellet Down&#45;&gt;Move Down -->
<g id="edge37" class="edge">
<title>Pellet Down&#45;&gt;Move Down</title>
<path fill="none" stroke="green" stroke-width="0.77" d="M1156.48,-206.95C1182.03,-184.07 1252.14,-121.3 1297.31,-80.87"/>
<polygon fill="green" stroke="green" stroke-width="0.77" points="1299.45,-83.65 1304.57,-74.37 1294.78,-78.43 1299.45,-83.65"/>
</g>
<!-- Pellet Down&#45;&gt;334 -->
<g id="edge4" class="edge">
<title>Pellet Down&#45;&gt;334</title>
<path fill="none" stroke="green" stroke-width="0.22" d="M1144.6,-207.14C1142.73,-199.74 1139.91,-188.58 1137.23,-177.97"/>
<polygon fill="green" stroke="green" stroke-width="0.22" points="1140.66,-177.25 1134.81,-168.41 1133.87,-178.96 1140.66,-177.25"/>
</g>
<!-- Power Pellet Right -->
<g id="node5" class="node">
<title>Power Pellet Right</title>
<polygon fill="lightblue" stroke="black" points="818.12,-225.91 735.38,-225.91 735.38,-207.41 818.12,-207.41 818.12,-225.91"/>
<text text-anchor="middle" x="776.75" y="-213.36" font-family="Times,serif" font-size="9.00">Power Pellet Right</text>
</g>
<!-- Power Pellet Right&#45;&gt;Move Right -->
<g id="edge38" class="edge">
<title>Power Pellet Right&#45;&gt;Move Right</title>
<path fill="none" stroke="red" stroke-width="0.26" d="M735.3,-212.67C681.68,-207.84 592.77,-196.24 572.75,-171.41 559.34,-154.78 559.03,-139.71 572.75,-123.33 621.74,-64.81 855.21,-49.77 960.75,-45.95"/>
<polygon fill="red" stroke="red" stroke-width="0.26" points="960.59,-49.46 970.46,-45.62 960.35,-42.46 960.59,-49.46"/>
</g>
<!-- Power Pellet Right&#45;&gt;Move Left -->
<g id="edge39" class="edge">
<title>Power Pellet Right&#45;&gt;Move Left</title>
<path fill="none" stroke="green" stroke-width="0.12" d="M792.64,-206.93C827.94,-187.99 916.09,-143.24 995.75,-123.33 1166.77,-80.58 1220.51,-133.08 1390.75,-87.33 1407.95,-82.71 1425.92,-75.08 1441.37,-67.54"/>
<polygon fill="green" stroke="green" stroke-width="0.12" points="1442.61,-70.83 1449.98,-63.21 1439.47,-64.57 1442.61,-70.83"/>
</g>
<!-- Power Pellet Right&#45;&gt;Move Up -->
<g id="edge40" class="edge">
<title>Power Pellet Right&#45;&gt;Move Up</title>
<path fill="none" stroke="green" stroke-width="0.46" d="M794.63,-206.94C829.17,-190.18 907.62,-152.53 974.75,-123.33 1013.88,-106.31 1027.16,-109.28 1063.75,-87.33 1069.47,-83.9 1075.2,-79.84 1080.65,-75.62"/>
<polygon fill="green" stroke="green" stroke-width="0.46" points="1082.83,-78.36 1088.4,-69.35 1078.42,-72.92 1082.83,-78.36"/>
</g>
<!-- Power Pellet Right&#45;&gt;Move Down -->
<g id="edge41" class="edge">
<title>Power Pellet Right&#45;&gt;Move Down</title>
<path fill="none" stroke="red" stroke-width="0.15" d="M776.07,-207.16C775.1,-188.67 775.72,-144.77 800.75,-123.33 861.65,-71.17 1080.7,-100.7 1159.75,-87.33 1202.71,-80.06 1250.71,-68.34 1286.03,-59.02"/>
<polygon fill="red" stroke="red" stroke-width="0.15" points="1286.67,-62.47 1295.43,-56.52 1284.87,-55.71 1286.67,-62.47"/>
</g>
<!-- Power Pellet Right&#45;&gt;334 -->
<g id="edge5" class="edge">
<title>Power Pellet Right&#45;&gt;334</title>
<path fill="none" stroke="green" stroke-width="0.48" d="M818.28,-207.74C889.95,-194.08 1035.27,-166.38 1098.82,-154.26"/>
<polygon fill="green" stroke="green" stroke-width="0.48" points="1099.12,-157.77 1108.29,-152.46 1097.81,-150.89 1099.12,-157.77"/>
</g>
<!-- Power Pellet Left -->
<g id="node6" class="node">
<title>Power Pellet Left</title>
<polygon fill="lightblue" stroke="black" points="77.5,-225.91 0,-225.91 0,-207.41 77.5,-207.41 77.5,-225.91"/>
<text text-anchor="middle" x="38.75" y="-213.36" font-family="Times,serif" font-size="9.00">Power Pellet Left</text>
</g>
<!-- Power Pellet Left&#45;&gt;Move Right -->
<g id="edge42" class="edge">
<title>Power Pellet Left&#45;&gt;Move Right</title>
<path fill="none" stroke="red" stroke-width="0.44" d="M43.81,-207.1C55.58,-188.09 86.85,-142.55 126.75,-123.33 275.39,-51.71 793.19,-44.84 960.31,-44.53"/>
<polygon fill="red" stroke="red" stroke-width="0.44" points="960.14,-48.03 970.14,-44.52 960.13,-41.03 960.14,-48.03"/>
</g>
<!-- Power Pellet Left&#45;&gt;Move Up -->
<g id="edge43" class="edge">
<title>Power Pellet Left&#45;&gt;Move Up</title>
<path fill="none" stroke="green" stroke-width="0.67" d="M35.58,-207.07C29.45,-188.8 18.45,-145.93 40.75,-123.33 80.69,-82.84 1010.65,-107.67 1063.75,-87.33 1070.19,-84.86 1076.4,-81.22 1082.13,-77.1"/>
<polygon fill="green" stroke="green" stroke-width="0.67" points="1084.26,-79.88 1089.93,-70.93 1079.92,-74.39 1084.26,-79.88"/>
</g>
<!-- Power Pellet Left&#45;&gt;Move Down -->
<g id="edge44" class="edge">
<title>Power Pellet Left&#45;&gt;Move Down</title>
<path fill="none" stroke="red" stroke-width="0.3" d="M48.7,-207.18C72,-187.91 132.68,-141.16 192.75,-123.33 398.89,-62.11 946.7,-116.53 1159.75,-87.33 1202.73,-81.44 1250.49,-69.69 1285.71,-60.02"/>
<polygon fill="red" stroke="red" stroke-width="0.3" points="1286.62,-63.4 1295.32,-57.34 1284.74,-56.66 1286.62,-63.4"/>
</g>
<!-- Power Pellet Left&#45;&gt;334 -->
<g id="edge6" class="edge">
<title>Power Pellet Left&#45;&gt;334</title>
<path fill="none" stroke="red" stroke-width="0.19" d="M77.92,-209.23C82.9,-208.54 87.94,-207.91 92.75,-207.41 488.34,-166.02 972.08,-152.13 1098.39,-149.07"/>
<polygon fill="red" stroke="red" stroke-width="0.19" points="1098.31,-152.57 1108.22,-148.84 1098.14,-145.58 1098.31,-152.57"/>
</g>
<!-- Power Pellet Up -->
<g id="node7" class="node">
<title>Power Pellet Up</title>
<polygon fill="lightblue" stroke="black" points="2492,-225.91 2417.5,-225.91 2417.5,-207.41 2492,-207.41 2492,-225.91"/>
<text text-anchor="middle" x="2454.75" y="-213.36" font-family="Times,serif" font-size="9.00">Power Pellet Up</text>
</g>
<!-- Power Pellet Up&#45;&gt;Move Right -->
<g id="edge45" class="edge">
<title>Power Pellet Up&#45;&gt;Move Right</title>
<path fill="none" stroke="red" stroke-width="0.53" d="M2439.6,-206.95C2426.3,-198.83 2406.92,-185.85 2392.75,-171.41 2374.59,-152.92 2382.51,-135.72 2359.75,-123.33 2233.82,-54.76 1205.16,-134.5 1069.75,-87.33 1063.55,-85.17 1057.46,-82.06 1051.71,-78.5"/>
<polygon fill="red" stroke="red" stroke-width="0.53" points="1053.9,-75.76 1043.66,-73.05 1049.98,-81.56 1053.9,-75.76"/>
</g>
<!-- Power Pellet Up&#45;&gt;Move Left -->
<g id="edge46" class="edge">
<title>Power Pellet Up&#45;&gt;Move Left</title>
<path fill="none" stroke="green" stroke-width="0.13" stroke-dasharray="1,5" d="M2492.22,-213.27C2520.86,-209.24 2558.56,-198.7 2577.75,-171.41 2590.04,-153.93 2592.31,-138.97 2577.75,-123.33 2505.6,-45.81 1733.34,-43.6 1531.04,-44.36"/>
<polygon fill="green" stroke="green" stroke-width="0.13" points="1531.19,-40.86 1521.2,-44.4 1531.22,-47.86 1531.19,-40.86"/>
</g>
<!-- Power Pellet Up&#45;&gt;Move Up -->
<g id="edge47" class="edge">
<title>Power Pellet Up&#45;&gt;Move Up</title>
<path fill="none" stroke="red" stroke-width="0.47" d="M2450.25,-206.96C2439.12,-185.84 2409.98,-132.87 2392.75,-123.33 2285.01,-63.63 1406.73,-104.42 1284.75,-87.33 1241.33,-81.24 1192.93,-68.49 1158.91,-58.51"/>
<polygon fill="red" stroke="red" stroke-width="0.47" points="1160.1,-55.21 1149.52,-55.71 1158.1,-61.92 1160.1,-55.21"/>
</g>
<!-- Power Pellet Up&#45;&gt;Move Down -->
<g id="edge48" class="edge">
<title>Power Pellet Up&#45;&gt;Move Down</title>
<path fill="none" stroke="green" stroke-width="0.28" stroke-dasharray="1,5" d="M2455.53,-207.04C2456.7,-188.31 2456.45,-143.96 2430.75,-123.33 2344.47,-54.08 1543.63,-111.84 1435.75,-87.33 1418.82,-83.48 1401.17,-76.75 1385.59,-69.75"/>
<polygon fill="green" stroke="green" stroke-width="0.28" points="1387.12,-66.6 1376.57,-65.56 1384.17,-72.95 1387.12,-66.6"/>
</g>
<!-- 994 -->
<g id="node22" class="node">
<title>994</title>
<ellipse fill="white" stroke="black" cx="2645.75" cy="-147.37" rx="20.86" ry="20.86"/>
<text text-anchor="middle" x="2645.75" y="-144.07" font-family="Times,serif" font-size="9.00">994</text>
</g>
<!-- Power Pellet Up&#45;&gt;994 -->
<g id="edge90" class="edge">
<title>Power Pellet Up&#45;&gt;994</title>
<path fill="none" stroke="red" stroke-width="0.12" d="M2492.45,-208.36C2524.77,-201.32 2572.1,-189.1 2610.75,-171.41 2614.12,-169.87 2617.54,-168.02 2620.85,-166.06"/>
<polygon fill="red" stroke="red" stroke-width="0.12" points="2622.55,-169.13 2629.11,-160.81 2618.79,-163.22 2622.55,-169.13"/>
</g>
<!-- Power Pellet Up&#45;&gt;334 -->
<g id="edge7" class="edge">
<title>Power Pellet Up&#45;&gt;334</title>
<path fill="none" stroke="green" stroke-width="0.25" d="M2417.23,-213.76C2223.56,-203.92 1339.13,-159 1161.05,-149.96"/>
<polygon fill="green" stroke="green" stroke-width="0.25" points="1161.34,-146.47 1151.18,-149.46 1160.99,-153.46 1161.34,-146.47"/>
</g>
<!-- 1202 -->
<g id="node25" class="node">
<title>1202</title>
<ellipse fill="white" stroke="black" cx="2544.75" cy="-147.37" rx="24.04" ry="24.04"/>
<text text-anchor="middle" x="2544.75" y="-144.07" font-family="Times,serif" font-size="9.00">1202</text>
</g>
<!-- Power Pellet Up&#45;&gt;1202 -->
<g id="edge93" class="edge">
<title>Power Pellet Up&#45;&gt;1202</title>
<path fill="none" stroke="green" stroke-width="0.3" d="M2466.15,-207.14C2479.07,-197.47 2500.6,-181.38 2517.85,-168.48"/>
<polygon fill="green" stroke="green" stroke-width="0.3" points="2519.65,-171.51 2525.56,-162.72 2515.46,-165.9 2519.65,-171.51"/>
</g>
<!-- Power Pellet Down -->
<g id="node8" class="node">
<title>Power Pellet Down</title>
<polygon fill="lightblue" stroke="black" points="667.62,-225.91 581.88,-225.91 581.88,-207.41 667.62,-207.41 667.62,-225.91"/>
<text text-anchor="middle" x="624.75" y="-213.36" font-family="Times,serif" font-size="9.00">Power Pellet Down</text>
</g>
<!-- Power Pellet Down&#45;&gt;Move Right -->
<g id="edge49" class="edge">
<title>Power Pellet Down&#45;&gt;Move Right</title>
<path fill="none" stroke="red" stroke-width="0.28" d="M581.46,-212.5C527.67,-207.58 440.54,-195.95 420.75,-171.41 407.34,-154.78 406.67,-139.4 420.75,-123.33 456.16,-82.9 822.58,-56.36 960.57,-47.73"/>
<polygon fill="red" stroke="red" stroke-width="0.28" points="960.69,-51.23 970.45,-47.12 960.26,-44.24 960.69,-51.23"/>
</g>
<!-- Power Pellet Down&#45;&gt;Move Left -->
<g id="edge50" class="edge">
<title>Power Pellet Down&#45;&gt;Move Left</title>
<path fill="none" stroke="red" stroke-width="0.32" d="M642.03,-206.97C680.86,-187.9 778.46,-142.59 865.75,-123.33 1094.14,-72.93 1164.22,-145.49 1390.75,-87.33 1407.84,-82.94 1425.64,-75.45 1440.99,-67.96"/>
<polygon fill="red" stroke="red" stroke-width="0.32" points="1442.4,-71.17 1449.76,-63.54 1439.25,-64.91 1442.4,-71.17"/>
</g>
<!-- Power Pellet Down&#45;&gt;Move Up -->
<g id="edge51" class="edge">
<title>Power Pellet Down&#45;&gt;Move Up</title>
<path fill="none" stroke="red" stroke-width="0.26" d="M643.88,-207.02C684.38,-189.03 782.12,-147.25 867.75,-123.33 953.05,-99.5 983.59,-124.98 1063.75,-87.33 1070,-84.39 1076.11,-80.5 1081.81,-76.26"/>
<polygon fill="red" stroke="red" stroke-width="0.26" points="1083.89,-79.08 1089.52,-70.11 1079.52,-73.61 1083.89,-79.08"/>
</g>
<!-- Power Pellet Down&#45;&gt;Move Down -->
<g id="edge52" class="edge">
<title>Power Pellet Down&#45;&gt;Move Down</title>
<path fill="none" stroke="green" stroke-width="0.13" d="M624.02,-207.1C622.96,-188.5 623.4,-144.39 648.75,-123.33 692.52,-86.95 1103.49,-95.99 1159.75,-87.33 1202.81,-80.7 1250.81,-68.93 1286.1,-59.43"/>
<polygon fill="green" stroke="green" stroke-width="0.13" points="1286.78,-62.87 1295.51,-56.87 1284.94,-56.12 1286.78,-62.87"/>
</g>
<!-- Power Pellet Down&#45;&gt;334 -->
<g id="edge8" class="edge">
<title>Power Pellet Down&#45;&gt;334</title>
<path fill="none" stroke="green" stroke-width="0.25" d="M667.81,-209.92C767.42,-196.65 1011.89,-164.07 1098.61,-152.52"/>
<polygon fill="green" stroke="green" stroke-width="0.25" points="1099.02,-155.99 1108.47,-151.2 1098.1,-149.06 1099.02,-155.99"/>
</g>
<!-- Ghost Info Right -->
<g id="node9" class="node">
<title>Ghost Info Right</title>
<polygon fill="lightblue" stroke="black" points="359.12,-225.91 282.38,-225.91 282.38,-207.41 359.12,-207.41 359.12,-225.91"/>
<text text-anchor="middle" x="320.75" y="-213.36" font-family="Times,serif" font-size="9.00">Ghost Info Right</text>
</g>
<!-- Ghost Info Right&#45;&gt;Move Right -->
<g id="edge53" class="edge">
<title>Ghost Info Right&#45;&gt;Move Right</title>
<path fill="none" stroke="red" stroke-width="0.19" d="M281.98,-210.78C237.93,-204.35 170.15,-191.45 154.75,-171.41 141.73,-154.47 140.35,-139.11 154.75,-123.33 209.21,-63.64 782.96,-48.67 960.62,-45.45"/>
<polygon fill="red" stroke="red" stroke-width="0.19" points="960.53,-48.95 970.47,-45.28 960.41,-41.96 960.53,-48.95"/>
</g>
<!-- Ghost Info Right&#45;&gt;Move Left -->
<g id="edge54" class="edge">
<title>Ghost Info Right&#45;&gt;Move Left</title>
<path fill="none" stroke="red" stroke-width="0.11" d="M338.23,-206.96C377.98,-187.67 478.7,-141.59 568.75,-123.33 927.14,-50.65 1035.46,-173.89 1390.75,-87.33 1408.05,-83.11 1426.04,-75.57 1441.48,-67.98"/>
<polygon fill="red" stroke="red" stroke-width="0.11" points="1442.76,-71.26 1450.1,-63.61 1439.6,-65.01 1442.76,-71.26"/>
</g>
<!-- Ghost Info Right&#45;&gt;Move Up -->
<g id="edge55" class="edge">
<title>Ghost Info Right&#45;&gt;Move Up</title>
<path fill="none" stroke="green" stroke-width="0.27" d="M339.34,-207.03C381.08,-188.09 485.9,-143.01 578.75,-123.33 790.2,-78.51 863.45,-168.58 1063.75,-87.33 1070.22,-84.7 1076.48,-80.94 1082.26,-76.72"/>
<polygon fill="green" stroke="green" stroke-width="0.27" points="1084.39,-79.5 1090.05,-70.54 1080.04,-74.01 1084.39,-79.5"/>
</g>
<!-- Ghost Info Right&#45;&gt;Move Down -->
<g id="edge56" class="edge">
<title>Ghost Info Right&#45;&gt;Move Down</title>
<path fill="none" stroke="green" stroke-width="0.15" d="M319.98,-207.05C318.84,-188.35 319.13,-144.06 344.75,-123.33 415.21,-66.31 1069.99,-99.95 1159.75,-87.33 1202.9,-81.26 1250.88,-69.45 1286.15,-59.8"/>
<polygon fill="green" stroke="green" stroke-width="0.15" points="1286.83,-63.24 1295.54,-57.2 1284.96,-56.49 1286.83,-63.24"/>
</g>
<!-- Ghost Info Right&#45;&gt;334 -->
<g id="edge9" class="edge">
<title>Ghost Info Right&#45;&gt;334</title>
<path fill="none" stroke="red" stroke-width="0.59" d="M359.5,-212.44C498.7,-200.86 971.91,-161.5 1098.43,-150.97"/>
<polygon fill="red" stroke="red" stroke-width="0.59" points="1098.35,-154.49 1108.02,-150.18 1097.77,-147.52 1098.35,-154.49"/>
</g>
<!-- Ghost Info Left -->
<g id="node10" class="node">
<title>Ghost Info Left</title>
<polygon fill="lightblue" stroke="black" points="1098.5,-225.91 1027,-225.91 1027,-207.41 1098.5,-207.41 1098.5,-225.91"/>
<text text-anchor="middle" x="1062.75" y="-213.36" font-family="Times,serif" font-size="9.00">Ghost Info Left</text>
</g>
<!-- Ghost Info Left&#45;&gt;Move Right -->
<g id="edge57" class="edge">
<title>Ghost Info Left&#45;&gt;Move Right</title>
<path fill="none" stroke="green" stroke-width="0.51" d="M1026.57,-212.3C977.83,-206.93 895.06,-194.59 876.75,-171.41 863.5,-154.64 866.07,-141.84 876.75,-123.33 895.2,-91.35 932.15,-71.19 962.89,-59.3"/>
<polygon fill="green" stroke="green" stroke-width="0.51" points="963.72,-62.73 971.9,-55.99 961.3,-56.16 963.72,-62.73"/>
</g>
<!-- Ghost Info Left&#45;&gt;Move Left -->
<g id="edge58" class="edge">
<title>Ghost Info Left&#45;&gt;Move Left</title>
<path fill="none" stroke="green" stroke-width="0.36" d="M1084.41,-206.92C1104.38,-198.59 1134.64,-185.3 1159.75,-171.41 1193.75,-152.61 1197.02,-138.57 1232.75,-123.33 1299,-95.07 1322.59,-110.61 1390.75,-87.33 1407.31,-81.67 1424.87,-73.98 1440.17,-66.68"/>
<polygon fill="green" stroke="green" stroke-width="0.36" points="1441.42,-69.97 1448.88,-62.45 1438.36,-63.67 1441.42,-69.97"/>
</g>
<!-- Ghost Info Left&#45;&gt;Move Up -->
<g id="edge59" class="edge">
<title>Ghost Info Left&#45;&gt;Move Up</title>
<path fill="none" stroke="green" stroke-width="0.35" d="M1065.06,-206.97C1069.45,-190.55 1079.4,-153.9 1088.75,-123.33 1092.3,-111.73 1096.33,-99.24 1100.14,-87.71"/>
<polygon fill="green" stroke="green" stroke-width="0.35" points="1103.41,-88.96 1103.25,-78.36 1096.77,-86.75 1103.41,-88.96"/>
</g>
<!-- Ghost Info Left&#45;&gt;Move Down -->
<g id="edge60" class="edge">
<title>Ghost Info Left&#45;&gt;Move Down</title>
<path fill="none" stroke="green" stroke-width="0.51" d="M1063.79,-206.92C1066.41,-188.75 1074.96,-146.63 1099.75,-123.33 1126.77,-97.94 1223.26,-71.5 1284.77,-56.65"/>
<polygon fill="green" stroke="green" stroke-width="0.51" points="1285.41,-60.1 1294.33,-54.37 1283.79,-53.29 1285.41,-60.1"/>
</g>
<!-- Ghost Info Left&#45;&gt;334 -->
<g id="edge10" class="edge">
<title>Ghost Info Left&#45;&gt;334</title>
<path fill="none" stroke="green" stroke-width="0.18" d="M1071.24,-207.14C1080.48,-197.86 1095.62,-182.64 1108.19,-170.02"/>
<polygon fill="green" stroke="green" stroke-width="0.18" points="1110.46,-172.71 1115.03,-163.15 1105.5,-167.77 1110.46,-172.71"/>
</g>
<!-- Ghost Info Up -->
<g id="node11" class="node">
<title>Ghost Info Up</title>
<polygon fill="lightblue" stroke="black" points="2106,-225.91 2037.5,-225.91 2037.5,-207.41 2106,-207.41 2106,-225.91"/>
<text text-anchor="middle" x="2071.75" y="-213.36" font-family="Times,serif" font-size="9.00">Ghost Info Up</text>
</g>
<!-- Ghost Info Up&#45;&gt;Move Right -->
<g id="edge61" class="edge">
<title>Ghost Info Up&#45;&gt;Move Right</title>
<path fill="none" stroke="green" stroke-width="0.52" d="M2037.06,-207.32C1959.3,-188.97 1764.91,-145 1599.75,-123.33 1482.7,-107.97 1180.43,-128.38 1069.75,-87.33 1063.59,-85.04 1057.53,-81.87 1051.79,-78.27"/>
<polygon fill="green" stroke="green" stroke-width="0.52" points="1053.97,-75.52 1043.73,-72.78 1050.03,-81.3 1053.97,-75.52"/>
</g>
<!-- Ghost Info Up&#45;&gt;Move Left -->
<g id="edge62" class="edge">
<title>Ghost Info Up&#45;&gt;Move Left</title>
<path fill="none" stroke="green" stroke-width="0.28" stroke-dasharray="1,5" d="M2097.61,-206.99C2113.72,-200.09 2133.16,-188.68 2142.75,-171.41 2153.12,-152.73 2156.94,-139.31 2142.75,-123.33 2102.15,-77.61 1676.39,-53.67 1531.05,-46.79"/>
<polygon fill="green" stroke="green" stroke-width="0.28" points="1531.26,-43.29 1521.1,-46.32 1530.93,-50.29 1531.26,-43.29"/>
</g>
<!-- Ghost Info Up&#45;&gt;Move Up -->
<g id="edge63" class="edge">
<title>Ghost Info Up&#45;&gt;Move Up</title>
<path fill="none" stroke="red" stroke-width="0.67" d="M2062.91,-207.1C2054.02,-198.36 2040.05,-184.3 2028.75,-171.41 2010.79,-150.93 2014.95,-135.82 1990.75,-123.33 1920.95,-87.3 1362.43,-98.94 1284.75,-87.33 1241.57,-80.87 1193.4,-68.25 1159.39,-58.4"/>
<polygon fill="red" stroke="red" stroke-width="0.67" points="1160.41,-55.06 1149.83,-55.6 1158.44,-61.78 1160.41,-55.06"/>
</g>
<!-- Ghost Info Up&#45;&gt;Move Down -->
<g id="edge64" class="edge">
<title>Ghost Info Up&#45;&gt;Move Down</title>
<path fill="none" stroke="red" stroke-width="0.37" d="M2037.16,-206.95C1967.29,-189.55 1804.19,-149.87 1665.75,-123.33 1564.13,-103.84 1535.1,-116.21 1435.75,-87.33 1419.08,-82.48 1401.5,-75.48 1385.9,-68.54"/>
<polygon fill="red" stroke="red" stroke-width="0.37" points="1387.54,-65.44 1376.98,-64.48 1384.64,-71.81 1387.54,-65.44"/>
</g>
<!-- Ghost Info Up&#45;&gt;334 -->
<g id="edge11" class="edge">
<title>Ghost Info Up&#45;&gt;334</title>
<path fill="none" stroke="green" stroke-width="0.46" d="M2037.11,-213.19C1888.28,-202.55 1304.3,-160.84 1161.42,-150.63"/>
<polygon fill="green" stroke="green" stroke-width="0.46" points="1161.73,-147.14 1151.5,-149.92 1161.23,-154.13 1161.73,-147.14"/>
</g>
<!-- Ghost Info Up&#45;&gt;911 -->
<g id="edge88" class="edge">
<title>Ghost Info Up&#45;&gt;911</title>
<path fill="none" stroke="green" stroke-width="0.14" d="M2106.17,-212.97C2151.02,-208.54 2231.2,-197.46 2294.75,-171.41 2298.18,-170 2301.64,-168.24 2304.97,-166.32"/>
<polygon fill="green" stroke="green" stroke-width="0.14" points="2306.63,-169.42 2313.22,-161.13 2302.9,-163.49 2306.63,-169.42"/>
</g>
<!-- Ghost Info Down -->
<g id="node12" class="node">
<title>Ghost Info Down</title>
<polygon fill="lightblue" stroke="black" points="1446.62,-225.91 1366.88,-225.91 1366.88,-207.41 1446.62,-207.41 1446.62,-225.91"/>
<text text-anchor="middle" x="1406.75" y="-213.36" font-family="Times,serif" font-size="9.00">Ghost Info Down</text>
</g>
<!-- Ghost Info Down&#45;&gt;Move Right -->
<g id="edge65" class="edge">
<title>Ghost Info Down&#45;&gt;Move Right</title>
<path fill="none" stroke="green" stroke-width="0.33" d="M1389.75,-206.97C1354.97,-189.42 1272.86,-149.22 1200.75,-123.33 1143.92,-102.92 1123.98,-113.88 1069.75,-87.33 1063.99,-84.51 1058.23,-81.08 1052.7,-77.41"/>
<polygon fill="green" stroke="green" stroke-width="0.33" points="1054.85,-74.64 1044.65,-71.78 1050.84,-80.38 1054.85,-74.64"/>
</g>
<!-- Ghost Info Down&#45;&gt;Move Left -->
<g id="edge66" class="edge">
<title>Ghost Info Down&#45;&gt;Move Left</title>
<path fill="none" stroke="red" stroke-width="0.11" d="M1430.91,-206.94C1446.58,-199.91 1465.86,-188.38 1475.75,-171.41 1489.65,-147.57 1491.63,-116.72 1490.02,-91.42"/>
<polygon fill="red" stroke="red" stroke-width="0.11" points="1493.51,-91.16 1489.18,-81.49 1486.53,-91.75 1493.51,-91.16"/>
</g>
<!-- Ghost Info Down&#45;&gt;Move Up -->
<g id="edge67" class="edge">
<title>Ghost Info Down&#45;&gt;Move Up</title>
<path fill="none" stroke="red" stroke-width="0.13" d="M1407.13,-206.94C1407.43,-188.8 1405.46,-146.76 1382.75,-123.33 1366.98,-107.05 1231.31,-72.6 1159.27,-55.19"/>
<polygon fill="red" stroke="red" stroke-width="0.13" points="1160.28,-51.83 1149.74,-52.9 1158.64,-58.64 1160.28,-51.83"/>
</g>
<!-- Ghost Info Down&#45;&gt;Move Down -->
<g id="edge68" class="edge">
<title>Ghost Info Down&#45;&gt;Move Down</title>
<path fill="none" stroke="green" stroke-width="0.68" d="M1423.03,-207.03C1435.38,-199.47 1451.44,-187.23 1458.75,-171.41 1467.71,-152.01 1468.94,-142.11 1458.75,-123.33 1443.81,-95.79 1414.6,-76.39 1388.62,-63.74"/>
<polygon fill="green" stroke="green" stroke-width="0.68" points="1390.35,-60.69 1379.8,-59.66 1387.41,-67.04 1390.35,-60.69"/>
</g>
<!-- Ghost Info Down&#45;&gt;334 -->
<g id="edge12" class="edge">
<title>Ghost Info Down&#45;&gt;334</title>
<path fill="none" stroke="green" stroke-width="0.37" d="M1370.82,-206.93C1315.88,-193.59 1211.95,-168.34 1160.38,-155.81"/>
<polygon fill="green" stroke="green" stroke-width="0.37" points="1161.29,-152.43 1150.75,-153.47 1159.64,-159.23 1161.29,-152.43"/>
</g>
<!-- PAC&#45;MAN Right -->
<g id="node13" class="node">
<title>PAC&#45;MAN Right</title>
<polygon fill="lightblue" stroke="black" points="968.25,-225.91 889.25,-225.91 889.25,-207.41 968.25,-207.41 968.25,-225.91"/>
<text text-anchor="middle" x="928.75" y="-213.36" font-family="Times,serif" font-size="9.00">PAC&#45;MAN Right</text>
</g>
<!-- PAC&#45;MAN Right&#45;&gt;Move Right -->
<g id="edge69" class="edge">
<title>PAC&#45;MAN Right&#45;&gt;Move Right</title>
<path fill="none" stroke="green" stroke-width="0.13" d="M889.11,-212.83C835.71,-208.1 745,-196.52 724.75,-171.41 711.34,-154.78 711.78,-140.31 724.75,-123.33 753.38,-85.82 886.97,-61.88 961.74,-51.17"/>
<polygon fill="green" stroke="green" stroke-width="0.13" points="961.83,-54.69 971.24,-49.84 960.85,-47.76 961.83,-54.69"/>
</g>
<!-- PAC&#45;MAN Right&#45;&gt;Move Left -->
<g id="edge70" class="edge">
<title>PAC&#45;MAN Right&#45;&gt;Move Left</title>
<path fill="none" stroke="red" stroke-width="0.15" d="M940.89,-207C967.94,-188.22 1035.79,-143.75 1099.75,-123.33 1223.89,-83.69 1265.46,-123.17 1390.75,-87.33 1407.87,-82.43 1425.83,-74.74 1441.28,-67.23"/>
<polygon fill="red" stroke="red" stroke-width="0.15" points="1442.48,-70.55 1449.87,-62.95 1439.36,-64.28 1442.48,-70.55"/>
</g>
<!-- PAC&#45;MAN Right&#45;&gt;Move Up -->
<g id="edge71" class="edge">
<title>PAC&#45;MAN Right&#45;&gt;Move Up</title>
<path fill="none" stroke="green" stroke-width="0.24" d="M938.23,-206.95C964.28,-183 1037.9,-115.32 1081.4,-75.33"/>
<polygon fill="green" stroke="green" stroke-width="0.24" points="1083.63,-78.03 1088.62,-68.69 1078.89,-72.88 1083.63,-78.03"/>
</g>
<!-- PAC&#45;MAN Right&#45;&gt;Move Down -->
<g id="edge72" class="edge">
<title>PAC&#45;MAN Right&#45;&gt;Move Down</title>
<path fill="none" stroke="green" stroke-width="0.17" d="M928.17,-207.01C927.46,-188.63 928.63,-145.55 952.75,-123.33 1021.43,-60.06 1068.3,-106.22 1159.75,-87.33 1202.42,-78.51 1250.44,-66.9 1285.84,-58.02"/>
<polygon fill="green" stroke="green" stroke-width="0.17" points="1286.39,-61.49 1295.23,-55.65 1284.68,-54.7 1286.39,-61.49"/>
</g>
<!-- PAC&#45;MAN Right&#45;&gt;334 -->
<g id="edge13" class="edge">
<title>PAC&#45;MAN Right&#45;&gt;334</title>
<path fill="none" stroke="green" stroke-width="0.21" d="M954.62,-207C992.07,-194.46 1061.21,-171.32 1100.48,-158.17"/>
<polygon fill="green" stroke="green" stroke-width="0.21" points="1101.35,-161.57 1109.72,-155.08 1099.13,-154.93 1101.35,-161.57"/>
</g>
<!-- PAC&#45;MAN Left -->
<g id="node14" class="node">
<title>PAC&#45;MAN Left</title>
<polygon fill="lightblue" stroke="black" points="1747.62,-225.91 1673.88,-225.91 1673.88,-207.41 1747.62,-207.41 1747.62,-225.91"/>
<text text-anchor="middle" x="1710.75" y="-213.36" font-family="Times,serif" font-size="9.00">PAC&#45;MAN Left</text>
</g>
<!-- PAC&#45;MAN Left&#45;&gt;Move Right -->
<g id="edge73" class="edge">
<title>PAC&#45;MAN Left&#45;&gt;Move Right</title>
<path fill="none" stroke="red" stroke-width="0.55" d="M1683.08,-206.93C1624.56,-188.77 1483.65,-146.68 1362.75,-123.33 1233.93,-98.45 1191.48,-136.28 1069.75,-87.33 1063.73,-84.91 1057.78,-81.68 1052.13,-78.09"/>
<polygon fill="red" stroke="red" stroke-width="0.55" points="1054.44,-75.43 1044.21,-72.67 1050.48,-81.21 1054.44,-75.43"/>
</g>
<!-- PAC&#45;MAN Left&#45;&gt;Move Left -->
<g id="edge74" class="edge">
<title>PAC&#45;MAN Left&#45;&gt;Move Left</title>
<path fill="none" stroke="red" stroke-width="0.31" d="M1747.72,-213.07C1800.71,-208.49 1894.16,-196.94 1914.75,-171.41 1928.16,-154.78 1928.44,-139.74 1914.75,-123.33 1866.28,-65.24 1633.3,-49.94 1531.04,-46"/>
<polygon fill="red" stroke="red" stroke-width="0.31" points="1531.29,-42.5 1521.17,-45.64 1531.03,-49.5 1531.29,-42.5"/>
</g>
<!-- PAC&#45;MAN Left&#45;&gt;Move Up -->
<g id="edge75" class="edge">
<title>PAC&#45;MAN Left&#45;&gt;Move Up</title>
<path fill="none" stroke="green" stroke-width="0.15" d="M1711.45,-207.14C1712.45,-188.61 1711.9,-144.63 1686.75,-123.33 1618.32,-65.35 1373.18,-102.29 1284.75,-87.33 1241.33,-79.98 1192.68,-67.31 1158.58,-57.68"/>
<polygon fill="green" stroke="green" stroke-width="0.15" points="1159.72,-54.36 1149.14,-54.98 1157.8,-61.09 1159.72,-54.36"/>
</g>
<!-- PAC&#45;MAN Left&#45;&gt;Move Down -->
<g id="edge76" class="edge">
<title>PAC&#45;MAN Left&#45;&gt;Move Down</title>
<path fill="none" stroke="red" stroke-width="0.23" d="M1692.23,-206.92C1657.23,-190.42 1578.96,-153.65 1512.75,-123.33 1470.21,-103.85 1421.68,-82.07 1386.53,-66.37"/>
<polygon fill="red" stroke="red" stroke-width="0.23" points="1388.32,-63.34 1377.76,-62.46 1385.47,-69.73 1388.32,-63.34"/>
</g>
<!-- PAC&#45;MAN Left&#45;&gt;334 -->
<g id="edge14" class="edge">
<title>PAC&#45;MAN Left&#45;&gt;334</title>
<path fill="none" stroke="red" stroke-width="0.56" d="M1673.52,-211.35C1566.69,-198.98 1260.43,-163.51 1161.2,-152.01"/>
<polygon fill="red" stroke="red" stroke-width="0.56" points="1161.84,-148.56 1151.51,-150.89 1161.04,-155.52 1161.84,-148.56"/>
</g>
<!-- PAC&#45;MAN Up -->
<g id="node15" class="node">
<title>PAC&#45;MAN Up</title>
<polygon fill="lightblue" stroke="black" points="1898.12,-225.91 1827.38,-225.91 1827.38,-207.41 1898.12,-207.41 1898.12,-225.91"/>
<text text-anchor="middle" x="1862.75" y="-213.36" font-family="Times,serif" font-size="9.00">PAC&#45;MAN Up</text>
</g>
<!-- PAC&#45;MAN Up&#45;&gt;Move Right -->
<g id="edge77" class="edge">
<title>PAC&#45;MAN Up&#45;&gt;Move Right</title>
<path fill="none" stroke="green" stroke-width="0.53" d="M1832.94,-206.97C1768.42,-188.52 1610.74,-145.3 1475.75,-123.33 1296.95,-94.23 1238.94,-152.07 1069.75,-87.33 1063.61,-84.98 1057.57,-81.77 1051.84,-78.15"/>
<polygon fill="green" stroke="green" stroke-width="0.53" points="1054.02,-75.4 1043.79,-72.65 1050.07,-81.18 1054.02,-75.4"/>
</g>
<!-- PAC&#45;MAN Up&#45;&gt;Move Left -->
<g id="edge78" class="edge">
<title>PAC&#45;MAN Up&#45;&gt;Move Left</title>
<path fill="none" stroke="red" stroke-width="0.16" d="M1898.41,-213.18C1951.16,-208.68 2045.99,-197.15 2066.75,-171.41 2080.16,-154.78 2080.82,-139.42 2066.75,-123.33 2031.52,-83.03 1663.54,-56.04 1530.45,-47.54"/>
<polygon fill="red" stroke="red" stroke-width="0.16" points="1530.98,-44.07 1520.78,-46.93 1530.54,-51.05 1530.98,-44.07"/>
</g>
<!-- PAC&#45;MAN Up&#45;&gt;Move Up -->
<g id="edge79" class="edge">
<title>PAC&#45;MAN Up&#45;&gt;Move Up</title>
<path fill="none" stroke="red" stroke-width="0.16" stroke-dasharray="1,5" d="M1863.49,-207.09C1864.57,-188.47 1864.16,-144.33 1838.75,-123.33 1791.2,-84.03 1345.69,-96.87 1284.75,-87.33 1241.25,-80.51 1192.6,-67.77 1158.53,-57.98"/>
<polygon fill="red" stroke="red" stroke-width="0.16" points="1159.69,-54.67 1149.11,-55.24 1157.74,-61.39 1159.69,-54.67"/>
</g>
<!-- PAC&#45;MAN Up&#45;&gt;Move Down -->
<g id="edge80" class="edge">
<title>PAC&#45;MAN Up&#45;&gt;Move Down</title>
<path fill="none" stroke="green" stroke-width="0.27" d="M1837.76,-206.96C1788.38,-189.9 1674.7,-151.29 1577.75,-123.33 1515.19,-105.28 1497.36,-108.39 1435.75,-87.33 1419.32,-81.71 1401.81,-74.5 1386.2,-67.61"/>
<polygon fill="green" stroke="green" stroke-width="0.27" points="1387.69,-64.44 1377.13,-63.55 1384.83,-70.83 1387.69,-64.44"/>
</g>
<!-- PAC&#45;MAN Up&#45;&gt;334 -->
<g id="edge15" class="edge">
<title>PAC&#45;MAN Up&#45;&gt;334</title>
<path fill="none" stroke="green" stroke-width="0.24" d="M1826.9,-212.37C1700.91,-200.8 1279.71,-162.14 1161.08,-151.25"/>
<polygon fill="green" stroke="green" stroke-width="0.24" points="1161.51,-147.77 1151.23,-150.34 1160.87,-154.74 1161.51,-147.77"/>
</g>
<!-- PAC&#45;MAN Down -->
<g id="node16" class="node">
<title>PAC&#45;MAN Down</title>
<polygon fill="lightblue" stroke="black" points="191.88,-225.91 101.62,-225.91 101.62,-207.41 191.88,-207.41 191.88,-225.91"/>
<text text-anchor="middle" x="146.75" y="-213.36" font-family="Times,serif" font-size="9.00">PAC&#45;MAN Down</text>
</g>
<!-- PAC&#45;MAN Down&#45;&gt;Move Right -->
<g id="edge81" class="edge">
<title>PAC&#45;MAN Down&#45;&gt;Move Right</title>
<path fill="none" stroke="green" stroke-width="0.43" d="M142.54,-206.93C134.46,-188.77 119.4,-146.69 140.75,-123.33 196.21,-62.64 780.63,-48.35 960.42,-45.37"/>
<polygon fill="green" stroke="green" stroke-width="0.43" points="960.32,-48.88 970.27,-45.22 960.21,-41.88 960.32,-48.88"/>
</g>
<!-- PAC&#45;MAN Down&#45;&gt;Move Left -->
<g id="edge82" class="edge">
<title>PAC&#45;MAN Down&#45;&gt;Move Left</title>
<path fill="none" stroke="green" stroke-width="0.28" d="M165.8,-206.93C209.09,-187.58 318.66,-141.37 415.75,-123.33 628.91,-83.71 1179.92,-137.93 1390.75,-87.33 1407.9,-83.21 1425.73,-75.78 1441.06,-68.26"/>
<polygon fill="green" stroke="green" stroke-width="0.28" points="1442.55,-71.43 1449.89,-63.79 1439.38,-65.19 1442.55,-71.43"/>
</g>
<!-- PAC&#45;MAN Down&#45;&gt;Move Up -->
<g id="edge83" class="edge">
<title>PAC&#45;MAN Down&#45;&gt;Move Up</title>
<path fill="none" stroke="red" stroke-width="0.12" d="M166.99,-206.94C212.42,-187.8 326.42,-142.36 426.75,-123.33 566.05,-96.9 931.9,-139.46 1063.75,-87.33 1070.39,-84.7 1076.8,-80.85 1082.71,-76.52"/>
<polygon fill="red" stroke="red" stroke-width="0.12" points="1084.63,-79.47 1090.28,-70.51 1080.27,-73.99 1084.63,-79.47"/>
</g>
<!-- PAC&#45;MAN Down&#45;&gt;334 -->
<g id="edge16" class="edge">
<title>PAC&#45;MAN Down&#45;&gt;334</title>
<path fill="none" stroke="green" stroke-width="0.19" d="M192.19,-212.55C361.84,-200.94 955.72,-160.28 1098.64,-150.5"/>
<polygon fill="green" stroke="green" stroke-width="0.19" points="1098.85,-153.99 1108.59,-149.82 1098.37,-147.01 1098.85,-153.99"/>
</g>
<!-- Power&#45;Up Time -->
<g id="node17" class="node">
<title>Power&#45;Up Time</title>
<polygon fill="lightblue" stroke="black" points="1595.62,-225.91 1521.88,-225.91 1521.88,-207.41 1595.62,-207.41 1595.62,-225.91"/>
<text text-anchor="middle" x="1558.75" y="-213.36" font-family="Times,serif" font-size="9.00">Power&#45;Up Time</text>
</g>
<!-- Power&#45;Up Time&#45;&gt;Move Right -->
<g id="edge84" class="edge">
<title>Power&#45;Up Time&#45;&gt;Move Right</title>
<path fill="none" stroke="green" stroke-width="0.45" d="M1535.16,-206.92C1486.39,-189.09 1370.62,-148.16 1270.75,-123.33 1182.68,-101.43 1152.99,-123.49 1069.75,-87.33 1063.8,-84.74 1057.89,-81.42 1052.26,-77.78"/>
<polygon fill="green" stroke="green" stroke-width="0.45" points="1054.45,-75.04 1044.23,-72.23 1050.47,-80.8 1054.45,-75.04"/>
</g>
<!-- Power&#45;Up Time&#45;&gt;Move Left -->
<g id="edge85" class="edge">
<title>Power&#45;Up Time&#45;&gt;Move Left</title>
<path fill="none" stroke="green" stroke-width="0.26" d="M1595.72,-213.07C1648.71,-208.49 1742.16,-196.94 1762.75,-171.41 1776.16,-154.78 1775.66,-140.36 1762.75,-123.33 1734.77,-86.41 1603.07,-62 1530.7,-51.14"/>
<polygon fill="green" stroke="green" stroke-width="0.26" points="1531.27,-47.68 1520.86,-49.69 1530.25,-54.61 1531.27,-47.68"/>
</g>
<!-- Power&#45;Up Time&#45;&gt;Move Up -->
<g id="edge86" class="edge">
<title>Power&#45;Up Time&#45;&gt;Move Up</title>
<path fill="none" stroke="red" stroke-width="0.2" d="M1559.38,-206.96C1560.18,-188.47 1559.19,-145.19 1534.75,-123.33 1492.92,-85.91 1339.82,-98.17 1284.75,-87.33 1241.54,-78.82 1192.86,-66.3 1158.7,-57.02"/>
<polygon fill="red" stroke="red" stroke-width="0.2" points="1159.89,-53.71 1149.32,-54.45 1158.04,-60.47 1159.89,-53.71"/>
</g>
<!-- Power&#45;Up Time&#45;&gt;Move Down -->
<g id="edge87" class="edge">
<title>Power&#45;Up Time&#45;&gt;Move Down</title>
<path fill="none" stroke="green" stroke-width="0.15" d="M1552.43,-206.92C1539.5,-189.47 1508.48,-149.7 1475.75,-123.33 1448.36,-101.25 1413.99,-81.64 1386.41,-67.52"/>
<polygon fill="green" stroke="green" stroke-width="0.15" points="1388.05,-64.43 1377.54,-63.05 1384.9,-70.68 1388.05,-64.43"/>
</g>
<!-- Power&#45;Up Time&#45;&gt;334 -->
<g id="edge17" class="edge">
<title>Power&#45;Up Time&#45;&gt;334</title>
<path fill="none" stroke="green" stroke-width="0.21" d="M1521.43,-209.81C1437.9,-196.71 1237.23,-165.23 1160.39,-153.18"/>
<polygon fill="green" stroke="green" stroke-width="0.21" points="1161.14,-149.75 1150.72,-151.66 1160.05,-156.67 1161.14,-149.75"/>
</g>
<!-- 994&#45;&gt;Move Left -->
<g id="edge91" class="edge">
<title>994&#45;&gt;Move Left</title>
<path fill="none" stroke="red" stroke-width="0.26" d="M2629.93,-133.48C2624.22,-129.52 2617.5,-125.61 2610.75,-123.33 2406.09,-54.16 1719.6,-45.78 1531.03,-44.79"/>
<polygon fill="red" stroke="red" stroke-width="0.26" points="1531.28,-41.29 1521.27,-44.74 1531.25,-48.29 1531.28,-41.29"/>
</g>
<!-- 334&#45;&gt;Move Right -->
<g id="edge18" class="edge">
<title>334&#45;&gt;Move Right</title>
<path fill="none" stroke="green" stroke-width="0.4" d="M1114.45,-133.07C1098.64,-119.32 1073.3,-97.29 1051.87,-78.67"/>
<polygon fill="green" stroke="green" stroke-width="0.4" points="1054.17,-76.03 1044.33,-72.11 1049.58,-81.31 1054.17,-76.03"/>
</g>
<!-- 334&#45;&gt;Move Left -->
<g id="edge19" class="edge">
<title>334&#45;&gt;Move Left</title>
<path fill="none" stroke="red" stroke-width="0.22" d="M1146.05,-133.58C1151.69,-129.73 1158.24,-125.85 1164.75,-123.33 1259.57,-86.54 1293.47,-117.01 1390.75,-87.33 1407.48,-82.22 1425.09,-74.65 1440.37,-67.3"/>
<polygon fill="red" stroke="red" stroke-width="0.22" points="1441.84,-70.48 1449.26,-62.92 1438.74,-64.2 1441.84,-70.48"/>
</g>
<!-- 334&#45;&gt;Move Up -->
<g id="edge20" class="edge">
<title>334&#45;&gt;Move Up</title>
<path fill="none" stroke="green" stroke-width="0.23" d="M1126.79,-126.28C1125.22,-115.68 1123.24,-102.23 1121.34,-89.31"/>
<polygon fill="green" stroke="green" stroke-width="0.23" points="1124.81,-88.87 1119.89,-79.49 1117.88,-89.9 1124.81,-88.87"/>
</g>
<!-- 334&#45;&gt;Move Down -->
<g id="edge21" class="edge">
<title>334&#45;&gt;Move Down</title>
<path fill="none" stroke="green" stroke-width="0.12" d="M1146.51,-134.57C1152.19,-130.79 1158.64,-126.7 1164.75,-123.33 1205.18,-101 1253.13,-79.57 1288.28,-64.73"/>
<polygon fill="green" stroke="green" stroke-width="0.12" points="1289.34,-68.08 1297.21,-60.99 1286.64,-61.62 1289.34,-68.08"/>
</g>
<!-- 911&#45;&gt;Move Left -->
<g id="edge89" class="edge">
<title>911&#45;&gt;Move Left</title>
<path fill="none" stroke="green" stroke-width="0.21" d="M2313.89,-133.58C2308.18,-129.63 2301.47,-125.7 2294.75,-123.33 2152.28,-73.03 1683.31,-51.93 1531,-46.3"/>
<polygon fill="green" stroke="green" stroke-width="0.21" points="1531.45,-42.81 1521.33,-45.95 1531.2,-49.81 1531.45,-42.81"/>
</g>
<!-- 1202&#45;&gt;Move Down -->
<g id="edge94" class="edge">
<title>1202&#45;&gt;Move Down</title>
<path fill="none" stroke="green" stroke-width="0.31" d="M2522.17,-137.84C2507.24,-132.62 2487.11,-126.38 2468.75,-123.33 2242.16,-85.69 1659.77,-138.06 1435.75,-87.33 1418.81,-83.49 1401.17,-76.76 1385.59,-69.76"/>
<polygon fill="green" stroke="green" stroke-width="0.31" points="1387.15,-66.63 1376.61,-65.59 1384.2,-72.98 1387.15,-66.63"/>
</g>
</g>
</svg>
