<?xml version="1.0" encoding="UTF-8" standalone="no"?>
<!DOCTYPE svg PUBLIC "-//W3C//DTD SVG 1.1//EN"
 "http://www.w3.org/Graphics/SVG/1.1/DTD/svg11.dtd">
<!-- Generated by graphviz version 12.0.0 (20240704.0754)
 -->
<!-- Pages: 1 -->
<svg width="1276pt" height="421pt"
 viewBox="0.00 0.00 1275.75 421.17" xmlns="http://www.w3.org/2000/svg" xmlns:xlink="http://www.w3.org/1999/xlink">
<g id="graph0" class="graph" transform="scale(1 1) rotate(0) translate(4 417.17)">
<polygon fill="white" stroke="none" points="-4,4 -4,-417.17 1271.75,-417.17 1271.75,4 -4,4"/>
<!-- Pellet Right -->
<g id="node1" class="node">
<title>Pellet Right</title>
<polygon fill="lightblue" stroke="black" points="686.5,-159.8 629.25,-159.8 629.25,-141.3 686.5,-141.3 686.5,-159.8"/>
<text text-anchor="middle" x="657.88" y="-147.25" font-family="Times,serif" font-size="9.00">Pellet Right</text>
</g>
<!-- Move Up -->
<g id="node20" class="node">
<title>Move Up</title>
<ellipse fill="lightblue" stroke="black" cx="71.88" cy="-43.66" rx="35.71" ry="35.71"/>
<text text-anchor="middle" x="71.88" y="-40.36" font-family="Times,serif" font-size="9.00">Move Up</text>
</g>
<!-- Pellet Right&#45;&gt;Move Up -->
<g id="edge1" class="edge">
<title>Pellet Right&#45;&gt;Move Up</title>
<path fill="none" stroke="green" stroke-width="0.14" stroke-dasharray="1,5" d="M648.37,-140.83C641.13,-134.75 630.61,-127.1 619.88,-123.33 407.99,-48.93 320.87,-179.03 115.88,-87.33 110.9,-85.1 106.15,-82.06 101.74,-78.61"/>
<polygon fill="green" stroke="green" stroke-width="0.14" points="104.19,-76.1 94.34,-72.2 99.61,-81.39 104.19,-76.1"/>
</g>
<!-- Move Down -->
<g id="node21" class="node">
<title>Move Down</title>
<ellipse fill="lightblue" stroke="black" cx="613.88" cy="-43.66" rx="43.66" ry="43.66"/>
<text text-anchor="middle" x="613.88" y="-40.36" font-family="Times,serif" font-size="9.00">Move Down</text>
</g>
<!-- Pellet Right&#45;&gt;Move Down -->
<g id="edge9" class="edge">
<title>Pellet Right&#45;&gt;Move Down</title>
<path fill="none" stroke="red" stroke-width="0.28" d="M654.27,-140.97C649.87,-130.47 642.06,-111.85 634.47,-93.77"/>
<polygon fill="red" stroke="red" stroke-width="0.28" points="637.81,-92.67 630.71,-84.8 631.35,-95.38 637.81,-92.67"/>
</g>
<!-- 20438 -->
<g id="node25" class="node">
<title>20438</title>
<ellipse fill="white" stroke="black" cx="783.88" cy="-43.66" rx="27.22" ry="27.22"/>
<text text-anchor="middle" x="783.88" y="-40.36" font-family="Times,serif" font-size="9.00">20438</text>
</g>
<!-- Pellet Right&#45;&gt;20438 -->
<g id="edge11" class="edge">
<title>Pellet Right&#45;&gt;20438</title>
<path fill="none" stroke="red" stroke-width="0.41" d="M668.19,-140.97C687.02,-125.29 727.58,-91.53 755.3,-68.45"/>
<polygon fill="red" stroke="red" stroke-width="0.41" points="757.18,-71.44 762.63,-62.35 752.71,-66.06 757.18,-71.44"/>
</g>
<!-- Pellet Left -->
<g id="node2" class="node">
<title>Pellet Left</title>
<polygon fill="lightblue" stroke="black" points="851.88,-159.8 799.88,-159.8 799.88,-141.3 851.88,-141.3 851.88,-159.8"/>
<text text-anchor="middle" x="825.88" y="-147.25" font-family="Times,serif" font-size="9.00">Pellet Left</text>
</g>
<!-- Pellet Left&#45;&gt;20438 -->
<g id="edge18" class="edge">
<title>Pellet Left&#45;&gt;20438</title>
<path fill="none" stroke="green" stroke-width="0.22" d="M822.44,-140.97C817.05,-127.5 806.3,-100.68 797.53,-78.75"/>
<polygon fill="green" stroke="green" stroke-width="0.22" points="800.87,-77.69 793.9,-69.71 794.37,-80.29 800.87,-77.69"/>
</g>
<!-- Pellet Up -->
<g id="node3" class="node">
<title>Pellet Up</title>
<polygon fill="lightblue" stroke="black" points="140.38,-159.8 91.38,-159.8 91.38,-141.3 140.38,-141.3 140.38,-159.8"/>
<text text-anchor="middle" x="115.88" y="-147.25" font-family="Times,serif" font-size="9.00">Pellet Up</text>
</g>
<!-- Move Left -->
<g id="node19" class="node">
<title>Move Left</title>
<ellipse fill="lightblue" stroke="black" cx="336.88" cy="-43.66" rx="37.83" ry="37.83"/>
<text text-anchor="middle" x="336.88" y="-40.36" font-family="Times,serif" font-size="9.00">Move Left</text>
</g>
<!-- Pellet Up&#45;&gt;Move Left -->
<g id="edge2" class="edge">
<title>Pellet Up&#45;&gt;Move Left</title>
<path fill="none" stroke="red" stroke-width="0.49" stroke-dasharray="1,5" d="M124.68,-140.83C130.95,-135.09 139.83,-127.82 148.88,-123.33 206.81,-94.57 232.92,-117.97 289.88,-87.33 294.49,-84.85 299.01,-81.82 303.31,-78.53"/>
<polygon fill="red" stroke="red" stroke-width="0.49" points="305.22,-81.49 310.71,-72.43 300.77,-76.09 305.22,-81.49"/>
</g>
<!-- Pellet Up&#45;&gt;Move Up -->
<g id="edge17" class="edge">
<title>Pellet Up&#45;&gt;Move Up</title>
<path fill="none" stroke="green" stroke-width="0.13" d="M112.27,-140.97C107.28,-129.06 97.9,-106.7 89.44,-86.52"/>
<polygon fill="green" stroke="green" stroke-width="0.13" points="92.68,-85.21 85.58,-77.34 86.22,-87.92 92.68,-85.21"/>
</g>
<!-- Pellet Down -->
<g id="node4" class="node">
<title>Pellet Down</title>
<polygon fill="lightblue" stroke="black" points="614,-413.17 553.75,-413.17 553.75,-394.67 614,-394.67 614,-413.17"/>
<text text-anchor="middle" x="583.88" y="-400.62" font-family="Times,serif" font-size="9.00">Pellet Down</text>
</g>
<!-- 22801 -->
<g id="node24" class="node">
<title>22801</title>
<ellipse fill="white" stroke="black" cx="583.88" cy="-331.45" rx="27.22" ry="27.22"/>
<text text-anchor="middle" x="583.88" y="-328.15" font-family="Times,serif" font-size="9.00">22801</text>
</g>
<!-- Pellet Down&#45;&gt;22801 -->
<g id="edge19" class="edge">
<title>Pellet Down&#45;&gt;22801</title>
<path fill="none" stroke="red" stroke-width="0.39" d="M583.88,-394.28C583.88,-387.92 583.88,-378.81 583.88,-369.52"/>
<polygon fill="red" stroke="red" stroke-width="0.39" points="587.38,-369.69 583.88,-359.69 580.38,-369.69 587.38,-369.69"/>
</g>
<!-- 21463 -->
<g id="node26" class="node">
<title>21463</title>
<ellipse fill="white" stroke="black" cx="583.88" cy="-241" rx="27.22" ry="27.22"/>
<text text-anchor="middle" x="583.88" y="-237.7" font-family="Times,serif" font-size="9.00">21463</text>
</g>
<!-- Pellet Down&#45;&gt;21463 -->
<g id="edge14" class="edge">
<title>Pellet Down&#45;&gt;21463</title>
<path fill="none" stroke="red" stroke-width="0.32" stroke-dasharray="1,5" d="M573.72,-394.29C564.97,-386.13 552.98,-373.04 547.88,-358.67 539.77,-335.87 541.6,-327.59 547.88,-304.22 550.9,-292.96 556.51,-281.64 562.41,-271.79"/>
<polygon fill="red" stroke="red" stroke-width="0.32" points="565.19,-273.94 567.59,-263.62 559.28,-270.19 565.19,-273.94"/>
</g>
<!-- 23222 -->
<g id="node27" class="node">
<title>23222</title>
<ellipse fill="white" stroke="black" cx="655.88" cy="-331.45" rx="27.22" ry="27.22"/>
<text text-anchor="middle" x="655.88" y="-328.15" font-family="Times,serif" font-size="9.00">23222</text>
</g>
<!-- Pellet Down&#45;&gt;23222 -->
<g id="edge22" class="edge">
<title>Pellet Down&#45;&gt;23222</title>
<path fill="none" stroke="green" stroke-width="0.25" d="M592.7,-394.28C601.81,-385.37 616.45,-371.03 629.35,-358.41"/>
<polygon fill="green" stroke="green" stroke-width="0.25" points="631.72,-360.99 636.42,-351.49 626.82,-355.98 631.72,-360.99"/>
</g>
<!-- Power Pellet Right -->
<g id="node5" class="node">
<title>Power Pellet Right</title>
<polygon fill="lightblue" stroke="black" points="715.25,-413.17 632.5,-413.17 632.5,-394.67 715.25,-394.67 715.25,-413.17"/>
<text text-anchor="middle" x="673.88" y="-400.62" font-family="Times,serif" font-size="9.00">Power Pellet Right</text>
</g>
<!-- Power Pellet Left -->
<g id="node6" class="node">
<title>Power Pellet Left</title>
<polygon fill="lightblue" stroke="black" points="781.62,-159.8 704.12,-159.8 704.12,-141.3 781.62,-141.3 781.62,-159.8"/>
<text text-anchor="middle" x="742.88" y="-147.25" font-family="Times,serif" font-size="9.00">Power Pellet Left</text>
</g>
<!-- Power Pellet Left&#45;&gt;Move Down -->
<g id="edge3" class="edge">
<title>Power Pellet Left&#45;&gt;Move Down</title>
<path fill="none" stroke="green" stroke-width="0.26" stroke-dasharray="1,5" d="M732.32,-140.97C715.67,-127.43 682.42,-100.4 655.38,-78.41"/>
<polygon fill="green" stroke="green" stroke-width="0.26" points="657.85,-75.91 647.89,-72.32 653.44,-81.34 657.85,-75.91"/>
</g>
<!-- Power Pellet Left&#45;&gt;20438 -->
<g id="edge21" class="edge">
<title>Power Pellet Left&#45;&gt;20438</title>
<path fill="none" stroke="green" stroke-width="0.29" d="M746.23,-140.97C751.47,-127.56 761.89,-100.92 770.43,-79.05"/>
<polygon fill="green" stroke="green" stroke-width="0.29" points="773.67,-80.39 774.05,-69.81 767.15,-77.85 773.67,-80.39"/>
</g>
<!-- Power Pellet Up -->
<g id="node7" class="node">
<title>Power Pellet Up</title>
<polygon fill="lightblue" stroke="black" points="808.12,-413.17 733.62,-413.17 733.62,-394.67 808.12,-394.67 808.12,-413.17"/>
<text text-anchor="middle" x="770.88" y="-400.62" font-family="Times,serif" font-size="9.00">Power Pellet Up</text>
</g>
<!-- Power Pellet Down -->
<g id="node8" class="node">
<title>Power Pellet Down</title>
<polygon fill="lightblue" stroke="black" points="243.75,-159.8 158,-159.8 158,-141.3 243.75,-141.3 243.75,-159.8"/>
<text text-anchor="middle" x="200.88" y="-147.25" font-family="Times,serif" font-size="9.00">Power Pellet Down</text>
</g>
<!-- Move Right -->
<g id="node18" class="node">
<title>Move Right</title>
<ellipse fill="lightblue" stroke="black" cx="166.88" cy="-43.66" rx="41.54" ry="41.54"/>
<text text-anchor="middle" x="166.88" y="-40.36" font-family="Times,serif" font-size="9.00">Move Right</text>
</g>
<!-- Power Pellet Down&#45;&gt;Move Right -->
<g id="edge4" class="edge">
<title>Power Pellet Down&#45;&gt;Move Right</title>
<path fill="none" stroke="green" stroke-width="0.8" d="M198.09,-140.97C194.7,-130.5 188.69,-111.96 182.84,-93.92"/>
<polygon fill="green" stroke="green" stroke-width="0.8" points="186.23,-93.01 179.81,-84.58 179.57,-95.17 186.23,-93.01"/>
</g>
<!-- Power Pellet Down&#45;&gt;Move Left -->
<g id="edge13" class="edge">
<title>Power Pellet Down&#45;&gt;Move Left</title>
<path fill="none" stroke="green" stroke-width="0.4" d="M214.22,-140.99C231.97,-129.43 264.09,-107.91 289.88,-87.33 293.76,-84.23 297.74,-80.89 301.65,-77.5"/>
<polygon fill="green" stroke="green" stroke-width="0.4" points="303.92,-80.17 309.1,-70.93 299.28,-74.93 303.92,-80.17"/>
</g>
<!-- 20359 -->
<g id="node23" class="node">
<title>20359</title>
<ellipse fill="white" stroke="black" cx="253.88" cy="-43.66" rx="27.22" ry="27.22"/>
<text text-anchor="middle" x="253.88" y="-40.36" font-family="Times,serif" font-size="9.00">20359</text>
</g>
<!-- Power Pellet Down&#45;&gt;20359 -->
<g id="edge10" class="edge">
<title>Power Pellet Down&#45;&gt;20359</title>
<path fill="none" stroke="green" stroke-width="0.34" d="M205.21,-140.97C212.13,-127.27 226.04,-99.75 237.22,-77.63"/>
<polygon fill="green" stroke="green" stroke-width="0.34" points="240.2,-79.49 241.59,-68.98 233.95,-76.33 240.2,-79.49"/>
</g>
<!-- Ghost Info Right -->
<g id="node9" class="node">
<title>Ghost Info Right</title>
<polygon fill="lightblue" stroke="black" points="903.25,-413.17 826.5,-413.17 826.5,-394.67 903.25,-394.67 903.25,-413.17"/>
<text text-anchor="middle" x="864.88" y="-400.62" font-family="Times,serif" font-size="9.00">Ghost Info Right</text>
</g>
<!-- Ghost Info Left -->
<g id="node10" class="node">
<title>Ghost Info Left</title>
<polygon fill="lightblue" stroke="black" points="992.62,-413.17 921.12,-413.17 921.12,-394.67 992.62,-394.67 992.62,-413.17"/>
<text text-anchor="middle" x="956.88" y="-400.62" font-family="Times,serif" font-size="9.00">Ghost Info Left</text>
</g>
<!-- Ghost Info Up -->
<g id="node11" class="node">
<title>Ghost Info Up</title>
<polygon fill="lightblue" stroke="black" points="1079.12,-413.17 1010.62,-413.17 1010.62,-394.67 1079.12,-394.67 1079.12,-413.17"/>
<text text-anchor="middle" x="1044.88" y="-400.62" font-family="Times,serif" font-size="9.00">Ghost Info Up</text>
</g>
<!-- Ghost Info Down -->
<g id="node12" class="node">
<title>Ghost Info Down</title>
<polygon fill="lightblue" stroke="black" points="610.75,-159.8 531,-159.8 531,-141.3 610.75,-141.3 610.75,-159.8"/>
<text text-anchor="middle" x="570.88" y="-147.25" font-family="Times,serif" font-size="9.00">Ghost Info Down</text>
</g>
<!-- Ghost Info Down&#45;&gt;Move Down -->
<g id="edge5" class="edge">
<title>Ghost Info Down&#45;&gt;Move Down</title>
<path fill="none" stroke="red" stroke-width="0.58" stroke-dasharray="1,5" d="M574.39,-140.97C578.66,-130.56 586.19,-112.19 593.54,-94.27"/>
<polygon fill="red" stroke="red" stroke-width="0.58" points="596.69,-95.8 597.25,-85.22 590.22,-93.15 596.69,-95.8"/>
</g>
<!-- PAC&#45;MAN Right -->
<g id="node13" class="node">
<title>PAC&#45;MAN Right</title>
<polygon fill="lightblue" stroke="black" points="1176.38,-413.17 1097.38,-413.17 1097.38,-394.67 1176.38,-394.67 1176.38,-413.17"/>
<text text-anchor="middle" x="1136.88" y="-400.62" font-family="Times,serif" font-size="9.00">PAC&#45;MAN Right</text>
</g>
<!-- PAC&#45;MAN Left -->
<g id="node14" class="node">
<title>PAC&#45;MAN Left</title>
<polygon fill="lightblue" stroke="black" points="1267.75,-413.17 1194,-413.17 1194,-394.67 1267.75,-394.67 1267.75,-413.17"/>
<text text-anchor="middle" x="1230.88" y="-400.62" font-family="Times,serif" font-size="9.00">PAC&#45;MAN Left</text>
</g>
<!-- PAC&#45;MAN Up -->
<g id="node15" class="node">
<title>PAC&#45;MAN Up</title>
<polygon fill="lightblue" stroke="black" points="513.25,-159.8 442.5,-159.8 442.5,-141.3 513.25,-141.3 513.25,-159.8"/>
<text text-anchor="middle" x="477.88" y="-147.25" font-family="Times,serif" font-size="9.00">PAC&#45;MAN Up</text>
</g>
<!-- PAC&#45;MAN Up&#45;&gt;Move Left -->
<g id="edge6" class="edge">
<title>PAC&#45;MAN Up&#45;&gt;Move Left</title>
<path fill="none" stroke="green" stroke-width="0.14" stroke-dasharray="1,5" d="M466.34,-140.97C446.59,-126.28 405.5,-95.71 374.88,-72.93"/>
<polygon fill="green" stroke="green" stroke-width="0.14" points="377.22,-70.31 367.11,-67.15 373.04,-75.93 377.22,-70.31"/>
</g>
<!-- PAC&#45;MAN Up&#45;&gt;Move Down -->
<g id="edge7" class="edge">
<title>PAC&#45;MAN Up&#45;&gt;Move Down</title>
<path fill="none" stroke="red" stroke-width="0.26" stroke-dasharray="1,5" d="M489,-140.97C506.86,-127.19 542.84,-99.45 571.61,-77.26"/>
<polygon fill="red" stroke="red" stroke-width="0.26" points="573.41,-80.29 579.2,-71.41 569.14,-74.75 573.41,-80.29"/>
</g>
<!-- PACM&#45;MAN Down -->
<g id="node16" class="node">
<title>PACM&#45;MAN Down</title>
<polygon fill="lightblue" stroke="black" points="424,-159.8 333.75,-159.8 333.75,-141.3 424,-141.3 424,-159.8"/>
<text text-anchor="middle" x="378.88" y="-147.25" font-family="Times,serif" font-size="9.00">PACM&#45;MAN Down</text>
</g>
<!-- PACM&#45;MAN Down&#45;&gt;Move Left -->
<g id="edge8" class="edge">
<title>PACM&#45;MAN Down&#45;&gt;Move Left</title>
<path fill="none" stroke="green" stroke-width="0.4" stroke-dasharray="1,5" d="M375.44,-140.97C370.85,-129.5 362.38,-108.35 354.54,-88.78"/>
<polygon fill="green" stroke="green" stroke-width="0.4" points="357.84,-87.6 350.87,-79.61 351.34,-90.2 357.84,-87.6"/>
</g>
<!-- Power&#45;Up Time -->
<g id="node17" class="node">
<title>Power&#45;Up Time</title>
<polygon fill="lightblue" stroke="black" points="73.75,-159.8 0,-159.8 0,-141.3 73.75,-141.3 73.75,-159.8"/>
<text text-anchor="middle" x="36.88" y="-147.25" font-family="Times,serif" font-size="9.00">Power&#45;Up Time</text>
</g>
<!-- Power&#45;Up Time&#45;&gt;Move Up -->
<g id="edge16" class="edge">
<title>Power&#45;Up Time&#45;&gt;Move Up</title>
<path fill="none" stroke="green" stroke-width="0.11" d="M39.74,-140.97C43.64,-129.28 50.9,-107.53 57.53,-87.66"/>
<polygon fill="green" stroke="green" stroke-width="0.11" points="60.82,-88.85 60.66,-78.26 54.18,-86.64 60.82,-88.85"/>
</g>
<!-- 20966 -->
<g id="node22" class="node">
<title>20966</title>
<ellipse fill="white" stroke="black" cx="288.88" cy="-150.55" rx="27.22" ry="27.22"/>
<text text-anchor="middle" x="288.88" y="-147.25" font-family="Times,serif" font-size="9.00">20966</text>
</g>
<!-- 20966&#45;&gt;Move Left -->
<g id="edge12" class="edge">
<title>20966&#45;&gt;Move Left</title>
<path fill="none" stroke="green" stroke-width="0.4" d="M300.01,-125.22C305.08,-114.13 311.25,-100.66 317.08,-87.93"/>
<polygon fill="green" stroke="green" stroke-width="0.4" points="320.21,-89.49 321.19,-78.94 313.85,-86.57 320.21,-89.49"/>
</g>
<!-- 22801&#45;&gt;21463 -->
<g id="edge20" class="edge">
<title>22801&#45;&gt;21463</title>
<path fill="none" stroke="red" stroke-width="0.18" d="M583.88,-303.91C583.88,-295.95 583.88,-287.08 583.88,-278.59"/>
<polygon fill="red" stroke="red" stroke-width="0.18" points="587.38,-278.78 583.88,-268.78 580.38,-278.78 587.38,-278.78"/>
</g>
<!-- 21463&#45;&gt;20966 -->
<g id="edge15" class="edge">
<title>21463&#45;&gt;20966</title>
<path fill="none" stroke="green" stroke-width="0.58" d="M556.63,-237.02C508.13,-230.96 404.43,-214.52 324.88,-177.77 322.76,-176.8 320.65,-175.69 318.57,-174.5"/>
<polygon fill="green" stroke="green" stroke-width="0.58" points="320.77,-171.75 310.46,-169.31 316.99,-177.64 320.77,-171.75"/>
</g>
<!-- 21463&#45;&gt;20438 -->
<g id="edge24" class="edge">
<title>21463&#45;&gt;20438</title>
<path fill="none" stroke="red" stroke-width="0.57" stroke-dasharray="1,5" d="M611.03,-238.09C674.52,-232.99 829.69,-216.74 860.88,-177.77 889.2,-142.38 846.06,-95.36 813.81,-67.73"/>
<polygon fill="red" stroke="red" stroke-width="0.57" points="816.07,-65.05 806.14,-61.35 811.59,-70.44 816.07,-65.05"/>
</g>
<!-- 23222&#45;&gt;21463 -->
<g id="edge23" class="edge">
<title>23222&#45;&gt;21463</title>
<path fill="none" stroke="red" stroke-width="0.29" d="M639.18,-309.93C629.7,-298.29 617.7,-283.55 607.29,-270.77"/>
<polygon fill="red" stroke="red" stroke-width="0.29" points="610.04,-268.59 601.01,-263.05 604.61,-273.01 610.04,-268.59"/>
</g>
</g>
</svg>
