<?xml version="1.0" encoding="UTF-8" standalone="no"?>
<!DOCTYPE svg PUBLIC "-//W3C//DTD SVG 1.1//EN"
 "http://www.w3.org/Graphics/SVG/1.1/DTD/svg11.dtd">
<!-- Generated by graphviz version 12.0.0 (20240704.0754)
 -->
<!-- Pages: 1 -->
<svg width="1519pt" height="150pt"
 viewBox="0.00 0.00 1518.62 149.83" xmlns="http://www.w3.org/2000/svg" xmlns:xlink="http://www.w3.org/1999/xlink">
<g id="graph0" class="graph" transform="scale(1 1) rotate(0) translate(4 145.83)">
<polygon fill="white" stroke="none" points="-4,4 -4,-145.83 1514.62,-145.83 1514.62,4 -4,4"/>
<!-- Pellet Right -->
<g id="node1" class="node">
<title>Pellet Right</title>
<polygon fill="lightblue" stroke="black" points="518.12,-141.83 460.88,-141.83 460.88,-123.33 518.12,-123.33 518.12,-141.83"/>
<text text-anchor="middle" x="489.5" y="-129.28" font-family="Times,serif" font-size="9.00">Pellet Right</text>
</g>
<!-- Move Left -->
<g id="node19" class="node">
<title>Move Left</title>
<ellipse fill="lightblue" stroke="black" cx="447.5" cy="-43.66" rx="37.83" ry="37.83"/>
<text text-anchor="middle" x="447.5" y="-40.36" font-family="Times,serif" font-size="9.00">Move Left</text>
</g>
<!-- Pellet Right&#45;&gt;Move Left -->
<g id="edge1" class="edge">
<title>Pellet Right&#45;&gt;Move Left</title>
<path fill="none" stroke="green" stroke-width="0.23" d="M485.32,-122.93C481.24,-114.48 474.72,-100.98 468.23,-87.56"/>
<polygon fill="green" stroke="green" stroke-width="0.23" points="471.43,-86.13 463.92,-78.65 465.12,-89.18 471.43,-86.13"/>
</g>
<!-- Pellet Left -->
<g id="node2" class="node">
<title>Pellet Left</title>
<polygon fill="lightblue" stroke="black" points="868.5,-141.83 816.5,-141.83 816.5,-123.33 868.5,-123.33 868.5,-141.83"/>
<text text-anchor="middle" x="842.5" y="-129.28" font-family="Times,serif" font-size="9.00">Pellet Left</text>
</g>
<!-- Move Right -->
<g id="node18" class="node">
<title>Move Right</title>
<ellipse fill="lightblue" stroke="black" cx="816.5" cy="-43.66" rx="41.54" ry="41.54"/>
<text text-anchor="middle" x="816.5" y="-40.36" font-family="Times,serif" font-size="9.00">Move Right</text>
</g>
<!-- Pellet Left&#45;&gt;Move Right -->
<g id="edge15" class="edge">
<title>Pellet Left&#45;&gt;Move Right</title>
<path fill="none" stroke="green" stroke-width="0.35" stroke-dasharray="1,5" d="M839.91,-122.93C837.79,-115.82 834.59,-105.13 831.23,-93.91"/>
<polygon fill="green" stroke="green" stroke-width="0.35" points="834.64,-93.08 828.42,-84.5 827.93,-95.09 834.64,-93.08"/>
</g>
<!-- Move Up -->
<g id="node20" class="node">
<title>Move Up</title>
<ellipse fill="lightblue" stroke="black" cx="911.5" cy="-43.66" rx="35.71" ry="35.71"/>
<text text-anchor="middle" x="911.5" y="-40.36" font-family="Times,serif" font-size="9.00">Move Up</text>
</g>
<!-- Pellet Left&#45;&gt;Move Up -->
<g id="edge16" class="edge">
<title>Pellet Left&#45;&gt;Move Up</title>
<path fill="none" stroke="green" stroke-width="0.56" d="M849.37,-122.93C857.25,-113 870.68,-96.08 883.04,-80.51"/>
<polygon fill="green" stroke="green" stroke-width="0.56" points="885.76,-82.72 889.23,-72.71 880.28,-78.37 885.76,-82.72"/>
</g>
<!-- Pellet Up -->
<g id="node3" class="node">
<title>Pellet Up</title>
<polygon fill="lightblue" stroke="black" points="936,-141.83 887,-141.83 887,-123.33 936,-123.33 936,-141.83"/>
<text text-anchor="middle" x="911.5" y="-129.28" font-family="Times,serif" font-size="9.00">Pellet Up</text>
</g>
<!-- Pellet Up&#45;&gt;Move Right -->
<g id="edge17" class="edge">
<title>Pellet Up&#45;&gt;Move Right</title>
<path fill="none" stroke="red" stroke-width="0.65" stroke-dasharray="1,5" d="M902.04,-122.93C890.97,-112.8 871.95,-95.39 854.65,-79.56"/>
<polygon fill="red" stroke="red" stroke-width="0.65" points="857.32,-77.26 847.58,-73.09 852.59,-82.43 857.32,-77.26"/>
</g>
<!-- Pellet Up&#45;&gt;Move Up -->
<g id="edge2" class="edge">
<title>Pellet Up&#45;&gt;Move Up</title>
<path fill="none" stroke="green" stroke-width="0.44" d="M911.5,-122.93C911.5,-115.01 911.5,-102.65 911.5,-90.06"/>
<polygon fill="green" stroke="green" stroke-width="0.44" points="915,-90.2 911.5,-80.2 908,-90.2 915,-90.2"/>
</g>
<!-- Pellet Down -->
<g id="node4" class="node">
<title>Pellet Down</title>
<polygon fill="lightblue" stroke="black" points="350.62,-141.83 290.38,-141.83 290.38,-123.33 350.62,-123.33 350.62,-141.83"/>
<text text-anchor="middle" x="320.5" y="-129.28" font-family="Times,serif" font-size="9.00">Pellet Down</text>
</g>
<!-- Pellet Down&#45;&gt;Move Left -->
<g id="edge20" class="edge">
<title>Pellet Down&#45;&gt;Move Left</title>
<path fill="none" stroke="red" stroke-width="0.38" d="M333.14,-122.93C350.45,-111.08 382.29,-89.29 407.99,-71.7"/>
<polygon fill="red" stroke="red" stroke-width="0.38" points="409.69,-74.78 415.97,-66.24 405.74,-69 409.69,-74.78"/>
</g>
<!-- Move Down -->
<g id="node21" class="node">
<title>Move Down</title>
<ellipse fill="lightblue" stroke="black" cx="184.5" cy="-43.66" rx="43.66" ry="43.66"/>
<text text-anchor="middle" x="184.5" y="-40.36" font-family="Times,serif" font-size="9.00">Move Down</text>
</g>
<!-- Pellet Down&#45;&gt;Move Down -->
<g id="edge3" class="edge">
<title>Pellet Down&#45;&gt;Move Down</title>
<path fill="none" stroke="red" stroke-width="0.37" d="M306.96,-122.93C289.16,-111.55 256.97,-90.98 230.06,-73.78"/>
<polygon fill="red" stroke="red" stroke-width="0.37" points="231.95,-70.84 221.64,-68.4 228.18,-76.73 231.95,-70.84"/>
</g>
<!-- Power Pellet Right -->
<g id="node5" class="node">
<title>Power Pellet Right</title>
<polygon fill="lightblue" stroke="black" points="798.88,-141.83 716.12,-141.83 716.12,-123.33 798.88,-123.33 798.88,-141.83"/>
<text text-anchor="middle" x="757.5" y="-129.28" font-family="Times,serif" font-size="9.00">Power Pellet Right</text>
</g>
<!-- Power Pellet Right&#45;&gt;Move Right -->
<g id="edge10" class="edge">
<title>Power Pellet Right&#45;&gt;Move Right</title>
<path fill="none" stroke="red" stroke-width="0.11" d="M763.37,-122.93C769.17,-114.39 778.47,-100.69 787.68,-87.12"/>
<polygon fill="red" stroke="red" stroke-width="0.11" points="790.56,-89.11 793.28,-78.87 784.77,-85.18 790.56,-89.11"/>
</g>
<!-- Power Pellet Left -->
<g id="node6" class="node">
<title>Power Pellet Left</title>
<polygon fill="lightblue" stroke="black" points="174.25,-141.83 96.75,-141.83 96.75,-123.33 174.25,-123.33 174.25,-141.83"/>
<text text-anchor="middle" x="135.5" y="-129.28" font-family="Times,serif" font-size="9.00">Power Pellet Left</text>
</g>
<!-- Power Pellet Left&#45;&gt;Move Down -->
<g id="edge11" class="edge">
<title>Power Pellet Left&#45;&gt;Move Down</title>
<path fill="none" stroke="red" stroke-width="0.38" d="M140.38,-122.93C144.7,-115.26 151.38,-103.41 158.24,-91.24"/>
<polygon fill="red" stroke="red" stroke-width="0.38" points="161.1,-93.3 162.96,-82.87 155,-89.86 161.1,-93.3"/>
</g>
<!-- Power Pellet Up -->
<g id="node7" class="node">
<title>Power Pellet Up</title>
<polygon fill="lightblue" stroke="black" points="442.75,-141.83 368.25,-141.83 368.25,-123.33 442.75,-123.33 442.75,-141.83"/>
<text text-anchor="middle" x="405.5" y="-129.28" font-family="Times,serif" font-size="9.00">Power Pellet Up</text>
</g>
<!-- Power Pellet Up&#45;&gt;Move Left -->
<g id="edge4" class="edge">
<title>Power Pellet Up&#45;&gt;Move Left</title>
<path fill="none" stroke="red" stroke-width="0.12" stroke-dasharray="1,5" d="M409.68,-122.93C413.8,-114.4 420.41,-100.72 426.96,-87.17"/>
<polygon fill="red" stroke="red" stroke-width="0.12" points="429.95,-89.03 431.15,-78.5 423.65,-85.98 429.95,-89.03"/>
</g>
<!-- Power Pellet Down -->
<g id="node8" class="node">
<title>Power Pellet Down</title>
<polygon fill="lightblue" stroke="black" points="1216.38,-141.83 1130.62,-141.83 1130.62,-123.33 1216.38,-123.33 1216.38,-141.83"/>
<text text-anchor="middle" x="1173.5" y="-129.28" font-family="Times,serif" font-size="9.00">Power Pellet Down</text>
</g>
<!-- Ghost Info Right -->
<g id="node9" class="node">
<title>Ghost Info Right</title>
<polygon fill="lightblue" stroke="black" points="1310.88,-141.83 1234.12,-141.83 1234.12,-123.33 1310.88,-123.33 1310.88,-141.83"/>
<text text-anchor="middle" x="1272.5" y="-129.28" font-family="Times,serif" font-size="9.00">Ghost Info Right</text>
</g>
<!-- Ghost Info Left -->
<g id="node10" class="node">
<title>Ghost Info Left</title>
<polygon fill="lightblue" stroke="black" points="1112.25,-141.83 1040.75,-141.83 1040.75,-123.33 1112.25,-123.33 1112.25,-141.83"/>
<text text-anchor="middle" x="1076.5" y="-129.28" font-family="Times,serif" font-size="9.00">Ghost Info Left</text>
</g>
<!-- Ghost Info Left&#45;&gt;Move Up -->
<g id="edge5" class="edge">
<title>Ghost Info Left&#45;&gt;Move Up</title>
<path fill="none" stroke="green" stroke-width="0.2" stroke-dasharray="1,5" d="M1060.08,-122.93C1035.08,-109.76 986.74,-84.3 951.98,-65.99"/>
<polygon fill="green" stroke="green" stroke-width="0.2" points="953.76,-62.97 943.29,-61.41 950.5,-69.16 953.76,-62.97"/>
</g>
<!-- Ghost Info Up -->
<g id="node11" class="node">
<title>Ghost Info Up</title>
<polygon fill="lightblue" stroke="black" points="1022.75,-141.83 954.25,-141.83 954.25,-123.33 1022.75,-123.33 1022.75,-141.83"/>
<text text-anchor="middle" x="988.5" y="-129.28" font-family="Times,serif" font-size="9.00">Ghost Info Up</text>
</g>
<!-- Ghost Info Up&#45;&gt;Move Right -->
<g id="edge6" class="edge">
<title>Ghost Info Up&#45;&gt;Move Right</title>
<path fill="none" stroke="green" stroke-width="0.12" stroke-dasharray="1,5" d="M954.71,-122.88C929.39,-115.53 894.44,-103.59 866.5,-87.33 862.4,-84.94 858.32,-82.21 854.35,-79.3"/>
<polygon fill="green" stroke="green" stroke-width="0.12" points="856.59,-76.6 846.54,-73.25 852.3,-82.14 856.59,-76.6"/>
</g>
<!-- Ghost Info Up&#45;&gt;Move Up -->
<g id="edge21" class="edge">
<title>Ghost Info Up&#45;&gt;Move Up</title>
<path fill="none" stroke="green" stroke-width="0.58" d="M980.84,-122.93C971.77,-112.69 956.11,-95.01 941.96,-79.05"/>
<polygon fill="green" stroke="green" stroke-width="0.58" points="944.58,-76.73 935.33,-71.56 939.34,-81.37 944.58,-76.73"/>
</g>
<!-- Ghost Info Down -->
<g id="node12" class="node">
<title>Ghost Info Down</title>
<polygon fill="lightblue" stroke="black" points="272.38,-141.83 192.62,-141.83 192.62,-123.33 272.38,-123.33 272.38,-141.83"/>
<text text-anchor="middle" x="232.5" y="-129.28" font-family="Times,serif" font-size="9.00">Ghost Info Down</text>
</g>
<!-- Ghost Info Down&#45;&gt;Move Left -->
<g id="edge13" class="edge">
<title>Ghost Info Down&#45;&gt;Move Left</title>
<path fill="none" stroke="green" stroke-width="0.16" stroke-dasharray="1,5" d="M253.9,-122.93C288.51,-108.94 357.47,-81.06 403.05,-62.63"/>
<polygon fill="green" stroke="green" stroke-width="0.16" points="404.22,-65.94 412.18,-58.94 401.59,-59.45 404.22,-65.94"/>
</g>
<!-- Ghost Info Down&#45;&gt;Move Down -->
<g id="edge7" class="edge">
<title>Ghost Info Down&#45;&gt;Move Down</title>
<path fill="none" stroke="green" stroke-width="0.46" stroke-dasharray="1,5" d="M227.72,-122.93C223.53,-115.33 217.07,-103.64 210.42,-91.59"/>
<polygon fill="green" stroke="green" stroke-width="0.46" points="213.56,-90.04 205.66,-82.98 207.43,-93.42 213.56,-90.04"/>
</g>
<!-- PAC&#45;MAN Right -->
<g id="node13" class="node">
<title>PAC&#45;MAN Right</title>
<polygon fill="lightblue" stroke="black" points="79,-141.83 0,-141.83 0,-123.33 79,-123.33 79,-141.83"/>
<text text-anchor="middle" x="39.5" y="-129.28" font-family="Times,serif" font-size="9.00">PAC&#45;MAN Right</text>
</g>
<!-- PAC&#45;MAN Right&#45;&gt;Move Down -->
<g id="edge12" class="edge">
<title>PAC&#45;MAN Right&#45;&gt;Move Down</title>
<path fill="none" stroke="green" stroke-width="0.29" stroke-dasharray="1,5" d="M53.93,-122.93C73.47,-111.21 109.25,-89.77 138.42,-72.28"/>
<polygon fill="green" stroke="green" stroke-width="0.29" points="140.08,-75.37 146.86,-67.23 136.48,-69.37 140.08,-75.37"/>
</g>
<!-- PAC&#45;MAN Left -->
<g id="node14" class="node">
<title>PAC&#45;MAN Left</title>
<polygon fill="lightblue" stroke="black" points="1402.38,-141.83 1328.62,-141.83 1328.62,-123.33 1402.38,-123.33 1402.38,-141.83"/>
<text text-anchor="middle" x="1365.5" y="-129.28" font-family="Times,serif" font-size="9.00">PAC&#45;MAN Left</text>
</g>
<!-- PAC&#45;MAN Up -->
<g id="node15" class="node">
<title>PAC&#45;MAN Up</title>
<polygon fill="lightblue" stroke="black" points="606.88,-141.83 536.12,-141.83 536.12,-123.33 606.88,-123.33 606.88,-141.83"/>
<text text-anchor="middle" x="571.5" y="-129.28" font-family="Times,serif" font-size="9.00">PAC&#45;MAN Up</text>
</g>
<!-- PAC&#45;MAN Up&#45;&gt;Move Right -->
<g id="edge14" class="edge">
<title>PAC&#45;MAN Up&#45;&gt;Move Right</title>
<path fill="none" stroke="red" stroke-width="0.38" d="M595.89,-122.93C635.8,-108.77 715.81,-80.38 767.71,-61.97"/>
<polygon fill="red" stroke="red" stroke-width="0.38" points="768.58,-65.38 776.83,-58.74 766.24,-58.78 768.58,-65.38"/>
</g>
<!-- PAC&#45;MAN Up&#45;&gt;Move Left -->
<g id="edge8" class="edge">
<title>PAC&#45;MAN Up&#45;&gt;Move Left</title>
<path fill="none" stroke="green" stroke-width="0.74" d="M559.16,-122.93C542.52,-111.26 512.1,-89.95 487.22,-72.5"/>
<polygon fill="green" stroke="green" stroke-width="0.74" points="489.45,-69.79 479.25,-66.92 485.43,-75.52 489.45,-69.79"/>
</g>
<!-- PAC&#45;MAN Up&#45;&gt;Move Up -->
<g id="edge18" class="edge">
<title>PAC&#45;MAN Up&#45;&gt;Move Up</title>
<path fill="none" stroke="red" stroke-width="0.29" d="M607.02,-124.78C609.89,-124.27 612.74,-123.78 615.5,-123.33 727.13,-104.9 765.92,-137.14 867.5,-87.33 872.27,-84.99 876.86,-81.93 881.15,-78.54"/>
<polygon fill="red" stroke="red" stroke-width="0.29" points="883.45,-81.17 888.68,-71.96 878.85,-75.9 883.45,-81.17"/>
</g>
<!-- PACM&#45;MAN Down -->
<g id="node16" class="node">
<title>PACM&#45;MAN Down</title>
<polygon fill="lightblue" stroke="black" points="1510.62,-141.83 1420.38,-141.83 1420.38,-123.33 1510.62,-123.33 1510.62,-141.83"/>
<text text-anchor="middle" x="1465.5" y="-129.28" font-family="Times,serif" font-size="9.00">PACM&#45;MAN Down</text>
</g>
<!-- Power&#45;Up Time -->
<g id="node17" class="node">
<title>Power&#45;Up Time</title>
<polygon fill="lightblue" stroke="black" points="698.38,-141.83 624.62,-141.83 624.62,-123.33 698.38,-123.33 698.38,-141.83"/>
<text text-anchor="middle" x="661.5" y="-129.28" font-family="Times,serif" font-size="9.00">Power&#45;Up Time</text>
</g>
<!-- Power&#45;Up Time&#45;&gt;Move Left -->
<g id="edge9" class="edge">
<title>Power&#45;Up Time&#45;&gt;Move Left</title>
<path fill="none" stroke="green" stroke-width="0.27" d="M640.2,-122.93C605.82,-108.97 537.4,-81.17 492.03,-62.75"/>
<polygon fill="green" stroke="green" stroke-width="0.27" points="493.4,-59.53 482.82,-59.01 490.77,-66.02 493.4,-59.53"/>
</g>
<!-- Power&#45;Up Time&#45;&gt;Move Up -->
<g id="edge19" class="edge">
<title>Power&#45;Up Time&#45;&gt;Move Up</title>
<path fill="none" stroke="green" stroke-width="0.35" d="M698.6,-124.76C753.82,-114.44 852.74,-95.22 867.5,-87.33 872.19,-84.82 876.72,-81.67 880.99,-78.22"/>
<polygon fill="green" stroke="green" stroke-width="0.35" points="883.24,-80.89 888.42,-71.65 878.61,-75.65 883.24,-80.89"/>
</g>
</g>
</svg>
