<?xml version="1.0" encoding="UTF-8" standalone="no"?>
<!DOCTYPE svg PUBLIC "-//W3C//DTD SVG 1.1//EN"
 "http://www.w3.org/Graphics/SVG/1.1/DTD/svg11.dtd">
<!-- Generated by graphviz version 12.0.0 (20240704.0754)
 -->
<!-- Pages: 1 -->
<svg width="1281pt" height="467pt"
 viewBox="0.00 0.00 1280.50 466.78" xmlns="http://www.w3.org/2000/svg" xmlns:xlink="http://www.w3.org/1999/xlink">
<g id="graph0" class="graph" transform="scale(1 1) rotate(0) translate(4 462.78)">
<polygon fill="white" stroke="none" points="-4,4 -4,-462.78 1276.5,-462.78 1276.5,4 -4,4"/>
<!-- Pellet Right -->
<g id="node1" class="node">
<title>Pellet Right</title>
<polygon fill="lightblue" stroke="black" points="115,-458.78 57.75,-458.78 57.75,-440.28 115,-440.28 115,-458.78"/>
<text text-anchor="middle" x="86.38" y="-446.23" font-family="Times,serif" font-size="9.00">Pellet Right</text>
</g>
<!-- 26296 -->
<g id="node28" class="node">
<title>26296</title>
<ellipse fill="white" stroke="black" cx="86.38" cy="-362.74" rx="27.22" ry="27.22"/>
<text text-anchor="middle" x="86.38" y="-359.44" font-family="Times,serif" font-size="9.00">26296</text>
</g>
<!-- Pellet Right&#45;&gt;26296 -->
<g id="edge16" class="edge">
<title>Pellet Right&#45;&gt;26296</title>
<path fill="none" stroke="green" stroke-width="0.17" d="M86.38,-440.09C86.38,-430.76 86.38,-415.11 86.38,-400.4"/>
<polygon fill="green" stroke="green" stroke-width="0.17" points="89.88,-400.71 86.38,-390.71 82.88,-400.71 89.88,-400.71"/>
</g>
<!-- Pellet Left -->
<g id="node2" class="node">
<title>Pellet Left</title>
<polygon fill="lightblue" stroke="black" points="140.38,-143.89 88.38,-143.89 88.38,-125.39 140.38,-125.39 140.38,-143.89"/>
<text text-anchor="middle" x="114.38" y="-131.34" font-family="Times,serif" font-size="9.00">Pellet Left</text>
</g>
<!-- Move Up -->
<g id="node20" class="node">
<title>Move Up</title>
<ellipse fill="lightblue" stroke="black" cx="147.38" cy="-35.71" rx="35.71" ry="35.71"/>
<text text-anchor="middle" x="147.38" y="-32.41" font-family="Times,serif" font-size="9.00">Move Up</text>
</g>
<!-- Pellet Left&#45;&gt;Move Up -->
<g id="edge4" class="edge">
<title>Pellet Left&#45;&gt;Move Up</title>
<path fill="none" stroke="green" stroke-width="0.14" d="M117.3,-125.04C120.84,-114.64 127.06,-96.38 132.92,-79.16"/>
<polygon fill="green" stroke="green" stroke-width="0.14" points="136.15,-80.55 136.06,-69.96 129.52,-78.3 136.15,-80.55"/>
</g>
<!-- Pellet Up -->
<g id="node3" class="node">
<title>Pellet Up</title>
<polygon fill="lightblue" stroke="black" points="487.88,-458.78 438.88,-458.78 438.88,-440.28 487.88,-440.28 487.88,-458.78"/>
<text text-anchor="middle" x="463.38" y="-446.23" font-family="Times,serif" font-size="9.00">Pellet Up</text>
</g>
<!-- Pellet Down -->
<g id="node4" class="node">
<title>Pellet Down</title>
<polygon fill="lightblue" stroke="black" points="290.5,-143.89 230.25,-143.89 230.25,-125.39 290.5,-125.39 290.5,-143.89"/>
<text text-anchor="middle" x="260.38" y="-131.34" font-family="Times,serif" font-size="9.00">Pellet Down</text>
</g>
<!-- Pellet Down&#45;&gt;Move Up -->
<g id="edge5" class="edge">
<title>Pellet Down&#45;&gt;Move Up</title>
<path fill="none" stroke="red" stroke-width="0.38" d="M250.35,-125.04C235.11,-111.97 205.4,-86.48 181.8,-66.24"/>
<polygon fill="red" stroke="red" stroke-width="0.38" points="184.36,-63.82 174.49,-59.97 179.8,-69.13 184.36,-63.82"/>
</g>
<!-- 23712 -->
<g id="node22" class="node">
<title>23712</title>
<ellipse fill="white" stroke="black" cx="260.38" cy="-35.71" rx="27.22" ry="27.22"/>
<text text-anchor="middle" x="260.38" y="-32.41" font-family="Times,serif" font-size="9.00">23712</text>
</g>
<!-- Pellet Down&#45;&gt;23712 -->
<g id="edge7" class="edge">
<title>Pellet Down&#45;&gt;23712</title>
<path fill="none" stroke="green" stroke-width="0.11" d="M260.38,-125.04C260.38,-113.47 260.38,-92.17 260.38,-73.38"/>
<polygon fill="green" stroke="green" stroke-width="0.11" points="263.88,-73.45 260.38,-63.45 256.88,-73.45 263.88,-73.45"/>
</g>
<!-- Power Pellet Right -->
<g id="node5" class="node">
<title>Power Pellet Right</title>
<polygon fill="lightblue" stroke="black" points="588.75,-458.78 506,-458.78 506,-440.28 588.75,-440.28 588.75,-458.78"/>
<text text-anchor="middle" x="547.38" y="-446.23" font-family="Times,serif" font-size="9.00">Power Pellet Right</text>
</g>
<!-- Power Pellet Left -->
<g id="node6" class="node">
<title>Power Pellet Left</title>
<polygon fill="lightblue" stroke="black" points="684.12,-458.78 606.62,-458.78 606.62,-440.28 684.12,-440.28 684.12,-458.78"/>
<text text-anchor="middle" x="645.38" y="-446.23" font-family="Times,serif" font-size="9.00">Power Pellet Left</text>
</g>
<!-- 24902 -->
<g id="node24" class="node">
<title>24902</title>
<ellipse fill="white" stroke="black" cx="628.38" cy="-362.74" rx="27.22" ry="27.22"/>
<text text-anchor="middle" x="628.38" y="-359.44" font-family="Times,serif" font-size="9.00">24902</text>
</g>
<!-- Power Pellet Left&#45;&gt;24902 -->
<g id="edge11" class="edge">
<title>Power Pellet Left&#45;&gt;24902</title>
<path fill="none" stroke="green" stroke-width="0.22" stroke-dasharray="1,5" d="M643.68,-440.09C641.79,-430.63 638.58,-414.65 635.6,-399.75"/>
<polygon fill="green" stroke="green" stroke-width="0.22" points="639.04,-399.14 633.65,-390.02 632.18,-400.52 639.04,-399.14"/>
</g>
<!-- 26087 -->
<g id="node25" class="node">
<title>26087</title>
<ellipse fill="white" stroke="black" cx="700.38" cy="-362.74" rx="27.22" ry="27.22"/>
<text text-anchor="middle" x="700.38" y="-359.44" font-family="Times,serif" font-size="9.00">26087</text>
</g>
<!-- Power Pellet Left&#45;&gt;26087 -->
<g id="edge14" class="edge">
<title>Power Pellet Left&#45;&gt;26087</title>
<path fill="none" stroke="green" stroke-width="0.22" d="M650.85,-440.09C657.74,-429.46 669.97,-410.61 680.55,-394.3"/>
<polygon fill="green" stroke="green" stroke-width="0.22" points="683.21,-396.63 685.71,-386.34 677.34,-392.82 683.21,-396.63"/>
</g>
<!-- Power Pellet Up -->
<g id="node7" class="node">
<title>Power Pellet Up</title>
<polygon fill="lightblue" stroke="black" points="884.62,-458.78 810.12,-458.78 810.12,-440.28 884.62,-440.28 884.62,-458.78"/>
<text text-anchor="middle" x="847.38" y="-446.23" font-family="Times,serif" font-size="9.00">Power Pellet Up</text>
</g>
<!-- Power Pellet Down -->
<g id="node8" class="node">
<title>Power Pellet Down</title>
<polygon fill="lightblue" stroke="black" points="228.25,-250.78 142.5,-250.78 142.5,-232.28 228.25,-232.28 228.25,-250.78"/>
<text text-anchor="middle" x="185.38" y="-238.23" font-family="Times,serif" font-size="9.00">Power Pellet Down</text>
</g>
<!-- 24430 -->
<g id="node27" class="node">
<title>24430</title>
<ellipse fill="white" stroke="black" cx="185.38" cy="-134.64" rx="27.22" ry="27.22"/>
<text text-anchor="middle" x="185.38" y="-131.34" font-family="Times,serif" font-size="9.00">24430</text>
</g>
<!-- Power Pellet Down&#45;&gt;24430 -->
<g id="edge12" class="edge">
<title>Power Pellet Down&#45;&gt;24430</title>
<path fill="none" stroke="green" stroke-width="0.42" d="M185.38,-231.95C185.38,-219.05 185.38,-193.93 185.38,-172.57"/>
<polygon fill="green" stroke="green" stroke-width="0.42" points="188.88,-172.78 185.38,-162.78 181.88,-172.78 188.88,-172.78"/>
</g>
<!-- Ghost Info Right -->
<g id="node9" class="node">
<title>Ghost Info Right</title>
<polygon fill="lightblue" stroke="black" points="979.75,-458.78 903,-458.78 903,-440.28 979.75,-440.28 979.75,-458.78"/>
<text text-anchor="middle" x="941.38" y="-446.23" font-family="Times,serif" font-size="9.00">Ghost Info Right</text>
</g>
<!-- Ghost Info Left -->
<g id="node10" class="node">
<title>Ghost Info Left</title>
<polygon fill="lightblue" stroke="black" points="323.12,-458.78 251.62,-458.78 251.62,-440.28 323.12,-440.28 323.12,-458.78"/>
<text text-anchor="middle" x="287.38" y="-446.23" font-family="Times,serif" font-size="9.00">Ghost Info Left</text>
</g>
<!-- Move Right -->
<g id="node18" class="node">
<title>Move Right</title>
<ellipse fill="lightblue" stroke="black" cx="334.38" cy="-362.74" rx="41.54" ry="41.54"/>
<text text-anchor="middle" x="334.38" y="-359.44" font-family="Times,serif" font-size="9.00">Move Right</text>
</g>
<!-- Ghost Info Left&#45;&gt;Move Right -->
<g id="edge1" class="edge">
<title>Ghost Info Left&#45;&gt;Move Right</title>
<path fill="none" stroke="red" stroke-width="0.4" stroke-dasharray="1,5" d="M292.05,-440.09C296.23,-432.54 302.71,-420.86 309.35,-408.88"/>
<polygon fill="red" stroke="red" stroke-width="0.4" points="312.34,-410.71 314.13,-400.26 306.22,-407.31 312.34,-410.71"/>
</g>
<!-- Ghost Info Up -->
<g id="node11" class="node">
<title>Ghost Info Up</title>
<polygon fill="lightblue" stroke="black" points="1066.62,-458.78 998.12,-458.78 998.12,-440.28 1066.62,-440.28 1066.62,-458.78"/>
<text text-anchor="middle" x="1032.38" y="-446.23" font-family="Times,serif" font-size="9.00">Ghost Info Up</text>
</g>
<!-- Ghost Info Down -->
<g id="node12" class="node">
<title>Ghost Info Down</title>
<polygon fill="lightblue" stroke="black" points="421.25,-458.78 341.5,-458.78 341.5,-440.28 421.25,-440.28 421.25,-458.78"/>
<text text-anchor="middle" x="381.38" y="-446.23" font-family="Times,serif" font-size="9.00">Ghost Info Down</text>
</g>
<!-- Ghost Info Down&#45;&gt;Move Right -->
<g id="edge6" class="edge">
<title>Ghost Info Down&#45;&gt;Move Right</title>
<path fill="none" stroke="red" stroke-width="0.35" d="M376.7,-440.09C372.52,-432.54 366.04,-420.86 359.4,-408.88"/>
<polygon fill="red" stroke="red" stroke-width="0.35" points="362.49,-407.24 354.58,-400.19 356.37,-410.64 362.49,-407.24"/>
</g>
<!-- PAC&#45;MAN Right -->
<g id="node13" class="node">
<title>PAC&#45;MAN Right</title>
<polygon fill="lightblue" stroke="black" points="1163.88,-458.78 1084.88,-458.78 1084.88,-440.28 1163.88,-440.28 1163.88,-458.78"/>
<text text-anchor="middle" x="1124.38" y="-446.23" font-family="Times,serif" font-size="9.00">PAC&#45;MAN Right</text>
</g>
<!-- PAC&#45;MAN Left -->
<g id="node14" class="node">
<title>PAC&#45;MAN Left</title>
<polygon fill="lightblue" stroke="black" points="929.25,-371.99 855.5,-371.99 855.5,-353.49 929.25,-353.49 929.25,-371.99"/>
<text text-anchor="middle" x="892.38" y="-359.44" font-family="Times,serif" font-size="9.00">PAC&#45;MAN Left</text>
</g>
<!-- Move Down -->
<g id="node21" class="node">
<title>Move Down</title>
<ellipse fill="lightblue" stroke="black" cx="810.38" cy="-241.53" rx="43.66" ry="43.66"/>
<text text-anchor="middle" x="810.38" y="-238.23" font-family="Times,serif" font-size="9.00">Move Down</text>
</g>
<!-- PAC&#45;MAN Left&#45;&gt;Move Down -->
<g id="edge8" class="edge">
<title>PAC&#45;MAN Left&#45;&gt;Move Down</title>
<path fill="none" stroke="red" stroke-width="0.35" d="M886.48,-353.16C876.95,-339.31 857.54,-311.1 840.71,-286.63"/>
<polygon fill="red" stroke="red" stroke-width="0.35" points="843.74,-284.85 835.18,-278.6 837.97,-288.82 843.74,-284.85"/>
</g>
<!-- PAC&#45;MAN Up -->
<g id="node15" class="node">
<title>PAC&#45;MAN Up</title>
<polygon fill="lightblue" stroke="black" points="70.75,-143.89 0,-143.89 0,-125.39 70.75,-125.39 70.75,-143.89"/>
<text text-anchor="middle" x="35.38" y="-131.34" font-family="Times,serif" font-size="9.00">PAC&#45;MAN Up</text>
</g>
<!-- PAC&#45;MAN Up&#45;&gt;Move Up -->
<g id="edge2" class="edge">
<title>PAC&#45;MAN Up&#45;&gt;Move Up</title>
<path fill="none" stroke="red" stroke-width="0.3" stroke-dasharray="1,5" d="M45.31,-125.04C60.42,-111.97 89.86,-86.48 113.26,-66.24"/>
<polygon fill="red" stroke="red" stroke-width="0.3" points="115.32,-69.08 120.59,-59.89 110.74,-63.79 115.32,-69.08"/>
</g>
<!-- PACM&#45;MAN Down -->
<g id="node16" class="node">
<title>PACM&#45;MAN Down</title>
<polygon fill="lightblue" stroke="black" points="1272.5,-458.78 1182.25,-458.78 1182.25,-440.28 1272.5,-440.28 1272.5,-458.78"/>
<text text-anchor="middle" x="1227.38" y="-446.23" font-family="Times,serif" font-size="9.00">PACM&#45;MAN Down</text>
</g>
<!-- Power&#45;Up Time -->
<g id="node17" class="node">
<title>Power&#45;Up Time</title>
<polygon fill="lightblue" stroke="black" points="792.25,-458.78 718.5,-458.78 718.5,-440.28 792.25,-440.28 792.25,-458.78"/>
<text text-anchor="middle" x="755.38" y="-446.23" font-family="Times,serif" font-size="9.00">Power&#45;Up Time</text>
</g>
<!-- Power&#45;Up Time&#45;&gt;Move Down -->
<g id="edge3" class="edge">
<title>Power&#45;Up Time&#45;&gt;Move Down</title>
<path fill="none" stroke="red" stroke-width="0.39" d="M755.82,-440.01C757.08,-419.27 761.46,-364.69 774.38,-321.19 777.45,-310.83 781.65,-300.07 786.09,-289.96"/>
<polygon fill="red" stroke="red" stroke-width="0.39" points="789.19,-291.59 790.14,-281.04 782.82,-288.69 789.19,-291.59"/>
</g>
<!-- Power&#45;Up Time&#45;&gt;26087 -->
<g id="edge18" class="edge">
<title>Power&#45;Up Time&#45;&gt;26087</title>
<path fill="none" stroke="red" stroke-width="0.31" d="M749.9,-440.09C743.07,-429.55 731,-410.95 720.49,-394.75"/>
<polygon fill="red" stroke="red" stroke-width="0.31" points="723.49,-392.93 715.11,-386.45 717.61,-396.74 723.49,-392.93"/>
</g>
<!-- 26690 -->
<g id="node26" class="node">
<title>26690</title>
<ellipse fill="white" stroke="black" cx="810.38" cy="-362.74" rx="27.22" ry="27.22"/>
<text text-anchor="middle" x="810.38" y="-359.44" font-family="Times,serif" font-size="9.00">26690</text>
</g>
<!-- Power&#45;Up Time&#45;&gt;26690 -->
<g id="edge19" class="edge">
<title>Power&#45;Up Time&#45;&gt;26690</title>
<path fill="none" stroke="green" stroke-width="0.3" d="M760.85,-440.09C767.68,-429.55 779.75,-410.95 790.26,-394.75"/>
<polygon fill="green" stroke="green" stroke-width="0.3" points="793.14,-396.73 795.65,-386.44 787.27,-392.92 793.14,-396.73"/>
</g>
<!-- 24483 -->
<g id="node23" class="node">
<title>24483</title>
<ellipse fill="white" stroke="black" cx="335.38" cy="-134.64" rx="27.22" ry="27.22"/>
<text text-anchor="middle" x="335.38" y="-131.34" font-family="Times,serif" font-size="9.00">24483</text>
</g>
<!-- Move Right&#45;&gt;24483 -->
<g id="edge15" class="edge">
<title>Move Right&#45;&gt;24483</title>
<path fill="none" stroke="red" stroke-width="0.13" stroke-dasharray="1,5" d="M329.35,-321.28C328.12,-309.65 326.99,-296.93 326.38,-285.19 324.35,-246.43 323.59,-236.58 326.38,-197.87 326.98,-189.43 328.05,-180.4 329.24,-171.91"/>
<polygon fill="red" stroke="red" stroke-width="0.13" points="332.69,-172.5 330.69,-162.09 325.76,-171.47 332.69,-172.5"/>
</g>
<!-- 26748 -->
<g id="node29" class="node">
<title>26748</title>
<ellipse fill="white" stroke="black" cx="362.38" cy="-241.53" rx="27.22" ry="27.22"/>
<text text-anchor="middle" x="362.38" y="-238.23" font-family="Times,serif" font-size="9.00">26748</text>
</g>
<!-- Move Right&#45;&gt;26748 -->
<g id="edge21" class="edge">
<title>Move Right&#45;&gt;26748</title>
<path fill="none" stroke="green" stroke-width="0.3" d="M343.7,-322.04C346.99,-308.01 350.68,-292.31 353.9,-278.6"/>
<polygon fill="green" stroke="green" stroke-width="0.3" points="357.28,-279.53 356.16,-269 350.46,-277.93 357.28,-279.53"/>
</g>
<!-- Move Left -->
<g id="node19" class="node">
<title>Move Left</title>
<ellipse fill="lightblue" stroke="black" cx="86.38" cy="-241.53" rx="37.83" ry="37.83"/>
<text text-anchor="middle" x="86.38" y="-238.23" font-family="Times,serif" font-size="9.00">Move Left</text>
</g>
<!-- 24483&#45;&gt;23712 -->
<g id="edge10" class="edge">
<title>24483&#45;&gt;23712</title>
<path fill="none" stroke="green" stroke-width="0.18" d="M319.1,-112.61C308.49,-98.89 294.49,-80.8 282.82,-65.72"/>
<polygon fill="green" stroke="green" stroke-width="0.18" points="285.67,-63.68 276.78,-57.92 280.14,-67.97 285.67,-63.68"/>
</g>
<!-- 26690&#45;&gt;Move Down -->
<g id="edge20" class="edge">
<title>26690&#45;&gt;Move Down</title>
<path fill="none" stroke="red" stroke-width="0.38" d="M810.38,-335.28C810.38,-323.58 810.38,-309.39 810.38,-295.66"/>
<polygon fill="red" stroke="red" stroke-width="0.38" points="813.88,-295.87 810.38,-285.87 806.88,-295.87 813.88,-295.87"/>
</g>
<!-- 24430&#45;&gt;Move Up -->
<g id="edge9" class="edge">
<title>24430&#45;&gt;Move Up</title>
<path fill="none" stroke="green" stroke-width="0.16" d="M175.69,-108.93C172.08,-99.74 167.89,-89.04 163.85,-78.73"/>
<polygon fill="green" stroke="green" stroke-width="0.16" points="167.2,-77.69 160.29,-69.65 160.68,-80.24 167.2,-77.69"/>
</g>
<!-- 24430&#45;&gt;23712 -->
<g id="edge13" class="edge">
<title>24430&#45;&gt;23712</title>
<path fill="none" stroke="green" stroke-width="0.22" d="M201.65,-112.61C212.26,-98.89 226.26,-80.8 237.93,-65.72"/>
<polygon fill="green" stroke="green" stroke-width="0.22" points="240.57,-68.02 243.92,-57.97 235.04,-63.74 240.57,-68.02"/>
</g>
<!-- 26296&#45;&gt;Move Left -->
<g id="edge17" class="edge">
<title>26296&#45;&gt;Move Left</title>
<path fill="none" stroke="red" stroke-width="0.29" d="M86.38,-335.28C86.38,-322.02 86.38,-305.54 86.38,-290.17"/>
<polygon fill="red" stroke="red" stroke-width="0.29" points="89.88,-290.2 86.38,-280.2 82.88,-290.2 89.88,-290.2"/>
</g>
<!-- 26748&#45;&gt;24483 -->
<g id="edge22" class="edge">
<title>26748&#45;&gt;24483</title>
<path fill="none" stroke="red" stroke-width="0.22" d="M355.77,-214.87C352.4,-201.79 348.25,-185.67 344.58,-171.4"/>
<polygon fill="red" stroke="red" stroke-width="0.22" points="347.97,-170.53 342.09,-161.71 341.19,-172.27 347.97,-170.53"/>
</g>
</g>
</svg>
